G04 DipTrace 4.3.0.5*
G04 1 - Top.gbr*
%MOMM*%
G04 #@! TF.FileFunction,Copper,L1,Top*
G04 #@! TF.Part,Single*
G04 #@! TA.AperFunction,Conductor*
%ADD16C,0.6604*%
%ADD17C,0.3302*%
%ADD18C,1.0*%
G04 #@! TA.AperFunction,ComponentPad*
%ADD22R,1.1X1.1*%
%ADD23C,1.1*%
%ADD24C,1.65*%
%ADD25R,1.59X1.59*%
%ADD26C,1.59*%
%ADD27R,1.71X1.71*%
%ADD28C,1.71*%
%ADD29R,1.62X1.62*%
%ADD30C,1.62*%
%ADD31O,1.905X2.159*%
%ADD32C,1.27*%
%ADD33C,1.27*%
%ADD34R,1.14X1.14*%
%ADD35C,1.14*%
%ADD36R,1.5X1.5*%
%ADD37C,1.5*%
%FSLAX35Y35*%
G04*
G71*
G90*
G75*
G01*
G04 Top*
%LPD*%
X-6345300Y4124200D2*
D16*
Y3362200D1*
Y2600200D1*
Y1838193D1*
Y1076200D1*
Y314200D1*
Y-447800D1*
Y-1209800D1*
X-8763000Y-2286000D2*
X-8509000D1*
X-4508500Y-2859500D2*
D17*
X-3363500Y-1714500D1*
X-1524000D1*
X-698500Y-889000D1*
X-539750D1*
X-4254500Y-2859500D2*
Y-2857500D1*
X-3238500Y-1841500D1*
X-1524000D1*
X-698500Y-1016000D1*
X-412750D1*
X-285750Y-889000D1*
X-4000500Y-2859500D2*
Y-2857500D1*
X-3111500Y-1968500D1*
X-1524000D1*
X-698500Y-1143000D1*
X-539750D1*
X-3746500Y-2859500D2*
Y-2857500D1*
X-2984500Y-2095500D1*
X-1524000D1*
X-698500Y-1270000D1*
X-412750D1*
X-285750Y-1143000D1*
X-3492500Y-2859500D2*
Y-2857500D1*
X-2857500Y-2222500D1*
X-1524000D1*
X-698500Y-1397000D1*
X-539750D1*
X-3238500Y-2859500D2*
Y-2857500D1*
X-2730500Y-2349500D1*
X-1524000D1*
X-698500Y-1524000D1*
X-412750D1*
X-285750Y-1397000D1*
X-2984500Y-2859500D2*
Y-2857500D1*
X-2603500Y-2476500D1*
X-1524000D1*
X-698500Y-1651000D1*
X-539750D1*
X-2730500Y-2859500D2*
Y-2857500D1*
X-2476500Y-2603500D1*
X-1524000D1*
X-698500Y-1778000D1*
X-412750D1*
X-285750Y-1651000D1*
X-2984500Y-4379500D2*
X-2855500Y-4508500D1*
X-1644453D1*
X-762000Y-3626047D1*
Y-2864047D1*
X-691953Y-2794000D1*
X-412750D1*
X-285750Y-2667000D1*
X-3238500Y-4379500D2*
Y-4318000D1*
X-3111500Y-4191000D1*
X-1460500D1*
X-889000Y-3619500D1*
Y-2794000D1*
X-762000Y-2667000D1*
X-539750D1*
X-4000500Y-4379500D2*
X-3998500D1*
X-3556000Y-3937000D1*
X-1460500D1*
X-1143000Y-3619500D1*
Y-2730500D1*
X-698500Y-2286000D1*
X-412750D1*
X-285750Y-2413000D1*
X-3492500Y-4379500D2*
X-3177000Y-4064000D1*
X-1460500D1*
X-1016000Y-3619500D1*
Y-2730500D1*
X-698500Y-2413000D1*
X-539750D1*
X-2476500Y-2859500D2*
Y-2857500D1*
X-2349500Y-2730500D1*
X-1460500D1*
X-762000Y-2032000D1*
X-412750D1*
X-285750Y-2159000D1*
X-5016500Y-2859500D2*
X-3744500Y-1587500D1*
X-2095500D1*
X-762000Y-254000D1*
X-476250D1*
X-412750Y-190500D1*
Y25203D1*
X-310953Y127000D1*
X-285750D1*
X-5270500Y-2859500D2*
X-3871500Y-1460500D1*
X-2159000D1*
X-825500Y-127000D1*
X-539750D1*
X-6164173Y-2219197D2*
X-5965697D1*
X-3302000Y444500D1*
Y1540000D1*
X-3175000Y1667000D1*
X-6164170Y-1711200D2*
X-5775200D1*
X-3429000Y635000D1*
Y873000D1*
X-285750Y635000D2*
D18*
X-539750D1*
X-809500D1*
X-5905500Y-3619500D2*
D17*
Y-3302000D1*
X-5715000Y-3111500D1*
X-2474500D1*
X-2222500Y-2859500D1*
X-5905500Y-2857500D2*
D18*
X-5526500D1*
X-5524500Y-2859500D1*
X-5905500Y-2857500D2*
X-6159500D1*
X-7302500D1*
X-8191500D1*
X-8509000Y-2540000D1*
X-8763000D1*
X-6159500Y-2857500D2*
D3*
X-7302500Y-2830500D2*
Y-2857500D1*
X-285750Y4699000D2*
D16*
X-539750D1*
X-8763000Y-2032000D2*
X-8509000D1*
X-7302500D1*
X-6858000Y-2476500D1*
X-5588000D1*
X-2476500Y635000D1*
X-1857500D1*
X-3746500Y-4379500D2*
D17*
X-3490500Y-4635500D1*
X-984250D1*
X-539750Y-4191000D1*
X-6091327Y4378197D2*
X-5902197D1*
X-5714987Y4190987D1*
Y3428987D1*
X-5651500Y3365500D1*
X-1397000D1*
X-698500Y2667000D1*
X-539750D1*
X-6091327Y3616197D2*
X-5902197D1*
X-5841977Y3555977D1*
Y3301977D1*
X-5715000Y3175000D1*
X-1397000D1*
X-762000Y2540000D1*
X-412750D1*
X-285750Y2667000D1*
X-6091327Y2854197D2*
X-5908803D1*
X-5778500Y2984500D1*
X-1397000D1*
X-825500Y2413000D1*
X-539750D1*
X-6091333Y2092197D2*
X-5908803D1*
X-5778500Y2222500D1*
Y2667000D1*
X-5651500Y2794000D1*
X-1397000D1*
X-889000Y2286000D1*
X-412750D1*
X-285750Y2413000D1*
X-6091327Y1330197D2*
X-5972303D1*
X-5651500Y1651000D1*
Y2222500D1*
X-5270500Y2603500D1*
X-1397000D1*
X-952500Y2159000D1*
X-539750D1*
X-6091327Y568197D2*
X-5972303D1*
X-5524500Y1016000D1*
Y2032000D1*
X-5143500Y2413000D1*
X-1397000D1*
X-1016000Y2032000D1*
X-412750D1*
X-285750Y2159000D1*
X-6091327Y-193803D2*
X-5845303D1*
X-5397500Y254000D1*
Y1841500D1*
X-5016500Y2222500D1*
X-1397000D1*
X-1079500Y1905000D1*
X-539750D1*
X-6091327Y-955803D2*
X-5908803D1*
X-5270500Y-317500D1*
Y1587500D1*
X-4826000Y2032000D1*
X-1397000D1*
X-1143000Y1778000D1*
X-412750D1*
X-285750Y1905000D1*
D22*
X-7302500Y-2830500D3*
D23*
Y-2630500D3*
D24*
X-2603492Y952500D3*
X-2603508Y1460500D3*
X-6159500Y-2857500D3*
Y-3365500D3*
D25*
X-1857500Y635000D3*
D26*
X-809500D3*
D27*
X-539750Y127000D3*
D28*
X-285750D3*
X-539750Y-127000D3*
X-285750D3*
X-539750Y-381000D3*
X-285750D3*
X-539750Y-635000D3*
X-285750D3*
X-539750Y-889000D3*
X-285750D3*
X-539750Y-1143000D3*
X-285750D3*
X-539750Y-1397000D3*
X-285750D3*
X-539750Y-1651000D3*
X-285750D3*
X-539750Y-1905000D3*
X-285750D3*
X-539750Y-2159000D3*
X-285750D3*
X-539750Y-2413000D3*
X-285750D3*
X-539750Y-2667000D3*
X-285750D3*
X-539750Y-2921000D3*
X-285750D3*
X-539750Y-3175000D3*
X-285750D3*
X-539750Y-3429000D3*
X-285750D3*
X-539750Y-3683000D3*
X-285750D3*
X-539750Y-3937000D3*
X-285750D3*
X-539750Y-4191000D3*
X-285750D3*
X-539750Y-4445000D3*
X-285750D3*
X-539750Y-4699000D3*
X-285750D3*
D27*
X-539750Y4699000D3*
D28*
X-285750D3*
X-539750Y4445000D3*
X-285750D3*
X-539750Y4191000D3*
X-285750D3*
X-539750Y3937000D3*
X-285750D3*
X-539750Y3683000D3*
X-285750D3*
X-539750Y3429000D3*
X-285750D3*
X-539750Y3175000D3*
X-285750D3*
X-539750Y2921000D3*
X-285750D3*
X-539750Y2667000D3*
X-285750D3*
X-539750Y2413000D3*
X-285750D3*
X-539750Y2159000D3*
X-285750D3*
X-539750Y1905000D3*
X-285750D3*
X-539750Y1651000D3*
X-285750D3*
X-539750Y1397000D3*
X-285750D3*
X-539750Y1143000D3*
X-285750D3*
X-539750Y889000D3*
X-285750D3*
X-539750Y635000D3*
X-285750D3*
D29*
X-8763000Y-2032000D3*
D30*
X-8509000D3*
X-8763000Y-2286000D3*
X-8509000D3*
X-8763000Y-2540000D3*
X-8509000D3*
D31*
X-6164173Y-2219197D3*
X-6164170Y-1711200D3*
X-6164173Y-1965197D3*
X-6091327Y4378197D3*
X-6345300Y4124200D3*
X-6091327Y4124197D3*
Y3616197D3*
X-6345300Y3362200D3*
X-6091327Y3362197D3*
Y2854197D3*
X-6345300Y2600200D3*
X-6091327Y2600197D3*
X-6091333Y2092196D3*
X-6345300Y1838193D3*
X-6091327Y1838196D3*
Y1330197D3*
X-6345300Y1076200D3*
X-6091327Y1076197D3*
Y568197D3*
X-6345300Y314200D3*
X-6091327Y314197D3*
Y-193803D3*
X-6345300Y-447800D3*
X-6091327Y-447803D3*
Y-955803D3*
X-6345300Y-1209800D3*
X-6091327Y-1209803D3*
D32*
X-6159507Y-3556000D3*
D33*
X-6159493Y-4318000D3*
D32*
X-5905507Y-2857500D3*
D33*
X-5905493Y-3619500D3*
D34*
X-4699000Y873000D3*
D35*
X-4445000D3*
X-4191000D3*
X-3937000D3*
X-3683000D3*
X-3429000D3*
X-3175000D3*
Y1667000D3*
X-3429000D3*
X-3683000D3*
X-3937000D3*
X-4191000D3*
X-4445000D3*
X-4699000D3*
D36*
X-2222500Y-2859500D3*
D37*
X-2476500D3*
X-2730500D3*
X-2984500D3*
X-3238500D3*
X-3492500D3*
X-3746500D3*
X-4000500D3*
X-4254500D3*
X-4508500D3*
X-4762500D3*
X-5016500D3*
X-5270500D3*
X-5524500D3*
Y-4379500D3*
X-5270500D3*
X-5016500D3*
X-4762500D3*
X-4508500D3*
X-4254500D3*
X-4000500D3*
X-3746500D3*
X-3492500D3*
X-3238500D3*
X-2984500D3*
X-2730500D3*
X-2476500D3*
X-2222500D3*
M02*
