G04 DipTrace 4.3.0.5*
G04 BottomMask.gbr*
%MOMM*%
G04 #@! TF.FileFunction,Soldermask,Bot*
G04 #@! TF.Part,Single*
%ADD47C,1.7*%
%ADD48C,1.3*%
%ADD49R,1.7X1.7*%
%ADD50R,1.3X1.3*%
%ADD51C,1.34*%
%ADD53R,1.34X1.34*%
%ADD55C,1.47*%
%ADD57C,1.47*%
%ADD59O,2.105X2.359*%
%ADD61C,1.82*%
%ADD63R,1.82X1.82*%
%ADD65C,1.91*%
%ADD67R,1.91X1.91*%
%ADD69C,1.79*%
%ADD71R,1.79X1.79*%
%ADD73C,1.85*%
%FSLAX35Y35*%
G04*
G71*
G90*
G75*
G01*
G04 BotMask*
%LPD*%
D50*
X-7302500Y-2830500D3*
D48*
Y-2630500D3*
D73*
X-2603492Y952500D3*
X-2603508Y1460500D3*
X-6159500Y-2857500D3*
Y-3365500D3*
D71*
X-1857500Y635000D3*
D69*
X-809500D3*
D67*
X-539750Y127000D3*
D65*
X-285750D3*
X-539750Y-127000D3*
X-285750D3*
X-539750Y-381000D3*
X-285750D3*
X-539750Y-635000D3*
X-285750D3*
X-539750Y-889000D3*
X-285750D3*
X-539750Y-1143000D3*
X-285750D3*
X-539750Y-1397000D3*
X-285750D3*
X-539750Y-1651000D3*
X-285750D3*
X-539750Y-1905000D3*
X-285750D3*
X-539750Y-2159000D3*
X-285750D3*
X-539750Y-2413000D3*
X-285750D3*
X-539750Y-2667000D3*
X-285750D3*
X-539750Y-2921000D3*
X-285750D3*
X-539750Y-3175000D3*
X-285750D3*
X-539750Y-3429000D3*
X-285750D3*
X-539750Y-3683000D3*
X-285750D3*
X-539750Y-3937000D3*
X-285750D3*
X-539750Y-4191000D3*
X-285750D3*
X-539750Y-4445000D3*
X-285750D3*
X-539750Y-4699000D3*
X-285750D3*
D67*
X-539750Y4699000D3*
D65*
X-285750D3*
X-539750Y4445000D3*
X-285750D3*
X-539750Y4191000D3*
X-285750D3*
X-539750Y3937000D3*
X-285750D3*
X-539750Y3683000D3*
X-285750D3*
X-539750Y3429000D3*
X-285750D3*
X-539750Y3175000D3*
X-285750D3*
X-539750Y2921000D3*
X-285750D3*
X-539750Y2667000D3*
X-285750D3*
X-539750Y2413000D3*
X-285750D3*
X-539750Y2159000D3*
X-285750D3*
X-539750Y1905000D3*
X-285750D3*
X-539750Y1651000D3*
X-285750D3*
X-539750Y1397000D3*
X-285750D3*
X-539750Y1143000D3*
X-285750D3*
X-539750Y889000D3*
X-285750D3*
X-539750Y635000D3*
X-285750D3*
D63*
X-8763000Y-2032000D3*
D61*
X-8509000D3*
X-8763000Y-2286000D3*
X-8509000D3*
X-8763000Y-2540000D3*
X-8509000D3*
D59*
X-6164173Y-2219197D3*
X-6164170Y-1711200D3*
X-6164173Y-1965197D3*
X-6091327Y4378197D3*
X-6345300Y4124200D3*
X-6091327Y4124197D3*
Y3616197D3*
X-6345300Y3362200D3*
X-6091327Y3362197D3*
Y2854197D3*
X-6345300Y2600200D3*
X-6091327Y2600197D3*
X-6091333Y2092196D3*
X-6345300Y1838193D3*
X-6091327Y1838196D3*
Y1330197D3*
X-6345300Y1076200D3*
X-6091327Y1076197D3*
Y568197D3*
X-6345300Y314200D3*
X-6091327Y314197D3*
Y-193803D3*
X-6345300Y-447800D3*
X-6091327Y-447803D3*
Y-955803D3*
X-6345300Y-1209800D3*
X-6091327Y-1209803D3*
D57*
X-6159507Y-3556000D3*
D55*
X-6159493Y-4318000D3*
D57*
X-5905507Y-2857500D3*
D55*
X-5905493Y-3619500D3*
D53*
X-4699000Y873000D3*
D51*
X-4445000D3*
X-4191000D3*
X-3937000D3*
X-3683000D3*
X-3429000D3*
X-3175000D3*
Y1667000D3*
X-3429000D3*
X-3683000D3*
X-3937000D3*
X-4191000D3*
X-4445000D3*
X-4699000D3*
D49*
X-2222500Y-2859500D3*
D47*
X-2476500D3*
X-2730500D3*
X-2984500D3*
X-3238500D3*
X-3492500D3*
X-3746500D3*
X-4000500D3*
X-4254500D3*
X-4508500D3*
X-4762500D3*
X-5016500D3*
X-5270500D3*
X-5524500D3*
Y-4379500D3*
X-5270500D3*
X-5016500D3*
X-4762500D3*
X-4508500D3*
X-4254500D3*
X-4000500D3*
X-3746500D3*
X-3492500D3*
X-3238500D3*
X-2984500D3*
X-2730500D3*
X-2476500D3*
X-2222500D3*
M02*
