M48
METRIC,0000.00
T01C0.559
T02C0.7
T03C0.74
T04C0.9
T05C1.0
T06C1.06
T07C1.08
T08C1.14
%
T01
X-006160Y-003556
X-005905Y-003619
X-006159Y-004318
X-005906Y-002858
T02
X-007302Y-002831
X-007302Y-002631
T03
X-004699Y+000873
X-004445Y+000873
X-004191Y+000873
X-003937Y+000873
X-003683Y+000873
X-003429Y+000873
X-003175Y+000873
X-003175Y+001667
X-003429Y+001667
X-003683Y+001667
X-003937Y+001667
X-004191Y+001667
X-004445Y+001667
X-004699Y+001667
T04
X-002223Y-002860
X-002476Y-002860
X-002731Y-002860
X-002985Y-002860
X-003238Y-002860
X-003493Y-002860
X-003747Y-002860
X-004000Y-002860
X-004254Y-002860
X-004509Y-002860
X-004762Y-002860
X-005016Y-002860
X-005271Y-002860
X-005525Y-002860
X-005525Y-004380
X-005271Y-004380
X-005016Y-004380
X-004762Y-004380
X-004509Y-004380
X-004254Y-004380
X-004000Y-004380
X-003747Y-004380
X-003493Y-004380
X-003238Y-004380
X-002985Y-004380
X-002731Y-004380
X-002476Y-004380
X-002223Y-004380
T05
X-002603Y+000953
X-002604Y+001460
X-006091Y+001330
X-006091Y+001076
X-006345Y+001076
X-006091Y+000568
X-006091Y+000314
X-006345Y+000314
X-006091Y-000194
X-006091Y-000448
X-006345Y-000448
X-006091Y-000956
X-006091Y-001210
X-006345Y-001210
X-006164Y-001711
X-006164Y-001965
X-006164Y-002219
X-006160Y-002858
X-006160Y-003365
X-006091Y+001838
X-006345Y+001838
X-006091Y+002092
X-006091Y+002600
X-006345Y+002600
X-006091Y+002854
X-006091Y+003362
X-006345Y+003362
X-006091Y+003616
X-006091Y+004124
X-006345Y+004124
X-006091Y+004378
T06
X-001858Y+000635
X-000810Y+000635
T07
X-008763Y-002032
X-008509Y-002032
X-008509Y-002286
X-008509Y-002540
X-008763Y-002540
X-008763Y-002286
T08
X-000540Y+000127
X-000286Y+000127
X-000286Y-000127
X-000540Y-000127
X-000540Y-000381
X-000286Y-000381
X-000286Y-000635
X-000540Y-000635
X-000540Y-000889
X-000286Y-000889
X-000286Y-001143
X-000286Y-001397
X-000540Y-001397
X-000540Y-001143
X-000540Y-001651
X-000286Y-001651
X-000286Y-001905
X-000540Y-001905
X-000540Y-002159
X-000540Y-002413
X-000286Y-002413
X-000286Y-002667
X-000540Y-002667
X-000540Y-002921
X-000540Y-003175
X-000286Y-003175
X-000286Y-003429
X-000540Y-003429
X-000540Y-003683
X-000540Y-003937
X-000286Y-003937
X-000286Y-003683
X-000286Y-004191
X-000540Y-004191
X-000540Y-004445
X-000286Y-004445
X-000286Y-004699
X-000540Y-004699
X-000286Y-002921
X-000286Y-002159
X-000286Y+000635
X-000540Y+000635
X-000540Y+000889
X-000540Y+001143
X-000540Y+001397
X-000286Y+001397
X-000286Y+001143
X-000286Y+000889
X-000286Y+001651
X-000286Y+001905
X-000286Y+002159
X-000540Y+002159
X-000540Y+001905
X-000540Y+001651
X-000540Y+002413
X-000540Y+002667
X-000286Y+002667
X-000286Y+002921
X-000540Y+002921
X-000540Y+003175
X-000540Y+003429
X-000286Y+003429
X-000286Y+003683
X-000540Y+003683
X-000540Y+003937
X-000286Y+003937
X-000286Y+004191
X-000540Y+004191
X-000540Y+004445
X-000286Y+004445
X-000286Y+004699
X-000540Y+004699
X-000286Y+003175
X-000286Y+002413
T00
M30
