G04 DipTrace 4.3.0.5*
G04 TopSilk.gbr*
%MOMM*%
G04 #@! TF.FileFunction,Legend,Top*
G04 #@! TF.Part,Single*
%ADD10C,0.25*%
%ADD13C,0.12*%
%ADD20C,0.15*%
%ADD21C,0.1*%
%ADD77C,0.19608*%
%ADD78C,0.15686*%
%ADD79C,0.27778*%
%FSLAX35Y35*%
G04*
G71*
G90*
G75*
G01*
G04 TopSilk*
%LPD*%
X-7577500Y-2730500D2*
D13*
G02X-7577500Y-2730500I275000J0D01*
G01*
G36*
X-7527360Y-2980360D2*
X-7530623Y-2980146D1*
X-7533830Y-2979508D1*
X-7536927Y-2978457D1*
X-7539860Y-2977011D1*
X-7542579Y-2975194D1*
X-7545038Y-2973038D1*
X-7547194Y-2970579D1*
X-7549011Y-2967860D1*
X-7550457Y-2964927D1*
X-7551508Y-2961830D1*
X-7552146Y-2958623D1*
X-7552360Y-2955360D1*
X-7552146Y-2952097D1*
X-7551508Y-2948890D1*
X-7550457Y-2945793D1*
X-7549011Y-2942860D1*
X-7547194Y-2940141D1*
X-7545038Y-2937682D1*
X-7542579Y-2935526D1*
X-7539860Y-2933709D1*
X-7536927Y-2932263D1*
X-7533830Y-2931212D1*
X-7530623Y-2930574D1*
X-7527360Y-2930360D1*
D1*
X-7524097Y-2930574D1*
X-7520890Y-2931212D1*
X-7517793Y-2932263D1*
X-7514860Y-2933709D1*
X-7512141Y-2935526D1*
X-7509682Y-2937682D1*
X-7507526Y-2940141D1*
X-7505709Y-2942860D1*
X-7504263Y-2945793D1*
X-7503212Y-2948890D1*
X-7502574Y-2952097D1*
X-7502360Y-2955360D1*
X-7502574Y-2958623D1*
X-7503212Y-2961830D1*
X-7504263Y-2964927D1*
X-7505709Y-2967860D1*
X-7507526Y-2970579D1*
X-7509682Y-2973038D1*
X-7512141Y-2975194D1*
X-7514860Y-2977011D1*
X-7517793Y-2978457D1*
X-7520890Y-2979508D1*
X-7524097Y-2980146D1*
X-7527360Y-2980360D1*
D1*
G37*
X-2478493Y1006624D2*
D10*
X-2496493D1*
X-2710493Y1006616D2*
X-2728493D1*
X-2710507Y1406376D2*
X-2728507D1*
X-2478507Y1406384D2*
X-2496507D1*
X-2728493Y1006616D2*
X-2728507Y1406376D1*
X-2478493Y1006624D2*
X-2478507Y1406384D1*
X-6284500Y-2911620D2*
X-6266500D1*
X-6052500D2*
X-6034500D1*
X-6052500Y-3311380D2*
X-6034500D1*
X-6284500D2*
X-6266500D1*
X-6034500Y-2911620D2*
Y-3311380D1*
X-6284500Y-2911620D2*
Y-3311380D1*
X-1506500Y770000D2*
D13*
X-1593500D1*
Y500000D1*
X-1506500D1*
X-1160500Y770000D2*
X-1073500D1*
Y500000D1*
X-1160500D1*
X-1760500Y635000D2*
X-1593500D1*
X-1073500D2*
X-906500D1*
G36*
X-1882500Y752000D2*
X-1882286Y755263D1*
X-1881648Y758470D1*
X-1880597Y761567D1*
X-1879151Y764500D1*
X-1877334Y767219D1*
X-1875178Y769678D1*
X-1872719Y771834D1*
X-1870000Y773651D1*
X-1867067Y775097D1*
X-1863970Y776148D1*
X-1860763Y776786D1*
X-1857500Y777000D1*
X-1854237Y776786D1*
X-1851030Y776148D1*
X-1847933Y775097D1*
X-1845000Y773651D1*
X-1842281Y771834D1*
X-1839822Y769678D1*
X-1837666Y767219D1*
X-1835849Y764500D1*
X-1834403Y761567D1*
X-1833352Y758470D1*
X-1832714Y755263D1*
X-1832500Y752000D1*
D1*
X-1832714Y748737D1*
X-1833352Y745530D1*
X-1834403Y742433D1*
X-1835849Y739500D1*
X-1837666Y736781D1*
X-1839822Y734322D1*
X-1842281Y732166D1*
X-1845000Y730349D1*
X-1847933Y728903D1*
X-1851030Y727852D1*
X-1854237Y727214D1*
X-1857500Y727000D1*
X-1860763Y727214D1*
X-1863970Y727852D1*
X-1867067Y728903D1*
X-1870000Y730349D1*
X-1872719Y732166D1*
X-1875178Y734322D1*
X-1877334Y736781D1*
X-1879151Y739500D1*
X-1880597Y742433D1*
X-1881648Y745530D1*
X-1882286Y748737D1*
X-1882500Y752000D1*
D1*
G37*
X-158750Y254000D2*
D13*
X-666750D1*
Y-4826000D1*
X-158750D1*
Y254000D1*
G36*
X-709750Y152000D2*
X-706487Y151786D1*
X-703280Y151148D1*
X-700183Y150097D1*
X-697250Y148651D1*
X-694531Y146834D1*
X-692072Y144678D1*
X-689916Y142219D1*
X-688099Y139500D1*
X-686653Y136567D1*
X-685602Y133470D1*
X-684964Y130263D1*
X-684750Y127000D1*
X-684964Y123737D1*
X-685602Y120530D1*
X-686653Y117433D1*
X-688099Y114500D1*
X-689916Y111781D1*
X-692072Y109322D1*
X-694531Y107166D1*
X-697250Y105349D1*
X-700183Y103903D1*
X-703280Y102852D1*
X-706487Y102214D1*
X-709750Y102000D1*
D1*
X-713013Y102214D1*
X-716220Y102852D1*
X-719317Y103903D1*
X-722250Y105349D1*
X-724969Y107166D1*
X-727428Y109322D1*
X-729584Y111781D1*
X-731401Y114500D1*
X-732847Y117433D1*
X-733898Y120530D1*
X-734536Y123737D1*
X-734750Y127000D1*
X-734536Y130263D1*
X-733898Y133470D1*
X-732847Y136567D1*
X-731401Y139500D1*
X-729584Y142219D1*
X-727428Y144678D1*
X-724969Y146834D1*
X-722250Y148651D1*
X-719317Y150097D1*
X-716220Y151148D1*
X-713013Y151786D1*
X-709750Y152000D1*
D1*
G37*
X-158750Y4826000D2*
D13*
X-666750D1*
Y508000D1*
X-158750D1*
Y4826000D1*
G36*
X-709750Y4724000D2*
X-706487Y4723786D1*
X-703280Y4723148D1*
X-700183Y4722097D1*
X-697250Y4720651D1*
X-694531Y4718834D1*
X-692072Y4716678D1*
X-689916Y4714219D1*
X-688099Y4711500D1*
X-686653Y4708567D1*
X-685602Y4705470D1*
X-684964Y4702263D1*
X-684750Y4699000D1*
X-684964Y4695737D1*
X-685602Y4692530D1*
X-686653Y4689433D1*
X-688099Y4686500D1*
X-689916Y4683781D1*
X-692072Y4681322D1*
X-694531Y4679166D1*
X-697250Y4677349D1*
X-700183Y4675903D1*
X-703280Y4674852D1*
X-706487Y4674214D1*
X-709750Y4674000D1*
D1*
X-713013Y4674214D1*
X-716220Y4674852D1*
X-719317Y4675903D1*
X-722250Y4677349D1*
X-724969Y4679166D1*
X-727428Y4681322D1*
X-729584Y4683781D1*
X-731401Y4686500D1*
X-732847Y4689433D1*
X-733898Y4692530D1*
X-734536Y4695737D1*
X-734750Y4699000D1*
X-734536Y4702263D1*
X-733898Y4705470D1*
X-732847Y4708567D1*
X-731401Y4711500D1*
X-729584Y4714219D1*
X-727428Y4716678D1*
X-724969Y4718834D1*
X-722250Y4720651D1*
X-719317Y4722097D1*
X-716220Y4723148D1*
X-713013Y4723786D1*
X-709750Y4724000D1*
D1*
G37*
X-8986500Y-1919000D2*
D13*
X-9174400D1*
Y-2653000D1*
X-8986500D1*
X-9174400Y-2032000D2*
X-9982100D1*
X-9174400Y-2286000D2*
X-9982100D1*
X-9174400Y-2540000D2*
X-9982100D1*
G36*
X-8763000Y-1851000D2*
X-8759737Y-1851214D1*
X-8756530Y-1851852D1*
X-8753433Y-1852903D1*
X-8750500Y-1854349D1*
X-8747781Y-1856166D1*
X-8745322Y-1858322D1*
X-8743166Y-1860781D1*
X-8741349Y-1863500D1*
X-8739903Y-1866433D1*
X-8738852Y-1869530D1*
X-8738214Y-1872737D1*
X-8738000Y-1876000D1*
X-8738214Y-1879263D1*
X-8738852Y-1882470D1*
X-8739903Y-1885567D1*
X-8741349Y-1888500D1*
X-8743166Y-1891219D1*
X-8745322Y-1893678D1*
X-8747781Y-1895834D1*
X-8750500Y-1897651D1*
X-8753433Y-1899097D1*
X-8756530Y-1900148D1*
X-8759737Y-1900786D1*
X-8763000Y-1901000D1*
D1*
X-8766263Y-1900786D1*
X-8769470Y-1900148D1*
X-8772567Y-1899097D1*
X-8775500Y-1897651D1*
X-8778219Y-1895834D1*
X-8780678Y-1893678D1*
X-8782834Y-1891219D1*
X-8784651Y-1888500D1*
X-8786097Y-1885567D1*
X-8787148Y-1882470D1*
X-8787786Y-1879263D1*
X-8788000Y-1876000D1*
X-8787786Y-1872737D1*
X-8787148Y-1869530D1*
X-8786097Y-1866433D1*
X-8784651Y-1863500D1*
X-8782834Y-1860781D1*
X-8780678Y-1858322D1*
X-8778219Y-1856166D1*
X-8775500Y-1854349D1*
X-8772567Y-1852903D1*
X-8769470Y-1851852D1*
X-8766263Y-1851214D1*
X-8763000Y-1851000D1*
D1*
G37*
X-6350000Y-2476500D2*
D10*
X-5969000D1*
X-6350000Y-1460500D2*
X-5969000D1*
X-5905500Y4635500D2*
X-6477000D1*
X-5905500Y3873500D2*
X-6477000D1*
X-5905500D2*
X-6477000D1*
X-5905500Y3111500D2*
X-6477000D1*
X-5905500D2*
X-6477000D1*
X-5905500Y2349500D2*
X-6477000D1*
X-5905513Y2349504D2*
X-6477013Y2349489D1*
X-5905494Y1587504D2*
X-6476994Y1587489D1*
X-5905500Y1587500D2*
X-6477000D1*
X-5905500Y825500D2*
X-6477000D1*
X-5905500D2*
X-6477000D1*
X-5905500Y63500D2*
X-6477000D1*
X-5905500D2*
X-6477000D1*
X-5905500Y-698500D2*
X-6477000D1*
X-5905500D2*
X-6477000D1*
X-5905500Y-1460500D2*
X-6477000D1*
X-6083304Y-3733419D2*
X-6235704Y-3733421D1*
X-6083296Y-4140579D2*
X-6083304Y-3733419D1*
X-6083296Y-4140579D2*
X-6235696Y-4140581D1*
X-6235704Y-3733421D1*
X-5829304Y-3034919D2*
X-5981704Y-3034921D1*
X-5829296Y-3442079D2*
X-5829304Y-3034919D1*
X-5829296Y-3442079D2*
X-5981696Y-3442081D1*
X-5981704Y-3034921D1*
X-4774000Y1600000D2*
D13*
X-4922000D1*
Y940000D1*
X-4774000D1*
X-3100000Y1600000D2*
X-2952000D1*
Y940000D1*
X-3100000D1*
G36*
X-4724000Y779000D2*
X-4723786Y782263D1*
X-4723148Y785470D1*
X-4722097Y788567D1*
X-4720651Y791500D1*
X-4718834Y794219D1*
X-4716678Y796678D1*
X-4714219Y798834D1*
X-4711500Y800651D1*
X-4708567Y802097D1*
X-4705470Y803148D1*
X-4702263Y803786D1*
X-4699000Y804000D1*
X-4695737Y803786D1*
X-4692530Y803148D1*
X-4689433Y802097D1*
X-4686500Y800651D1*
X-4683781Y798834D1*
X-4681322Y796678D1*
X-4679166Y794219D1*
X-4677349Y791500D1*
X-4675903Y788567D1*
X-4674852Y785470D1*
X-4674214Y782263D1*
X-4674000Y779000D1*
D1*
X-4674214Y775737D1*
X-4674852Y772530D1*
X-4675903Y769433D1*
X-4677349Y766500D1*
X-4679166Y763781D1*
X-4681322Y761322D1*
X-4683781Y759166D1*
X-4686500Y757349D1*
X-4689433Y755903D1*
X-4692530Y754852D1*
X-4695737Y754214D1*
X-4699000Y754000D1*
X-4702263Y754214D1*
X-4705470Y754852D1*
X-4708567Y755903D1*
X-4711500Y757349D1*
X-4714219Y759166D1*
X-4716678Y761322D1*
X-4718834Y763781D1*
X-4720651Y766500D1*
X-4722097Y769433D1*
X-4723148Y772530D1*
X-4723786Y775737D1*
X-4724000Y779000D1*
D1*
G37*
X-2013500Y-4259443D2*
D10*
X-5733500D1*
Y-2979557D2*
Y-4259443D1*
X-2013500Y-2979557D2*
X-5733500D1*
X-2013500D2*
Y-3539507D1*
Y-4259443D2*
Y-3699493D1*
Y-3539507D2*
G03X-2013500Y-3699493I13J-79993D01*
G01*
G36*
X-658620Y4699623D2*
X-912620Y4826623D1*
Y4572627D1*
D1*
X-658620Y4699623D1*
G37*
G36*
Y127623D2*
X-912620Y254623D1*
Y627D1*
D1*
X-658620Y127623D1*
G37*
X-7239000Y4889500D2*
D10*
X-6794500D1*
X-6858000Y4953000D1*
X-6794500Y4889500D2*
X-6858000Y4826000D1*
X-6921500Y4635500D2*
X-5905500D1*
Y3873500D1*
X-6921500D1*
Y4635500D1*
Y3873500D2*
X-5905500D1*
Y3111500D1*
X-6921500D1*
Y3873500D1*
Y3111500D2*
X-5905500D1*
Y2349500D1*
X-6921500D1*
Y3111500D1*
Y2349500D2*
X-5905500D1*
Y1587500D1*
X-6921500D1*
Y2349500D1*
Y-1460500D2*
X-5905500D1*
Y-2476500D1*
X-6921500D1*
Y-1460500D1*
X-5017997Y-184977D2*
D20*
X-2089137D1*
X-4870490Y-443003D2*
X-1885990D1*
X-9080500Y-2730500D2*
D21*
Y-4445000D1*
X-6921500Y1587500D2*
D10*
X-5905500D1*
Y825500D1*
X-6921500D1*
Y1587500D1*
Y825500D2*
X-5905500D1*
Y63500D1*
X-6921500D1*
Y825500D1*
Y63500D2*
X-5905500D1*
Y-698500D1*
X-6921500D1*
Y63500D1*
Y-698500D2*
X-5905500D1*
Y-1460500D1*
X-6921500D1*
Y-698500D1*
X-7331800Y4559300D2*
X-7051800D1*
Y3709300D1*
X-7331800D1*
Y4559300D1*
X-7611800D2*
X-7331800D1*
Y3709300D1*
X-7611800D1*
Y4559300D1*
X-7891800D2*
X-7611800D1*
Y3709300D1*
X-7891800D1*
Y4559300D1*
X-8171800D2*
X-7891800D1*
Y3709300D1*
X-8171800D1*
Y4559300D1*
X-8451800D2*
X-8171800D1*
Y3709300D1*
X-8451800D1*
Y4559300D1*
X-8731800D2*
X-8451800D1*
Y3709300D1*
X-8731800D1*
Y4559300D1*
X-9011800D2*
X-8731800D1*
Y3709300D1*
X-9011800D1*
Y4559300D1*
X-9291800D2*
X-9011800D1*
Y3709300D1*
X-9291800D1*
Y4559300D1*
X-9571800D2*
X-9291800D1*
Y3709300D1*
X-9571800D1*
Y4559300D1*
X-9851800D2*
X-9571800D1*
Y3709300D1*
X-9851800D1*
Y4559300D1*
X-7331800Y3709300D2*
X-7051800D1*
Y2709300D1*
X-7331800D1*
Y3709300D1*
X-7611800D2*
X-7331800D1*
Y2709300D1*
X-7611800D1*
Y3709300D1*
X-7891800D2*
X-7611800D1*
Y2709300D1*
X-7891800D1*
Y3709300D1*
X-8171800D2*
X-7891800D1*
Y2709300D1*
X-8171800D1*
Y3709300D1*
X-8451800D2*
X-8171800D1*
Y2709300D1*
X-8451800D1*
Y3709300D1*
X-8731800D2*
X-8451800D1*
Y2709300D1*
X-8731800D1*
Y3709300D1*
X-9011800D2*
X-8731800D1*
Y2709300D1*
X-9011800D1*
Y3709300D1*
X-9291800D2*
X-9011800D1*
Y2709300D1*
X-9291800D1*
Y3709300D1*
X-9571800D2*
X-9291800D1*
Y2709300D1*
X-9571800D1*
Y3709300D1*
X-9851800D2*
X-9571800D1*
Y2709300D1*
X-9851800D1*
Y3709300D1*
X-7331800Y2709300D2*
X-7051800D1*
Y609300D1*
X-7331800D1*
Y2709300D1*
X-7611800D2*
X-7331800D1*
Y609300D1*
X-7611800D1*
Y2709300D1*
X-7891800D2*
X-7611800D1*
Y609300D1*
X-7891800D1*
Y2709300D1*
X-8171800D2*
X-7891800D1*
Y609300D1*
X-8171800D1*
Y2709300D1*
X-8451800D2*
X-8171800D1*
Y609300D1*
X-8451800D1*
Y2709300D1*
X-8731800D2*
X-8451800D1*
Y609300D1*
X-8731800D1*
Y2709300D1*
X-9011800D2*
X-8731800D1*
Y609300D1*
X-9011800D1*
Y2709300D1*
X-9291800D2*
X-9011800D1*
Y609300D1*
X-9291800D1*
Y2709300D1*
X-9571800D2*
X-9291800D1*
Y609300D1*
X-9571800D1*
Y2709300D1*
X-9851800D2*
X-9571800D1*
Y609300D1*
X-9851800D1*
Y2709300D1*
X-7331800Y609300D2*
X-7051800D1*
Y-1490700D1*
X-7331800D1*
Y609300D1*
X-7611800D2*
X-7331800D1*
Y-1490700D1*
X-7611800D1*
Y609300D1*
X-7891800D2*
X-7611800D1*
Y-1490700D1*
X-7891800D1*
Y609300D1*
X-8171800D2*
X-7891800D1*
Y-1490700D1*
X-8171800D1*
Y609300D1*
X-8451800D2*
X-8171800D1*
Y-1490700D1*
X-8451800D1*
Y609300D1*
X-8731800D2*
X-8451800D1*
Y-1490700D1*
X-8731800D1*
Y609300D1*
X-9011800D2*
X-8731800D1*
Y-1490700D1*
X-9011800D1*
Y609300D1*
X-9291800D2*
X-9011800D1*
Y-1490700D1*
X-9291800D1*
Y609300D1*
X-9571800D2*
X-9291800D1*
Y-1490700D1*
X-9571800D1*
Y609300D1*
X-9851800D2*
X-9571800D1*
Y-1490700D1*
X-9851800D1*
Y609300D1*
X-7414635Y4402828D2*
D78*
X-7492352D1*
X-7506952Y4407657D1*
X-7511782Y4412598D1*
X-7516723Y4422257D1*
Y4432028D1*
X-7511782Y4441686D1*
X-7506952Y4446515D1*
X-7492352Y4451457D1*
X-7482694D1*
X-7516723Y4293738D2*
X-7414635D1*
X-7516723Y4332597D1*
X-7414635Y4371455D1*
X-7516723D1*
X-7468094Y4262366D2*
Y4218566D1*
X-7463265Y4204078D1*
X-7458323Y4199136D1*
X-7448665Y4194307D1*
X-7434065D1*
X-7424406Y4199136D1*
X-7419465Y4204078D1*
X-7414635Y4218566D1*
Y4262366D1*
X-7516723D1*
X-7434177Y4064177D2*
X-7429235Y4054407D1*
X-7414748Y4039807D1*
X-7516723D1*
X-7694635Y4402828D2*
X-7772352D1*
X-7786952Y4407657D1*
X-7791782Y4412598D1*
X-7796723Y4422257D1*
Y4432028D1*
X-7791782Y4441686D1*
X-7786952Y4446515D1*
X-7772352Y4451457D1*
X-7762694D1*
X-7796723Y4293738D2*
X-7694635D1*
X-7796723Y4332597D1*
X-7694635Y4371455D1*
X-7796723D1*
X-7748094Y4262366D2*
Y4218566D1*
X-7743265Y4204078D1*
X-7738323Y4199136D1*
X-7728665Y4194307D1*
X-7714065D1*
X-7704406Y4199136D1*
X-7699465Y4204078D1*
X-7694635Y4218566D1*
Y4262366D1*
X-7796723D1*
X-7719006Y4059236D2*
X-7714177D1*
X-7704406Y4054407D1*
X-7699577Y4049577D1*
X-7694748Y4039807D1*
Y4020377D1*
X-7699577Y4010719D1*
X-7704406Y4005890D1*
X-7714177Y4000948D1*
X-7723835D1*
X-7733606Y4005890D1*
X-7748094Y4015548D1*
X-7796723Y4064177D1*
Y3996119D1*
X-7974635Y4402828D2*
X-8052352D1*
X-8066952Y4407657D1*
X-8071782Y4412598D1*
X-8076723Y4422257D1*
Y4432028D1*
X-8071782Y4441686D1*
X-8066952Y4446515D1*
X-8052352Y4451457D1*
X-8042694D1*
X-8076723Y4293738D2*
X-7974635D1*
X-8076723Y4332597D1*
X-7974635Y4371455D1*
X-8076723D1*
X-8028094Y4262366D2*
Y4218566D1*
X-8023265Y4204078D1*
X-8018323Y4199136D1*
X-8008665Y4194307D1*
X-7994065D1*
X-7984406Y4199136D1*
X-7979465Y4204078D1*
X-7974635Y4218566D1*
Y4262366D1*
X-8076723D1*
X-7974748Y4054407D2*
Y4001061D1*
X-8013606Y4030148D1*
Y4015548D1*
X-8018435Y4005890D1*
X-8023265Y4001061D1*
X-8037865Y3996119D1*
X-8047523D1*
X-8062123Y4001061D1*
X-8071894Y4010719D1*
X-8076723Y4025319D1*
Y4039919D1*
X-8071894Y4054407D1*
X-8066952Y4059236D1*
X-8057294Y4064177D1*
X-8254635Y4402828D2*
X-8332352D1*
X-8346952Y4407657D1*
X-8351782Y4412598D1*
X-8356723Y4422257D1*
Y4432028D1*
X-8351782Y4441686D1*
X-8346952Y4446515D1*
X-8332352Y4451457D1*
X-8322694D1*
X-8356723Y4293738D2*
X-8254635D1*
X-8356723Y4332597D1*
X-8254635Y4371455D1*
X-8356723D1*
X-8308094Y4262366D2*
Y4218566D1*
X-8303265Y4204078D1*
X-8298323Y4199136D1*
X-8288665Y4194307D1*
X-8274065D1*
X-8264406Y4199136D1*
X-8259465Y4204078D1*
X-8254635Y4218566D1*
Y4262366D1*
X-8356723D1*
Y4015548D2*
X-8254748D1*
X-8322694Y4064177D1*
Y3991290D1*
X-8534635Y4402828D2*
X-8612352D1*
X-8626952Y4407657D1*
X-8631782Y4412598D1*
X-8636723Y4422257D1*
Y4432028D1*
X-8631782Y4441686D1*
X-8626952Y4446515D1*
X-8612352Y4451457D1*
X-8602694D1*
X-8636723Y4293738D2*
X-8534635D1*
X-8636723Y4332597D1*
X-8534635Y4371455D1*
X-8636723D1*
X-8588094Y4262366D2*
Y4218566D1*
X-8583265Y4204078D1*
X-8578323Y4199136D1*
X-8568665Y4194307D1*
X-8554065D1*
X-8544406Y4199136D1*
X-8539465Y4204078D1*
X-8534635Y4218566D1*
Y4262366D1*
X-8636723D1*
X-8534748Y4005890D2*
Y4054407D1*
X-8578435Y4059236D1*
X-8573606Y4054407D1*
X-8568665Y4039807D1*
Y4025319D1*
X-8573606Y4010719D1*
X-8583265Y4000948D1*
X-8597865Y3996119D1*
X-8607523D1*
X-8622123Y4000948D1*
X-8631894Y4010719D1*
X-8636723Y4025319D1*
Y4039807D1*
X-8631894Y4054407D1*
X-8626952Y4059236D1*
X-8617294Y4064177D1*
X-8814635Y4402828D2*
X-8892352D1*
X-8906952Y4407657D1*
X-8911782Y4412598D1*
X-8916723Y4422257D1*
Y4432028D1*
X-8911782Y4441686D1*
X-8906952Y4446515D1*
X-8892352Y4451457D1*
X-8882694D1*
X-8916723Y4293738D2*
X-8814635D1*
X-8916723Y4332597D1*
X-8814635Y4371455D1*
X-8916723D1*
X-8868094Y4262366D2*
Y4218566D1*
X-8863265Y4204078D1*
X-8858323Y4199136D1*
X-8848665Y4194307D1*
X-8834065D1*
X-8824406Y4199136D1*
X-8819465Y4204078D1*
X-8814635Y4218566D1*
Y4262366D1*
X-8916723D1*
X-8829235Y4005890D2*
X-8819577Y4010719D1*
X-8814748Y4025319D1*
Y4034977D1*
X-8819577Y4049577D1*
X-8834177Y4059348D1*
X-8858435Y4064177D1*
X-8882694D1*
X-8902123Y4059348D1*
X-8911894Y4049577D1*
X-8916723Y4034977D1*
Y4030148D1*
X-8911894Y4015661D1*
X-8902123Y4005890D1*
X-8887523Y4001061D1*
X-8882694D1*
X-8868094Y4005890D1*
X-8858435Y4015661D1*
X-8853606Y4030148D1*
Y4034977D1*
X-8858435Y4049577D1*
X-8868094Y4059348D1*
X-8882694Y4064177D1*
X-9094635Y4402828D2*
X-9172352D1*
X-9186952Y4407657D1*
X-9191782Y4412598D1*
X-9196723Y4422257D1*
Y4432028D1*
X-9191782Y4441686D1*
X-9186952Y4446515D1*
X-9172352Y4451457D1*
X-9162694D1*
X-9196723Y4293738D2*
X-9094635D1*
X-9196723Y4332597D1*
X-9094635Y4371455D1*
X-9196723D1*
X-9148094Y4262366D2*
Y4218566D1*
X-9143265Y4204078D1*
X-9138323Y4199136D1*
X-9128665Y4194307D1*
X-9114065D1*
X-9104406Y4199136D1*
X-9099465Y4204078D1*
X-9094635Y4218566D1*
Y4262366D1*
X-9196723D1*
Y4044748D2*
X-9094748Y3996119D1*
Y4064177D1*
X-9374635Y4402828D2*
X-9452352D1*
X-9466952Y4407657D1*
X-9471782Y4412598D1*
X-9476723Y4422257D1*
Y4432028D1*
X-9471782Y4441686D1*
X-9466952Y4446515D1*
X-9452352Y4451457D1*
X-9442694D1*
X-9476723Y4293738D2*
X-9374635D1*
X-9476723Y4332597D1*
X-9374635Y4371455D1*
X-9476723D1*
X-9428094Y4262366D2*
Y4218566D1*
X-9423265Y4204078D1*
X-9418323Y4199136D1*
X-9408665Y4194307D1*
X-9394065D1*
X-9384406Y4199136D1*
X-9379465Y4204078D1*
X-9374635Y4218566D1*
Y4262366D1*
X-9476723D1*
X-9374748Y4039919D2*
X-9379577Y4054407D1*
X-9389235Y4059348D1*
X-9399006D1*
X-9408665Y4054407D1*
X-9413606Y4044748D1*
X-9418435Y4025319D1*
X-9423265Y4010719D1*
X-9433035Y4001061D1*
X-9442694Y3996231D1*
X-9457294D1*
X-9466952Y4001061D1*
X-9471894Y4005890D1*
X-9476723Y4020490D1*
Y4039919D1*
X-9471894Y4054407D1*
X-9466952Y4059348D1*
X-9457294Y4064177D1*
X-9442694D1*
X-9433035Y4059348D1*
X-9423265Y4049577D1*
X-9418435Y4035090D1*
X-9413606Y4015661D1*
X-9408665Y4005890D1*
X-9399006Y4001061D1*
X-9389235D1*
X-9379577Y4005890D1*
X-9374748Y4020490D1*
Y4039919D1*
X-9654635Y4402828D2*
X-9732352D1*
X-9746952Y4407657D1*
X-9751782Y4412598D1*
X-9756723Y4422257D1*
Y4432028D1*
X-9751782Y4441686D1*
X-9746952Y4446515D1*
X-9732352Y4451457D1*
X-9722694D1*
X-9756723Y4293738D2*
X-9654635D1*
X-9756723Y4332597D1*
X-9654635Y4371455D1*
X-9756723D1*
X-9708094Y4262366D2*
Y4218566D1*
X-9703265Y4204078D1*
X-9698323Y4199136D1*
X-9688665Y4194307D1*
X-9674065D1*
X-9664406Y4199136D1*
X-9659465Y4204078D1*
X-9654635Y4218566D1*
Y4262366D1*
X-9756723D1*
X-9688665Y4000948D2*
X-9703265Y4005890D1*
X-9713035Y4015548D1*
X-9717865Y4030148D1*
Y4034977D1*
X-9713035Y4049577D1*
X-9703265Y4059236D1*
X-9688665Y4064177D1*
X-9683835D1*
X-9669235Y4059236D1*
X-9659577Y4049577D1*
X-9654748Y4034977D1*
Y4030148D1*
X-9659577Y4015548D1*
X-9669235Y4005890D1*
X-9688665Y4000948D1*
X-9713035D1*
X-9737294Y4005890D1*
X-9751894Y4015548D1*
X-9756723Y4030148D1*
Y4039807D1*
X-9751894Y4054407D1*
X-9742123Y4059236D1*
X-7120344Y3510338D2*
D79*
X-7247954D1*
X-7120344Y3595411D1*
X-7247954D1*
X-7162881Y3381923D2*
X-7247954D1*
X-7181131D2*
X-7168917Y3393996D1*
X-7162881Y3406209D1*
Y3424319D1*
X-7168917Y3436532D1*
X-7181131Y3448606D1*
X-7199381Y3454782D1*
X-7211454D1*
X-7229704Y3448606D1*
X-7241777Y3436532D1*
X-7247954Y3424319D1*
Y3406209D1*
X-7241777Y3393996D1*
X-7229704Y3381923D1*
X-7162881Y3326367D2*
X-7247954D1*
X-7187167D2*
X-7168917Y3308117D1*
X-7162881Y3295904D1*
Y3277794D1*
X-7168917Y3265581D1*
X-7187167Y3259544D1*
X-7247954D1*
X-7187167D2*
X-7168917Y3241294D1*
X-7162881Y3229081D1*
Y3210971D1*
X-7168917Y3198758D1*
X-7187167Y3192581D1*
X-7247954D1*
X-7199381Y3137025D2*
Y3064166D1*
X-7187167D1*
X-7174954Y3070202D1*
X-7168917Y3076239D1*
X-7162881Y3088452D1*
Y3106702D1*
X-7168917Y3118775D1*
X-7181131Y3130989D1*
X-7199381Y3137025D1*
X-7211454D1*
X-7229704Y3130989D1*
X-7241777Y3118775D1*
X-7247954Y3106702D1*
Y3088452D1*
X-7241777Y3076239D1*
X-7229704Y3064166D1*
X-7463265Y3601457D2*
D78*
Y3557769D1*
X-7458323Y3543169D1*
X-7453494Y3538228D1*
X-7443835Y3533398D1*
X-7434065D1*
X-7424406Y3538228D1*
X-7419465Y3543169D1*
X-7414635Y3557769D1*
Y3601457D1*
X-7516723D1*
X-7463265Y3567428D2*
X-7516723Y3533398D1*
X-7448665Y3443738D2*
X-7516723D1*
X-7463265D2*
X-7453494Y3453397D1*
X-7448665Y3463167D1*
Y3477655D1*
X-7453494Y3487426D1*
X-7463265Y3497084D1*
X-7477865Y3502026D1*
X-7487523D1*
X-7502123Y3497084D1*
X-7511782Y3487426D1*
X-7516723Y3477655D1*
Y3463167D1*
X-7511782Y3453397D1*
X-7502123Y3443738D1*
X-7448665Y3412366D2*
X-7516723D1*
X-7468094D2*
X-7453494Y3397766D1*
X-7448665Y3387995D1*
Y3373507D1*
X-7453494Y3363736D1*
X-7468094Y3358907D1*
X-7516723D1*
X-7453494Y3269247D2*
X-7531323D1*
X-7545811Y3274076D1*
X-7550752Y3278905D1*
X-7555582Y3288676D1*
Y3303276D1*
X-7550752Y3312935D1*
X-7468094Y3269247D2*
X-7458435Y3278905D1*
X-7453494Y3288676D1*
Y3303276D1*
X-7458435Y3312935D1*
X-7468094Y3322705D1*
X-7482694Y3327535D1*
X-7492465D1*
X-7506952Y3322705D1*
X-7516723Y3312935D1*
X-7521552Y3303276D1*
Y3288676D1*
X-7516723Y3278905D1*
X-7506952Y3269247D1*
X-7477865Y3237874D2*
Y3179587D1*
X-7468094D1*
X-7458323Y3184416D1*
X-7453494Y3189245D1*
X-7448665Y3199016D1*
Y3213616D1*
X-7453494Y3223274D1*
X-7463265Y3233045D1*
X-7477865Y3237874D1*
X-7487523D1*
X-7502123Y3233045D1*
X-7511782Y3223274D1*
X-7516723Y3213616D1*
Y3199016D1*
X-7511782Y3189245D1*
X-7502123Y3179587D1*
X-7694635Y3538340D2*
Y3601457D1*
X-7796723D1*
Y3538340D1*
X-7743265Y3601457D2*
Y3562598D1*
X-7728665Y3506967D2*
X-7796723D1*
X-7748094D2*
X-7733494Y3492367D1*
X-7728665Y3482597D1*
Y3468109D1*
X-7733494Y3458338D1*
X-7748094Y3453509D1*
X-7796723D1*
X-7728665Y3363849D2*
X-7796723D1*
X-7743265D2*
X-7733494Y3373507D1*
X-7728665Y3383278D1*
Y3397766D1*
X-7733494Y3407536D1*
X-7743265Y3417195D1*
X-7757865Y3422136D1*
X-7767523D1*
X-7782123Y3417195D1*
X-7791782Y3407536D1*
X-7796723Y3397766D1*
Y3383278D1*
X-7791782Y3373507D1*
X-7782123Y3363849D1*
X-7694635Y3332476D2*
X-7796723D1*
X-7743265D2*
X-7733494Y3322705D1*
X-7728665Y3313047D1*
Y3298447D1*
X-7733494Y3288788D1*
X-7743265Y3279018D1*
X-7757865Y3274188D1*
X-7767523D1*
X-7782123Y3279018D1*
X-7791782Y3288788D1*
X-7796723Y3298447D1*
Y3313047D1*
X-7791782Y3322705D1*
X-7782123Y3332476D1*
X-7694635Y3242816D2*
X-7796723D1*
X-7757865Y3211443D2*
Y3153156D1*
X-7748094D1*
X-7738323Y3157985D1*
X-7733494Y3162814D1*
X-7728665Y3172585D1*
Y3187185D1*
X-7733494Y3196843D1*
X-7743265Y3206614D1*
X-7757865Y3211443D1*
X-7767523D1*
X-7782123Y3206614D1*
X-7791782Y3196843D1*
X-7796723Y3187185D1*
Y3172585D1*
X-7791782Y3162814D1*
X-7782123Y3153156D1*
X-7974635Y3538340D2*
Y3601457D1*
X-8076723D1*
Y3538340D1*
X-8023265Y3601457D2*
Y3562598D1*
X-8008665Y3506967D2*
X-8076723D1*
X-8028094D2*
X-8013494Y3492367D1*
X-8008665Y3482597D1*
Y3468109D1*
X-8013494Y3458338D1*
X-8028094Y3453509D1*
X-8076723D1*
X-8008665Y3363849D2*
X-8076723D1*
X-8023265D2*
X-8013494Y3373507D1*
X-8008665Y3383278D1*
Y3397766D1*
X-8013494Y3407536D1*
X-8023265Y3417195D1*
X-8037865Y3422136D1*
X-8047523D1*
X-8062123Y3417195D1*
X-8071782Y3407536D1*
X-8076723Y3397766D1*
Y3383278D1*
X-8071782Y3373507D1*
X-8062123Y3363849D1*
X-7974635Y3332476D2*
X-8076723D1*
X-8023265D2*
X-8013494Y3322705D1*
X-8008665Y3313047D1*
Y3298447D1*
X-8013494Y3288788D1*
X-8023265Y3279018D1*
X-8037865Y3274188D1*
X-8047523D1*
X-8062123Y3279018D1*
X-8071782Y3288788D1*
X-8076723Y3298447D1*
Y3313047D1*
X-8071782Y3322705D1*
X-8062123Y3332476D1*
X-7974635Y3242816D2*
X-8076723D1*
X-8037865Y3211443D2*
Y3153156D1*
X-8028094D1*
X-8018323Y3157985D1*
X-8013494Y3162814D1*
X-8008665Y3172585D1*
Y3187185D1*
X-8013494Y3196843D1*
X-8023265Y3206614D1*
X-8037865Y3211443D1*
X-8047523D1*
X-8062123Y3206614D1*
X-8071782Y3196843D1*
X-8076723Y3187185D1*
Y3172585D1*
X-8071782Y3162814D1*
X-8062123Y3153156D1*
X-8254635Y3538340D2*
Y3601457D1*
X-8356723D1*
Y3538340D1*
X-8303265Y3601457D2*
Y3562598D1*
X-8288665Y3506967D2*
X-8356723D1*
X-8308094D2*
X-8293494Y3492367D1*
X-8288665Y3482597D1*
Y3468109D1*
X-8293494Y3458338D1*
X-8308094Y3453509D1*
X-8356723D1*
X-8288665Y3363849D2*
X-8356723D1*
X-8303265D2*
X-8293494Y3373507D1*
X-8288665Y3383278D1*
Y3397766D1*
X-8293494Y3407536D1*
X-8303265Y3417195D1*
X-8317865Y3422136D1*
X-8327523D1*
X-8342123Y3417195D1*
X-8351782Y3407536D1*
X-8356723Y3397766D1*
Y3383278D1*
X-8351782Y3373507D1*
X-8342123Y3363849D1*
X-8254635Y3332476D2*
X-8356723D1*
X-8303265D2*
X-8293494Y3322705D1*
X-8288665Y3313047D1*
Y3298447D1*
X-8293494Y3288788D1*
X-8303265Y3279018D1*
X-8317865Y3274188D1*
X-8327523D1*
X-8342123Y3279018D1*
X-8351782Y3288788D1*
X-8356723Y3298447D1*
Y3313047D1*
X-8351782Y3322705D1*
X-8342123Y3332476D1*
X-8254635Y3242816D2*
X-8356723D1*
X-8317865Y3211443D2*
Y3153156D1*
X-8308094D1*
X-8298323Y3157985D1*
X-8293494Y3162814D1*
X-8288665Y3172585D1*
Y3187185D1*
X-8293494Y3196843D1*
X-8303265Y3206614D1*
X-8317865Y3211443D1*
X-8327523D1*
X-8342123Y3206614D1*
X-8351782Y3196843D1*
X-8356723Y3187185D1*
Y3172585D1*
X-8351782Y3162814D1*
X-8342123Y3153156D1*
X-8534635Y3538340D2*
Y3601457D1*
X-8636723D1*
Y3538340D1*
X-8583265Y3601457D2*
Y3562598D1*
X-8568665Y3506967D2*
X-8636723D1*
X-8588094D2*
X-8573494Y3492367D1*
X-8568665Y3482597D1*
Y3468109D1*
X-8573494Y3458338D1*
X-8588094Y3453509D1*
X-8636723D1*
X-8568665Y3363849D2*
X-8636723D1*
X-8583265D2*
X-8573494Y3373507D1*
X-8568665Y3383278D1*
Y3397766D1*
X-8573494Y3407536D1*
X-8583265Y3417195D1*
X-8597865Y3422136D1*
X-8607523D1*
X-8622123Y3417195D1*
X-8631782Y3407536D1*
X-8636723Y3397766D1*
Y3383278D1*
X-8631782Y3373507D1*
X-8622123Y3363849D1*
X-8534635Y3332476D2*
X-8636723D1*
X-8583265D2*
X-8573494Y3322705D1*
X-8568665Y3313047D1*
Y3298447D1*
X-8573494Y3288788D1*
X-8583265Y3279018D1*
X-8597865Y3274188D1*
X-8607523D1*
X-8622123Y3279018D1*
X-8631782Y3288788D1*
X-8636723Y3298447D1*
Y3313047D1*
X-8631782Y3322705D1*
X-8622123Y3332476D1*
X-8534635Y3242816D2*
X-8636723D1*
X-8597865Y3211443D2*
Y3153156D1*
X-8588094D1*
X-8578323Y3157985D1*
X-8573494Y3162814D1*
X-8568665Y3172585D1*
Y3187185D1*
X-8573494Y3196843D1*
X-8583265Y3206614D1*
X-8597865Y3211443D1*
X-8607523D1*
X-8622123Y3206614D1*
X-8631782Y3196843D1*
X-8636723Y3187185D1*
Y3172585D1*
X-8631782Y3162814D1*
X-8622123Y3153156D1*
X-8814635Y3538340D2*
Y3601457D1*
X-8916723D1*
Y3538340D1*
X-8863265Y3601457D2*
Y3562598D1*
X-8848665Y3506967D2*
X-8916723D1*
X-8868094D2*
X-8853494Y3492367D1*
X-8848665Y3482597D1*
Y3468109D1*
X-8853494Y3458338D1*
X-8868094Y3453509D1*
X-8916723D1*
X-8848665Y3363849D2*
X-8916723D1*
X-8863265D2*
X-8853494Y3373507D1*
X-8848665Y3383278D1*
Y3397766D1*
X-8853494Y3407536D1*
X-8863265Y3417195D1*
X-8877865Y3422136D1*
X-8887523D1*
X-8902123Y3417195D1*
X-8911782Y3407536D1*
X-8916723Y3397766D1*
Y3383278D1*
X-8911782Y3373507D1*
X-8902123Y3363849D1*
X-8814635Y3332476D2*
X-8916723D1*
X-8863265D2*
X-8853494Y3322705D1*
X-8848665Y3313047D1*
Y3298447D1*
X-8853494Y3288788D1*
X-8863265Y3279018D1*
X-8877865Y3274188D1*
X-8887523D1*
X-8902123Y3279018D1*
X-8911782Y3288788D1*
X-8916723Y3298447D1*
Y3313047D1*
X-8911782Y3322705D1*
X-8902123Y3332476D1*
X-8814635Y3242816D2*
X-8916723D1*
X-8877865Y3211443D2*
Y3153156D1*
X-8868094D1*
X-8858323Y3157985D1*
X-8853494Y3162814D1*
X-8848665Y3172585D1*
Y3187185D1*
X-8853494Y3196843D1*
X-8863265Y3206614D1*
X-8877865Y3211443D1*
X-8887523D1*
X-8902123Y3206614D1*
X-8911782Y3196843D1*
X-8916723Y3187185D1*
Y3172585D1*
X-8911782Y3162814D1*
X-8902123Y3153156D1*
X-9094635Y3538340D2*
Y3601457D1*
X-9196723D1*
Y3538340D1*
X-9143265Y3601457D2*
Y3562598D1*
X-9128665Y3506967D2*
X-9196723D1*
X-9148094D2*
X-9133494Y3492367D1*
X-9128665Y3482597D1*
Y3468109D1*
X-9133494Y3458338D1*
X-9148094Y3453509D1*
X-9196723D1*
X-9128665Y3363849D2*
X-9196723D1*
X-9143265D2*
X-9133494Y3373507D1*
X-9128665Y3383278D1*
Y3397766D1*
X-9133494Y3407536D1*
X-9143265Y3417195D1*
X-9157865Y3422136D1*
X-9167523D1*
X-9182123Y3417195D1*
X-9191782Y3407536D1*
X-9196723Y3397766D1*
Y3383278D1*
X-9191782Y3373507D1*
X-9182123Y3363849D1*
X-9094635Y3332476D2*
X-9196723D1*
X-9143265D2*
X-9133494Y3322705D1*
X-9128665Y3313047D1*
Y3298447D1*
X-9133494Y3288788D1*
X-9143265Y3279018D1*
X-9157865Y3274188D1*
X-9167523D1*
X-9182123Y3279018D1*
X-9191782Y3288788D1*
X-9196723Y3298447D1*
Y3313047D1*
X-9191782Y3322705D1*
X-9182123Y3332476D1*
X-9094635Y3242816D2*
X-9196723D1*
X-9157865Y3211443D2*
Y3153156D1*
X-9148094D1*
X-9138323Y3157985D1*
X-9133494Y3162814D1*
X-9128665Y3172585D1*
Y3187185D1*
X-9133494Y3196843D1*
X-9143265Y3206614D1*
X-9157865Y3211443D1*
X-9167523D1*
X-9182123Y3206614D1*
X-9191782Y3196843D1*
X-9196723Y3187185D1*
Y3172585D1*
X-9191782Y3162814D1*
X-9182123Y3153156D1*
X-9374635Y3538340D2*
Y3601457D1*
X-9476723D1*
Y3538340D1*
X-9423265Y3601457D2*
Y3562598D1*
X-9408665Y3506967D2*
X-9476723D1*
X-9428094D2*
X-9413494Y3492367D1*
X-9408665Y3482597D1*
Y3468109D1*
X-9413494Y3458338D1*
X-9428094Y3453509D1*
X-9476723D1*
X-9408665Y3363849D2*
X-9476723D1*
X-9423265D2*
X-9413494Y3373507D1*
X-9408665Y3383278D1*
Y3397766D1*
X-9413494Y3407536D1*
X-9423265Y3417195D1*
X-9437865Y3422136D1*
X-9447523D1*
X-9462123Y3417195D1*
X-9471782Y3407536D1*
X-9476723Y3397766D1*
Y3383278D1*
X-9471782Y3373507D1*
X-9462123Y3363849D1*
X-9374635Y3332476D2*
X-9476723D1*
X-9423265D2*
X-9413494Y3322705D1*
X-9408665Y3313047D1*
Y3298447D1*
X-9413494Y3288788D1*
X-9423265Y3279018D1*
X-9437865Y3274188D1*
X-9447523D1*
X-9462123Y3279018D1*
X-9471782Y3288788D1*
X-9476723Y3298447D1*
Y3313047D1*
X-9471782Y3322705D1*
X-9462123Y3332476D1*
X-9374635Y3242816D2*
X-9476723D1*
X-9437865Y3211443D2*
Y3153156D1*
X-9428094D1*
X-9418323Y3157985D1*
X-9413494Y3162814D1*
X-9408665Y3172585D1*
Y3187185D1*
X-9413494Y3196843D1*
X-9423265Y3206614D1*
X-9437865Y3211443D1*
X-9447523D1*
X-9462123Y3206614D1*
X-9471782Y3196843D1*
X-9476723Y3187185D1*
Y3172585D1*
X-9471782Y3162814D1*
X-9462123Y3153156D1*
X-9654635Y3538340D2*
Y3601457D1*
X-9756723D1*
Y3538340D1*
X-9703265Y3601457D2*
Y3562598D1*
X-9688665Y3506967D2*
X-9756723D1*
X-9708094D2*
X-9693494Y3492367D1*
X-9688665Y3482597D1*
Y3468109D1*
X-9693494Y3458338D1*
X-9708094Y3453509D1*
X-9756723D1*
X-9688665Y3363849D2*
X-9756723D1*
X-9703265D2*
X-9693494Y3373507D1*
X-9688665Y3383278D1*
Y3397766D1*
X-9693494Y3407536D1*
X-9703265Y3417195D1*
X-9717865Y3422136D1*
X-9727523D1*
X-9742123Y3417195D1*
X-9751782Y3407536D1*
X-9756723Y3397766D1*
Y3383278D1*
X-9751782Y3373507D1*
X-9742123Y3363849D1*
X-9654635Y3332476D2*
X-9756723D1*
X-9703265D2*
X-9693494Y3322705D1*
X-9688665Y3313047D1*
Y3298447D1*
X-9693494Y3288788D1*
X-9703265Y3279018D1*
X-9717865Y3274188D1*
X-9727523D1*
X-9742123Y3279018D1*
X-9751782Y3288788D1*
X-9756723Y3298447D1*
Y3313047D1*
X-9751782Y3322705D1*
X-9742123Y3332476D1*
X-9654635Y3242816D2*
X-9756723D1*
X-9717865Y3211443D2*
Y3153156D1*
X-9708094D1*
X-9698323Y3157985D1*
X-9693494Y3162814D1*
X-9688665Y3172585D1*
Y3187185D1*
X-9693494Y3196843D1*
X-9703265Y3206614D1*
X-9717865Y3211443D1*
X-9727523D1*
X-9742123Y3206614D1*
X-9751782Y3196843D1*
X-9756723Y3187185D1*
Y3172585D1*
X-9751782Y3162814D1*
X-9742123Y3153156D1*
X-7187167Y2595411D2*
D79*
Y2540661D1*
X-7181131Y2522551D1*
X-7174954Y2516375D1*
X-7162881Y2510338D1*
X-7144631D1*
X-7132558Y2516375D1*
X-7126381Y2522551D1*
X-7120344Y2540661D1*
Y2595411D1*
X-7247954D1*
X-7120344Y2454782D2*
X-7126381Y2448746D1*
X-7120344Y2442569D1*
X-7114167Y2448746D1*
X-7120344Y2454782D1*
X-7162881Y2448746D2*
X-7247954D1*
X-7162881Y2387013D2*
X-7247954D1*
X-7187167D2*
X-7168917Y2368763D1*
X-7162881Y2356550D1*
Y2338440D1*
X-7168917Y2326227D1*
X-7187167Y2320190D1*
X-7247954D1*
X-7144771Y2124849D2*
X-7138594Y2112635D1*
X-7120485Y2094385D1*
X-7247954D1*
X-7414748Y2572257D2*
D78*
X-7419577Y2586857D1*
X-7434177Y2596628D1*
X-7458435Y2601457D1*
X-7473035D1*
X-7497294Y2596628D1*
X-7511894Y2586857D1*
X-7516723Y2572257D1*
Y2562598D1*
X-7511894Y2547998D1*
X-7497294Y2538340D1*
X-7473035Y2533398D1*
X-7458435D1*
X-7434177Y2538340D1*
X-7419577Y2547998D1*
X-7414748Y2562598D1*
Y2572257D1*
X-7434177Y2538340D2*
X-7497294Y2596628D1*
X-7414748Y2472826D2*
X-7419577Y2487426D1*
X-7434177Y2497197D1*
X-7458435Y2502026D1*
X-7473035D1*
X-7497294Y2497197D1*
X-7511894Y2487426D1*
X-7516723Y2472826D1*
Y2463167D1*
X-7511894Y2448567D1*
X-7497294Y2438909D1*
X-7473035Y2433967D1*
X-7458435D1*
X-7434177Y2438909D1*
X-7419577Y2448567D1*
X-7414748Y2463167D1*
Y2472826D1*
X-7434177Y2438909D2*
X-7497294Y2497197D1*
X-7414748Y2373395D2*
X-7419577Y2387995D1*
X-7434177Y2397766D1*
X-7458435Y2402595D1*
X-7473035D1*
X-7497294Y2397766D1*
X-7511894Y2387995D1*
X-7516723Y2373395D1*
Y2363736D1*
X-7511894Y2349136D1*
X-7497294Y2339478D1*
X-7473035Y2334536D1*
X-7458435D1*
X-7434177Y2339478D1*
X-7419577Y2349136D1*
X-7414748Y2363736D1*
Y2373395D1*
X-7434177Y2339478D2*
X-7497294Y2397766D1*
X-7414748Y2273964D2*
X-7419577Y2288564D1*
X-7434177Y2298335D1*
X-7458435Y2303164D1*
X-7473035D1*
X-7497294Y2298335D1*
X-7511894Y2288564D1*
X-7516723Y2273964D1*
Y2264305D1*
X-7511894Y2249705D1*
X-7497294Y2240047D1*
X-7473035Y2235105D1*
X-7458435D1*
X-7434177Y2240047D1*
X-7419577Y2249705D1*
X-7414748Y2264305D1*
Y2273964D1*
X-7434177Y2240047D2*
X-7497294Y2298335D1*
X-7414635Y2203733D2*
X-7516723D1*
X-7468094D2*
X-7453494Y2189133D1*
X-7448665Y2179362D1*
Y2164762D1*
X-7453494Y2155104D1*
X-7468094Y2150274D1*
X-7516723D1*
X-7465735Y2020145D2*
Y1963991D1*
X-7516723Y1814432D2*
X-7414748Y1765803D1*
Y1833861D1*
X-7414635Y1671201D2*
Y1734430D1*
X-7516723D1*
X-7463265D2*
Y1695572D1*
X-7414635Y1576599D2*
Y1639828D1*
X-7516723D1*
X-7463265D2*
Y1600970D1*
X-7414635Y1481997D2*
Y1545227D1*
X-7516723D1*
X-7463265D2*
Y1506368D1*
X-7414635Y1450625D2*
X-7516723D1*
X-7468094D2*
X-7453494Y1436025D1*
X-7448665Y1426254D1*
Y1411654D1*
X-7453494Y1401996D1*
X-7468094Y1397166D1*
X-7516723D1*
X-7694748Y2572257D2*
X-7699577Y2586857D1*
X-7714177Y2596628D1*
X-7738435Y2601457D1*
X-7753035D1*
X-7777294Y2596628D1*
X-7791894Y2586857D1*
X-7796723Y2572257D1*
Y2562598D1*
X-7791894Y2547998D1*
X-7777294Y2538340D1*
X-7753035Y2533398D1*
X-7738435D1*
X-7714177Y2538340D1*
X-7699577Y2547998D1*
X-7694748Y2562598D1*
Y2572257D1*
X-7714177Y2538340D2*
X-7777294Y2596628D1*
X-7694748Y2472826D2*
X-7699577Y2487426D1*
X-7714177Y2497197D1*
X-7738435Y2502026D1*
X-7753035D1*
X-7777294Y2497197D1*
X-7791894Y2487426D1*
X-7796723Y2472826D1*
Y2463167D1*
X-7791894Y2448567D1*
X-7777294Y2438909D1*
X-7753035Y2433967D1*
X-7738435D1*
X-7714177Y2438909D1*
X-7699577Y2448567D1*
X-7694748Y2463167D1*
Y2472826D1*
X-7714177Y2438909D2*
X-7777294Y2497197D1*
X-7694748Y2373395D2*
X-7699577Y2387995D1*
X-7714177Y2397766D1*
X-7738435Y2402595D1*
X-7753035D1*
X-7777294Y2397766D1*
X-7791894Y2387995D1*
X-7796723Y2373395D1*
Y2363736D1*
X-7791894Y2349136D1*
X-7777294Y2339478D1*
X-7753035Y2334536D1*
X-7738435D1*
X-7714177Y2339478D1*
X-7699577Y2349136D1*
X-7694748Y2363736D1*
Y2373395D1*
X-7714177Y2339478D2*
X-7777294Y2397766D1*
X-7694748Y2273964D2*
X-7699577Y2288564D1*
X-7714177Y2298335D1*
X-7738435Y2303164D1*
X-7753035D1*
X-7777294Y2298335D1*
X-7791894Y2288564D1*
X-7796723Y2273964D1*
Y2264305D1*
X-7791894Y2249705D1*
X-7777294Y2240047D1*
X-7753035Y2235105D1*
X-7738435D1*
X-7714177Y2240047D1*
X-7699577Y2249705D1*
X-7694748Y2264305D1*
Y2273964D1*
X-7714177Y2240047D2*
X-7777294Y2298335D1*
X-7694635Y2203733D2*
X-7796723D1*
X-7748094D2*
X-7733494Y2189133D1*
X-7728665Y2179362D1*
Y2164762D1*
X-7733494Y2155104D1*
X-7748094Y2150274D1*
X-7796723D1*
X-7745735Y2020145D2*
Y1963991D1*
X-7714177Y1833861D2*
X-7709235Y1824090D1*
X-7694748Y1809490D1*
X-7796723D1*
X-7694635Y1714889D2*
Y1778118D1*
X-7796723D1*
X-7743265D2*
Y1739259D1*
X-7694635Y1620287D2*
Y1683516D1*
X-7796723D1*
X-7743265D2*
Y1644658D1*
X-7694635Y1525685D2*
Y1588914D1*
X-7796723D1*
X-7743265D2*
Y1550056D1*
X-7694635Y1494312D2*
X-7796723D1*
X-7748094D2*
X-7733494Y1479712D1*
X-7728665Y1469942D1*
Y1455342D1*
X-7733494Y1445683D1*
X-7748094Y1440854D1*
X-7796723D1*
X-7999006Y2596515D2*
X-7994177D1*
X-7984406Y2591686D1*
X-7979577Y2586857D1*
X-7974748Y2577086D1*
Y2557657D1*
X-7979577Y2547998D1*
X-7984406Y2543169D1*
X-7994177Y2538228D1*
X-8003835D1*
X-8013606Y2543169D1*
X-8028094Y2552828D1*
X-8076723Y2601457D1*
Y2533398D1*
X-7974748Y2472826D2*
X-7979577Y2487426D1*
X-7994177Y2497197D1*
X-8018435Y2502026D1*
X-8033035D1*
X-8057294Y2497197D1*
X-8071894Y2487426D1*
X-8076723Y2472826D1*
Y2463167D1*
X-8071894Y2448567D1*
X-8057294Y2438909D1*
X-8033035Y2433967D1*
X-8018435D1*
X-7994177Y2438909D1*
X-7979577Y2448567D1*
X-7974748Y2463167D1*
Y2472826D1*
X-7994177Y2438909D2*
X-8057294Y2497197D1*
X-7974748Y2373395D2*
X-7979577Y2387995D1*
X-7994177Y2397766D1*
X-8018435Y2402595D1*
X-8033035D1*
X-8057294Y2397766D1*
X-8071894Y2387995D1*
X-8076723Y2373395D1*
Y2363736D1*
X-8071894Y2349136D1*
X-8057294Y2339478D1*
X-8033035Y2334536D1*
X-8018435D1*
X-7994177Y2339478D1*
X-7979577Y2349136D1*
X-7974748Y2363736D1*
Y2373395D1*
X-7994177Y2339478D2*
X-8057294Y2397766D1*
X-7974748Y2273964D2*
X-7979577Y2288564D1*
X-7994177Y2298335D1*
X-8018435Y2303164D1*
X-8033035D1*
X-8057294Y2298335D1*
X-8071894Y2288564D1*
X-8076723Y2273964D1*
Y2264305D1*
X-8071894Y2249705D1*
X-8057294Y2240047D1*
X-8033035Y2235105D1*
X-8018435D1*
X-7994177Y2240047D1*
X-7979577Y2249705D1*
X-7974748Y2264305D1*
Y2273964D1*
X-7994177Y2240047D2*
X-8057294Y2298335D1*
X-7974635Y2203733D2*
X-8076723D1*
X-8028094D2*
X-8013494Y2189133D1*
X-8008665Y2179362D1*
Y2164762D1*
X-8013494Y2155104D1*
X-8028094Y2150274D1*
X-8076723D1*
X-8025735Y2020145D2*
Y1963991D1*
X-7974748Y1824090D2*
Y1770744D1*
X-8013606Y1799832D1*
Y1785232D1*
X-8018435Y1775573D1*
X-8023265Y1770744D1*
X-8037865Y1765803D1*
X-8047523D1*
X-8062123Y1770744D1*
X-8071894Y1780403D1*
X-8076723Y1795003D1*
Y1809603D1*
X-8071894Y1824090D1*
X-8066952Y1828920D1*
X-8057294Y1833861D1*
X-7974635Y1671201D2*
Y1734430D1*
X-8076723D1*
X-8023265D2*
Y1695572D1*
X-7974635Y1576599D2*
Y1639828D1*
X-8076723D1*
X-8023265D2*
Y1600970D1*
X-7974635Y1481997D2*
Y1545227D1*
X-8076723D1*
X-8023265D2*
Y1506368D1*
X-7974635Y1450625D2*
X-8076723D1*
X-8028094D2*
X-8013494Y1436025D1*
X-8008665Y1426254D1*
Y1411654D1*
X-8013494Y1401996D1*
X-8028094Y1397166D1*
X-8076723D1*
X-8356723Y2552828D2*
X-8254748D1*
X-8322694Y2601457D1*
Y2528569D1*
X-8254748Y2467997D2*
X-8259577Y2482597D1*
X-8274177Y2492367D1*
X-8298435Y2497197D1*
X-8313035D1*
X-8337294Y2492367D1*
X-8351894Y2482597D1*
X-8356723Y2467997D1*
Y2458338D1*
X-8351894Y2443738D1*
X-8337294Y2434080D1*
X-8313035Y2429138D1*
X-8298435D1*
X-8274177Y2434080D1*
X-8259577Y2443738D1*
X-8254748Y2458338D1*
Y2467997D1*
X-8274177Y2434080D2*
X-8337294Y2492367D1*
X-8254748Y2368566D2*
X-8259577Y2383166D1*
X-8274177Y2392936D1*
X-8298435Y2397766D1*
X-8313035D1*
X-8337294Y2392936D1*
X-8351894Y2383166D1*
X-8356723Y2368566D1*
Y2358907D1*
X-8351894Y2344307D1*
X-8337294Y2334649D1*
X-8313035Y2329707D1*
X-8298435D1*
X-8274177Y2334649D1*
X-8259577Y2344307D1*
X-8254748Y2358907D1*
Y2368566D1*
X-8274177Y2334649D2*
X-8337294Y2392936D1*
X-8254748Y2269135D2*
X-8259577Y2283735D1*
X-8274177Y2293505D1*
X-8298435Y2298335D1*
X-8313035D1*
X-8337294Y2293505D1*
X-8351894Y2283735D1*
X-8356723Y2269135D1*
Y2259476D1*
X-8351894Y2244876D1*
X-8337294Y2235218D1*
X-8313035Y2230276D1*
X-8298435D1*
X-8274177Y2235218D1*
X-8259577Y2244876D1*
X-8254748Y2259476D1*
Y2269135D1*
X-8274177Y2235218D2*
X-8337294Y2293505D1*
X-8254635Y2198904D2*
X-8356723D1*
X-8308094D2*
X-8293494Y2184304D1*
X-8288665Y2174533D1*
Y2159933D1*
X-8293494Y2150274D1*
X-8308094Y2145445D1*
X-8356723D1*
X-8305735Y2015315D2*
Y1959162D1*
X-8254748Y1770744D2*
Y1819261D1*
X-8298435Y1824090D1*
X-8293606Y1819261D1*
X-8288665Y1804661D1*
Y1790173D1*
X-8293606Y1775573D1*
X-8303265Y1765803D1*
X-8317865Y1760973D1*
X-8327523D1*
X-8342123Y1765803D1*
X-8351894Y1775573D1*
X-8356723Y1790173D1*
Y1804661D1*
X-8351894Y1819261D1*
X-8346952Y1824090D1*
X-8337294Y1829032D1*
X-8254635Y1666372D2*
Y1729601D1*
X-8356723D1*
X-8303265D2*
Y1690742D1*
X-8254635Y1571770D2*
Y1634999D1*
X-8356723D1*
X-8303265D2*
Y1596141D1*
X-8254635Y1477168D2*
Y1540397D1*
X-8356723D1*
X-8303265D2*
Y1501539D1*
X-8254635Y1445796D2*
X-8356723D1*
X-8308094D2*
X-8293494Y1431196D1*
X-8288665Y1421425D1*
Y1406825D1*
X-8293494Y1397166D1*
X-8308094Y1392337D1*
X-8356723D1*
X-8549235Y2543169D2*
X-8539577Y2547998D1*
X-8534748Y2562598D1*
Y2572257D1*
X-8539577Y2586857D1*
X-8554177Y2596628D1*
X-8578435Y2601457D1*
X-8602694D1*
X-8622123Y2596628D1*
X-8631894Y2586857D1*
X-8636723Y2572257D1*
Y2567428D1*
X-8631894Y2552940D1*
X-8622123Y2543169D1*
X-8607523Y2538340D1*
X-8602694D1*
X-8588094Y2543169D1*
X-8578435Y2552940D1*
X-8573606Y2567428D1*
Y2572257D1*
X-8578435Y2586857D1*
X-8588094Y2596628D1*
X-8602694Y2601457D1*
X-8534748Y2477767D2*
X-8539577Y2492367D1*
X-8554177Y2502138D1*
X-8578435Y2506967D1*
X-8593035D1*
X-8617294Y2502138D1*
X-8631894Y2492367D1*
X-8636723Y2477767D1*
Y2468109D1*
X-8631894Y2453509D1*
X-8617294Y2443850D1*
X-8593035Y2438909D1*
X-8578435D1*
X-8554177Y2443850D1*
X-8539577Y2453509D1*
X-8534748Y2468109D1*
Y2477767D1*
X-8554177Y2443850D2*
X-8617294Y2502138D1*
X-8534748Y2378336D2*
X-8539577Y2392936D1*
X-8554177Y2402707D1*
X-8578435Y2407536D1*
X-8593035D1*
X-8617294Y2402707D1*
X-8631894Y2392936D1*
X-8636723Y2378336D1*
Y2368678D1*
X-8631894Y2354078D1*
X-8617294Y2344419D1*
X-8593035Y2339478D1*
X-8578435D1*
X-8554177Y2344419D1*
X-8539577Y2354078D1*
X-8534748Y2368678D1*
Y2378336D1*
X-8554177Y2344419D2*
X-8617294Y2402707D1*
X-8534748Y2278905D2*
X-8539577Y2293505D1*
X-8554177Y2303276D1*
X-8578435Y2308105D1*
X-8593035D1*
X-8617294Y2303276D1*
X-8631894Y2293505D1*
X-8636723Y2278905D1*
Y2269247D1*
X-8631894Y2254647D1*
X-8617294Y2244988D1*
X-8593035Y2240047D1*
X-8578435D1*
X-8554177Y2244988D1*
X-8539577Y2254647D1*
X-8534748Y2269247D1*
Y2278905D1*
X-8554177Y2244988D2*
X-8617294Y2303276D1*
X-8534635Y2208674D2*
X-8636723D1*
X-8588094D2*
X-8573494Y2194074D1*
X-8568665Y2184304D1*
Y2169704D1*
X-8573494Y2160045D1*
X-8588094Y2155216D1*
X-8636723D1*
X-8585735Y2025086D2*
Y1968932D1*
X-8636723Y1819373D2*
X-8534748Y1770744D1*
Y1838803D1*
X-8534635Y1676142D2*
Y1739372D1*
X-8636723D1*
X-8583265D2*
Y1700513D1*
X-8534635Y1581541D2*
Y1644770D1*
X-8636723D1*
X-8583265D2*
Y1605911D1*
X-8534635Y1486939D2*
Y1550168D1*
X-8636723D1*
X-8583265D2*
Y1511310D1*
X-8534635Y1455566D2*
X-8636723D1*
X-8588094D2*
X-8573494Y1440966D1*
X-8568665Y1431196D1*
Y1416596D1*
X-8573494Y1406937D1*
X-8588094Y1402108D1*
X-8636723D1*
X-8814748Y2577198D2*
X-8819577Y2591686D1*
X-8829235Y2596628D1*
X-8839006D1*
X-8848665Y2591686D1*
X-8853606Y2582028D1*
X-8858435Y2562598D1*
X-8863265Y2547998D1*
X-8873035Y2538340D1*
X-8882694Y2533511D1*
X-8897294D1*
X-8906952Y2538340D1*
X-8911894Y2543169D1*
X-8916723Y2557769D1*
Y2577198D1*
X-8911894Y2591686D1*
X-8906952Y2596628D1*
X-8897294Y2601457D1*
X-8882694D1*
X-8873035Y2596628D1*
X-8863265Y2586857D1*
X-8858435Y2572369D1*
X-8853606Y2552940D1*
X-8848665Y2543169D1*
X-8839006Y2538340D1*
X-8829235D1*
X-8819577Y2543169D1*
X-8814748Y2557769D1*
Y2577198D1*
Y2472938D2*
X-8819577Y2487538D1*
X-8834177Y2497309D1*
X-8858435Y2502138D1*
X-8873035D1*
X-8897294Y2497309D1*
X-8911894Y2487538D1*
X-8916723Y2472938D1*
Y2463280D1*
X-8911894Y2448680D1*
X-8897294Y2439021D1*
X-8873035Y2434080D1*
X-8858435D1*
X-8834177Y2439021D1*
X-8819577Y2448680D1*
X-8814748Y2463280D1*
Y2472938D1*
X-8834177Y2439021D2*
X-8897294Y2497309D1*
X-8814748Y2373507D2*
X-8819577Y2388107D1*
X-8834177Y2397878D1*
X-8858435Y2402707D1*
X-8873035D1*
X-8897294Y2397878D1*
X-8911894Y2388107D1*
X-8916723Y2373507D1*
Y2363849D1*
X-8911894Y2349249D1*
X-8897294Y2339590D1*
X-8873035Y2334649D1*
X-8858435D1*
X-8834177Y2339590D1*
X-8819577Y2349249D1*
X-8814748Y2363849D1*
Y2373507D1*
X-8834177Y2339590D2*
X-8897294Y2397878D1*
X-8814748Y2274076D2*
X-8819577Y2288676D1*
X-8834177Y2298447D1*
X-8858435Y2303276D1*
X-8873035D1*
X-8897294Y2298447D1*
X-8911894Y2288676D1*
X-8916723Y2274076D1*
Y2264418D1*
X-8911894Y2249818D1*
X-8897294Y2240159D1*
X-8873035Y2235218D1*
X-8858435D1*
X-8834177Y2240159D1*
X-8819577Y2249818D1*
X-8814748Y2264418D1*
Y2274076D1*
X-8834177Y2240159D2*
X-8897294Y2298447D1*
X-8814635Y2203845D2*
X-8916723D1*
X-8868094D2*
X-8853494Y2189245D1*
X-8848665Y2179474D1*
Y2164874D1*
X-8853494Y2155216D1*
X-8868094Y2150387D1*
X-8916723D1*
X-8865735Y2020257D2*
Y1964103D1*
X-8848665Y1770744D2*
X-8863265Y1775686D1*
X-8873035Y1785344D1*
X-8877865Y1799944D1*
Y1804773D1*
X-8873035Y1819373D1*
X-8863265Y1829032D1*
X-8848665Y1833973D1*
X-8843835D1*
X-8829235Y1829032D1*
X-8819577Y1819373D1*
X-8814748Y1804773D1*
Y1799944D1*
X-8819577Y1785344D1*
X-8829235Y1775686D1*
X-8848665Y1770744D1*
X-8873035D1*
X-8897294Y1775686D1*
X-8911894Y1785344D1*
X-8916723Y1799944D1*
Y1809603D1*
X-8911894Y1824203D1*
X-8902123Y1829032D1*
X-8814635Y1676142D2*
Y1739372D1*
X-8916723D1*
X-8863265D2*
Y1700513D1*
X-8814635Y1581541D2*
Y1644770D1*
X-8916723D1*
X-8863265D2*
Y1605911D1*
X-8814635Y1486939D2*
Y1550168D1*
X-8916723D1*
X-8863265D2*
Y1511310D1*
X-8814635Y1455566D2*
X-8916723D1*
X-8868094D2*
X-8853494Y1440966D1*
X-8848665Y1431196D1*
Y1416596D1*
X-8853494Y1406937D1*
X-8868094Y1402108D1*
X-8916723D1*
X-9196723Y2523628D2*
X-9094635Y2562598D1*
X-9196723Y2601457D1*
X-9162694Y2586857D2*
Y2538228D1*
X-9094748Y2463055D2*
X-9099577Y2477655D1*
X-9114177Y2487426D1*
X-9138435Y2492255D1*
X-9153035D1*
X-9177294Y2487426D1*
X-9191894Y2477655D1*
X-9196723Y2463055D1*
Y2453397D1*
X-9191894Y2438797D1*
X-9177294Y2429138D1*
X-9153035Y2424197D1*
X-9138435D1*
X-9114177Y2429138D1*
X-9099577Y2438797D1*
X-9094748Y2453397D1*
Y2463055D1*
X-9114177Y2429138D2*
X-9177294Y2487426D1*
X-9094748Y2363624D2*
X-9099577Y2378224D1*
X-9114177Y2387995D1*
X-9138435Y2392824D1*
X-9153035D1*
X-9177294Y2387995D1*
X-9191894Y2378224D1*
X-9196723Y2363624D1*
Y2353966D1*
X-9191894Y2339366D1*
X-9177294Y2329707D1*
X-9153035Y2324766D1*
X-9138435D1*
X-9114177Y2329707D1*
X-9099577Y2339366D1*
X-9094748Y2353966D1*
Y2363624D1*
X-9114177Y2329707D2*
X-9177294Y2387995D1*
X-9094748Y2264193D2*
X-9099577Y2278793D1*
X-9114177Y2288564D1*
X-9138435Y2293393D1*
X-9153035D1*
X-9177294Y2288564D1*
X-9191894Y2278793D1*
X-9196723Y2264193D1*
Y2254535D1*
X-9191894Y2239935D1*
X-9177294Y2230276D1*
X-9153035Y2225335D1*
X-9138435D1*
X-9114177Y2230276D1*
X-9099577Y2239935D1*
X-9094748Y2254535D1*
Y2264193D1*
X-9114177Y2230276D2*
X-9177294Y2288564D1*
X-9094635Y2193962D2*
X-9196723D1*
X-9148094D2*
X-9133494Y2179362D1*
X-9128665Y2169591D1*
Y2154991D1*
X-9133494Y2145333D1*
X-9148094Y2140504D1*
X-9196723D1*
X-9145735Y2010374D2*
Y1954220D1*
X-9094635Y1824090D2*
X-9196723D1*
Y1780290D1*
X-9191782Y1765690D1*
X-9186952Y1760861D1*
X-9177294Y1756032D1*
X-9162694D1*
X-9152923Y1760861D1*
X-9148094Y1765690D1*
X-9143265Y1780290D1*
X-9138323Y1765690D1*
X-9133494Y1760861D1*
X-9123835Y1756032D1*
X-9114065D1*
X-9104406Y1760861D1*
X-9099465Y1765690D1*
X-9094635Y1780290D1*
Y1824090D1*
X-9143265D2*
Y1780290D1*
X-9128665Y1661430D2*
X-9143265Y1666372D1*
X-9153035Y1676030D1*
X-9157865Y1690630D1*
Y1695459D1*
X-9153035Y1710059D1*
X-9143265Y1719718D1*
X-9128665Y1724659D1*
X-9123835D1*
X-9109235Y1719718D1*
X-9099577Y1710059D1*
X-9094748Y1695459D1*
Y1690630D1*
X-9099577Y1676030D1*
X-9109235Y1666372D1*
X-9128665Y1661430D1*
X-9153035D1*
X-9177294Y1666372D1*
X-9191894Y1676030D1*
X-9196723Y1690630D1*
Y1700289D1*
X-9191894Y1714889D1*
X-9182123Y1719718D1*
X-9128665Y1566828D2*
X-9143265Y1571770D1*
X-9153035Y1581428D1*
X-9157865Y1596028D1*
Y1600858D1*
X-9153035Y1615458D1*
X-9143265Y1625116D1*
X-9128665Y1630058D1*
X-9123835D1*
X-9109235Y1625116D1*
X-9099577Y1615458D1*
X-9094748Y1600858D1*
Y1596028D1*
X-9099577Y1581428D1*
X-9109235Y1571770D1*
X-9128665Y1566828D1*
X-9153035D1*
X-9177294Y1571770D1*
X-9191894Y1581428D1*
X-9196723Y1596028D1*
Y1605687D1*
X-9191894Y1620287D1*
X-9182123Y1625116D1*
X-9128665Y1472227D2*
X-9143265Y1477168D1*
X-9153035Y1486827D1*
X-9157865Y1501427D1*
Y1506256D1*
X-9153035Y1520856D1*
X-9143265Y1530514D1*
X-9128665Y1535456D1*
X-9123835D1*
X-9109235Y1530514D1*
X-9099577Y1520856D1*
X-9094748Y1506256D1*
Y1501427D1*
X-9099577Y1486827D1*
X-9109235Y1477168D1*
X-9128665Y1472227D1*
X-9153035D1*
X-9177294Y1477168D1*
X-9191894Y1486827D1*
X-9196723Y1501427D1*
Y1511085D1*
X-9191894Y1525685D1*
X-9182123Y1530514D1*
X-9094635Y1440854D2*
X-9196723D1*
X-9148094D2*
X-9133494Y1426254D1*
X-9128665Y1416483D1*
Y1401883D1*
X-9133494Y1392225D1*
X-9148094Y1387396D1*
X-9196723D1*
X-9398894Y2528569D2*
X-9389235Y2533398D1*
X-9379465Y2543169D1*
X-9374635Y2552828D1*
Y2572257D1*
X-9379465Y2582028D1*
X-9389235Y2591686D1*
X-9398894Y2596628D1*
X-9413494Y2601457D1*
X-9437865D1*
X-9452352Y2596628D1*
X-9462123Y2591686D1*
X-9471782Y2582028D1*
X-9476723Y2572257D1*
Y2552828D1*
X-9471782Y2543169D1*
X-9462123Y2533398D1*
X-9452352Y2528569D1*
X-9374748Y2467997D2*
X-9379577Y2482597D1*
X-9394177Y2492367D1*
X-9418435Y2497197D1*
X-9433035D1*
X-9457294Y2492367D1*
X-9471894Y2482597D1*
X-9476723Y2467997D1*
Y2458338D1*
X-9471894Y2443738D1*
X-9457294Y2434080D1*
X-9433035Y2429138D1*
X-9418435D1*
X-9394177Y2434080D1*
X-9379577Y2443738D1*
X-9374748Y2458338D1*
Y2467997D1*
X-9394177Y2434080D2*
X-9457294Y2492367D1*
X-9374748Y2368566D2*
X-9379577Y2383166D1*
X-9394177Y2392936D1*
X-9418435Y2397766D1*
X-9433035D1*
X-9457294Y2392936D1*
X-9471894Y2383166D1*
X-9476723Y2368566D1*
Y2358907D1*
X-9471894Y2344307D1*
X-9457294Y2334649D1*
X-9433035Y2329707D1*
X-9418435D1*
X-9394177Y2334649D1*
X-9379577Y2344307D1*
X-9374748Y2358907D1*
Y2368566D1*
X-9394177Y2334649D2*
X-9457294Y2392936D1*
X-9374748Y2269135D2*
X-9379577Y2283735D1*
X-9394177Y2293505D1*
X-9418435Y2298335D1*
X-9433035D1*
X-9457294Y2293505D1*
X-9471894Y2283735D1*
X-9476723Y2269135D1*
Y2259476D1*
X-9471894Y2244876D1*
X-9457294Y2235218D1*
X-9433035Y2230276D1*
X-9418435D1*
X-9394177Y2235218D1*
X-9379577Y2244876D1*
X-9374748Y2259476D1*
Y2269135D1*
X-9394177Y2235218D2*
X-9457294Y2293505D1*
X-9374635Y2198904D2*
X-9476723D1*
X-9428094D2*
X-9413494Y2184304D1*
X-9408665Y2174533D1*
Y2159933D1*
X-9413494Y2150274D1*
X-9428094Y2145445D1*
X-9476723D1*
X-9425735Y2015315D2*
Y1959162D1*
X-9374635Y1829032D2*
X-9476723D1*
Y1795003D1*
X-9471782Y1780403D1*
X-9462123Y1770632D1*
X-9452352Y1765803D1*
X-9437865Y1760973D1*
X-9413494D1*
X-9398894Y1765803D1*
X-9389235Y1770632D1*
X-9379465Y1780403D1*
X-9374635Y1795003D1*
Y1829032D1*
Y1666372D2*
Y1729601D1*
X-9476723D1*
X-9423265D2*
Y1690742D1*
X-9374635Y1571770D2*
Y1634999D1*
X-9476723D1*
X-9423265D2*
Y1596141D1*
X-9374635Y1477168D2*
Y1540397D1*
X-9476723D1*
X-9423265D2*
Y1501539D1*
X-9374635Y1445796D2*
X-9476723D1*
X-9428094D2*
X-9413494Y1431196D1*
X-9408665Y1421425D1*
Y1406825D1*
X-9413494Y1397166D1*
X-9428094Y1392337D1*
X-9476723D1*
X-9654635Y2538340D2*
Y2601457D1*
X-9756723D1*
Y2538340D1*
X-9703265Y2601457D2*
Y2562598D1*
X-9654748Y2477767D2*
X-9659577Y2492367D1*
X-9674177Y2502138D1*
X-9698435Y2506967D1*
X-9713035D1*
X-9737294Y2502138D1*
X-9751894Y2492367D1*
X-9756723Y2477767D1*
Y2468109D1*
X-9751894Y2453509D1*
X-9737294Y2443850D1*
X-9713035Y2438909D1*
X-9698435D1*
X-9674177Y2443850D1*
X-9659577Y2453509D1*
X-9654748Y2468109D1*
Y2477767D1*
X-9674177Y2443850D2*
X-9737294Y2502138D1*
X-9654748Y2378336D2*
X-9659577Y2392936D1*
X-9674177Y2402707D1*
X-9698435Y2407536D1*
X-9713035D1*
X-9737294Y2402707D1*
X-9751894Y2392936D1*
X-9756723Y2378336D1*
Y2368678D1*
X-9751894Y2354078D1*
X-9737294Y2344419D1*
X-9713035Y2339478D1*
X-9698435D1*
X-9674177Y2344419D1*
X-9659577Y2354078D1*
X-9654748Y2368678D1*
Y2378336D1*
X-9674177Y2344419D2*
X-9737294Y2402707D1*
X-9654748Y2278905D2*
X-9659577Y2293505D1*
X-9674177Y2303276D1*
X-9698435Y2308105D1*
X-9713035D1*
X-9737294Y2303276D1*
X-9751894Y2293505D1*
X-9756723Y2278905D1*
Y2269247D1*
X-9751894Y2254647D1*
X-9737294Y2244988D1*
X-9713035Y2240047D1*
X-9698435D1*
X-9674177Y2244988D1*
X-9659577Y2254647D1*
X-9654748Y2269247D1*
Y2278905D1*
X-9674177Y2244988D2*
X-9737294Y2303276D1*
X-9654635Y2208674D2*
X-9756723D1*
X-9708094D2*
X-9693494Y2194074D1*
X-9688665Y2184304D1*
Y2169704D1*
X-9693494Y2160045D1*
X-9708094Y2155216D1*
X-9756723D1*
X-9705735Y2025086D2*
Y1968932D1*
X-9654635Y1775573D2*
Y1838803D1*
X-9756723D1*
X-9703265D2*
Y1799944D1*
X-9654635Y1680972D2*
Y1744201D1*
X-9756723D1*
X-9703265D2*
Y1705342D1*
X-9654635Y1586370D2*
Y1649599D1*
X-9756723D1*
X-9703265D2*
Y1610741D1*
X-9654635Y1491768D2*
Y1554997D1*
X-9756723D1*
X-9703265D2*
Y1516139D1*
X-9654635Y1460396D2*
X-9756723D1*
X-9708094D2*
X-9693494Y1445796D1*
X-9688665Y1436025D1*
Y1421425D1*
X-9693494Y1411766D1*
X-9708094Y1406937D1*
X-9756723D1*
X-7187167Y495411D2*
D79*
Y440661D1*
X-7181131Y422551D1*
X-7174954Y416375D1*
X-7162881Y410338D1*
X-7144631D1*
X-7132558Y416375D1*
X-7126381Y422551D1*
X-7120344Y440661D1*
Y495411D1*
X-7247954D1*
X-7120344Y354782D2*
X-7126381Y348746D1*
X-7120344Y342569D1*
X-7114167Y348746D1*
X-7120344Y354782D1*
X-7162881Y348746D2*
X-7247954D1*
X-7162881Y287013D2*
X-7247954D1*
X-7187167D2*
X-7168917Y268763D1*
X-7162881Y256550D1*
Y238440D1*
X-7168917Y226227D1*
X-7187167Y220190D1*
X-7247954D1*
X-7150808Y18672D2*
X-7144771D1*
X-7132558Y12635D1*
X-7126521Y6599D1*
X-7120485Y-5615D1*
Y-29901D1*
X-7126521Y-41975D1*
X-7132558Y-48011D1*
X-7144771Y-54188D1*
X-7156844D1*
X-7169058Y-48011D1*
X-7187167Y-35938D1*
X-7247954Y24849D1*
Y-60225D1*
X-7414748Y477198D2*
D78*
X-7419577Y491686D1*
X-7429235Y496628D1*
X-7439006D1*
X-7448665Y491686D1*
X-7453606Y482028D1*
X-7458435Y462598D1*
X-7463265Y447998D1*
X-7473035Y438340D1*
X-7482694Y433511D1*
X-7497294D1*
X-7506952Y438340D1*
X-7511894Y443169D1*
X-7516723Y457769D1*
Y477198D1*
X-7511894Y491686D1*
X-7506952Y496628D1*
X-7497294Y501457D1*
X-7482694D1*
X-7473035Y496628D1*
X-7463265Y486857D1*
X-7458435Y472369D1*
X-7453606Y452940D1*
X-7448665Y443169D1*
X-7439006Y438340D1*
X-7429235D1*
X-7419577Y443169D1*
X-7414748Y457769D1*
Y477198D1*
Y372938D2*
X-7419577Y387538D1*
X-7434177Y397309D1*
X-7458435Y402138D1*
X-7473035D1*
X-7497294Y397309D1*
X-7511894Y387538D1*
X-7516723Y372938D1*
Y363280D1*
X-7511894Y348680D1*
X-7497294Y339021D1*
X-7473035Y334080D1*
X-7458435D1*
X-7434177Y339021D1*
X-7419577Y348680D1*
X-7414748Y363280D1*
Y372938D1*
X-7434177Y339021D2*
X-7497294Y397309D1*
X-7414748Y273507D2*
X-7419577Y288107D1*
X-7434177Y297878D1*
X-7458435Y302707D1*
X-7473035D1*
X-7497294Y297878D1*
X-7511894Y288107D1*
X-7516723Y273507D1*
Y263849D1*
X-7511894Y249249D1*
X-7497294Y239590D1*
X-7473035Y234649D1*
X-7458435D1*
X-7434177Y239590D1*
X-7419577Y249249D1*
X-7414748Y263849D1*
Y273507D1*
X-7434177Y239590D2*
X-7497294Y297878D1*
X-7414748Y174076D2*
X-7419577Y188676D1*
X-7434177Y198447D1*
X-7458435Y203276D1*
X-7473035D1*
X-7497294Y198447D1*
X-7511894Y188676D1*
X-7516723Y174076D1*
Y164418D1*
X-7511894Y149818D1*
X-7497294Y140159D1*
X-7473035Y135218D1*
X-7458435D1*
X-7434177Y140159D1*
X-7419577Y149818D1*
X-7414748Y164418D1*
Y174076D1*
X-7434177Y140159D2*
X-7497294Y198447D1*
X-7414635Y103845D2*
X-7516723D1*
X-7468094D2*
X-7453494Y89245D1*
X-7448665Y79474D1*
Y64874D1*
X-7453494Y55216D1*
X-7468094Y50387D1*
X-7516723D1*
X-7465735Y-79743D2*
Y-135897D1*
X-7414635Y-329256D2*
Y-266027D1*
X-7516723D1*
X-7463265D2*
Y-304885D1*
X-7414635Y-423858D2*
Y-360628D1*
X-7516723D1*
X-7463265D2*
Y-399487D1*
X-7414635Y-518459D2*
Y-455230D1*
X-7516723D1*
X-7463265D2*
Y-494089D1*
X-7414635Y-613061D2*
Y-549832D1*
X-7516723D1*
X-7463265D2*
Y-588690D1*
X-7414635Y-644434D2*
X-7516723D1*
X-7468094D2*
X-7453494Y-659034D1*
X-7448665Y-668804D1*
Y-683404D1*
X-7453494Y-693063D1*
X-7468094Y-697892D1*
X-7516723D1*
X-7694635Y501457D2*
X-7796723D1*
Y467428D1*
X-7791782Y452828D1*
X-7782123Y443057D1*
X-7772352Y438228D1*
X-7757865Y433398D1*
X-7733494D1*
X-7718894Y438228D1*
X-7709235Y443057D1*
X-7699465Y452828D1*
X-7694635Y467428D1*
Y501457D1*
Y402026D2*
X-7699465Y397197D1*
X-7694635Y392255D1*
X-7689694Y397197D1*
X-7694635Y402026D1*
X-7728665Y397197D2*
X-7796723D1*
X-7743265Y307424D2*
X-7733494Y312253D1*
X-7728665Y326853D1*
Y341453D1*
X-7733494Y356053D1*
X-7743265Y360883D1*
X-7752923Y356053D1*
X-7757865Y346283D1*
X-7762694Y322024D1*
X-7767523Y312253D1*
X-7777294Y307424D1*
X-7782123D1*
X-7791782Y312253D1*
X-7796723Y326853D1*
Y341453D1*
X-7791782Y356053D1*
X-7782123Y360883D1*
X-7728665Y217764D2*
X-7796723D1*
X-7743265D2*
X-7733494Y227422D1*
X-7728665Y237193D1*
Y251681D1*
X-7733494Y261452D1*
X-7743265Y271110D1*
X-7757865Y276052D1*
X-7767523D1*
X-7782123Y271110D1*
X-7791782Y261452D1*
X-7796723Y251681D1*
Y237193D1*
X-7791782Y227422D1*
X-7782123Y217764D1*
X-7694635Y186391D2*
X-7796723D1*
X-7743265D2*
X-7733494Y176621D1*
X-7728665Y166962D1*
Y152362D1*
X-7733494Y142704D1*
X-7743265Y132933D1*
X-7757865Y128104D1*
X-7767523D1*
X-7782123Y132933D1*
X-7791782Y142704D1*
X-7796723Y152362D1*
Y166962D1*
X-7791782Y176621D1*
X-7782123Y186391D1*
X-7694635Y96731D2*
X-7796723D1*
X-7757865Y65358D2*
Y7071D1*
X-7748094D1*
X-7738323Y11900D1*
X-7733494Y16729D1*
X-7728665Y26500D1*
Y41100D1*
X-7733494Y50758D1*
X-7743265Y60529D1*
X-7757865Y65358D1*
X-7767523D1*
X-7782123Y60529D1*
X-7791782Y50758D1*
X-7796723Y41100D1*
Y26500D1*
X-7791782Y16729D1*
X-7782123Y7071D1*
X-7694635Y-82589D2*
X-7796723D1*
X-7743265D2*
X-7733494Y-72931D1*
X-7728665Y-63160D1*
Y-48560D1*
X-7733494Y-38902D1*
X-7743265Y-29131D1*
X-7757865Y-24302D1*
X-7767523D1*
X-7782123Y-29131D1*
X-7791782Y-38902D1*
X-7796723Y-48560D1*
Y-63160D1*
X-7791782Y-72931D1*
X-7782123Y-82589D1*
X-7974635Y501457D2*
X-8076723D1*
Y467428D1*
X-8071782Y452828D1*
X-8062123Y443057D1*
X-8052352Y438228D1*
X-8037865Y433398D1*
X-8013494D1*
X-7998894Y438228D1*
X-7989235Y443057D1*
X-7979465Y452828D1*
X-7974635Y467428D1*
Y501457D1*
Y402026D2*
X-7979465Y397197D1*
X-7974635Y392255D1*
X-7969694Y397197D1*
X-7974635Y402026D1*
X-8008665Y397197D2*
X-8076723D1*
X-8023265Y307424D2*
X-8013494Y312253D1*
X-8008665Y326853D1*
Y341453D1*
X-8013494Y356053D1*
X-8023265Y360883D1*
X-8032923Y356053D1*
X-8037865Y346283D1*
X-8042694Y322024D1*
X-8047523Y312253D1*
X-8057294Y307424D1*
X-8062123D1*
X-8071782Y312253D1*
X-8076723Y326853D1*
Y341453D1*
X-8071782Y356053D1*
X-8062123Y360883D1*
X-8008665Y217764D2*
X-8076723D1*
X-8023265D2*
X-8013494Y227422D1*
X-8008665Y237193D1*
Y251681D1*
X-8013494Y261452D1*
X-8023265Y271110D1*
X-8037865Y276052D1*
X-8047523D1*
X-8062123Y271110D1*
X-8071782Y261452D1*
X-8076723Y251681D1*
Y237193D1*
X-8071782Y227422D1*
X-8062123Y217764D1*
X-7974635Y186391D2*
X-8076723D1*
X-8023265D2*
X-8013494Y176621D1*
X-8008665Y166962D1*
Y152362D1*
X-8013494Y142704D1*
X-8023265Y132933D1*
X-8037865Y128104D1*
X-8047523D1*
X-8062123Y132933D1*
X-8071782Y142704D1*
X-8076723Y152362D1*
Y166962D1*
X-8071782Y176621D1*
X-8062123Y186391D1*
X-7974635Y96731D2*
X-8076723D1*
X-8037865Y65358D2*
Y7071D1*
X-8028094D1*
X-8018323Y11900D1*
X-8013494Y16729D1*
X-8008665Y26500D1*
Y41100D1*
X-8013494Y50758D1*
X-8023265Y60529D1*
X-8037865Y65358D1*
X-8047523D1*
X-8062123Y60529D1*
X-8071782Y50758D1*
X-8076723Y41100D1*
Y26500D1*
X-8071782Y16729D1*
X-8062123Y7071D1*
X-7974635Y-82589D2*
X-8076723D1*
X-8023265D2*
X-8013494Y-72931D1*
X-8008665Y-63160D1*
Y-48560D1*
X-8013494Y-38902D1*
X-8023265Y-29131D1*
X-8037865Y-24302D1*
X-8047523D1*
X-8062123Y-29131D1*
X-8071782Y-38902D1*
X-8076723Y-48560D1*
Y-63160D1*
X-8071782Y-72931D1*
X-8062123Y-82589D1*
X-8254635Y501457D2*
X-8356723D1*
Y467428D1*
X-8351782Y452828D1*
X-8342123Y443057D1*
X-8332352Y438228D1*
X-8317865Y433398D1*
X-8293494D1*
X-8278894Y438228D1*
X-8269235Y443057D1*
X-8259465Y452828D1*
X-8254635Y467428D1*
Y501457D1*
Y402026D2*
X-8259465Y397197D1*
X-8254635Y392255D1*
X-8249694Y397197D1*
X-8254635Y402026D1*
X-8288665Y397197D2*
X-8356723D1*
X-8303265Y307424D2*
X-8293494Y312253D1*
X-8288665Y326853D1*
Y341453D1*
X-8293494Y356053D1*
X-8303265Y360883D1*
X-8312923Y356053D1*
X-8317865Y346283D1*
X-8322694Y322024D1*
X-8327523Y312253D1*
X-8337294Y307424D1*
X-8342123D1*
X-8351782Y312253D1*
X-8356723Y326853D1*
Y341453D1*
X-8351782Y356053D1*
X-8342123Y360883D1*
X-8288665Y217764D2*
X-8356723D1*
X-8303265D2*
X-8293494Y227422D1*
X-8288665Y237193D1*
Y251681D1*
X-8293494Y261452D1*
X-8303265Y271110D1*
X-8317865Y276052D1*
X-8327523D1*
X-8342123Y271110D1*
X-8351782Y261452D1*
X-8356723Y251681D1*
Y237193D1*
X-8351782Y227422D1*
X-8342123Y217764D1*
X-8254635Y186391D2*
X-8356723D1*
X-8303265D2*
X-8293494Y176621D1*
X-8288665Y166962D1*
Y152362D1*
X-8293494Y142704D1*
X-8303265Y132933D1*
X-8317865Y128104D1*
X-8327523D1*
X-8342123Y132933D1*
X-8351782Y142704D1*
X-8356723Y152362D1*
Y166962D1*
X-8351782Y176621D1*
X-8342123Y186391D1*
X-8254635Y96731D2*
X-8356723D1*
X-8317865Y65358D2*
Y7071D1*
X-8308094D1*
X-8298323Y11900D1*
X-8293494Y16729D1*
X-8288665Y26500D1*
Y41100D1*
X-8293494Y50758D1*
X-8303265Y60529D1*
X-8317865Y65358D1*
X-8327523D1*
X-8342123Y60529D1*
X-8351782Y50758D1*
X-8356723Y41100D1*
Y26500D1*
X-8351782Y16729D1*
X-8342123Y7071D1*
X-8254635Y-82589D2*
X-8356723D1*
X-8303265D2*
X-8293494Y-72931D1*
X-8288665Y-63160D1*
Y-48560D1*
X-8293494Y-38902D1*
X-8303265Y-29131D1*
X-8317865Y-24302D1*
X-8327523D1*
X-8342123Y-29131D1*
X-8351782Y-38902D1*
X-8356723Y-48560D1*
Y-63160D1*
X-8351782Y-72931D1*
X-8342123Y-82589D1*
X-8534635Y501457D2*
X-8636723D1*
Y467428D1*
X-8631782Y452828D1*
X-8622123Y443057D1*
X-8612352Y438228D1*
X-8597865Y433398D1*
X-8573494D1*
X-8558894Y438228D1*
X-8549235Y443057D1*
X-8539465Y452828D1*
X-8534635Y467428D1*
Y501457D1*
Y402026D2*
X-8539465Y397197D1*
X-8534635Y392255D1*
X-8529694Y397197D1*
X-8534635Y402026D1*
X-8568665Y397197D2*
X-8636723D1*
X-8583265Y307424D2*
X-8573494Y312253D1*
X-8568665Y326853D1*
Y341453D1*
X-8573494Y356053D1*
X-8583265Y360883D1*
X-8592923Y356053D1*
X-8597865Y346283D1*
X-8602694Y322024D1*
X-8607523Y312253D1*
X-8617294Y307424D1*
X-8622123D1*
X-8631782Y312253D1*
X-8636723Y326853D1*
Y341453D1*
X-8631782Y356053D1*
X-8622123Y360883D1*
X-8568665Y217764D2*
X-8636723D1*
X-8583265D2*
X-8573494Y227422D1*
X-8568665Y237193D1*
Y251681D1*
X-8573494Y261452D1*
X-8583265Y271110D1*
X-8597865Y276052D1*
X-8607523D1*
X-8622123Y271110D1*
X-8631782Y261452D1*
X-8636723Y251681D1*
Y237193D1*
X-8631782Y227422D1*
X-8622123Y217764D1*
X-8534635Y186391D2*
X-8636723D1*
X-8583265D2*
X-8573494Y176621D1*
X-8568665Y166962D1*
Y152362D1*
X-8573494Y142704D1*
X-8583265Y132933D1*
X-8597865Y128104D1*
X-8607523D1*
X-8622123Y132933D1*
X-8631782Y142704D1*
X-8636723Y152362D1*
Y166962D1*
X-8631782Y176621D1*
X-8622123Y186391D1*
X-8534635Y96731D2*
X-8636723D1*
X-8597865Y65358D2*
Y7071D1*
X-8588094D1*
X-8578323Y11900D1*
X-8573494Y16729D1*
X-8568665Y26500D1*
Y41100D1*
X-8573494Y50758D1*
X-8583265Y60529D1*
X-8597865Y65358D1*
X-8607523D1*
X-8622123Y60529D1*
X-8631782Y50758D1*
X-8636723Y41100D1*
Y26500D1*
X-8631782Y16729D1*
X-8622123Y7071D1*
X-8534635Y-82589D2*
X-8636723D1*
X-8583265D2*
X-8573494Y-72931D1*
X-8568665Y-63160D1*
Y-48560D1*
X-8573494Y-38902D1*
X-8583265Y-29131D1*
X-8597865Y-24302D1*
X-8607523D1*
X-8622123Y-29131D1*
X-8631782Y-38902D1*
X-8636723Y-48560D1*
Y-63160D1*
X-8631782Y-72931D1*
X-8622123Y-82589D1*
X-8814635Y501457D2*
X-8916723D1*
Y467428D1*
X-8911782Y452828D1*
X-8902123Y443057D1*
X-8892352Y438228D1*
X-8877865Y433398D1*
X-8853494D1*
X-8838894Y438228D1*
X-8829235Y443057D1*
X-8819465Y452828D1*
X-8814635Y467428D1*
Y501457D1*
Y402026D2*
X-8819465Y397197D1*
X-8814635Y392255D1*
X-8809694Y397197D1*
X-8814635Y402026D1*
X-8848665Y397197D2*
X-8916723D1*
X-8863265Y307424D2*
X-8853494Y312253D1*
X-8848665Y326853D1*
Y341453D1*
X-8853494Y356053D1*
X-8863265Y360883D1*
X-8872923Y356053D1*
X-8877865Y346283D1*
X-8882694Y322024D1*
X-8887523Y312253D1*
X-8897294Y307424D1*
X-8902123D1*
X-8911782Y312253D1*
X-8916723Y326853D1*
Y341453D1*
X-8911782Y356053D1*
X-8902123Y360883D1*
X-8848665Y217764D2*
X-8916723D1*
X-8863265D2*
X-8853494Y227422D1*
X-8848665Y237193D1*
Y251681D1*
X-8853494Y261452D1*
X-8863265Y271110D1*
X-8877865Y276052D1*
X-8887523D1*
X-8902123Y271110D1*
X-8911782Y261452D1*
X-8916723Y251681D1*
Y237193D1*
X-8911782Y227422D1*
X-8902123Y217764D1*
X-8814635Y186391D2*
X-8916723D1*
X-8863265D2*
X-8853494Y176621D1*
X-8848665Y166962D1*
Y152362D1*
X-8853494Y142704D1*
X-8863265Y132933D1*
X-8877865Y128104D1*
X-8887523D1*
X-8902123Y132933D1*
X-8911782Y142704D1*
X-8916723Y152362D1*
Y166962D1*
X-8911782Y176621D1*
X-8902123Y186391D1*
X-8814635Y96731D2*
X-8916723D1*
X-8877865Y65358D2*
Y7071D1*
X-8868094D1*
X-8858323Y11900D1*
X-8853494Y16729D1*
X-8848665Y26500D1*
Y41100D1*
X-8853494Y50758D1*
X-8863265Y60529D1*
X-8877865Y65358D1*
X-8887523D1*
X-8902123Y60529D1*
X-8911782Y50758D1*
X-8916723Y41100D1*
Y26500D1*
X-8911782Y16729D1*
X-8902123Y7071D1*
X-8814635Y-82589D2*
X-8916723D1*
X-8863265D2*
X-8853494Y-72931D1*
X-8848665Y-63160D1*
Y-48560D1*
X-8853494Y-38902D1*
X-8863265Y-29131D1*
X-8877865Y-24302D1*
X-8887523D1*
X-8902123Y-29131D1*
X-8911782Y-38902D1*
X-8916723Y-48560D1*
Y-63160D1*
X-8911782Y-72931D1*
X-8902123Y-82589D1*
X-9094635Y501457D2*
X-9196723D1*
Y467428D1*
X-9191782Y452828D1*
X-9182123Y443057D1*
X-9172352Y438228D1*
X-9157865Y433398D1*
X-9133494D1*
X-9118894Y438228D1*
X-9109235Y443057D1*
X-9099465Y452828D1*
X-9094635Y467428D1*
Y501457D1*
Y402026D2*
X-9099465Y397197D1*
X-9094635Y392255D1*
X-9089694Y397197D1*
X-9094635Y402026D1*
X-9128665Y397197D2*
X-9196723D1*
X-9143265Y307424D2*
X-9133494Y312253D1*
X-9128665Y326853D1*
Y341453D1*
X-9133494Y356053D1*
X-9143265Y360883D1*
X-9152923Y356053D1*
X-9157865Y346283D1*
X-9162694Y322024D1*
X-9167523Y312253D1*
X-9177294Y307424D1*
X-9182123D1*
X-9191782Y312253D1*
X-9196723Y326853D1*
Y341453D1*
X-9191782Y356053D1*
X-9182123Y360883D1*
X-9128665Y217764D2*
X-9196723D1*
X-9143265D2*
X-9133494Y227422D1*
X-9128665Y237193D1*
Y251681D1*
X-9133494Y261452D1*
X-9143265Y271110D1*
X-9157865Y276052D1*
X-9167523D1*
X-9182123Y271110D1*
X-9191782Y261452D1*
X-9196723Y251681D1*
Y237193D1*
X-9191782Y227422D1*
X-9182123Y217764D1*
X-9094635Y186391D2*
X-9196723D1*
X-9143265D2*
X-9133494Y176621D1*
X-9128665Y166962D1*
Y152362D1*
X-9133494Y142704D1*
X-9143265Y132933D1*
X-9157865Y128104D1*
X-9167523D1*
X-9182123Y132933D1*
X-9191782Y142704D1*
X-9196723Y152362D1*
Y166962D1*
X-9191782Y176621D1*
X-9182123Y186391D1*
X-9094635Y96731D2*
X-9196723D1*
X-9157865Y65358D2*
Y7071D1*
X-9148094D1*
X-9138323Y11900D1*
X-9133494Y16729D1*
X-9128665Y26500D1*
Y41100D1*
X-9133494Y50758D1*
X-9143265Y60529D1*
X-9157865Y65358D1*
X-9167523D1*
X-9182123Y60529D1*
X-9191782Y50758D1*
X-9196723Y41100D1*
Y26500D1*
X-9191782Y16729D1*
X-9182123Y7071D1*
X-9094635Y-82589D2*
X-9196723D1*
X-9143265D2*
X-9133494Y-72931D1*
X-9128665Y-63160D1*
Y-48560D1*
X-9133494Y-38902D1*
X-9143265Y-29131D1*
X-9157865Y-24302D1*
X-9167523D1*
X-9182123Y-29131D1*
X-9191782Y-38902D1*
X-9196723Y-48560D1*
Y-63160D1*
X-9191782Y-72931D1*
X-9182123Y-82589D1*
X-9374635Y501457D2*
X-9476723D1*
Y467428D1*
X-9471782Y452828D1*
X-9462123Y443057D1*
X-9452352Y438228D1*
X-9437865Y433398D1*
X-9413494D1*
X-9398894Y438228D1*
X-9389235Y443057D1*
X-9379465Y452828D1*
X-9374635Y467428D1*
Y501457D1*
Y402026D2*
X-9379465Y397197D1*
X-9374635Y392255D1*
X-9369694Y397197D1*
X-9374635Y402026D1*
X-9408665Y397197D2*
X-9476723D1*
X-9423265Y307424D2*
X-9413494Y312253D1*
X-9408665Y326853D1*
Y341453D1*
X-9413494Y356053D1*
X-9423265Y360883D1*
X-9432923Y356053D1*
X-9437865Y346283D1*
X-9442694Y322024D1*
X-9447523Y312253D1*
X-9457294Y307424D1*
X-9462123D1*
X-9471782Y312253D1*
X-9476723Y326853D1*
Y341453D1*
X-9471782Y356053D1*
X-9462123Y360883D1*
X-9408665Y217764D2*
X-9476723D1*
X-9423265D2*
X-9413494Y227422D1*
X-9408665Y237193D1*
Y251681D1*
X-9413494Y261452D1*
X-9423265Y271110D1*
X-9437865Y276052D1*
X-9447523D1*
X-9462123Y271110D1*
X-9471782Y261452D1*
X-9476723Y251681D1*
Y237193D1*
X-9471782Y227422D1*
X-9462123Y217764D1*
X-9374635Y186391D2*
X-9476723D1*
X-9423265D2*
X-9413494Y176621D1*
X-9408665Y166962D1*
Y152362D1*
X-9413494Y142704D1*
X-9423265Y132933D1*
X-9437865Y128104D1*
X-9447523D1*
X-9462123Y132933D1*
X-9471782Y142704D1*
X-9476723Y152362D1*
Y166962D1*
X-9471782Y176621D1*
X-9462123Y186391D1*
X-9374635Y96731D2*
X-9476723D1*
X-9437865Y65358D2*
Y7071D1*
X-9428094D1*
X-9418323Y11900D1*
X-9413494Y16729D1*
X-9408665Y26500D1*
Y41100D1*
X-9413494Y50758D1*
X-9423265Y60529D1*
X-9437865Y65358D1*
X-9447523D1*
X-9462123Y60529D1*
X-9471782Y50758D1*
X-9476723Y41100D1*
Y26500D1*
X-9471782Y16729D1*
X-9462123Y7071D1*
X-9374635Y-82589D2*
X-9476723D1*
X-9423265D2*
X-9413494Y-72931D1*
X-9408665Y-63160D1*
Y-48560D1*
X-9413494Y-38902D1*
X-9423265Y-29131D1*
X-9437865Y-24302D1*
X-9447523D1*
X-9462123Y-29131D1*
X-9471782Y-38902D1*
X-9476723Y-48560D1*
Y-63160D1*
X-9471782Y-72931D1*
X-9462123Y-82589D1*
X-9654635Y501457D2*
X-9756723D1*
Y467428D1*
X-9751782Y452828D1*
X-9742123Y443057D1*
X-9732352Y438228D1*
X-9717865Y433398D1*
X-9693494D1*
X-9678894Y438228D1*
X-9669235Y443057D1*
X-9659465Y452828D1*
X-9654635Y467428D1*
Y501457D1*
Y402026D2*
X-9659465Y397197D1*
X-9654635Y392255D1*
X-9649694Y397197D1*
X-9654635Y402026D1*
X-9688665Y397197D2*
X-9756723D1*
X-9703265Y307424D2*
X-9693494Y312253D1*
X-9688665Y326853D1*
Y341453D1*
X-9693494Y356053D1*
X-9703265Y360883D1*
X-9712923Y356053D1*
X-9717865Y346283D1*
X-9722694Y322024D1*
X-9727523Y312253D1*
X-9737294Y307424D1*
X-9742123D1*
X-9751782Y312253D1*
X-9756723Y326853D1*
Y341453D1*
X-9751782Y356053D1*
X-9742123Y360883D1*
X-9688665Y217764D2*
X-9756723D1*
X-9703265D2*
X-9693494Y227422D1*
X-9688665Y237193D1*
Y251681D1*
X-9693494Y261452D1*
X-9703265Y271110D1*
X-9717865Y276052D1*
X-9727523D1*
X-9742123Y271110D1*
X-9751782Y261452D1*
X-9756723Y251681D1*
Y237193D1*
X-9751782Y227422D1*
X-9742123Y217764D1*
X-9654635Y186391D2*
X-9756723D1*
X-9703265D2*
X-9693494Y176621D1*
X-9688665Y166962D1*
Y152362D1*
X-9693494Y142704D1*
X-9703265Y132933D1*
X-9717865Y128104D1*
X-9727523D1*
X-9742123Y132933D1*
X-9751782Y142704D1*
X-9756723Y152362D1*
Y166962D1*
X-9751782Y176621D1*
X-9742123Y186391D1*
X-9654635Y96731D2*
X-9756723D1*
X-9717865Y65358D2*
Y7071D1*
X-9708094D1*
X-9698323Y11900D1*
X-9693494Y16729D1*
X-9688665Y26500D1*
Y41100D1*
X-9693494Y50758D1*
X-9703265Y60529D1*
X-9717865Y65358D1*
X-9727523D1*
X-9742123Y60529D1*
X-9751782Y50758D1*
X-9756723Y41100D1*
Y26500D1*
X-9751782Y16729D1*
X-9742123Y7071D1*
X-9654635Y-82589D2*
X-9756723D1*
X-9703265D2*
X-9693494Y-72931D1*
X-9688665Y-63160D1*
Y-48560D1*
X-9693494Y-38902D1*
X-9703265Y-29131D1*
X-9717865Y-24302D1*
X-9727523D1*
X-9742123Y-29131D1*
X-9751782Y-38902D1*
X-9756723Y-48560D1*
Y-63160D1*
X-9751782Y-72931D1*
X-9742123Y-82589D1*
X-8086128Y4918540D2*
Y4816452D1*
X-8120157Y4918540D2*
X-8052098D1*
X-7991526D2*
X-8001297Y4913711D1*
X-8010955Y4903940D1*
X-8015897Y4894281D1*
X-8020726Y4879681D1*
Y4855311D1*
X-8015897Y4840823D1*
X-8010955Y4831052D1*
X-8001297Y4821394D1*
X-7991526Y4816452D1*
X-7972097D1*
X-7962438Y4821394D1*
X-7952667Y4831052D1*
X-7947838Y4840823D1*
X-7943009Y4855311D1*
Y4879681D1*
X-7947838Y4894281D1*
X-7952667Y4903940D1*
X-7962438Y4913711D1*
X-7972097Y4918540D1*
X-7991526D1*
X-7911636Y4865081D2*
X-7867836D1*
X-7853349Y4869911D1*
X-7848407Y4874852D1*
X-7843578Y4884511D1*
Y4899111D1*
X-7848407Y4908769D1*
X-7853349Y4913711D1*
X-7867836Y4918540D1*
X-7911636D1*
Y4816452D1*
X-6534154Y-4685340D2*
Y-4787428D1*
Y-4738799D2*
X-6519554Y-4724199D1*
X-6509783Y-4719369D1*
X-6495183D1*
X-6485524Y-4724199D1*
X-6480695Y-4738799D1*
Y-4787428D1*
X-6434723Y-4685340D2*
Y-4767999D1*
X-6429893Y-4782486D1*
X-6420123Y-4787428D1*
X-6410464D1*
X-6449323Y-4719369D2*
X-6415293D1*
X-6364492Y-4685340D2*
Y-4767999D1*
X-6359662Y-4782486D1*
X-6349892Y-4787428D1*
X-6340233D1*
X-6379092Y-4719369D2*
X-6345062D1*
X-6308860D2*
Y-4821457D1*
Y-4733969D2*
X-6299090Y-4724311D1*
X-6289431Y-4719369D1*
X-6274831D1*
X-6265060Y-4724311D1*
X-6255402Y-4733969D1*
X-6250460Y-4748569D1*
Y-4758340D1*
X-6255402Y-4772828D1*
X-6265060Y-4782599D1*
X-6274831Y-4787428D1*
X-6289431D1*
X-6299090Y-4782599D1*
X-6308860Y-4772828D1*
X-6165629Y-4733969D2*
X-6170459Y-4724199D1*
X-6185059Y-4719369D1*
X-6199659D1*
X-6214259Y-4724199D1*
X-6219088Y-4733969D1*
X-6214259Y-4743628D1*
X-6204488Y-4748569D1*
X-6180229Y-4753399D1*
X-6170459Y-4758228D1*
X-6165629Y-4767999D1*
Y-4772828D1*
X-6170459Y-4782486D1*
X-6185059Y-4787428D1*
X-6199659D1*
X-6214259Y-4782486D1*
X-6219088Y-4772828D1*
X-6129315Y-4719369D2*
X-6134257Y-4724311D1*
X-6129315Y-4729140D1*
X-6124486Y-4724311D1*
X-6129315Y-4719369D1*
Y-4777657D2*
X-6134257Y-4782599D1*
X-6129315Y-4787428D1*
X-6124486Y-4782599D1*
X-6129315Y-4777657D1*
X-6093114Y-4787428D2*
X-6025055Y-4685452D1*
X-5993683Y-4787428D2*
X-5925624Y-4685452D1*
X-5835964Y-4724199D2*
Y-4802028D1*
X-5840793Y-4816515D1*
X-5845622Y-4821457D1*
X-5855393Y-4826286D1*
X-5869993D1*
X-5879652Y-4821457D1*
X-5835964Y-4738799D2*
X-5845622Y-4729140D1*
X-5855393Y-4724199D1*
X-5869993D1*
X-5879652Y-4729140D1*
X-5889422Y-4738799D1*
X-5894252Y-4753399D1*
Y-4763169D1*
X-5889422Y-4777657D1*
X-5879652Y-4787428D1*
X-5869993Y-4792257D1*
X-5855393D1*
X-5845622Y-4787428D1*
X-5835964Y-4777657D1*
X-5804591Y-4685340D2*
X-5799762Y-4690169D1*
X-5794821Y-4685340D1*
X-5799762Y-4680399D1*
X-5804591Y-4685340D1*
X-5799762Y-4719369D2*
Y-4787428D1*
X-5748848Y-4685340D2*
Y-4767999D1*
X-5744019Y-4782486D1*
X-5734248Y-4787428D1*
X-5724590D1*
X-5763448Y-4719369D2*
X-5729419D1*
X-5693217Y-4685340D2*
Y-4787428D1*
Y-4738799D2*
X-5678617Y-4724199D1*
X-5668846Y-4719369D1*
X-5654246D1*
X-5644588Y-4724199D1*
X-5639759Y-4738799D1*
Y-4787428D1*
X-5608386Y-4719369D2*
Y-4767999D1*
X-5603557Y-4782486D1*
X-5593786Y-4787428D1*
X-5579186D1*
X-5569528Y-4782486D1*
X-5554928Y-4767999D1*
Y-4719369D2*
Y-4787428D1*
X-5523555Y-4685340D2*
Y-4787428D1*
Y-4733969D2*
X-5513784Y-4724199D1*
X-5504126Y-4719369D1*
X-5489526D1*
X-5479867Y-4724199D1*
X-5470097Y-4733969D1*
X-5465267Y-4748569D1*
Y-4758228D1*
X-5470097Y-4772828D1*
X-5479867Y-4782486D1*
X-5489526Y-4787428D1*
X-5504126D1*
X-5513784Y-4782486D1*
X-5523555Y-4772828D1*
X-5429066Y-4777657D2*
X-5433895Y-4782599D1*
X-5429066Y-4787428D1*
X-5424124Y-4782599D1*
X-5429066Y-4777657D1*
X-5334351Y-4733969D2*
X-5344122Y-4724199D1*
X-5353893Y-4719369D1*
X-5368381D1*
X-5378151Y-4724199D1*
X-5387810Y-4733969D1*
X-5392751Y-4748569D1*
Y-4758228D1*
X-5387810Y-4772828D1*
X-5378151Y-4782486D1*
X-5368381Y-4787428D1*
X-5353893D1*
X-5344122Y-4782486D1*
X-5334351Y-4772828D1*
X-5278720Y-4719369D2*
X-5288379Y-4724199D1*
X-5298150Y-4733969D1*
X-5302979Y-4748569D1*
Y-4758228D1*
X-5298150Y-4772828D1*
X-5288379Y-4782486D1*
X-5278720Y-4787428D1*
X-5264120D1*
X-5254350Y-4782486D1*
X-5244691Y-4772828D1*
X-5239750Y-4758228D1*
Y-4748569D1*
X-5244691Y-4733969D1*
X-5254350Y-4724199D1*
X-5264120Y-4719369D1*
X-5278720D1*
X-5208377D2*
Y-4787428D1*
Y-4738799D2*
X-5193777Y-4724199D1*
X-5184006Y-4719369D1*
X-5169519D1*
X-5159748Y-4724199D1*
X-5154919Y-4738799D1*
Y-4787428D1*
Y-4738799D2*
X-5140319Y-4724199D1*
X-5130548Y-4719369D1*
X-5116060D1*
X-5106289Y-4724199D1*
X-5101348Y-4738799D1*
Y-4787428D1*
X-5069975D2*
X-5001917Y-4685452D1*
X-4892715Y-4787428D2*
X-4931686Y-4685340D1*
X-4970544Y-4787428D1*
X-4955944Y-4753399D2*
X-4907315D1*
X-4861343Y-4685340D2*
Y-4787428D1*
X-4825028Y-4719369D2*
X-4795941Y-4787428D1*
X-4805599Y-4806857D1*
X-4815370Y-4816628D1*
X-4825028Y-4821457D1*
X-4829970D1*
X-4766741Y-4719369D2*
X-4795941Y-4787428D1*
X-4681910Y-4733969D2*
X-4686739Y-4724199D1*
X-4701339Y-4719369D1*
X-4715939D1*
X-4730539Y-4724199D1*
X-4735368Y-4733969D1*
X-4730539Y-4743628D1*
X-4720768Y-4748569D1*
X-4696510Y-4753399D1*
X-4686739Y-4758228D1*
X-4681910Y-4767999D1*
Y-4772828D1*
X-4686739Y-4782486D1*
X-4701339Y-4787428D1*
X-4715939D1*
X-4730539Y-4782486D1*
X-4735368Y-4772828D1*
X-4597079Y-4733969D2*
X-4601908Y-4724199D1*
X-4616508Y-4719369D1*
X-4631108D1*
X-4645708Y-4724199D1*
X-4650537Y-4733969D1*
X-4645708Y-4743628D1*
X-4635937Y-4748569D1*
X-4611679Y-4753399D1*
X-4601908Y-4758228D1*
X-4597079Y-4767999D1*
Y-4772828D1*
X-4601908Y-4782486D1*
X-4616508Y-4787428D1*
X-4631108D1*
X-4645708Y-4782486D1*
X-4650537Y-4772828D1*
X-4541448Y-4719369D2*
X-4551106Y-4724199D1*
X-4560877Y-4733969D1*
X-4565706Y-4748569D1*
Y-4758228D1*
X-4560877Y-4772828D1*
X-4551106Y-4782486D1*
X-4541448Y-4787428D1*
X-4526848D1*
X-4517077Y-4782486D1*
X-4507419Y-4772828D1*
X-4502477Y-4758228D1*
Y-4748569D1*
X-4507419Y-4733969D1*
X-4517077Y-4724199D1*
X-4526848Y-4719369D1*
X-4541448D1*
X-4471104D2*
Y-4787428D1*
Y-4738799D2*
X-4456504Y-4724199D1*
X-4446734Y-4719369D1*
X-4432246D1*
X-4422475Y-4724199D1*
X-4417646Y-4738799D1*
Y-4787428D1*
X-4386273Y-4733969D2*
X-4342586D1*
X-4327986Y-4729028D1*
X-4323044Y-4724199D1*
X-4318215Y-4714540D1*
Y-4704769D1*
X-4323044Y-4695111D1*
X-4327986Y-4690169D1*
X-4342586Y-4685340D1*
X-4386273D1*
Y-4787428D1*
X-4352244Y-4733969D2*
X-4318215Y-4787428D1*
X-4262584Y-4719369D2*
X-4272242Y-4724199D1*
X-4282013Y-4733969D1*
X-4286842Y-4748569D1*
Y-4758228D1*
X-4282013Y-4772828D1*
X-4272242Y-4782486D1*
X-4262584Y-4787428D1*
X-4247984D1*
X-4238213Y-4782486D1*
X-4228555Y-4772828D1*
X-4223613Y-4758228D1*
Y-4748569D1*
X-4228555Y-4733969D1*
X-4238213Y-4724199D1*
X-4247984Y-4719369D1*
X-4262584D1*
X-4192241D2*
X-4172811Y-4787428D1*
X-4153382Y-4719369D1*
X-4133953Y-4787428D1*
X-4114524Y-4719369D1*
X-4024863D2*
Y-4787428D1*
Y-4733969D2*
X-4034522Y-4724199D1*
X-4044293Y-4719369D1*
X-4058780D1*
X-4068551Y-4724199D1*
X-4078210Y-4733969D1*
X-4083151Y-4748569D1*
Y-4758228D1*
X-4078210Y-4772828D1*
X-4068551Y-4782486D1*
X-4058780Y-4787428D1*
X-4044293D1*
X-4034522Y-4782486D1*
X-4024863Y-4772828D1*
X-3993491Y-4719369D2*
Y-4787428D1*
Y-4738799D2*
X-3978891Y-4724199D1*
X-3969120Y-4719369D1*
X-3954632D1*
X-3944862Y-4724199D1*
X-3940032Y-4738799D1*
Y-4787428D1*
X-3908660D2*
X-3840601Y-4685452D1*
X-3731512Y-4787428D2*
Y-4685340D1*
X-3770370Y-4787428D1*
X-3809229Y-4685340D1*
Y-4787428D1*
X-3627252Y-4709599D2*
X-3632081Y-4699940D1*
X-3641852Y-4690169D1*
X-3651510Y-4685340D1*
X-3670939D1*
X-3680710Y-4690169D1*
X-3690369Y-4699940D1*
X-3695310Y-4709599D1*
X-3700139Y-4724199D1*
Y-4748569D1*
X-3695310Y-4763057D1*
X-3690369Y-4772828D1*
X-3680710Y-4782486D1*
X-3670939Y-4787428D1*
X-3651510D1*
X-3641852Y-4782486D1*
X-3632081Y-4772828D1*
X-3627252Y-4763057D1*
X-3527821Y-4699940D2*
X-3537479Y-4690169D1*
X-3552079Y-4685340D1*
X-3571508D1*
X-3586108Y-4690169D1*
X-3595879Y-4699940D1*
Y-4709599D1*
X-3590938Y-4719369D1*
X-3586108Y-4724199D1*
X-3576450Y-4729028D1*
X-3547250Y-4738799D1*
X-3537479Y-4743628D1*
X-3532650Y-4748569D1*
X-3527821Y-4758228D1*
Y-4772828D1*
X-3537479Y-4782486D1*
X-3552079Y-4787428D1*
X-3571508D1*
X-3586108Y-4782486D1*
X-3595879Y-4772828D1*
X-3496448Y-4736440D2*
X-3440294D1*
X-3350634Y-4685452D2*
X-3399151D1*
X-3403980Y-4729140D1*
X-3399151Y-4724311D1*
X-3384551Y-4719369D1*
X-3370063D1*
X-3355463Y-4724311D1*
X-3345693Y-4733969D1*
X-3340863Y-4748569D1*
Y-4758228D1*
X-3345693Y-4772828D1*
X-3355463Y-4782599D1*
X-3370063Y-4787428D1*
X-3384551D1*
X-3399151Y-4782599D1*
X-3403980Y-4777657D1*
X-3408922Y-4767999D1*
X-3309491Y-4704882D2*
X-3299720Y-4699940D1*
X-3285120Y-4685452D1*
Y-4787428D1*
X-3253747Y-4736440D2*
X-3197594D1*
X-3088504Y-4787428D2*
Y-4685340D1*
X-3127363Y-4787428D1*
X-3166221Y-4685340D1*
Y-4787428D1*
X-3032873Y-4719369D2*
X-3042532Y-4724199D1*
X-3052302Y-4733969D1*
X-3057132Y-4748569D1*
Y-4758228D1*
X-3052302Y-4772828D1*
X-3042532Y-4782486D1*
X-3032873Y-4787428D1*
X-3018273D1*
X-3008502Y-4782486D1*
X-2998844Y-4772828D1*
X-2993902Y-4758228D1*
Y-4748569D1*
X-2998844Y-4733969D1*
X-3008502Y-4724199D1*
X-3018273Y-4719369D1*
X-3032873D1*
X-2904242Y-4685340D2*
Y-4787428D1*
Y-4733969D2*
X-2913901Y-4724199D1*
X-2923671Y-4719369D1*
X-2938271D1*
X-2947930Y-4724199D1*
X-2957701Y-4733969D1*
X-2962530Y-4748569D1*
Y-4758228D1*
X-2957701Y-4772828D1*
X-2947930Y-4782486D1*
X-2938271Y-4787428D1*
X-2923671D1*
X-2913901Y-4782486D1*
X-2904242Y-4772828D1*
X-2872870Y-4719369D2*
Y-4767999D1*
X-2868040Y-4782486D1*
X-2858270Y-4787428D1*
X-2843670D1*
X-2834011Y-4782486D1*
X-2819411Y-4767999D1*
Y-4719369D2*
Y-4787428D1*
X-2788039Y-4685340D2*
Y-4787428D1*
X-2698378Y-4719369D2*
Y-4787428D1*
Y-4733969D2*
X-2708037Y-4724199D1*
X-2717808Y-4719369D1*
X-2732295D1*
X-2742066Y-4724199D1*
X-2751724Y-4733969D1*
X-2756666Y-4748569D1*
Y-4758228D1*
X-2751724Y-4772828D1*
X-2742066Y-4782486D1*
X-2732295Y-4787428D1*
X-2717808D1*
X-2708037Y-4782486D1*
X-2698378Y-4772828D1*
X-2667006Y-4719369D2*
Y-4787428D1*
Y-4748569D2*
X-2662064Y-4733969D1*
X-2652406Y-4724199D1*
X-2642635Y-4719369D1*
X-2628035D1*
X-2596662Y-4736440D2*
X-2540509D1*
X-2436248Y-4709599D2*
X-2441078Y-4699940D1*
X-2450848Y-4690169D1*
X-2460507Y-4685340D1*
X-2479936D1*
X-2489707Y-4690169D1*
X-2499365Y-4699940D1*
X-2504307Y-4709599D1*
X-2509136Y-4724199D1*
Y-4748569D1*
X-2504307Y-4763057D1*
X-2499365Y-4772828D1*
X-2489707Y-4782486D1*
X-2479936Y-4787428D1*
X-2460507D1*
X-2450848Y-4782486D1*
X-2441078Y-4772828D1*
X-2436248Y-4763057D1*
X-2380617Y-4719369D2*
X-2390276Y-4724199D1*
X-2400047Y-4733969D1*
X-2404876Y-4748569D1*
Y-4758228D1*
X-2400047Y-4772828D1*
X-2390276Y-4782486D1*
X-2380617Y-4787428D1*
X-2366017D1*
X-2356247Y-4782486D1*
X-2346588Y-4772828D1*
X-2341647Y-4758228D1*
Y-4748569D1*
X-2346588Y-4733969D1*
X-2356247Y-4724199D1*
X-2366017Y-4719369D1*
X-2380617D1*
X-2310274D2*
Y-4787428D1*
Y-4738799D2*
X-2295674Y-4724199D1*
X-2285903Y-4719369D1*
X-2271416D1*
X-2261645Y-4724199D1*
X-2256816Y-4738799D1*
Y-4787428D1*
Y-4738799D2*
X-2242216Y-4724199D1*
X-2232445Y-4719369D1*
X-2217957D1*
X-2208186Y-4724199D1*
X-2203245Y-4738799D1*
Y-4787428D1*
X-2171872Y-4719369D2*
Y-4821457D1*
Y-4733969D2*
X-2162101Y-4724311D1*
X-2152443Y-4719369D1*
X-2137843D1*
X-2128072Y-4724311D1*
X-2118414Y-4733969D1*
X-2113472Y-4748569D1*
Y-4758340D1*
X-2118414Y-4772828D1*
X-2128072Y-4782599D1*
X-2137843Y-4787428D1*
X-2152443D1*
X-2162101Y-4782599D1*
X-2171872Y-4772828D1*
X-2082100Y-4719369D2*
Y-4767999D1*
X-2077270Y-4782486D1*
X-2067500Y-4787428D1*
X-2052900D1*
X-2043241Y-4782486D1*
X-2028641Y-4767999D1*
Y-4719369D2*
Y-4787428D1*
X-1982669Y-4685340D2*
Y-4767999D1*
X-1977839Y-4782486D1*
X-1968069Y-4787428D1*
X-1958410D1*
X-1997269Y-4719369D2*
X-1963239D1*
X-1927038Y-4748569D2*
X-1868750D1*
Y-4738799D1*
X-1873579Y-4729028D1*
X-1878408Y-4724199D1*
X-1888179Y-4719369D1*
X-1902779D1*
X-1912438Y-4724199D1*
X-1922208Y-4733969D1*
X-1927038Y-4748569D1*
Y-4758228D1*
X-1922208Y-4772828D1*
X-1912438Y-4782486D1*
X-1902779Y-4787428D1*
X-1888179D1*
X-1878408Y-4782486D1*
X-1868750Y-4772828D1*
X-1837377Y-4719369D2*
Y-4787428D1*
Y-4748569D2*
X-1832436Y-4733969D1*
X-1822777Y-4724199D1*
X-1813007Y-4719369D1*
X-1798407D1*
X-6710575Y-1721590D2*
D77*
X-6807721D1*
X-6825971Y-1715554D1*
X-6832008Y-1709377D1*
X-6838185Y-1697304D1*
Y-1685090D1*
X-6832008Y-1673017D1*
X-6825971Y-1666981D1*
X-6807721Y-1660804D1*
X-6795648D1*
X-6838185Y-1857952D2*
X-6710575D1*
X-6838185Y-1809379D1*
X-6710575Y-1760806D1*
X-6838185D1*
X-6777398Y-1897168D2*
Y-1951918D1*
X-6771362Y-1970028D1*
X-6765185Y-1976205D1*
X-6753112Y-1982241D1*
X-6734862D1*
X-6722789Y-1976205D1*
X-6716612Y-1970028D1*
X-6710575Y-1951918D1*
Y-1897168D1*
X-6838185D1*
X-6735002Y-2144903D2*
X-6728825Y-2157117D1*
X-6710715Y-2175367D1*
X-6838185D1*
X-6710575Y4469660D2*
X-6807721D1*
X-6825971Y4475696D1*
X-6832008Y4481873D1*
X-6838185Y4493946D1*
Y4506160D1*
X-6832008Y4518233D1*
X-6825971Y4524269D1*
X-6807721Y4530446D1*
X-6795648D1*
X-6838185Y4333298D2*
X-6710575D1*
X-6838185Y4381871D1*
X-6710575Y4430444D1*
X-6838185D1*
X-6777398Y4294082D2*
Y4239332D1*
X-6771362Y4221222D1*
X-6765185Y4215045D1*
X-6753112Y4209009D1*
X-6734862D1*
X-6722789Y4215045D1*
X-6716612Y4221222D1*
X-6710575Y4239332D1*
Y4294082D1*
X-6838185D1*
X-6741039Y4040170D2*
X-6735002D1*
X-6722789Y4034133D1*
X-6716752Y4028097D1*
X-6710715Y4015883D1*
Y3991597D1*
X-6716752Y3979524D1*
X-6722789Y3973487D1*
X-6735002Y3967310D1*
X-6747075D1*
X-6759289Y3973487D1*
X-6777398Y3985560D1*
X-6838185Y4046347D1*
Y3961274D1*
X-6710575Y3707660D2*
X-6807721D1*
X-6825971Y3713696D1*
X-6832008Y3719873D1*
X-6838185Y3731946D1*
Y3744160D1*
X-6832008Y3756233D1*
X-6825971Y3762269D1*
X-6807721Y3768446D1*
X-6795648D1*
X-6838185Y3571298D2*
X-6710575D1*
X-6838185Y3619871D1*
X-6710575Y3668444D1*
X-6838185D1*
X-6777398Y3532082D2*
Y3477332D1*
X-6771362Y3459222D1*
X-6765185Y3453045D1*
X-6753112Y3447009D1*
X-6734862D1*
X-6722789Y3453045D1*
X-6716612Y3459222D1*
X-6710575Y3477332D1*
Y3532082D1*
X-6838185D1*
X-6710715Y3272133D2*
Y3205451D1*
X-6759289Y3241810D1*
Y3223560D1*
X-6765325Y3211487D1*
X-6771362Y3205451D1*
X-6789612Y3199274D1*
X-6801685D1*
X-6819935Y3205451D1*
X-6832148Y3217524D1*
X-6838185Y3235774D1*
Y3254024D1*
X-6832148Y3272133D1*
X-6825971Y3278170D1*
X-6813898Y3284347D1*
X-6710575Y2945660D2*
X-6807721D1*
X-6825971Y2951696D1*
X-6832008Y2957873D1*
X-6838185Y2969946D1*
Y2982160D1*
X-6832008Y2994233D1*
X-6825971Y3000269D1*
X-6807721Y3006446D1*
X-6795648D1*
X-6838185Y2809298D2*
X-6710575D1*
X-6838185Y2857871D1*
X-6710575Y2906444D1*
X-6838185D1*
X-6777398Y2770082D2*
Y2715332D1*
X-6771362Y2697222D1*
X-6765185Y2691045D1*
X-6753112Y2685009D1*
X-6734862D1*
X-6722789Y2691045D1*
X-6716612Y2697222D1*
X-6710575Y2715332D1*
Y2770082D1*
X-6838185D1*
Y2461560D2*
X-6710715D1*
X-6795648Y2522347D1*
Y2431237D1*
X-6710575Y2183660D2*
X-6807721D1*
X-6825971Y2189696D1*
X-6832008Y2195873D1*
X-6838185Y2207946D1*
Y2220160D1*
X-6832008Y2232233D1*
X-6825971Y2238269D1*
X-6807721Y2244446D1*
X-6795648D1*
X-6838185Y2047298D2*
X-6710575D1*
X-6838185Y2095871D1*
X-6710575Y2144444D1*
X-6838185D1*
X-6777398Y2008082D2*
Y1953332D1*
X-6771362Y1935222D1*
X-6765185Y1929045D1*
X-6753112Y1923009D1*
X-6734862D1*
X-6722789Y1929045D1*
X-6716612Y1935222D1*
X-6710575Y1953332D1*
Y2008082D1*
X-6838185D1*
X-6710715Y1687487D2*
Y1748133D1*
X-6765325Y1754170D1*
X-6759289Y1748133D1*
X-6753112Y1729883D1*
Y1711774D1*
X-6759289Y1693524D1*
X-6771362Y1681310D1*
X-6789612Y1675274D1*
X-6801685D1*
X-6819935Y1681310D1*
X-6832148Y1693524D1*
X-6838185Y1711774D1*
Y1729883D1*
X-6832148Y1748133D1*
X-6825971Y1754170D1*
X-6813898Y1760347D1*
X-6453337Y-2299889D2*
D79*
X-6447160Y-2312102D1*
X-6429050Y-2330352D1*
X-6556520D1*
X-6459374Y-1607566D2*
X-6453337D1*
X-6441124Y-1613602D1*
X-6435087Y-1619639D1*
X-6429050Y-1631852D1*
Y-1656139D1*
X-6435087Y-1668212D1*
X-6441124Y-1674249D1*
X-6453337Y-1680425D1*
X-6465410D1*
X-6477624Y-1674249D1*
X-6495733Y-1662175D1*
X-6556520Y-1601389D1*
Y-1686462D1*
X-6231087Y2272111D2*
X-6224910Y2259898D1*
X-6206800Y2241648D1*
X-6334270D1*
X-6459374Y1726184D2*
X-6453337D1*
X-6441124Y1720148D1*
X-6435087Y1714111D1*
X-6429050Y1701898D1*
Y1677611D1*
X-6435087Y1665538D1*
X-6441124Y1659501D1*
X-6453337Y1653325D1*
X-6465410D1*
X-6477624Y1659501D1*
X-6495733Y1671575D1*
X-6556520Y1732361D1*
Y1647288D1*
X-6231087Y3034111D2*
X-6224910Y3021898D1*
X-6206800Y3003648D1*
X-6334270D1*
X-6459374Y2488184D2*
X-6453337D1*
X-6441124Y2482148D1*
X-6435087Y2476111D1*
X-6429050Y2463898D1*
Y2439611D1*
X-6435087Y2427538D1*
X-6441124Y2421501D1*
X-6453337Y2415325D1*
X-6465410D1*
X-6477624Y2421501D1*
X-6495733Y2433575D1*
X-6556520Y2494361D1*
Y2409288D1*
X-6262837Y3796111D2*
X-6256660Y3783898D1*
X-6238550Y3765648D1*
X-6366020D1*
X-6491124Y3250184D2*
X-6485087D1*
X-6472874Y3244148D1*
X-6466837Y3238111D1*
X-6460800Y3225898D1*
Y3201611D1*
X-6466837Y3189538D1*
X-6472874Y3183501D1*
X-6485087Y3177325D1*
X-6497160D1*
X-6509374Y3183501D1*
X-6527483Y3195575D1*
X-6588270Y3256361D1*
Y3171288D1*
X-6199337Y4558111D2*
X-6193160Y4545898D1*
X-6175050Y4527648D1*
X-6302520D1*
X-6427624Y4012184D2*
X-6421587D1*
X-6409374Y4006148D1*
X-6403337Y4000111D1*
X-6397300Y3987898D1*
Y3963611D1*
X-6403337Y3951538D1*
X-6409374Y3945501D1*
X-6421587Y3939325D1*
X-6433660D1*
X-6445874Y3945501D1*
X-6463983Y3957575D1*
X-6524770Y4018361D1*
Y3933288D1*
X-4906962Y-122513D2*
Y5097D1*
X-4955535Y-122513D1*
X-5004108Y5097D1*
Y-122513D1*
X-4760296Y-25226D2*
X-4766333Y-13153D1*
X-4778546Y-940D1*
X-4790620Y5097D1*
X-4814906D1*
X-4827120Y-940D1*
X-4839193Y-13153D1*
X-4845370Y-25226D1*
X-4851406Y-43476D1*
Y-73940D1*
X-4845370Y-92050D1*
X-4839193Y-104263D1*
X-4827120Y-116336D1*
X-4814906Y-122513D1*
X-4790620D1*
X-4778546Y-116336D1*
X-4766333Y-104263D1*
X-4760296Y-92050D1*
X-4619668Y-13153D2*
X-4631741Y-940D1*
X-4649991Y5097D1*
X-4674277D1*
X-4692527Y-940D1*
X-4704741Y-13153D1*
Y-25226D1*
X-4698564Y-37440D1*
X-4692527Y-43476D1*
X-4680454Y-49513D1*
X-4643954Y-61726D1*
X-4631741Y-67763D1*
X-4625704Y-73940D1*
X-4619668Y-86013D1*
Y-104263D1*
X-4631741Y-116336D1*
X-4649991Y-122513D1*
X-4674277D1*
X-4692527Y-116336D1*
X-4704741Y-104263D1*
X-4564112Y-58778D2*
X-4493920D1*
X-4365505Y4956D2*
X-4426151D1*
X-4432187Y-49653D1*
X-4426151Y-43617D1*
X-4407901Y-37440D1*
X-4389791D1*
X-4371541Y-43617D1*
X-4359328Y-55690D1*
X-4353291Y-73940D1*
Y-86013D1*
X-4359328Y-104263D1*
X-4371541Y-116476D1*
X-4389791Y-122513D1*
X-4407901D1*
X-4426151Y-116476D1*
X-4432187Y-110300D1*
X-4438364Y-98226D1*
X-4297736Y-19330D2*
X-4285522Y-13153D1*
X-4267272Y4956D1*
Y-122513D1*
X-3974784D2*
Y5097D1*
X-4023357Y-122513D1*
X-4071930Y5097D1*
Y-122513D1*
X-3888906Y-37440D2*
X-3900979Y-43476D1*
X-3913192Y-55690D1*
X-3919229Y-73940D1*
Y-86013D1*
X-3913192Y-104263D1*
X-3900979Y-116336D1*
X-3888906Y-122513D1*
X-3870656D1*
X-3858442Y-116336D1*
X-3846369Y-104263D1*
X-3840192Y-86013D1*
Y-73940D1*
X-3846369Y-55690D1*
X-3858442Y-43476D1*
X-3870656Y-37440D1*
X-3888906D1*
X-3711777Y5097D2*
Y-122513D1*
Y-55690D2*
X-3723850Y-43476D1*
X-3736064Y-37440D1*
X-3754314D1*
X-3766387Y-43476D1*
X-3778600Y-55690D1*
X-3784637Y-73940D1*
Y-86013D1*
X-3778600Y-104263D1*
X-3766387Y-116336D1*
X-3754314Y-122513D1*
X-3736064D1*
X-3723850Y-116336D1*
X-3711777Y-104263D1*
X-3656221Y-37440D2*
Y-98226D1*
X-3650185Y-116336D1*
X-3637971Y-122513D1*
X-3619721D1*
X-3607648Y-116336D1*
X-3589398Y-98226D1*
Y-37440D2*
Y-122513D1*
X-3533843Y5097D2*
Y-122513D1*
X-3405428Y-37440D2*
Y-122513D1*
Y-55690D2*
X-3417501Y-43476D1*
X-3429714Y-37440D1*
X-3447824D1*
X-3460037Y-43476D1*
X-3472110Y-55690D1*
X-3478287Y-73940D1*
Y-86013D1*
X-3472110Y-104263D1*
X-3460037Y-116336D1*
X-3447824Y-122513D1*
X-3429714D1*
X-3417501Y-116336D1*
X-3405428Y-104263D1*
X-3349872Y-37440D2*
Y-122513D1*
Y-73940D2*
X-3343695Y-55690D1*
X-3331622Y-43476D1*
X-3319409Y-37440D1*
X-3301159D1*
X-3014707Y-25226D2*
X-3020744Y-13153D1*
X-3032957Y-940D1*
X-3045030Y5097D1*
X-3069317D1*
X-3081530Y-940D1*
X-3093603Y-13153D1*
X-3099780Y-25226D1*
X-3105817Y-43476D1*
Y-73940D1*
X-3099780Y-92050D1*
X-3093603Y-104263D1*
X-3081530Y-116336D1*
X-3069317Y-122513D1*
X-3045030D1*
X-3032957Y-116336D1*
X-3020744Y-104263D1*
X-3014707Y-92050D1*
X-2928829Y-37440D2*
X-2940902Y-43476D1*
X-2953115Y-55690D1*
X-2959152Y-73940D1*
Y-86013D1*
X-2953115Y-104263D1*
X-2940902Y-116336D1*
X-2928829Y-122513D1*
X-2910579D1*
X-2898365Y-116336D1*
X-2886292Y-104263D1*
X-2880115Y-86013D1*
Y-73940D1*
X-2886292Y-55690D1*
X-2898365Y-43476D1*
X-2910579Y-37440D1*
X-2928829D1*
X-2824559D2*
Y-122513D1*
Y-61726D2*
X-2806309Y-43476D1*
X-2794096Y-37440D1*
X-2775986D1*
X-2763773Y-43476D1*
X-2757736Y-61726D1*
Y-122513D1*
Y-61726D2*
X-2739486Y-43476D1*
X-2727273Y-37440D1*
X-2709163D1*
X-2696950Y-43476D1*
X-2690773Y-61726D1*
Y-122513D1*
X-2635217Y-37440D2*
Y-165050D1*
Y-55690D2*
X-2623004Y-43617D1*
X-2610931Y-37440D1*
X-2592681D1*
X-2580467Y-43617D1*
X-2568394Y-55690D1*
X-2562217Y-73940D1*
Y-86153D1*
X-2568394Y-104263D1*
X-2580467Y-116476D1*
X-2592681Y-122513D1*
X-2610931D1*
X-2623004Y-116476D1*
X-2635217Y-104263D1*
X-2506662Y-37440D2*
Y-98226D1*
X-2500625Y-116336D1*
X-2488412Y-122513D1*
X-2470162D1*
X-2458089Y-116336D1*
X-2439839Y-98226D1*
Y-37440D2*
Y-122513D1*
X-2366033Y5097D2*
Y-98226D1*
X-2359997Y-116336D1*
X-2347783Y-122513D1*
X-2335710D1*
X-2384283Y-37440D2*
X-2341747D1*
X-2280155Y-73940D2*
X-2207295D1*
Y-61726D1*
X-2213331Y-49513D1*
X-2219368Y-43476D1*
X-2231581Y-37440D1*
X-2249831D1*
X-2261905Y-43476D1*
X-2274118Y-55690D1*
X-2280155Y-73940D1*
Y-86013D1*
X-2274118Y-104263D1*
X-2261905Y-116336D1*
X-2249831Y-122513D1*
X-2231581D1*
X-2219368Y-116336D1*
X-2207295Y-104263D1*
X-2151739Y-37440D2*
Y-122513D1*
Y-73940D2*
X-2145562Y-55690D1*
X-2133489Y-43476D1*
X-2121276Y-37440D1*
X-2103026D1*
X-4861183Y-646325D2*
D77*
Y-773935D1*
X-4776110Y-646325D2*
Y-773935D1*
X-4861183Y-707112D2*
X-4776110D1*
X-4639748Y-773935D2*
Y-646325D1*
X-4688321Y-773935D1*
X-4736894Y-646325D1*
Y-773935D1*
X-4509423Y-676648D2*
X-4515459Y-664575D1*
X-4527673Y-652362D1*
X-4539746Y-646325D1*
X-4564032D1*
X-4576246Y-652362D1*
X-4588319Y-664575D1*
X-4594496Y-676648D1*
X-4600532Y-694898D1*
Y-725362D1*
X-4594496Y-743471D1*
X-4588319Y-755685D1*
X-4576246Y-767758D1*
X-4564032Y-773935D1*
X-4539746D1*
X-4527673Y-767758D1*
X-4515459Y-755685D1*
X-4509423Y-743471D1*
X-4470207Y-710200D2*
X-4400015D1*
X-4263653Y-773935D2*
Y-646325D1*
X-4312226Y-773935D1*
X-4360799Y-646325D1*
Y-773935D1*
X-4127291D2*
Y-646325D1*
X-4175864Y-773935D1*
X-4224437Y-646325D1*
Y-773935D1*
X-4088075Y-646325D2*
Y-773935D1*
X-4033325D1*
X-4015075Y-767758D1*
X-4009039Y-761721D1*
X-4003002Y-749648D1*
Y-731398D1*
X-4009039Y-719185D1*
X-4015075Y-713148D1*
X-4033325Y-707112D1*
X-4015075Y-700935D1*
X-4009039Y-694898D1*
X-4003002Y-682825D1*
Y-670612D1*
X-4009039Y-658539D1*
X-4015075Y-652362D1*
X-4033325Y-646325D1*
X-4088075D1*
Y-707112D2*
X-4033325D1*
X-3963786Y-710200D2*
X-3893594D1*
X-3848201Y-676789D2*
Y-670752D1*
X-3842165Y-658539D1*
X-3836128Y-652502D1*
X-3823915Y-646465D1*
X-3799628D1*
X-3787555Y-652502D1*
X-3781519Y-658539D1*
X-3775342Y-670752D1*
Y-682825D1*
X-3781519Y-695039D1*
X-3793592Y-713148D1*
X-3854378Y-773935D1*
X-3769305D1*
X-3483197Y-646325D2*
X-3434624Y-773935D1*
X-3386051Y-646325D1*
X-3346835Y-670752D2*
X-3334621Y-664575D1*
X-3316371Y-646465D1*
Y-773935D1*
X-3271119Y-761721D2*
X-3277156Y-767898D1*
X-3271119Y-773935D1*
X-3264942Y-767898D1*
X-3271119Y-761721D1*
X-3189227Y-646465D2*
X-3207477Y-652502D1*
X-3219690Y-670752D1*
X-3225727Y-701075D1*
Y-719325D1*
X-3219690Y-749648D1*
X-3207477Y-767898D1*
X-3189227Y-773935D1*
X-3177154D1*
X-3158904Y-767898D1*
X-3146830Y-749648D1*
X-3140654Y-719325D1*
Y-701075D1*
X-3146830Y-670752D1*
X-3158904Y-652502D1*
X-3177154Y-646465D1*
X-3189227D1*
X-3146830Y-670752D2*
X-3219690Y-749648D1*
X-3064938Y-646465D2*
X-3083188Y-652502D1*
X-3095401Y-670752D1*
X-3101438Y-701075D1*
Y-719325D1*
X-3095401Y-749648D1*
X-3083188Y-767898D1*
X-3064938Y-773935D1*
X-3052865D1*
X-3034615Y-767898D1*
X-3022542Y-749648D1*
X-3016365Y-719325D1*
Y-701075D1*
X-3022542Y-670752D1*
X-3034615Y-652502D1*
X-3052865Y-646465D1*
X-3064938D1*
X-3022542Y-670752D2*
X-3095401Y-749648D1*
X-2792916Y-646325D2*
Y-743471D1*
X-2798953Y-761721D1*
X-2805130Y-767758D1*
X-2817203Y-773935D1*
X-2829416D1*
X-2841489Y-767758D1*
X-2847526Y-761721D1*
X-2853703Y-743471D1*
Y-731398D1*
X-2753700Y-688862D2*
Y-749648D1*
X-2747664Y-767758D1*
X-2735450Y-773935D1*
X-2717200D1*
X-2705127Y-767758D1*
X-2686877Y-749648D1*
Y-688862D2*
Y-773935D1*
X-2647662Y-646325D2*
Y-773935D1*
X-2602269Y-688862D2*
X-2565909Y-773935D1*
X-2577982Y-798221D1*
X-2590196Y-810435D1*
X-2602269Y-816471D1*
X-2608446D1*
X-2529409Y-688862D2*
X-2565909Y-773935D1*
X-2360570Y-676789D2*
Y-670752D1*
X-2354534Y-658539D1*
X-2348497Y-652502D1*
X-2336284Y-646465D1*
X-2311997D1*
X-2299924Y-652502D1*
X-2293888Y-658539D1*
X-2287711Y-670752D1*
Y-682825D1*
X-2293888Y-695039D1*
X-2305961Y-713148D1*
X-2366747Y-773935D1*
X-2281674D1*
X-2205958Y-646465D2*
X-2224208Y-652502D1*
X-2236422Y-670752D1*
X-2242458Y-701075D1*
Y-719325D1*
X-2236422Y-749648D1*
X-2224208Y-767898D1*
X-2205958Y-773935D1*
X-2193885D1*
X-2175635Y-767898D1*
X-2163562Y-749648D1*
X-2157385Y-719325D1*
Y-701075D1*
X-2163562Y-670752D1*
X-2175635Y-652502D1*
X-2193885Y-646465D1*
X-2205958D1*
X-2163562Y-670752D2*
X-2236422Y-749648D1*
X-2081670Y-646465D2*
X-2099920Y-652502D1*
X-2112133Y-670752D1*
X-2118170Y-701075D1*
Y-719325D1*
X-2112133Y-749648D1*
X-2099920Y-767898D1*
X-2081670Y-773935D1*
X-2069597D1*
X-2051347Y-767898D1*
X-2039274Y-749648D1*
X-2033097Y-719325D1*
Y-701075D1*
X-2039274Y-670752D1*
X-2051347Y-652502D1*
X-2069597Y-646465D1*
X-2081670D1*
X-2039274Y-670752D2*
X-2112133Y-749648D1*
X-1981668Y-646465D2*
X-1914985D1*
X-1951344Y-695039D1*
X-1933094D1*
X-1921021Y-701075D1*
X-1914985Y-707112D1*
X-1908808Y-725362D1*
Y-737435D1*
X-1914985Y-755685D1*
X-1927058Y-767898D1*
X-1945308Y-773935D1*
X-1963558D1*
X-1981668Y-767898D1*
X-1987704Y-761721D1*
X-1993881Y-749648D1*
X-4790256Y-979469D2*
D78*
X-4795085Y-969810D1*
X-4804856Y-960039D1*
X-4814514Y-955210D1*
X-4833944D1*
X-4843714Y-960039D1*
X-4853373Y-969810D1*
X-4858314Y-979469D1*
X-4863144Y-994069D1*
Y-1018439D1*
X-4858314Y-1032927D1*
X-4853373Y-1042698D1*
X-4843714Y-1052356D1*
X-4833944Y-1057298D1*
X-4814514D1*
X-4804856Y-1052356D1*
X-4795085Y-1042698D1*
X-4790256Y-1032927D1*
X-4734625Y-989239D2*
X-4744283Y-994069D1*
X-4754054Y-1003839D1*
X-4758883Y-1018439D1*
Y-1028098D1*
X-4754054Y-1042698D1*
X-4744283Y-1052356D1*
X-4734625Y-1057298D1*
X-4720025D1*
X-4710254Y-1052356D1*
X-4700596Y-1042698D1*
X-4695654Y-1028098D1*
Y-1018439D1*
X-4700596Y-1003839D1*
X-4710254Y-994069D1*
X-4720025Y-989239D1*
X-4734625D1*
X-4664282D2*
Y-1091327D1*
Y-1003839D2*
X-4654511Y-994181D1*
X-4644852Y-989239D1*
X-4630252D1*
X-4620482Y-994181D1*
X-4610823Y-1003839D1*
X-4605882Y-1018439D1*
Y-1028210D1*
X-4610823Y-1042698D1*
X-4620482Y-1052469D1*
X-4630252Y-1057298D1*
X-4644852D1*
X-4654511Y-1052469D1*
X-4664282Y-1042698D1*
X-4569567Y-989239D2*
X-4540480Y-1057298D1*
X-4550138Y-1076727D1*
X-4559909Y-1086498D1*
X-4569567Y-1091327D1*
X-4574509D1*
X-4511280Y-989239D2*
X-4540480Y-1057298D1*
X-4479907Y-989239D2*
Y-1057298D1*
Y-1018439D2*
X-4474966Y-1003839D1*
X-4465307Y-994069D1*
X-4455536Y-989239D1*
X-4440936D1*
X-4409564Y-955210D2*
X-4404735Y-960039D1*
X-4399793Y-955210D1*
X-4404735Y-950269D1*
X-4409564Y-955210D1*
X-4404735Y-989239D2*
Y-1057298D1*
X-4310133Y-994069D2*
Y-1071898D1*
X-4314962Y-1086385D1*
X-4319791Y-1091327D1*
X-4329562Y-1096156D1*
X-4344162D1*
X-4353821Y-1091327D1*
X-4310133Y-1008669D2*
X-4319791Y-999010D1*
X-4329562Y-994069D1*
X-4344162D1*
X-4353821Y-999010D1*
X-4363591Y-1008669D1*
X-4368421Y-1023269D1*
Y-1033039D1*
X-4363591Y-1047527D1*
X-4353821Y-1057298D1*
X-4344162Y-1062127D1*
X-4329562D1*
X-4319791Y-1057298D1*
X-4310133Y-1047527D1*
X-4278760Y-955210D2*
Y-1057298D1*
Y-1008669D2*
X-4264160Y-994069D1*
X-4254390Y-989239D1*
X-4239790D1*
X-4230131Y-994069D1*
X-4225302Y-1008669D1*
Y-1057298D1*
X-4179329Y-955210D2*
Y-1037869D1*
X-4174500Y-1052356D1*
X-4164729Y-1057298D1*
X-4155071D1*
X-4193929Y-989239D2*
X-4159900D1*
X-3990912Y-928593D2*
X-4000683Y-938252D1*
X-4010341Y-952852D1*
X-4020112Y-972281D1*
X-4024941Y-996652D1*
Y-1016081D1*
X-4020112Y-1040339D1*
X-4010341Y-1059769D1*
X-4000683Y-1074369D1*
X-3990912Y-1084027D1*
X-3901139Y-1003839D2*
X-3910910Y-994069D1*
X-3920681Y-989239D1*
X-3935169D1*
X-3944939Y-994069D1*
X-3954598Y-1003839D1*
X-3959539Y-1018439D1*
Y-1028098D1*
X-3954598Y-1042698D1*
X-3944939Y-1052356D1*
X-3935169Y-1057298D1*
X-3920681D1*
X-3910910Y-1052356D1*
X-3901139Y-1042698D1*
X-3869767Y-928593D2*
X-3859996Y-938252D1*
X-3850338Y-952852D1*
X-3840567Y-972281D1*
X-3835738Y-996652D1*
Y-1016081D1*
X-3840567Y-1040339D1*
X-3850338Y-1059769D1*
X-3859996Y-1074369D1*
X-3869767Y-1084027D1*
X-3627779Y-1057298D2*
X-3666749Y-955210D1*
X-3705608Y-1057298D1*
X-3691008Y-1023269D2*
X-3642379D1*
X-3596406Y-955210D2*
Y-1057298D1*
X-3560092Y-989239D2*
X-3531004Y-1057298D1*
X-3540663Y-1076727D1*
X-3550434Y-1086498D1*
X-3560092Y-1091327D1*
X-3565034D1*
X-3501804Y-989239D2*
X-3531004Y-1057298D1*
X-3416973Y-1003839D2*
X-3421803Y-994069D1*
X-3436403Y-989239D1*
X-3451003D1*
X-3465603Y-994069D1*
X-3470432Y-1003839D1*
X-3465603Y-1013498D1*
X-3455832Y-1018439D1*
X-3431573Y-1023269D1*
X-3421803Y-1028098D1*
X-3416973Y-1037869D1*
Y-1042698D1*
X-3421803Y-1052356D1*
X-3436403Y-1057298D1*
X-3451003D1*
X-3465603Y-1052356D1*
X-3470432Y-1042698D1*
X-3332142Y-1003839D2*
X-3336971Y-994069D1*
X-3351571Y-989239D1*
X-3366171D1*
X-3380771Y-994069D1*
X-3385601Y-1003839D1*
X-3380771Y-1013498D1*
X-3371001Y-1018439D1*
X-3346742Y-1023269D1*
X-3336971Y-1028098D1*
X-3332142Y-1037869D1*
Y-1042698D1*
X-3336971Y-1052356D1*
X-3351571Y-1057298D1*
X-3366171D1*
X-3380771Y-1052356D1*
X-3385601Y-1042698D1*
X-3300770Y-955210D2*
Y-1057298D1*
X-3245139Y-989239D2*
X-3254797Y-994069D1*
X-3264568Y-1003839D1*
X-3269397Y-1018439D1*
Y-1028098D1*
X-3264568Y-1042698D1*
X-3254797Y-1052356D1*
X-3245139Y-1057298D1*
X-3230539D1*
X-3220768Y-1052356D1*
X-3211109Y-1042698D1*
X-3206168Y-1028098D1*
Y-1018439D1*
X-3211109Y-1003839D1*
X-3220768Y-994069D1*
X-3230539Y-989239D1*
X-3245139D1*
X-3174795D2*
Y-1057298D1*
Y-1008669D2*
X-3160195Y-994069D1*
X-3150425Y-989239D1*
X-3135937D1*
X-3126166Y-994069D1*
X-3121337Y-1008669D1*
Y-1057298D1*
X-2991207Y-1003839D2*
X-2947520D1*
X-2932920Y-998898D1*
X-2927978Y-994069D1*
X-2923149Y-984410D1*
Y-974639D1*
X-2927978Y-964981D1*
X-2932920Y-960039D1*
X-2947520Y-955210D1*
X-2991207D1*
Y-1057298D1*
X-2957178Y-1003839D2*
X-2923149Y-1057298D1*
X-2867518Y-989239D2*
X-2877176Y-994069D1*
X-2886947Y-1003839D1*
X-2891776Y-1018439D1*
Y-1028098D1*
X-2886947Y-1042698D1*
X-2877176Y-1052356D1*
X-2867518Y-1057298D1*
X-2852918D1*
X-2843147Y-1052356D1*
X-2833489Y-1042698D1*
X-2828547Y-1028098D1*
Y-1018439D1*
X-2833489Y-1003839D1*
X-2843147Y-994069D1*
X-2852918Y-989239D1*
X-2867518D1*
X-2797174D2*
X-2777745Y-1057298D1*
X-2758316Y-989239D1*
X-2738887Y-1057298D1*
X-2719457Y-989239D1*
X-2629797D2*
Y-1057298D1*
Y-1003839D2*
X-2639456Y-994069D1*
X-2649226Y-989239D1*
X-2663714D1*
X-2673485Y-994069D1*
X-2683143Y-1003839D1*
X-2688085Y-1018439D1*
Y-1028098D1*
X-2683143Y-1042698D1*
X-2673485Y-1052356D1*
X-2663714Y-1057298D1*
X-2649226D1*
X-2639456Y-1052356D1*
X-2629797Y-1042698D1*
X-2598425Y-989239D2*
Y-1057298D1*
Y-1008669D2*
X-2583825Y-994069D1*
X-2574054Y-989239D1*
X-2559566D1*
X-2549795Y-994069D1*
X-2544966Y-1008669D1*
Y-1057298D1*
X-2503823Y-1052469D2*
X-2508764Y-1057298D1*
X-2513594Y-1052469D1*
X-2508764Y-1047527D1*
X-2503823Y-1052469D1*
Y-1062127D1*
X-2508764Y-1071898D1*
X-2513594Y-1076727D1*
X-2368752Y-979581D2*
Y-974752D1*
X-2363922Y-964981D1*
X-2359093Y-960152D1*
X-2349322Y-955322D1*
X-2329893D1*
X-2320235Y-960152D1*
X-2315406Y-964981D1*
X-2310464Y-974752D1*
Y-984410D1*
X-2315406Y-994181D1*
X-2325064Y-1008669D1*
X-2373693Y-1057298D1*
X-2305635D1*
X-2245062Y-955322D2*
X-2259662Y-960152D1*
X-2269433Y-974752D1*
X-2274262Y-999010D1*
Y-1013610D1*
X-2269433Y-1037869D1*
X-2259662Y-1052469D1*
X-2245062Y-1057298D1*
X-2235404D1*
X-2220804Y-1052469D1*
X-2211145Y-1037869D1*
X-2206204Y-1013610D1*
Y-999010D1*
X-2211145Y-974752D1*
X-2220804Y-960152D1*
X-2235404Y-955322D1*
X-2245062D1*
X-2211145Y-974752D2*
X-2269433Y-1037869D1*
X-2169890Y-979581D2*
Y-974752D1*
X-2165060Y-964981D1*
X-2160231Y-960152D1*
X-2150460Y-955322D1*
X-2131031D1*
X-2121373Y-960152D1*
X-2116543Y-964981D1*
X-2111602Y-974752D1*
Y-984410D1*
X-2116543Y-994181D1*
X-2126202Y-1008669D1*
X-2174831Y-1057298D1*
X-2106773D1*
X-2065629Y-955322D2*
X-2012283D1*
X-2041371Y-994181D1*
X-2026771D1*
X-2017112Y-999010D1*
X-2012283Y-1003839D1*
X-2007342Y-1018439D1*
Y-1028098D1*
X-2012283Y-1042698D1*
X-2021942Y-1052469D1*
X-2036542Y-1057298D1*
X-2051142D1*
X-2065629Y-1052469D1*
X-2070459Y-1047527D1*
X-2075400Y-1037869D1*
X-9178460Y-2801572D2*
Y-2738343D1*
X-9280548D1*
X-9227089D2*
Y-2777202D1*
X-9212489Y-2857203D2*
X-9217319Y-2847545D1*
X-9227089Y-2837774D1*
X-9241689Y-2832945D1*
X-9251348D1*
X-9265948Y-2837774D1*
X-9275606Y-2847545D1*
X-9280548Y-2857203D1*
Y-2871803D1*
X-9275606Y-2881574D1*
X-9265948Y-2891233D1*
X-9251348Y-2896174D1*
X-9241689D1*
X-9227089Y-2891233D1*
X-9217319Y-2881574D1*
X-9212489Y-2871803D1*
Y-2857203D1*
Y-2927547D2*
X-9280548D1*
X-9241689D2*
X-9227089Y-2932488D1*
X-9217319Y-2942147D1*
X-9212489Y-2951917D1*
Y-2966517D1*
Y-3096647D2*
X-9261119D1*
X-9275606Y-3101476D1*
X-9280548Y-3111247D1*
Y-3125847D1*
X-9275606Y-3135506D1*
X-9261119Y-3150106D1*
X-9212489D2*
X-9280548D1*
X-9227089Y-3234937D2*
X-9217319Y-3230107D1*
X-9212489Y-3215507D1*
Y-3200907D1*
X-9217319Y-3186307D1*
X-9227089Y-3181478D1*
X-9236748Y-3186307D1*
X-9241689Y-3196078D1*
X-9246519Y-3220337D1*
X-9251348Y-3230107D1*
X-9261119Y-3234937D1*
X-9265948D1*
X-9275606Y-3230107D1*
X-9280548Y-3215507D1*
Y-3200907D1*
X-9275606Y-3186307D1*
X-9265948Y-3181478D1*
X-9241689Y-3266309D2*
Y-3324597D1*
X-9231919D1*
X-9222148Y-3319768D1*
X-9217319Y-3314938D1*
X-9212489Y-3305168D1*
Y-3290568D1*
X-9217319Y-3280909D1*
X-9227089Y-3271138D1*
X-9241689Y-3266309D1*
X-9251348D1*
X-9265948Y-3271138D1*
X-9275606Y-3280909D1*
X-9280548Y-3290568D1*
Y-3305168D1*
X-9275606Y-3314938D1*
X-9265948Y-3324597D1*
X-9178460Y-3454727D2*
X-9280548Y-3479097D1*
X-9178460Y-3503356D1*
X-9280548Y-3527614D1*
X-9178460Y-3551985D1*
Y-3583358D2*
X-9280548D1*
X-9178460Y-3648759D2*
X-9280548D1*
X-9178460Y-3614730D2*
Y-3682789D1*
Y-3714161D2*
X-9280548D1*
X-9178460Y-3782220D2*
X-9280548D1*
X-9227089Y-3714161D2*
Y-3782220D1*
X-9178460Y-3842792D2*
X-9183289Y-3833021D1*
X-9193060Y-3823363D1*
X-9202719Y-3818421D1*
X-9217319Y-3813592D1*
X-9241689D1*
X-9256177Y-3818421D1*
X-9265948Y-3823363D1*
X-9275606Y-3833021D1*
X-9280548Y-3842792D1*
Y-3862221D1*
X-9275606Y-3871880D1*
X-9265948Y-3881651D1*
X-9256177Y-3886480D1*
X-9241689Y-3891309D1*
X-9217319D1*
X-9202719Y-3886480D1*
X-9193060Y-3881651D1*
X-9183289Y-3871880D1*
X-9178460Y-3862221D1*
Y-3842792D1*
Y-3922682D2*
X-9251348D1*
X-9265948Y-3927511D1*
X-9275606Y-3937282D1*
X-9280548Y-3951882D1*
Y-3961540D1*
X-9275606Y-3976140D1*
X-9265948Y-3985911D1*
X-9251348Y-3990740D1*
X-9178460D1*
Y-4056142D2*
X-9280548D1*
X-9178460Y-4022113D2*
Y-4090171D1*
Y-4220301D2*
X-9280548D1*
X-9227089D2*
X-9217319Y-4230072D1*
X-9212489Y-4239730D1*
Y-4254330D1*
X-9217319Y-4263989D1*
X-9227089Y-4273759D1*
X-9241689Y-4278589D1*
X-9251348D1*
X-9265948Y-4273759D1*
X-9275606Y-4263989D1*
X-9280548Y-4254330D1*
Y-4239730D1*
X-9275606Y-4230072D1*
X-9265948Y-4220301D1*
X-9212489Y-4368249D2*
X-9280548D1*
X-9227089D2*
X-9217319Y-4358590D1*
X-9212489Y-4348820D1*
Y-4334332D1*
X-9217319Y-4324561D1*
X-9227089Y-4314903D1*
X-9241689Y-4309961D1*
X-9251348D1*
X-9265948Y-4314903D1*
X-9275606Y-4324561D1*
X-9280548Y-4334332D1*
Y-4348820D1*
X-9275606Y-4358590D1*
X-9265948Y-4368249D1*
X-9178460Y-4414221D2*
X-9261119D1*
X-9275606Y-4419051D1*
X-9280548Y-4428821D1*
Y-4438480D1*
X-9212489Y-4399621D2*
Y-4433651D1*
X-9178460Y-4484452D2*
X-9261119D1*
X-9275606Y-4489282D1*
X-9280548Y-4499052D1*
Y-4508711D1*
X-9212489Y-4469852D2*
Y-4503882D1*
X-9241689Y-4540083D2*
Y-4598371D1*
X-9231919D1*
X-9222148Y-4593542D1*
X-9217319Y-4588713D1*
X-9212489Y-4578942D1*
Y-4564342D1*
X-9217319Y-4554683D1*
X-9227089Y-4544913D1*
X-9241689Y-4540083D1*
X-9251348D1*
X-9265948Y-4544913D1*
X-9275606Y-4554683D1*
X-9280548Y-4564342D1*
Y-4578942D1*
X-9275606Y-4588713D1*
X-9265948Y-4598371D1*
X-9212489Y-4629744D2*
X-9280548D1*
X-9241689D2*
X-9227089Y-4634685D1*
X-9217319Y-4644344D1*
X-9212489Y-4654114D1*
Y-4668714D1*
Y-4705028D2*
X-9280548Y-4734116D1*
X-9299977Y-4724458D1*
X-9309748Y-4714687D1*
X-9314577Y-4705028D1*
Y-4700087D1*
X-9212489Y-4763316D2*
X-9280548Y-4734116D1*
X-9363435Y-2738343D2*
X-9465522D1*
X-9412064D2*
X-9402293Y-2748114D1*
X-9397464Y-2757772D1*
Y-2772372D1*
X-9402293Y-2782031D1*
X-9412064Y-2791802D1*
X-9426664Y-2796631D1*
X-9436322D1*
X-9450922Y-2791802D1*
X-9460581Y-2782031D1*
X-9465522Y-2772372D1*
Y-2757772D1*
X-9460581Y-2748114D1*
X-9450922Y-2738343D1*
X-9397464Y-2886291D2*
X-9465522D1*
X-9412064D2*
X-9402293Y-2876633D1*
X-9397464Y-2866862D1*
Y-2852374D1*
X-9402293Y-2842603D1*
X-9412064Y-2832945D1*
X-9426664Y-2828003D1*
X-9436322D1*
X-9450922Y-2832945D1*
X-9460581Y-2842603D1*
X-9465522Y-2852374D1*
Y-2866862D1*
X-9460581Y-2876633D1*
X-9450922Y-2886291D1*
X-9412064Y-2976064D2*
X-9402293Y-2966293D1*
X-9397464Y-2956522D1*
Y-2942034D1*
X-9402293Y-2932264D1*
X-9412064Y-2922605D1*
X-9426664Y-2917664D1*
X-9436322D1*
X-9450922Y-2922605D1*
X-9460581Y-2932264D1*
X-9465522Y-2942034D1*
Y-2956522D1*
X-9460581Y-2966293D1*
X-9450922Y-2976064D1*
X-9363435Y-3007436D2*
X-9465522D1*
X-9397464Y-3056065D2*
X-9446093Y-3007436D1*
X-9426664Y-3026865D2*
X-9465522Y-3060895D1*
X-9397464Y-3092267D2*
X-9446093D1*
X-9460581Y-3097096D1*
X-9465522Y-3106867D1*
Y-3121467D1*
X-9460581Y-3131126D1*
X-9446093Y-3145726D1*
X-9397464D2*
X-9465522D1*
X-9397464Y-3177098D2*
X-9499552D1*
X-9412064D2*
X-9402405Y-3186869D1*
X-9397464Y-3196527D1*
Y-3211127D1*
X-9402405Y-3220898D1*
X-9412064Y-3230557D1*
X-9426664Y-3235498D1*
X-9436435D1*
X-9450922Y-3230557D1*
X-9460693Y-3220898D1*
X-9465522Y-3211127D1*
Y-3196527D1*
X-9460693Y-3186869D1*
X-9450922Y-3177098D1*
X-9397464Y-3389886D2*
X-9402293Y-3380228D1*
X-9412064Y-3370457D1*
X-9426664Y-3365628D1*
X-9436322D1*
X-9450922Y-3370457D1*
X-9460581Y-3380228D1*
X-9465522Y-3389886D1*
Y-3404486D1*
X-9460581Y-3414257D1*
X-9450922Y-3423916D1*
X-9436322Y-3428857D1*
X-9426664D1*
X-9412064Y-3423916D1*
X-9402293Y-3414257D1*
X-9397464Y-3404486D1*
Y-3389886D1*
Y-3460230D2*
X-9465522D1*
X-9416893D2*
X-9402293Y-3474830D1*
X-9397464Y-3484600D1*
Y-3499088D1*
X-9402293Y-3508859D1*
X-9416893Y-3513688D1*
X-9465522D1*
X-9363435Y-3643818D2*
X-9465522D1*
X-9412064D2*
X-9402293Y-3653589D1*
X-9397464Y-3663247D1*
Y-3677847D1*
X-9402293Y-3687506D1*
X-9412064Y-3697276D1*
X-9426664Y-3702106D1*
X-9436322D1*
X-9450922Y-3697276D1*
X-9460581Y-3687506D1*
X-9465522Y-3677847D1*
Y-3663247D1*
X-9460581Y-3653589D1*
X-9450922Y-3643818D1*
X-9397464Y-3757737D2*
X-9402293Y-3748078D1*
X-9412064Y-3738307D1*
X-9426664Y-3733478D1*
X-9436322D1*
X-9450922Y-3738307D1*
X-9460581Y-3748078D1*
X-9465522Y-3757737D1*
Y-3772337D1*
X-9460581Y-3782107D1*
X-9450922Y-3791766D1*
X-9436322Y-3796707D1*
X-9426664D1*
X-9412064Y-3791766D1*
X-9402293Y-3782107D1*
X-9397464Y-3772337D1*
Y-3757737D1*
Y-3886368D2*
X-9465522D1*
X-9412064D2*
X-9402293Y-3876709D1*
X-9397464Y-3866938D1*
Y-3852451D1*
X-9402293Y-3842680D1*
X-9412064Y-3833021D1*
X-9426664Y-3828080D1*
X-9436322D1*
X-9450922Y-3833021D1*
X-9460581Y-3842680D1*
X-9465522Y-3852451D1*
Y-3866938D1*
X-9460581Y-3876709D1*
X-9450922Y-3886368D1*
X-9397464Y-3917740D2*
X-9465522D1*
X-9426664D2*
X-9412064Y-3922682D1*
X-9402293Y-3932340D1*
X-9397464Y-3942111D1*
Y-3956711D1*
X-9363435Y-4046371D2*
X-9465522D1*
X-9412064D2*
X-9402293Y-4036713D1*
X-9397464Y-4026942D1*
Y-4012342D1*
X-9402293Y-4002683D1*
X-9412064Y-3992913D1*
X-9426664Y-3988083D1*
X-9436322D1*
X-9450922Y-3992913D1*
X-9460581Y-4002683D1*
X-9465522Y-4012342D1*
Y-4026942D1*
X-9460581Y-4036713D1*
X-9450922Y-4046371D1*
X-9397464Y-4082685D2*
X-9402405Y-4077744D1*
X-9407235Y-4082685D1*
X-9402405Y-4087514D1*
X-9397464Y-4082685D1*
X-9455752D2*
X-9460693Y-4077744D1*
X-9465522Y-4082685D1*
X-9460693Y-4087514D1*
X-9455752Y-4082685D1*
X-9378035Y-4285703D2*
X-9368264Y-4276044D1*
X-9363435Y-4261444D1*
Y-4242015D1*
X-9368264Y-4227415D1*
X-9378035Y-4217644D1*
X-9387693D1*
X-9397464Y-4222586D1*
X-9402293Y-4227415D1*
X-9407122Y-4237073D1*
X-9416893Y-4266273D1*
X-9421722Y-4276044D1*
X-9426664Y-4280873D1*
X-9436322Y-4285703D1*
X-9450922D1*
X-9460581Y-4276044D1*
X-9465522Y-4261444D1*
Y-4242015D1*
X-9460581Y-4227415D1*
X-9450922Y-4217644D1*
X-9363435Y-4317075D2*
X-9465522D1*
X-9416893D2*
X-9402293Y-4331675D1*
X-9397464Y-4341446D1*
Y-4356046D1*
X-9402293Y-4365704D1*
X-9416893Y-4370534D1*
X-9465522D1*
X-9397464Y-4426165D2*
X-9402293Y-4416506D1*
X-9412064Y-4406735D1*
X-9426664Y-4401906D1*
X-9436322D1*
X-9450922Y-4406735D1*
X-9460581Y-4416506D1*
X-9465522Y-4426165D1*
Y-4440765D1*
X-9460581Y-4450535D1*
X-9450922Y-4460194D1*
X-9436322Y-4465135D1*
X-9426664D1*
X-9412064Y-4460194D1*
X-9402293Y-4450535D1*
X-9397464Y-4440765D1*
Y-4426165D1*
Y-4496508D2*
X-9465522D1*
X-9426664D2*
X-9412064Y-4501450D1*
X-9402293Y-4511108D1*
X-9397464Y-4520879D1*
Y-4535479D1*
X-9363435Y-4581451D2*
X-9446093D1*
X-9460581Y-4586281D1*
X-9465522Y-4596051D1*
Y-4605710D1*
X-9397464Y-4566851D2*
Y-4600881D1*
X-9601868Y-2738343D2*
Y-2782143D1*
X-9597039Y-2796631D1*
X-9592097Y-2801572D1*
X-9582439Y-2806402D1*
X-9567839D1*
X-9558180Y-2801572D1*
X-9553239Y-2796631D1*
X-9548409Y-2782143D1*
Y-2738343D1*
X-9650497D1*
X-9548409Y-2837774D2*
X-9553239Y-2842603D1*
X-9548409Y-2847545D1*
X-9543468Y-2842603D1*
X-9548409Y-2837774D1*
X-9582439Y-2842603D2*
X-9650497D1*
X-9582439Y-2878917D2*
X-9650497D1*
X-9601868D2*
X-9587268Y-2893517D1*
X-9582439Y-2903288D1*
Y-2917776D1*
X-9587268Y-2927547D1*
X-9601868Y-2932376D1*
X-9650497D1*
X-9567951Y-3062506D2*
X-9563009Y-3072276D1*
X-9548522Y-3086876D1*
X-9650497D1*
X-9548409Y-3231606D2*
X-9631068D1*
X-9645555Y-3236435D1*
X-9650497Y-3246206D1*
Y-3255865D1*
X-9582439Y-3217006D2*
Y-3251035D1*
Y-3311496D2*
X-9587268Y-3301837D1*
X-9597039Y-3292066D1*
X-9611639Y-3287237D1*
X-9621297D1*
X-9635897Y-3292066D1*
X-9645555Y-3301837D1*
X-9650497Y-3311496D1*
Y-3326096D1*
X-9645555Y-3335866D1*
X-9635897Y-3345525D1*
X-9621297Y-3350466D1*
X-9611639D1*
X-9597039Y-3345525D1*
X-9587268Y-3335866D1*
X-9582439Y-3326096D1*
Y-3311496D1*
X-9601868Y-3480596D2*
Y-3524396D1*
X-9597039Y-3538884D1*
X-9592097Y-3543825D1*
X-9582439Y-3548655D1*
X-9567839D1*
X-9558180Y-3543825D1*
X-9553239Y-3538884D1*
X-9548409Y-3524396D1*
Y-3480596D1*
X-9650497D1*
X-9548409Y-3580027D2*
X-9553239Y-3584856D1*
X-9548409Y-3589798D1*
X-9543468Y-3584856D1*
X-9548409Y-3580027D1*
X-9582439Y-3584856D2*
X-9650497D1*
X-9582439Y-3621170D2*
X-9650497D1*
X-9601868D2*
X-9587268Y-3635770D1*
X-9582439Y-3645541D1*
Y-3660029D1*
X-9587268Y-3669800D1*
X-9601868Y-3674629D1*
X-9650497D1*
X-9548522Y-3814529D2*
Y-3867876D1*
X-9587380Y-3838788D1*
Y-3853388D1*
X-9592209Y-3863046D1*
X-9597039Y-3867876D1*
X-9611639Y-3872817D1*
X-9621297D1*
X-9635897Y-3867876D1*
X-9645668Y-3858217D1*
X-9650497Y-3843617D1*
Y-3829017D1*
X-9645668Y-3814529D1*
X-9640726Y-3809700D1*
X-9631068Y-3804759D1*
X-9582439Y-4061234D2*
X-9650497D1*
X-9597039D2*
X-9587268Y-4051576D1*
X-9582439Y-4041805D1*
Y-4027318D1*
X-9587268Y-4017547D1*
X-9597039Y-4007888D1*
X-9611639Y-4002947D1*
X-9621297D1*
X-9635897Y-4007888D1*
X-9645555Y-4017547D1*
X-9650497Y-4027318D1*
Y-4041805D1*
X-9645555Y-4051576D1*
X-9635897Y-4061234D1*
X-9582439Y-4092607D2*
X-9650497D1*
X-9601868D2*
X-9587268Y-4107207D1*
X-9582439Y-4116978D1*
Y-4131465D1*
X-9587268Y-4141236D1*
X-9601868Y-4146065D1*
X-9650497D1*
X-9548409Y-4235726D2*
X-9650497D1*
X-9597039D2*
X-9587268Y-4226067D1*
X-9582439Y-4216296D1*
Y-4201696D1*
X-9587268Y-4192038D1*
X-9597039Y-4182267D1*
X-9611639Y-4177438D1*
X-9621297D1*
X-9635897Y-4182267D1*
X-9645555Y-4192038D1*
X-9650497Y-4201696D1*
Y-4216296D1*
X-9645555Y-4226067D1*
X-9635897Y-4235726D1*
X-9601868Y-4365855D2*
Y-4409655D1*
X-9597039Y-4424143D1*
X-9592097Y-4429085D1*
X-9582439Y-4433914D1*
X-9567839D1*
X-9558180Y-4429085D1*
X-9553239Y-4424143D1*
X-9548409Y-4409655D1*
Y-4365855D1*
X-9650497D1*
X-9548409Y-4465286D2*
X-9553239Y-4470116D1*
X-9548409Y-4475057D1*
X-9543468Y-4470116D1*
X-9548409Y-4465286D1*
X-9582439Y-4470116D2*
X-9650497D1*
X-9582439Y-4506430D2*
X-9650497D1*
X-9601868D2*
X-9587268Y-4521030D1*
X-9582439Y-4530801D1*
Y-4545288D1*
X-9587268Y-4555059D1*
X-9601868Y-4559888D1*
X-9650497D1*
X-9572780Y-4694959D2*
X-9567951D1*
X-9558180Y-4699789D1*
X-9553351Y-4704618D1*
X-9548522Y-4714389D1*
Y-4733818D1*
X-9553351Y-4743476D1*
X-9558180Y-4748306D1*
X-9567951Y-4753247D1*
X-9577609D1*
X-9587380Y-4748306D1*
X-9601868Y-4738647D1*
X-9650497Y-4690018D1*
Y-4758076D1*
X-9733384Y-2752943D2*
X-9816042D1*
X-9830530Y-2757772D1*
X-9835472Y-2767543D1*
Y-2777202D1*
X-9767413Y-2738343D2*
Y-2772372D1*
Y-2832833D2*
X-9772242Y-2823174D1*
X-9782013Y-2813403D1*
X-9796613Y-2808574D1*
X-9806272D1*
X-9820872Y-2813403D1*
X-9830530Y-2823174D1*
X-9835472Y-2832833D1*
Y-2847433D1*
X-9830530Y-2857203D1*
X-9820872Y-2866862D1*
X-9806272Y-2871803D1*
X-9796613D1*
X-9782013Y-2866862D1*
X-9772242Y-2857203D1*
X-9767413Y-2847433D1*
Y-2832833D1*
X-9786842Y-3100690D2*
Y-3144490D1*
X-9782013Y-3158978D1*
X-9777072Y-3163919D1*
X-9767413Y-3168749D1*
X-9752813D1*
X-9743155Y-3163919D1*
X-9738213Y-3158978D1*
X-9733384Y-3144490D1*
Y-3100690D1*
X-9835472D1*
X-9733384Y-3200121D2*
X-9738213Y-3204950D1*
X-9733384Y-3209892D1*
X-9728442Y-3204950D1*
X-9733384Y-3200121D1*
X-9767413Y-3204950D2*
X-9835472D1*
X-9767413Y-3241265D2*
X-9835472D1*
X-9786842D2*
X-9772242Y-3255865D1*
X-9767413Y-3265635D1*
Y-3280123D1*
X-9772242Y-3289894D1*
X-9786842Y-3294723D1*
X-9835472D1*
Y-3473482D2*
X-9733496D1*
X-9801442Y-3424853D1*
Y-3497740D1*
X-9825701Y-3533942D2*
X-9830642Y-3529113D1*
X-9835472Y-3533942D1*
X-9830642Y-3538884D1*
X-9825701Y-3533942D1*
X-4870931Y-279367D2*
D79*
Y-273330D1*
X-4864894Y-261117D1*
X-4858858Y-255080D1*
X-4846644Y-249044D1*
X-4822358D1*
X-4810285Y-255080D1*
X-4804248Y-261117D1*
X-4798071Y-273330D1*
Y-285403D1*
X-4804248Y-297617D1*
X-4816321Y-315726D1*
X-4877108Y-376513D1*
X-4792035D1*
X-4712193D2*
X-4651406Y-249044D1*
X-4736479D1*
X-4522991Y-267153D2*
X-4529027Y-255080D1*
X-4547277Y-249044D1*
X-4559351D1*
X-4577601Y-255080D1*
X-4589814Y-273330D1*
X-4595851Y-303653D1*
Y-333976D1*
X-4589814Y-358263D1*
X-4577601Y-370476D1*
X-4559351Y-376513D1*
X-4553314D1*
X-4535204Y-370476D1*
X-4522991Y-358263D1*
X-4516954Y-340013D1*
Y-333976D1*
X-4522991Y-315726D1*
X-4535204Y-303653D1*
X-4553314Y-297617D1*
X-4559351D1*
X-4577601Y-303653D1*
X-4589814Y-315726D1*
X-4595851Y-333976D1*
X-4400612Y-376513D2*
Y-249044D1*
X-4461399Y-333976D1*
X-4370289D1*
X-4174947Y-376513D2*
X-4089874Y-249044D1*
X-3888355Y-279367D2*
Y-273330D1*
X-3882319Y-261117D1*
X-3876282Y-255080D1*
X-3864069Y-249044D1*
X-3839782D1*
X-3827709Y-255080D1*
X-3821673Y-261117D1*
X-3815496Y-273330D1*
Y-285403D1*
X-3821673Y-297617D1*
X-3833746Y-315726D1*
X-3894532Y-376513D1*
X-3809459D1*
X-3729617D2*
X-3668831Y-249044D1*
X-3753904D1*
X-3613275Y-273330D2*
X-3601062Y-267153D1*
X-3582812Y-249044D1*
Y-376513D1*
X-3521079Y-279367D2*
Y-273330D1*
X-3515043Y-261117D1*
X-3509006Y-255080D1*
X-3496793Y-249044D1*
X-3472506D1*
X-3460433Y-255080D1*
X-3454396Y-261117D1*
X-3448220Y-273330D1*
Y-285403D1*
X-3454396Y-297617D1*
X-3466470Y-315726D1*
X-3527256Y-376513D1*
X-3442183D1*
X-3356304Y-249044D2*
X-3374414Y-255080D1*
X-3380591Y-267153D1*
Y-279367D1*
X-3374414Y-291440D1*
X-3362341Y-297617D1*
X-3338054Y-303653D1*
X-3319804Y-309690D1*
X-3307731Y-321903D1*
X-3301695Y-333976D1*
Y-352226D1*
X-3307731Y-364300D1*
X-3313768Y-370476D1*
X-3332018Y-376513D1*
X-3356304D1*
X-3374414Y-370476D1*
X-3380591Y-364300D1*
X-3386627Y-352226D1*
Y-333976D1*
X-3380591Y-321903D1*
X-3368377Y-309690D1*
X-3350268Y-303653D1*
X-3325981Y-297617D1*
X-3313768Y-291440D1*
X-3307731Y-279367D1*
Y-267153D1*
X-3313768Y-255080D1*
X-3332018Y-249044D1*
X-3356304D1*
X-3106353Y-309690D2*
X-3051743D1*
X-3033493Y-303513D1*
X-3027316Y-297476D1*
X-3021280Y-285403D1*
Y-273190D1*
X-3027316Y-261117D1*
X-3033493Y-254940D1*
X-3051743Y-248903D1*
X-3106353D1*
Y-376513D1*
X-3063816Y-309690D2*
X-3021280Y-376513D1*
X-2929224Y-248903D2*
X-2941438Y-254940D1*
X-2953511Y-267153D1*
X-2959688Y-279226D1*
X-2965724Y-297476D1*
Y-327940D1*
X-2959688Y-346050D1*
X-2953511Y-358263D1*
X-2941438Y-370336D1*
X-2929224Y-376513D1*
X-2904938D1*
X-2892865Y-370336D1*
X-2880651Y-358263D1*
X-2874615Y-346050D1*
X-2868578Y-327940D1*
Y-297476D1*
X-2874615Y-279226D1*
X-2880651Y-267153D1*
X-2892865Y-254940D1*
X-2904938Y-248903D1*
X-2929224D1*
X-2715876Y-376513D2*
Y-248903D1*
X-2764449Y-376513D1*
X-2813023Y-248903D1*
Y-376513D1*
X-2520534Y-248903D2*
Y-376513D1*
X-2465784D1*
X-2447534Y-370336D1*
X-2441498Y-364300D1*
X-2435461Y-352226D1*
Y-333976D1*
X-2441498Y-321763D1*
X-2447534Y-315726D1*
X-2465784Y-309690D1*
X-2447534Y-303513D1*
X-2441498Y-297476D1*
X-2435461Y-285403D1*
Y-273190D1*
X-2441498Y-261117D1*
X-2447534Y-254940D1*
X-2465784Y-248903D1*
X-2520534D1*
Y-309690D2*
X-2465784D1*
X-2349583Y-291440D2*
X-2361656Y-297476D1*
X-2373869Y-309690D1*
X-2379906Y-327940D1*
Y-340013D1*
X-2373869Y-358263D1*
X-2361656Y-370336D1*
X-2349583Y-376513D1*
X-2331333D1*
X-2319119Y-370336D1*
X-2307046Y-358263D1*
X-2300869Y-340013D1*
Y-327940D1*
X-2307046Y-309690D1*
X-2319119Y-297476D1*
X-2331333Y-291440D1*
X-2349583D1*
X-2172454D2*
Y-376513D1*
Y-309690D2*
X-2184527Y-297476D1*
X-2196741Y-291440D1*
X-2214850D1*
X-2227064Y-297476D1*
X-2239137Y-309690D1*
X-2245314Y-327940D1*
Y-340013D1*
X-2239137Y-358263D1*
X-2227064Y-370336D1*
X-2214850Y-376513D1*
X-2196741D1*
X-2184527Y-370336D1*
X-2172454Y-358263D1*
X-2116899Y-291440D2*
Y-376513D1*
Y-327940D2*
X-2110722Y-309690D1*
X-2098649Y-297476D1*
X-2086435Y-291440D1*
X-2068185D1*
X-1939770Y-248903D2*
Y-376513D1*
Y-309690D2*
X-1951843Y-297476D1*
X-1964056Y-291440D1*
X-1982306D1*
X-1994380Y-297476D1*
X-2006593Y-309690D1*
X-2012630Y-327940D1*
Y-340013D1*
X-2006593Y-358263D1*
X-1994380Y-370336D1*
X-1982306Y-376513D1*
X-1964056D1*
X-1951843Y-370336D1*
X-1939770Y-358263D1*
X-8869575Y-2740304D2*
D77*
X-8997185D1*
Y-2795054D1*
X-8991008Y-2813304D1*
X-8984971Y-2819340D1*
X-8972898Y-2825377D1*
X-8954648D1*
X-8942435Y-2819340D1*
X-8936398Y-2813304D1*
X-8930362Y-2795054D1*
X-8924185Y-2813304D1*
X-8918148Y-2819340D1*
X-8906075Y-2825377D1*
X-8893862D1*
X-8881789Y-2819340D1*
X-8875612Y-2813304D1*
X-8869575Y-2795054D1*
Y-2740304D1*
X-8930362D2*
Y-2795054D1*
X-8997185Y-2961879D2*
X-8869575Y-2913166D1*
X-8997185Y-2864593D1*
X-8954648Y-2882843D2*
Y-2943629D1*
X-8869575Y-3043631D2*
X-8997185D1*
X-8869575Y-3001095D2*
Y-3086168D1*
Y-3167920D2*
X-8997185D1*
X-8869575Y-3125384D2*
Y-3210457D1*
Y-3328569D2*
Y-3249672D1*
X-8997185D1*
Y-3328569D1*
X-8930362Y-3249672D2*
Y-3298246D1*
Y-3367784D2*
Y-3422394D1*
X-8924185Y-3440644D1*
X-8918148Y-3446821D1*
X-8906075Y-3452857D1*
X-8893862D1*
X-8881789Y-3446821D1*
X-8875612Y-3440644D1*
X-8869575Y-3422394D1*
Y-3367784D1*
X-8997185D1*
X-8930362Y-3410321D2*
X-8997185Y-3452857D1*
X-8869575Y-3492073D2*
X-8930362Y-3540646D1*
X-8997185D1*
X-8869575Y-3589219D2*
X-8930362Y-3540646D1*
X-8869575Y-3751881D2*
X-8997185D1*
Y-3806631D1*
X-8991008Y-3824881D1*
X-8984971Y-3830918D1*
X-8972898Y-3836954D1*
X-8954648D1*
X-8942435Y-3830918D1*
X-8936398Y-3824881D1*
X-8930362Y-3806631D1*
X-8924185Y-3824881D1*
X-8918148Y-3830918D1*
X-8906075Y-3836954D1*
X-8893862D1*
X-8881789Y-3830918D1*
X-8875612Y-3824881D1*
X-8869575Y-3806631D1*
Y-3751881D1*
X-8930362D2*
Y-3806631D1*
X-8997185Y-3973457D2*
X-8869575Y-3924743D1*
X-8997185Y-3876170D1*
X-8954648Y-3894420D2*
Y-3955207D1*
X-8899898Y-4103782D2*
X-8887825Y-4097745D1*
X-8875612Y-4085532D1*
X-8869575Y-4073459D1*
Y-4049172D1*
X-8875612Y-4036959D1*
X-8887825Y-4024886D1*
X-8899898Y-4018709D1*
X-8918148Y-4012672D1*
X-8948612D1*
X-8966721Y-4018709D1*
X-8978935Y-4024886D1*
X-8991008Y-4036959D1*
X-8997185Y-4049172D1*
Y-4073459D1*
X-8991008Y-4085532D1*
X-8978935Y-4097745D1*
X-8966721Y-4103782D1*
X-8869575Y-4142998D2*
X-8997185D1*
X-8869575Y-4228071D2*
X-8954648Y-4142998D1*
X-8924185Y-4173321D2*
X-8997185Y-4228071D1*
X-8869575Y-4267286D2*
X-8960685D1*
X-8978935Y-4273323D1*
X-8991008Y-4285536D1*
X-8997185Y-4303786D1*
Y-4315859D1*
X-8991008Y-4334109D1*
X-8978935Y-4346323D1*
X-8960685Y-4352359D1*
X-8869575D1*
X-8936398Y-4391575D2*
Y-4446325D1*
X-8930362Y-4464435D1*
X-8924185Y-4470612D1*
X-8912112Y-4476648D1*
X-8893862D1*
X-8881789Y-4470612D1*
X-8875612Y-4464435D1*
X-8869575Y-4446325D1*
Y-4391575D1*
X-8997185D1*
X-8254086Y-1957270D2*
Y-2066630D1*
X-8308696Y-2012020D2*
X-8199336D1*
X-8087261Y-1948215D2*
X-8147907D1*
X-8153944Y-2002825D1*
X-8147907Y-1996789D1*
X-8129657Y-1990612D1*
X-8111548D1*
X-8093298Y-1996789D1*
X-8081084Y-2008862D1*
X-8075048Y-2027112D1*
Y-2039185D1*
X-8081084Y-2057435D1*
X-8093298Y-2069648D1*
X-8111548Y-2075685D1*
X-8129657D1*
X-8147907Y-2069648D1*
X-8153944Y-2063471D1*
X-8160121Y-2051398D1*
X-8035832Y-1948075D2*
X-7987259Y-2075685D1*
X-7938686Y-1948075D1*
X-8217586Y-2549898D2*
X-8223623Y-2537825D1*
X-8235836Y-2525612D1*
X-8247910Y-2519575D1*
X-8272196D1*
X-8284410Y-2525612D1*
X-8296483Y-2537825D1*
X-8302660Y-2549898D1*
X-8308696Y-2568148D1*
Y-2598612D1*
X-8302660Y-2616721D1*
X-8296483Y-2628935D1*
X-8284410Y-2641008D1*
X-8272196Y-2647185D1*
X-8247910D1*
X-8235836Y-2641008D1*
X-8223623Y-2628935D1*
X-8217586Y-2616721D1*
Y-2598612D1*
X-8247910D1*
X-8093298Y-2519575D2*
Y-2647185D1*
X-8178371Y-2519575D1*
Y-2647185D1*
X-8054082Y-2519575D2*
Y-2647185D1*
X-8011545D1*
X-7993295Y-2641008D1*
X-7981082Y-2628935D1*
X-7975045Y-2616721D1*
X-7969009Y-2598612D1*
Y-2568148D1*
X-7975045Y-2549898D1*
X-7981082Y-2537825D1*
X-7993295Y-2525612D1*
X-8011545Y-2519575D1*
X-8054082D1*
X-8254086Y-2211270D2*
Y-2320630D1*
X-8308696Y-2266020D2*
X-8199336D1*
X-8087261Y-2202215D2*
X-8147907D1*
X-8153944Y-2256825D1*
X-8147907Y-2250789D1*
X-8129657Y-2244612D1*
X-8111548D1*
X-8093298Y-2250789D1*
X-8081084Y-2262862D1*
X-8075048Y-2281112D1*
Y-2293185D1*
X-8081084Y-2311435D1*
X-8093298Y-2323648D1*
X-8111548Y-2329685D1*
X-8129657D1*
X-8147907Y-2323648D1*
X-8153944Y-2317471D1*
X-8160121Y-2305398D1*
X-8035832Y-2202075D2*
X-7987259Y-2329685D1*
X-7938686Y-2202075D1*
X-7776024D2*
X-7769987Y-2208112D1*
X-7763810Y-2202075D1*
X-7769987Y-2195898D1*
X-7776024Y-2202075D1*
X-7769987Y-2244612D2*
Y-2329685D1*
X-7724595Y-2244612D2*
Y-2329685D1*
Y-2268898D2*
X-7706345Y-2250648D1*
X-7694131Y-2244612D1*
X-7676021D1*
X-7663808Y-2250648D1*
X-7657771Y-2268898D1*
Y-2329685D1*
X-6710575Y1421660D2*
X-6807721D1*
X-6825971Y1427696D1*
X-6832008Y1433873D1*
X-6838185Y1445946D1*
Y1458160D1*
X-6832008Y1470233D1*
X-6825971Y1476269D1*
X-6807721Y1482446D1*
X-6795648D1*
X-6838185Y1285298D2*
X-6710575D1*
X-6838185Y1333871D1*
X-6710575Y1382444D1*
X-6838185D1*
X-6777398Y1246082D2*
Y1191332D1*
X-6771362Y1173222D1*
X-6765185Y1167045D1*
X-6753112Y1161009D1*
X-6734862D1*
X-6722789Y1167045D1*
X-6716612Y1173222D1*
X-6710575Y1191332D1*
Y1246082D1*
X-6838185D1*
X-6728825Y925487D2*
X-6716752Y931524D1*
X-6710715Y949774D1*
Y961847D1*
X-6716752Y980097D1*
X-6735002Y992310D1*
X-6765325Y998347D1*
X-6795648D1*
X-6819935Y992310D1*
X-6832148Y980097D1*
X-6838185Y961847D1*
Y955810D1*
X-6832148Y937701D1*
X-6819935Y925487D1*
X-6801685Y919451D1*
X-6795648D1*
X-6777398Y925487D1*
X-6765325Y937701D1*
X-6759289Y955810D1*
Y961847D1*
X-6765325Y980097D1*
X-6777398Y992310D1*
X-6795648Y998347D1*
X-6199337Y1510111D2*
D79*
X-6193160Y1497898D1*
X-6175050Y1479648D1*
X-6302520D1*
X-6427624Y964184D2*
X-6421587D1*
X-6409374Y958148D1*
X-6403337Y952111D1*
X-6397300Y939898D1*
Y915611D1*
X-6403337Y903538D1*
X-6409374Y897501D1*
X-6421587Y891325D1*
X-6433660D1*
X-6445874Y897501D1*
X-6463983Y909575D1*
X-6524770Y970361D1*
Y885288D1*
X-6710575Y659660D2*
D77*
X-6807721D1*
X-6825971Y665696D1*
X-6832008Y671873D1*
X-6838185Y683946D1*
Y696160D1*
X-6832008Y708233D1*
X-6825971Y714269D1*
X-6807721Y720446D1*
X-6795648D1*
X-6838185Y523298D2*
X-6710575D1*
X-6838185Y571871D1*
X-6710575Y620444D1*
X-6838185D1*
X-6777398Y484082D2*
Y429332D1*
X-6771362Y411222D1*
X-6765185Y405045D1*
X-6753112Y399009D1*
X-6734862D1*
X-6722789Y405045D1*
X-6716612Y411222D1*
X-6710575Y429332D1*
Y484082D1*
X-6838185D1*
Y212060D2*
X-6710715Y151274D1*
Y236347D1*
X-6199337Y748111D2*
D79*
X-6193160Y735898D1*
X-6175050Y717648D1*
X-6302520D1*
X-6427624Y202184D2*
X-6421587D1*
X-6409374Y196148D1*
X-6403337Y190111D1*
X-6397300Y177898D1*
Y153611D1*
X-6403337Y141538D1*
X-6409374Y135501D1*
X-6421587Y129325D1*
X-6433660D1*
X-6445874Y135501D1*
X-6463983Y147575D1*
X-6524770Y208361D1*
Y123288D1*
X-6710575Y-102340D2*
D77*
X-6807721D1*
X-6825971Y-96304D1*
X-6832008Y-90127D1*
X-6838185Y-78054D1*
Y-65840D1*
X-6832008Y-53767D1*
X-6825971Y-47731D1*
X-6807721Y-41554D1*
X-6795648D1*
X-6838185Y-238702D2*
X-6710575D1*
X-6838185Y-190129D1*
X-6710575Y-141556D1*
X-6838185D1*
X-6777398Y-277918D2*
Y-332668D1*
X-6771362Y-350778D1*
X-6765185Y-356955D1*
X-6753112Y-362991D1*
X-6734862D1*
X-6722789Y-356955D1*
X-6716612Y-350778D1*
X-6710575Y-332668D1*
Y-277918D1*
X-6838185D1*
X-6710715Y-555976D2*
X-6716752Y-537867D1*
X-6728825Y-531690D1*
X-6741039D1*
X-6753112Y-537867D1*
X-6759289Y-549940D1*
X-6765325Y-574226D1*
X-6771362Y-592476D1*
X-6783575Y-604549D1*
X-6795648Y-610586D1*
X-6813898D1*
X-6825971Y-604549D1*
X-6832148Y-598513D1*
X-6838185Y-580263D1*
Y-555976D1*
X-6832148Y-537867D1*
X-6825971Y-531690D1*
X-6813898Y-525653D1*
X-6795648D1*
X-6783575Y-531690D1*
X-6771362Y-543903D1*
X-6765325Y-562013D1*
X-6759289Y-586299D1*
X-6753112Y-598513D1*
X-6741039Y-604549D1*
X-6728825D1*
X-6716752Y-598513D1*
X-6710715Y-580263D1*
Y-555976D1*
X-6199337Y-13889D2*
D79*
X-6193160Y-26102D1*
X-6175050Y-44352D1*
X-6302520D1*
X-6427624Y-559816D2*
X-6421587D1*
X-6409374Y-565852D1*
X-6403337Y-571889D1*
X-6397300Y-584102D1*
Y-608389D1*
X-6403337Y-620462D1*
X-6409374Y-626499D1*
X-6421587Y-632675D1*
X-6433660D1*
X-6445874Y-626499D1*
X-6463983Y-614425D1*
X-6524770Y-553639D1*
Y-638712D1*
X-6710575Y-864340D2*
D77*
X-6807721D1*
X-6825971Y-858304D1*
X-6832008Y-852127D1*
X-6838185Y-840054D1*
Y-827840D1*
X-6832008Y-815767D1*
X-6825971Y-809731D1*
X-6807721Y-803554D1*
X-6795648D1*
X-6838185Y-1000702D2*
X-6710575D1*
X-6838185Y-952129D1*
X-6710575Y-903556D1*
X-6838185D1*
X-6777398Y-1039918D2*
Y-1094668D1*
X-6771362Y-1112778D1*
X-6765185Y-1118955D1*
X-6753112Y-1124991D1*
X-6734862D1*
X-6722789Y-1118955D1*
X-6716612Y-1112778D1*
X-6710575Y-1094668D1*
Y-1039918D1*
X-6838185D1*
X-6753112Y-1366690D2*
X-6771362Y-1360513D1*
X-6783575Y-1348440D1*
X-6789612Y-1330190D1*
Y-1324153D1*
X-6783575Y-1305903D1*
X-6771362Y-1293830D1*
X-6753112Y-1287653D1*
X-6747075D1*
X-6728825Y-1293830D1*
X-6716752Y-1305903D1*
X-6710715Y-1324153D1*
Y-1330190D1*
X-6716752Y-1348440D1*
X-6728825Y-1360513D1*
X-6753112Y-1366690D1*
X-6783575D1*
X-6813898Y-1360513D1*
X-6832148Y-1348440D1*
X-6838185Y-1330190D1*
Y-1318117D1*
X-6832148Y-1299867D1*
X-6819935Y-1293830D1*
X-6199337Y-775889D2*
D79*
X-6193160Y-788102D1*
X-6175050Y-806352D1*
X-6302520D1*
X-6427624Y-1321816D2*
X-6421587D1*
X-6409374Y-1327852D1*
X-6403337Y-1333889D1*
X-6397300Y-1346102D1*
Y-1370389D1*
X-6403337Y-1382462D1*
X-6409374Y-1388499D1*
X-6421587Y-1394675D1*
X-6433660D1*
X-6445874Y-1388499D1*
X-6463983Y-1376425D1*
X-6524770Y-1315639D1*
Y-1400712D1*
X-7343633Y-2719785D2*
D77*
X-7355706Y-2725821D1*
X-7367919Y-2738035D1*
X-7373956Y-2750108D1*
Y-2774394D1*
X-7367919Y-2786608D1*
X-7355706Y-2798681D1*
X-7343633Y-2804858D1*
X-7325383Y-2810894D1*
X-7294919D1*
X-7276810Y-2804858D1*
X-7264596Y-2798681D1*
X-7252523Y-2786608D1*
X-7246346Y-2774394D1*
Y-2750108D1*
X-7252523Y-2738035D1*
X-7264596Y-2725821D1*
X-7276810Y-2719785D1*
X-7349529Y-2680569D2*
X-7355706Y-2668356D1*
X-7373815Y-2650106D1*
X-7246346D1*
X-2644632Y1189909D2*
X-2656705Y1183872D1*
X-2668918Y1171658D1*
X-2674954Y1159585D1*
X-2674953Y1135298D1*
X-2668916Y1123085D1*
X-2656703Y1111013D1*
X-2644629Y1104836D1*
X-2626379Y1098800D1*
X-2595916Y1098801D1*
X-2577806Y1104838D1*
X-2565593Y1111016D1*
X-2553520Y1123089D1*
X-2547344Y1135303D1*
X-2547345Y1159589D1*
X-2553522Y1171662D1*
X-2565595Y1183875D1*
X-2577809Y1189911D1*
X-2644493Y1235302D2*
X-2650530Y1235301D1*
X-2662743Y1241338D1*
X-2668780Y1247374D1*
X-2674817Y1259587D1*
X-2674818Y1283874D1*
X-2668782Y1295947D1*
X-2662745Y1301984D1*
X-2650532Y1308161D1*
X-2638459D1*
X-2626245Y1301985D1*
X-2608135Y1289912D1*
X-2547347Y1229128D1*
X-2547350Y1314201D1*
X-6118367Y-3094910D2*
X-6106294Y-3088874D1*
X-6094081Y-3076660D1*
X-6088044Y-3064587D1*
Y-3040301D1*
X-6094081Y-3028087D1*
X-6106294Y-3016014D1*
X-6118367Y-3009837D1*
X-6136617Y-3003801D1*
X-6167081D1*
X-6185190Y-3009837D1*
X-6197404Y-3016014D1*
X-6209477Y-3028087D1*
X-6215654Y-3040301D1*
Y-3064587D1*
X-6209477Y-3076660D1*
X-6197404Y-3088874D1*
X-6185190Y-3094910D1*
X-6088185Y-3146340D2*
Y-3213022D1*
X-6136758Y-3176663D1*
Y-3194913D1*
X-6142794Y-3206986D1*
X-6148831Y-3213022D1*
X-6167081Y-3219199D1*
X-6179154D1*
X-6197404Y-3213022D1*
X-6209617Y-3200949D1*
X-6215654Y-3182699D1*
Y-3164449D1*
X-6209617Y-3146340D1*
X-6203440Y-3140303D1*
X-6191367Y-3134126D1*
X-1410876Y706456D2*
Y578846D1*
X-1368340D1*
X-1350090Y585023D1*
X-1337876Y597096D1*
X-1331840Y609310D1*
X-1325803Y627419D1*
Y657883D1*
X-1331840Y676133D1*
X-1337876Y688206D1*
X-1350090Y700419D1*
X-1368340Y706456D1*
X-1410876D1*
X-1286587Y682029D2*
X-1274374Y688206D1*
X-1256124Y706315D1*
Y578846D1*
X-362794Y-2281554D2*
X-459940D1*
X-478190Y-2275517D1*
X-484227Y-2269340D1*
X-490404Y-2257267D1*
Y-2245054D1*
X-484227Y-2232981D1*
X-478190Y-2226944D1*
X-459940Y-2220767D1*
X-447867D1*
X-387221Y-2320769D2*
X-381044Y-2332983D1*
X-362935Y-2351233D1*
X-490404D1*
X-362794Y2698751D2*
X-459940D1*
X-478190Y2704788D1*
X-484227Y2710965D1*
X-490404Y2723038D1*
Y2735251D1*
X-484227Y2747324D1*
X-478190Y2753361D1*
X-459940Y2759538D1*
X-447867D1*
X-393258Y2653359D2*
X-387221D1*
X-375008Y2647322D1*
X-368971Y2641285D1*
X-362935Y2629072D1*
Y2604785D1*
X-368971Y2592712D1*
X-375008Y2586676D1*
X-387221Y2580499D1*
X-399294D1*
X-411508Y2586676D1*
X-429617Y2598749D1*
X-490404Y2659535D1*
Y2574462D1*
X-9237251Y-1665013D2*
Y-1762160D1*
X-9243288Y-1780410D1*
X-9249465Y-1786446D1*
X-9261538Y-1792623D1*
X-9273751D1*
X-9285824Y-1786446D1*
X-9291861Y-1780410D1*
X-9298038Y-1762160D1*
Y-1750086D1*
X-9185822Y-1665154D2*
X-9119139D1*
X-9155499Y-1713727D1*
X-9137249D1*
X-9125176Y-1719763D1*
X-9119139Y-1725800D1*
X-9112962Y-1744050D1*
Y-1756123D1*
X-9119139Y-1774373D1*
X-9131212Y-1786586D1*
X-9149462Y-1792623D1*
X-9167712D1*
X-9185822Y-1786586D1*
X-9191859Y-1780410D1*
X-9198035Y-1768336D1*
X-5719513Y1365488D2*
X-5816660D1*
X-5834910Y1371524D1*
X-5840946Y1377701D1*
X-5847123Y1389774D1*
Y1401988D1*
X-5840946Y1414061D1*
X-5834910Y1420098D1*
X-5816660Y1426274D1*
X-5804586D1*
X-5847123Y1229126D2*
X-5719513D1*
X-5847123Y1277699D1*
X-5719513Y1326272D1*
X-5847123D1*
X-5786336Y1189910D2*
Y1135160D1*
X-5780300Y1117051D1*
X-5774123Y1110874D1*
X-5762050Y1104837D1*
X-5743800D1*
X-5731727Y1110874D1*
X-5725550Y1117051D1*
X-5719513Y1135160D1*
Y1189910D1*
X-5847123D1*
X-5737763Y992762D2*
X-5725690Y998799D1*
X-5719654Y1017049D1*
Y1029122D1*
X-5725690Y1047372D1*
X-5743940Y1059585D1*
X-5774263Y1065622D1*
X-5804586D1*
X-5828873Y1059585D1*
X-5841086Y1047372D1*
X-5847123Y1029122D1*
Y1023085D1*
X-5841086Y1004976D1*
X-5828873Y992762D1*
X-5810623Y986726D1*
X-5804586D1*
X-5786336Y992762D1*
X-5774263Y1004976D1*
X-5768227Y1023085D1*
Y1029122D1*
X-5774263Y1047372D1*
X-5786336Y1059585D1*
X-5804586Y1065622D1*
X-5719513Y606576D2*
X-5816660D1*
X-5834910Y612613D1*
X-5840946Y618790D1*
X-5847123Y630863D1*
Y643076D1*
X-5840946Y655149D1*
X-5834910Y661186D1*
X-5816660Y667363D1*
X-5804586D1*
X-5847123Y470215D2*
X-5719513D1*
X-5847123Y518788D1*
X-5719513Y567361D1*
X-5847123D1*
X-5786336Y430999D2*
Y376249D1*
X-5780300Y358139D1*
X-5774123Y351962D1*
X-5762050Y345926D1*
X-5743800D1*
X-5731727Y351962D1*
X-5725550Y358139D1*
X-5719513Y376249D1*
Y430999D1*
X-5847123D1*
Y282424D2*
X-5719654Y221637D1*
Y306710D1*
X-5719513Y-155494D2*
X-5816660D1*
X-5834910Y-149457D1*
X-5840946Y-143280D1*
X-5847123Y-131207D1*
Y-118994D1*
X-5840946Y-106921D1*
X-5834910Y-100884D1*
X-5816660Y-94707D1*
X-5804586D1*
X-5847123Y-291856D2*
X-5719513D1*
X-5847123Y-243283D1*
X-5719513Y-194709D1*
X-5847123D1*
X-5786336Y-331071D2*
Y-385821D1*
X-5780300Y-403931D1*
X-5774123Y-410108D1*
X-5762050Y-416144D1*
X-5743800D1*
X-5731727Y-410108D1*
X-5725550Y-403931D1*
X-5719513Y-385821D1*
Y-331071D1*
X-5847123D1*
X-5719654Y-485683D2*
X-5725690Y-467574D1*
X-5737763Y-461397D1*
X-5749977D1*
X-5762050Y-467574D1*
X-5768227Y-479647D1*
X-5774263Y-503933D1*
X-5780300Y-522183D1*
X-5792513Y-534256D1*
X-5804586Y-540293D1*
X-5822836D1*
X-5834910Y-534256D1*
X-5841086Y-528220D1*
X-5847123Y-509970D1*
Y-485683D1*
X-5841086Y-467574D1*
X-5834910Y-461397D1*
X-5822836Y-455360D1*
X-5804586D1*
X-5792513Y-461397D1*
X-5780300Y-473610D1*
X-5774263Y-491720D1*
X-5768227Y-516006D1*
X-5762050Y-528220D1*
X-5749977Y-534256D1*
X-5737763D1*
X-5725690Y-528220D1*
X-5719654Y-509970D1*
Y-485683D1*
X-5719513Y-920442D2*
X-5816660D1*
X-5834910Y-914405D1*
X-5840946Y-908228D1*
X-5847123Y-896155D1*
Y-883942D1*
X-5840946Y-871869D1*
X-5834910Y-865832D1*
X-5816660Y-859655D1*
X-5804586D1*
X-5847123Y-1056804D2*
X-5719513D1*
X-5847123Y-1008231D1*
X-5719513Y-959658D1*
X-5847123D1*
X-5786336Y-1096019D2*
Y-1150769D1*
X-5780300Y-1168879D1*
X-5774123Y-1175056D1*
X-5762050Y-1181092D1*
X-5743800D1*
X-5731727Y-1175056D1*
X-5725550Y-1168879D1*
X-5719513Y-1150769D1*
Y-1096019D1*
X-5847123D1*
X-5762050Y-1299345D2*
X-5780300Y-1293168D1*
X-5792513Y-1281095D1*
X-5798550Y-1262845D1*
Y-1256808D1*
X-5792513Y-1238558D1*
X-5780300Y-1226485D1*
X-5762050Y-1220308D1*
X-5756013D1*
X-5737763Y-1226485D1*
X-5725690Y-1238558D1*
X-5719654Y-1256808D1*
Y-1262845D1*
X-5725690Y-1281095D1*
X-5737763Y-1293168D1*
X-5762050Y-1299345D1*
X-5792513D1*
X-5822836Y-1293168D1*
X-5841086Y-1281095D1*
X-5847123Y-1262845D1*
Y-1250772D1*
X-5841086Y-1232522D1*
X-5828873Y-1226485D1*
X-6170168Y-4014376D2*
X-6170169Y-3959767D1*
X-6176346Y-3941517D1*
X-6182383Y-3935340D1*
X-6194456Y-3929304D1*
X-6206669D1*
X-6218742Y-3935341D1*
X-6224919Y-3941518D1*
X-6230955Y-3959768D1*
X-6230954Y-4014377D1*
X-6103345Y-4014375D1*
X-6170169Y-3971840D2*
X-6103346Y-3929302D1*
X-6206530Y-3890088D2*
X-6212707Y-3877875D1*
X-6230817Y-3859625D1*
X-6103348Y-3859623D1*
X-5916167Y-3343181D2*
X-5916168Y-3288572D1*
X-5922346Y-3270322D1*
X-5928382Y-3264145D1*
X-5940455Y-3258108D1*
X-5952669Y-3258109D1*
X-5964742Y-3264145D1*
X-5970919Y-3270323D1*
X-5976955Y-3288573D1*
X-5976954Y-3343182D1*
X-5849344Y-3343180D1*
X-5916168Y-3300645D2*
X-5849346Y-3258107D1*
X-5946493Y-3212716D2*
X-5952529D1*
X-5964743Y-3206680D1*
X-5970780Y-3200643D1*
X-5976816Y-3188430D1*
X-5976817Y-3164143D1*
X-5970780Y-3152070D1*
X-5964744Y-3146034D1*
X-5952531Y-3139856D1*
X-5940458D1*
X-5928244Y-3146033D1*
X-5910134Y-3158106D1*
X-5849347Y-3218891D1*
X-5849348Y-3133818D1*
X-4014376Y1322956D2*
Y1231846D1*
X-4008340Y1213596D1*
X-3996126Y1201523D1*
X-3977876Y1195346D1*
X-3965803D1*
X-3947553Y1201523D1*
X-3935340Y1213596D1*
X-3929303Y1231846D1*
Y1322956D1*
X-3890087Y1298529D2*
X-3877874Y1304706D1*
X-3859624Y1322815D1*
Y1195346D1*
X-3978181Y-3548044D2*
Y-3639154D1*
X-3972144Y-3657404D1*
X-3959931Y-3669477D1*
X-3941681Y-3675654D1*
X-3929608D1*
X-3911358Y-3669477D1*
X-3899144Y-3657404D1*
X-3893108Y-3639154D1*
Y-3548044D1*
X-3841679Y-3548185D2*
X-3774996D1*
X-3811356Y-3596758D1*
X-3793106D1*
X-3781033Y-3602794D1*
X-3774996Y-3608831D1*
X-3768819Y-3627081D1*
Y-3639154D1*
X-3774996Y-3657404D1*
X-3787069Y-3669617D1*
X-3805319Y-3675654D1*
X-3823569D1*
X-3841679Y-3669617D1*
X-3847715Y-3663440D1*
X-3853892Y-3651367D1*
M02*
