G04 DipTrace 4.3.0.5*
G04 1 - Top.gbr*
%MOMM*%
G04 #@! TF.FileFunction,Copper,L1,Top*
G04 #@! TF.Part,Single*
G04 #@! TA.AperFunction,Conductor*
%ADD16C,0.66*%
%ADD17C,0.3302*%
%ADD18C,0.6604*%
G04 #@! TA.AperFunction,ComponentPad*
%ADD22C,1.65*%
%ADD23R,1.1X1.1*%
%ADD24C,1.1*%
%ADD25R,1.59X1.59*%
%ADD26C,1.59*%
%ADD27R,1.71X1.71*%
%ADD28C,1.71*%
%ADD29R,1.62X1.62*%
%ADD30C,1.62*%
%ADD31O,1.905X2.159*%
%ADD32C,1.5*%
%ADD33R,1.14X1.14*%
%ADD34C,1.14*%
%ADD35R,1.25X1.25*%
%ADD36C,1.25*%
G04 #@! TA.AperFunction,ViaPad*
%ADD37C,1.016*%
%FSLAX35Y35*%
G04*
G71*
G90*
G75*
G01*
G04 Top*
%LPD*%
X-5334000Y1333500D2*
D16*
X-4635500D1*
X-4318003Y1016003D1*
Y862000D1*
X-6726300Y1584193D2*
Y1392300D1*
X-5905500Y571500D1*
Y317500D1*
X-6032500D1*
X-6286500Y63500D1*
Y-2222500D1*
X-6737350Y-2673350D1*
X-5854700Y-3556000D1*
X-8763000Y-2159000D2*
X-8509000D1*
X-7251700D1*
X-5854700Y-3556000D1*
Y-2794000D2*
D17*
X-5842000D1*
X-5715000Y-2921000D1*
X-4953000D1*
X-4826000Y-2794000D1*
X-4191000D1*
X-5854700Y-2540000D2*
X-5842000D1*
X-5715000Y-2667000D1*
X-3937000D1*
X-5854700Y-1778000D2*
X-5842000D1*
X-5715000Y-1905000D1*
X-5016500D1*
X-4762500Y-2159000D1*
X-3873500D1*
X-825500D2*
X-698500Y-2286000D1*
X-381000D1*
X-285750Y-2381250D1*
Y-2413000D1*
X-5854700Y-2286000D2*
X-5842000D1*
X-5715000Y-2413000D1*
X-3873500D1*
X-5854700Y-3048000D2*
X-5842000D1*
X-5715000Y-3175000D1*
X-4254500D1*
X-3048000Y-1968500D1*
X-5067300Y-3556000D2*
X-4381500D1*
X-2857500Y-2032000D1*
X-412750D1*
X-285750Y-1905000D1*
X-5067300Y-762000D2*
X-4953000D1*
X-4445000Y-254000D1*
X-1143000D1*
X-889000Y0D1*
X-412750D1*
X-285750Y127000D1*
X-793750Y-127000D2*
X-539750Y-381000D1*
X-1016000D2*
X-889000Y-508000D1*
X-412750D1*
X-285750Y-381000D1*
X-5397500Y317500D2*
D18*
X-4506477D1*
Y473520D1*
X-4317997Y662000D1*
X-5067300Y-254000D2*
X-4889500D1*
X-4506477Y129023D1*
Y317500D1*
X-5461123Y2603500D2*
Y2349623D1*
X-5461000Y2349500D1*
Y2032000D1*
X-4317997Y662000D2*
X-4735497Y1079500D1*
X-5588000D1*
X-5715000Y1206500D1*
Y1778000D1*
X-5461000Y2032000D1*
X-5397500Y317500D2*
X-5588000D1*
X-6096000Y-190500D1*
Y-2222500D1*
X-6794500Y-2984500D2*
X-7048500D1*
X-7620000Y-2413000D1*
X-8763000D1*
X-8509000D1*
X-539750Y635000D2*
D16*
X-1254000D1*
X-285750D2*
X-539750D1*
X-2302000D2*
D17*
X-2603500D1*
X-8509000Y-1905000D2*
D16*
X-8763000D1*
X-5854700Y-3302000D2*
D17*
Y-3352800D1*
X-5778500Y-3429000D1*
X-5207000D1*
X-2794000Y2794000D2*
X-3746500Y3746500D1*
X-6094630D1*
X-6472327Y4124197D1*
X-285750Y1143000D2*
X-268000D1*
X-395000Y1270000D1*
X-635000D1*
X-1968500Y2603500D1*
X-4254500D1*
X-4635500Y2984500D1*
X-6094630D1*
X-6472327Y3362197D1*
X-539750Y1143000D2*
X-762000D1*
X-1778000Y2159000D1*
X-4064000D1*
X-4635500Y2730500D1*
X-5842000D1*
X-5972303Y2600197D1*
X-6472327D1*
X-4953000Y3175000D2*
X-5270500D1*
D37*
X-5334000Y1333500D3*
X-4191000Y-2794000D3*
X-3937000Y-2667000D3*
X-3873500Y-2159000D3*
X-825500D3*
X-3873500Y-2413000D3*
X-3048000Y-1968500D3*
X-793750Y-127000D3*
X-1016000Y-381000D3*
X-6096000Y-2222500D3*
X-6794500Y-2984500D3*
X-5207000Y-3429000D3*
X-2794000Y2794000D3*
X-4953000Y3175000D3*
X-5270500D3*
D22*
X-5461000Y2032000D3*
X-4953000D3*
D23*
X-4317997Y662000D3*
D24*
X-4318003Y862000D3*
D22*
X-5397500Y317500D3*
X-5905500D3*
D25*
X-2302000Y635000D3*
D26*
X-1254000D3*
D27*
X-539750Y127000D3*
D28*
X-285750D3*
X-539750Y-127000D3*
X-285750D3*
X-539750Y-381000D3*
X-285750D3*
X-539750Y-635000D3*
X-285750D3*
X-539750Y-889000D3*
X-285750D3*
X-539750Y-1143000D3*
X-285750D3*
X-539750Y-1397000D3*
X-285750D3*
X-539750Y-1651000D3*
X-285750D3*
X-539750Y-1905000D3*
X-285750D3*
X-539750Y-2159000D3*
X-285750D3*
X-539750Y-2413000D3*
X-285750D3*
X-539750Y-2667000D3*
X-285750D3*
X-539750Y-2921000D3*
X-285750D3*
X-539750Y-3175000D3*
X-285750D3*
X-539750Y-3429000D3*
X-285750D3*
X-539750Y-3683000D3*
X-285750D3*
X-539750Y-3937000D3*
X-285750D3*
X-539750Y-4191000D3*
X-285750D3*
X-539750Y-4445000D3*
X-285750D3*
X-539750Y-4699000D3*
X-285750D3*
D27*
X-539750Y4699000D3*
D28*
X-285750D3*
X-539750Y4445000D3*
X-285750D3*
X-539750Y4191000D3*
X-285750D3*
X-539750Y3937000D3*
X-285750D3*
X-539750Y3683000D3*
X-285750D3*
X-539750Y3429000D3*
X-285750D3*
X-539750Y3175000D3*
X-285750D3*
X-539750Y2921000D3*
X-285750D3*
X-539750Y2667000D3*
X-285750D3*
X-539750Y2413000D3*
X-285750D3*
X-539750Y2159000D3*
X-285750D3*
X-539750Y1905000D3*
X-285750D3*
X-539750Y1651000D3*
X-285750D3*
X-539750Y1397000D3*
X-285750D3*
X-539750Y1143000D3*
X-285750D3*
X-539750Y889000D3*
X-285750D3*
X-539750Y635000D3*
X-285750D3*
D29*
X-8763000Y-1905000D3*
D30*
X-8509000D3*
X-8763000Y-2159000D3*
X-8509000D3*
X-8763000Y-2413000D3*
X-8509000D3*
D31*
X-6672173Y257303D3*
X-6672170Y765300D3*
X-6672173Y511303D3*
X-6472327Y4124197D3*
X-6726300Y3870200D3*
X-6472327Y3870197D3*
Y3362197D3*
X-6726300Y3108200D3*
X-6472327Y3108197D3*
Y2600197D3*
X-6726300Y2346200D3*
X-6472327Y2346197D3*
X-6472333Y1838196D3*
X-6726300Y1584193D3*
X-6472327Y1584196D3*
D32*
X-2603500Y635000D3*
Y-4000500D3*
D33*
X-5461123Y4127500D3*
D34*
Y3873500D3*
Y3619500D3*
Y3365500D3*
Y3111500D3*
Y2857500D3*
Y2603500D3*
X-4667123D3*
Y2857500D3*
Y3111500D3*
Y3365500D3*
Y3619500D3*
Y3873500D3*
Y4127500D3*
D35*
X-5067300Y-3556000D3*
D36*
Y-3302000D3*
Y-3048000D3*
Y-2794000D3*
Y-2540000D3*
Y-2286000D3*
Y-2032000D3*
Y-1778000D3*
Y-1524000D3*
Y-1270000D3*
Y-1016000D3*
Y-762000D3*
Y-508000D3*
Y-254000D3*
X-5854700D3*
Y-508000D3*
Y-762000D3*
Y-1016000D3*
Y-1270000D3*
Y-1524000D3*
Y-1778000D3*
Y-2032000D3*
Y-2286000D3*
Y-2540000D3*
Y-2794000D3*
Y-3048000D3*
Y-3302000D3*
Y-3556000D3*
M02*
