M48
METRIC,0000.00
T01C0.486
T02C0.7
T03C0.74
T04C0.83
T05C0.9
T06C1.0
T07C1.06
T08C1.08
T09C1.14
%
T01
X-005334Y+001333
X-005271Y+003175
X-004953Y+003175
X-002794Y+002794
X-000794Y-000127
X-001016Y-000381
X-000825Y-002159
X-003048Y-001969
X-003874Y-002159
X-003874Y-002413
X-003937Y-002667
X-004191Y-002794
X-005207Y-003429
X-006096Y-002223
X-006795Y-002985
T02
X-004318Y+000662
X-004318Y+000862
T03
X-005461Y+004127
X-005461Y+003874
X-005461Y+003619
X-005461Y+003365
X-005461Y+003112
X-005461Y+002857
X-005461Y+002603
X-004667Y+002603
X-004667Y+002857
X-004667Y+003112
X-004667Y+003365
X-004667Y+003619
X-004667Y+003874
X-004667Y+004127
T04
X-005067Y-003556
X-005067Y-003302
X-005067Y-003048
X-005067Y-002794
X-005067Y-002540
X-005067Y-002286
X-005067Y-002032
X-005067Y-001778
X-005067Y-001524
X-005067Y-001270
X-005067Y-001016
X-005067Y-000762
X-005067Y-000508
X-005067Y-000254
X-005855Y-000254
X-005855Y-000508
X-005855Y-000762
X-005855Y-001016
X-005855Y-001270
X-005855Y-001524
X-005855Y-001778
X-005855Y-002032
X-005855Y-002286
X-005855Y-002540
X-005855Y-002794
X-005855Y-003048
X-005855Y-003302
X-005855Y-003556
T05
X-002603Y+000635
X-002603Y-004000
T06
X-005461Y+002032
X-004953Y+002032
X-006472Y+001838
X-006472Y+001584
X-006726Y+001584
X-006726Y+002346
X-006472Y+002346
X-006472Y+002600
X-006472Y+003108
X-006726Y+003108
X-006472Y+003362
X-006472Y+003870
X-006726Y+003870
X-006472Y+004124
X-006672Y+000765
X-006672Y+000511
X-006672Y+000257
X-005905Y+000317
X-005398Y+000317
T07
X-002302Y+000635
X-001254Y+000635
T08
X-008763Y-001905
X-008509Y-001905
X-008509Y-002159
X-008509Y-002413
X-008763Y-002413
X-008763Y-002159
T09
X-000540Y+000127
X-000286Y+000127
X-000286Y-000127
X-000540Y-000127
X-000540Y-000381
X-000286Y-000381
X-000286Y-000635
X-000540Y-000635
X-000540Y-000889
X-000286Y-000889
X-000286Y-001143
X-000286Y-001397
X-000540Y-001397
X-000540Y-001143
X-000540Y-001651
X-000286Y-001651
X-000286Y-001905
X-000540Y-001905
X-000540Y-002159
X-000540Y-002413
X-000286Y-002413
X-000286Y-002667
X-000540Y-002667
X-000540Y-002921
X-000540Y-003175
X-000286Y-003175
X-000286Y-003429
X-000540Y-003429
X-000540Y-003683
X-000540Y-003937
X-000286Y-003937
X-000286Y-003683
X-000286Y-004191
X-000540Y-004191
X-000540Y-004445
X-000286Y-004445
X-000286Y-004699
X-000540Y-004699
X-000286Y-002921
X-000286Y-002159
X-000286Y+000635
X-000540Y+000635
X-000540Y+000889
X-000540Y+001143
X-000540Y+001397
X-000286Y+001397
X-000286Y+001143
X-000286Y+000889
X-000286Y+001651
X-000286Y+001905
X-000286Y+002159
X-000540Y+002159
X-000540Y+001905
X-000540Y+001651
X-000540Y+002413
X-000540Y+002667
X-000286Y+002667
X-000286Y+002921
X-000540Y+002921
X-000540Y+003175
X-000540Y+003429
X-000286Y+003429
X-000286Y+003683
X-000540Y+003683
X-000540Y+003937
X-000286Y+003937
X-000286Y+004191
X-000540Y+004191
X-000540Y+004445
X-000286Y+004445
X-000286Y+004699
X-000540Y+004699
X-000286Y+003175
X-000286Y+002413
T00
M30
