G04 DipTrace 4.3.0.5*
G04 TopAssembly.gbr*
%MOMM*%
G04 #@! TF.FileFunction,Drawing,Top*
G04 #@! TF.Part,Single*
%ADD13C,0.12*%
%FSLAX35Y35*%
G04*
G71*
G90*
G75*
G01*
G04 TopAssy*
%LPD*%
X-4593000Y762000D2*
D13*
G02X-4593000Y762000I275000J0D01*
G01*
G36*
X-4564770Y465212D2*
X-4571297Y465639D1*
X-4577711Y466915D1*
X-4583904Y469017D1*
X-4589770Y471910D1*
X-4595209Y475543D1*
X-4600126Y479855D1*
X-4604439Y484772D1*
X-4608072Y490210D1*
X-4610965Y496076D1*
X-4613068Y502269D1*
X-4614344Y508684D1*
X-4614772Y515210D1*
X-4614344Y521737D1*
X-4613069Y528151D1*
X-4610966Y534344D1*
X-4608074Y540210D1*
X-4604441Y545649D1*
X-4600128Y550566D1*
X-4595211Y554879D1*
X-4589773Y558512D1*
X-4583908Y561405D1*
X-4577714Y563508D1*
X-4571300Y564784D1*
X-4564773Y565212D1*
D1*
X-4558247Y564784D1*
X-4551832Y563509D1*
X-4545639Y561406D1*
X-4539773Y558514D1*
X-4534335Y554881D1*
X-4529418Y550568D1*
X-4525105Y545651D1*
X-4521471Y540213D1*
X-4518578Y534348D1*
X-4516476Y528154D1*
X-4515200Y521740D1*
X-4514772Y515213D1*
X-4515199Y508687D1*
X-4516475Y502272D1*
X-4518577Y496079D1*
X-4521470Y490213D1*
X-4525103Y484775D1*
X-4529415Y479858D1*
X-4534332Y475545D1*
X-4539770Y471911D1*
X-4545636Y469018D1*
X-4551829Y466916D1*
X-4558244Y465640D1*
X-4564770Y465212D1*
D1*
G37*
X-2038000Y500000D2*
D13*
Y680000D1*
X-1948000Y770000D1*
X-1518000D1*
Y500000D1*
X-2038000D1*
X-2222500Y635000D2*
X-2038000D1*
X-1518000D2*
X-1333500D1*
X-666750Y154000D2*
X-566750Y254000D1*
X-158750D1*
Y-4826000D1*
X-666750D1*
Y154000D1*
Y4726000D2*
X-566750Y4826000D1*
X-158750D1*
Y508000D1*
X-666750D1*
Y4726000D1*
X-9174500Y-1854633D2*
X-9111867Y-1792000D1*
X-8986500D1*
Y-2526000D1*
X-9174500D1*
Y-1854633D1*
X-5394123Y4250500D2*
X-5294123Y4350500D1*
X-4734123D1*
Y2380500D1*
X-5394123D1*
Y4250500D1*
X-5086000Y-3564000D2*
X-5186000Y-3664000D1*
X-5836000D1*
Y-146000D1*
X-5086000D1*
Y-3564000D1*
M02*
