G04 DipTrace 4.3.0.5*
G04 TopPaste.gbr*
%MOMM*%
G04 #@! TF.FileFunction,Paste,Top*
G04 #@! TF.Part,Single*
%ADD32C,1.5*%
%ADD50C,1.45*%
%ADD51C,1.05*%
%ADD53R,1.05X1.05*%
%ADD55C,0.94*%
%ADD57R,0.94X0.94*%
%ADD61O,1.705X1.959*%
%ADD63C,1.42*%
%ADD65R,1.42X1.42*%
%ADD67C,1.51*%
%ADD69R,1.51X1.51*%
%ADD71C,1.39*%
%ADD73R,1.39X1.39*%
%ADD74C,0.9*%
%ADD76R,0.9X0.9*%
%FSLAX35Y35*%
G04*
G71*
G90*
G75*
G01*
G04 TopPaste*
%LPD*%
D50*
X-5461000Y2032000D3*
X-4953000D3*
D76*
X-4317997Y662000D3*
D74*
X-4318003Y862000D3*
D50*
X-5397500Y317500D3*
X-5905500D3*
D73*
X-2302000Y635000D3*
D71*
X-1254000D3*
D69*
X-539750Y127000D3*
D67*
X-285750D3*
X-539750Y-127000D3*
X-285750D3*
X-539750Y-381000D3*
X-285750D3*
X-539750Y-635000D3*
X-285750D3*
X-539750Y-889000D3*
X-285750D3*
X-539750Y-1143000D3*
X-285750D3*
X-539750Y-1397000D3*
X-285750D3*
X-539750Y-1651000D3*
X-285750D3*
X-539750Y-1905000D3*
X-285750D3*
X-539750Y-2159000D3*
X-285750D3*
X-539750Y-2413000D3*
X-285750D3*
X-539750Y-2667000D3*
X-285750D3*
X-539750Y-2921000D3*
X-285750D3*
X-539750Y-3175000D3*
X-285750D3*
X-539750Y-3429000D3*
X-285750D3*
X-539750Y-3683000D3*
X-285750D3*
X-539750Y-3937000D3*
X-285750D3*
X-539750Y-4191000D3*
X-285750D3*
X-539750Y-4445000D3*
X-285750D3*
X-539750Y-4699000D3*
X-285750D3*
D69*
X-539750Y4699000D3*
D67*
X-285750D3*
X-539750Y4445000D3*
X-285750D3*
X-539750Y4191000D3*
X-285750D3*
X-539750Y3937000D3*
X-285750D3*
X-539750Y3683000D3*
X-285750D3*
X-539750Y3429000D3*
X-285750D3*
X-539750Y3175000D3*
X-285750D3*
X-539750Y2921000D3*
X-285750D3*
X-539750Y2667000D3*
X-285750D3*
X-539750Y2413000D3*
X-285750D3*
X-539750Y2159000D3*
X-285750D3*
X-539750Y1905000D3*
X-285750D3*
X-539750Y1651000D3*
X-285750D3*
X-539750Y1397000D3*
X-285750D3*
X-539750Y1143000D3*
X-285750D3*
X-539750Y889000D3*
X-285750D3*
X-539750Y635000D3*
X-285750D3*
D65*
X-8763000Y-1905000D3*
D63*
X-8509000D3*
X-8763000Y-2159000D3*
X-8509000D3*
X-8763000Y-2413000D3*
X-8509000D3*
D61*
X-6672173Y257303D3*
X-6672170Y765300D3*
X-6672173Y511303D3*
X-6472327Y4124197D3*
X-6726300Y3870200D3*
X-6472327Y3870197D3*
Y3362197D3*
X-6726300Y3108200D3*
X-6472327Y3108197D3*
Y2600197D3*
X-6726300Y2346200D3*
X-6472327Y2346197D3*
X-6472333Y1838196D3*
X-6726300Y1584193D3*
X-6472327Y1584196D3*
D32*
X-2603500Y635000D3*
Y-4000500D3*
D57*
X-5461123Y4127500D3*
D55*
Y3873500D3*
Y3619500D3*
Y3365500D3*
Y3111500D3*
Y2857500D3*
Y2603500D3*
X-4667123D3*
Y2857500D3*
Y3111500D3*
Y3365500D3*
Y3619500D3*
Y3873500D3*
Y4127500D3*
D53*
X-5067300Y-3556000D3*
D51*
Y-3302000D3*
Y-3048000D3*
Y-2794000D3*
Y-2540000D3*
Y-2286000D3*
Y-2032000D3*
Y-1778000D3*
Y-1524000D3*
Y-1270000D3*
Y-1016000D3*
Y-762000D3*
Y-508000D3*
Y-254000D3*
X-5854700D3*
Y-508000D3*
Y-762000D3*
Y-1016000D3*
Y-1270000D3*
Y-1524000D3*
Y-1778000D3*
Y-2032000D3*
Y-2286000D3*
Y-2540000D3*
Y-2794000D3*
Y-3048000D3*
Y-3302000D3*
Y-3556000D3*
M02*
