G04 DipTrace 4.3.0.5*
G04 TopSilk.gbr*
%MOMM*%
G04 #@! TF.FileFunction,Legend,Top*
G04 #@! TF.Part,Single*
%ADD10C,0.25*%
%ADD13C,0.12*%
%ADD19C,0.15*%
%ADD20C,0.33*%
%ADD21C,0.1*%
%ADD78C,0.19608*%
%ADD79C,0.27778*%
%ADD80C,0.15686*%
%ADD81C,0.23529*%
%FSLAX35Y35*%
G04*
G71*
G90*
G75*
G01*
G04 TopSilk*
%LPD*%
X-5406880Y1907000D2*
D10*
Y1925000D1*
Y2139000D2*
Y2157000D1*
X-5007120Y2139000D2*
Y2157000D1*
Y1907000D2*
Y1925000D1*
X-5406880Y2157000D2*
X-5007120D1*
X-5406880Y1907000D2*
X-5007120D1*
X-4593000Y762000D2*
D13*
G02X-4593000Y762000I275000J0D01*
G01*
G36*
X-4542852Y512133D2*
X-4546115Y512346D1*
X-4549322Y512984D1*
X-4552419Y514035D1*
X-4555352Y515482D1*
X-4558071Y517298D1*
X-4560530Y519454D1*
X-4562686Y521913D1*
X-4564503Y524632D1*
X-4565949Y527565D1*
X-4567000Y530661D1*
X-4567639Y533869D1*
X-4567853Y537132D1*
X-4567639Y540395D1*
X-4567001Y543602D1*
X-4565950Y546699D1*
X-4564504Y549632D1*
X-4562687Y552351D1*
X-4560531Y554810D1*
X-4558072Y556966D1*
X-4555353Y558783D1*
X-4552420Y560229D1*
X-4549324Y561280D1*
X-4546117Y561919D1*
X-4542853Y562133D1*
D1*
X-4539590Y561919D1*
X-4536383Y561281D1*
X-4533286Y560230D1*
X-4530353Y558784D1*
X-4527634Y556967D1*
X-4525175Y554811D1*
X-4523019Y552352D1*
X-4521202Y549633D1*
X-4519756Y546700D1*
X-4518705Y543604D1*
X-4518067Y540397D1*
X-4517853Y537133D1*
X-4518066Y533870D1*
X-4518704Y530663D1*
X-4519755Y527566D1*
X-4521202Y524633D1*
X-4523018Y521914D1*
X-4525174Y519455D1*
X-4527633Y517299D1*
X-4530352Y515482D1*
X-4533285Y514036D1*
X-4536381Y512985D1*
X-4539589Y512347D1*
X-4542852Y512133D1*
D1*
G37*
X-5451620Y442500D2*
D10*
Y424500D1*
Y210500D2*
Y192500D1*
X-5851380Y210500D2*
Y192500D1*
Y442500D2*
Y424500D1*
X-5451620Y192500D2*
X-5851380D1*
X-5451620Y442500D2*
X-5851380D1*
X-1951000Y770000D2*
D13*
X-2038000D1*
Y500000D1*
X-1951000D1*
X-1605000Y770000D2*
X-1518000D1*
Y500000D1*
X-1605000D1*
X-2205000Y635000D2*
X-2038000D1*
X-1518000D2*
X-1351000D1*
G36*
X-2327000Y752000D2*
X-2326786Y755263D1*
X-2326148Y758470D1*
X-2325097Y761567D1*
X-2323651Y764500D1*
X-2321834Y767219D1*
X-2319678Y769678D1*
X-2317219Y771834D1*
X-2314500Y773651D1*
X-2311567Y775097D1*
X-2308470Y776148D1*
X-2305263Y776786D1*
X-2302000Y777000D1*
X-2298737Y776786D1*
X-2295530Y776148D1*
X-2292433Y775097D1*
X-2289500Y773651D1*
X-2286781Y771834D1*
X-2284322Y769678D1*
X-2282166Y767219D1*
X-2280349Y764500D1*
X-2278903Y761567D1*
X-2277852Y758470D1*
X-2277214Y755263D1*
X-2277000Y752000D1*
D1*
X-2277214Y748737D1*
X-2277852Y745530D1*
X-2278903Y742433D1*
X-2280349Y739500D1*
X-2282166Y736781D1*
X-2284322Y734322D1*
X-2286781Y732166D1*
X-2289500Y730349D1*
X-2292433Y728903D1*
X-2295530Y727852D1*
X-2298737Y727214D1*
X-2302000Y727000D1*
X-2305263Y727214D1*
X-2308470Y727852D1*
X-2311567Y728903D1*
X-2314500Y730349D1*
X-2317219Y732166D1*
X-2319678Y734322D1*
X-2321834Y736781D1*
X-2323651Y739500D1*
X-2325097Y742433D1*
X-2326148Y745530D1*
X-2326786Y748737D1*
X-2327000Y752000D1*
D1*
G37*
X-158750Y254000D2*
D13*
X-666750D1*
Y-4826000D1*
X-158750D1*
Y254000D1*
G36*
X-709750Y152000D2*
X-706487Y151786D1*
X-703280Y151148D1*
X-700183Y150097D1*
X-697250Y148651D1*
X-694531Y146834D1*
X-692072Y144678D1*
X-689916Y142219D1*
X-688099Y139500D1*
X-686653Y136567D1*
X-685602Y133470D1*
X-684964Y130263D1*
X-684750Y127000D1*
X-684964Y123737D1*
X-685602Y120530D1*
X-686653Y117433D1*
X-688099Y114500D1*
X-689916Y111781D1*
X-692072Y109322D1*
X-694531Y107166D1*
X-697250Y105349D1*
X-700183Y103903D1*
X-703280Y102852D1*
X-706487Y102214D1*
X-709750Y102000D1*
D1*
X-713013Y102214D1*
X-716220Y102852D1*
X-719317Y103903D1*
X-722250Y105349D1*
X-724969Y107166D1*
X-727428Y109322D1*
X-729584Y111781D1*
X-731401Y114500D1*
X-732847Y117433D1*
X-733898Y120530D1*
X-734536Y123737D1*
X-734750Y127000D1*
X-734536Y130263D1*
X-733898Y133470D1*
X-732847Y136567D1*
X-731401Y139500D1*
X-729584Y142219D1*
X-727428Y144678D1*
X-724969Y146834D1*
X-722250Y148651D1*
X-719317Y150097D1*
X-716220Y151148D1*
X-713013Y151786D1*
X-709750Y152000D1*
D1*
G37*
X-158750Y4826000D2*
D13*
X-666750D1*
Y508000D1*
X-158750D1*
Y4826000D1*
G36*
X-709750Y4724000D2*
X-706487Y4723786D1*
X-703280Y4723148D1*
X-700183Y4722097D1*
X-697250Y4720651D1*
X-694531Y4718834D1*
X-692072Y4716678D1*
X-689916Y4714219D1*
X-688099Y4711500D1*
X-686653Y4708567D1*
X-685602Y4705470D1*
X-684964Y4702263D1*
X-684750Y4699000D1*
X-684964Y4695737D1*
X-685602Y4692530D1*
X-686653Y4689433D1*
X-688099Y4686500D1*
X-689916Y4683781D1*
X-692072Y4681322D1*
X-694531Y4679166D1*
X-697250Y4677349D1*
X-700183Y4675903D1*
X-703280Y4674852D1*
X-706487Y4674214D1*
X-709750Y4674000D1*
D1*
X-713013Y4674214D1*
X-716220Y4674852D1*
X-719317Y4675903D1*
X-722250Y4677349D1*
X-724969Y4679166D1*
X-727428Y4681322D1*
X-729584Y4683781D1*
X-731401Y4686500D1*
X-732847Y4689433D1*
X-733898Y4692530D1*
X-734536Y4695737D1*
X-734750Y4699000D1*
X-734536Y4702263D1*
X-733898Y4705470D1*
X-732847Y4708567D1*
X-731401Y4711500D1*
X-729584Y4714219D1*
X-727428Y4716678D1*
X-724969Y4718834D1*
X-722250Y4720651D1*
X-719317Y4722097D1*
X-716220Y4723148D1*
X-713013Y4723786D1*
X-709750Y4724000D1*
D1*
G37*
X-8986500Y-1792000D2*
D13*
X-9174400D1*
Y-2526000D1*
X-8986500D1*
X-9174400Y-1905000D2*
X-9982100D1*
X-9174400Y-2159000D2*
X-9982100D1*
X-9174400Y-2413000D2*
X-9982100D1*
G36*
X-8763000Y-1724000D2*
X-8759737Y-1724214D1*
X-8756530Y-1724852D1*
X-8753433Y-1725903D1*
X-8750500Y-1727349D1*
X-8747781Y-1729166D1*
X-8745322Y-1731322D1*
X-8743166Y-1733781D1*
X-8741349Y-1736500D1*
X-8739903Y-1739433D1*
X-8738852Y-1742530D1*
X-8738214Y-1745737D1*
X-8738000Y-1749000D1*
X-8738214Y-1752263D1*
X-8738852Y-1755470D1*
X-8739903Y-1758567D1*
X-8741349Y-1761500D1*
X-8743166Y-1764219D1*
X-8745322Y-1766678D1*
X-8747781Y-1768834D1*
X-8750500Y-1770651D1*
X-8753433Y-1772097D1*
X-8756530Y-1773148D1*
X-8759737Y-1773786D1*
X-8763000Y-1774000D1*
D1*
X-8766263Y-1773786D1*
X-8769470Y-1773148D1*
X-8772567Y-1772097D1*
X-8775500Y-1770651D1*
X-8778219Y-1768834D1*
X-8780678Y-1766678D1*
X-8782834Y-1764219D1*
X-8784651Y-1761500D1*
X-8786097Y-1758567D1*
X-8787148Y-1755470D1*
X-8787786Y-1752263D1*
X-8788000Y-1749000D1*
X-8787786Y-1745737D1*
X-8787148Y-1742530D1*
X-8786097Y-1739433D1*
X-8784651Y-1736500D1*
X-8782834Y-1733781D1*
X-8780678Y-1731322D1*
X-8778219Y-1729166D1*
X-8775500Y-1727349D1*
X-8772567Y-1725903D1*
X-8769470Y-1724852D1*
X-8766263Y-1724214D1*
X-8763000Y-1724000D1*
D1*
G37*
X-6858000Y0D2*
D10*
X-6477000D1*
X-6858000Y1016000D2*
X-6477000D1*
X-6286500Y4381500D2*
X-6858000D1*
X-6286500Y3619500D2*
X-6858000D1*
X-6286500D2*
X-6858000D1*
X-6286500Y2857500D2*
X-6858000D1*
X-6286500D2*
X-6858000D1*
X-6286500Y2095500D2*
X-6858000D1*
X-6286513Y2095504D2*
X-6858013Y2095489D1*
X-6286494Y1333504D2*
X-6857994Y1333489D1*
X-4734123Y4202500D2*
D13*
Y4350500D1*
X-5394123D1*
Y4202500D1*
X-4734123Y2528500D2*
Y2380500D1*
X-5394123D1*
Y2528500D1*
G36*
X-5555123Y4152500D2*
X-5551860Y4152286D1*
X-5548653Y4151648D1*
X-5545556Y4150597D1*
X-5542623Y4149151D1*
X-5539904Y4147334D1*
X-5537446Y4145178D1*
X-5535289Y4142719D1*
X-5533473Y4140000D1*
X-5532026Y4137067D1*
X-5530975Y4133970D1*
X-5530337Y4130763D1*
X-5530123Y4127500D1*
X-5530337Y4124237D1*
X-5530975Y4121030D1*
X-5532026Y4117933D1*
X-5533473Y4115000D1*
X-5535289Y4112281D1*
X-5537446Y4109822D1*
X-5539904Y4107666D1*
X-5542623Y4105849D1*
X-5545556Y4104403D1*
X-5548653Y4103352D1*
X-5551860Y4102714D1*
X-5555123Y4102500D1*
D1*
X-5558386Y4102714D1*
X-5561594Y4103352D1*
X-5564690Y4104403D1*
X-5567623Y4105849D1*
X-5570342Y4107666D1*
X-5572801Y4109822D1*
X-5574957Y4112281D1*
X-5576774Y4115000D1*
X-5578220Y4117933D1*
X-5579271Y4121030D1*
X-5579909Y4124237D1*
X-5580123Y4127500D1*
X-5579909Y4130763D1*
X-5579271Y4133970D1*
X-5578220Y4137067D1*
X-5576774Y4140000D1*
X-5574957Y4142719D1*
X-5572801Y4145178D1*
X-5570342Y4147334D1*
X-5567623Y4149151D1*
X-5564690Y4150597D1*
X-5561594Y4151648D1*
X-5558386Y4152286D1*
X-5555123Y4152500D1*
D1*
G37*
X-5835650Y-3637000D2*
D13*
Y-3664000D1*
X-5086350D1*
Y-3637000D1*
X-5835650Y-173000D2*
Y-146000D1*
X-5086350D1*
Y-173000D1*
G36*
X-4967800Y-3581000D2*
X-4971063Y-3580786D1*
X-4974270Y-3580148D1*
X-4977367Y-3579097D1*
X-4980300Y-3577651D1*
X-4983019Y-3575834D1*
X-4985478Y-3573678D1*
X-4987634Y-3571219D1*
X-4989451Y-3568500D1*
X-4990897Y-3565567D1*
X-4991948Y-3562470D1*
X-4992586Y-3559263D1*
X-4992800Y-3556000D1*
X-4992586Y-3552737D1*
X-4991948Y-3549530D1*
X-4990897Y-3546433D1*
X-4989451Y-3543500D1*
X-4987634Y-3540781D1*
X-4985478Y-3538322D1*
X-4983019Y-3536166D1*
X-4980300Y-3534349D1*
X-4977367Y-3532903D1*
X-4974270Y-3531852D1*
X-4971063Y-3531214D1*
X-4967800Y-3531000D1*
D1*
X-4964537Y-3531214D1*
X-4961330Y-3531852D1*
X-4958233Y-3532903D1*
X-4955300Y-3534349D1*
X-4952581Y-3536166D1*
X-4950122Y-3538322D1*
X-4947966Y-3540781D1*
X-4946149Y-3543500D1*
X-4944703Y-3546433D1*
X-4943652Y-3549530D1*
X-4943014Y-3552737D1*
X-4942800Y-3556000D1*
X-4943014Y-3559263D1*
X-4943652Y-3562470D1*
X-4944703Y-3565567D1*
X-4946149Y-3568500D1*
X-4947966Y-3571219D1*
X-4950122Y-3573678D1*
X-4952581Y-3575834D1*
X-4955300Y-3577651D1*
X-4958233Y-3579097D1*
X-4961330Y-3580148D1*
X-4964537Y-3580786D1*
X-4967800Y-3581000D1*
D1*
G37*
G36*
X-658620Y4699623D2*
X-912620Y4826623D1*
Y4572627D1*
D1*
X-658620Y4699623D1*
G37*
G36*
Y127623D2*
X-912620Y254623D1*
Y627D1*
D1*
X-658620Y127623D1*
G37*
X-7239000Y4889500D2*
D10*
X-6794500D1*
X-6858000Y4953000D1*
X-6794500Y4889500D2*
X-6858000Y4826000D1*
X-7302500Y4381500D2*
X-6286500D1*
Y3619500D1*
X-7302500D1*
Y4381500D1*
Y3619500D2*
X-6286500D1*
Y2857500D1*
X-7302500D1*
Y3619500D1*
Y2857500D2*
X-6286500D1*
Y2095500D1*
X-7302500D1*
Y2857500D1*
Y2095500D2*
X-6286500D1*
Y1333500D1*
X-7302500D1*
Y2095500D1*
Y1016000D2*
X-6286500D1*
Y0D1*
X-7302500D1*
Y1016000D1*
X-6409473Y-1376493D2*
D19*
Y-4305353D1*
X-6667500Y-1524000D2*
Y-4381500D1*
G36*
X-8191500Y952500D2*
X-7874000D1*
Y635000D1*
X-8191500D1*
Y952500D1*
G37*
G36*
X-8588377D2*
X-8270873D1*
Y635000D1*
X-8588377D1*
Y952500D1*
G37*
G36*
X-9001127D2*
X-8683623D1*
Y635000D1*
X-9001127D1*
Y952500D1*
G37*
G36*
X-9398000D2*
X-9080497D1*
Y635000D1*
X-9398000D1*
Y952500D1*
G37*
G36*
X-9810750D2*
X-9493250D1*
Y635000D1*
X-9810750D1*
Y952500D1*
G37*
G36*
X-8191500Y-1127123D2*
X-7874000D1*
Y-1444623D1*
X-8191500D1*
Y-1127123D1*
G37*
G36*
X-8588377D2*
X-8270873D1*
Y-1444623D1*
X-8588377D1*
Y-1127123D1*
G37*
G36*
X-9001127D2*
X-8683623D1*
Y-1444623D1*
X-9001127D1*
Y-1127123D1*
G37*
G36*
X-9398000D2*
X-9080497D1*
Y-1444623D1*
X-9398000D1*
Y-1127123D1*
G37*
G36*
X-9810750D2*
X-9493250D1*
Y-1444623D1*
X-9810750D1*
Y-1127123D1*
G37*
X-2603500Y635000D2*
D20*
Y-4127500D1*
X-9037873Y-2667000D2*
D21*
Y-4774143D1*
X-7831200Y4551300D2*
D10*
X-7424800D1*
Y3701300D1*
X-7831200D1*
Y4551300D1*
X-8237600D2*
X-7831200D1*
Y3701300D1*
X-8237600D1*
Y4551300D1*
X-8644000D2*
X-8237600D1*
Y3701300D1*
X-8644000D1*
Y4551300D1*
X-9050400D2*
X-8644000D1*
Y3701300D1*
X-9050400D1*
Y4551300D1*
X-9456800D2*
X-9050400D1*
Y3701300D1*
X-9456800D1*
Y4551300D1*
X-9863200D2*
X-9456800D1*
Y3701300D1*
X-9863200D1*
Y4551300D1*
X-7831200Y3701300D2*
X-7424800D1*
Y2701300D1*
X-7831200D1*
Y3701300D1*
X-8237600D2*
X-7831200D1*
Y2701300D1*
X-8237600D1*
Y3701300D1*
X-8644000D2*
X-8237600D1*
Y2701300D1*
X-8644000D1*
Y3701300D1*
X-9050400D2*
X-8644000D1*
Y2701300D1*
X-9050400D1*
Y3701300D1*
X-9456800D2*
X-9050400D1*
Y2701300D1*
X-9456800D1*
Y3701300D1*
X-9863200D2*
X-9456800D1*
Y2701300D1*
X-9863200D1*
Y3701300D1*
X-7831200Y2701300D2*
X-7424800D1*
Y601300D1*
X-7831200D1*
Y2701300D1*
X-8237600D2*
X-7831200D1*
Y601300D1*
X-8237600D1*
Y2701300D1*
X-8644000D2*
X-8237600D1*
Y601300D1*
X-8644000D1*
Y2701300D1*
X-9050400D2*
X-8644000D1*
Y601300D1*
X-9050400D1*
Y2701300D1*
X-9456800D2*
X-9050400D1*
Y601300D1*
X-9456800D1*
Y2701300D1*
X-9863200D2*
X-9456800D1*
Y601300D1*
X-9863200D1*
Y2701300D1*
X-7831200Y601300D2*
X-7424800D1*
Y-1498700D1*
X-7831200D1*
Y601300D1*
X-8237600D2*
X-7831200D1*
Y-1498700D1*
X-8237600D1*
Y601300D1*
X-8644000D2*
X-8237600D1*
Y-1498700D1*
X-8644000D1*
Y601300D1*
X-9050400D2*
X-8644000D1*
Y-1498700D1*
X-9050400D1*
Y601300D1*
X-9456800D2*
X-9050400D1*
Y-1498700D1*
X-9456800D1*
Y601300D1*
X-9863200D2*
X-9456800D1*
Y-1498700D1*
X-9863200D1*
Y601300D1*
X-7962944Y4380710D2*
D78*
X-8060090D1*
X-8078340Y4386746D1*
X-8084377Y4392923D1*
X-8090554Y4404996D1*
Y4417210D1*
X-8084377Y4429283D1*
X-8078340Y4435319D1*
X-8060090Y4441496D1*
X-8048017D1*
X-8090554Y4244348D2*
X-7962944D1*
X-8090554Y4292921D1*
X-7962944Y4341494D1*
X-8090554D1*
X-8029767Y4205132D2*
Y4150382D1*
X-8023731Y4132272D1*
X-8017554Y4126095D1*
X-8005481Y4120059D1*
X-7987231D1*
X-7975158Y4126095D1*
X-7968981Y4132272D1*
X-7962944Y4150382D1*
Y4205132D1*
X-8090554D1*
X-7987371Y3957397D2*
X-7981194Y3945183D1*
X-7963085Y3926933D1*
X-8090554D1*
X-8369344Y4380710D2*
X-8466490D1*
X-8484740Y4386746D1*
X-8490777Y4392923D1*
X-8496954Y4404996D1*
Y4417210D1*
X-8490777Y4429283D1*
X-8484740Y4435319D1*
X-8466490Y4441496D1*
X-8454417D1*
X-8496954Y4244348D2*
X-8369344D1*
X-8496954Y4292921D1*
X-8369344Y4341494D1*
X-8496954D1*
X-8436167Y4205132D2*
Y4150382D1*
X-8430131Y4132272D1*
X-8423954Y4126095D1*
X-8411881Y4120059D1*
X-8393631D1*
X-8381558Y4126095D1*
X-8375381Y4132272D1*
X-8369344Y4150382D1*
Y4205132D1*
X-8496954D1*
X-8399808Y3951220D2*
X-8393771D1*
X-8381558Y3945183D1*
X-8375521Y3939147D1*
X-8369485Y3926933D1*
Y3902647D1*
X-8375521Y3890574D1*
X-8381558Y3884537D1*
X-8393771Y3878360D1*
X-8405844D1*
X-8418058Y3884537D1*
X-8436167Y3896610D1*
X-8496954Y3957397D1*
Y3872324D1*
X-8775744Y4380710D2*
X-8872890D1*
X-8891140Y4386746D1*
X-8897177Y4392923D1*
X-8903354Y4404996D1*
Y4417210D1*
X-8897177Y4429283D1*
X-8891140Y4435319D1*
X-8872890Y4441496D1*
X-8860817D1*
X-8903354Y4244348D2*
X-8775744D1*
X-8903354Y4292921D1*
X-8775744Y4341494D1*
X-8903354D1*
X-8842567Y4205132D2*
Y4150382D1*
X-8836531Y4132272D1*
X-8830354Y4126095D1*
X-8818281Y4120059D1*
X-8800031D1*
X-8787958Y4126095D1*
X-8781781Y4132272D1*
X-8775744Y4150382D1*
Y4205132D1*
X-8903354D1*
X-8775885Y3945183D2*
Y3878501D1*
X-8824458Y3914860D1*
Y3896610D1*
X-8830494Y3884537D1*
X-8836531Y3878501D1*
X-8854781Y3872324D1*
X-8866854D1*
X-8885104Y3878501D1*
X-8897317Y3890574D1*
X-8903354Y3908824D1*
Y3927074D1*
X-8897317Y3945183D1*
X-8891140Y3951220D1*
X-8879067Y3957397D1*
X-9182144Y4380710D2*
X-9279290D1*
X-9297540Y4386746D1*
X-9303577Y4392923D1*
X-9309754Y4404996D1*
Y4417210D1*
X-9303577Y4429283D1*
X-9297540Y4435319D1*
X-9279290Y4441496D1*
X-9267217D1*
X-9309754Y4244348D2*
X-9182144D1*
X-9309754Y4292921D1*
X-9182144Y4341494D1*
X-9309754D1*
X-9248967Y4205132D2*
Y4150382D1*
X-9242931Y4132272D1*
X-9236754Y4126095D1*
X-9224681Y4120059D1*
X-9206431D1*
X-9194358Y4126095D1*
X-9188181Y4132272D1*
X-9182144Y4150382D1*
Y4205132D1*
X-9309754D1*
Y3896610D2*
X-9182285D1*
X-9267217Y3957397D1*
Y3866287D1*
X-9588544Y4380710D2*
X-9685690D1*
X-9703940Y4386746D1*
X-9709977Y4392923D1*
X-9716154Y4404996D1*
Y4417210D1*
X-9709977Y4429283D1*
X-9703940Y4435319D1*
X-9685690Y4441496D1*
X-9673617D1*
X-9716154Y4244348D2*
X-9588544D1*
X-9716154Y4292921D1*
X-9588544Y4341494D1*
X-9716154D1*
X-9655367Y4205132D2*
Y4150382D1*
X-9649331Y4132272D1*
X-9643154Y4126095D1*
X-9631081Y4120059D1*
X-9612831D1*
X-9600758Y4126095D1*
X-9594581Y4132272D1*
X-9588544Y4150382D1*
Y4205132D1*
X-9716154D1*
X-9588685Y3884537D2*
Y3945183D1*
X-9643294Y3951220D1*
X-9637258Y3945183D1*
X-9631081Y3926933D1*
Y3908824D1*
X-9637258Y3890574D1*
X-9649331Y3878360D1*
X-9667581Y3872324D1*
X-9679654D1*
X-9697904Y3878360D1*
X-9710117Y3890574D1*
X-9716154Y3908824D1*
Y3926933D1*
X-9710117Y3945183D1*
X-9703940Y3951220D1*
X-9691867Y3957397D1*
X-7556544Y3502338D2*
D79*
X-7684154D1*
X-7556544Y3587411D1*
X-7684154D1*
X-7599081Y3373923D2*
X-7684154D1*
X-7617331D2*
X-7605117Y3385996D1*
X-7599081Y3398209D1*
Y3416319D1*
X-7605117Y3428532D1*
X-7617331Y3440606D1*
X-7635581Y3446782D1*
X-7647654D1*
X-7665904Y3440606D1*
X-7677977Y3428532D1*
X-7684154Y3416319D1*
Y3398209D1*
X-7677977Y3385996D1*
X-7665904Y3373923D1*
X-7599081Y3318367D2*
X-7684154D1*
X-7623367D2*
X-7605117Y3300117D1*
X-7599081Y3287904D1*
Y3269794D1*
X-7605117Y3257581D1*
X-7623367Y3251544D1*
X-7684154D1*
X-7623367D2*
X-7605117Y3233294D1*
X-7599081Y3221081D1*
Y3202971D1*
X-7605117Y3190758D1*
X-7623367Y3184581D1*
X-7684154D1*
X-7635581Y3129025D2*
Y3056166D1*
X-7623367D1*
X-7611154Y3062202D1*
X-7605117Y3068239D1*
X-7599081Y3080452D1*
Y3098702D1*
X-7605117Y3110775D1*
X-7617331Y3122989D1*
X-7635581Y3129025D1*
X-7647654D1*
X-7665904Y3122989D1*
X-7677977Y3110775D1*
X-7684154Y3098702D1*
Y3080452D1*
X-7677977Y3068239D1*
X-7665904Y3056166D1*
X-8023731Y3591496D2*
D78*
Y3536886D1*
X-8017554Y3518636D1*
X-8011517Y3512460D1*
X-7999444Y3506423D1*
X-7987231D1*
X-7975158Y3512460D1*
X-7968981Y3518636D1*
X-7962944Y3536886D1*
Y3591496D1*
X-8090554D1*
X-8023731Y3548960D2*
X-8090554Y3506423D1*
X-8005481Y3394348D2*
X-8090554D1*
X-8023731D2*
X-8011517Y3406421D1*
X-8005481Y3418634D1*
Y3436744D1*
X-8011517Y3448957D1*
X-8023731Y3461030D1*
X-8041981Y3467207D1*
X-8054054D1*
X-8072304Y3461030D1*
X-8084377Y3448957D1*
X-8090554Y3436744D1*
Y3418634D1*
X-8084377Y3406421D1*
X-8072304Y3394348D1*
X-8005481Y3355132D2*
X-8090554D1*
X-8029767D2*
X-8011517Y3336882D1*
X-8005481Y3324669D1*
Y3306559D1*
X-8011517Y3294345D1*
X-8029767Y3288309D1*
X-8090554D1*
X-8011517Y3176234D2*
X-8108804D1*
X-8126913Y3182270D1*
X-8133090Y3188307D1*
X-8139127Y3200520D1*
Y3218770D1*
X-8133090Y3230843D1*
X-8029767Y3176234D2*
X-8017694Y3188307D1*
X-8011517Y3200520D1*
Y3218770D1*
X-8017694Y3230843D1*
X-8029767Y3243057D1*
X-8048017Y3249093D1*
X-8060231D1*
X-8078340Y3243057D1*
X-8090554Y3230843D1*
X-8096590Y3218770D1*
Y3200520D1*
X-8090554Y3188307D1*
X-8078340Y3176234D1*
X-8041981Y3137018D2*
Y3064158D1*
X-8029767D1*
X-8017554Y3070195D1*
X-8011517Y3076231D1*
X-8005481Y3088445D1*
Y3106695D1*
X-8011517Y3118768D1*
X-8023731Y3130981D1*
X-8041981Y3137018D1*
X-8054054D1*
X-8072304Y3130981D1*
X-8084377Y3118768D1*
X-8090554Y3106695D1*
Y3088445D1*
X-8084377Y3076231D1*
X-8072304Y3064158D1*
X-8369344Y3512600D2*
Y3591496D1*
X-8496954D1*
Y3512600D1*
X-8430131Y3591496D2*
Y3542923D1*
X-8411881Y3473384D2*
X-8496954D1*
X-8436167D2*
X-8417917Y3455134D1*
X-8411881Y3442921D1*
Y3424811D1*
X-8417917Y3412598D1*
X-8436167Y3406561D1*
X-8496954D1*
X-8411881Y3294486D2*
X-8496954D1*
X-8430131D2*
X-8417917Y3306559D1*
X-8411881Y3318772D1*
Y3336882D1*
X-8417917Y3349095D1*
X-8430131Y3361169D1*
X-8448381Y3367345D1*
X-8460454D1*
X-8478704Y3361169D1*
X-8490777Y3349095D1*
X-8496954Y3336882D1*
Y3318772D1*
X-8490777Y3306559D1*
X-8478704Y3294486D1*
X-8369344Y3255270D2*
X-8496954D1*
X-8430131D2*
X-8417917Y3243057D1*
X-8411881Y3230984D1*
Y3212734D1*
X-8417917Y3200661D1*
X-8430131Y3188447D1*
X-8448381Y3182411D1*
X-8460454D1*
X-8478704Y3188447D1*
X-8490777Y3200661D1*
X-8496954Y3212734D1*
Y3230984D1*
X-8490777Y3243057D1*
X-8478704Y3255270D1*
X-8369344Y3143195D2*
X-8496954D1*
X-8448381Y3103979D2*
Y3031120D1*
X-8436167D1*
X-8423954Y3037156D1*
X-8417917Y3043193D1*
X-8411881Y3055406D1*
Y3073656D1*
X-8417917Y3085729D1*
X-8430131Y3097943D1*
X-8448381Y3103979D1*
X-8460454D1*
X-8478704Y3097943D1*
X-8490777Y3085729D1*
X-8496954Y3073656D1*
Y3055406D1*
X-8490777Y3043193D1*
X-8478704Y3031120D1*
X-8775744Y3512600D2*
Y3591496D1*
X-8903354D1*
Y3512600D1*
X-8836531Y3591496D2*
Y3542923D1*
X-8818281Y3473384D2*
X-8903354D1*
X-8842567D2*
X-8824317Y3455134D1*
X-8818281Y3442921D1*
Y3424811D1*
X-8824317Y3412598D1*
X-8842567Y3406561D1*
X-8903354D1*
X-8818281Y3294486D2*
X-8903354D1*
X-8836531D2*
X-8824317Y3306559D1*
X-8818281Y3318772D1*
Y3336882D1*
X-8824317Y3349095D1*
X-8836531Y3361169D1*
X-8854781Y3367345D1*
X-8866854D1*
X-8885104Y3361169D1*
X-8897177Y3349095D1*
X-8903354Y3336882D1*
Y3318772D1*
X-8897177Y3306559D1*
X-8885104Y3294486D1*
X-8775744Y3255270D2*
X-8903354D1*
X-8836531D2*
X-8824317Y3243057D1*
X-8818281Y3230984D1*
Y3212734D1*
X-8824317Y3200661D1*
X-8836531Y3188447D1*
X-8854781Y3182411D1*
X-8866854D1*
X-8885104Y3188447D1*
X-8897177Y3200661D1*
X-8903354Y3212734D1*
Y3230984D1*
X-8897177Y3243057D1*
X-8885104Y3255270D1*
X-8775744Y3143195D2*
X-8903354D1*
X-8854781Y3103979D2*
Y3031120D1*
X-8842567D1*
X-8830354Y3037156D1*
X-8824317Y3043193D1*
X-8818281Y3055406D1*
Y3073656D1*
X-8824317Y3085729D1*
X-8836531Y3097943D1*
X-8854781Y3103979D1*
X-8866854D1*
X-8885104Y3097943D1*
X-8897177Y3085729D1*
X-8903354Y3073656D1*
Y3055406D1*
X-8897177Y3043193D1*
X-8885104Y3031120D1*
X-9182144Y3512600D2*
Y3591496D1*
X-9309754D1*
Y3512600D1*
X-9242931Y3591496D2*
Y3542923D1*
X-9224681Y3473384D2*
X-9309754D1*
X-9248967D2*
X-9230717Y3455134D1*
X-9224681Y3442921D1*
Y3424811D1*
X-9230717Y3412598D1*
X-9248967Y3406561D1*
X-9309754D1*
X-9224681Y3294486D2*
X-9309754D1*
X-9242931D2*
X-9230717Y3306559D1*
X-9224681Y3318772D1*
Y3336882D1*
X-9230717Y3349095D1*
X-9242931Y3361169D1*
X-9261181Y3367345D1*
X-9273254D1*
X-9291504Y3361169D1*
X-9303577Y3349095D1*
X-9309754Y3336882D1*
Y3318772D1*
X-9303577Y3306559D1*
X-9291504Y3294486D1*
X-9182144Y3255270D2*
X-9309754D1*
X-9242931D2*
X-9230717Y3243057D1*
X-9224681Y3230984D1*
Y3212734D1*
X-9230717Y3200661D1*
X-9242931Y3188447D1*
X-9261181Y3182411D1*
X-9273254D1*
X-9291504Y3188447D1*
X-9303577Y3200661D1*
X-9309754Y3212734D1*
Y3230984D1*
X-9303577Y3243057D1*
X-9291504Y3255270D1*
X-9182144Y3143195D2*
X-9309754D1*
X-9261181Y3103979D2*
Y3031120D1*
X-9248967D1*
X-9236754Y3037156D1*
X-9230717Y3043193D1*
X-9224681Y3055406D1*
Y3073656D1*
X-9230717Y3085729D1*
X-9242931Y3097943D1*
X-9261181Y3103979D1*
X-9273254D1*
X-9291504Y3097943D1*
X-9303577Y3085729D1*
X-9309754Y3073656D1*
Y3055406D1*
X-9303577Y3043193D1*
X-9291504Y3031120D1*
X-9588544Y3512600D2*
Y3591496D1*
X-9716154D1*
Y3512600D1*
X-9649331Y3591496D2*
Y3542923D1*
X-9631081Y3473384D2*
X-9716154D1*
X-9655367D2*
X-9637117Y3455134D1*
X-9631081Y3442921D1*
Y3424811D1*
X-9637117Y3412598D1*
X-9655367Y3406561D1*
X-9716154D1*
X-9631081Y3294486D2*
X-9716154D1*
X-9649331D2*
X-9637117Y3306559D1*
X-9631081Y3318772D1*
Y3336882D1*
X-9637117Y3349095D1*
X-9649331Y3361169D1*
X-9667581Y3367345D1*
X-9679654D1*
X-9697904Y3361169D1*
X-9709977Y3349095D1*
X-9716154Y3336882D1*
Y3318772D1*
X-9709977Y3306559D1*
X-9697904Y3294486D1*
X-9588544Y3255270D2*
X-9716154D1*
X-9649331D2*
X-9637117Y3243057D1*
X-9631081Y3230984D1*
Y3212734D1*
X-9637117Y3200661D1*
X-9649331Y3188447D1*
X-9667581Y3182411D1*
X-9679654D1*
X-9697904Y3188447D1*
X-9709977Y3200661D1*
X-9716154Y3212734D1*
Y3230984D1*
X-9709977Y3243057D1*
X-9697904Y3255270D1*
X-9588544Y3143195D2*
X-9716154D1*
X-9667581Y3103979D2*
Y3031120D1*
X-9655367D1*
X-9643154Y3037156D1*
X-9637117Y3043193D1*
X-9631081Y3055406D1*
Y3073656D1*
X-9637117Y3085729D1*
X-9649331Y3097943D1*
X-9667581Y3103979D1*
X-9679654D1*
X-9697904Y3097943D1*
X-9709977Y3085729D1*
X-9716154Y3073656D1*
Y3055406D1*
X-9709977Y3043193D1*
X-9697904Y3031120D1*
X-7623367Y2587411D2*
D79*
Y2532661D1*
X-7617331Y2514551D1*
X-7611154Y2508375D1*
X-7599081Y2502338D1*
X-7580831D1*
X-7568758Y2508375D1*
X-7562581Y2514551D1*
X-7556544Y2532661D1*
Y2587411D1*
X-7684154D1*
X-7556544Y2446782D2*
X-7562581Y2440746D1*
X-7556544Y2434569D1*
X-7550367Y2440746D1*
X-7556544Y2446782D1*
X-7599081Y2440746D2*
X-7684154D1*
X-7599081Y2379013D2*
X-7684154D1*
X-7623367D2*
X-7605117Y2360763D1*
X-7599081Y2348550D1*
Y2330440D1*
X-7605117Y2318227D1*
X-7623367Y2312190D1*
X-7684154D1*
X-7580971Y2116849D2*
X-7574794Y2104635D1*
X-7556685Y2086385D1*
X-7684154D1*
X-7963085Y2554996D2*
D78*
X-7969121Y2573246D1*
X-7987371Y2585460D1*
X-8017694Y2591496D1*
X-8035944D1*
X-8066267Y2585460D1*
X-8084517Y2573246D1*
X-8090554Y2554996D1*
Y2542923D1*
X-8084517Y2524673D1*
X-8066267Y2512600D1*
X-8035944Y2506423D1*
X-8017694D1*
X-7987371Y2512600D1*
X-7969121Y2524673D1*
X-7963085Y2542923D1*
Y2554996D1*
X-7987371Y2512600D2*
X-8066267Y2585460D1*
X-7963085Y2430707D2*
X-7969121Y2448957D1*
X-7987371Y2461171D1*
X-8017694Y2467207D1*
X-8035944D1*
X-8066267Y2461171D1*
X-8084517Y2448957D1*
X-8090554Y2430707D1*
Y2418634D1*
X-8084517Y2400384D1*
X-8066267Y2388311D1*
X-8035944Y2382134D1*
X-8017694D1*
X-7987371Y2388311D1*
X-7969121Y2400384D1*
X-7963085Y2418634D1*
Y2430707D1*
X-7987371Y2388311D2*
X-8066267Y2461171D1*
X-7963085Y2306419D2*
X-7969121Y2324669D1*
X-7987371Y2336882D1*
X-8017694Y2342919D1*
X-8035944D1*
X-8066267Y2336882D1*
X-8084517Y2324669D1*
X-8090554Y2306419D1*
Y2294345D1*
X-8084517Y2276095D1*
X-8066267Y2264022D1*
X-8035944Y2257845D1*
X-8017694D1*
X-7987371Y2264022D1*
X-7969121Y2276095D1*
X-7963085Y2294345D1*
Y2306419D1*
X-7987371Y2264022D2*
X-8066267Y2336882D1*
X-7963085Y2182130D2*
X-7969121Y2200380D1*
X-7987371Y2212593D1*
X-8017694Y2218630D1*
X-8035944D1*
X-8066267Y2212593D1*
X-8084517Y2200380D1*
X-8090554Y2182130D1*
Y2170057D1*
X-8084517Y2151807D1*
X-8066267Y2139734D1*
X-8035944Y2133557D1*
X-8017694D1*
X-7987371Y2139734D1*
X-7969121Y2151807D1*
X-7963085Y2170057D1*
Y2182130D1*
X-7987371Y2139734D2*
X-8066267Y2212593D1*
X-7962944Y2094341D2*
X-8090554D1*
X-8029767D2*
X-8011517Y2076091D1*
X-8005481Y2063878D1*
Y2045628D1*
X-8011517Y2033554D1*
X-8029767Y2027518D1*
X-8090554D1*
X-8026819Y1864856D2*
Y1794663D1*
X-8090554Y1607715D2*
X-7963085Y1546928D1*
Y1632001D1*
X-7962944Y1428676D2*
Y1507713D1*
X-8090554D1*
X-8023731D2*
Y1459140D1*
X-7962944Y1310424D2*
Y1389460D1*
X-8090554D1*
X-8023731D2*
Y1340887D1*
X-7962944Y1192172D2*
Y1271208D1*
X-8090554D1*
X-8023731D2*
Y1222635D1*
X-7962944Y1152956D2*
X-8090554D1*
X-8029767D2*
X-8011517Y1134706D1*
X-8005481Y1122492D1*
Y1104242D1*
X-8011517Y1092169D1*
X-8029767Y1086133D1*
X-8090554D1*
X-8369485Y2561173D2*
X-8375521Y2579283D1*
X-8387594Y2585460D1*
X-8399808D1*
X-8411881Y2579283D1*
X-8418058Y2567210D1*
X-8424094Y2542923D1*
X-8430131Y2524673D1*
X-8442344Y2512600D1*
X-8454417Y2506563D1*
X-8472667D1*
X-8484740Y2512600D1*
X-8490917Y2518636D1*
X-8496954Y2536886D1*
Y2561173D1*
X-8490917Y2579283D1*
X-8484740Y2585460D1*
X-8472667Y2591496D1*
X-8454417D1*
X-8442344Y2585460D1*
X-8430131Y2573246D1*
X-8424094Y2555136D1*
X-8418058Y2530850D1*
X-8411881Y2518636D1*
X-8399808Y2512600D1*
X-8387594D1*
X-8375521Y2518636D1*
X-8369485Y2536886D1*
Y2561173D1*
Y2430848D2*
X-8375521Y2449098D1*
X-8393771Y2461311D1*
X-8424094Y2467348D1*
X-8442344D1*
X-8472667Y2461311D1*
X-8490917Y2449098D1*
X-8496954Y2430848D1*
Y2418775D1*
X-8490917Y2400525D1*
X-8472667Y2388452D1*
X-8442344Y2382275D1*
X-8424094D1*
X-8393771Y2388452D1*
X-8375521Y2400525D1*
X-8369485Y2418775D1*
Y2430848D1*
X-8393771Y2388452D2*
X-8472667Y2461311D1*
X-8369485Y2306559D2*
X-8375521Y2324809D1*
X-8393771Y2337022D1*
X-8424094Y2343059D1*
X-8442344D1*
X-8472667Y2337022D1*
X-8490917Y2324809D1*
X-8496954Y2306559D1*
Y2294486D1*
X-8490917Y2276236D1*
X-8472667Y2264163D1*
X-8442344Y2257986D1*
X-8424094D1*
X-8393771Y2264163D1*
X-8375521Y2276236D1*
X-8369485Y2294486D1*
Y2306559D1*
X-8393771Y2264163D2*
X-8472667Y2337022D1*
X-8369485Y2182270D2*
X-8375521Y2200520D1*
X-8393771Y2212734D1*
X-8424094Y2218770D1*
X-8442344D1*
X-8472667Y2212734D1*
X-8490917Y2200520D1*
X-8496954Y2182270D1*
Y2170197D1*
X-8490917Y2151947D1*
X-8472667Y2139874D1*
X-8442344Y2133697D1*
X-8424094D1*
X-8393771Y2139874D1*
X-8375521Y2151947D1*
X-8369485Y2170197D1*
Y2182270D1*
X-8393771Y2139874D2*
X-8472667Y2212734D1*
X-8369344Y2094481D2*
X-8496954D1*
X-8436167D2*
X-8417917Y2076231D1*
X-8411881Y2064018D1*
Y2045768D1*
X-8417917Y2033695D1*
X-8436167Y2027658D1*
X-8496954D1*
X-8433219Y1864996D2*
Y1794804D1*
X-8411881Y1553105D2*
X-8430131Y1559282D1*
X-8442344Y1571355D1*
X-8448381Y1589605D1*
Y1595642D1*
X-8442344Y1613892D1*
X-8430131Y1625965D1*
X-8411881Y1632142D1*
X-8405844D1*
X-8387594Y1625965D1*
X-8375521Y1613892D1*
X-8369485Y1595642D1*
Y1589605D1*
X-8375521Y1571355D1*
X-8387594Y1559282D1*
X-8411881Y1553105D1*
X-8442344D1*
X-8472667Y1559282D1*
X-8490917Y1571355D1*
X-8496954Y1589605D1*
Y1601678D1*
X-8490917Y1619928D1*
X-8478704Y1625965D1*
X-8369344Y1434853D2*
Y1513890D1*
X-8496954D1*
X-8430131D2*
Y1465316D1*
X-8369344Y1316601D2*
Y1395637D1*
X-8496954D1*
X-8430131D2*
Y1347064D1*
X-8369344Y1198349D2*
Y1277385D1*
X-8496954D1*
X-8430131D2*
Y1228812D1*
X-8369344Y1159133D2*
X-8496954D1*
X-8436167D2*
X-8417917Y1140883D1*
X-8411881Y1128669D1*
Y1110419D1*
X-8417917Y1098346D1*
X-8436167Y1092310D1*
X-8496954D1*
X-8903354Y2494210D2*
X-8775744Y2542923D1*
X-8903354Y2591496D1*
X-8860817Y2573246D2*
Y2512460D1*
X-8775885Y2418494D2*
X-8781921Y2436744D1*
X-8800171Y2448957D1*
X-8830494Y2454994D1*
X-8848744D1*
X-8879067Y2448957D1*
X-8897317Y2436744D1*
X-8903354Y2418494D1*
Y2406421D1*
X-8897317Y2388171D1*
X-8879067Y2376098D1*
X-8848744Y2369921D1*
X-8830494D1*
X-8800171Y2376098D1*
X-8781921Y2388171D1*
X-8775885Y2406421D1*
Y2418494D1*
X-8800171Y2376098D2*
X-8879067Y2448957D1*
X-8775885Y2294205D2*
X-8781921Y2312455D1*
X-8800171Y2324669D1*
X-8830494Y2330705D1*
X-8848744D1*
X-8879067Y2324669D1*
X-8897317Y2312455D1*
X-8903354Y2294205D1*
Y2282132D1*
X-8897317Y2263882D1*
X-8879067Y2251809D1*
X-8848744Y2245632D1*
X-8830494D1*
X-8800171Y2251809D1*
X-8781921Y2263882D1*
X-8775885Y2282132D1*
Y2294205D1*
X-8800171Y2251809D2*
X-8879067Y2324669D1*
X-8775885Y2169916D2*
X-8781921Y2188166D1*
X-8800171Y2200380D1*
X-8830494Y2206416D1*
X-8848744D1*
X-8879067Y2200380D1*
X-8897317Y2188166D1*
X-8903354Y2169916D1*
Y2157843D1*
X-8897317Y2139593D1*
X-8879067Y2127520D1*
X-8848744Y2121343D1*
X-8830494D1*
X-8800171Y2127520D1*
X-8781921Y2139593D1*
X-8775885Y2157843D1*
Y2169916D1*
X-8800171Y2127520D2*
X-8879067Y2200380D1*
X-8775744Y2082128D2*
X-8903354D1*
X-8842567D2*
X-8824317Y2063878D1*
X-8818281Y2051664D1*
Y2033414D1*
X-8824317Y2021341D1*
X-8842567Y2015304D1*
X-8903354D1*
X-8839619Y1852642D2*
Y1782450D1*
X-8775744Y1619788D2*
X-8903354D1*
Y1565038D1*
X-8897177Y1546788D1*
X-8891140Y1540751D1*
X-8879067Y1534715D1*
X-8860817D1*
X-8848604Y1540751D1*
X-8842567Y1546788D1*
X-8836531Y1565038D1*
X-8830354Y1546788D1*
X-8824317Y1540751D1*
X-8812244Y1534715D1*
X-8800031D1*
X-8787958Y1540751D1*
X-8781781Y1546788D1*
X-8775744Y1565038D1*
Y1619788D1*
X-8836531D2*
Y1565038D1*
X-8818281Y1416463D2*
X-8836531Y1422640D1*
X-8848744Y1434713D1*
X-8854781Y1452963D1*
Y1458999D1*
X-8848744Y1477249D1*
X-8836531Y1489322D1*
X-8818281Y1495499D1*
X-8812244D1*
X-8793994Y1489322D1*
X-8781921Y1477249D1*
X-8775885Y1458999D1*
Y1452963D1*
X-8781921Y1434713D1*
X-8793994Y1422640D1*
X-8818281Y1416463D1*
X-8848744D1*
X-8879067Y1422640D1*
X-8897317Y1434713D1*
X-8903354Y1452963D1*
Y1465036D1*
X-8897317Y1483286D1*
X-8885104Y1489322D1*
X-8818281Y1298210D2*
X-8836531Y1304387D1*
X-8848744Y1316460D1*
X-8854781Y1334710D1*
Y1340747D1*
X-8848744Y1358997D1*
X-8836531Y1371070D1*
X-8818281Y1377247D1*
X-8812244D1*
X-8793994Y1371070D1*
X-8781921Y1358997D1*
X-8775885Y1340747D1*
Y1334710D1*
X-8781921Y1316460D1*
X-8793994Y1304387D1*
X-8818281Y1298210D1*
X-8848744D1*
X-8879067Y1304387D1*
X-8897317Y1316460D1*
X-8903354Y1334710D1*
Y1346783D1*
X-8897317Y1365033D1*
X-8885104Y1371070D1*
X-8818281Y1179958D2*
X-8836531Y1186135D1*
X-8848744Y1198208D1*
X-8854781Y1216458D1*
Y1222495D1*
X-8848744Y1240745D1*
X-8836531Y1252818D1*
X-8818281Y1258995D1*
X-8812244D1*
X-8793994Y1252818D1*
X-8781921Y1240745D1*
X-8775885Y1222495D1*
Y1216458D1*
X-8781921Y1198208D1*
X-8793994Y1186135D1*
X-8818281Y1179958D1*
X-8848744D1*
X-8879067Y1186135D1*
X-8897317Y1198208D1*
X-8903354Y1216458D1*
Y1228531D1*
X-8897317Y1246781D1*
X-8885104Y1252818D1*
X-8775744Y1140742D2*
X-8903354D1*
X-8842567D2*
X-8824317Y1122492D1*
X-8818281Y1110279D1*
Y1092029D1*
X-8824317Y1079956D1*
X-8842567Y1073919D1*
X-8903354D1*
X-9212467Y2500386D2*
X-9200394Y2506423D1*
X-9188181Y2518636D1*
X-9182144Y2530710D1*
Y2554996D1*
X-9188181Y2567210D1*
X-9200394Y2579283D1*
X-9212467Y2585460D1*
X-9230717Y2591496D1*
X-9261181D1*
X-9279290Y2585460D1*
X-9291504Y2579283D1*
X-9303577Y2567210D1*
X-9309754Y2554996D1*
Y2530710D1*
X-9303577Y2518636D1*
X-9291504Y2506423D1*
X-9279290Y2500386D1*
X-9182285Y2424671D2*
X-9188321Y2442921D1*
X-9206571Y2455134D1*
X-9236894Y2461171D1*
X-9255144D1*
X-9285467Y2455134D1*
X-9303717Y2442921D1*
X-9309754Y2424671D1*
Y2412598D1*
X-9303717Y2394348D1*
X-9285467Y2382275D1*
X-9255144Y2376098D1*
X-9236894D1*
X-9206571Y2382275D1*
X-9188321Y2394348D1*
X-9182285Y2412598D1*
Y2424671D1*
X-9206571Y2382275D2*
X-9285467Y2455134D1*
X-9182285Y2300382D2*
X-9188321Y2318632D1*
X-9206571Y2330845D1*
X-9236894Y2336882D1*
X-9255144D1*
X-9285467Y2330845D1*
X-9303717Y2318632D1*
X-9309754Y2300382D1*
Y2288309D1*
X-9303717Y2270059D1*
X-9285467Y2257986D1*
X-9255144Y2251809D1*
X-9236894D1*
X-9206571Y2257986D1*
X-9188321Y2270059D1*
X-9182285Y2288309D1*
Y2300382D1*
X-9206571Y2257986D2*
X-9285467Y2330845D1*
X-9182285Y2176093D2*
X-9188321Y2194343D1*
X-9206571Y2206557D1*
X-9236894Y2212593D1*
X-9255144D1*
X-9285467Y2206557D1*
X-9303717Y2194343D1*
X-9309754Y2176093D1*
Y2164020D1*
X-9303717Y2145770D1*
X-9285467Y2133697D1*
X-9255144Y2127520D1*
X-9236894D1*
X-9206571Y2133697D1*
X-9188321Y2145770D1*
X-9182285Y2164020D1*
Y2176093D1*
X-9206571Y2133697D2*
X-9285467Y2206557D1*
X-9182144Y2088304D2*
X-9309754D1*
X-9248967D2*
X-9230717Y2070054D1*
X-9224681Y2057841D1*
Y2039591D1*
X-9230717Y2027518D1*
X-9248967Y2021481D1*
X-9309754D1*
X-9246019Y1858819D2*
Y1788627D1*
X-9182144Y1625965D2*
X-9309754D1*
Y1583428D1*
X-9303577Y1565178D1*
X-9291504Y1552965D1*
X-9279290Y1546928D1*
X-9261181Y1540892D1*
X-9230717D1*
X-9212467Y1546928D1*
X-9200394Y1552965D1*
X-9188181Y1565178D1*
X-9182144Y1583428D1*
Y1625965D1*
Y1422640D2*
Y1501676D1*
X-9309754D1*
X-9242931D2*
Y1453103D1*
X-9182144Y1304387D2*
Y1383424D1*
X-9309754D1*
X-9242931D2*
Y1334851D1*
X-9182144Y1186135D2*
Y1265172D1*
X-9309754D1*
X-9242931D2*
Y1216599D1*
X-9182144Y1146919D2*
X-9309754D1*
X-9248967D2*
X-9230717Y1128669D1*
X-9224681Y1116456D1*
Y1098206D1*
X-9230717Y1086133D1*
X-9248967Y1080096D1*
X-9309754D1*
X-9588544Y2512600D2*
Y2591496D1*
X-9716154D1*
Y2512600D1*
X-9649331Y2591496D2*
Y2542923D1*
X-9588685Y2436884D2*
X-9594721Y2455134D1*
X-9612971Y2467348D1*
X-9643294Y2473384D1*
X-9661544D1*
X-9691867Y2467348D1*
X-9710117Y2455134D1*
X-9716154Y2436884D1*
Y2424811D1*
X-9710117Y2406561D1*
X-9691867Y2394488D1*
X-9661544Y2388311D1*
X-9643294D1*
X-9612971Y2394488D1*
X-9594721Y2406561D1*
X-9588685Y2424811D1*
Y2436884D1*
X-9612971Y2394488D2*
X-9691867Y2467348D1*
X-9588685Y2312595D2*
X-9594721Y2330845D1*
X-9612971Y2343059D1*
X-9643294Y2349095D1*
X-9661544D1*
X-9691867Y2343059D1*
X-9710117Y2330845D1*
X-9716154Y2312595D1*
Y2300522D1*
X-9710117Y2282272D1*
X-9691867Y2270199D1*
X-9661544Y2264022D1*
X-9643294D1*
X-9612971Y2270199D1*
X-9594721Y2282272D1*
X-9588685Y2300522D1*
Y2312595D1*
X-9612971Y2270199D2*
X-9691867Y2343059D1*
X-9588685Y2188307D2*
X-9594721Y2206557D1*
X-9612971Y2218770D1*
X-9643294Y2224807D1*
X-9661544D1*
X-9691867Y2218770D1*
X-9710117Y2206557D1*
X-9716154Y2188307D1*
Y2176234D1*
X-9710117Y2157984D1*
X-9691867Y2145911D1*
X-9661544Y2139734D1*
X-9643294D1*
X-9612971Y2145911D1*
X-9594721Y2157984D1*
X-9588685Y2176234D1*
Y2188307D1*
X-9612971Y2145911D2*
X-9691867Y2218770D1*
X-9588544Y2100518D2*
X-9716154D1*
X-9655367D2*
X-9637117Y2082268D1*
X-9631081Y2070054D1*
Y2051804D1*
X-9637117Y2039731D1*
X-9655367Y2033695D1*
X-9716154D1*
X-9652419Y1871033D2*
Y1800840D1*
X-9588544Y1559142D2*
Y1638178D1*
X-9716154D1*
X-9649331D2*
Y1589605D1*
X-9588544Y1440890D2*
Y1519926D1*
X-9716154D1*
X-9649331D2*
Y1471353D1*
X-9588544Y1322637D2*
Y1401674D1*
X-9716154D1*
X-9649331D2*
Y1353101D1*
X-9588544Y1204385D2*
Y1283422D1*
X-9716154D1*
X-9649331D2*
Y1234849D1*
X-9588544Y1165169D2*
X-9716154D1*
X-9655367D2*
X-9637117Y1146919D1*
X-9631081Y1134706D1*
Y1116456D1*
X-9637117Y1104383D1*
X-9655367Y1098346D1*
X-9716154D1*
X-7623367Y487411D2*
D79*
Y432661D1*
X-7617331Y414551D1*
X-7611154Y408375D1*
X-7599081Y402338D1*
X-7580831D1*
X-7568758Y408375D1*
X-7562581Y414551D1*
X-7556544Y432661D1*
Y487411D1*
X-7684154D1*
X-7556544Y346782D2*
X-7562581Y340746D1*
X-7556544Y334569D1*
X-7550367Y340746D1*
X-7556544Y346782D1*
X-7599081Y340746D2*
X-7684154D1*
X-7599081Y279013D2*
X-7684154D1*
X-7623367D2*
X-7605117Y260763D1*
X-7599081Y248550D1*
Y230440D1*
X-7605117Y218227D1*
X-7623367Y212190D1*
X-7684154D1*
X-7587008Y10672D2*
X-7580971D1*
X-7568758Y4635D1*
X-7562721Y-1401D1*
X-7556685Y-13615D1*
Y-37901D1*
X-7562721Y-49975D1*
X-7568758Y-56011D1*
X-7580971Y-62188D1*
X-7593044D1*
X-7605258Y-56011D1*
X-7623367Y-43938D1*
X-7684154Y16849D1*
Y-68225D1*
X-7963085Y461173D2*
D78*
X-7969121Y479283D1*
X-7981194Y485460D1*
X-7993408D1*
X-8005481Y479283D1*
X-8011658Y467210D1*
X-8017694Y442923D1*
X-8023731Y424673D1*
X-8035944Y412600D1*
X-8048017Y406563D1*
X-8066267D1*
X-8078340Y412600D1*
X-8084517Y418636D1*
X-8090554Y436886D1*
Y461173D1*
X-8084517Y479283D1*
X-8078340Y485460D1*
X-8066267Y491496D1*
X-8048017D1*
X-8035944Y485460D1*
X-8023731Y473246D1*
X-8017694Y455136D1*
X-8011658Y430850D1*
X-8005481Y418636D1*
X-7993408Y412600D1*
X-7981194D1*
X-7969121Y418636D1*
X-7963085Y436886D1*
Y461173D1*
Y330848D2*
X-7969121Y349098D1*
X-7987371Y361311D1*
X-8017694Y367348D1*
X-8035944D1*
X-8066267Y361311D1*
X-8084517Y349098D1*
X-8090554Y330848D1*
Y318775D1*
X-8084517Y300525D1*
X-8066267Y288452D1*
X-8035944Y282275D1*
X-8017694D1*
X-7987371Y288452D1*
X-7969121Y300525D1*
X-7963085Y318775D1*
Y330848D1*
X-7987371Y288452D2*
X-8066267Y361311D1*
X-7963085Y206559D2*
X-7969121Y224809D1*
X-7987371Y237022D1*
X-8017694Y243059D1*
X-8035944D1*
X-8066267Y237022D1*
X-8084517Y224809D1*
X-8090554Y206559D1*
Y194486D1*
X-8084517Y176236D1*
X-8066267Y164163D1*
X-8035944Y157986D1*
X-8017694D1*
X-7987371Y164163D1*
X-7969121Y176236D1*
X-7963085Y194486D1*
Y206559D1*
X-7987371Y164163D2*
X-8066267Y237022D1*
X-7963085Y82270D2*
X-7969121Y100520D1*
X-7987371Y112734D1*
X-8017694Y118770D1*
X-8035944D1*
X-8066267Y112734D1*
X-8084517Y100520D1*
X-8090554Y82270D1*
Y70197D1*
X-8084517Y51947D1*
X-8066267Y39874D1*
X-8035944Y33697D1*
X-8017694D1*
X-7987371Y39874D1*
X-7969121Y51947D1*
X-7963085Y70197D1*
Y82270D1*
X-7987371Y39874D2*
X-8066267Y112734D1*
X-7962944Y-5519D2*
X-8090554D1*
X-8029767D2*
X-8011517Y-23769D1*
X-8005481Y-35982D1*
Y-54232D1*
X-8011517Y-66305D1*
X-8029767Y-72342D1*
X-8090554D1*
X-8026819Y-235004D2*
Y-305196D1*
X-7962944Y-546895D2*
Y-467858D1*
X-8090554D1*
X-8023731D2*
Y-516431D1*
X-7962944Y-665147D2*
Y-586110D1*
X-8090554D1*
X-8023731D2*
Y-634684D1*
X-7962944Y-783399D2*
Y-704363D1*
X-8090554D1*
X-8023731D2*
Y-752936D1*
X-7962944Y-901651D2*
Y-822615D1*
X-8090554D1*
X-8023731D2*
Y-871188D1*
X-7962944Y-940867D2*
X-8090554D1*
X-8029767D2*
X-8011517Y-959117D1*
X-8005481Y-971331D1*
Y-989581D1*
X-8011517Y-1001654D1*
X-8029767Y-1007690D1*
X-8090554D1*
X-8369344Y491496D2*
X-8496954D1*
Y448960D1*
X-8490777Y430710D1*
X-8478704Y418496D1*
X-8466490Y412460D1*
X-8448381Y406423D1*
X-8417917D1*
X-8399667Y412460D1*
X-8387594Y418496D1*
X-8375381Y430710D1*
X-8369344Y448960D1*
Y491496D1*
Y367207D2*
X-8375381Y361171D1*
X-8369344Y354994D1*
X-8363167Y361171D1*
X-8369344Y367207D1*
X-8411881Y361171D2*
X-8496954D1*
X-8430131Y248955D2*
X-8417917Y254992D1*
X-8411881Y273242D1*
Y291492D1*
X-8417917Y309742D1*
X-8430131Y315778D1*
X-8442204Y309742D1*
X-8448381Y297528D1*
X-8454417Y267205D1*
X-8460454Y254992D1*
X-8472667Y248955D1*
X-8478704D1*
X-8490777Y254992D1*
X-8496954Y273242D1*
Y291492D1*
X-8490777Y309742D1*
X-8478704Y315778D1*
X-8411881Y136880D2*
X-8496954D1*
X-8430131D2*
X-8417917Y148953D1*
X-8411881Y161166D1*
Y179276D1*
X-8417917Y191489D1*
X-8430131Y203562D1*
X-8448381Y209739D1*
X-8460454D1*
X-8478704Y203562D1*
X-8490777Y191489D1*
X-8496954Y179276D1*
Y161166D1*
X-8490777Y148953D1*
X-8478704Y136880D1*
X-8369344Y97664D2*
X-8496954D1*
X-8430131D2*
X-8417917Y85451D1*
X-8411881Y73378D1*
Y55128D1*
X-8417917Y43054D1*
X-8430131Y30841D1*
X-8448381Y24804D1*
X-8460454D1*
X-8478704Y30841D1*
X-8490777Y43054D1*
X-8496954Y55128D1*
Y73378D1*
X-8490777Y85451D1*
X-8478704Y97664D1*
X-8369344Y-14411D2*
X-8496954D1*
X-8448381Y-53627D2*
Y-126487D1*
X-8436167D1*
X-8423954Y-120450D1*
X-8417917Y-114413D1*
X-8411881Y-102200D1*
Y-83950D1*
X-8417917Y-71877D1*
X-8430131Y-59663D1*
X-8448381Y-53627D1*
X-8460454D1*
X-8478704Y-59663D1*
X-8490777Y-71877D1*
X-8496954Y-83950D1*
Y-102200D1*
X-8490777Y-114413D1*
X-8478704Y-126487D1*
X-8369344Y-238562D2*
X-8496954D1*
X-8430131D2*
X-8417917Y-226489D1*
X-8411881Y-214275D1*
Y-196025D1*
X-8417917Y-183952D1*
X-8430131Y-171739D1*
X-8448381Y-165702D1*
X-8460454D1*
X-8478704Y-171739D1*
X-8490777Y-183952D1*
X-8496954Y-196025D1*
Y-214275D1*
X-8490777Y-226489D1*
X-8478704Y-238562D1*
X-8775744Y491496D2*
X-8903354D1*
Y448960D1*
X-8897177Y430710D1*
X-8885104Y418496D1*
X-8872890Y412460D1*
X-8854781Y406423D1*
X-8824317D1*
X-8806067Y412460D1*
X-8793994Y418496D1*
X-8781781Y430710D1*
X-8775744Y448960D1*
Y491496D1*
Y367207D2*
X-8781781Y361171D1*
X-8775744Y354994D1*
X-8769567Y361171D1*
X-8775744Y367207D1*
X-8818281Y361171D2*
X-8903354D1*
X-8836531Y248955D2*
X-8824317Y254992D1*
X-8818281Y273242D1*
Y291492D1*
X-8824317Y309742D1*
X-8836531Y315778D1*
X-8848604Y309742D1*
X-8854781Y297528D1*
X-8860817Y267205D1*
X-8866854Y254992D1*
X-8879067Y248955D1*
X-8885104D1*
X-8897177Y254992D1*
X-8903354Y273242D1*
Y291492D1*
X-8897177Y309742D1*
X-8885104Y315778D1*
X-8818281Y136880D2*
X-8903354D1*
X-8836531D2*
X-8824317Y148953D1*
X-8818281Y161166D1*
Y179276D1*
X-8824317Y191489D1*
X-8836531Y203562D1*
X-8854781Y209739D1*
X-8866854D1*
X-8885104Y203562D1*
X-8897177Y191489D1*
X-8903354Y179276D1*
Y161166D1*
X-8897177Y148953D1*
X-8885104Y136880D1*
X-8775744Y97664D2*
X-8903354D1*
X-8836531D2*
X-8824317Y85451D1*
X-8818281Y73378D1*
Y55128D1*
X-8824317Y43054D1*
X-8836531Y30841D1*
X-8854781Y24804D1*
X-8866854D1*
X-8885104Y30841D1*
X-8897177Y43054D1*
X-8903354Y55128D1*
Y73378D1*
X-8897177Y85451D1*
X-8885104Y97664D1*
X-8775744Y-14411D2*
X-8903354D1*
X-8854781Y-53627D2*
Y-126487D1*
X-8842567D1*
X-8830354Y-120450D1*
X-8824317Y-114413D1*
X-8818281Y-102200D1*
Y-83950D1*
X-8824317Y-71877D1*
X-8836531Y-59663D1*
X-8854781Y-53627D1*
X-8866854D1*
X-8885104Y-59663D1*
X-8897177Y-71877D1*
X-8903354Y-83950D1*
Y-102200D1*
X-8897177Y-114413D1*
X-8885104Y-126487D1*
X-8775744Y-238562D2*
X-8903354D1*
X-8836531D2*
X-8824317Y-226489D1*
X-8818281Y-214275D1*
Y-196025D1*
X-8824317Y-183952D1*
X-8836531Y-171739D1*
X-8854781Y-165702D1*
X-8866854D1*
X-8885104Y-171739D1*
X-8897177Y-183952D1*
X-8903354Y-196025D1*
Y-214275D1*
X-8897177Y-226489D1*
X-8885104Y-238562D1*
X-9182144Y491496D2*
X-9309754D1*
Y448960D1*
X-9303577Y430710D1*
X-9291504Y418496D1*
X-9279290Y412460D1*
X-9261181Y406423D1*
X-9230717D1*
X-9212467Y412460D1*
X-9200394Y418496D1*
X-9188181Y430710D1*
X-9182144Y448960D1*
Y491496D1*
Y367207D2*
X-9188181Y361171D1*
X-9182144Y354994D1*
X-9175967Y361171D1*
X-9182144Y367207D1*
X-9224681Y361171D2*
X-9309754D1*
X-9242931Y248955D2*
X-9230717Y254992D1*
X-9224681Y273242D1*
Y291492D1*
X-9230717Y309742D1*
X-9242931Y315778D1*
X-9255004Y309742D1*
X-9261181Y297528D1*
X-9267217Y267205D1*
X-9273254Y254992D1*
X-9285467Y248955D1*
X-9291504D1*
X-9303577Y254992D1*
X-9309754Y273242D1*
Y291492D1*
X-9303577Y309742D1*
X-9291504Y315778D1*
X-9224681Y136880D2*
X-9309754D1*
X-9242931D2*
X-9230717Y148953D1*
X-9224681Y161166D1*
Y179276D1*
X-9230717Y191489D1*
X-9242931Y203562D1*
X-9261181Y209739D1*
X-9273254D1*
X-9291504Y203562D1*
X-9303577Y191489D1*
X-9309754Y179276D1*
Y161166D1*
X-9303577Y148953D1*
X-9291504Y136880D1*
X-9182144Y97664D2*
X-9309754D1*
X-9242931D2*
X-9230717Y85451D1*
X-9224681Y73378D1*
Y55128D1*
X-9230717Y43054D1*
X-9242931Y30841D1*
X-9261181Y24804D1*
X-9273254D1*
X-9291504Y30841D1*
X-9303577Y43054D1*
X-9309754Y55128D1*
Y73378D1*
X-9303577Y85451D1*
X-9291504Y97664D1*
X-9182144Y-14411D2*
X-9309754D1*
X-9261181Y-53627D2*
Y-126487D1*
X-9248967D1*
X-9236754Y-120450D1*
X-9230717Y-114413D1*
X-9224681Y-102200D1*
Y-83950D1*
X-9230717Y-71877D1*
X-9242931Y-59663D1*
X-9261181Y-53627D1*
X-9273254D1*
X-9291504Y-59663D1*
X-9303577Y-71877D1*
X-9309754Y-83950D1*
Y-102200D1*
X-9303577Y-114413D1*
X-9291504Y-126487D1*
X-9182144Y-238562D2*
X-9309754D1*
X-9242931D2*
X-9230717Y-226489D1*
X-9224681Y-214275D1*
Y-196025D1*
X-9230717Y-183952D1*
X-9242931Y-171739D1*
X-9261181Y-165702D1*
X-9273254D1*
X-9291504Y-171739D1*
X-9303577Y-183952D1*
X-9309754Y-196025D1*
Y-214275D1*
X-9303577Y-226489D1*
X-9291504Y-238562D1*
X-9588544Y491496D2*
X-9716154D1*
Y448960D1*
X-9709977Y430710D1*
X-9697904Y418496D1*
X-9685690Y412460D1*
X-9667581Y406423D1*
X-9637117D1*
X-9618867Y412460D1*
X-9606794Y418496D1*
X-9594581Y430710D1*
X-9588544Y448960D1*
Y491496D1*
Y367207D2*
X-9594581Y361171D1*
X-9588544Y354994D1*
X-9582367Y361171D1*
X-9588544Y367207D1*
X-9631081Y361171D2*
X-9716154D1*
X-9649331Y248955D2*
X-9637117Y254992D1*
X-9631081Y273242D1*
Y291492D1*
X-9637117Y309742D1*
X-9649331Y315778D1*
X-9661404Y309742D1*
X-9667581Y297528D1*
X-9673617Y267205D1*
X-9679654Y254992D1*
X-9691867Y248955D1*
X-9697904D1*
X-9709977Y254992D1*
X-9716154Y273242D1*
Y291492D1*
X-9709977Y309742D1*
X-9697904Y315778D1*
X-9631081Y136880D2*
X-9716154D1*
X-9649331D2*
X-9637117Y148953D1*
X-9631081Y161166D1*
Y179276D1*
X-9637117Y191489D1*
X-9649331Y203562D1*
X-9667581Y209739D1*
X-9679654D1*
X-9697904Y203562D1*
X-9709977Y191489D1*
X-9716154Y179276D1*
Y161166D1*
X-9709977Y148953D1*
X-9697904Y136880D1*
X-9588544Y97664D2*
X-9716154D1*
X-9649331D2*
X-9637117Y85451D1*
X-9631081Y73378D1*
Y55128D1*
X-9637117Y43054D1*
X-9649331Y30841D1*
X-9667581Y24804D1*
X-9679654D1*
X-9697904Y30841D1*
X-9709977Y43054D1*
X-9716154Y55128D1*
Y73378D1*
X-9709977Y85451D1*
X-9697904Y97664D1*
X-9588544Y-14411D2*
X-9716154D1*
X-9667581Y-53627D2*
Y-126487D1*
X-9655367D1*
X-9643154Y-120450D1*
X-9637117Y-114413D1*
X-9631081Y-102200D1*
Y-83950D1*
X-9637117Y-71877D1*
X-9649331Y-59663D1*
X-9667581Y-53627D1*
X-9679654D1*
X-9697904Y-59663D1*
X-9709977Y-71877D1*
X-9716154Y-83950D1*
Y-102200D1*
X-9709977Y-114413D1*
X-9697904Y-126487D1*
X-9588544Y-238562D2*
X-9716154D1*
X-9649331D2*
X-9637117Y-226489D1*
X-9631081Y-214275D1*
Y-196025D1*
X-9637117Y-183952D1*
X-9649331Y-171739D1*
X-9667581Y-165702D1*
X-9679654D1*
X-9697904Y-171739D1*
X-9709977Y-183952D1*
X-9716154Y-196025D1*
Y-214275D1*
X-9709977Y-226489D1*
X-9697904Y-238562D1*
X-8086128Y4918540D2*
D80*
Y4816452D1*
X-8120157Y4918540D2*
X-8052098D1*
X-7991526D2*
X-8001297Y4913711D1*
X-8010955Y4903940D1*
X-8015897Y4894281D1*
X-8020726Y4879681D1*
Y4855311D1*
X-8015897Y4840823D1*
X-8010955Y4831052D1*
X-8001297Y4821394D1*
X-7991526Y4816452D1*
X-7972097D1*
X-7962438Y4821394D1*
X-7952667Y4831052D1*
X-7947838Y4840823D1*
X-7943009Y4855311D1*
Y4879681D1*
X-7947838Y4894281D1*
X-7952667Y4903940D1*
X-7962438Y4913711D1*
X-7972097Y4918540D1*
X-7991526D1*
X-7911636Y4865081D2*
X-7867836D1*
X-7853349Y4869911D1*
X-7848407Y4874852D1*
X-7843578Y4884511D1*
Y4899111D1*
X-7848407Y4908769D1*
X-7853349Y4913711D1*
X-7867836Y4918540D1*
X-7911636D1*
Y4816452D1*
X-5835654Y-4351963D2*
Y-4454051D1*
Y-4405422D2*
X-5821054Y-4390822D1*
X-5811283Y-4385993D1*
X-5796683D1*
X-5787024Y-4390822D1*
X-5782195Y-4405422D1*
Y-4454051D1*
X-5736223Y-4351963D2*
Y-4434622D1*
X-5731393Y-4449110D1*
X-5721623Y-4454051D1*
X-5711964D1*
X-5750823Y-4385993D2*
X-5716793D1*
X-5665992Y-4351963D2*
Y-4434622D1*
X-5661162Y-4449110D1*
X-5651392Y-4454051D1*
X-5641733D1*
X-5680592Y-4385993D2*
X-5646562D1*
X-5610360D2*
Y-4488080D1*
Y-4400593D2*
X-5600590Y-4390934D1*
X-5590931Y-4385993D1*
X-5576331D1*
X-5566560Y-4390934D1*
X-5556902Y-4400593D1*
X-5551960Y-4415193D1*
Y-4424963D1*
X-5556902Y-4439451D1*
X-5566560Y-4449222D1*
X-5576331Y-4454051D1*
X-5590931D1*
X-5600590Y-4449222D1*
X-5610360Y-4439451D1*
X-5467129Y-4400593D2*
X-5471959Y-4390822D1*
X-5486559Y-4385993D1*
X-5501159D1*
X-5515759Y-4390822D1*
X-5520588Y-4400593D1*
X-5515759Y-4410251D1*
X-5505988Y-4415193D1*
X-5481729Y-4420022D1*
X-5471959Y-4424851D1*
X-5467129Y-4434622D1*
Y-4439451D1*
X-5471959Y-4449110D1*
X-5486559Y-4454051D1*
X-5501159D1*
X-5515759Y-4449110D1*
X-5520588Y-4439451D1*
X-5430815Y-4385993D2*
X-5435757Y-4390934D1*
X-5430815Y-4395763D1*
X-5425986Y-4390934D1*
X-5430815Y-4385993D1*
Y-4444280D2*
X-5435757Y-4449222D1*
X-5430815Y-4454051D1*
X-5425986Y-4449222D1*
X-5430815Y-4444280D1*
X-5394614Y-4454051D2*
X-5326555Y-4352076D1*
X-5295183Y-4454051D2*
X-5227124Y-4352076D1*
X-5137464Y-4390822D2*
Y-4468651D1*
X-5142293Y-4483139D1*
X-5147122Y-4488080D1*
X-5156893Y-4492910D1*
X-5171493D1*
X-5181152Y-4488080D1*
X-5137464Y-4405422D2*
X-5147122Y-4395763D1*
X-5156893Y-4390822D1*
X-5171493D1*
X-5181152Y-4395763D1*
X-5190922Y-4405422D1*
X-5195752Y-4420022D1*
Y-4429793D1*
X-5190922Y-4444280D1*
X-5181152Y-4454051D1*
X-5171493Y-4458880D1*
X-5156893D1*
X-5147122Y-4454051D1*
X-5137464Y-4444280D1*
X-5106091Y-4351963D2*
X-5101262Y-4356793D1*
X-5096321Y-4351963D1*
X-5101262Y-4347022D1*
X-5106091Y-4351963D1*
X-5101262Y-4385993D2*
Y-4454051D1*
X-5050348Y-4351963D2*
Y-4434622D1*
X-5045519Y-4449110D1*
X-5035748Y-4454051D1*
X-5026090D1*
X-5064948Y-4385993D2*
X-5030919D1*
X-4994717Y-4351963D2*
Y-4454051D1*
Y-4405422D2*
X-4980117Y-4390822D1*
X-4970346Y-4385993D1*
X-4955746D1*
X-4946088Y-4390822D1*
X-4941259Y-4405422D1*
Y-4454051D1*
X-4909886Y-4385993D2*
Y-4434622D1*
X-4905057Y-4449110D1*
X-4895286Y-4454051D1*
X-4880686D1*
X-4871028Y-4449110D1*
X-4856428Y-4434622D1*
Y-4385993D2*
Y-4454051D1*
X-4825055Y-4351963D2*
Y-4454051D1*
Y-4400593D2*
X-4815284Y-4390822D1*
X-4805626Y-4385993D1*
X-4791026D1*
X-4781367Y-4390822D1*
X-4771597Y-4400593D1*
X-4766767Y-4415193D1*
Y-4424851D1*
X-4771597Y-4439451D1*
X-4781367Y-4449110D1*
X-4791026Y-4454051D1*
X-4805626D1*
X-4815284Y-4449110D1*
X-4825055Y-4439451D1*
X-4730566Y-4444280D2*
X-4735395Y-4449222D1*
X-4730566Y-4454051D1*
X-4725624Y-4449222D1*
X-4730566Y-4444280D1*
X-4635851Y-4400593D2*
X-4645622Y-4390822D1*
X-4655393Y-4385993D1*
X-4669881D1*
X-4679651Y-4390822D1*
X-4689310Y-4400593D1*
X-4694251Y-4415193D1*
Y-4424851D1*
X-4689310Y-4439451D1*
X-4679651Y-4449110D1*
X-4669881Y-4454051D1*
X-4655393D1*
X-4645622Y-4449110D1*
X-4635851Y-4439451D1*
X-4580220Y-4385993D2*
X-4589879Y-4390822D1*
X-4599650Y-4400593D1*
X-4604479Y-4415193D1*
Y-4424851D1*
X-4599650Y-4439451D1*
X-4589879Y-4449110D1*
X-4580220Y-4454051D1*
X-4565620D1*
X-4555850Y-4449110D1*
X-4546191Y-4439451D1*
X-4541250Y-4424851D1*
Y-4415193D1*
X-4546191Y-4400593D1*
X-4555850Y-4390822D1*
X-4565620Y-4385993D1*
X-4580220D1*
X-4509877D2*
Y-4454051D1*
Y-4405422D2*
X-4495277Y-4390822D1*
X-4485506Y-4385993D1*
X-4471019D1*
X-4461248Y-4390822D1*
X-4456419Y-4405422D1*
Y-4454051D1*
Y-4405422D2*
X-4441819Y-4390822D1*
X-4432048Y-4385993D1*
X-4417560D1*
X-4407789Y-4390822D1*
X-4402848Y-4405422D1*
Y-4454051D1*
X-4371475D2*
X-4303417Y-4352076D1*
X-4194215Y-4454051D2*
X-4233186Y-4351963D1*
X-4272044Y-4454051D1*
X-4257444Y-4420022D2*
X-4208815D1*
X-4162843Y-4351963D2*
Y-4454051D1*
X-4126528Y-4385993D2*
X-4097441Y-4454051D1*
X-4107099Y-4473480D1*
X-4116870Y-4483251D1*
X-4126528Y-4488080D1*
X-4131470D1*
X-4068241Y-4385993D2*
X-4097441Y-4454051D1*
X-3983410Y-4400593D2*
X-3988239Y-4390822D1*
X-4002839Y-4385993D1*
X-4017439D1*
X-4032039Y-4390822D1*
X-4036868Y-4400593D1*
X-4032039Y-4410251D1*
X-4022268Y-4415193D1*
X-3998010Y-4420022D1*
X-3988239Y-4424851D1*
X-3983410Y-4434622D1*
Y-4439451D1*
X-3988239Y-4449110D1*
X-4002839Y-4454051D1*
X-4017439D1*
X-4032039Y-4449110D1*
X-4036868Y-4439451D1*
X-3898579Y-4400593D2*
X-3903408Y-4390822D1*
X-3918008Y-4385993D1*
X-3932608D1*
X-3947208Y-4390822D1*
X-3952037Y-4400593D1*
X-3947208Y-4410251D1*
X-3937437Y-4415193D1*
X-3913179Y-4420022D1*
X-3903408Y-4424851D1*
X-3898579Y-4434622D1*
Y-4439451D1*
X-3903408Y-4449110D1*
X-3918008Y-4454051D1*
X-3932608D1*
X-3947208Y-4449110D1*
X-3952037Y-4439451D1*
X-3842948Y-4385993D2*
X-3852606Y-4390822D1*
X-3862377Y-4400593D1*
X-3867206Y-4415193D1*
Y-4424851D1*
X-3862377Y-4439451D1*
X-3852606Y-4449110D1*
X-3842948Y-4454051D1*
X-3828348D1*
X-3818577Y-4449110D1*
X-3808919Y-4439451D1*
X-3803977Y-4424851D1*
Y-4415193D1*
X-3808919Y-4400593D1*
X-3818577Y-4390822D1*
X-3828348Y-4385993D1*
X-3842948D1*
X-3772604D2*
Y-4454051D1*
Y-4405422D2*
X-3758004Y-4390822D1*
X-3748234Y-4385993D1*
X-3733746D1*
X-3723975Y-4390822D1*
X-3719146Y-4405422D1*
Y-4454051D1*
X-3687773Y-4400593D2*
X-3644086D1*
X-3629486Y-4395651D1*
X-3624544Y-4390822D1*
X-3619715Y-4381163D1*
Y-4371393D1*
X-3624544Y-4361734D1*
X-3629486Y-4356793D1*
X-3644086Y-4351963D1*
X-3687773D1*
Y-4454051D1*
X-3653744Y-4400593D2*
X-3619715Y-4454051D1*
X-3564084Y-4385993D2*
X-3573742Y-4390822D1*
X-3583513Y-4400593D1*
X-3588342Y-4415193D1*
Y-4424851D1*
X-3583513Y-4439451D1*
X-3573742Y-4449110D1*
X-3564084Y-4454051D1*
X-3549484D1*
X-3539713Y-4449110D1*
X-3530055Y-4439451D1*
X-3525113Y-4424851D1*
Y-4415193D1*
X-3530055Y-4400593D1*
X-3539713Y-4390822D1*
X-3549484Y-4385993D1*
X-3564084D1*
X-3493741D2*
X-3474311Y-4454051D1*
X-3454882Y-4385993D1*
X-3435453Y-4454051D1*
X-3416024Y-4385993D1*
X-3326363D2*
Y-4454051D1*
Y-4400593D2*
X-3336022Y-4390822D1*
X-3345793Y-4385993D1*
X-3360280D1*
X-3370051Y-4390822D1*
X-3379710Y-4400593D1*
X-3384651Y-4415193D1*
Y-4424851D1*
X-3379710Y-4439451D1*
X-3370051Y-4449110D1*
X-3360280Y-4454051D1*
X-3345793D1*
X-3336022Y-4449110D1*
X-3326363Y-4439451D1*
X-3294991Y-4385993D2*
Y-4454051D1*
Y-4405422D2*
X-3280391Y-4390822D1*
X-3270620Y-4385993D1*
X-3256132D1*
X-3246362Y-4390822D1*
X-3241532Y-4405422D1*
Y-4454051D1*
X-3210160D2*
X-3142101Y-4352076D1*
X-3033012Y-4454051D2*
Y-4351963D1*
X-3071870Y-4454051D1*
X-3110729Y-4351963D1*
Y-4454051D1*
X-2928752Y-4376222D2*
X-2933581Y-4366563D1*
X-2943352Y-4356793D1*
X-2953010Y-4351963D1*
X-2972439D1*
X-2982210Y-4356793D1*
X-2991869Y-4366563D1*
X-2996810Y-4376222D1*
X-3001639Y-4390822D1*
Y-4415193D1*
X-2996810Y-4429680D1*
X-2991869Y-4439451D1*
X-2982210Y-4449110D1*
X-2972439Y-4454051D1*
X-2953010D1*
X-2943352Y-4449110D1*
X-2933581Y-4439451D1*
X-2928752Y-4429680D1*
X-2829321Y-4366563D2*
X-2838979Y-4356793D1*
X-2853579Y-4351963D1*
X-2873008D1*
X-2887608Y-4356793D1*
X-2897379Y-4366563D1*
Y-4376222D1*
X-2892438Y-4385993D1*
X-2887608Y-4390822D1*
X-2877950Y-4395651D1*
X-2848750Y-4405422D1*
X-2838979Y-4410251D1*
X-2834150Y-4415193D1*
X-2829321Y-4424851D1*
Y-4439451D1*
X-2838979Y-4449110D1*
X-2853579Y-4454051D1*
X-2873008D1*
X-2887608Y-4449110D1*
X-2897379Y-4439451D1*
X-2797948Y-4403063D2*
X-2741794D1*
X-2652134Y-4352076D2*
X-2700651D1*
X-2705480Y-4395763D1*
X-2700651Y-4390934D1*
X-2686051Y-4385993D1*
X-2671563D1*
X-2656963Y-4390934D1*
X-2647193Y-4400593D1*
X-2642363Y-4415193D1*
Y-4424851D1*
X-2647193Y-4439451D1*
X-2656963Y-4449222D1*
X-2671563Y-4454051D1*
X-2686051D1*
X-2700651Y-4449222D1*
X-2705480Y-4444280D1*
X-2710422Y-4434622D1*
X-2610991Y-4371505D2*
X-2601220Y-4366563D1*
X-2586620Y-4352076D1*
Y-4454051D1*
X-2555247Y-4403063D2*
X-2499094D1*
X-2390004Y-4454051D2*
Y-4351963D1*
X-2428863Y-4454051D1*
X-2467721Y-4351963D1*
Y-4454051D1*
X-2334373Y-4385993D2*
X-2344032Y-4390822D1*
X-2353802Y-4400593D1*
X-2358632Y-4415193D1*
Y-4424851D1*
X-2353802Y-4439451D1*
X-2344032Y-4449110D1*
X-2334373Y-4454051D1*
X-2319773D1*
X-2310002Y-4449110D1*
X-2300344Y-4439451D1*
X-2295402Y-4424851D1*
Y-4415193D1*
X-2300344Y-4400593D1*
X-2310002Y-4390822D1*
X-2319773Y-4385993D1*
X-2334373D1*
X-2205742Y-4351963D2*
Y-4454051D1*
Y-4400593D2*
X-2215401Y-4390822D1*
X-2225171Y-4385993D1*
X-2239771D1*
X-2249430Y-4390822D1*
X-2259201Y-4400593D1*
X-2264030Y-4415193D1*
Y-4424851D1*
X-2259201Y-4439451D1*
X-2249430Y-4449110D1*
X-2239771Y-4454051D1*
X-2225171D1*
X-2215401Y-4449110D1*
X-2205742Y-4439451D1*
X-2174370Y-4385993D2*
Y-4434622D1*
X-2169540Y-4449110D1*
X-2159770Y-4454051D1*
X-2145170D1*
X-2135511Y-4449110D1*
X-2120911Y-4434622D1*
Y-4385993D2*
Y-4454051D1*
X-2089539Y-4351963D2*
Y-4454051D1*
X-1999878Y-4385993D2*
Y-4454051D1*
Y-4400593D2*
X-2009537Y-4390822D1*
X-2019308Y-4385993D1*
X-2033795D1*
X-2043566Y-4390822D1*
X-2053224Y-4400593D1*
X-2058166Y-4415193D1*
Y-4424851D1*
X-2053224Y-4439451D1*
X-2043566Y-4449110D1*
X-2033795Y-4454051D1*
X-2019308D1*
X-2009537Y-4449110D1*
X-1999878Y-4439451D1*
X-1968506Y-4385993D2*
Y-4454051D1*
Y-4415193D2*
X-1963564Y-4400593D1*
X-1953906Y-4390822D1*
X-1944135Y-4385993D1*
X-1929535D1*
X-1898162Y-4403063D2*
X-1842009D1*
X-1737748Y-4376222D2*
X-1742578Y-4366563D1*
X-1752348Y-4356793D1*
X-1762007Y-4351963D1*
X-1781436D1*
X-1791207Y-4356793D1*
X-1800865Y-4366563D1*
X-1805807Y-4376222D1*
X-1810636Y-4390822D1*
Y-4415193D1*
X-1805807Y-4429680D1*
X-1800865Y-4439451D1*
X-1791207Y-4449110D1*
X-1781436Y-4454051D1*
X-1762007D1*
X-1752348Y-4449110D1*
X-1742578Y-4439451D1*
X-1737748Y-4429680D1*
X-1682117Y-4385993D2*
X-1691776Y-4390822D1*
X-1701547Y-4400593D1*
X-1706376Y-4415193D1*
Y-4424851D1*
X-1701547Y-4439451D1*
X-1691776Y-4449110D1*
X-1682117Y-4454051D1*
X-1667517D1*
X-1657747Y-4449110D1*
X-1648088Y-4439451D1*
X-1643147Y-4424851D1*
Y-4415193D1*
X-1648088Y-4400593D1*
X-1657747Y-4390822D1*
X-1667517Y-4385993D1*
X-1682117D1*
X-1611774D2*
Y-4454051D1*
Y-4405422D2*
X-1597174Y-4390822D1*
X-1587403Y-4385993D1*
X-1572916D1*
X-1563145Y-4390822D1*
X-1558316Y-4405422D1*
Y-4454051D1*
Y-4405422D2*
X-1543716Y-4390822D1*
X-1533945Y-4385993D1*
X-1519457D1*
X-1509686Y-4390822D1*
X-1504745Y-4405422D1*
Y-4454051D1*
X-1473372Y-4385993D2*
Y-4488080D1*
Y-4400593D2*
X-1463601Y-4390934D1*
X-1453943Y-4385993D1*
X-1439343D1*
X-1429572Y-4390934D1*
X-1419914Y-4400593D1*
X-1414972Y-4415193D1*
Y-4424963D1*
X-1419914Y-4439451D1*
X-1429572Y-4449222D1*
X-1439343Y-4454051D1*
X-1453943D1*
X-1463601Y-4449222D1*
X-1473372Y-4439451D1*
X-1383600Y-4385993D2*
Y-4434622D1*
X-1378770Y-4449110D1*
X-1369000Y-4454051D1*
X-1354400D1*
X-1344741Y-4449110D1*
X-1330141Y-4434622D1*
Y-4385993D2*
Y-4454051D1*
X-1284169Y-4351963D2*
Y-4434622D1*
X-1279339Y-4449110D1*
X-1269569Y-4454051D1*
X-1259910D1*
X-1298769Y-4385993D2*
X-1264739D1*
X-1228538Y-4415193D2*
X-1170250D1*
Y-4405422D1*
X-1175079Y-4395651D1*
X-1179908Y-4390822D1*
X-1189679Y-4385993D1*
X-1204279D1*
X-1213938Y-4390822D1*
X-1223708Y-4400593D1*
X-1228538Y-4415193D1*
Y-4424851D1*
X-1223708Y-4439451D1*
X-1213938Y-4449110D1*
X-1204279Y-4454051D1*
X-1189679D1*
X-1179908Y-4449110D1*
X-1170250Y-4439451D1*
X-1138877Y-4385993D2*
Y-4454051D1*
Y-4415193D2*
X-1133936Y-4400593D1*
X-1124277Y-4390822D1*
X-1114507Y-4385993D1*
X-1099907D1*
X-7091575Y754910D2*
D78*
X-7188721D1*
X-7206971Y760946D1*
X-7213008Y767123D1*
X-7219185Y779196D1*
Y791410D1*
X-7213008Y803483D1*
X-7206971Y809519D1*
X-7188721Y815696D1*
X-7176648D1*
X-7219185Y618548D2*
X-7091575D1*
X-7219185Y667121D1*
X-7091575Y715694D1*
X-7219185D1*
X-7158398Y579332D2*
Y524582D1*
X-7152362Y506472D1*
X-7146185Y500295D1*
X-7134112Y494259D1*
X-7115862D1*
X-7103789Y500295D1*
X-7097612Y506472D1*
X-7091575Y524582D1*
Y579332D1*
X-7219185D1*
X-7116002Y331597D2*
X-7109825Y319383D1*
X-7091715Y301133D1*
X-7219185D1*
X-7091575Y4215660D2*
X-7188721D1*
X-7206971Y4221696D1*
X-7213008Y4227873D1*
X-7219185Y4239946D1*
Y4252160D1*
X-7213008Y4264233D1*
X-7206971Y4270269D1*
X-7188721Y4276446D1*
X-7176648D1*
X-7219185Y4079298D2*
X-7091575D1*
X-7219185Y4127871D1*
X-7091575Y4176444D1*
X-7219185D1*
X-7158398Y4040082D2*
Y3985332D1*
X-7152362Y3967222D1*
X-7146185Y3961045D1*
X-7134112Y3955009D1*
X-7115862D1*
X-7103789Y3961045D1*
X-7097612Y3967222D1*
X-7091575Y3985332D1*
Y4040082D1*
X-7219185D1*
X-7122039Y3786170D2*
X-7116002D1*
X-7103789Y3780133D1*
X-7097752Y3774097D1*
X-7091715Y3761883D1*
Y3737597D1*
X-7097752Y3725524D1*
X-7103789Y3719487D1*
X-7116002Y3713310D1*
X-7128075D1*
X-7140289Y3719487D1*
X-7158398Y3731560D1*
X-7219185Y3792347D1*
Y3707274D1*
X-7091575Y3453660D2*
X-7188721D1*
X-7206971Y3459696D1*
X-7213008Y3465873D1*
X-7219185Y3477946D1*
Y3490160D1*
X-7213008Y3502233D1*
X-7206971Y3508269D1*
X-7188721Y3514446D1*
X-7176648D1*
X-7219185Y3317298D2*
X-7091575D1*
X-7219185Y3365871D1*
X-7091575Y3414444D1*
X-7219185D1*
X-7158398Y3278082D2*
Y3223332D1*
X-7152362Y3205222D1*
X-7146185Y3199045D1*
X-7134112Y3193009D1*
X-7115862D1*
X-7103789Y3199045D1*
X-7097612Y3205222D1*
X-7091575Y3223332D1*
Y3278082D1*
X-7219185D1*
X-7091715Y3018133D2*
Y2951451D1*
X-7140289Y2987810D1*
Y2969560D1*
X-7146325Y2957487D1*
X-7152362Y2951451D1*
X-7170612Y2945274D1*
X-7182685D1*
X-7200935Y2951451D1*
X-7213148Y2963524D1*
X-7219185Y2981774D1*
Y3000024D1*
X-7213148Y3018133D1*
X-7206971Y3024170D1*
X-7194898Y3030347D1*
X-7091575Y2691660D2*
X-7188721D1*
X-7206971Y2697696D1*
X-7213008Y2703873D1*
X-7219185Y2715946D1*
Y2728160D1*
X-7213008Y2740233D1*
X-7206971Y2746269D1*
X-7188721Y2752446D1*
X-7176648D1*
X-7219185Y2555298D2*
X-7091575D1*
X-7219185Y2603871D1*
X-7091575Y2652444D1*
X-7219185D1*
X-7158398Y2516082D2*
Y2461332D1*
X-7152362Y2443222D1*
X-7146185Y2437045D1*
X-7134112Y2431009D1*
X-7115862D1*
X-7103789Y2437045D1*
X-7097612Y2443222D1*
X-7091575Y2461332D1*
Y2516082D1*
X-7219185D1*
Y2207560D2*
X-7091715D1*
X-7176648Y2268347D1*
Y2177237D1*
X-7091575Y1929660D2*
X-7188721D1*
X-7206971Y1935696D1*
X-7213008Y1941873D1*
X-7219185Y1953946D1*
Y1966160D1*
X-7213008Y1978233D1*
X-7206971Y1984269D1*
X-7188721Y1990446D1*
X-7176648D1*
X-7219185Y1793298D2*
X-7091575D1*
X-7219185Y1841871D1*
X-7091575Y1890444D1*
X-7219185D1*
X-7158398Y1754082D2*
Y1699332D1*
X-7152362Y1681222D1*
X-7146185Y1675045D1*
X-7134112Y1669009D1*
X-7115862D1*
X-7103789Y1675045D1*
X-7097612Y1681222D1*
X-7091575Y1699332D1*
Y1754082D1*
X-7219185D1*
X-7091715Y1433487D2*
Y1494133D1*
X-7146325Y1500170D1*
X-7140289Y1494133D1*
X-7134112Y1475883D1*
Y1457774D1*
X-7140289Y1439524D1*
X-7152362Y1427310D1*
X-7170612Y1421274D1*
X-7182685D1*
X-7200935Y1427310D1*
X-7213148Y1439524D1*
X-7219185Y1457774D1*
Y1475883D1*
X-7213148Y1494133D1*
X-7206971Y1500170D1*
X-7194898Y1506347D1*
X-6834337Y176611D2*
D79*
X-6828160Y164398D1*
X-6810050Y146148D1*
X-6937520D1*
X-6840374Y868934D2*
X-6834337D1*
X-6822124Y862898D1*
X-6816087Y856861D1*
X-6810050Y844648D1*
Y820361D1*
X-6816087Y808288D1*
X-6822124Y802251D1*
X-6834337Y796075D1*
X-6846410D1*
X-6858624Y802251D1*
X-6876733Y814325D1*
X-6937520Y875111D1*
Y790038D1*
X-6612087Y2018111D2*
X-6605910Y2005898D1*
X-6587800Y1987648D1*
X-6715270D1*
X-6840374Y1472184D2*
X-6834337D1*
X-6822124Y1466148D1*
X-6816087Y1460111D1*
X-6810050Y1447898D1*
Y1423611D1*
X-6816087Y1411538D1*
X-6822124Y1405501D1*
X-6834337Y1399325D1*
X-6846410D1*
X-6858624Y1405501D1*
X-6876733Y1417575D1*
X-6937520Y1478361D1*
Y1393288D1*
X-6612087Y2780111D2*
X-6605910Y2767898D1*
X-6587800Y2749648D1*
X-6715270D1*
X-6840374Y2234184D2*
X-6834337D1*
X-6822124Y2228148D1*
X-6816087Y2222111D1*
X-6810050Y2209898D1*
Y2185611D1*
X-6816087Y2173538D1*
X-6822124Y2167501D1*
X-6834337Y2161325D1*
X-6846410D1*
X-6858624Y2167501D1*
X-6876733Y2179575D1*
X-6937520Y2240361D1*
Y2155288D1*
X-6643837Y3542111D2*
X-6637660Y3529898D1*
X-6619550Y3511648D1*
X-6747020D1*
X-6872124Y2996184D2*
X-6866087D1*
X-6853874Y2990148D1*
X-6847837Y2984111D1*
X-6841800Y2971898D1*
Y2947611D1*
X-6847837Y2935538D1*
X-6853874Y2929501D1*
X-6866087Y2923325D1*
X-6878160D1*
X-6890374Y2929501D1*
X-6908483Y2941575D1*
X-6969270Y3002361D1*
Y2917288D1*
X-6580337Y4304111D2*
X-6574160Y4291898D1*
X-6556050Y4273648D1*
X-6683520D1*
X-6808624Y3758184D2*
X-6802587D1*
X-6790374Y3752148D1*
X-6784337Y3746111D1*
X-6778300Y3733898D1*
Y3709611D1*
X-6784337Y3697538D1*
X-6790374Y3691501D1*
X-6802587Y3685325D1*
X-6814660D1*
X-6826874Y3691501D1*
X-6844983Y3703575D1*
X-6905770Y3764361D1*
Y3679288D1*
X-6347010Y-1487528D2*
X-6219400D1*
X-6347010Y-1438955D1*
X-6219400Y-1390382D1*
X-6347010D1*
X-6249723Y-1634194D2*
X-6237650Y-1628157D1*
X-6225437Y-1615944D1*
X-6219400Y-1603870D1*
Y-1579584D1*
X-6225437Y-1567370D1*
X-6237650Y-1555297D1*
X-6249723Y-1549120D1*
X-6267973Y-1543084D1*
X-6298437D1*
X-6316546Y-1549120D1*
X-6328760Y-1555297D1*
X-6340833Y-1567370D1*
X-6347010Y-1579584D1*
Y-1603870D1*
X-6340833Y-1615944D1*
X-6328760Y-1628157D1*
X-6316546Y-1634194D1*
X-6237650Y-1774822D2*
X-6225437Y-1762749D1*
X-6219400Y-1744499D1*
Y-1720213D1*
X-6225437Y-1701963D1*
X-6237650Y-1689749D1*
X-6249723D1*
X-6261937Y-1695926D1*
X-6267973Y-1701963D1*
X-6274010Y-1714036D1*
X-6286223Y-1750536D1*
X-6292260Y-1762749D1*
X-6298437Y-1768786D1*
X-6310510Y-1774822D1*
X-6328760D1*
X-6340833Y-1762749D1*
X-6347010Y-1744499D1*
Y-1720213D1*
X-6340833Y-1701963D1*
X-6328760Y-1689749D1*
X-6283275Y-1830378D2*
Y-1900570D1*
X-6219540Y-2028985D2*
Y-1968339D1*
X-6274150Y-1962303D1*
X-6268114Y-1968339D1*
X-6261937Y-1986589D1*
Y-2004699D1*
X-6268114Y-2022949D1*
X-6280187Y-2035162D1*
X-6298437Y-2041199D1*
X-6310510D1*
X-6328760Y-2035162D1*
X-6340973Y-2022949D1*
X-6347010Y-2004699D1*
Y-1986589D1*
X-6340973Y-1968339D1*
X-6334796Y-1962303D1*
X-6322723Y-1956126D1*
X-6243827Y-2096754D2*
X-6237650Y-2108968D1*
X-6219540Y-2127218D1*
X-6347010D1*
Y-2419706D2*
X-6219400D1*
X-6347010Y-2371133D1*
X-6219400Y-2322560D1*
X-6347010D1*
X-6261937Y-2505584D2*
X-6267973Y-2493511D1*
X-6280187Y-2481298D1*
X-6298437Y-2475261D1*
X-6310510D1*
X-6328760Y-2481298D1*
X-6340833Y-2493511D1*
X-6347010Y-2505584D1*
Y-2523834D1*
X-6340833Y-2536048D1*
X-6328760Y-2548121D1*
X-6310510Y-2554298D1*
X-6298437D1*
X-6280187Y-2548121D1*
X-6267973Y-2536048D1*
X-6261937Y-2523834D1*
Y-2505584D1*
X-6219400Y-2682713D2*
X-6347010D1*
X-6280187D2*
X-6267973Y-2670640D1*
X-6261937Y-2658426D1*
Y-2640176D1*
X-6267973Y-2628103D1*
X-6280187Y-2615890D1*
X-6298437Y-2609853D1*
X-6310510D1*
X-6328760Y-2615890D1*
X-6340833Y-2628103D1*
X-6347010Y-2640176D1*
Y-2658426D1*
X-6340833Y-2670640D1*
X-6328760Y-2682713D1*
X-6261937Y-2738269D2*
X-6322723D1*
X-6340833Y-2744305D1*
X-6347010Y-2756519D1*
Y-2774769D1*
X-6340833Y-2786842D1*
X-6322723Y-2805092D1*
X-6261937D2*
X-6347010D1*
X-6219400Y-2860647D2*
X-6347010D1*
X-6261937Y-2989062D2*
X-6347010D1*
X-6280187D2*
X-6267973Y-2976989D1*
X-6261937Y-2964776D1*
Y-2946666D1*
X-6267973Y-2934453D1*
X-6280187Y-2922380D1*
X-6298437Y-2916203D1*
X-6310510D1*
X-6328760Y-2922380D1*
X-6340833Y-2934453D1*
X-6347010Y-2946666D1*
Y-2964776D1*
X-6340833Y-2976989D1*
X-6328760Y-2989062D1*
X-6261937Y-3044618D2*
X-6347010D1*
X-6298437D2*
X-6280187Y-3050795D1*
X-6267973Y-3062868D1*
X-6261937Y-3075081D1*
Y-3093331D1*
X-6249723Y-3379783D2*
X-6237650Y-3373746D1*
X-6225437Y-3361533D1*
X-6219400Y-3349460D1*
Y-3325173D1*
X-6225437Y-3312960D1*
X-6237650Y-3300887D1*
X-6249723Y-3294710D1*
X-6267973Y-3288673D1*
X-6298437D1*
X-6316546Y-3294710D1*
X-6328760Y-3300887D1*
X-6340833Y-3312960D1*
X-6347010Y-3325173D1*
Y-3349460D1*
X-6340833Y-3361533D1*
X-6328760Y-3373746D1*
X-6316546Y-3379783D1*
X-6261937Y-3465661D2*
X-6267973Y-3453588D1*
X-6280187Y-3441375D1*
X-6298437Y-3435338D1*
X-6310510D1*
X-6328760Y-3441375D1*
X-6340833Y-3453588D1*
X-6347010Y-3465661D1*
Y-3483911D1*
X-6340833Y-3496125D1*
X-6328760Y-3508198D1*
X-6310510Y-3514375D1*
X-6298437D1*
X-6280187Y-3508198D1*
X-6267973Y-3496125D1*
X-6261937Y-3483911D1*
Y-3465661D1*
Y-3569931D2*
X-6347010D1*
X-6286223D2*
X-6267973Y-3588181D1*
X-6261937Y-3600394D1*
Y-3618504D1*
X-6267973Y-3630717D1*
X-6286223Y-3636754D1*
X-6347010D1*
X-6286223D2*
X-6267973Y-3655004D1*
X-6261937Y-3667217D1*
Y-3685327D1*
X-6267973Y-3697540D1*
X-6286223Y-3703717D1*
X-6347010D1*
X-6261937Y-3759273D2*
X-6389546D1*
X-6280187D2*
X-6268114Y-3771486D1*
X-6261937Y-3783559D1*
Y-3801809D1*
X-6268114Y-3814023D1*
X-6280187Y-3826096D1*
X-6298437Y-3832273D1*
X-6310650D1*
X-6328760Y-3826096D1*
X-6340973Y-3814023D1*
X-6347010Y-3801809D1*
Y-3783559D1*
X-6340973Y-3771486D1*
X-6328760Y-3759273D1*
X-6261937Y-3887828D2*
X-6322723D1*
X-6340833Y-3893865D1*
X-6347010Y-3906078D1*
Y-3924328D1*
X-6340833Y-3936401D1*
X-6322723Y-3954651D1*
X-6261937D2*
X-6347010D1*
X-6219400Y-4028457D2*
X-6322723D1*
X-6340833Y-4034493D1*
X-6347010Y-4046707D1*
Y-4058780D1*
X-6261937Y-4010207D2*
Y-4052743D1*
X-6298437Y-4114335D2*
Y-4187195D1*
X-6286223D1*
X-6274010Y-4181159D1*
X-6267973Y-4175122D1*
X-6261937Y-4162909D1*
Y-4144659D1*
X-6267973Y-4132585D1*
X-6280187Y-4120372D1*
X-6298437Y-4114335D1*
X-6310510D1*
X-6328760Y-4120372D1*
X-6340833Y-4132585D1*
X-6347010Y-4144659D1*
Y-4162909D1*
X-6340833Y-4175122D1*
X-6328760Y-4187195D1*
X-6261937Y-4242751D2*
X-6347010D1*
X-6298437D2*
X-6280187Y-4248928D1*
X-6267973Y-4261001D1*
X-6261937Y-4273214D1*
Y-4291464D1*
X-6870822Y-1533307D2*
D78*
X-6998431D1*
X-6870822Y-1618380D2*
X-6998431D1*
X-6931608Y-1533307D2*
Y-1618380D1*
X-6998431Y-1754742D2*
X-6870822D1*
X-6998431Y-1706169D1*
X-6870822Y-1657596D1*
X-6998431D1*
X-6901145Y-1885067D2*
X-6889072Y-1879031D1*
X-6876858Y-1866817D1*
X-6870822Y-1854744D1*
Y-1830458D1*
X-6876858Y-1818244D1*
X-6889072Y-1806171D1*
X-6901145Y-1799994D1*
X-6919395Y-1793958D1*
X-6949858D1*
X-6967968Y-1799994D1*
X-6980181Y-1806171D1*
X-6992254Y-1818244D1*
X-6998431Y-1830458D1*
Y-1854744D1*
X-6992254Y-1866817D1*
X-6980181Y-1879031D1*
X-6967968Y-1885067D1*
X-6934697Y-1924283D2*
Y-1994475D1*
X-6998431Y-2130837D2*
X-6870822D1*
X-6998431Y-2082264D1*
X-6870822Y-2033691D1*
X-6998431D1*
Y-2267199D2*
X-6870822D1*
X-6998431Y-2218626D1*
X-6870822Y-2170053D1*
X-6998431D1*
X-6870822Y-2306415D2*
X-6998431D1*
Y-2361165D1*
X-6992254Y-2379415D1*
X-6986218Y-2385451D1*
X-6974145Y-2391488D1*
X-6955895D1*
X-6943681Y-2385451D1*
X-6937645Y-2379415D1*
X-6931608Y-2361165D1*
X-6925431Y-2379415D1*
X-6919395Y-2385451D1*
X-6907322Y-2391488D1*
X-6895108D1*
X-6883035Y-2385451D1*
X-6876858Y-2379415D1*
X-6870822Y-2361165D1*
Y-2306415D1*
X-6931608D2*
Y-2361165D1*
X-6934697Y-2430704D2*
Y-2500896D1*
X-6901285Y-2546289D2*
X-6895249D1*
X-6883035Y-2552325D1*
X-6876999Y-2558362D1*
X-6870962Y-2570575D1*
Y-2594862D1*
X-6876999Y-2606935D1*
X-6883035Y-2612971D1*
X-6895249Y-2619148D1*
X-6907322D1*
X-6919535Y-2612971D1*
X-6937645Y-2600898D1*
X-6998431Y-2540112D1*
Y-2625185D1*
X-6870822Y-2911293D2*
X-6998431Y-2959866D1*
X-6870822Y-3008439D1*
X-6895249Y-3047655D2*
X-6889072Y-3059869D1*
X-6870962Y-3078119D1*
X-6998431D1*
X-6986218Y-3123371D2*
X-6992395Y-3117334D1*
X-6998431Y-3123371D1*
X-6992395Y-3129548D1*
X-6986218Y-3123371D1*
X-6870962Y-3205263D2*
X-6876999Y-3187013D1*
X-6895249Y-3174800D1*
X-6925572Y-3168763D1*
X-6943822D1*
X-6974145Y-3174800D1*
X-6992395Y-3187013D1*
X-6998431Y-3205263D1*
Y-3217336D1*
X-6992395Y-3235586D1*
X-6974145Y-3247660D1*
X-6943822Y-3253836D1*
X-6925572D1*
X-6895249Y-3247660D1*
X-6876999Y-3235586D1*
X-6870962Y-3217336D1*
Y-3205263D1*
X-6895249Y-3247660D2*
X-6974145Y-3174800D1*
X-6870962Y-3329552D2*
X-6876999Y-3311302D1*
X-6895249Y-3299089D1*
X-6925572Y-3293052D1*
X-6943822D1*
X-6974145Y-3299089D1*
X-6992395Y-3311302D1*
X-6998431Y-3329552D1*
Y-3341625D1*
X-6992395Y-3359875D1*
X-6974145Y-3371948D1*
X-6943822Y-3378125D1*
X-6925572D1*
X-6895249Y-3371948D1*
X-6876999Y-3359875D1*
X-6870962Y-3341625D1*
Y-3329552D1*
X-6895249Y-3371948D2*
X-6974145Y-3299089D1*
X-6870822Y-3601574D2*
X-6967968D1*
X-6986218Y-3595537D1*
X-6992254Y-3589360D1*
X-6998431Y-3577287D1*
Y-3565074D1*
X-6992254Y-3553001D1*
X-6986218Y-3546964D1*
X-6967968Y-3540787D1*
X-6955895D1*
X-6913358Y-3640790D2*
X-6974145D1*
X-6992254Y-3646826D1*
X-6998431Y-3659040D1*
Y-3677290D1*
X-6992254Y-3689363D1*
X-6974145Y-3707613D1*
X-6913358D2*
X-6998431D1*
X-6870822Y-3746828D2*
X-6998431D1*
X-6913358Y-3792221D2*
X-6998431Y-3828581D1*
X-7022718Y-3816508D1*
X-7034931Y-3804294D1*
X-7040968Y-3792221D1*
Y-3786044D1*
X-6913358Y-3865081D2*
X-6998431Y-3828581D1*
X-6901285Y-4033920D2*
X-6895249D1*
X-6883035Y-4039956D1*
X-6876999Y-4045993D1*
X-6870962Y-4058206D1*
Y-4082493D1*
X-6876999Y-4094566D1*
X-6883035Y-4100602D1*
X-6895249Y-4106779D1*
X-6907322D1*
X-6919535Y-4100602D1*
X-6937645Y-4088529D1*
X-6998431Y-4027743D1*
Y-4112816D1*
X-6870962Y-4188532D2*
X-6876999Y-4170282D1*
X-6895249Y-4158068D1*
X-6925572Y-4152032D1*
X-6943822D1*
X-6974145Y-4158068D1*
X-6992395Y-4170282D1*
X-6998431Y-4188532D1*
Y-4200605D1*
X-6992395Y-4218855D1*
X-6974145Y-4230928D1*
X-6943822Y-4237105D1*
X-6925572D1*
X-6895249Y-4230928D1*
X-6876999Y-4218855D1*
X-6870962Y-4200605D1*
Y-4188532D1*
X-6895249Y-4230928D2*
X-6974145Y-4158068D1*
X-6870962Y-4312820D2*
X-6876999Y-4294570D1*
X-6895249Y-4282357D1*
X-6925572Y-4276320D1*
X-6943822D1*
X-6974145Y-4282357D1*
X-6992395Y-4294570D1*
X-6998431Y-4312820D1*
Y-4324893D1*
X-6992395Y-4343143D1*
X-6974145Y-4355216D1*
X-6943822Y-4361393D1*
X-6925572D1*
X-6895249Y-4355216D1*
X-6876999Y-4343143D1*
X-6870962Y-4324893D1*
Y-4312820D1*
X-6895249Y-4355216D2*
X-6974145Y-4282357D1*
X-6870962Y-4412822D2*
Y-4479505D1*
X-6919535Y-4443146D1*
Y-4461396D1*
X-6925572Y-4473469D1*
X-6931608Y-4479505D1*
X-6949858Y-4485682D1*
X-6961931D1*
X-6980181Y-4479505D1*
X-6992395Y-4467432D1*
X-6998431Y-4449182D1*
Y-4430932D1*
X-6992395Y-4412822D1*
X-6986218Y-4406786D1*
X-6974145Y-4400609D1*
X-7203965Y-1604234D2*
D80*
X-7194307Y-1599405D1*
X-7184536Y-1589634D1*
X-7179707Y-1579976D1*
Y-1560546D1*
X-7184536Y-1550776D1*
X-7194307Y-1541117D1*
X-7203965Y-1536176D1*
X-7218565Y-1531346D1*
X-7242936D1*
X-7257424Y-1536176D1*
X-7267194Y-1541117D1*
X-7276853Y-1550776D1*
X-7281794Y-1560546D1*
Y-1579976D1*
X-7276853Y-1589634D1*
X-7267194Y-1599405D1*
X-7257424Y-1604234D1*
X-7213736Y-1659865D2*
X-7218565Y-1650207D1*
X-7228336Y-1640436D1*
X-7242936Y-1635607D1*
X-7252594D1*
X-7267194Y-1640436D1*
X-7276853Y-1650207D1*
X-7281794Y-1659865D1*
Y-1674465D1*
X-7276853Y-1684236D1*
X-7267194Y-1693894D1*
X-7252594Y-1698836D1*
X-7242936D1*
X-7228336Y-1693894D1*
X-7218565Y-1684236D1*
X-7213736Y-1674465D1*
Y-1659865D1*
Y-1730208D2*
X-7315824D1*
X-7228336D2*
X-7218677Y-1739979D1*
X-7213736Y-1749638D1*
Y-1764238D1*
X-7218677Y-1774008D1*
X-7228336Y-1783667D1*
X-7242936Y-1788608D1*
X-7252707D1*
X-7267194Y-1783667D1*
X-7276965Y-1774008D1*
X-7281794Y-1764238D1*
Y-1749638D1*
X-7276965Y-1739979D1*
X-7267194Y-1730208D1*
X-7213736Y-1824923D2*
X-7281794Y-1854010D1*
X-7301224Y-1844352D1*
X-7310994Y-1834581D1*
X-7315824Y-1824923D1*
Y-1819981D1*
X-7213736Y-1883210D2*
X-7281794Y-1854010D1*
X-7213736Y-1914583D2*
X-7281794D1*
X-7242936D2*
X-7228336Y-1919524D1*
X-7218565Y-1929183D1*
X-7213736Y-1938954D1*
Y-1953554D1*
X-7179707Y-1984926D2*
X-7184536Y-1989755D1*
X-7179707Y-1994697D1*
X-7174765Y-1989755D1*
X-7179707Y-1984926D1*
X-7213736Y-1989755D2*
X-7281794D1*
X-7218565Y-2084357D2*
X-7296394D1*
X-7310882Y-2079528D1*
X-7315824Y-2074699D1*
X-7320653Y-2064928D1*
Y-2050328D1*
X-7315824Y-2040669D1*
X-7233165Y-2084357D2*
X-7223507Y-2074699D1*
X-7218565Y-2064928D1*
Y-2050328D1*
X-7223507Y-2040669D1*
X-7233165Y-2030899D1*
X-7247765Y-2026069D1*
X-7257536D1*
X-7272024Y-2030899D1*
X-7281794Y-2040669D1*
X-7286624Y-2050328D1*
Y-2064928D1*
X-7281794Y-2074699D1*
X-7272024Y-2084357D1*
X-7179707Y-2115730D2*
X-7281794D1*
X-7233165D2*
X-7218565Y-2130330D1*
X-7213736Y-2140100D1*
Y-2154700D1*
X-7218565Y-2164359D1*
X-7233165Y-2169188D1*
X-7281794D1*
X-7179707Y-2215161D2*
X-7262365D1*
X-7276853Y-2219990D1*
X-7281794Y-2229761D1*
Y-2239419D1*
X-7213736Y-2200561D2*
Y-2234590D1*
X-7153090Y-2403578D2*
X-7162748Y-2393807D1*
X-7177348Y-2384149D1*
X-7196777Y-2374378D1*
X-7221148Y-2369549D1*
X-7240577D1*
X-7264836Y-2374378D1*
X-7284265Y-2384149D1*
X-7298865Y-2393807D1*
X-7308524Y-2403578D1*
X-7228336Y-2493351D2*
X-7218565Y-2483580D1*
X-7213736Y-2473809D1*
Y-2459321D1*
X-7218565Y-2449551D1*
X-7228336Y-2439892D1*
X-7242936Y-2434951D1*
X-7252594D1*
X-7267194Y-2439892D1*
X-7276853Y-2449551D1*
X-7281794Y-2459321D1*
Y-2473809D1*
X-7276853Y-2483580D1*
X-7267194Y-2493351D1*
X-7153090Y-2524723D2*
X-7162748Y-2534494D1*
X-7177348Y-2544152D1*
X-7196777Y-2553923D1*
X-7221148Y-2558752D1*
X-7240577D1*
X-7264836Y-2553923D1*
X-7284265Y-2544152D1*
X-7298865Y-2534494D1*
X-7308524Y-2524723D1*
X-7281794Y-2766711D2*
X-7179707Y-2727741D1*
X-7281794Y-2688882D1*
X-7247765Y-2703482D2*
Y-2752111D1*
X-7179707Y-2798084D2*
X-7281794D1*
X-7213736Y-2834398D2*
X-7281794Y-2863486D1*
X-7301224Y-2853827D1*
X-7310994Y-2844056D1*
X-7315824Y-2834398D1*
Y-2829456D1*
X-7213736Y-2892686D2*
X-7281794Y-2863486D1*
X-7228336Y-2977517D2*
X-7218565Y-2972687D1*
X-7213736Y-2958087D1*
Y-2943487D1*
X-7218565Y-2928887D1*
X-7228336Y-2924058D1*
X-7237994Y-2928887D1*
X-7242936Y-2938658D1*
X-7247765Y-2962917D1*
X-7252594Y-2972687D1*
X-7262365Y-2977517D1*
X-7267194D1*
X-7276853Y-2972687D1*
X-7281794Y-2958087D1*
Y-2943487D1*
X-7276853Y-2928887D1*
X-7267194Y-2924058D1*
X-7228336Y-3062348D2*
X-7218565Y-3057519D1*
X-7213736Y-3042919D1*
Y-3028319D1*
X-7218565Y-3013719D1*
X-7228336Y-3008889D1*
X-7237994Y-3013719D1*
X-7242936Y-3023489D1*
X-7247765Y-3047748D1*
X-7252594Y-3057519D1*
X-7262365Y-3062348D1*
X-7267194D1*
X-7276853Y-3057519D1*
X-7281794Y-3042919D1*
Y-3028319D1*
X-7276853Y-3013719D1*
X-7267194Y-3008889D1*
X-7179707Y-3093720D2*
X-7281794D1*
X-7213736Y-3149351D2*
X-7218565Y-3139693D1*
X-7228336Y-3129922D1*
X-7242936Y-3125093D1*
X-7252594D1*
X-7267194Y-3129922D1*
X-7276853Y-3139693D1*
X-7281794Y-3149351D1*
Y-3163951D1*
X-7276853Y-3173722D1*
X-7267194Y-3183381D1*
X-7252594Y-3188322D1*
X-7242936D1*
X-7228336Y-3183381D1*
X-7218565Y-3173722D1*
X-7213736Y-3163951D1*
Y-3149351D1*
Y-3219695D2*
X-7281794D1*
X-7233165D2*
X-7218565Y-3234295D1*
X-7213736Y-3244065D1*
Y-3258553D1*
X-7218565Y-3268324D1*
X-7233165Y-3273153D1*
X-7281794D1*
X-7228336Y-3403283D2*
Y-3446970D1*
X-7223394Y-3461570D1*
X-7218565Y-3466512D1*
X-7208907Y-3471341D1*
X-7199136D1*
X-7189477Y-3466512D1*
X-7184536Y-3461570D1*
X-7179707Y-3446970D1*
Y-3403283D1*
X-7281794D1*
X-7228336Y-3437312D2*
X-7281794Y-3471341D1*
X-7213736Y-3526972D2*
X-7218565Y-3517314D1*
X-7228336Y-3507543D1*
X-7242936Y-3502714D1*
X-7252594D1*
X-7267194Y-3507543D1*
X-7276853Y-3517314D1*
X-7281794Y-3526972D1*
Y-3541572D1*
X-7276853Y-3551343D1*
X-7267194Y-3561001D1*
X-7252594Y-3565943D1*
X-7242936D1*
X-7228336Y-3561001D1*
X-7218565Y-3551343D1*
X-7213736Y-3541572D1*
Y-3526972D1*
Y-3597316D2*
X-7281794Y-3616745D1*
X-7213736Y-3636174D1*
X-7281794Y-3655603D1*
X-7213736Y-3675033D1*
Y-3764693D2*
X-7281794D1*
X-7228336D2*
X-7218565Y-3755034D1*
X-7213736Y-3745264D1*
Y-3730776D1*
X-7218565Y-3721005D1*
X-7228336Y-3711347D1*
X-7242936Y-3706405D1*
X-7252594D1*
X-7267194Y-3711347D1*
X-7276853Y-3721005D1*
X-7281794Y-3730776D1*
Y-3745264D1*
X-7276853Y-3755034D1*
X-7267194Y-3764693D1*
X-7213736Y-3796065D2*
X-7281794D1*
X-7233165D2*
X-7218565Y-3810665D1*
X-7213736Y-3820436D1*
Y-3834924D1*
X-7218565Y-3844695D1*
X-7233165Y-3849524D1*
X-7281794D1*
X-7276965Y-3890667D2*
X-7281794Y-3885726D1*
X-7276965Y-3880896D1*
X-7272024Y-3885726D1*
X-7276965Y-3890667D1*
X-7286624D1*
X-7296394Y-3885726D1*
X-7301224Y-3880896D1*
X-7204077Y-4025738D2*
X-7199248D1*
X-7189477Y-4030568D1*
X-7184648Y-4035397D1*
X-7179819Y-4045168D1*
Y-4064597D1*
X-7184648Y-4074255D1*
X-7189477Y-4079084D1*
X-7199248Y-4084026D1*
X-7208907D1*
X-7218677Y-4079084D1*
X-7233165Y-4069426D1*
X-7281794Y-4020797D1*
Y-4088855D1*
X-7179819Y-4149428D2*
X-7184648Y-4134828D1*
X-7199248Y-4125057D1*
X-7223507Y-4120228D1*
X-7238107D1*
X-7262365Y-4125057D1*
X-7276965Y-4134828D1*
X-7281794Y-4149428D1*
Y-4159086D1*
X-7276965Y-4173686D1*
X-7262365Y-4183345D1*
X-7238107Y-4188286D1*
X-7223507D1*
X-7199248Y-4183345D1*
X-7184648Y-4173686D1*
X-7179819Y-4159086D1*
Y-4149428D1*
X-7199248Y-4183345D2*
X-7262365Y-4125057D1*
X-7204077Y-4224600D2*
X-7199248D1*
X-7189477Y-4229430D1*
X-7184648Y-4234259D1*
X-7179819Y-4244030D1*
Y-4263459D1*
X-7184648Y-4273117D1*
X-7189477Y-4277947D1*
X-7199248Y-4282888D1*
X-7208907D1*
X-7218677Y-4277947D1*
X-7233165Y-4268288D1*
X-7281794Y-4219659D1*
Y-4287717D1*
X-7179819Y-4328861D2*
Y-4382207D1*
X-7218677Y-4353119D1*
Y-4367719D1*
X-7223507Y-4377378D1*
X-7228336Y-4382207D1*
X-7242936Y-4387148D1*
X-7252594D1*
X-7267194Y-4382207D1*
X-7276965Y-4372548D1*
X-7281794Y-4357948D1*
Y-4343348D1*
X-7276965Y-4328861D1*
X-7272024Y-4324031D1*
X-7262365Y-4319090D1*
X-9114960Y-2738072D2*
Y-2674843D1*
X-9217048D1*
X-9163589D2*
Y-2713702D1*
X-9148989Y-2793703D2*
X-9153819Y-2784045D1*
X-9163589Y-2774274D1*
X-9178189Y-2769445D1*
X-9187848D1*
X-9202448Y-2774274D1*
X-9212106Y-2784045D1*
X-9217048Y-2793703D1*
Y-2808303D1*
X-9212106Y-2818074D1*
X-9202448Y-2827733D1*
X-9187848Y-2832674D1*
X-9178189D1*
X-9163589Y-2827733D1*
X-9153819Y-2818074D1*
X-9148989Y-2808303D1*
Y-2793703D1*
Y-2864047D2*
X-9217048D1*
X-9178189D2*
X-9163589Y-2868988D1*
X-9153819Y-2878647D1*
X-9148989Y-2888417D1*
Y-2903017D1*
Y-3033147D2*
X-9197619D1*
X-9212106Y-3037976D1*
X-9217048Y-3047747D1*
Y-3062347D1*
X-9212106Y-3072006D1*
X-9197619Y-3086606D1*
X-9148989D2*
X-9217048D1*
X-9163589Y-3171437D2*
X-9153819Y-3166607D1*
X-9148989Y-3152007D1*
Y-3137407D1*
X-9153819Y-3122807D1*
X-9163589Y-3117978D1*
X-9173248Y-3122807D1*
X-9178189Y-3132578D1*
X-9183019Y-3156837D1*
X-9187848Y-3166607D1*
X-9197619Y-3171437D1*
X-9202448D1*
X-9212106Y-3166607D1*
X-9217048Y-3152007D1*
Y-3137407D1*
X-9212106Y-3122807D1*
X-9202448Y-3117978D1*
X-9178189Y-3202809D2*
Y-3261097D1*
X-9168419D1*
X-9158648Y-3256268D1*
X-9153819Y-3251438D1*
X-9148989Y-3241668D1*
Y-3227068D1*
X-9153819Y-3217409D1*
X-9163589Y-3207638D1*
X-9178189Y-3202809D1*
X-9187848D1*
X-9202448Y-3207638D1*
X-9212106Y-3217409D1*
X-9217048Y-3227068D1*
Y-3241668D1*
X-9212106Y-3251438D1*
X-9202448Y-3261097D1*
X-9114960Y-3391227D2*
X-9217048Y-3415597D1*
X-9114960Y-3439856D1*
X-9217048Y-3464114D1*
X-9114960Y-3488485D1*
Y-3519858D2*
X-9217048D1*
X-9114960Y-3585259D2*
X-9217048D1*
X-9114960Y-3551230D2*
Y-3619289D1*
Y-3650661D2*
X-9217048D1*
X-9114960Y-3718720D2*
X-9217048D1*
X-9163589Y-3650661D2*
Y-3718720D1*
X-9114960Y-3779292D2*
X-9119789Y-3769521D1*
X-9129560Y-3759863D1*
X-9139219Y-3754921D1*
X-9153819Y-3750092D1*
X-9178189D1*
X-9192677Y-3754921D1*
X-9202448Y-3759863D1*
X-9212106Y-3769521D1*
X-9217048Y-3779292D1*
Y-3798721D1*
X-9212106Y-3808380D1*
X-9202448Y-3818151D1*
X-9192677Y-3822980D1*
X-9178189Y-3827809D1*
X-9153819D1*
X-9139219Y-3822980D1*
X-9129560Y-3818151D1*
X-9119789Y-3808380D1*
X-9114960Y-3798721D1*
Y-3779292D1*
Y-3859182D2*
X-9187848D1*
X-9202448Y-3864011D1*
X-9212106Y-3873782D1*
X-9217048Y-3888382D1*
Y-3898040D1*
X-9212106Y-3912640D1*
X-9202448Y-3922411D1*
X-9187848Y-3927240D1*
X-9114960D1*
Y-3992642D2*
X-9217048D1*
X-9114960Y-3958613D2*
Y-4026671D1*
Y-4156801D2*
X-9217048D1*
X-9163589D2*
X-9153819Y-4166572D1*
X-9148989Y-4176230D1*
Y-4190830D1*
X-9153819Y-4200489D1*
X-9163589Y-4210259D1*
X-9178189Y-4215089D1*
X-9187848D1*
X-9202448Y-4210259D1*
X-9212106Y-4200489D1*
X-9217048Y-4190830D1*
Y-4176230D1*
X-9212106Y-4166572D1*
X-9202448Y-4156801D1*
X-9148989Y-4304749D2*
X-9217048D1*
X-9163589D2*
X-9153819Y-4295090D1*
X-9148989Y-4285320D1*
Y-4270832D1*
X-9153819Y-4261061D1*
X-9163589Y-4251403D1*
X-9178189Y-4246461D1*
X-9187848D1*
X-9202448Y-4251403D1*
X-9212106Y-4261061D1*
X-9217048Y-4270832D1*
Y-4285320D1*
X-9212106Y-4295090D1*
X-9202448Y-4304749D1*
X-9114960Y-4350721D2*
X-9197619D1*
X-9212106Y-4355551D1*
X-9217048Y-4365321D1*
Y-4374980D1*
X-9148989Y-4336121D2*
Y-4370151D1*
X-9114960Y-4420952D2*
X-9197619D1*
X-9212106Y-4425782D1*
X-9217048Y-4435552D1*
Y-4445211D1*
X-9148989Y-4406352D2*
Y-4440382D1*
X-9178189Y-4476583D2*
Y-4534871D1*
X-9168419D1*
X-9158648Y-4530042D1*
X-9153819Y-4525213D1*
X-9148989Y-4515442D1*
Y-4500842D1*
X-9153819Y-4491183D1*
X-9163589Y-4481413D1*
X-9178189Y-4476583D1*
X-9187848D1*
X-9202448Y-4481413D1*
X-9212106Y-4491183D1*
X-9217048Y-4500842D1*
Y-4515442D1*
X-9212106Y-4525213D1*
X-9202448Y-4534871D1*
X-9148989Y-4566244D2*
X-9217048D1*
X-9178189D2*
X-9163589Y-4571185D1*
X-9153819Y-4580844D1*
X-9148989Y-4590614D1*
Y-4605214D1*
Y-4641528D2*
X-9217048Y-4670616D1*
X-9236477Y-4660958D1*
X-9246248Y-4651187D1*
X-9251077Y-4641528D1*
Y-4636587D1*
X-9148989Y-4699816D2*
X-9217048Y-4670616D1*
X-9299935Y-2674843D2*
X-9402022D1*
X-9348564D2*
X-9338793Y-2684614D1*
X-9333964Y-2694272D1*
Y-2708872D1*
X-9338793Y-2718531D1*
X-9348564Y-2728302D1*
X-9363164Y-2733131D1*
X-9372822D1*
X-9387422Y-2728302D1*
X-9397081Y-2718531D1*
X-9402022Y-2708872D1*
Y-2694272D1*
X-9397081Y-2684614D1*
X-9387422Y-2674843D1*
X-9333964Y-2822791D2*
X-9402022D1*
X-9348564D2*
X-9338793Y-2813133D1*
X-9333964Y-2803362D1*
Y-2788874D1*
X-9338793Y-2779103D1*
X-9348564Y-2769445D1*
X-9363164Y-2764503D1*
X-9372822D1*
X-9387422Y-2769445D1*
X-9397081Y-2779103D1*
X-9402022Y-2788874D1*
Y-2803362D1*
X-9397081Y-2813133D1*
X-9387422Y-2822791D1*
X-9348564Y-2912564D2*
X-9338793Y-2902793D1*
X-9333964Y-2893022D1*
Y-2878534D1*
X-9338793Y-2868764D1*
X-9348564Y-2859105D1*
X-9363164Y-2854164D1*
X-9372822D1*
X-9387422Y-2859105D1*
X-9397081Y-2868764D1*
X-9402022Y-2878534D1*
Y-2893022D1*
X-9397081Y-2902793D1*
X-9387422Y-2912564D1*
X-9299935Y-2943936D2*
X-9402022D1*
X-9333964Y-2992565D2*
X-9382593Y-2943936D1*
X-9363164Y-2963365D2*
X-9402022Y-2997395D1*
X-9333964Y-3028767D2*
X-9382593D1*
X-9397081Y-3033596D1*
X-9402022Y-3043367D1*
Y-3057967D1*
X-9397081Y-3067626D1*
X-9382593Y-3082226D1*
X-9333964D2*
X-9402022D1*
X-9333964Y-3113598D2*
X-9436052D1*
X-9348564D2*
X-9338905Y-3123369D1*
X-9333964Y-3133027D1*
Y-3147627D1*
X-9338905Y-3157398D1*
X-9348564Y-3167057D1*
X-9363164Y-3171998D1*
X-9372935D1*
X-9387422Y-3167057D1*
X-9397193Y-3157398D1*
X-9402022Y-3147627D1*
Y-3133027D1*
X-9397193Y-3123369D1*
X-9387422Y-3113598D1*
X-9333964Y-3326386D2*
X-9338793Y-3316728D1*
X-9348564Y-3306957D1*
X-9363164Y-3302128D1*
X-9372822D1*
X-9387422Y-3306957D1*
X-9397081Y-3316728D1*
X-9402022Y-3326386D1*
Y-3340986D1*
X-9397081Y-3350757D1*
X-9387422Y-3360416D1*
X-9372822Y-3365357D1*
X-9363164D1*
X-9348564Y-3360416D1*
X-9338793Y-3350757D1*
X-9333964Y-3340986D1*
Y-3326386D1*
Y-3396730D2*
X-9402022D1*
X-9353393D2*
X-9338793Y-3411330D1*
X-9333964Y-3421100D1*
Y-3435588D1*
X-9338793Y-3445359D1*
X-9353393Y-3450188D1*
X-9402022D1*
X-9299935Y-3580318D2*
X-9402022D1*
X-9348564D2*
X-9338793Y-3590089D1*
X-9333964Y-3599747D1*
Y-3614347D1*
X-9338793Y-3624006D1*
X-9348564Y-3633776D1*
X-9363164Y-3638606D1*
X-9372822D1*
X-9387422Y-3633776D1*
X-9397081Y-3624006D1*
X-9402022Y-3614347D1*
Y-3599747D1*
X-9397081Y-3590089D1*
X-9387422Y-3580318D1*
X-9333964Y-3694237D2*
X-9338793Y-3684578D1*
X-9348564Y-3674807D1*
X-9363164Y-3669978D1*
X-9372822D1*
X-9387422Y-3674807D1*
X-9397081Y-3684578D1*
X-9402022Y-3694237D1*
Y-3708837D1*
X-9397081Y-3718607D1*
X-9387422Y-3728266D1*
X-9372822Y-3733207D1*
X-9363164D1*
X-9348564Y-3728266D1*
X-9338793Y-3718607D1*
X-9333964Y-3708837D1*
Y-3694237D1*
Y-3822868D2*
X-9402022D1*
X-9348564D2*
X-9338793Y-3813209D1*
X-9333964Y-3803438D1*
Y-3788951D1*
X-9338793Y-3779180D1*
X-9348564Y-3769521D1*
X-9363164Y-3764580D1*
X-9372822D1*
X-9387422Y-3769521D1*
X-9397081Y-3779180D1*
X-9402022Y-3788951D1*
Y-3803438D1*
X-9397081Y-3813209D1*
X-9387422Y-3822868D1*
X-9333964Y-3854240D2*
X-9402022D1*
X-9363164D2*
X-9348564Y-3859182D1*
X-9338793Y-3868840D1*
X-9333964Y-3878611D1*
Y-3893211D1*
X-9299935Y-3982871D2*
X-9402022D1*
X-9348564D2*
X-9338793Y-3973213D1*
X-9333964Y-3963442D1*
Y-3948842D1*
X-9338793Y-3939183D1*
X-9348564Y-3929413D1*
X-9363164Y-3924583D1*
X-9372822D1*
X-9387422Y-3929413D1*
X-9397081Y-3939183D1*
X-9402022Y-3948842D1*
Y-3963442D1*
X-9397081Y-3973213D1*
X-9387422Y-3982871D1*
X-9333964Y-4019185D2*
X-9338905Y-4014244D1*
X-9343735Y-4019185D1*
X-9338905Y-4024014D1*
X-9333964Y-4019185D1*
X-9392252D2*
X-9397193Y-4014244D1*
X-9402022Y-4019185D1*
X-9397193Y-4024014D1*
X-9392252Y-4019185D1*
X-9314535Y-4222203D2*
X-9304764Y-4212544D1*
X-9299935Y-4197944D1*
Y-4178515D1*
X-9304764Y-4163915D1*
X-9314535Y-4154144D1*
X-9324193D1*
X-9333964Y-4159086D1*
X-9338793Y-4163915D1*
X-9343622Y-4173573D1*
X-9353393Y-4202773D1*
X-9358222Y-4212544D1*
X-9363164Y-4217373D1*
X-9372822Y-4222203D1*
X-9387422D1*
X-9397081Y-4212544D1*
X-9402022Y-4197944D1*
Y-4178515D1*
X-9397081Y-4163915D1*
X-9387422Y-4154144D1*
X-9299935Y-4253575D2*
X-9402022D1*
X-9353393D2*
X-9338793Y-4268175D1*
X-9333964Y-4277946D1*
Y-4292546D1*
X-9338793Y-4302204D1*
X-9353393Y-4307034D1*
X-9402022D1*
X-9333964Y-4362665D2*
X-9338793Y-4353006D1*
X-9348564Y-4343235D1*
X-9363164Y-4338406D1*
X-9372822D1*
X-9387422Y-4343235D1*
X-9397081Y-4353006D1*
X-9402022Y-4362665D1*
Y-4377265D1*
X-9397081Y-4387035D1*
X-9387422Y-4396694D1*
X-9372822Y-4401635D1*
X-9363164D1*
X-9348564Y-4396694D1*
X-9338793Y-4387035D1*
X-9333964Y-4377265D1*
Y-4362665D1*
Y-4433008D2*
X-9402022D1*
X-9363164D2*
X-9348564Y-4437950D1*
X-9338793Y-4447608D1*
X-9333964Y-4457379D1*
Y-4471979D1*
X-9299935Y-4517951D2*
X-9382593D1*
X-9397081Y-4522781D1*
X-9402022Y-4532551D1*
Y-4542210D1*
X-9333964Y-4503351D2*
Y-4537381D1*
X-9538368Y-2674843D2*
Y-2718643D1*
X-9533539Y-2733131D1*
X-9528597Y-2738072D1*
X-9518939Y-2742902D1*
X-9504339D1*
X-9494680Y-2738072D1*
X-9489739Y-2733131D1*
X-9484909Y-2718643D1*
Y-2674843D1*
X-9586997D1*
X-9484909Y-2774274D2*
X-9489739Y-2779103D1*
X-9484909Y-2784045D1*
X-9479968Y-2779103D1*
X-9484909Y-2774274D1*
X-9518939Y-2779103D2*
X-9586997D1*
X-9518939Y-2815417D2*
X-9586997D1*
X-9538368D2*
X-9523768Y-2830017D1*
X-9518939Y-2839788D1*
Y-2854276D1*
X-9523768Y-2864047D1*
X-9538368Y-2868876D1*
X-9586997D1*
X-9504451Y-2999006D2*
X-9499509Y-3008776D1*
X-9485022Y-3023376D1*
X-9586997D1*
X-9484909Y-3168106D2*
X-9567568D1*
X-9582055Y-3172935D1*
X-9586997Y-3182706D1*
Y-3192365D1*
X-9518939Y-3153506D2*
Y-3187535D1*
Y-3247996D2*
X-9523768Y-3238337D1*
X-9533539Y-3228566D1*
X-9548139Y-3223737D1*
X-9557797D1*
X-9572397Y-3228566D1*
X-9582055Y-3238337D1*
X-9586997Y-3247996D1*
Y-3262596D1*
X-9582055Y-3272366D1*
X-9572397Y-3282025D1*
X-9557797Y-3286966D1*
X-9548139D1*
X-9533539Y-3282025D1*
X-9523768Y-3272366D1*
X-9518939Y-3262596D1*
Y-3247996D1*
X-9538368Y-3417096D2*
Y-3460896D1*
X-9533539Y-3475384D1*
X-9528597Y-3480325D1*
X-9518939Y-3485155D1*
X-9504339D1*
X-9494680Y-3480325D1*
X-9489739Y-3475384D1*
X-9484909Y-3460896D1*
Y-3417096D1*
X-9586997D1*
X-9484909Y-3516527D2*
X-9489739Y-3521356D1*
X-9484909Y-3526298D1*
X-9479968Y-3521356D1*
X-9484909Y-3516527D1*
X-9518939Y-3521356D2*
X-9586997D1*
X-9518939Y-3557670D2*
X-9586997D1*
X-9538368D2*
X-9523768Y-3572270D1*
X-9518939Y-3582041D1*
Y-3596529D1*
X-9523768Y-3606300D1*
X-9538368Y-3611129D1*
X-9586997D1*
X-9485022Y-3751029D2*
Y-3804376D1*
X-9523880Y-3775288D1*
Y-3789888D1*
X-9528709Y-3799546D1*
X-9533539Y-3804376D1*
X-9548139Y-3809317D1*
X-9557797D1*
X-9572397Y-3804376D1*
X-9582168Y-3794717D1*
X-9586997Y-3780117D1*
Y-3765517D1*
X-9582168Y-3751029D1*
X-9577226Y-3746200D1*
X-9567568Y-3741259D1*
X-9518939Y-3997734D2*
X-9586997D1*
X-9533539D2*
X-9523768Y-3988076D1*
X-9518939Y-3978305D1*
Y-3963818D1*
X-9523768Y-3954047D1*
X-9533539Y-3944388D1*
X-9548139Y-3939447D1*
X-9557797D1*
X-9572397Y-3944388D1*
X-9582055Y-3954047D1*
X-9586997Y-3963818D1*
Y-3978305D1*
X-9582055Y-3988076D1*
X-9572397Y-3997734D1*
X-9518939Y-4029107D2*
X-9586997D1*
X-9538368D2*
X-9523768Y-4043707D1*
X-9518939Y-4053478D1*
Y-4067965D1*
X-9523768Y-4077736D1*
X-9538368Y-4082565D1*
X-9586997D1*
X-9484909Y-4172226D2*
X-9586997D1*
X-9533539D2*
X-9523768Y-4162567D1*
X-9518939Y-4152796D1*
Y-4138196D1*
X-9523768Y-4128538D1*
X-9533539Y-4118767D1*
X-9548139Y-4113938D1*
X-9557797D1*
X-9572397Y-4118767D1*
X-9582055Y-4128538D1*
X-9586997Y-4138196D1*
Y-4152796D1*
X-9582055Y-4162567D1*
X-9572397Y-4172226D1*
X-9538368Y-4302355D2*
Y-4346155D1*
X-9533539Y-4360643D1*
X-9528597Y-4365585D1*
X-9518939Y-4370414D1*
X-9504339D1*
X-9494680Y-4365585D1*
X-9489739Y-4360643D1*
X-9484909Y-4346155D1*
Y-4302355D1*
X-9586997D1*
X-9484909Y-4401786D2*
X-9489739Y-4406616D1*
X-9484909Y-4411557D1*
X-9479968Y-4406616D1*
X-9484909Y-4401786D1*
X-9518939Y-4406616D2*
X-9586997D1*
X-9518939Y-4442930D2*
X-9586997D1*
X-9538368D2*
X-9523768Y-4457530D1*
X-9518939Y-4467301D1*
Y-4481788D1*
X-9523768Y-4491559D1*
X-9538368Y-4496388D1*
X-9586997D1*
X-9509280Y-4631459D2*
X-9504451D1*
X-9494680Y-4636289D1*
X-9489851Y-4641118D1*
X-9485022Y-4650889D1*
Y-4670318D1*
X-9489851Y-4679976D1*
X-9494680Y-4684806D1*
X-9504451Y-4689747D1*
X-9514109D1*
X-9523880Y-4684806D1*
X-9538368Y-4675147D1*
X-9586997Y-4626518D1*
Y-4694576D1*
X-9669884Y-2689443D2*
X-9752542D1*
X-9767030Y-2694272D1*
X-9771972Y-2704043D1*
Y-2713702D1*
X-9703913Y-2674843D2*
Y-2708872D1*
Y-2769333D2*
X-9708742Y-2759674D1*
X-9718513Y-2749903D1*
X-9733113Y-2745074D1*
X-9742772D1*
X-9757372Y-2749903D1*
X-9767030Y-2759674D1*
X-9771972Y-2769333D1*
Y-2783933D1*
X-9767030Y-2793703D1*
X-9757372Y-2803362D1*
X-9742772Y-2808303D1*
X-9733113D1*
X-9718513Y-2803362D1*
X-9708742Y-2793703D1*
X-9703913Y-2783933D1*
Y-2769333D1*
X-9723342Y-3037190D2*
Y-3080990D1*
X-9718513Y-3095478D1*
X-9713572Y-3100419D1*
X-9703913Y-3105249D1*
X-9689313D1*
X-9679655Y-3100419D1*
X-9674713Y-3095478D1*
X-9669884Y-3080990D1*
Y-3037190D1*
X-9771972D1*
X-9669884Y-3136621D2*
X-9674713Y-3141450D1*
X-9669884Y-3146392D1*
X-9664942Y-3141450D1*
X-9669884Y-3136621D1*
X-9703913Y-3141450D2*
X-9771972D1*
X-9703913Y-3177765D2*
X-9771972D1*
X-9723342D2*
X-9708742Y-3192365D1*
X-9703913Y-3202135D1*
Y-3216623D1*
X-9708742Y-3226394D1*
X-9723342Y-3231223D1*
X-9771972D1*
Y-3409982D2*
X-9669996D1*
X-9737942Y-3361353D1*
Y-3434240D1*
X-9762201Y-3470442D2*
X-9767142Y-3465613D1*
X-9771972Y-3470442D1*
X-9767142Y-3475384D1*
X-9762201Y-3470442D1*
X-6473400Y-1517382D2*
D79*
X-6601010Y-1547846D1*
X-6473400Y-1578169D1*
X-6601010Y-1608492D1*
X-6473400Y-1638955D1*
X-6503864Y-1700688D2*
X-6497827D1*
X-6485614Y-1706724D1*
X-6479577Y-1712761D1*
X-6473540Y-1724974D1*
Y-1749261D1*
X-6479577Y-1761334D1*
X-6485614Y-1767370D1*
X-6497827Y-1773547D1*
X-6509900D1*
X-6522114Y-1767370D1*
X-6540223Y-1755297D1*
X-6601010Y-1694511D1*
Y-1779584D1*
Y-1895926D2*
X-6473540D1*
X-6558473Y-1835139D1*
Y-1926249D1*
X-6503864Y-1987982D2*
X-6497827D1*
X-6485614Y-1994018D1*
X-6479577Y-2000055D1*
X-6473540Y-2012268D1*
Y-2036555D1*
X-6479577Y-2048628D1*
X-6485614Y-2054664D1*
X-6497827Y-2060841D1*
X-6509900D1*
X-6522114Y-2054664D1*
X-6540223Y-2042591D1*
X-6601010Y-1981805D1*
Y-2066878D1*
X-6473540Y-2195293D2*
Y-2134647D1*
X-6528150Y-2128610D1*
X-6522114Y-2134647D1*
X-6515937Y-2152897D1*
Y-2171006D1*
X-6522114Y-2189256D1*
X-6534187Y-2201470D1*
X-6552437Y-2207506D1*
X-6564510D1*
X-6582760Y-2201470D1*
X-6594973Y-2189256D1*
X-6601010Y-2171006D1*
Y-2152897D1*
X-6594973Y-2134647D1*
X-6588796Y-2128610D1*
X-6576723Y-2122433D1*
X-6601010Y-2287348D2*
X-6473540Y-2348135D1*
Y-2263062D1*
X-6601010Y-2500977D2*
X-6473400Y-2452264D1*
X-6601010Y-2403691D1*
X-6558473Y-2421941D2*
Y-2482727D1*
X-6473400Y-2617319D2*
X-6570546D1*
X-6588796Y-2611283D1*
X-6594833Y-2605106D1*
X-6601010Y-2593033D1*
Y-2580819D1*
X-6594833Y-2568746D1*
X-6588796Y-2562710D1*
X-6570546Y-2556533D1*
X-6558473D1*
X-6601010Y-2909807D2*
X-6473400D1*
X-6601010Y-2861234D1*
X-6473400Y-2812661D1*
X-6601010D1*
X-6552437Y-2965363D2*
Y-3038222D1*
X-6540223D1*
X-6528010Y-3032186D1*
X-6521973Y-3026149D1*
X-6515937Y-3013936D1*
Y-2995686D1*
X-6521973Y-2983613D1*
X-6534187Y-2971399D1*
X-6552437Y-2965363D1*
X-6564510D1*
X-6582760Y-2971399D1*
X-6594833Y-2983613D1*
X-6601010Y-2995686D1*
Y-3013936D1*
X-6594833Y-3026149D1*
X-6582760Y-3038222D1*
X-6515937Y-3093778D2*
X-6601010D1*
X-6540223D2*
X-6521973Y-3112028D1*
X-6515937Y-3124241D1*
Y-3142351D1*
X-6521973Y-3154564D1*
X-6540223Y-3160601D1*
X-6601010D1*
X-6540223D2*
X-6521973Y-3178851D1*
X-6515937Y-3191064D1*
Y-3209174D1*
X-6521973Y-3221388D1*
X-6540223Y-3227564D1*
X-6601010D1*
X-6515937Y-3313443D2*
X-6521973Y-3301370D1*
X-6534187Y-3289157D1*
X-6552437Y-3283120D1*
X-6564510D1*
X-6582760Y-3289157D1*
X-6594833Y-3301370D1*
X-6601010Y-3313443D1*
Y-3331693D1*
X-6594833Y-3343907D1*
X-6582760Y-3355980D1*
X-6564510Y-3362157D1*
X-6552437D1*
X-6534187Y-3355980D1*
X-6521973Y-3343907D1*
X-6515937Y-3331693D1*
Y-3313443D1*
Y-3417712D2*
X-6601010D1*
X-6552437D2*
X-6534187Y-3423889D1*
X-6521973Y-3435962D1*
X-6515937Y-3448176D1*
Y-3466426D1*
Y-3528158D2*
X-6601010Y-3564518D1*
X-6625296Y-3552445D1*
X-6637510Y-3540231D1*
X-6643546Y-3528158D1*
Y-3521981D1*
X-6515937Y-3601018D2*
X-6601010Y-3564518D1*
X-6473400Y-3796360D2*
X-6601010D1*
Y-3851110D1*
X-6594833Y-3869360D1*
X-6588796Y-3875396D1*
X-6576723Y-3881433D1*
X-6558473D1*
X-6546260Y-3875396D1*
X-6540223Y-3869360D1*
X-6534187Y-3851110D1*
X-6528010Y-3869360D1*
X-6521973Y-3875396D1*
X-6509900Y-3881433D1*
X-6497687D1*
X-6485614Y-3875396D1*
X-6479437Y-3869360D1*
X-6473400Y-3851110D1*
Y-3796360D1*
X-6534187D2*
Y-3851110D1*
X-6515937Y-3967311D2*
X-6521973Y-3955238D1*
X-6534187Y-3943025D1*
X-6552437Y-3936988D1*
X-6564510D1*
X-6582760Y-3943025D1*
X-6594833Y-3955238D1*
X-6601010Y-3967311D1*
Y-3985561D1*
X-6594833Y-3997775D1*
X-6582760Y-4009848D1*
X-6564510Y-4016025D1*
X-6552437D1*
X-6534187Y-4009848D1*
X-6521973Y-3997775D1*
X-6515937Y-3985561D1*
Y-3967311D1*
Y-4144440D2*
X-6601010D1*
X-6534187D2*
X-6521973Y-4132367D1*
X-6515937Y-4120153D1*
Y-4102044D1*
X-6521973Y-4089830D1*
X-6534187Y-4077757D1*
X-6552437Y-4071580D1*
X-6564510D1*
X-6582760Y-4077757D1*
X-6594833Y-4089830D1*
X-6601010Y-4102044D1*
Y-4120153D1*
X-6594833Y-4132367D1*
X-6582760Y-4144440D1*
X-6515937Y-4199995D2*
X-6601010D1*
X-6552437D2*
X-6534187Y-4206172D1*
X-6521973Y-4218245D1*
X-6515937Y-4230459D1*
Y-4248709D1*
X-6473400Y-4377124D2*
X-6601010D1*
X-6534187D2*
X-6521973Y-4365051D1*
X-6515937Y-4352838D1*
Y-4334588D1*
X-6521973Y-4322514D1*
X-6534187Y-4310301D1*
X-6552437Y-4304264D1*
X-6564510D1*
X-6582760Y-4310301D1*
X-6594833Y-4322514D1*
X-6601010Y-4334588D1*
Y-4352838D1*
X-6594833Y-4365051D1*
X-6582760Y-4377124D1*
X-2337690Y-1281765D2*
D81*
X-2490822D1*
Y-1369196D1*
X-2337690Y-1416255D2*
X-2490822D1*
X-2337690Y-1518343D2*
X-2439778Y-1416255D1*
X-2403222Y-1452643D2*
X-2490822Y-1518343D1*
X-2367002Y-1565402D2*
X-2359590Y-1580058D1*
X-2337859Y-1601958D1*
X-2490822D1*
X-8814690Y-2678765D2*
X-8967822D1*
Y-2744465D1*
X-8960409Y-2766365D1*
X-8953165Y-2773609D1*
X-8938678Y-2780852D1*
X-8916778D1*
X-8902122Y-2773609D1*
X-8894878Y-2766365D1*
X-8887634Y-2744465D1*
X-8880222Y-2766365D1*
X-8872978Y-2773609D1*
X-8858490Y-2780852D1*
X-8843834D1*
X-8829346Y-2773609D1*
X-8821934Y-2766365D1*
X-8814690Y-2744465D1*
Y-2678765D1*
X-8887634D2*
Y-2744465D1*
X-8967822Y-2944655D2*
X-8814690Y-2886199D1*
X-8967822Y-2827911D1*
X-8916778Y-2849811D2*
Y-2922755D1*
X-8814690Y-3042758D2*
X-8967822D1*
X-8814690Y-2991714D2*
Y-3093802D1*
Y-3191904D2*
X-8967822D1*
X-8814690Y-3140860D2*
Y-3242948D1*
Y-3384682D2*
Y-3290007D1*
X-8967822D1*
Y-3384682D1*
X-8887634Y-3290007D2*
Y-3348295D1*
Y-3431741D2*
Y-3497273D1*
X-8880222Y-3519173D1*
X-8872978Y-3526585D1*
X-8858490Y-3533829D1*
X-8843834D1*
X-8829346Y-3526585D1*
X-8821934Y-3519173D1*
X-8814690Y-3497273D1*
Y-3431741D1*
X-8967822D1*
X-8887634Y-3482785D2*
X-8967822Y-3533829D1*
X-8814690Y-3580888D2*
X-8887634Y-3639175D1*
X-8967822D1*
X-8814690Y-3697463D2*
X-8887634Y-3639175D1*
X-8814690Y-3892658D2*
X-8967822D1*
Y-3958358D1*
X-8960409Y-3980258D1*
X-8953165Y-3987501D1*
X-8938678Y-3994745D1*
X-8916778D1*
X-8902122Y-3987501D1*
X-8894878Y-3980258D1*
X-8887634Y-3958358D1*
X-8880222Y-3980258D1*
X-8872978Y-3987501D1*
X-8858490Y-3994745D1*
X-8843834D1*
X-8829346Y-3987501D1*
X-8821934Y-3980258D1*
X-8814690Y-3958358D1*
Y-3892658D1*
X-8887634D2*
Y-3958358D1*
X-8967822Y-4158548D2*
X-8814690Y-4100092D1*
X-8967822Y-4041804D1*
X-8916778Y-4063704D2*
Y-4136648D1*
X-8851078Y-4314938D2*
X-8836590Y-4307694D1*
X-8821934Y-4293038D1*
X-8814690Y-4278551D1*
Y-4249407D1*
X-8821934Y-4234751D1*
X-8836590Y-4220263D1*
X-8851078Y-4212851D1*
X-8872978Y-4205607D1*
X-8909534D1*
X-8931265Y-4212851D1*
X-8945922Y-4220263D1*
X-8960409Y-4234751D1*
X-8967822Y-4249407D1*
Y-4278551D1*
X-8960409Y-4293038D1*
X-8945922Y-4307694D1*
X-8931265Y-4314938D1*
X-8814690Y-4361997D2*
X-8967822D1*
X-8814690Y-4464085D2*
X-8916778Y-4361997D1*
X-8880222Y-4398385D2*
X-8967822Y-4464085D1*
X-8814690Y-4511144D2*
X-8924022D1*
X-8945922Y-4518388D1*
X-8960409Y-4533044D1*
X-8967822Y-4554944D1*
Y-4569431D1*
X-8960409Y-4591331D1*
X-8945922Y-4605988D1*
X-8924022Y-4613231D1*
X-8814690D1*
X-8894878Y-4660290D2*
Y-4725990D1*
X-8887634Y-4747722D1*
X-8880222Y-4755134D1*
X-8865734Y-4762378D1*
X-8843834D1*
X-8829346Y-4755134D1*
X-8821934Y-4747722D1*
X-8814690Y-4725990D1*
Y-4660290D1*
X-8967822D1*
X-8317586Y-2084270D2*
D78*
Y-2193630D1*
X-8372196Y-2139020D2*
X-8262836D1*
X-8150761Y-2075215D2*
X-8211407D1*
X-8217444Y-2129825D1*
X-8211407Y-2123789D1*
X-8193157Y-2117612D1*
X-8175048D1*
X-8156798Y-2123789D1*
X-8144584Y-2135862D1*
X-8138548Y-2154112D1*
Y-2166185D1*
X-8144584Y-2184435D1*
X-8156798Y-2196648D1*
X-8175048Y-2202685D1*
X-8193157D1*
X-8211407Y-2196648D1*
X-8217444Y-2190471D1*
X-8223621Y-2178398D1*
X-8099332Y-2075075D2*
X-8050759Y-2202685D1*
X-8002186Y-2075075D1*
X-8281086Y-1851398D2*
X-8287123Y-1839325D1*
X-8299336Y-1827112D1*
X-8311410Y-1821075D1*
X-8335696D1*
X-8347910Y-1827112D1*
X-8359983Y-1839325D1*
X-8366160Y-1851398D1*
X-8372196Y-1869648D1*
Y-1900112D1*
X-8366160Y-1918221D1*
X-8359983Y-1930435D1*
X-8347910Y-1942508D1*
X-8335696Y-1948685D1*
X-8311410D1*
X-8299336Y-1942508D1*
X-8287123Y-1930435D1*
X-8281086Y-1918221D1*
Y-1900112D1*
X-8311410D1*
X-8156798Y-1821075D2*
Y-1948685D1*
X-8241871Y-1821075D1*
Y-1948685D1*
X-8117582Y-1821075D2*
Y-1948685D1*
X-8075045D1*
X-8056795Y-1942508D1*
X-8044582Y-1930435D1*
X-8038545Y-1918221D1*
X-8032509Y-1900112D1*
Y-1869648D1*
X-8038545Y-1851398D1*
X-8044582Y-1839325D1*
X-8056795Y-1827112D1*
X-8075045Y-1821075D1*
X-8117582D1*
X-8317586Y-2338270D2*
Y-2447630D1*
X-8372196Y-2393020D2*
X-8262836D1*
X-8150761Y-2329215D2*
X-8211407D1*
X-8217444Y-2383825D1*
X-8211407Y-2377789D1*
X-8193157Y-2371612D1*
X-8175048D1*
X-8156798Y-2377789D1*
X-8144584Y-2389862D1*
X-8138548Y-2408112D1*
Y-2420185D1*
X-8144584Y-2438435D1*
X-8156798Y-2450648D1*
X-8175048Y-2456685D1*
X-8193157D1*
X-8211407Y-2450648D1*
X-8217444Y-2444471D1*
X-8223621Y-2432398D1*
X-8099332Y-2329075D2*
X-8050759Y-2456685D1*
X-8002186Y-2329075D1*
X-7839524D2*
X-7833487Y-2335112D1*
X-7827310Y-2329075D1*
X-7833487Y-2322898D1*
X-7839524Y-2329075D1*
X-7833487Y-2371612D2*
Y-2456685D1*
X-7788095Y-2371612D2*
Y-2456685D1*
Y-2395898D2*
X-7769845Y-2377648D1*
X-7757631Y-2371612D1*
X-7739521D1*
X-7727308Y-2377648D1*
X-7721271Y-2395898D1*
Y-2456685D1*
X-5196285Y2073133D2*
X-5202321Y2085206D1*
X-5214535Y2097419D1*
X-5226608Y2103456D1*
X-5250894D1*
X-5263108Y2097419D1*
X-5275181Y2085206D1*
X-5281358Y2073133D1*
X-5287394Y2054883D1*
Y2024419D1*
X-5281358Y2006310D1*
X-5275181Y1994096D1*
X-5263108Y1982023D1*
X-5250894Y1975846D1*
X-5226608D1*
X-5214535Y1982023D1*
X-5202321Y1994096D1*
X-5196285Y2006310D1*
X-5157069Y2079029D2*
X-5144856Y2085206D1*
X-5126606Y2103315D1*
Y1975846D1*
X-4773663Y745395D2*
X-4785736Y739358D1*
X-4797949Y727145D1*
X-4803985Y715071D1*
X-4803984Y690785D1*
X-4797947Y678571D1*
X-4785733Y666499D1*
X-4773660Y660322D1*
X-4755410Y654286D1*
X-4724947Y654287D1*
X-4706837Y660324D1*
X-4694624Y666502D1*
X-4682551Y678575D1*
X-4676375Y690789D1*
Y715076D1*
X-4682553Y727148D1*
X-4694626Y739361D1*
X-4706840Y745398D1*
X-4773524Y790788D2*
X-4779561D1*
X-4791774Y796824D1*
X-4797811Y802860D1*
X-4803848Y815074D1*
X-4803849Y839360D1*
X-4797813Y851433D1*
X-4791776Y857470D1*
X-4779563Y863647D1*
X-4767490Y863648D1*
X-4755276Y857471D1*
X-4737166Y845399D1*
X-4676378Y784614D1*
X-4676381Y869687D1*
X-5631892Y36836D2*
X-5625856Y24763D1*
X-5613642Y12550D1*
X-5601569Y6513D1*
X-5577283D1*
X-5565069Y12550D1*
X-5552996Y24763D1*
X-5546819Y36836D1*
X-5540783Y55086D1*
Y85550D1*
X-5546819Y103660D1*
X-5552996Y115873D1*
X-5565069Y127946D1*
X-5577283Y134123D1*
X-5601569D1*
X-5613642Y127946D1*
X-5625856Y115873D1*
X-5631892Y103660D1*
X-5731894Y134123D2*
Y6654D1*
X-5671108Y91586D1*
X-5762217D1*
X-1855376Y980987D2*
Y853377D1*
X-1812840D1*
X-1794590Y859554D1*
X-1782376Y871627D1*
X-1776340Y883840D1*
X-1770303Y901950D1*
Y932414D1*
X-1776340Y950664D1*
X-1782376Y962737D1*
X-1794590Y974950D1*
X-1812840Y980987D1*
X-1855376D1*
X-1731087Y956560D2*
X-1718874Y962737D1*
X-1700624Y980846D1*
Y853377D1*
X-362794Y-2281554D2*
X-459940D1*
X-478190Y-2275517D1*
X-484227Y-2269340D1*
X-490404Y-2257267D1*
Y-2245054D1*
X-484227Y-2232981D1*
X-478190Y-2226944D1*
X-459940Y-2220767D1*
X-447867D1*
X-387221Y-2320769D2*
X-381044Y-2332983D1*
X-362935Y-2351233D1*
X-490404D1*
X-362794Y2698751D2*
X-459940D1*
X-478190Y2704788D1*
X-484227Y2710965D1*
X-490404Y2723038D1*
Y2735251D1*
X-484227Y2747324D1*
X-478190Y2753361D1*
X-459940Y2759538D1*
X-447867D1*
X-393258Y2653359D2*
X-387221D1*
X-375008Y2647322D1*
X-368971Y2641285D1*
X-362935Y2629072D1*
Y2604785D1*
X-368971Y2592712D1*
X-375008Y2586676D1*
X-387221Y2580499D1*
X-399294D1*
X-411508Y2586676D1*
X-429617Y2598749D1*
X-490404Y2659535D1*
Y2574462D1*
X-4399137Y3470181D2*
X-4490246D1*
X-4508496Y3464144D1*
X-4520569Y3451931D1*
X-4526746Y3433681D1*
Y3421608D1*
X-4520569Y3403358D1*
X-4508496Y3391144D1*
X-4490246Y3385108D1*
X-4399137D1*
X-4429600Y3339715D2*
X-4423564D1*
X-4411350Y3333679D1*
X-4405314Y3327642D1*
X-4399277Y3315429D1*
Y3291142D1*
X-4405314Y3279069D1*
X-4411350Y3273033D1*
X-4423564Y3266856D1*
X-4435637D1*
X-4447850Y3273033D1*
X-4465960Y3285106D1*
X-4526746Y3345892D1*
Y3260819D1*
X-5514356Y-2012699D2*
X-5423246D1*
X-5404996Y-2006663D1*
X-5392923Y-1994449D1*
X-5386746Y-1976199D1*
Y-1964126D1*
X-5392923Y-1945876D1*
X-5404996Y-1933663D1*
X-5423246Y-1927626D1*
X-5514356D1*
X-5386746Y-1827624D2*
X-5514215D1*
X-5429283Y-1888410D1*
Y-1797301D1*
M02*
