G04 DipTrace 4.3.0.5*
G04 1 - Top.gbr*
%MOMM*%
G04 #@! TF.FileFunction,Copper,L1,Top*
G04 #@! TF.Part,Single*
G04 #@! TA.AperFunction,Conductor*
%ADD10C,0.25*%
%ADD16C,1.5*%
G04 #@! TA.AperFunction,ComponentPad*
%ADD17R,1.7X1.7*%
%ADD18C,1.7*%
%FSLAX35Y35*%
G04*
G71*
G90*
G75*
G01*
G04 Top*
%LPD*%
X4445000Y3D2*
D16*
Y254000D1*
Y613650D1*
Y867647D1*
X889000Y3D2*
Y254000D1*
Y613650D1*
Y867647D1*
X4191000Y3D2*
D10*
Y24003D1*
X4318000Y151000D1*
Y468503D1*
X4191000Y595503D1*
Y613650D1*
X3937000Y3D2*
Y24003D1*
X4064000Y151000D1*
Y468503D1*
X3937000Y595503D1*
Y613650D1*
X3683000Y3D2*
Y24000D1*
X3810000Y151000D1*
Y468503D1*
X3683000Y595503D1*
Y613650D1*
X3429000Y3D2*
Y24003D1*
X3556000Y151000D1*
Y468503D1*
X3429000Y595503D1*
Y613650D1*
X3175000Y3D2*
Y24003D1*
X3302000Y151000D1*
Y468503D1*
X3175000Y595503D1*
Y613650D1*
X2921000Y3D2*
Y24000D1*
X3048000Y151000D1*
Y468503D1*
X2921000Y595503D1*
Y613650D1*
X2667000Y3D2*
Y24003D1*
X2794000Y151000D1*
Y468503D1*
X2667000Y595503D1*
Y613650D1*
X2413000Y3D2*
Y24003D1*
X2540000Y151000D1*
Y468503D1*
X2413000Y595503D1*
Y613650D1*
X2159000Y3D2*
Y24000D1*
X2286000Y151000D1*
Y468503D1*
X2159000Y595503D1*
Y613650D1*
X1905000Y3D2*
Y24003D1*
X2032000Y151000D1*
Y468503D1*
X1905000Y595503D1*
Y613650D1*
X1651000Y3D2*
Y24003D1*
X1778000Y151000D1*
Y468503D1*
X1651000Y595503D1*
Y613650D1*
X1397000Y3D2*
Y24000D1*
X1524000Y151000D1*
Y468503D1*
X1397000Y595503D1*
Y613650D1*
X1143000Y3D2*
Y24003D1*
X1270000Y151000D1*
Y468503D1*
X1143000Y595503D1*
Y613650D1*
X381000Y3D2*
X508000Y127000D1*
Y468503D1*
X381000Y595503D1*
Y613650D1*
X127000Y3D2*
X166500D1*
X254000Y87503D1*
Y468503D1*
X127000Y595503D1*
Y613650D1*
X-127000Y3D2*
X0Y127003D1*
Y486647D1*
X-127000Y613650D1*
X-381000Y3D2*
X-254000Y127000D1*
Y486650D1*
X-381000Y613650D1*
X-635000Y3D2*
X-508000Y127000D1*
Y486650D1*
X-635000Y613650D1*
X-889000Y3D2*
X-762000Y127003D1*
Y486647D1*
X-889000Y613650D1*
X-1143000Y3D2*
X-1016000Y127000D1*
Y486650D1*
X-1143000Y613650D1*
X-1397000Y3D2*
X-1270000Y127000D1*
Y486650D1*
X-1397000Y613650D1*
X-1651000Y3D2*
X-1524000Y127003D1*
Y486647D1*
X-1651000Y613650D1*
X-1905000Y3D2*
X-1778000Y127000D1*
Y486650D1*
X-1905000Y613650D1*
X-2159000Y3D2*
X-2032000Y127000D1*
Y486650D1*
X-2159000Y613650D1*
X-2413000Y3D2*
X-2286000Y127000D1*
Y486650D1*
X-2413000Y613650D1*
X-2667000Y3D2*
X-2540000Y127003D1*
Y486647D1*
X-2667000Y613650D1*
X-2921000Y3D2*
X-2794000Y127000D1*
Y486650D1*
X-2921000Y613650D1*
X-3175000Y3D2*
X-3048000Y127000D1*
Y486650D1*
X-3175000Y613650D1*
X-3429000Y3D2*
X-3302000Y127003D1*
Y486647D1*
X-3429000Y613650D1*
X-3683000Y3D2*
X-3556000Y127000D1*
Y486650D1*
X-3683000Y613650D1*
X-3937000Y3D2*
X-3810000Y127000D1*
Y486650D1*
X-3937000Y613650D1*
X-4191000Y3D2*
X-4064000Y127003D1*
Y486647D1*
X-4191000Y613650D1*
X-4445000Y3D2*
X-4318000Y127000D1*
Y486650D1*
X-4445000Y613650D1*
D17*
X4445000Y254000D3*
D18*
Y0D3*
X4191000Y254000D3*
Y0D3*
X3937000Y254000D3*
Y0D3*
X3683000Y254000D3*
Y0D3*
X3429000Y254000D3*
Y0D3*
X3175000Y254000D3*
Y0D3*
X2921000Y254000D3*
Y0D3*
X2667000Y254000D3*
Y0D3*
X2413000Y254000D3*
Y0D3*
X2159000Y254000D3*
Y0D3*
X1905000Y254000D3*
Y0D3*
X1651000Y254000D3*
Y0D3*
X1397000Y254000D3*
Y0D3*
X1143000Y254000D3*
Y0D3*
X889000Y254000D3*
Y0D3*
D17*
X381000Y254000D3*
D18*
Y0D3*
X127000Y254000D3*
Y0D3*
X-127000Y254000D3*
Y0D3*
X-381000Y254000D3*
Y0D3*
X-635000Y254000D3*
Y0D3*
X-889000Y254000D3*
Y0D3*
X-1143000Y254000D3*
Y0D3*
X-1397000Y254000D3*
Y0D3*
X-1651000Y254000D3*
Y0D3*
X-1905000Y254000D3*
Y0D3*
X-2159000Y254000D3*
Y0D3*
X-2413000Y254000D3*
Y0D3*
X-2667000Y254000D3*
Y0D3*
X-2921000Y254000D3*
Y0D3*
X-3175000Y254000D3*
Y0D3*
X-3429000Y254000D3*
Y0D3*
X-3683000Y254000D3*
Y0D3*
X-3937000Y254000D3*
Y0D3*
X-4191000Y254000D3*
Y0D3*
X-4445000Y254000D3*
Y0D3*
D17*
X4445000Y867650D3*
D18*
Y613650D3*
X4191000Y867650D3*
Y613650D3*
X3937000Y867650D3*
Y613650D3*
X3683000Y867650D3*
Y613650D3*
X3429000Y867650D3*
Y613650D3*
X3175000Y867650D3*
Y613650D3*
X2921000Y867650D3*
Y613650D3*
X2667000Y867650D3*
Y613650D3*
X2413000Y867650D3*
Y613650D3*
X2159000Y867650D3*
Y613650D3*
X1905000Y867650D3*
Y613650D3*
X1651000Y867650D3*
Y613650D3*
X1397000Y867650D3*
Y613650D3*
X1143000Y867650D3*
Y613650D3*
X889000Y867650D3*
Y613650D3*
D17*
X381000Y867650D3*
D18*
Y613650D3*
X127000Y867650D3*
Y613650D3*
X-127000Y867650D3*
Y613650D3*
X-381000Y867650D3*
Y613650D3*
X-635000Y867650D3*
Y613650D3*
X-889000Y867650D3*
Y613650D3*
X-1143000Y867650D3*
Y613650D3*
X-1397000Y867650D3*
Y613650D3*
X-1651000Y867650D3*
Y613650D3*
X-1905000Y867650D3*
Y613650D3*
X-2159000Y867650D3*
Y613650D3*
X-2413000Y867650D3*
Y613650D3*
X-2667000Y867650D3*
Y613650D3*
X-2921000Y867650D3*
Y613650D3*
X-3175000Y867650D3*
Y613650D3*
X-3429000Y867650D3*
Y613650D3*
X-3683000Y867650D3*
Y613650D3*
X-3937000Y867650D3*
Y613650D3*
X-4191000Y867650D3*
Y613650D3*
X-4445000Y867650D3*
Y613650D3*
M02*
