G04 DipTrace 4.3.0.5*
G04 2 - Bottom.gbr*
%MOMM*%
G04 #@! TF.FileFunction,Copper,L2,Bot*
G04 #@! TF.Part,Single*
G04 #@! TA.AperFunction,Conductor*
%ADD10C,0.25*%
%ADD16C,1.5*%
G04 #@! TA.AperFunction,ComponentPad*
%ADD17R,1.7X1.7*%
%ADD18C,1.7*%
%FSLAX35Y35*%
G04*
G71*
G90*
G75*
G01*
G04 Bottom*
%LPD*%
X4445000Y254000D2*
D16*
Y613650D1*
Y867647D1*
X889000Y3D2*
Y254000D1*
Y613650D1*
Y867647D1*
X4191000Y254000D2*
D10*
Y278007D1*
X4064000Y405003D1*
Y701007D1*
X4191000Y828007D1*
Y867647D1*
X3937000Y254000D2*
Y278007D1*
X3810000Y405003D1*
Y701007D1*
X3937000Y828007D1*
Y867647D1*
X3683000Y254000D2*
Y278007D1*
X3556000Y405003D1*
Y701007D1*
X3683000Y828007D1*
Y867647D1*
X3429000Y254000D2*
Y278007D1*
X3302000Y405003D1*
Y701007D1*
X3429000Y828007D1*
Y867647D1*
X3175000Y254000D2*
Y278007D1*
X3048000Y405003D1*
Y701007D1*
X3175000Y828007D1*
Y867647D1*
X2921000Y254000D2*
Y278007D1*
X2794000Y405003D1*
Y701007D1*
X2921000Y828007D1*
Y867647D1*
X2667000Y254000D2*
Y278007D1*
X2540000Y405003D1*
Y728510D1*
X2667000Y855510D1*
Y867647D1*
X2413000Y254000D2*
Y278007D1*
X2286000Y405003D1*
Y728513D1*
X2399247Y841757D1*
X2413000D1*
Y867647D1*
X2159000Y254000D2*
Y278007D1*
X2032000Y405003D1*
Y732757D1*
X2159000Y859757D1*
Y867647D1*
X1905000Y254000D2*
Y278007D1*
X1778000Y405003D1*
Y728510D1*
X1891247Y841757D1*
X1905000D1*
Y867647D1*
X1651000Y254000D2*
Y278007D1*
X1524000Y405003D1*
Y740650D1*
X1651000Y867647D1*
X1397000Y254000D2*
Y278007D1*
X1270000Y405003D1*
Y728510D1*
X1351497Y810007D1*
X1397000D1*
Y867647D1*
X1143000Y254000D2*
Y278007D1*
X1016000Y405003D1*
Y740650D1*
X1143000Y867647D1*
X-2159000Y254000D2*
X-2286000Y381000D1*
Y740650D1*
X-2159000Y867647D1*
X381000Y254000D2*
X254000Y381000D1*
Y740650D1*
X381000Y867647D1*
X127000Y254000D2*
X0Y381000D1*
Y740650D1*
X127000Y867647D1*
X-127000Y254000D2*
X-254000Y381000D1*
Y740650D1*
X-127000Y867647D1*
X-381000Y254000D2*
X-508000Y381000D1*
Y740650D1*
X-381000Y867647D1*
X-635000Y254000D2*
X-762000Y381000D1*
Y740650D1*
X-635000Y867647D1*
X-889000Y254000D2*
X-1016000Y381000D1*
Y740650D1*
X-889000Y867647D1*
X-1143000Y254000D2*
X-1270000Y381000D1*
Y740650D1*
X-1143000Y867647D1*
X-1397000Y254000D2*
X-1524000Y381000D1*
Y740650D1*
X-1397000Y867647D1*
X-1651000Y254000D2*
X-1778000Y381000D1*
Y740650D1*
X-1651000Y867647D1*
X-1905000Y254000D2*
X-2032000Y381000D1*
Y740650D1*
X-1905000Y867647D1*
X-2413000Y254000D2*
X-2540000Y381000D1*
Y740650D1*
X-2413000Y867647D1*
X-2667000Y254000D2*
X-2794000Y381000D1*
Y740650D1*
X-2667000Y867647D1*
X-2921000Y254000D2*
X-3048000Y381000D1*
Y740650D1*
X-2921000Y867647D1*
X-3175000Y254000D2*
X-3302000Y381000D1*
Y740650D1*
X-3175000Y867647D1*
X-3429000Y254000D2*
X-3556000Y381000D1*
Y740650D1*
X-3429000Y867647D1*
X-3683000Y254000D2*
X-3810000Y381000D1*
Y740650D1*
X-3683000Y867647D1*
X-3937000Y254000D2*
X-4064000Y381000D1*
Y740650D1*
X-3937000Y867647D1*
X-4191000Y254000D2*
X-4318000Y381000D1*
Y740650D1*
X-4191000Y867647D1*
X-4445000Y254000D2*
X-4572000Y381000D1*
Y740650D1*
X-4445000Y867647D1*
D17*
X4445000Y254000D3*
D18*
Y0D3*
X4191000Y254000D3*
Y0D3*
X3937000Y254000D3*
Y0D3*
X3683000Y254000D3*
Y0D3*
X3429000Y254000D3*
Y0D3*
X3175000Y254000D3*
Y0D3*
X2921000Y254000D3*
Y0D3*
X2667000Y254000D3*
Y0D3*
X2413000Y254000D3*
Y0D3*
X2159000Y254000D3*
Y0D3*
X1905000Y254000D3*
Y0D3*
X1651000Y254000D3*
Y0D3*
X1397000Y254000D3*
Y0D3*
X1143000Y254000D3*
Y0D3*
X889000Y254000D3*
Y0D3*
D17*
X381000Y254000D3*
D18*
Y0D3*
X127000Y254000D3*
Y0D3*
X-127000Y254000D3*
Y0D3*
X-381000Y254000D3*
Y0D3*
X-635000Y254000D3*
Y0D3*
X-889000Y254000D3*
Y0D3*
X-1143000Y254000D3*
Y0D3*
X-1397000Y254000D3*
Y0D3*
X-1651000Y254000D3*
Y0D3*
X-1905000Y254000D3*
Y0D3*
X-2159000Y254000D3*
Y0D3*
X-2413000Y254000D3*
Y0D3*
X-2667000Y254000D3*
Y0D3*
X-2921000Y254000D3*
Y0D3*
X-3175000Y254000D3*
Y0D3*
X-3429000Y254000D3*
Y0D3*
X-3683000Y254000D3*
Y0D3*
X-3937000Y254000D3*
Y0D3*
X-4191000Y254000D3*
Y0D3*
X-4445000Y254000D3*
Y0D3*
D17*
X4445000Y867650D3*
D18*
Y613650D3*
X4191000Y867650D3*
Y613650D3*
X3937000Y867650D3*
Y613650D3*
X3683000Y867650D3*
Y613650D3*
X3429000Y867650D3*
Y613650D3*
X3175000Y867650D3*
Y613650D3*
X2921000Y867650D3*
Y613650D3*
X2667000Y867650D3*
Y613650D3*
X2413000Y867650D3*
Y613650D3*
X2159000Y867650D3*
Y613650D3*
X1905000Y867650D3*
Y613650D3*
X1651000Y867650D3*
Y613650D3*
X1397000Y867650D3*
Y613650D3*
X1143000Y867650D3*
Y613650D3*
X889000Y867650D3*
Y613650D3*
D17*
X381000Y867650D3*
D18*
Y613650D3*
X127000Y867650D3*
Y613650D3*
X-127000Y867650D3*
Y613650D3*
X-381000Y867650D3*
Y613650D3*
X-635000Y867650D3*
Y613650D3*
X-889000Y867650D3*
Y613650D3*
X-1143000Y867650D3*
Y613650D3*
X-1397000Y867650D3*
Y613650D3*
X-1651000Y867650D3*
Y613650D3*
X-1905000Y867650D3*
Y613650D3*
X-2159000Y867650D3*
Y613650D3*
X-2413000Y867650D3*
Y613650D3*
X-2667000Y867650D3*
Y613650D3*
X-2921000Y867650D3*
Y613650D3*
X-3175000Y867650D3*
Y613650D3*
X-3429000Y867650D3*
Y613650D3*
X-3683000Y867650D3*
Y613650D3*
X-3937000Y867650D3*
Y613650D3*
X-4191000Y867650D3*
Y613650D3*
X-4445000Y867650D3*
Y613650D3*
M02*
