G04 DipTrace 4.3.0.5*
G04 1 - Top.gbr*
%MOMM*%
G04 #@! TF.FileFunction,Copper,L1,Top*
G04 #@! TF.Part,Single*
G04 #@! TA.AperFunction,Conductor*
%ADD10C,0.25*%
%ADD16C,1.2*%
%ADD17C,1.1*%
G04 #@! TA.AperFunction,ComponentPad*
%ADD18R,1.7X1.7*%
%ADD19C,1.7*%
%ADD20R,2.0X2.0*%
%ADD21R,1.1X1.1*%
%ADD22C,1.1*%
%FSLAX35Y35*%
G04*
G71*
G90*
G75*
G01*
G04 Top*
%LPD*%
X635000Y0D2*
D16*
Y-254000D1*
Y-1524000D1*
Y-1778000D1*
Y-3048000D1*
Y-3302000D1*
Y-4572000D1*
Y-4826000D1*
Y0D2*
Y190500D1*
X952500Y508000D1*
X2159000D1*
Y349250D1*
X2254250Y254000D1*
X3601683D1*
D17*
Y272307D1*
X3683000Y353623D1*
X4699000Y0D2*
D16*
Y-254000D1*
Y-1524000D1*
Y-1778000D1*
Y-3048000D1*
Y-3302000D1*
Y-4572000D1*
Y-4826000D1*
X3683000Y503623D2*
D17*
X3798000D1*
D16*
X3941377D1*
X4159250Y285750D1*
X4492623D1*
X4699000Y79373D1*
Y0D1*
X3683000Y503623D2*
D17*
X3568000D1*
D16*
Y487750D1*
X2687250D1*
X2667000Y508000D1*
X4445000Y-254000D2*
D10*
X4318000Y-381000D1*
Y-1651000D1*
X4445000Y-1778000D1*
X4318000Y-1905000D1*
Y-3175000D1*
X4445000Y-3302000D1*
X4318000Y-3429000D1*
Y-4699000D1*
X4445000Y-4826000D1*
X4191000Y-254000D2*
X4064000Y-381000D1*
Y-1651000D1*
X4191000Y-1778000D1*
X4064000Y-1905000D1*
Y-3175000D1*
X4191000Y-3302000D1*
X4064000Y-3429000D1*
Y-4699000D1*
X4191000Y-4826000D1*
X3937000Y-254000D2*
X3810000Y-381000D1*
Y-1651000D1*
X3937000Y-1778000D1*
X3810000Y-1905000D1*
Y-3175000D1*
X3937000Y-3302000D1*
X3810000Y-3429000D1*
Y-4699000D1*
X3937000Y-4826000D1*
X3683000Y-254000D2*
X3556000Y-381000D1*
Y-1651000D1*
X3683000Y-1778000D1*
X3556000Y-1905000D1*
Y-3175000D1*
X3683000Y-3302000D1*
X3556000Y-3429000D1*
Y-4699000D1*
X3683000Y-4826000D1*
X3429000Y-254000D2*
X3302000Y-381000D1*
Y-1651000D1*
X3429000Y-1778000D1*
X3302000Y-1905000D1*
Y-3175000D1*
X3429000Y-3302000D1*
X3302000Y-3429000D1*
Y-4699000D1*
X3429000Y-4826000D1*
X3175000Y-254000D2*
X3048000Y-381000D1*
Y-1651000D1*
X3175000Y-1778000D1*
X3048000Y-1905000D1*
Y-3175000D1*
X3175000Y-3302000D1*
X3048000Y-3429000D1*
Y-4699000D1*
X3175000Y-4826000D1*
X2921000Y-254000D2*
X2794000Y-381000D1*
Y-1651000D1*
X2921000Y-1778000D1*
X2794000Y-1905000D1*
Y-3175000D1*
X2921000Y-3302000D1*
X2794000Y-3429000D1*
Y-4699000D1*
X2921000Y-4826000D1*
X2667000Y-254000D2*
X2540000Y-381000D1*
Y-1651000D1*
X2667000Y-1778000D1*
X2540000Y-1905000D1*
Y-3175000D1*
X2667000Y-3302000D1*
X2540000Y-3429000D1*
Y-4699000D1*
X2667000Y-4826000D1*
X2413000Y-254000D2*
X2286000Y-381000D1*
Y-1651000D1*
X2413000Y-1778000D1*
X2286000Y-1905000D1*
Y-3175000D1*
X2413000Y-3302000D1*
X2286000Y-3429000D1*
Y-4699000D1*
X2413000Y-4826000D1*
X2159000Y-254000D2*
X2032000Y-381000D1*
Y-1651000D1*
X2159000Y-1778000D1*
X2032000Y-1905000D1*
Y-3175000D1*
X2159000Y-3302000D1*
X2032000Y-3429000D1*
Y-4699000D1*
X2159000Y-4826000D1*
X1905000Y-254000D2*
X1778000Y-381000D1*
Y-1651000D1*
X1905000Y-1778000D1*
X1778000Y-1905000D1*
Y-3175000D1*
X1905000Y-3302000D1*
X1778000Y-3429000D1*
Y-4699000D1*
X1905000Y-4826000D1*
X1651000Y-254000D2*
X1524000Y-381000D1*
Y-1651000D1*
X1651000Y-1778000D1*
X1524000Y-1905000D1*
Y-3175000D1*
X1651000Y-3302000D1*
X1524000Y-3429000D1*
Y-4699000D1*
X1651000Y-4826000D1*
X1397000Y-254000D2*
X1270000Y-381000D1*
Y-1651000D1*
X1397000Y-1778000D1*
X1270000Y-1905000D1*
Y-3175000D1*
X1397000Y-3302000D1*
X1270000Y-3429000D1*
Y-4699000D1*
X1397000Y-4826000D1*
X1143000Y-254000D2*
X1016000Y-381000D1*
Y-1651000D1*
X1143000Y-1778000D1*
X1016000Y-1905000D1*
Y-3175000D1*
X1143000Y-3302000D1*
X1016000Y-3429000D1*
Y-4699000D1*
X1143000Y-4826000D1*
X889000Y-254000D2*
X762000Y-381000D1*
Y-1651000D1*
X889000Y-1778000D1*
X762000Y-1905000D1*
Y-3175000D1*
X889000Y-3302000D1*
X762000Y-3429000D1*
Y-4699000D1*
X889000Y-4826000D1*
X127000Y-254000D2*
X0Y-381000D1*
Y-1651000D1*
X127000Y-1778000D1*
X0Y-1905000D1*
Y-3175000D1*
X127000Y-3302000D1*
X0Y-3429000D1*
Y-4699000D1*
X127000Y-4826000D1*
X-127000Y-254000D2*
X-254000Y-381000D1*
Y-1651000D1*
X-127000Y-1778000D1*
X-254000Y-1905000D1*
Y-3175000D1*
X-127000Y-3302000D1*
X-254000Y-3429000D1*
Y-4699000D1*
X-127000Y-4826000D1*
X-381000Y-254000D2*
X-508000Y-381000D1*
Y-1651000D1*
X-381000Y-1778000D1*
X-508000Y-1905000D1*
Y-3175000D1*
X-381000Y-3302000D1*
X-508000Y-3429000D1*
Y-4699000D1*
X-381000Y-4826000D1*
X-635000Y-254000D2*
X-762000Y-381000D1*
Y-1651000D1*
X-635000Y-1778000D1*
X-762000Y-1905000D1*
Y-3175000D1*
X-635000Y-3302000D1*
X-762000Y-3429000D1*
Y-4699000D1*
X-635000Y-4826000D1*
X-889000Y-254000D2*
X-1016000Y-381000D1*
Y-1651000D1*
X-889000Y-1778000D1*
X-1016000Y-1905000D1*
Y-3175000D1*
X-889000Y-3302000D1*
X-1016000Y-3429000D1*
Y-4699000D1*
X-889000Y-4826000D1*
X-1143000Y-254000D2*
X-1270000Y-381000D1*
Y-1651000D1*
X-1143000Y-1778000D1*
X-1270000Y-1905000D1*
Y-3175000D1*
X-1143000Y-3302000D1*
X-1270000Y-3429000D1*
Y-4699000D1*
X-1143000Y-4826000D1*
X-1397000Y-254000D2*
X-1524000Y-381000D1*
Y-1651000D1*
X-1397000Y-1778000D1*
X-1524000Y-1905000D1*
Y-3175000D1*
X-1397000Y-3302000D1*
X-1524000Y-3429000D1*
Y-4699000D1*
X-1397000Y-4826000D1*
X-1651000Y-254000D2*
X-1778000Y-381000D1*
Y-1651000D1*
X-1651000Y-1778000D1*
X-1778000Y-1905000D1*
Y-3175000D1*
X-1651000Y-3302000D1*
X-1778000Y-3429000D1*
Y-4699000D1*
X-1651000Y-4826000D1*
X-1905000Y-254000D2*
X-2032000Y-381000D1*
Y-1651000D1*
X-1905000Y-1778000D1*
X-2032000Y-1905000D1*
Y-3175000D1*
X-1905000Y-3302000D1*
X-2032000Y-3429000D1*
Y-4699000D1*
X-1905000Y-4826000D1*
X-2159000Y-254000D2*
X-2286000Y-381000D1*
Y-1651000D1*
X-2159000Y-1778000D1*
X-2286000Y-1905000D1*
Y-3175000D1*
X-2159000Y-3302000D1*
X-2286000Y-3429000D1*
Y-4699000D1*
X-2159000Y-4826000D1*
X-2413000Y-254000D2*
X-2540000Y-381000D1*
Y-1651000D1*
X-2413000Y-1778000D1*
X-2540000Y-1905000D1*
Y-3175000D1*
X-2413000Y-3302000D1*
X-2540000Y-3429000D1*
Y-4699000D1*
X-2413000Y-4826000D1*
X-2667000Y-254000D2*
X-2794000Y-381000D1*
Y-1651000D1*
X-2667000Y-1778000D1*
X-2794000Y-1905000D1*
Y-3175000D1*
X-2667000Y-3302000D1*
X-2794000Y-3429000D1*
Y-4699000D1*
X-2667000Y-4826000D1*
X-2921000Y-254000D2*
X-3048000Y-381000D1*
Y-1651000D1*
X-2921000Y-1778000D1*
X-3048000Y-1905000D1*
Y-3175000D1*
X-2921000Y-3302000D1*
X-3048000Y-3429000D1*
Y-4699000D1*
X-2921000Y-4826000D1*
X-3175000Y-254000D2*
X-3302000Y-381000D1*
Y-1651000D1*
X-3175000Y-1778000D1*
X-3302000Y-1905000D1*
Y-3175000D1*
X-3175000Y-3302000D1*
X-3302000Y-3429000D1*
Y-4699000D1*
X-3175000Y-4826000D1*
X-3429000Y-254000D2*
X-3556000Y-381000D1*
Y-1651000D1*
X-3429000Y-1778000D1*
X-3556000Y-1905000D1*
Y-3175000D1*
X-3429000Y-3302000D1*
X-3556000Y-3429000D1*
Y-4699000D1*
X-3429000Y-4826000D1*
X-3683000Y-254000D2*
X-3810000Y-381000D1*
Y-1651000D1*
X-3683000Y-1778000D1*
X-3810000Y-1905000D1*
Y-3175000D1*
X-3683000Y-3302000D1*
X-3810000Y-3429000D1*
Y-4699000D1*
X-3683000Y-4826000D1*
X-3937000Y-254000D2*
X-4064000Y-381000D1*
Y-1651000D1*
X-3937000Y-1778000D1*
X-4064000Y-1905000D1*
Y-3175000D1*
X-3937000Y-3302000D1*
X-4064000Y-3429000D1*
Y-4699000D1*
X-3937000Y-4826000D1*
X-4191000Y-254000D2*
X-4318000Y-381000D1*
Y-1651000D1*
X-4191000Y-1778000D1*
X-4318000Y-1905000D1*
Y-3175000D1*
X-4191000Y-3302000D1*
X-4318000Y-3429000D1*
Y-4699000D1*
X-4191000Y-4826000D1*
X-4445000Y-254000D2*
X-4572000Y-381000D1*
Y-1651000D1*
X-4445000Y-1778000D1*
X-4572000Y-1905000D1*
Y-3175000D1*
X-4445000Y-3302000D1*
X-4572000Y-3429000D1*
Y-4699000D1*
X-4445000Y-4826000D1*
X-4699000Y-254000D2*
X-4826000Y-381000D1*
Y-1651000D1*
X-4699000Y-1778000D1*
X-4826000Y-1905000D1*
Y-3175000D1*
X-4699000Y-3302000D1*
X-4826000Y-3429000D1*
Y-4699000D1*
X-4699000Y-4826000D1*
D18*
X127000Y0D3*
D19*
Y-254000D3*
X-127000Y0D3*
Y-254000D3*
X-381000Y0D3*
Y-254000D3*
X-635000Y0D3*
Y-254000D3*
X-889000Y0D3*
Y-254000D3*
X-1143000Y0D3*
Y-254000D3*
X-1397000Y0D3*
Y-254000D3*
X-1651000Y0D3*
Y-254000D3*
X-1905000Y0D3*
Y-254000D3*
X-2159000Y0D3*
Y-254000D3*
X-2413000Y0D3*
Y-254000D3*
X-2667000Y0D3*
Y-254000D3*
X-2921000Y0D3*
Y-254000D3*
X-3175000Y0D3*
Y-254000D3*
X-3429000Y0D3*
Y-254000D3*
X-3683000Y0D3*
Y-254000D3*
X-3937000Y0D3*
Y-254000D3*
X-4191000Y0D3*
Y-254000D3*
X-4445000Y0D3*
Y-254000D3*
X-4699000Y0D3*
Y-254000D3*
D18*
X127000Y-1524000D3*
D19*
Y-1778000D3*
X-127000Y-1524000D3*
Y-1778000D3*
X-381000Y-1524000D3*
Y-1778000D3*
X-635000Y-1524000D3*
Y-1778000D3*
X-889000Y-1524000D3*
Y-1778000D3*
X-1143000Y-1524000D3*
Y-1778000D3*
X-1397000Y-1524000D3*
Y-1778000D3*
X-1651000Y-1524000D3*
Y-1778000D3*
X-1905000Y-1524000D3*
Y-1778000D3*
X-2159000Y-1524000D3*
Y-1778000D3*
X-2413000Y-1524000D3*
Y-1778000D3*
X-2667000Y-1524000D3*
Y-1778000D3*
X-2921000Y-1524000D3*
Y-1778000D3*
X-3175000Y-1524000D3*
Y-1778000D3*
X-3429000Y-1524000D3*
Y-1778000D3*
X-3683000Y-1524000D3*
Y-1778000D3*
X-3937000Y-1524000D3*
Y-1778000D3*
X-4191000Y-1524000D3*
Y-1778000D3*
X-4445000Y-1524000D3*
Y-1778000D3*
X-4699000Y-1524000D3*
Y-1778000D3*
D18*
X4699000Y-1524000D3*
D19*
Y-1778000D3*
X4445000Y-1524000D3*
Y-1778000D3*
X4191000Y-1524000D3*
Y-1778000D3*
X3937000Y-1524000D3*
Y-1778000D3*
X3683000Y-1524000D3*
Y-1778000D3*
X3429000Y-1524000D3*
Y-1778000D3*
X3175000Y-1524000D3*
Y-1778000D3*
X2921000Y-1524000D3*
Y-1778000D3*
X2667000Y-1524000D3*
Y-1778000D3*
X2413000Y-1524000D3*
Y-1778000D3*
X2159000Y-1524000D3*
Y-1778000D3*
X1905000Y-1524000D3*
Y-1778000D3*
X1651000Y-1524000D3*
Y-1778000D3*
X1397000Y-1524000D3*
Y-1778000D3*
X1143000Y-1524000D3*
Y-1778000D3*
X889000Y-1524000D3*
Y-1778000D3*
X635000Y-1524000D3*
Y-1778000D3*
D18*
X4699000Y0D3*
D19*
Y-254000D3*
X4445000Y0D3*
Y-254000D3*
X4191000Y0D3*
Y-254000D3*
X3937000Y0D3*
Y-254000D3*
X3683000Y0D3*
Y-254000D3*
X3429000Y0D3*
Y-254000D3*
X3175000Y0D3*
Y-254000D3*
X2921000Y0D3*
Y-254000D3*
X2667000Y0D3*
Y-254000D3*
X2413000Y0D3*
Y-254000D3*
X2159000Y0D3*
Y-254000D3*
X1905000Y0D3*
Y-254000D3*
X1651000Y0D3*
Y-254000D3*
X1397000Y0D3*
Y-254000D3*
X1143000Y0D3*
Y-254000D3*
X889000Y0D3*
Y-254000D3*
X635000Y0D3*
Y-254000D3*
D18*
X127000Y-3048000D3*
D19*
Y-3302000D3*
X-127000Y-3048000D3*
Y-3302000D3*
X-381000Y-3048000D3*
Y-3302000D3*
X-635000Y-3048000D3*
Y-3302000D3*
X-889000Y-3048000D3*
Y-3302000D3*
X-1143000Y-3048000D3*
Y-3302000D3*
X-1397000Y-3048000D3*
Y-3302000D3*
X-1651000Y-3048000D3*
Y-3302000D3*
X-1905000Y-3048000D3*
Y-3302000D3*
X-2159000Y-3048000D3*
Y-3302000D3*
X-2413000Y-3048000D3*
Y-3302000D3*
X-2667000Y-3048000D3*
Y-3302000D3*
X-2921000Y-3048000D3*
Y-3302000D3*
X-3175000Y-3048000D3*
Y-3302000D3*
X-3429000Y-3048000D3*
Y-3302000D3*
X-3683000Y-3048000D3*
Y-3302000D3*
X-3937000Y-3048000D3*
Y-3302000D3*
X-4191000Y-3048000D3*
Y-3302000D3*
X-4445000Y-3048000D3*
Y-3302000D3*
X-4699000Y-3048000D3*
Y-3302000D3*
D18*
X4699000Y-3048000D3*
D19*
Y-3302000D3*
X4445000Y-3048000D3*
Y-3302000D3*
X4191000Y-3048000D3*
Y-3302000D3*
X3937000Y-3048000D3*
Y-3302000D3*
X3683000Y-3048000D3*
Y-3302000D3*
X3429000Y-3048000D3*
Y-3302000D3*
X3175000Y-3048000D3*
Y-3302000D3*
X2921000Y-3048000D3*
Y-3302000D3*
X2667000Y-3048000D3*
Y-3302000D3*
X2413000Y-3048000D3*
Y-3302000D3*
X2159000Y-3048000D3*
Y-3302000D3*
X1905000Y-3048000D3*
Y-3302000D3*
X1651000Y-3048000D3*
Y-3302000D3*
X1397000Y-3048000D3*
Y-3302000D3*
X1143000Y-3048000D3*
Y-3302000D3*
X889000Y-3048000D3*
Y-3302000D3*
X635000Y-3048000D3*
Y-3302000D3*
D18*
X127000Y-4572000D3*
D19*
Y-4826000D3*
X-127000Y-4572000D3*
Y-4826000D3*
X-381000Y-4572000D3*
Y-4826000D3*
X-635000Y-4572000D3*
Y-4826000D3*
X-889000Y-4572000D3*
Y-4826000D3*
X-1143000Y-4572000D3*
Y-4826000D3*
X-1397000Y-4572000D3*
Y-4826000D3*
X-1651000Y-4572000D3*
Y-4826000D3*
X-1905000Y-4572000D3*
Y-4826000D3*
X-2159000Y-4572000D3*
Y-4826000D3*
X-2413000Y-4572000D3*
Y-4826000D3*
X-2667000Y-4572000D3*
Y-4826000D3*
X-2921000Y-4572000D3*
Y-4826000D3*
X-3175000Y-4572000D3*
Y-4826000D3*
X-3429000Y-4572000D3*
Y-4826000D3*
X-3683000Y-4572000D3*
Y-4826000D3*
X-3937000Y-4572000D3*
Y-4826000D3*
X-4191000Y-4572000D3*
Y-4826000D3*
X-4445000Y-4572000D3*
Y-4826000D3*
X-4699000Y-4572000D3*
Y-4826000D3*
D18*
X4699000Y-4572000D3*
D19*
Y-4826000D3*
X4445000Y-4572000D3*
Y-4826000D3*
X4191000Y-4572000D3*
Y-4826000D3*
X3937000Y-4572000D3*
Y-4826000D3*
X3683000Y-4572000D3*
Y-4826000D3*
X3429000Y-4572000D3*
Y-4826000D3*
X3175000Y-4572000D3*
Y-4826000D3*
X2921000Y-4572000D3*
Y-4826000D3*
X2667000Y-4572000D3*
Y-4826000D3*
X2413000Y-4572000D3*
Y-4826000D3*
X2159000Y-4572000D3*
Y-4826000D3*
X1905000Y-4572000D3*
Y-4826000D3*
X1651000Y-4572000D3*
Y-4826000D3*
X1397000Y-4572000D3*
Y-4826000D3*
X1143000Y-4572000D3*
Y-4826000D3*
X889000Y-4572000D3*
Y-4826000D3*
X635000Y-4572000D3*
Y-4826000D3*
D20*
X2159000Y508000D3*
X2667000D3*
D21*
X3683000Y503623D3*
D22*
Y353623D3*
M02*
