M48
METRIC,0000.00
T01C0.7
T02C1.0
T03C1.1
T04C3.0
%
T01
X+003683Y+000504
X+003683Y+000354
T02
X+002159Y+000508
X+002667Y+000508
T03
X+000127Y+000000
X+000127Y-000254
X-000127Y-000254
X-000127Y+000000
X-000381Y+000000
X-000635Y+000000
X-000635Y-000254
X-000381Y-000254
X-000889Y-000254
X-000889Y+000000
X-001143Y+000000
X-001143Y-000254
X-001397Y-000254
X-001397Y+000000
X-001651Y+000000
X-001651Y-000254
X-001905Y-000254
X-001905Y+000000
X-002159Y+000000
X-002159Y-000254
X-002413Y-000254
X-002413Y+000000
X-002667Y+000000
X-002667Y-000254
X-002921Y-000254
X-002921Y+000000
X-003175Y+000000
X-003175Y-000254
X-003429Y-000254
X-003429Y+000000
X-003683Y+000000
X-003683Y-000254
X-003937Y-000254
X-003937Y+000000
X-004191Y+000000
X-004191Y-000254
X-004445Y-000254
X-004445Y+000000
X-004699Y+000000
X-004699Y-000254
X-004699Y-001524
X-004699Y-001778
X-004445Y-001778
X-004445Y-001524
X-004191Y-001524
X-003937Y-001524
X-003937Y-001778
X-003683Y-001778
X-003683Y-001524
X-003429Y-001524
X-003175Y-001524
X-002921Y-001524
X-002921Y-001778
X-003175Y-001778
X-003429Y-001778
X-002667Y-001778
X-002413Y-001778
X-002159Y-001778
X-002159Y-001524
X-002413Y-001524
X-002667Y-001524
X-001905Y-001524
X-001905Y-001778
X-001651Y-001778
X-001397Y-001778
X-001397Y-001524
X-001143Y-001524
X-001143Y-001778
X-000889Y-001778
X-000889Y-001524
X-000635Y-001524
X-000381Y-001524
X-000381Y-001778
X-000635Y-001778
X-000127Y-001778
X-000127Y-001524
X+000127Y-001524
X+000127Y-001778
X+000635Y-001778
X+000635Y-001524
X+000889Y-001524
X+001143Y-001524
X+001143Y-001778
X+001397Y-001778
X+001397Y-001524
X+001651Y-001524
X+001905Y-001524
X+002159Y-001524
X+002159Y-001778
X+001905Y-001778
X+001651Y-001778
X+002413Y-001778
X+002667Y-001778
X+002921Y-001778
X+002921Y-001524
X+002667Y-001524
X+002413Y-001524
X+003175Y-001524
X+003175Y-001778
X+003429Y-001778
X+003683Y-001778
X+003683Y-001524
X+003429Y-001524
X+003937Y-001524
X+003937Y-001778
X+004191Y-001778
X+004191Y-001524
X+004445Y-001524
X+004445Y-001778
X+004699Y-001778
X+004699Y-001524
X+004699Y-000254
X+004699Y+000000
X+004445Y+000000
X+004445Y-000254
X+004191Y-000254
X+004191Y+000000
X+003937Y+000000
X+003937Y-000254
X+003683Y-000254
X+003683Y+000000
X+003429Y+000000
X+003429Y-000254
X+003175Y-000254
X+003175Y+000000
X+002921Y+000000
X+002921Y-000254
X+002667Y-000254
X+002667Y+000000
X+002413Y+000000
X+002413Y-000254
X+002159Y-000254
X+002159Y+000000
X+001905Y+000000
X+001905Y-000254
X+001651Y-000254
X+001651Y+000000
X+001397Y+000000
X+001143Y+000000
X+001143Y-000254
X+001397Y-000254
X+000889Y-000254
X+000889Y+000000
X+000635Y+000000
X+000635Y-000254
X+000889Y-001778
X+000889Y-003048
X+001143Y-003048
X+001143Y-003302
X+001397Y-003302
X+001397Y-003048
X+001651Y-003048
X+001905Y-003048
X+002159Y-003048
X+002159Y-003302
X+001905Y-003302
X+001651Y-003302
X+002413Y-003302
X+002667Y-003302
X+002921Y-003302
X+002921Y-003048
X+002667Y-003048
X+002413Y-003048
X+003175Y-003048
X+003429Y-003048
X+003683Y-003048
X+003683Y-003302
X+003429Y-003302
X+003175Y-003302
X+003937Y-003302
X+004191Y-003302
X+004445Y-003302
X+004445Y-003048
X+004191Y-003048
X+003937Y-003048
X+004699Y-003048
X+004699Y-003302
X+004699Y-004572
X+004699Y-004826
X+004445Y-004826
X+004191Y-004826
X+004191Y-004572
X+004445Y-004572
X+003937Y-004572
X+003937Y-004826
X+003683Y-004826
X+003683Y-004572
X+003429Y-004572
X+003429Y-004826
X+003175Y-004826
X+003175Y-004572
X+002921Y-004572
X+002921Y-004826
X+002667Y-004826
X+002667Y-004572
X+002413Y-004572
X+002413Y-004826
X+002159Y-004826
X+001905Y-004826
X+001905Y-004572
X+002159Y-004572
X+001651Y-004572
X+001651Y-004826
X+001397Y-004826
X+001143Y-004826
X+001143Y-004572
X+001397Y-004572
X+000889Y-004572
X+000889Y-004826
X+000635Y-004826
X+000635Y-004572
X+000127Y-004572
X+000127Y-004826
X-000127Y-004826
X-000127Y-004572
X-000381Y-004572
X-000635Y-004572
X-000635Y-004826
X-000381Y-004826
X-000889Y-004826
X-000889Y-004572
X-001143Y-004572
X-001397Y-004572
X-001651Y-004572
X-001651Y-004826
X-001397Y-004826
X-001143Y-004826
X-001905Y-004826
X-001905Y-004572
X-002159Y-004572
X-002159Y-004826
X-002413Y-004826
X-002413Y-004572
X-002667Y-004572
X-002667Y-004826
X-002921Y-004826
X-003175Y-004826
X-003429Y-004826
X-003429Y-004572
X-003175Y-004572
X-002921Y-004572
X-003683Y-004572
X-003683Y-004826
X-003937Y-004826
X-003937Y-004572
X-004191Y-004572
X-004191Y-004826
X-004445Y-004826
X-004699Y-004826
X-004699Y-004572
X-004445Y-004572
X-004445Y-003302
X-004699Y-003302
X-004699Y-003048
X-004445Y-003048
X-004191Y-003048
X-003937Y-003048
X-003937Y-003302
X-003683Y-003302
X-003683Y-003048
X-003429Y-003048
X-003175Y-003048
X-003175Y-003302
X-003429Y-003302
X-002921Y-003302
X-002921Y-003048
X-002667Y-003048
X-002667Y-003302
X-002413Y-003302
X-002159Y-003302
X-001905Y-003302
X-001905Y-003048
X-002159Y-003048
X-002413Y-003048
X-001651Y-003048
X-001651Y-003302
X-001397Y-003302
X-001397Y-003048
X-001143Y-003048
X-001143Y-003302
X-000889Y-003302
X-000889Y-003048
X-000635Y-003048
X-000381Y-003048
X-000381Y-003302
X-000635Y-003302
X-000127Y-003302
X-000127Y-003048
X+000127Y-003048
X+000127Y-003302
X+000635Y-003302
X+000635Y-003048
X+000889Y-003302
X-001651Y-001524
X-004191Y-001778
X-004191Y-003302
T04
X+004699Y+000635
X+000000Y+000635
X-004699Y+000635
X-004699Y-005556
X+000000Y-005556
X+004699Y-005556
T00
M30
