G04 DipTrace 4.3.0.5*
G04 TopAssembly.gbr*
%MOMM*%
G04 #@! TF.FileFunction,Drawing,Top*
G04 #@! TF.Part,Single*
%ADD13C,0.12*%
%FSLAX35Y35*%
G04*
G71*
G90*
G75*
G01*
G04 TopAssy*
%LPD*%
X3458000Y428623D2*
D13*
G02X3458000Y428623I225000J0D01*
G01*
G36*
X3894427Y690050D2*
X3900953Y689622D1*
X3907368Y688346D1*
X3913561Y686244D1*
X3919427Y683351D1*
X3924865Y679718D1*
X3929782Y675405D1*
X3934094Y670488D1*
X3937728Y665050D1*
X3940621Y659184D1*
X3942723Y652991D1*
X3943999Y646576D1*
X3944427Y640050D1*
X3943999Y633524D1*
X3942723Y627109D1*
X3940621Y620916D1*
X3937728Y615050D1*
X3934094Y609612D1*
X3929782Y604695D1*
X3924865Y600382D1*
X3919427Y596749D1*
X3913561Y593856D1*
X3907368Y591754D1*
X3900953Y590478D1*
X3894427Y590050D1*
D1*
X3887900Y590478D1*
X3881486Y591754D1*
X3875292Y593856D1*
X3869427Y596749D1*
X3863989Y600382D1*
X3859071Y604695D1*
X3854759Y609612D1*
X3851125Y615050D1*
X3848233Y620916D1*
X3846130Y627109D1*
X3844854Y633524D1*
X3844427Y640050D1*
X3844854Y646576D1*
X3846130Y652991D1*
X3848233Y659184D1*
X3851125Y665050D1*
X3854759Y670488D1*
X3859071Y675405D1*
X3863989Y679718D1*
X3869427Y683351D1*
X3875292Y686244D1*
X3881486Y688346D1*
X3887900Y689622D1*
X3894427Y690050D1*
D1*
G37*
M02*
