G04 DipTrace 4.3.0.5*
G04 TopDimension.gbr*
%MOMM*%
G04 #@! TF.FileFunction,Drawing,Top*
G04 #@! TF.Part,Single*
%ADD15C,0.035*%
%ADD39C,0.23529*%
%FSLAX35Y35*%
G04*
G71*
G90*
G75*
G01*
G04 TopDimension*
%LPD*%
X5000000Y-6000000D2*
D15*
X6958000D1*
X5000000Y943747D2*
X6958000D1*
X6858000Y-2528127D2*
Y-5800000D1*
G36*
Y-6000000D2*
X6818000Y-5800000D1*
X6898000D1*
X6858000Y-6000000D1*
G37*
Y-2528127D2*
D15*
Y743747D1*
G36*
Y943747D2*
X6898000Y743747D1*
X6818000D1*
X6858000Y943747D1*
G37*
X-5000000D2*
D15*
Y2386000D1*
X5000000Y943747D2*
Y2386000D1*
X0Y2286000D2*
X-4800000D1*
G36*
X-5000000D2*
X-4800000Y2326000D1*
Y2246000D1*
X-5000000Y2286000D1*
G37*
X0D2*
D15*
X4800000D1*
G36*
X5000000D2*
X4800000Y2246000D1*
Y2326000D1*
X5000000Y2286000D1*
G37*
X-4699000Y635000D2*
D15*
Y1678747D1*
X0Y635000D2*
Y1678747D1*
X-2349500Y1578747D2*
X-4499000D1*
G36*
X-4699000D2*
X-4499000Y1618747D1*
Y1538747D1*
X-4699000Y1578747D1*
G37*
X-2349500D2*
D15*
X-200000D1*
G36*
X0D2*
X-200000Y1538747D1*
Y1618747D1*
X0Y1578747D1*
G37*
X-4724913Y-270257D2*
D15*
X-5815000D1*
X-5000000Y943747D2*
X-5815000D1*
X-5715000D2*
Y-270257D1*
Y1243747D2*
Y1143747D1*
G36*
Y943747D2*
X-5755000Y1143747D1*
X-5675000D1*
X-5715000Y943747D1*
G37*
Y-570257D2*
D15*
Y-470257D1*
G36*
Y-270257D2*
X-5675000Y-470257D1*
X-5755000D1*
X-5715000Y-270257D1*
G37*
X-4699000Y-254000D2*
D15*
X-5815000D1*
X-4699000Y-1778000D2*
X-5815000D1*
X-5715000Y-254000D2*
Y-1778000D1*
Y46000D2*
Y-54000D1*
G36*
Y-254000D2*
X-5755000Y-54000D1*
X-5675000D1*
X-5715000Y-254000D1*
G37*
Y-2078000D2*
D15*
Y-1978000D1*
G36*
Y-1778000D2*
X-5675000Y-1978000D1*
X-5755000D1*
X-5715000Y-1778000D1*
G37*
X-4699000D2*
D15*
X-5815000D1*
X-4699000Y-3302000D2*
X-5815000D1*
X-5715000Y-1778000D2*
Y-3302000D1*
Y-1478000D2*
Y-1578000D1*
G36*
Y-1778000D2*
X-5755000Y-1578000D1*
X-5675000D1*
X-5715000Y-1778000D1*
G37*
Y-3602000D2*
D15*
Y-3502000D1*
G36*
Y-3302000D2*
X-5675000Y-3502000D1*
X-5755000D1*
X-5715000Y-3302000D1*
G37*
X4699000Y-1778000D2*
D15*
X5434000D1*
X4699000Y-4826000D2*
X5434000D1*
X5334000Y-3302000D2*
Y-1978000D1*
G36*
Y-1778000D2*
X5374000Y-1978000D1*
X5294000D1*
X5334000Y-1778000D1*
G37*
Y-3302000D2*
D15*
Y-4626000D1*
G36*
Y-4826000D2*
X5294000Y-4626000D1*
X5374000D1*
X5334000Y-4826000D1*
G37*
X-4699000Y-3302000D2*
D15*
X-5815000D1*
X-4699000Y-4826000D2*
X-5815000D1*
X-5715000Y-3302000D2*
Y-4826000D1*
Y-3002000D2*
Y-3102000D1*
G36*
Y-3302000D2*
X-5755000Y-3102000D1*
X-5675000D1*
X-5715000Y-3302000D1*
G37*
Y-5126000D2*
D15*
Y-5026000D1*
G36*
Y-4826000D2*
X-5675000Y-5026000D1*
X-5755000D1*
X-5715000Y-4826000D1*
G37*
X0Y635000D2*
D15*
Y1678747D1*
X4699000Y635000D2*
Y1678747D1*
X2349500Y1578747D2*
X200000D1*
G36*
X0D2*
X200000Y1618747D1*
Y1538747D1*
X0Y1578747D1*
G37*
X2349500D2*
D15*
X4499000D1*
G36*
X4699000D2*
X4499000Y1538747D1*
Y1618747D1*
X4699000Y1578747D1*
G37*
Y635000D2*
D15*
X6069000D1*
X4699000Y-5556250D2*
X6069000D1*
X5969000Y-2460625D2*
Y435000D1*
G36*
Y635000D2*
X6009000Y435000D1*
X5929000D1*
X5969000Y635000D1*
G37*
Y-2460625D2*
D15*
Y-5356250D1*
G36*
Y-5556250D2*
X5929000Y-5356250D1*
X6009000D1*
X5969000Y-5556250D1*
G37*
X4699000Y-254000D2*
D15*
X5497500D1*
X4699000Y635000D2*
X5497500D1*
X5397500Y190500D2*
Y-54000D1*
G36*
Y-254000D2*
X5357500Y-54000D1*
X5437500D1*
X5397500Y-254000D1*
G37*
Y190500D2*
D15*
Y435000D1*
G36*
Y635000D2*
X5437500Y435000D1*
X5357500D1*
X5397500Y635000D1*
G37*
Y-1471856D2*
D15*
Y635000D1*
X4699000Y-4826000D2*
X5624500D1*
X4699000Y-5556250D2*
X5624500D1*
X5524500Y-5191125D2*
Y-5026000D1*
G36*
Y-4826000D2*
X5564500Y-5026000D1*
X5484500D1*
X5524500Y-4826000D1*
G37*
Y-5191125D2*
D15*
Y-5356250D1*
G36*
Y-5556250D2*
X5484500Y-5356250D1*
X5564500D1*
X5524500Y-5556250D1*
G37*
Y-6930833D2*
D15*
Y-4826000D1*
X7035755Y-1969164D2*
D39*
X7050242Y-1961920D1*
X7057486Y-1940020D1*
Y-1925533D1*
X7050242Y-1903633D1*
X7028342Y-1888976D1*
X6991955Y-1881733D1*
X6955567D1*
X6926423Y-1888976D1*
X6911767Y-1903633D1*
X6904523Y-1925533D1*
Y-1932776D1*
X6911767Y-1954508D1*
X6926423Y-1969164D1*
X6948323Y-1976408D1*
X6955567D1*
X6977467Y-1969164D1*
X6991955Y-1954508D1*
X6999198Y-1932776D1*
Y-1925533D1*
X6991955Y-1903633D1*
X6977467Y-1888976D1*
X6955567Y-1881733D1*
X7006611Y-2118311D2*
X6984711Y-2110898D1*
X6970055Y-2096411D1*
X6962811Y-2074511D1*
Y-2067267D1*
X6970055Y-2045367D1*
X6984711Y-2030879D1*
X7006611Y-2023467D1*
X7013855D1*
X7035755Y-2030879D1*
X7050242Y-2045367D1*
X7057486Y-2067267D1*
Y-2074511D1*
X7050242Y-2096411D1*
X7035755Y-2110898D1*
X7006611Y-2118311D1*
X6970055D1*
X6933667Y-2110898D1*
X6911767Y-2096411D1*
X6904523Y-2074511D1*
Y-2060023D1*
X6911767Y-2038123D1*
X6926423Y-2030879D1*
X6919179Y-2172613D2*
X6911767Y-2165369D1*
X6904523Y-2172613D1*
X6911767Y-2180026D1*
X6919179Y-2172613D1*
X6904523Y-2300028D2*
X7057486D1*
X6955567Y-2227084D1*
Y-2336416D1*
X7057486Y-2398131D2*
Y-2478150D1*
X6999198Y-2434519D1*
Y-2456419D1*
X6991955Y-2470906D1*
X6984711Y-2478150D1*
X6962811Y-2485563D1*
X6948323D1*
X6926423Y-2478150D1*
X6911767Y-2463663D1*
X6904523Y-2441763D1*
Y-2419863D1*
X6911767Y-2398131D1*
X6919179Y-2390887D1*
X6933667Y-2383475D1*
X6904523Y-2561765D2*
X7057486Y-2634709D1*
Y-2532621D1*
X7006611Y-2829904D2*
X6904523D1*
X6977467D2*
X6999367Y-2851804D1*
X7006611Y-2866460D1*
Y-2888191D1*
X6999367Y-2902847D1*
X6977467Y-2910091D1*
X6904523D1*
X6977467D2*
X6999367Y-2931991D1*
X7006611Y-2946647D1*
Y-2968379D1*
X6999367Y-2983035D1*
X6977467Y-2990447D1*
X6904523D1*
X7006611Y-3037506D2*
X6904523D1*
X6977467D2*
X6999367Y-3059406D1*
X7006611Y-3074062D1*
Y-3095794D1*
X6999367Y-3110450D1*
X6977467Y-3117694D1*
X6904523D1*
X6977467D2*
X6999367Y-3139594D1*
X7006611Y-3154250D1*
Y-3175982D1*
X6999367Y-3190638D1*
X6977467Y-3198050D1*
X6904523D1*
X-437330Y2456342D2*
X-422674Y2463755D1*
X-400774Y2485486D1*
Y2332523D1*
X-309915Y2485486D2*
X-331815Y2478242D1*
X-346472Y2456342D1*
X-353715Y2419955D1*
Y2398055D1*
X-346472Y2361667D1*
X-331815Y2339767D1*
X-309915Y2332523D1*
X-295428D1*
X-273528Y2339767D1*
X-259040Y2361667D1*
X-251628Y2398055D1*
Y2419955D1*
X-259040Y2456342D1*
X-273528Y2478242D1*
X-295428Y2485486D1*
X-309915D1*
X-259040Y2456342D2*
X-346472Y2361667D1*
X-160769Y2485486D2*
X-182669Y2478242D1*
X-197325Y2456342D1*
X-204569Y2419955D1*
Y2398055D1*
X-197325Y2361667D1*
X-182669Y2339767D1*
X-160769Y2332523D1*
X-146281D1*
X-124381Y2339767D1*
X-109894Y2361667D1*
X-102481Y2398055D1*
Y2419955D1*
X-109894Y2456342D1*
X-124381Y2478242D1*
X-146281Y2485486D1*
X-160769D1*
X-109894Y2456342D2*
X-197325Y2361667D1*
X92713Y2434611D2*
Y2332523D1*
Y2405467D2*
X114613Y2427367D1*
X129269Y2434611D1*
X151001D1*
X165657Y2427367D1*
X172901Y2405467D1*
Y2332523D1*
Y2405467D2*
X194801Y2427367D1*
X209457Y2434611D1*
X231189D1*
X245845Y2427367D1*
X253257Y2405467D1*
Y2332523D1*
X300316Y2434611D2*
Y2332523D1*
Y2405467D2*
X322216Y2427367D1*
X336872Y2434611D1*
X358604D1*
X373260Y2427367D1*
X380504Y2405467D1*
Y2332523D1*
Y2405467D2*
X402404Y2427367D1*
X417060Y2434611D1*
X438791D1*
X453448Y2427367D1*
X460860Y2405467D1*
Y2332523D1*
X-2844755Y1625270D2*
Y1778233D1*
X-2917699Y1676313D1*
X-2808367D1*
X-2673877Y1756501D2*
X-2681121Y1770989D1*
X-2703021Y1778233D1*
X-2717509D1*
X-2739409Y1770989D1*
X-2754065Y1749089D1*
X-2761309Y1712701D1*
Y1676313D1*
X-2754065Y1647170D1*
X-2739409Y1632513D1*
X-2717509Y1625270D1*
X-2710265D1*
X-2688533Y1632513D1*
X-2673877Y1647170D1*
X-2666633Y1669070D1*
Y1676313D1*
X-2673877Y1698213D1*
X-2688533Y1712701D1*
X-2710265Y1719945D1*
X-2717509D1*
X-2739409Y1712701D1*
X-2754065Y1698213D1*
X-2761309Y1676313D1*
X-2612330Y1639926D2*
X-2619574Y1632513D1*
X-2612330Y1625270D1*
X-2604918Y1632513D1*
X-2612330Y1639926D1*
X-2463015Y1727357D2*
X-2470428Y1705457D1*
X-2484915Y1690801D1*
X-2506815Y1683557D1*
X-2514059D1*
X-2535959Y1690801D1*
X-2550447Y1705457D1*
X-2557859Y1727357D1*
Y1734601D1*
X-2550447Y1756501D1*
X-2535959Y1770989D1*
X-2514059Y1778233D1*
X-2506815D1*
X-2484915Y1770989D1*
X-2470428Y1756501D1*
X-2463015Y1727357D1*
Y1690801D1*
X-2470428Y1654413D1*
X-2484915Y1632513D1*
X-2506815Y1625270D1*
X-2521303D1*
X-2543203Y1632513D1*
X-2550447Y1647170D1*
X-2321113Y1727357D2*
X-2328525Y1705457D1*
X-2343013Y1690801D1*
X-2364913Y1683557D1*
X-2372157D1*
X-2394057Y1690801D1*
X-2408544Y1705457D1*
X-2415957Y1727357D1*
Y1734601D1*
X-2408544Y1756501D1*
X-2394057Y1770989D1*
X-2372157Y1778233D1*
X-2364913D1*
X-2343013Y1770989D1*
X-2328525Y1756501D1*
X-2321113Y1727357D1*
Y1690801D1*
X-2328525Y1654413D1*
X-2343013Y1632513D1*
X-2364913Y1625270D1*
X-2379400D1*
X-2401300Y1632513D1*
X-2408544Y1647170D1*
X-2125918Y1727357D2*
Y1625270D1*
Y1698213D2*
X-2104018Y1720113D1*
X-2089362Y1727357D1*
X-2067631D1*
X-2052974Y1720113D1*
X-2045731Y1698213D1*
Y1625270D1*
Y1698213D2*
X-2023831Y1720113D1*
X-2009174Y1727357D1*
X-1987443D1*
X-1972787Y1720113D1*
X-1965374Y1698213D1*
Y1625270D1*
X-1918316Y1727357D2*
Y1625270D1*
Y1698213D2*
X-1896416Y1720113D1*
X-1881759Y1727357D1*
X-1860028D1*
X-1845372Y1720113D1*
X-1838128Y1698213D1*
Y1625270D1*
Y1698213D2*
X-1816228Y1720113D1*
X-1801572Y1727357D1*
X-1779840D1*
X-1765184Y1720113D1*
X-1757772Y1698213D1*
Y1625270D1*
X-5885342Y-176872D2*
X-5892755Y-162216D1*
X-5914486Y-140316D1*
X-5761523D1*
X-5878098Y-85845D2*
X-5885342D1*
X-5899998Y-78601D1*
X-5907242Y-71357D1*
X-5914486Y-56701D1*
Y-27557D1*
X-5907242Y-13070D1*
X-5899998Y-5826D1*
X-5885342Y1586D1*
X-5870855D1*
X-5856198Y-5826D1*
X-5834467Y-20314D1*
X-5761523Y-93257D1*
Y8830D1*
X-5776179Y63133D2*
X-5768767Y55889D1*
X-5761523Y63133D1*
X-5768767Y70545D1*
X-5776179Y63133D1*
X-5885342Y117604D2*
X-5892755Y132260D1*
X-5914486Y154160D1*
X-5761523D1*
Y274163D2*
X-5914486D1*
X-5812567Y201219D1*
Y310551D1*
X-5863611Y505745D2*
X-5761523D1*
X-5834467D2*
X-5856367Y527645D1*
X-5863611Y542301D1*
Y564033D1*
X-5856367Y578689D1*
X-5834467Y585933D1*
X-5761523D1*
X-5834467D2*
X-5856367Y607833D1*
X-5863611Y622489D1*
Y644221D1*
X-5856367Y658877D1*
X-5834467Y666289D1*
X-5761523D1*
X-5863611Y713348D2*
X-5761523D1*
X-5834467D2*
X-5856367Y735248D1*
X-5863611Y749904D1*
Y771636D1*
X-5856367Y786292D1*
X-5834467Y793536D1*
X-5761523D1*
X-5834467D2*
X-5856367Y815436D1*
X-5863611Y830092D1*
Y851823D1*
X-5856367Y866479D1*
X-5834467Y873892D1*
X-5761523D1*
X-5885342Y-1562383D2*
X-5892755Y-1547727D1*
X-5914486Y-1525827D1*
X-5761523D1*
X-5914486Y-1391337D2*
Y-1464112D1*
X-5848955Y-1471356D1*
X-5856198Y-1464112D1*
X-5863611Y-1442212D1*
Y-1420480D1*
X-5856198Y-1398580D1*
X-5841711Y-1383924D1*
X-5819811Y-1376680D1*
X-5805323D1*
X-5783423Y-1383924D1*
X-5768767Y-1398580D1*
X-5761523Y-1420480D1*
Y-1442212D1*
X-5768767Y-1464112D1*
X-5776179Y-1471356D1*
X-5790667Y-1478768D1*
X-5776179Y-1322378D2*
X-5768767Y-1329622D1*
X-5761523Y-1322378D1*
X-5768767Y-1314965D1*
X-5776179Y-1322378D1*
X-5878098Y-1260494D2*
X-5885342D1*
X-5899998Y-1253250D1*
X-5907242Y-1246007D1*
X-5914486Y-1231350D1*
Y-1202207D1*
X-5907242Y-1187719D1*
X-5899998Y-1180475D1*
X-5885342Y-1173063D1*
X-5870855D1*
X-5856198Y-1180475D1*
X-5834467Y-1194963D1*
X-5761523Y-1267907D1*
Y-1165819D1*
Y-1045816D2*
X-5914486D1*
X-5812567Y-1118760D1*
Y-1009429D1*
X-5863611Y-814234D2*
X-5761523D1*
X-5834467D2*
X-5856367Y-792334D1*
X-5863611Y-777678D1*
Y-755946D1*
X-5856367Y-741290D1*
X-5834467Y-734046D1*
X-5761523D1*
X-5834467D2*
X-5856367Y-712146D1*
X-5863611Y-697490D1*
Y-675759D1*
X-5856367Y-661102D1*
X-5834467Y-653690D1*
X-5761523D1*
X-5863611Y-606631D2*
X-5761523D1*
X-5834467D2*
X-5856367Y-584731D1*
X-5863611Y-570075D1*
Y-548344D1*
X-5856367Y-533687D1*
X-5834467Y-526444D1*
X-5761523D1*
X-5834467D2*
X-5856367Y-504544D1*
X-5863611Y-489887D1*
Y-468156D1*
X-5856367Y-453500D1*
X-5834467Y-446087D1*
X-5761523D1*
X-5885342Y-3086383D2*
X-5892755Y-3071727D1*
X-5914486Y-3049827D1*
X-5761523D1*
X-5914486Y-2915337D2*
Y-2988112D1*
X-5848955Y-2995356D1*
X-5856198Y-2988112D1*
X-5863611Y-2966212D1*
Y-2944480D1*
X-5856198Y-2922580D1*
X-5841711Y-2907924D1*
X-5819811Y-2900680D1*
X-5805323D1*
X-5783423Y-2907924D1*
X-5768767Y-2922580D1*
X-5761523Y-2944480D1*
Y-2966212D1*
X-5768767Y-2988112D1*
X-5776179Y-2995356D1*
X-5790667Y-3002768D1*
X-5776179Y-2846378D2*
X-5768767Y-2853622D1*
X-5761523Y-2846378D1*
X-5768767Y-2838965D1*
X-5776179Y-2846378D1*
X-5878098Y-2784494D2*
X-5885342D1*
X-5899998Y-2777250D1*
X-5907242Y-2770007D1*
X-5914486Y-2755350D1*
Y-2726207D1*
X-5907242Y-2711719D1*
X-5899998Y-2704475D1*
X-5885342Y-2697063D1*
X-5870855D1*
X-5856198Y-2704475D1*
X-5834467Y-2718963D1*
X-5761523Y-2791907D1*
Y-2689819D1*
Y-2569816D2*
X-5914486D1*
X-5812567Y-2642760D1*
Y-2533429D1*
X-5863611Y-2338234D2*
X-5761523D1*
X-5834467D2*
X-5856367Y-2316334D1*
X-5863611Y-2301678D1*
Y-2279946D1*
X-5856367Y-2265290D1*
X-5834467Y-2258046D1*
X-5761523D1*
X-5834467D2*
X-5856367Y-2236146D1*
X-5863611Y-2221490D1*
Y-2199759D1*
X-5856367Y-2185102D1*
X-5834467Y-2177690D1*
X-5761523D1*
X-5863611Y-2130631D2*
X-5761523D1*
X-5834467D2*
X-5856367Y-2108731D1*
X-5863611Y-2094075D1*
Y-2072344D1*
X-5856367Y-2057687D1*
X-5834467Y-2050444D1*
X-5761523D1*
X-5834467D2*
X-5856367Y-2028544D1*
X-5863611Y-2013887D1*
Y-1992156D1*
X-5856367Y-1977500D1*
X-5834467Y-1970087D1*
X-5761523D1*
X5533486Y-2737592D2*
Y-2817611D1*
X5475198Y-2773979D1*
Y-2795879D1*
X5467955Y-2810367D1*
X5460711Y-2817611D1*
X5438811Y-2825023D1*
X5424323D1*
X5402423Y-2817611D1*
X5387767Y-2803123D1*
X5380523Y-2781223D1*
Y-2759323D1*
X5387767Y-2737592D1*
X5395179Y-2730348D1*
X5409667Y-2722935D1*
X5533486Y-2915882D2*
X5526242Y-2893982D1*
X5504342Y-2879326D1*
X5467955Y-2872082D1*
X5446055D1*
X5409667Y-2879326D1*
X5387767Y-2893982D1*
X5380523Y-2915882D1*
Y-2930370D1*
X5387767Y-2952270D1*
X5409667Y-2966757D1*
X5446055Y-2974170D1*
X5467955D1*
X5504342Y-2966757D1*
X5526242Y-2952270D1*
X5533486Y-2930370D1*
Y-2915882D1*
X5504342Y-2966757D2*
X5409667Y-2879326D1*
X5395179Y-3028472D2*
X5387767Y-3021228D1*
X5380523Y-3028472D1*
X5387767Y-3035885D1*
X5395179Y-3028472D1*
X5380523Y-3155887D2*
X5533486D1*
X5431567Y-3082943D1*
Y-3192275D1*
X5533486Y-3275721D2*
X5526242Y-3253990D1*
X5511755Y-3246578D1*
X5497098D1*
X5482611Y-3253990D1*
X5475198Y-3268478D1*
X5467955Y-3297621D1*
X5460711Y-3319521D1*
X5446055Y-3334009D1*
X5431567Y-3341253D1*
X5409667D1*
X5395179Y-3334009D1*
X5387767Y-3326765D1*
X5380523Y-3304865D1*
Y-3275721D1*
X5387767Y-3253990D1*
X5395179Y-3246578D1*
X5409667Y-3239334D1*
X5431567D1*
X5446055Y-3246578D1*
X5460711Y-3261234D1*
X5467955Y-3282965D1*
X5475198Y-3312109D1*
X5482611Y-3326765D1*
X5497098Y-3334009D1*
X5511755D1*
X5526242Y-3326765D1*
X5533486Y-3304865D1*
Y-3275721D1*
X5482611Y-3536448D2*
X5380523D1*
X5453467D2*
X5475367Y-3558348D1*
X5482611Y-3573004D1*
Y-3594735D1*
X5475367Y-3609391D1*
X5453467Y-3616635D1*
X5380523D1*
X5453467D2*
X5475367Y-3638535D1*
X5482611Y-3653191D1*
Y-3674923D1*
X5475367Y-3689579D1*
X5453467Y-3696991D1*
X5380523D1*
X5482611Y-3744050D2*
X5380523D1*
X5453467D2*
X5475367Y-3765950D1*
X5482611Y-3780606D1*
Y-3802338D1*
X5475367Y-3816994D1*
X5453467Y-3824238D1*
X5380523D1*
X5453467D2*
X5475367Y-3846138D1*
X5482611Y-3860794D1*
Y-3882526D1*
X5475367Y-3897182D1*
X5453467Y-3904594D1*
X5380523D1*
X-5885342Y-4610383D2*
X-5892755Y-4595727D1*
X-5914486Y-4573827D1*
X-5761523D1*
X-5914486Y-4439337D2*
Y-4512112D1*
X-5848955Y-4519356D1*
X-5856198Y-4512112D1*
X-5863611Y-4490212D1*
Y-4468480D1*
X-5856198Y-4446580D1*
X-5841711Y-4431924D1*
X-5819811Y-4424680D1*
X-5805323D1*
X-5783423Y-4431924D1*
X-5768767Y-4446580D1*
X-5761523Y-4468480D1*
Y-4490212D1*
X-5768767Y-4512112D1*
X-5776179Y-4519356D1*
X-5790667Y-4526768D1*
X-5776179Y-4370378D2*
X-5768767Y-4377622D1*
X-5761523Y-4370378D1*
X-5768767Y-4362965D1*
X-5776179Y-4370378D1*
X-5878098Y-4308494D2*
X-5885342D1*
X-5899998Y-4301250D1*
X-5907242Y-4294007D1*
X-5914486Y-4279350D1*
Y-4250207D1*
X-5907242Y-4235719D1*
X-5899998Y-4228475D1*
X-5885342Y-4221063D1*
X-5870855D1*
X-5856198Y-4228475D1*
X-5834467Y-4242963D1*
X-5761523Y-4315907D1*
Y-4213819D1*
Y-4093816D2*
X-5914486D1*
X-5812567Y-4166760D1*
Y-4057429D1*
X-5863611Y-3862234D2*
X-5761523D1*
X-5834467D2*
X-5856367Y-3840334D1*
X-5863611Y-3825678D1*
Y-3803946D1*
X-5856367Y-3789290D1*
X-5834467Y-3782046D1*
X-5761523D1*
X-5834467D2*
X-5856367Y-3760146D1*
X-5863611Y-3745490D1*
Y-3723759D1*
X-5856367Y-3709102D1*
X-5834467Y-3701690D1*
X-5761523D1*
X-5863611Y-3654631D2*
X-5761523D1*
X-5834467D2*
X-5856367Y-3632731D1*
X-5863611Y-3618075D1*
Y-3596344D1*
X-5856367Y-3581687D1*
X-5834467Y-3574444D1*
X-5761523D1*
X-5834467D2*
X-5856367Y-3552544D1*
X-5863611Y-3537887D1*
Y-3516156D1*
X-5856367Y-3501500D1*
X-5834467Y-3494087D1*
X-5761523D1*
X1854245Y1625270D2*
Y1778233D1*
X1781301Y1676313D1*
X1890633D1*
X2025123Y1756501D2*
X2017879Y1770989D1*
X1995979Y1778233D1*
X1981491D1*
X1959591Y1770989D1*
X1944935Y1749089D1*
X1937691Y1712701D1*
Y1676313D1*
X1944935Y1647170D1*
X1959591Y1632513D1*
X1981491Y1625270D1*
X1988735D1*
X2010467Y1632513D1*
X2025123Y1647170D1*
X2032367Y1669070D1*
Y1676313D1*
X2025123Y1698213D1*
X2010467Y1712701D1*
X1988735Y1719945D1*
X1981491D1*
X1959591Y1712701D1*
X1944935Y1698213D1*
X1937691Y1676313D1*
X2086670Y1639926D2*
X2079426Y1632513D1*
X2086670Y1625270D1*
X2094082Y1632513D1*
X2086670Y1639926D1*
X2235985Y1727357D2*
X2228572Y1705457D1*
X2214085Y1690801D1*
X2192185Y1683557D1*
X2184941D1*
X2163041Y1690801D1*
X2148553Y1705457D1*
X2141141Y1727357D1*
Y1734601D1*
X2148553Y1756501D1*
X2163041Y1770989D1*
X2184941Y1778233D1*
X2192185D1*
X2214085Y1770989D1*
X2228572Y1756501D1*
X2235985Y1727357D1*
Y1690801D1*
X2228572Y1654413D1*
X2214085Y1632513D1*
X2192185Y1625270D1*
X2177697D1*
X2155797Y1632513D1*
X2148553Y1647170D1*
X2377887Y1727357D2*
X2370475Y1705457D1*
X2355987Y1690801D1*
X2334087Y1683557D1*
X2326843D1*
X2304943Y1690801D1*
X2290456Y1705457D1*
X2283043Y1727357D1*
Y1734601D1*
X2290456Y1756501D1*
X2304943Y1770989D1*
X2326843Y1778233D1*
X2334087D1*
X2355987Y1770989D1*
X2370475Y1756501D1*
X2377887Y1727357D1*
Y1690801D1*
X2370475Y1654413D1*
X2355987Y1632513D1*
X2334087Y1625270D1*
X2319600D1*
X2297700Y1632513D1*
X2290456Y1647170D1*
X2573082Y1727357D2*
Y1625270D1*
Y1698213D2*
X2594982Y1720113D1*
X2609638Y1727357D1*
X2631369D1*
X2646026Y1720113D1*
X2653269Y1698213D1*
Y1625270D1*
Y1698213D2*
X2675169Y1720113D1*
X2689826Y1727357D1*
X2711557D1*
X2726213Y1720113D1*
X2733626Y1698213D1*
Y1625270D1*
X2780684Y1727357D2*
Y1625270D1*
Y1698213D2*
X2802584Y1720113D1*
X2817241Y1727357D1*
X2838972D1*
X2853628Y1720113D1*
X2860872Y1698213D1*
Y1625270D1*
Y1698213D2*
X2882772Y1720113D1*
X2897428Y1727357D1*
X2919160D1*
X2933816Y1720113D1*
X2941228Y1698213D1*
Y1625270D1*
X6146755Y-1970816D2*
X6161242Y-1963572D1*
X6168486Y-1941672D1*
Y-1927184D1*
X6161242Y-1905284D1*
X6139342Y-1890628D1*
X6102955Y-1883384D1*
X6066567D1*
X6037423Y-1890628D1*
X6022767Y-1905284D1*
X6015523Y-1927184D1*
Y-1934428D1*
X6022767Y-1956160D1*
X6037423Y-1970816D1*
X6059323Y-1978060D1*
X6066567D1*
X6088467Y-1970816D1*
X6102955Y-1956160D1*
X6110198Y-1934428D1*
Y-1927184D1*
X6102955Y-1905284D1*
X6088467Y-1890628D1*
X6066567Y-1883384D1*
X6139342Y-2025119D2*
X6146755Y-2039775D1*
X6168486Y-2061675D1*
X6015523D1*
X6030179Y-2115977D2*
X6022767Y-2108734D1*
X6015523Y-2115977D1*
X6022767Y-2123390D1*
X6030179Y-2115977D1*
X6117611Y-2265292D2*
X6095711Y-2257880D1*
X6081055Y-2243392D1*
X6073811Y-2221492D1*
Y-2214249D1*
X6081055Y-2192349D1*
X6095711Y-2177861D1*
X6117611Y-2170449D1*
X6124855D1*
X6146755Y-2177861D1*
X6161242Y-2192349D1*
X6168486Y-2214249D1*
Y-2221492D1*
X6161242Y-2243392D1*
X6146755Y-2257880D1*
X6117611Y-2265292D1*
X6081055D1*
X6044667Y-2257880D1*
X6022767Y-2243392D1*
X6015523Y-2221492D1*
Y-2207005D1*
X6022767Y-2185105D1*
X6037423Y-2177861D1*
X6139342Y-2312351D2*
X6146755Y-2327007D1*
X6168486Y-2348907D1*
X6015523D1*
X6168486Y-2410622D2*
Y-2490642D1*
X6110198Y-2447010D1*
Y-2468910D1*
X6102955Y-2483398D1*
X6095711Y-2490642D1*
X6073811Y-2498054D1*
X6059323D1*
X6037423Y-2490642D1*
X6022767Y-2476154D1*
X6015523Y-2454254D1*
Y-2432354D1*
X6022767Y-2410622D1*
X6030179Y-2403379D1*
X6044667Y-2395966D1*
X6117611Y-2693248D2*
X6015523D1*
X6088467D2*
X6110367Y-2715148D1*
X6117611Y-2729805D1*
Y-2751536D1*
X6110367Y-2766192D1*
X6088467Y-2773436D1*
X6015523D1*
X6088467D2*
X6110367Y-2795336D1*
X6117611Y-2809992D1*
Y-2831724D1*
X6110367Y-2846380D1*
X6088467Y-2853792D1*
X6015523D1*
X6117611Y-2900851D2*
X6015523D1*
X6088467D2*
X6110367Y-2922751D1*
X6117611Y-2937407D1*
Y-2959139D1*
X6110367Y-2973795D1*
X6088467Y-2981039D1*
X6015523D1*
X6088467D2*
X6110367Y-3002939D1*
X6117611Y-3017595D1*
Y-3039327D1*
X6110367Y-3053983D1*
X6088467Y-3061395D1*
X6015523D1*
X5596986Y-525682D2*
X5589742Y-503950D1*
X5575255Y-496538D1*
X5560598D1*
X5546111Y-503950D1*
X5538698Y-518438D1*
X5531455Y-547582D1*
X5524211Y-569482D1*
X5509555Y-583970D1*
X5495067Y-591213D1*
X5473167D1*
X5458679Y-583970D1*
X5451267Y-576726D1*
X5444023Y-554826D1*
Y-525682D1*
X5451267Y-503950D1*
X5458679Y-496538D1*
X5473167Y-489294D1*
X5495067D1*
X5509555Y-496538D1*
X5524211Y-511194D1*
X5531455Y-532926D1*
X5538698Y-562070D1*
X5546111Y-576726D1*
X5560598Y-583970D1*
X5575255D1*
X5589742Y-576726D1*
X5596986Y-554826D1*
Y-525682D1*
X5458679Y-645516D2*
X5451267Y-638272D1*
X5444023Y-645516D1*
X5451267Y-652928D1*
X5458679Y-645516D1*
X5596986Y-736375D2*
X5589742Y-714643D1*
X5575255Y-707231D1*
X5560598D1*
X5546111Y-714643D1*
X5538698Y-729131D1*
X5531455Y-758275D1*
X5524211Y-780175D1*
X5509555Y-794663D1*
X5495067Y-801906D1*
X5473167D1*
X5458679Y-794663D1*
X5451267Y-787419D1*
X5444023Y-765519D1*
Y-736375D1*
X5451267Y-714643D1*
X5458679Y-707231D1*
X5473167Y-699987D1*
X5495067D1*
X5509555Y-707231D1*
X5524211Y-721887D1*
X5531455Y-743619D1*
X5538698Y-772763D1*
X5546111Y-787419D1*
X5560598Y-794663D1*
X5575255D1*
X5589742Y-787419D1*
X5596986Y-765519D1*
Y-736375D1*
X5546111Y-943809D2*
X5524211Y-936397D1*
X5509555Y-921909D1*
X5502311Y-900009D1*
Y-892765D1*
X5509555Y-870865D1*
X5524211Y-856378D1*
X5546111Y-848965D1*
X5553355D1*
X5575255Y-856378D1*
X5589742Y-870865D1*
X5596986Y-892765D1*
Y-900009D1*
X5589742Y-921909D1*
X5575255Y-936397D1*
X5546111Y-943809D1*
X5509555D1*
X5473167Y-936397D1*
X5451267Y-921909D1*
X5444023Y-900009D1*
Y-885521D1*
X5451267Y-863621D1*
X5465923Y-856378D1*
X5546111Y-1139004D2*
X5444023D1*
X5516967D2*
X5538867Y-1160904D1*
X5546111Y-1175560D1*
Y-1197291D1*
X5538867Y-1211947D1*
X5516967Y-1219191D1*
X5444023D1*
X5516967D2*
X5538867Y-1241091D1*
X5546111Y-1255747D1*
Y-1277479D1*
X5538867Y-1292135D1*
X5516967Y-1299547D1*
X5444023D1*
X5546111Y-1346606D2*
X5444023D1*
X5516967D2*
X5538867Y-1368506D1*
X5546111Y-1383162D1*
Y-1404894D1*
X5538867Y-1419550D1*
X5516967Y-1426794D1*
X5444023D1*
X5516967D2*
X5538867Y-1448694D1*
X5546111Y-1463350D1*
Y-1485082D1*
X5538867Y-1499738D1*
X5516967Y-1507150D1*
X5444023D1*
X5571023Y-5820688D2*
X5723986Y-5893632D1*
Y-5791544D1*
X5585679Y-5947934D2*
X5578267Y-5940691D1*
X5571023Y-5947934D1*
X5578267Y-5955347D1*
X5585679Y-5947934D1*
X5723986Y-6017062D2*
Y-6097081D1*
X5665698Y-6053449D1*
Y-6075349D1*
X5658455Y-6089837D1*
X5651211Y-6097081D1*
X5629311Y-6104493D1*
X5614823D1*
X5592923Y-6097081D1*
X5578267Y-6082593D1*
X5571023Y-6060693D1*
Y-6038793D1*
X5578267Y-6017062D1*
X5585679Y-6009818D1*
X5600167Y-6002406D1*
X5723986Y-6195352D2*
X5716742Y-6173452D1*
X5694842Y-6158796D1*
X5658455Y-6151552D1*
X5636555D1*
X5600167Y-6158796D1*
X5578267Y-6173452D1*
X5571023Y-6195352D1*
Y-6209840D1*
X5578267Y-6231740D1*
X5600167Y-6246228D1*
X5636555Y-6253640D1*
X5658455D1*
X5694842Y-6246228D1*
X5716742Y-6231740D1*
X5723986Y-6209840D1*
Y-6195352D1*
X5694842Y-6246228D2*
X5600167Y-6158796D1*
X5723986Y-6315355D2*
Y-6395374D1*
X5665698Y-6351742D1*
Y-6373642D1*
X5658455Y-6388130D1*
X5651211Y-6395374D1*
X5629311Y-6402786D1*
X5614823D1*
X5592923Y-6395374D1*
X5578267Y-6380886D1*
X5571023Y-6358986D1*
Y-6337086D1*
X5578267Y-6315355D1*
X5585679Y-6308111D1*
X5600167Y-6300699D1*
X5673111Y-6597981D2*
X5571023D1*
X5643967D2*
X5665867Y-6619881D1*
X5673111Y-6634537D1*
Y-6656269D1*
X5665867Y-6670925D1*
X5643967Y-6678169D1*
X5571023D1*
X5643967D2*
X5665867Y-6700069D1*
X5673111Y-6714725D1*
Y-6736456D1*
X5665867Y-6751112D1*
X5643967Y-6758525D1*
X5571023D1*
X5673111Y-6805584D2*
X5571023D1*
X5643967D2*
X5665867Y-6827484D1*
X5673111Y-6842140D1*
Y-6863871D1*
X5665867Y-6878527D1*
X5643967Y-6885771D1*
X5571023D1*
X5643967D2*
X5665867Y-6907671D1*
X5673111Y-6922327D1*
Y-6944059D1*
X5665867Y-6958715D1*
X5643967Y-6966127D1*
X5571023D1*
M02*
