G04 DipTrace 4.3.0.5*
G04 TopPaste.gbr*
%MOMM*%
G04 #@! TF.FileFunction,Paste,Top*
G04 #@! TF.Part,Single*
%ADD28C,0.9*%
%ADD30R,0.9X0.9*%
%ADD32R,1.8X1.8*%
%ADD34C,1.5*%
%ADD36R,1.5X1.5*%
%FSLAX35Y35*%
G04*
G71*
G90*
G75*
G01*
G04 TopPaste*
%LPD*%
D36*
X127000Y0D3*
D34*
Y-254000D3*
X-127000Y0D3*
Y-254000D3*
X-381000Y0D3*
Y-254000D3*
X-635000Y0D3*
Y-254000D3*
X-889000Y0D3*
Y-254000D3*
X-1143000Y0D3*
Y-254000D3*
X-1397000Y0D3*
Y-254000D3*
X-1651000Y0D3*
Y-254000D3*
X-1905000Y0D3*
Y-254000D3*
X-2159000Y0D3*
Y-254000D3*
X-2413000Y0D3*
Y-254000D3*
X-2667000Y0D3*
Y-254000D3*
X-2921000Y0D3*
Y-254000D3*
X-3175000Y0D3*
Y-254000D3*
X-3429000Y0D3*
Y-254000D3*
X-3683000Y0D3*
Y-254000D3*
X-3937000Y0D3*
Y-254000D3*
X-4191000Y0D3*
Y-254000D3*
X-4445000Y0D3*
Y-254000D3*
X-4699000Y0D3*
Y-254000D3*
D36*
X127000Y-1524000D3*
D34*
Y-1778000D3*
X-127000Y-1524000D3*
Y-1778000D3*
X-381000Y-1524000D3*
Y-1778000D3*
X-635000Y-1524000D3*
Y-1778000D3*
X-889000Y-1524000D3*
Y-1778000D3*
X-1143000Y-1524000D3*
Y-1778000D3*
X-1397000Y-1524000D3*
Y-1778000D3*
X-1651000Y-1524000D3*
Y-1778000D3*
X-1905000Y-1524000D3*
Y-1778000D3*
X-2159000Y-1524000D3*
Y-1778000D3*
X-2413000Y-1524000D3*
Y-1778000D3*
X-2667000Y-1524000D3*
Y-1778000D3*
X-2921000Y-1524000D3*
Y-1778000D3*
X-3175000Y-1524000D3*
Y-1778000D3*
X-3429000Y-1524000D3*
Y-1778000D3*
X-3683000Y-1524000D3*
Y-1778000D3*
X-3937000Y-1524000D3*
Y-1778000D3*
X-4191000Y-1524000D3*
Y-1778000D3*
X-4445000Y-1524000D3*
Y-1778000D3*
X-4699000Y-1524000D3*
Y-1778000D3*
D36*
X4699000Y-1524000D3*
D34*
Y-1778000D3*
X4445000Y-1524000D3*
Y-1778000D3*
X4191000Y-1524000D3*
Y-1778000D3*
X3937000Y-1524000D3*
Y-1778000D3*
X3683000Y-1524000D3*
Y-1778000D3*
X3429000Y-1524000D3*
Y-1778000D3*
X3175000Y-1524000D3*
Y-1778000D3*
X2921000Y-1524000D3*
Y-1778000D3*
X2667000Y-1524000D3*
Y-1778000D3*
X2413000Y-1524000D3*
Y-1778000D3*
X2159000Y-1524000D3*
Y-1778000D3*
X1905000Y-1524000D3*
Y-1778000D3*
X1651000Y-1524000D3*
Y-1778000D3*
X1397000Y-1524000D3*
Y-1778000D3*
X1143000Y-1524000D3*
Y-1778000D3*
X889000Y-1524000D3*
Y-1778000D3*
X635000Y-1524000D3*
Y-1778000D3*
D36*
X4699000Y0D3*
D34*
Y-254000D3*
X4445000Y0D3*
Y-254000D3*
X4191000Y0D3*
Y-254000D3*
X3937000Y0D3*
Y-254000D3*
X3683000Y0D3*
Y-254000D3*
X3429000Y0D3*
Y-254000D3*
X3175000Y0D3*
Y-254000D3*
X2921000Y0D3*
Y-254000D3*
X2667000Y0D3*
Y-254000D3*
X2413000Y0D3*
Y-254000D3*
X2159000Y0D3*
Y-254000D3*
X1905000Y0D3*
Y-254000D3*
X1651000Y0D3*
Y-254000D3*
X1397000Y0D3*
Y-254000D3*
X1143000Y0D3*
Y-254000D3*
X889000Y0D3*
Y-254000D3*
X635000Y0D3*
Y-254000D3*
D36*
X127000Y-3048000D3*
D34*
Y-3302000D3*
X-127000Y-3048000D3*
Y-3302000D3*
X-381000Y-3048000D3*
Y-3302000D3*
X-635000Y-3048000D3*
Y-3302000D3*
X-889000Y-3048000D3*
Y-3302000D3*
X-1143000Y-3048000D3*
Y-3302000D3*
X-1397000Y-3048000D3*
Y-3302000D3*
X-1651000Y-3048000D3*
Y-3302000D3*
X-1905000Y-3048000D3*
Y-3302000D3*
X-2159000Y-3048000D3*
Y-3302000D3*
X-2413000Y-3048000D3*
Y-3302000D3*
X-2667000Y-3048000D3*
Y-3302000D3*
X-2921000Y-3048000D3*
Y-3302000D3*
X-3175000Y-3048000D3*
Y-3302000D3*
X-3429000Y-3048000D3*
Y-3302000D3*
X-3683000Y-3048000D3*
Y-3302000D3*
X-3937000Y-3048000D3*
Y-3302000D3*
X-4191000Y-3048000D3*
Y-3302000D3*
X-4445000Y-3048000D3*
Y-3302000D3*
X-4699000Y-3048000D3*
Y-3302000D3*
D36*
X4699000Y-3048000D3*
D34*
Y-3302000D3*
X4445000Y-3048000D3*
Y-3302000D3*
X4191000Y-3048000D3*
Y-3302000D3*
X3937000Y-3048000D3*
Y-3302000D3*
X3683000Y-3048000D3*
Y-3302000D3*
X3429000Y-3048000D3*
Y-3302000D3*
X3175000Y-3048000D3*
Y-3302000D3*
X2921000Y-3048000D3*
Y-3302000D3*
X2667000Y-3048000D3*
Y-3302000D3*
X2413000Y-3048000D3*
Y-3302000D3*
X2159000Y-3048000D3*
Y-3302000D3*
X1905000Y-3048000D3*
Y-3302000D3*
X1651000Y-3048000D3*
Y-3302000D3*
X1397000Y-3048000D3*
Y-3302000D3*
X1143000Y-3048000D3*
Y-3302000D3*
X889000Y-3048000D3*
Y-3302000D3*
X635000Y-3048000D3*
Y-3302000D3*
D36*
X127000Y-4572000D3*
D34*
Y-4826000D3*
X-127000Y-4572000D3*
Y-4826000D3*
X-381000Y-4572000D3*
Y-4826000D3*
X-635000Y-4572000D3*
Y-4826000D3*
X-889000Y-4572000D3*
Y-4826000D3*
X-1143000Y-4572000D3*
Y-4826000D3*
X-1397000Y-4572000D3*
Y-4826000D3*
X-1651000Y-4572000D3*
Y-4826000D3*
X-1905000Y-4572000D3*
Y-4826000D3*
X-2159000Y-4572000D3*
Y-4826000D3*
X-2413000Y-4572000D3*
Y-4826000D3*
X-2667000Y-4572000D3*
Y-4826000D3*
X-2921000Y-4572000D3*
Y-4826000D3*
X-3175000Y-4572000D3*
Y-4826000D3*
X-3429000Y-4572000D3*
Y-4826000D3*
X-3683000Y-4572000D3*
Y-4826000D3*
X-3937000Y-4572000D3*
Y-4826000D3*
X-4191000Y-4572000D3*
Y-4826000D3*
X-4445000Y-4572000D3*
Y-4826000D3*
X-4699000Y-4572000D3*
Y-4826000D3*
D36*
X4699000Y-4572000D3*
D34*
Y-4826000D3*
X4445000Y-4572000D3*
Y-4826000D3*
X4191000Y-4572000D3*
Y-4826000D3*
X3937000Y-4572000D3*
Y-4826000D3*
X3683000Y-4572000D3*
Y-4826000D3*
X3429000Y-4572000D3*
Y-4826000D3*
X3175000Y-4572000D3*
Y-4826000D3*
X2921000Y-4572000D3*
Y-4826000D3*
X2667000Y-4572000D3*
Y-4826000D3*
X2413000Y-4572000D3*
Y-4826000D3*
X2159000Y-4572000D3*
Y-4826000D3*
X1905000Y-4572000D3*
Y-4826000D3*
X1651000Y-4572000D3*
Y-4826000D3*
X1397000Y-4572000D3*
Y-4826000D3*
X1143000Y-4572000D3*
Y-4826000D3*
X889000Y-4572000D3*
Y-4826000D3*
X635000Y-4572000D3*
Y-4826000D3*
D32*
X2159000Y508000D3*
X2667000D3*
D30*
X3683000Y503623D3*
D28*
Y353623D3*
M02*
