G04 DipTrace 4.3.0.5*
G04 TopSilk.gbr*
%MOMM*%
G04 #@! TF.FileFunction,Legend,Top*
G04 #@! TF.Part,Single*
%ADD10C,0.25*%
%ADD13C,0.12*%
%ADD37C,0.19608*%
%ADD38C,0.44444*%
%FSLAX35Y35*%
G04*
G71*
G90*
G75*
G01*
G04 TopSilk*
%LPD*%
X254000Y-381000D2*
D10*
Y127000D1*
X-4826000D1*
Y-381000D1*
X254000D1*
Y-1905000D2*
Y-1397000D1*
X-4826000D1*
Y-1905000D1*
X254000D1*
X4826000D2*
Y-1397000D1*
X508000D1*
Y-1905000D1*
X4826000D1*
Y-381000D2*
Y127000D1*
X508000D1*
Y-381000D1*
X4826000D1*
X254000Y-3429000D2*
Y-2921000D1*
X-4826000D1*
Y-3429000D1*
X254000D1*
X4826000D2*
Y-2921000D1*
X508000D1*
Y-3429000D1*
X4826000D1*
X254000Y-4953000D2*
Y-4445000D1*
X-4826000D1*
Y-4953000D1*
X254000D1*
X4826000D2*
Y-4445000D1*
X508000D1*
Y-4953000D1*
X4826000D1*
X3458000Y428623D2*
D13*
G02X3458000Y428623I225000J0D01*
G01*
G36*
X3872507Y643130D2*
X3875770Y642916D1*
X3878977Y642278D1*
X3882074Y641227D1*
X3885007Y639781D1*
X3887726Y637964D1*
X3890184Y635808D1*
X3892341Y633349D1*
X3894157Y630630D1*
X3895604Y627697D1*
X3896655Y624600D1*
X3897293Y621393D1*
X3897507Y618130D1*
X3897293Y614867D1*
X3896655Y611660D1*
X3895604Y608563D1*
X3894157Y605630D1*
X3892341Y602911D1*
X3890184Y600452D1*
X3887726Y598296D1*
X3885007Y596479D1*
X3882074Y595033D1*
X3878977Y593982D1*
X3875770Y593344D1*
X3872507Y593130D1*
D1*
X3869244Y593344D1*
X3866036Y593982D1*
X3862940Y595033D1*
X3860007Y596479D1*
X3857288Y598296D1*
X3854829Y600452D1*
X3852673Y602911D1*
X3850856Y605630D1*
X3849410Y608563D1*
X3848359Y611660D1*
X3847721Y614867D1*
X3847507Y618130D1*
X3847721Y621393D1*
X3848359Y624600D1*
X3849410Y627697D1*
X3850856Y630630D1*
X3852673Y633349D1*
X3854829Y635808D1*
X3857288Y637964D1*
X3860007Y639781D1*
X3862940Y641227D1*
X3866036Y642278D1*
X3869244Y642916D1*
X3872507Y643130D1*
D1*
G37*
G36*
X4704797Y-3468877D2*
X4577797Y-3722877D1*
X4831793D1*
D1*
X4704797Y-3468877D1*
G37*
G36*
X132837D2*
X5837Y-3722877D1*
X259837D1*
D1*
X132837Y-3468877D1*
G37*
G36*
X4704797Y-1913127D2*
X4577797Y-2167127D1*
X4831793D1*
D1*
X4704797Y-1913127D1*
G37*
G36*
X164587D2*
X37587Y-2167127D1*
X291587D1*
D1*
X164587Y-1913127D1*
G37*
G36*
X4704797Y-393193D2*
X4577797Y-647190D1*
X4831793D1*
D1*
X4704797Y-393193D1*
G37*
G36*
X132837D2*
X5837Y-647190D1*
X259837D1*
D1*
X132837Y-393193D1*
G37*
G36*
X4704797Y-4992877D2*
X4577797Y-5246877D1*
X4831793D1*
D1*
X4704797Y-4992877D1*
G37*
G36*
X132837D2*
X5837Y-5246877D1*
X259837D1*
D1*
X132837Y-4992877D1*
G37*
X-2640869Y-496333D2*
D38*
Y-651767D1*
X-2650528Y-680967D1*
X-2660411Y-690625D1*
X-2679728Y-700508D1*
X-2699269D1*
X-2718586Y-690625D1*
X-2728245Y-680967D1*
X-2738128Y-651767D1*
Y-632450D1*
X-2454722Y-700508D2*
Y-496557D1*
X-2551980Y-632450D1*
X-2406205D1*
X-2161658Y-700508D2*
X-2239599Y-496333D1*
X-2317316Y-700508D1*
X-2288116Y-632450D2*
X-2190858D1*
X2518464Y-496333D2*
Y-651767D1*
X2508806Y-680967D1*
X2498922Y-690625D1*
X2479606Y-700508D1*
X2460064D1*
X2440747Y-690625D1*
X2431089Y-680967D1*
X2421206Y-651767D1*
Y-632450D1*
X2704611Y-700508D2*
Y-496557D1*
X2607353Y-632450D1*
X2753128D1*
X2842017Y-496333D2*
Y-700508D1*
X2929617D1*
X2958817Y-690625D1*
X2968476Y-680967D1*
X2978134Y-661650D1*
Y-632450D1*
X2968476Y-612908D1*
X2958817Y-603250D1*
X2929617Y-593591D1*
X2958817Y-583708D1*
X2968476Y-574050D1*
X2978134Y-554733D1*
Y-535191D1*
X2968476Y-515874D1*
X2958817Y-505991D1*
X2929617Y-496333D1*
X2842017D1*
Y-593591D2*
X2929617D1*
X-2684559Y-3512583D2*
Y-3668017D1*
X-2694218Y-3697217D1*
X-2704101Y-3706875D1*
X-2723418Y-3716758D1*
X-2742959D1*
X-2762276Y-3706875D1*
X-2771935Y-3697217D1*
X-2781818Y-3668017D1*
Y-3648700D1*
X-2585787Y-3561324D2*
Y-3551666D1*
X-2576129Y-3532124D1*
X-2566470Y-3522466D1*
X-2546929Y-3512807D1*
X-2508070D1*
X-2488754Y-3522466D1*
X-2479095Y-3532124D1*
X-2469212Y-3551666D1*
Y-3570983D1*
X-2479095Y-3590524D1*
X-2498412Y-3619500D1*
X-2595670Y-3716758D1*
X-2459554D1*
X-2215006D2*
X-2292948Y-3512583D1*
X-2370665Y-3716758D1*
X-2341465Y-3648700D2*
X-2244206D1*
X2474774Y-3512583D2*
Y-3668017D1*
X2465116Y-3697217D1*
X2455232Y-3706875D1*
X2435916Y-3716758D1*
X2416374D1*
X2397057Y-3706875D1*
X2387399Y-3697217D1*
X2377516Y-3668017D1*
Y-3648700D1*
X2573546Y-3561324D2*
Y-3551666D1*
X2583204Y-3532124D1*
X2592863Y-3522466D1*
X2612404Y-3512807D1*
X2651263D1*
X2670580Y-3522466D1*
X2680238Y-3532124D1*
X2690121Y-3551666D1*
Y-3570983D1*
X2680238Y-3590524D1*
X2660921Y-3619500D1*
X2563663Y-3716758D1*
X2699780D1*
X2788669Y-3512583D2*
Y-3716758D1*
X2876269D1*
X2905469Y-3706875D1*
X2915127Y-3697217D1*
X2924786Y-3677900D1*
Y-3648700D1*
X2915127Y-3629158D1*
X2905469Y-3619500D1*
X2876269Y-3609841D1*
X2905469Y-3599958D1*
X2915127Y-3590300D1*
X2924786Y-3570983D1*
Y-3551441D1*
X2915127Y-3532124D1*
X2905469Y-3522241D1*
X2876269Y-3512583D1*
X2788669D1*
Y-3609841D2*
X2876269D1*
X-2684559Y-1992649D2*
Y-2148083D1*
X-2694218Y-2177283D1*
X-2704101Y-2186942D1*
X-2723418Y-2196825D1*
X-2742959D1*
X-2762276Y-2186942D1*
X-2771935Y-2177283D1*
X-2781818Y-2148083D1*
Y-2128766D1*
X-2576129Y-1992874D2*
X-2469437D1*
X-2527612Y-2070591D1*
X-2498412D1*
X-2479095Y-2080249D1*
X-2469437Y-2089908D1*
X-2459554Y-2119108D1*
Y-2138425D1*
X-2469437Y-2167625D1*
X-2488754Y-2187166D1*
X-2517954Y-2196825D1*
X-2547154D1*
X-2576129Y-2187166D1*
X-2585787Y-2177283D1*
X-2595670Y-2157966D1*
X-2215006Y-2196825D2*
X-2292948Y-1992649D1*
X-2370665Y-2196825D1*
X-2341465Y-2128766D2*
X-2244206D1*
X2474774Y-1992649D2*
Y-2148083D1*
X2465116Y-2177283D1*
X2455232Y-2186942D1*
X2435916Y-2196825D1*
X2416374D1*
X2397057Y-2186942D1*
X2387399Y-2177283D1*
X2377516Y-2148083D1*
Y-2128766D1*
X2583204Y-1992874D2*
X2689897D1*
X2631721Y-2070591D1*
X2660921D1*
X2680238Y-2080249D1*
X2689897Y-2089908D1*
X2699780Y-2119108D1*
Y-2138425D1*
X2689897Y-2167625D1*
X2670580Y-2187166D1*
X2641380Y-2196825D1*
X2612180D1*
X2583204Y-2187166D1*
X2573546Y-2177283D1*
X2563663Y-2157966D1*
X2788669Y-1992649D2*
Y-2196825D1*
X2876269D1*
X2905469Y-2186942D1*
X2915127Y-2177283D1*
X2924786Y-2157966D1*
Y-2128766D1*
X2915127Y-2109225D1*
X2905469Y-2099566D1*
X2876269Y-2089908D1*
X2905469Y-2080025D1*
X2915127Y-2070366D1*
X2924786Y-2051049D1*
Y-2031508D1*
X2915127Y-2012191D1*
X2905469Y-2002308D1*
X2876269Y-1992649D1*
X2788669D1*
Y-2089908D2*
X2876269D1*
X-2640869Y-5068333D2*
Y-5223767D1*
X-2650528Y-5252967D1*
X-2660411Y-5262625D1*
X-2679728Y-5272508D1*
X-2699269D1*
X-2718586Y-5262625D1*
X-2728245Y-5252967D1*
X-2738128Y-5223767D1*
Y-5204450D1*
X-2551980Y-5107416D2*
X-2532439Y-5097533D1*
X-2503239Y-5068557D1*
Y-5272508D1*
X-2258692D2*
X-2336633Y-5068333D1*
X-2414350Y-5272508D1*
X-2385150Y-5204450D2*
X-2287892D1*
X2518464Y-5068333D2*
Y-5223767D1*
X2508806Y-5252967D1*
X2498922Y-5262625D1*
X2479606Y-5272508D1*
X2460064D1*
X2440747Y-5262625D1*
X2431089Y-5252967D1*
X2421206Y-5223767D1*
Y-5204450D1*
X2607353Y-5107416D2*
X2626894Y-5097533D1*
X2656094Y-5068557D1*
Y-5272508D1*
X2744983Y-5068333D2*
Y-5272508D1*
X2832583D1*
X2861783Y-5262625D1*
X2871442Y-5252967D1*
X2881100Y-5233650D1*
Y-5204450D1*
X2871442Y-5184908D1*
X2861783Y-5175250D1*
X2832583Y-5165591D1*
X2861783Y-5155708D1*
X2871442Y-5146050D1*
X2881100Y-5126733D1*
Y-5107191D1*
X2871442Y-5087874D1*
X2861783Y-5077991D1*
X2832583Y-5068333D1*
X2744983D1*
Y-5165591D2*
X2832583D1*
X3160228Y851610D2*
D37*
X3172442Y857787D1*
X3190692Y875896D1*
Y748427D1*
X3266407Y875896D2*
X3248157Y869860D1*
X3235944Y851610D1*
X3229907Y821287D1*
Y803037D1*
X3235944Y772714D1*
X3248157Y754464D1*
X3266407Y748427D1*
X3278481D1*
X3296731Y754464D1*
X3308804Y772714D1*
X3314981Y803037D1*
Y821287D1*
X3308804Y851610D1*
X3296731Y869860D1*
X3278481Y875896D1*
X3266407D1*
X3308804Y851610D2*
X3235944Y772714D1*
X3390696Y875896D2*
X3372446Y869860D1*
X3360233Y851610D1*
X3354196Y821287D1*
Y803037D1*
X3360233Y772714D1*
X3372446Y754464D1*
X3390696Y748427D1*
X3402769D1*
X3421019Y754464D1*
X3433092Y772714D1*
X3439269Y803037D1*
Y821287D1*
X3433092Y851610D1*
X3421019Y869860D1*
X3402769Y875896D1*
X3390696D1*
X3433092Y851610D2*
X3360233Y772714D1*
X3478485Y833500D2*
Y772714D1*
X3484522Y754604D1*
X3496735Y748427D1*
X3514985D1*
X3527058Y754604D1*
X3545308Y772714D1*
Y833500D2*
Y748427D1*
X3663560Y876037D2*
X3584524D1*
Y748427D1*
Y815250D2*
X3633097D1*
X3899082Y857787D2*
X3893046Y869860D1*
X3874796Y875896D1*
X3862722D1*
X3844472Y869860D1*
X3832259Y851610D1*
X3826222Y821287D1*
Y790964D1*
X3832259Y766677D1*
X3844472Y754464D1*
X3862722Y748427D1*
X3868759D1*
X3886869Y754464D1*
X3899082Y766677D1*
X3905119Y784927D1*
Y790964D1*
X3899082Y809214D1*
X3886869Y821287D1*
X3868759Y827323D1*
X3862722D1*
X3844472Y821287D1*
X3832259Y809214D1*
X3826222Y790964D1*
X3950371Y760640D2*
X3944334Y754464D1*
X3950371Y748427D1*
X3956548Y754464D1*
X3950371Y760640D1*
X4007977Y875896D2*
X4074660D1*
X4038300Y827323D1*
X4056550D1*
X4068623Y821287D1*
X4074660Y815250D1*
X4080837Y797000D1*
Y784927D1*
X4074660Y766677D1*
X4062587Y754464D1*
X4044337Y748427D1*
X4026087D1*
X4007977Y754464D1*
X4001940Y760640D1*
X3995763Y772714D1*
X4120052Y876037D2*
X4168625Y748427D1*
X4217198Y876037D1*
M02*
