G04 DipTrace 4.3.0.5*
G04 1 - Top.gbr*
%MOMM*%
G04 #@! TF.FileFunction,Copper,L1,Top*
G04 #@! TF.Part,Single*
G04 #@! TA.AperFunction,Conductor*
%ADD10C,0.25*%
%ADD16C,1.5*%
G04 #@! TA.AperFunction,ComponentPad*
%ADD17R,1.7X1.7*%
%ADD18C,1.7*%
%FSLAX35Y35*%
G04*
G71*
G90*
G75*
G01*
G04 Top*
%LPD*%
X4445000Y0D2*
D16*
Y254000D1*
Y1365250D1*
Y1619250D1*
X889000Y0D2*
Y254000D1*
Y1365250D1*
Y1619250D1*
X4191000Y0D2*
D10*
Y24003D1*
X4318000Y151003D1*
Y1262253D1*
X4215003Y1365250D1*
X4191000D1*
X3937000Y0D2*
Y24003D1*
X4064000Y151003D1*
Y1262253D1*
X3961003Y1365250D1*
X3937000D1*
X3683000Y0D2*
Y24003D1*
X3810000Y151003D1*
Y1262253D1*
X3707003Y1365250D1*
X3683000D1*
X3429000Y0D2*
Y24003D1*
X3556000Y151003D1*
Y1262253D1*
X3453003Y1365250D1*
X3429000D1*
X3175000Y0D2*
Y24003D1*
X3302000Y151003D1*
Y1262253D1*
X3199003Y1365250D1*
X3175000D1*
X2921000Y0D2*
Y24003D1*
X3048000Y151003D1*
Y1262253D1*
X2945003Y1365250D1*
X2921000D1*
X2667000Y0D2*
Y24003D1*
X2794000Y151003D1*
Y1262253D1*
X2691003Y1365250D1*
X2667000D1*
X2413000Y0D2*
Y24003D1*
X2540000Y151003D1*
Y1262253D1*
X2437003Y1365250D1*
X2413000D1*
X2159000Y0D2*
Y24003D1*
X2286000Y151003D1*
Y1262253D1*
X2183003Y1365250D1*
X2159000D1*
X1905000Y0D2*
Y24003D1*
X2032000Y151003D1*
Y1262253D1*
X1929003Y1365250D1*
X1905000D1*
X1651000Y0D2*
Y24003D1*
X1778000Y151003D1*
Y1262253D1*
X1675003Y1365250D1*
X1651000D1*
X1397000Y0D2*
Y24003D1*
X1524000Y151003D1*
Y1262253D1*
X1421003Y1365250D1*
X1397000D1*
X1143000Y0D2*
Y24003D1*
X1270000Y151003D1*
Y1262253D1*
X1167003Y1365250D1*
X1143000D1*
X381000Y0D2*
X508000Y127000D1*
Y1262253D1*
X405003Y1365250D1*
X381000D1*
X127000Y0D2*
X166497D1*
X254000Y87503D1*
Y1262253D1*
X151003Y1365250D1*
X127000D1*
X-127000Y0D2*
X0Y127000D1*
Y1238250D1*
X-127000Y1365250D1*
X-381000Y0D2*
X-254000Y127000D1*
Y1238250D1*
X-381000Y1365250D1*
X-635000Y0D2*
X-508000Y127000D1*
Y1238250D1*
X-635000Y1365250D1*
X-889000Y0D2*
X-762000Y127000D1*
Y1238250D1*
X-889000Y1365250D1*
X-1143000Y0D2*
X-1016000Y127000D1*
Y1238250D1*
X-1143000Y1365250D1*
X-1397000Y0D2*
X-1270000Y127000D1*
Y1238250D1*
X-1397000Y1365250D1*
X-1651000Y0D2*
X-1524000Y127000D1*
Y1238250D1*
X-1651000Y1365250D1*
X-1905000Y0D2*
X-1778000Y127000D1*
Y1238250D1*
X-1905000Y1365250D1*
X-2159000Y0D2*
X-2032000Y127000D1*
Y1238250D1*
X-2159000Y1365250D1*
X-2413000Y0D2*
X-2286000Y127000D1*
Y1238250D1*
X-2413000Y1365250D1*
X-2667000Y0D2*
X-2540000Y127000D1*
Y1238250D1*
X-2667000Y1365250D1*
X-2921000Y0D2*
X-2794000Y127000D1*
Y1238250D1*
X-2921000Y1365250D1*
X-3175000Y0D2*
X-3048000Y127000D1*
Y1238250D1*
X-3175000Y1365250D1*
X-3429000Y0D2*
X-3302000Y127000D1*
Y1238250D1*
X-3429000Y1365250D1*
X-3683000Y0D2*
X-3556000Y127000D1*
Y1238250D1*
X-3683000Y1365250D1*
X-3937000Y0D2*
X-3810000Y127000D1*
Y1238250D1*
X-3937000Y1365250D1*
X-4191000Y0D2*
X-4064000Y127000D1*
Y1238250D1*
X-4191000Y1365250D1*
X-4445000Y0D2*
X-4318000Y127000D1*
Y1238250D1*
X-4445000Y1365250D1*
D17*
X4445000Y254000D3*
D18*
Y0D3*
X4191000Y254000D3*
Y0D3*
X3937000Y254000D3*
Y0D3*
X3683000Y254000D3*
Y0D3*
X3429000Y254000D3*
Y0D3*
X3175000Y254000D3*
Y0D3*
X2921000Y254000D3*
Y0D3*
X2667000Y254000D3*
Y0D3*
X2413000Y254000D3*
Y0D3*
X2159000Y254000D3*
Y0D3*
X1905000Y254000D3*
Y0D3*
X1651000Y254000D3*
Y0D3*
X1397000Y254000D3*
Y0D3*
X1143000Y254000D3*
Y0D3*
X889000Y254000D3*
Y0D3*
D17*
X381000Y254000D3*
D18*
Y0D3*
X127000Y254000D3*
Y0D3*
X-127000Y254000D3*
Y0D3*
X-381000Y254000D3*
Y0D3*
X-635000Y254000D3*
Y0D3*
X-889000Y254000D3*
Y0D3*
X-1143000Y254000D3*
Y0D3*
X-1397000Y254000D3*
Y0D3*
X-1651000Y254000D3*
Y0D3*
X-1905000Y254000D3*
Y0D3*
X-2159000Y254000D3*
Y0D3*
X-2413000Y254000D3*
Y0D3*
X-2667000Y254000D3*
Y0D3*
X-2921000Y254000D3*
Y0D3*
X-3175000Y254000D3*
Y0D3*
X-3429000Y254000D3*
Y0D3*
X-3683000Y254000D3*
Y0D3*
X-3937000Y254000D3*
Y0D3*
X-4191000Y254000D3*
Y0D3*
X-4445000Y254000D3*
Y0D3*
D17*
X4445000Y1619250D3*
D18*
Y1365250D3*
X4191000Y1619250D3*
Y1365250D3*
X3937000Y1619250D3*
Y1365250D3*
X3683000Y1619250D3*
Y1365250D3*
X3429000Y1619250D3*
Y1365250D3*
X3175000Y1619250D3*
Y1365250D3*
X2921000Y1619250D3*
Y1365250D3*
X2667000Y1619250D3*
Y1365250D3*
X2413000Y1619250D3*
Y1365250D3*
X2159000Y1619250D3*
Y1365250D3*
X1905000Y1619250D3*
Y1365250D3*
X1651000Y1619250D3*
Y1365250D3*
X1397000Y1619250D3*
Y1365250D3*
X1143000Y1619250D3*
Y1365250D3*
X889000Y1619250D3*
Y1365250D3*
D17*
X381000Y1619250D3*
D18*
Y1365250D3*
X127000Y1619250D3*
Y1365250D3*
X-127000Y1619250D3*
Y1365250D3*
X-381000Y1619250D3*
Y1365250D3*
X-635000Y1619250D3*
Y1365250D3*
X-889000Y1619250D3*
Y1365250D3*
X-1143000Y1619250D3*
Y1365250D3*
X-1397000Y1619250D3*
Y1365250D3*
X-1651000Y1619250D3*
Y1365250D3*
X-1905000Y1619250D3*
Y1365250D3*
X-2159000Y1619250D3*
Y1365250D3*
X-2413000Y1619250D3*
Y1365250D3*
X-2667000Y1619250D3*
Y1365250D3*
X-2921000Y1619250D3*
Y1365250D3*
X-3175000Y1619250D3*
Y1365250D3*
X-3429000Y1619250D3*
Y1365250D3*
X-3683000Y1619250D3*
Y1365250D3*
X-3937000Y1619250D3*
Y1365250D3*
X-4191000Y1619250D3*
Y1365250D3*
X-4445000Y1619250D3*
Y1365250D3*
M02*
