G04 DipTrace 4.3.0.5*
G04 BottomPaste.gbr*
%MOMM*%
G04 #@! TF.FileFunction,Paste,Bot*
G04 #@! TF.Part,Single*
%ADD22C,1.5*%
%ADD24R,1.5X1.5*%
%FSLAX35Y35*%
G04*
G71*
G90*
G75*
G01*
G04 BotPaste*
%LPD*%
D24*
X4445000Y254000D3*
D22*
Y0D3*
X4191000Y254000D3*
Y0D3*
X3937000Y254000D3*
Y0D3*
X3683000Y254000D3*
Y0D3*
X3429000Y254000D3*
Y0D3*
X3175000Y254000D3*
Y0D3*
X2921000Y254000D3*
Y0D3*
X2667000Y254000D3*
Y0D3*
X2413000Y254000D3*
Y0D3*
X2159000Y254000D3*
Y0D3*
X1905000Y254000D3*
Y0D3*
X1651000Y254000D3*
Y0D3*
X1397000Y254000D3*
Y0D3*
X1143000Y254000D3*
Y0D3*
X889000Y254000D3*
Y0D3*
D24*
X381000Y254000D3*
D22*
Y0D3*
X127000Y254000D3*
Y0D3*
X-127000Y254000D3*
Y0D3*
X-381000Y254000D3*
Y0D3*
X-635000Y254000D3*
Y0D3*
X-889000Y254000D3*
Y0D3*
X-1143000Y254000D3*
Y0D3*
X-1397000Y254000D3*
Y0D3*
X-1651000Y254000D3*
Y0D3*
X-1905000Y254000D3*
Y0D3*
X-2159000Y254000D3*
Y0D3*
X-2413000Y254000D3*
Y0D3*
X-2667000Y254000D3*
Y0D3*
X-2921000Y254000D3*
Y0D3*
X-3175000Y254000D3*
Y0D3*
X-3429000Y254000D3*
Y0D3*
X-3683000Y254000D3*
Y0D3*
X-3937000Y254000D3*
Y0D3*
X-4191000Y254000D3*
Y0D3*
X-4445000Y254000D3*
Y0D3*
D24*
X4445000Y1619250D3*
D22*
Y1365250D3*
X4191000Y1619250D3*
Y1365250D3*
X3937000Y1619250D3*
Y1365250D3*
X3683000Y1619250D3*
Y1365250D3*
X3429000Y1619250D3*
Y1365250D3*
X3175000Y1619250D3*
Y1365250D3*
X2921000Y1619250D3*
Y1365250D3*
X2667000Y1619250D3*
Y1365250D3*
X2413000Y1619250D3*
Y1365250D3*
X2159000Y1619250D3*
Y1365250D3*
X1905000Y1619250D3*
Y1365250D3*
X1651000Y1619250D3*
Y1365250D3*
X1397000Y1619250D3*
Y1365250D3*
X1143000Y1619250D3*
Y1365250D3*
X889000Y1619250D3*
Y1365250D3*
D24*
X381000Y1619250D3*
D22*
Y1365250D3*
X127000Y1619250D3*
Y1365250D3*
X-127000Y1619250D3*
Y1365250D3*
X-381000Y1619250D3*
Y1365250D3*
X-635000Y1619250D3*
Y1365250D3*
X-889000Y1619250D3*
Y1365250D3*
X-1143000Y1619250D3*
Y1365250D3*
X-1397000Y1619250D3*
Y1365250D3*
X-1651000Y1619250D3*
Y1365250D3*
X-1905000Y1619250D3*
Y1365250D3*
X-2159000Y1619250D3*
Y1365250D3*
X-2413000Y1619250D3*
Y1365250D3*
X-2667000Y1619250D3*
Y1365250D3*
X-2921000Y1619250D3*
Y1365250D3*
X-3175000Y1619250D3*
Y1365250D3*
X-3429000Y1619250D3*
Y1365250D3*
X-3683000Y1619250D3*
Y1365250D3*
X-3937000Y1619250D3*
Y1365250D3*
X-4191000Y1619250D3*
Y1365250D3*
X-4445000Y1619250D3*
Y1365250D3*
M02*
