M48
METRIC,0000.00
T01C1.1
%
T01
X+004445Y+000254
X+004445Y+000000
X+004191Y+000000
X+004191Y+000254
X+003937Y+000254
X+003937Y+000000
X+003683Y+000000
X+003683Y+000254
X+003429Y+000254
X+003429Y+000000
X+003175Y+000000
X+003175Y+000254
X+002921Y+000254
X+002921Y+000000
X+002667Y+000000
X+002667Y+000254
X+002413Y+000254
X+002413Y+000000
X+002159Y+000000
X+002159Y+000254
X+001905Y+000254
X+001905Y+000000
X+001651Y+000000
X+001651Y+000254
X+001397Y+000254
X+001143Y+000254
X+001143Y+000000
X+001397Y+000000
X+000889Y+000000
X+000889Y+000254
X+000381Y+000254
X+000381Y+000000
X+000127Y+000000
X+000127Y+000254
X-000127Y+000254
X-000381Y+000254
X-000381Y+000000
X-000127Y+000000
X-000635Y+000000
X-000635Y+000254
X-000889Y+000254
X-000889Y+000000
X-001143Y+000000
X-001143Y+000254
X-001397Y+000254
X-001397Y+000000
X-001651Y+000000
X-001651Y+000254
X-001905Y+000254
X-001905Y+000000
X-002159Y+000000
X-002159Y+000254
X-002413Y+000254
X-002413Y+000000
X-002667Y+000000
X-002667Y+000254
X-002921Y+000254
X-002921Y+000000
X-003175Y+000000
X-003175Y+000254
X-003429Y+000254
X-003429Y+000000
X-003683Y+000000
X-003683Y+000254
X-003937Y+000254
X-003937Y+000000
X-004191Y+000000
X-004445Y+000000
X-004445Y+000254
X-004191Y+000254
X-004191Y+001365
X-004445Y+001365
X-004445Y+001619
X-004191Y+001619
X-003937Y+001619
X-003683Y+001619
X-003683Y+001365
X-003429Y+001365
X-003429Y+001619
X-003175Y+001619
X-002921Y+001619
X-002667Y+001619
X-002667Y+001365
X-002921Y+001365
X-003175Y+001365
X-002413Y+001365
X-002159Y+001365
X-001905Y+001365
X-001651Y+001365
X-001651Y+001619
X-001905Y+001619
X-002159Y+001619
X-002413Y+001619
X-001397Y+001619
X-001143Y+001619
X-000889Y+001619
X-000889Y+001365
X-001143Y+001365
X-001397Y+001365
X-000635Y+001365
X-000635Y+001619
X-000381Y+001619
X-000127Y+001619
X-000127Y+001365
X-000381Y+001365
X+000127Y+001365
X+000381Y+001365
X+000381Y+001619
X+000127Y+001619
X+000889Y+001619
X+001143Y+001619
X+001143Y+001365
X+001397Y+001365
X+001397Y+001619
X+001651Y+001619
X+001651Y+001365
X+001905Y+001365
X+001905Y+001619
X+002159Y+001619
X+002159Y+001365
X+002413Y+001365
X+002413Y+001619
X+002667Y+001619
X+002667Y+001365
X+002921Y+001365
X+002921Y+001619
X+003175Y+001619
X+003175Y+001365
X+003429Y+001365
X+003429Y+001619
X+003683Y+001619
X+003683Y+001365
X+003937Y+001365
X+003937Y+001619
X+004191Y+001619
X+004191Y+001365
X+004445Y+001365
X+004445Y+001619
X+000889Y+001365
X-003937Y+001365
T00
M30
