G04 DipTrace 4.3.0.5*
G04 TopDimension.gbr*
%MOMM*%
G04 #@! TF.FileFunction,Drawing,Top*
G04 #@! TF.Part,Single*
%ADD15C,0.035*%
%ADD26C,0.23529*%
%FSLAX35Y35*%
G04*
G71*
G90*
G75*
G01*
G04 TopDimension*
%LPD*%
X-5000000Y1777100D2*
D15*
X-5497500D1*
X-5000000Y-158750D2*
X-5497500D1*
X-5397500Y809175D2*
Y1577100D1*
G36*
Y1777100D2*
X-5357500Y1577100D1*
X-5437500D1*
X-5397500Y1777100D1*
G37*
Y809175D2*
D15*
Y41250D1*
G36*
Y-158750D2*
X-5437500Y41250D1*
X-5357500D1*
X-5397500Y-158750D1*
G37*
X-5000000Y1777100D2*
D15*
Y2497123D1*
X5000000Y1777087D2*
Y2497123D1*
X0Y2397123D2*
X-4800000D1*
G36*
X-5000000D2*
X-4800000Y2437123D1*
Y2357123D1*
X-5000000Y2397123D1*
G37*
X0D2*
D15*
X4800000D1*
G36*
X5000000D2*
X4800000Y2357123D1*
Y2437123D1*
X5000000Y2397123D1*
G37*
X-5567842Y195547D2*
D26*
X-5575255Y210203D1*
X-5596986Y232103D1*
X-5444023D1*
X-5546111Y374006D2*
X-5524211Y366593D1*
X-5509555Y352106D1*
X-5502311Y330206D1*
Y322962D1*
X-5509555Y301062D1*
X-5524211Y286574D1*
X-5546111Y279162D1*
X-5553355D1*
X-5575255Y286574D1*
X-5589742Y301062D1*
X-5596986Y322962D1*
Y330206D1*
X-5589742Y352106D1*
X-5575255Y366593D1*
X-5546111Y374006D1*
X-5509555D1*
X-5473167Y366593D1*
X-5451267Y352106D1*
X-5444023Y330206D1*
Y315718D1*
X-5451267Y293818D1*
X-5465923Y286574D1*
X-5458679Y428308D2*
X-5451267Y421064D1*
X-5444023Y428308D1*
X-5451267Y435721D1*
X-5458679Y428308D1*
X-5596986Y497435D2*
Y577455D1*
X-5538698Y533823D1*
Y555723D1*
X-5531455Y570211D1*
X-5524211Y577455D1*
X-5502311Y584867D1*
X-5487823D1*
X-5465923Y577455D1*
X-5451267Y562967D1*
X-5444023Y541067D1*
Y519167D1*
X-5451267Y497435D1*
X-5458679Y490192D1*
X-5473167Y482779D1*
X-5596986Y719357D2*
Y646582D1*
X-5531455Y639338D1*
X-5538698Y646582D1*
X-5546111Y668482D1*
Y690214D1*
X-5538698Y712114D1*
X-5524211Y726770D1*
X-5502311Y734014D1*
X-5487823D1*
X-5465923Y726770D1*
X-5451267Y712114D1*
X-5444023Y690214D1*
Y668482D1*
X-5451267Y646582D1*
X-5458679Y639338D1*
X-5473167Y631926D1*
X-5596986Y817460D2*
X-5589742Y795729D1*
X-5575255Y788316D1*
X-5560598D1*
X-5546111Y795729D1*
X-5538698Y810216D1*
X-5531455Y839360D1*
X-5524211Y861260D1*
X-5509555Y875748D1*
X-5495067Y882992D1*
X-5473167D1*
X-5458679Y875748D1*
X-5451267Y868504D1*
X-5444023Y846604D1*
Y817460D1*
X-5451267Y795729D1*
X-5458679Y788316D1*
X-5473167Y781072D1*
X-5495067D1*
X-5509555Y788316D1*
X-5524211Y802972D1*
X-5531455Y824704D1*
X-5538698Y853848D1*
X-5546111Y868504D1*
X-5560598Y875748D1*
X-5575255D1*
X-5589742Y868504D1*
X-5596986Y846604D1*
Y817460D1*
X-5546111Y1078186D2*
X-5444023D1*
X-5516967D2*
X-5538867Y1100086D1*
X-5546111Y1114742D1*
Y1136474D1*
X-5538867Y1151130D1*
X-5516967Y1158374D1*
X-5444023D1*
X-5516967D2*
X-5538867Y1180274D1*
X-5546111Y1194930D1*
Y1216662D1*
X-5538867Y1231318D1*
X-5516967Y1238730D1*
X-5444023D1*
X-5546111Y1285789D2*
X-5444023D1*
X-5516967D2*
X-5538867Y1307689D1*
X-5546111Y1322345D1*
Y1344077D1*
X-5538867Y1358733D1*
X-5516967Y1365977D1*
X-5444023D1*
X-5516967D2*
X-5538867Y1387877D1*
X-5546111Y1402533D1*
Y1424264D1*
X-5538867Y1438920D1*
X-5516967Y1446333D1*
X-5444023D1*
X-437330Y2567466D2*
X-422674Y2574878D1*
X-400774Y2596609D1*
Y2443646D1*
X-309915Y2596609D2*
X-331815Y2589366D1*
X-346472Y2567466D1*
X-353715Y2531078D1*
Y2509178D1*
X-346472Y2472790D1*
X-331815Y2450890D1*
X-309915Y2443646D1*
X-295428D1*
X-273528Y2450890D1*
X-259040Y2472790D1*
X-251628Y2509178D1*
Y2531078D1*
X-259040Y2567466D1*
X-273528Y2589366D1*
X-295428Y2596609D1*
X-309915D1*
X-259040Y2567466D2*
X-346472Y2472790D1*
X-160769Y2596609D2*
X-182669Y2589366D1*
X-197325Y2567466D1*
X-204569Y2531078D1*
Y2509178D1*
X-197325Y2472790D1*
X-182669Y2450890D1*
X-160769Y2443646D1*
X-146281D1*
X-124381Y2450890D1*
X-109894Y2472790D1*
X-102481Y2509178D1*
Y2531078D1*
X-109894Y2567466D1*
X-124381Y2589366D1*
X-146281Y2596609D1*
X-160769D1*
X-109894Y2567466D2*
X-197325Y2472790D1*
X92713Y2545734D2*
Y2443646D1*
Y2516590D2*
X114613Y2538490D1*
X129269Y2545734D1*
X151001D1*
X165657Y2538490D1*
X172901Y2516590D1*
Y2443646D1*
Y2516590D2*
X194801Y2538490D1*
X209457Y2545734D1*
X231189D1*
X245845Y2538490D1*
X253257Y2516590D1*
Y2443646D1*
X300316Y2545734D2*
Y2443646D1*
Y2516590D2*
X322216Y2538490D1*
X336872Y2545734D1*
X358604D1*
X373260Y2538490D1*
X380504Y2516590D1*
Y2443646D1*
Y2516590D2*
X402404Y2538490D1*
X417060Y2545734D1*
X438791D1*
X453448Y2538490D1*
X460860Y2516590D1*
Y2443646D1*
M02*
