G04 DipTrace 4.3.0.5*
G04 2 - Bottom.gbr*
%MOMM*%
G04 #@! TF.FileFunction,Copper,L2,Bot*
G04 #@! TF.Part,Single*
G04 #@! TA.AperFunction,Conductor*
%ADD16C,1.0*%
%ADD17C,0.3302*%
%ADD18C,0.6604*%
G04 #@! TA.AperFunction,ComponentPad*
%ADD20R,1.59X1.59*%
%ADD21C,1.59*%
%ADD22R,1.69X1.69*%
%ADD23C,1.69*%
%ADD24R,1.62X1.62*%
%ADD25C,1.62*%
G04 #@! TA.AperFunction,ViaPad*
%ADD26C,1.016*%
%FSLAX35Y35*%
G04*
G71*
G90*
G75*
G01*
G04 Bottom*
%LPD*%
X-8763000Y1778000D2*
D16*
Y2032000D1*
Y-2413000D2*
X-8953500D1*
X-9048750Y-2317750D1*
Y410453D1*
X-8777727Y681477D1*
X-8841227D1*
X-9048750Y889000D1*
Y1619250D1*
X-8890000Y1778000D1*
X-8763000D1*
X-1079500Y1698750D2*
X-6429250D1*
X-6858000Y1270000D1*
X-7112000D1*
X-7461250D1*
X-8064500Y666750D1*
X-8763000D1*
X-8777727Y681477D1*
X-8763000Y-2413000D2*
X-8509000D1*
X-6858000Y-1270000D2*
D17*
Y-1238250D1*
X-3619500D1*
X-3492500Y-889000D2*
X-508000D1*
X-7112000Y-1270000D2*
X-6985000Y-1143000D1*
X-3587750D1*
X-3460750Y-1016000D1*
X-381000D1*
X-254000Y-889000D1*
X-6858000Y-1016000D2*
X-5562797D1*
X-5397500Y762000D2*
X-1555750D1*
X-7112000Y-1016000D2*
X-6985000Y-889000D1*
X-5404047D1*
X-5238750Y666750D2*
X-1682750D1*
X-6858000Y-762000D2*
X-5238750D1*
X-5080000Y571500D2*
X-1809750D1*
X-7112000Y-762000D2*
X-6985000Y-635000D1*
X-5080000D1*
X-4921250Y476250D2*
X-1936750D1*
X-6858000Y-508000D2*
X-4927797D1*
X-4762500Y381000D2*
X-2095500D1*
X-7112000Y-508000D2*
X-6985000Y-381000D1*
X-4730750D1*
X-4635500Y285750D2*
X-2222500D1*
X-7112000Y-1778000D2*
X-6985000Y-1651000D1*
X-2286000D1*
X-6858000Y-3302000D2*
X-3676453D1*
X-3517703Y-2540000D2*
X-381000D1*
X-254000Y-2413000D1*
X-7112000Y-2032000D2*
X-6985000Y-1905000D1*
X-2127250D1*
X-6858000Y-1778000D2*
X-2063750D1*
X-7112000Y-3302000D2*
X-6985000Y-3175000D1*
X-3714750D1*
X-3587750Y-2159000D2*
X-508000D1*
X-7112000Y-1524000D2*
X-6985000Y-1397000D1*
X-2095500D1*
X-1714500Y-1778000D1*
X-381000D1*
X-254000Y-1905000D1*
X-6858000Y-1524000D2*
X-2127250D1*
X-1746250Y-1905000D1*
X-508000D1*
X-7112000Y-2286000D2*
Y-2254250D1*
X-7016750Y-2159000D1*
X-4413250D1*
X-4286250Y127000D2*
X-508000D1*
X-6858000Y-2286000D2*
X-4318000D1*
X-4191000Y0D2*
X-381000D1*
X-254000Y127000D1*
X-7112000Y-2540000D2*
X-6985000Y-2413000D1*
X-4254500D1*
X-4064000Y-127000D2*
X-508000D1*
X-6858000Y-2540000D2*
X-4159250D1*
X-4000500Y-254000D2*
X-381000D1*
X-254000Y-127000D1*
X-7112000Y-2794000D2*
X-6985000Y-2667000D1*
X-4070547D1*
X-3905250Y-381000D2*
X-508000D1*
X-6858000Y-2794000D2*
X-3968750D1*
X-3841750Y-508000D2*
X-381000D1*
X-254000Y-381000D1*
X-7112000Y-3048000D2*
X-6985000Y-2921000D1*
X-3841750D1*
X-3714750Y-635000D2*
X-508000D1*
X-6858000Y-3048000D2*
X-3778250D1*
X-3651250Y-762000D2*
X-381000D1*
X-254000Y-635000D1*
X-8509000Y-1651000D2*
D18*
X-8318500D1*
X-8001000Y-1968500D1*
Y-3048000D1*
X-7493000Y-3556000D1*
X-7112000D1*
X-6858000D1*
X-6096000Y-4445000D2*
D17*
X-2444750D1*
X-2349500Y-4349750D1*
X-1730377D1*
X-1635127Y-4445000D1*
X-508000D1*
X-6223000Y-4572000D2*
X-2444750D1*
X-2301873Y-4429123D1*
X-1778000D1*
X-1635127Y-4572000D1*
X-381000D1*
X-254000Y-4445000D1*
X-7112000Y-254000D2*
X-6985000Y-127000D1*
X-5905500D1*
X-5842000Y-4064000D2*
X-381000D1*
X-254000Y-3937000D1*
X-6000750Y-4191000D2*
X-508000D1*
X-254000Y-3429000D2*
X-381000Y-3302000D1*
X-2952750D1*
X-3238500Y2413000D2*
X-8636000D1*
X-8763000Y2540000D1*
X-3079750Y-3714750D2*
X-539750D1*
X-508000Y-3683000D1*
X-2596953Y-3556000D2*
X-381000D1*
X-254000Y-3683000D1*
X-2619147Y-3826103D2*
X-2508250Y-3937000D1*
X-508000D1*
X-2444750Y-2921000D2*
X-508000D1*
X-8509000Y3302000D2*
X-2571750D1*
X-2349500Y-2794000D2*
X-381000D1*
X-254000Y-2921000D1*
X-6286500Y-4318000D2*
X-2460623D1*
X-2413000Y-4270373D1*
X-1666877D1*
X-1619250Y-4318000D1*
X-381000D1*
X-254000Y-4191000D1*
X-2762250Y-3175000D2*
X-508000D1*
X-254000D2*
X-381000Y-3048000D1*
X-2952750D1*
X-3175000Y-3429000D2*
X-508000D1*
D26*
X-3619500Y-1238250D3*
X-3492500Y-889000D3*
X-5562797Y-1016000D3*
X-5397500Y762000D3*
X-1555750D3*
X-5404047Y-889000D3*
X-5238750Y666750D3*
X-1682750D3*
X-5238750Y-762000D3*
X-5080000Y571500D3*
X-1809750D3*
X-5080000Y-635000D3*
X-4921250Y476250D3*
X-1936750D3*
X-4927797Y-508000D3*
X-4762500Y381000D3*
X-2095500D3*
X-4730750Y-381000D3*
X-4635500Y285750D3*
X-2222500D3*
X-2286000Y-1651000D3*
X-3676453Y-3302000D3*
X-3517703Y-2540000D3*
X-2127250Y-1905000D3*
X-2063750Y-1778000D3*
X-3714750Y-3175000D3*
X-3587750Y-2159000D3*
X-4413250D3*
X-4286250Y127000D3*
X-4318000Y-2286000D3*
X-4191000Y0D3*
X-4254500Y-2413000D3*
X-4064000Y-127000D3*
X-4159250Y-2540000D3*
X-4000500Y-254000D3*
X-4070547Y-2667000D3*
X-3905250Y-381000D3*
X-3968750Y-2794000D3*
X-3841750Y-508000D3*
Y-2921000D3*
X-3714750Y-635000D3*
X-3778250Y-3048000D3*
X-3651250Y-762000D3*
X-6096000Y-4445000D3*
X-6223000Y-4572000D3*
X-5905500Y-127000D3*
X-5842000Y-4064000D3*
X-6000750Y-4191000D3*
X-2952750Y-3302000D3*
X-3238500Y2413000D3*
X-3079750Y-3714750D3*
X-2596953Y-3556000D3*
X-2619147Y-3826103D3*
X-2444750Y-2921000D3*
X-2571750Y3302000D3*
X-2349500Y-2794000D3*
X-6286500Y-4318000D3*
X-2762250Y-3175000D3*
X-2952750Y-3048000D3*
X-3175000Y-3429000D3*
D20*
X-1079500Y1698750D3*
D21*
Y650750D3*
D22*
X-508000Y127000D3*
D23*
X-254000D3*
X-508000Y-127000D3*
X-254000D3*
X-508000Y-381000D3*
X-254000D3*
X-508000Y-635000D3*
X-254000D3*
X-508000Y-889000D3*
X-254000D3*
X-508000Y-1143000D3*
X-254000D3*
X-508000Y-1397000D3*
X-254000D3*
X-508000Y-1651000D3*
X-254000D3*
X-508000Y-1905000D3*
X-254000D3*
X-508000Y-2159000D3*
X-254000D3*
X-508000Y-2413000D3*
X-254000D3*
X-508000Y-2667000D3*
X-254000D3*
X-508000Y-2921000D3*
X-254000D3*
X-508000Y-3175000D3*
X-254000D3*
X-508000Y-3429000D3*
X-254000D3*
X-508000Y-3683000D3*
X-254000D3*
X-508000Y-3937000D3*
X-254000D3*
X-508000Y-4191000D3*
X-254000D3*
X-508000Y-4445000D3*
X-254000D3*
X-508000Y-4699000D3*
X-254000D3*
D22*
X-508000Y4699000D3*
D23*
X-254000D3*
X-508000Y4445000D3*
X-254000D3*
X-508000Y4191000D3*
X-254000D3*
X-508000Y3937000D3*
X-254000D3*
X-508000Y3683000D3*
X-254000D3*
X-508000Y3429000D3*
X-254000D3*
X-508000Y3175000D3*
X-254000D3*
X-508000Y2921000D3*
X-254000D3*
X-508000Y2667000D3*
X-254000D3*
X-508000Y2413000D3*
X-254000D3*
X-508000Y2159000D3*
X-254000D3*
X-508000Y1905000D3*
X-254000D3*
X-508000Y1651000D3*
X-254000D3*
X-508000Y1397000D3*
X-254000D3*
X-508000Y1143000D3*
X-254000D3*
X-508000Y889000D3*
X-254000D3*
X-508000Y635000D3*
X-254000D3*
D24*
X-7112000Y1270000D3*
D25*
X-6858000D3*
X-7112000Y1016000D3*
X-6858000D3*
X-7112000Y762000D3*
X-6858000D3*
X-7112000Y508000D3*
X-6858000D3*
X-7112000Y254000D3*
X-6858000D3*
X-7112000Y0D3*
X-6858000D3*
X-7112000Y-254000D3*
X-6858000D3*
X-7112000Y-508000D3*
X-6858000D3*
X-7112000Y-762000D3*
X-6858000D3*
X-7112000Y-1016000D3*
X-6858000D3*
X-7112000Y-1270000D3*
X-6858000D3*
X-7112000Y-1524000D3*
X-6858000D3*
X-7112000Y-1778000D3*
X-6858000D3*
X-7112000Y-2032000D3*
X-6858000D3*
X-7112000Y-2286000D3*
X-6858000D3*
X-7112000Y-2540000D3*
X-6858000D3*
X-7112000Y-2794000D3*
X-6858000D3*
X-7112000Y-3048000D3*
X-6858000D3*
X-7112000Y-3302000D3*
X-6858000D3*
X-7112000Y-3556000D3*
X-6858000D3*
D24*
X-8509000Y1270000D3*
D25*
X-8763000D3*
X-8509000Y1524000D3*
X-8763000D3*
X-8509000Y1778000D3*
X-8763000D3*
X-8509000Y2032000D3*
X-8763000D3*
X-8509000Y2286000D3*
X-8763000D3*
X-8509000Y2540000D3*
X-8763000D3*
X-8509000Y2794000D3*
X-8763000D3*
X-8509000Y3048000D3*
X-8763000D3*
X-8509000Y3302000D3*
X-8763000D3*
X-8509000Y3556000D3*
X-8763000D3*
D22*
Y-1651000D3*
D23*
X-8509000D3*
X-8763000Y-1905000D3*
X-8509000D3*
X-8763000Y-2159000D3*
X-8509000D3*
X-8763000Y-2413000D3*
X-8509000D3*
M02*
