M48
METRIC,0000.00
T01C0.486
T02C1.06
T03C1.08
T04C1.14
T05C3.1
%
T01
X-003620Y-001238
X-003493Y-000889
X-003651Y-000762
X-003715Y-000635
X-003842Y-000508
X-003905Y-000381
X-004000Y-000254
X-004064Y-000127
X-004191Y+000000
X-004286Y+000127
X-004636Y+000286
X-004762Y+000381
X-004921Y+000476
X-005080Y+000572
X-005239Y+000667
X-005398Y+000762
X-005906Y-000127
X-005404Y-000889
X-005563Y-001016
X-005239Y-000762
X-005080Y-000635
X-004928Y-000508
X-004731Y-000381
X-004413Y-002159
X-004318Y-002286
X-004255Y-002413
X-004159Y-002540
X-004071Y-002667
X-003969Y-002794
X-003842Y-002921
X-003778Y-003048
X-003715Y-003175
X-003676Y-003302
X-003175Y-003429
X-002953Y-003302
X-002762Y-003175
X-002953Y-003048
X-002445Y-002921
X-002350Y-002794
X-002597Y-003556
X-002619Y-003826
X-003080Y-003715
X-003518Y-002540
X-003588Y-002159
X-002286Y-001651
X-002064Y-001778
X-002127Y-001905
X-002223Y+000286
X-002096Y+000381
X-001937Y+000476
X-001810Y+000572
X-001683Y+000667
X-001556Y+000762
X-003238Y+002413
X-002572Y+003302
X-005842Y-004064
X-006001Y-004191
X-006096Y-004445
X-006223Y-004572
X-006287Y-004318
T02
X-001080Y+001699
X-001080Y+000651
T03
X-007112Y+001270
X-006858Y+001270
X-006858Y+001016
X-007112Y+001016
X-007112Y+000762
X-006858Y+000762
X-006858Y+000508
X-007112Y+000508
X-007112Y+000254
X-006858Y+000254
X-006858Y+000000
X-007112Y+000000
X-007112Y-000254
X-006858Y-000254
X-006858Y-000508
X-007112Y-000508
X-007112Y-000762
X-006858Y-000762
X-006858Y-001016
X-007112Y-001016
X-007112Y-001270
X-007112Y-001524
X-006858Y-001524
X-006858Y-001270
X-006858Y-001778
X-006858Y-002032
X-007112Y-002032
X-007112Y-001778
X-007112Y-002286
X-006858Y-002286
X-006858Y-002540
X-007112Y-002540
X-007112Y-002794
X-006858Y-002794
X-006858Y-003048
X-007112Y-003048
X-007112Y-003302
X-006858Y-003302
X-006858Y-003556
X-007112Y-003556
X-008509Y+001270
X-008763Y+001270
X-008763Y+001524
X-008763Y+001778
X-008509Y+001778
X-008509Y+001524
X-008509Y+002032
X-008763Y+002032
X-008763Y+002286
X-008509Y+002286
X-008509Y+002540
X-008763Y+002540
X-008763Y+002794
X-008509Y+002794
X-008509Y+003048
X-008763Y+003048
X-008763Y+003302
X-008509Y+003302
X-008509Y+003556
X-008763Y+003556
T04
X-000508Y+000127
X-000254Y+000127
X-000254Y-000127
X-000508Y-000127
X-000508Y-000381
X-000254Y-000381
X-000254Y-000635
X-000508Y-000635
X-000508Y-000889
X-000254Y-000889
X-000254Y-001143
X-000254Y-001397
X-000508Y-001397
X-000508Y-001143
X-000508Y-001651
X-000254Y-001651
X-000254Y-001905
X-000508Y-001905
X-000508Y-002159
X-000508Y-002413
X-000254Y-002413
X-000254Y-002667
X-000508Y-002667
X-000508Y-002921
X-000508Y-003175
X-000254Y-003175
X-000254Y-003429
X-000508Y-003429
X-000508Y-003683
X-000254Y-003683
X-000254Y-003937
X-000508Y-003937
X-000508Y-004191
X-000254Y-004191
X-000254Y-004445
X-000508Y-004445
X-000508Y-004699
X-000254Y-004699
X-000254Y-002921
X-000254Y-002159
X-000254Y+000635
X-000508Y+000635
X-000508Y+000889
X-000508Y+001143
X-000508Y+001397
X-000254Y+001397
X-000254Y+001143
X-000254Y+000889
X-000254Y+001651
X-000254Y+001905
X-000254Y+002159
X-000508Y+002159
X-000508Y+001905
X-000508Y+001651
X-000508Y+002413
X-000508Y+002667
X-000254Y+002667
X-000254Y+002921
X-000508Y+002921
X-000508Y+003175
X-000508Y+003429
X-000254Y+003429
X-000254Y+003683
X-000508Y+003683
X-000508Y+003937
X-000508Y+004191
X-000254Y+004191
X-000254Y+004445
X-000508Y+004445
X-000508Y+004699
X-000254Y+004699
X-000254Y+003937
X-000254Y+003175
X-000254Y+002413
X-008509Y-001651
X-008763Y-001651
X-008763Y-001905
X-008763Y-002159
X-008509Y-002159
X-008509Y-002413
X-008763Y-002413
X-008509Y-001905
T05
X-009620Y-004747
X-002000Y-004747
X-002000Y+004747
X-009620Y+004747
T00
M30
