G04 DipTrace 4.3.0.5*
G04 TopPaste.gbr*
%MOMM*%
G04 #@! TF.FileFunction,Paste,Top*
G04 #@! TF.Part,Single*
%ADD36C,1.42*%
%ADD38R,1.42X1.42*%
%ADD40C,1.49*%
%ADD42R,1.49X1.49*%
%ADD44C,1.39*%
%ADD46R,1.39X1.39*%
%FSLAX35Y35*%
G04*
G71*
G90*
G75*
G01*
G04 TopPaste*
%LPD*%
D46*
X-1079500Y1698750D3*
D44*
Y650750D3*
D42*
X-508000Y127000D3*
D40*
X-254000D3*
X-508000Y-127000D3*
X-254000D3*
X-508000Y-381000D3*
X-254000D3*
X-508000Y-635000D3*
X-254000D3*
X-508000Y-889000D3*
X-254000D3*
X-508000Y-1143000D3*
X-254000D3*
X-508000Y-1397000D3*
X-254000D3*
X-508000Y-1651000D3*
X-254000D3*
X-508000Y-1905000D3*
X-254000D3*
X-508000Y-2159000D3*
X-254000D3*
X-508000Y-2413000D3*
X-254000D3*
X-508000Y-2667000D3*
X-254000D3*
X-508000Y-2921000D3*
X-254000D3*
X-508000Y-3175000D3*
X-254000D3*
X-508000Y-3429000D3*
X-254000D3*
X-508000Y-3683000D3*
X-254000D3*
X-508000Y-3937000D3*
X-254000D3*
X-508000Y-4191000D3*
X-254000D3*
X-508000Y-4445000D3*
X-254000D3*
X-508000Y-4699000D3*
X-254000D3*
D42*
X-508000Y4699000D3*
D40*
X-254000D3*
X-508000Y4445000D3*
X-254000D3*
X-508000Y4191000D3*
X-254000D3*
X-508000Y3937000D3*
X-254000D3*
X-508000Y3683000D3*
X-254000D3*
X-508000Y3429000D3*
X-254000D3*
X-508000Y3175000D3*
X-254000D3*
X-508000Y2921000D3*
X-254000D3*
X-508000Y2667000D3*
X-254000D3*
X-508000Y2413000D3*
X-254000D3*
X-508000Y2159000D3*
X-254000D3*
X-508000Y1905000D3*
X-254000D3*
X-508000Y1651000D3*
X-254000D3*
X-508000Y1397000D3*
X-254000D3*
X-508000Y1143000D3*
X-254000D3*
X-508000Y889000D3*
X-254000D3*
X-508000Y635000D3*
X-254000D3*
D38*
X-7112000Y1270000D3*
D36*
X-6858000D3*
X-7112000Y1016000D3*
X-6858000D3*
X-7112000Y762000D3*
X-6858000D3*
X-7112000Y508000D3*
X-6858000D3*
X-7112000Y254000D3*
X-6858000D3*
X-7112000Y0D3*
X-6858000D3*
X-7112000Y-254000D3*
X-6858000D3*
X-7112000Y-508000D3*
X-6858000D3*
X-7112000Y-762000D3*
X-6858000D3*
X-7112000Y-1016000D3*
X-6858000D3*
X-7112000Y-1270000D3*
X-6858000D3*
X-7112000Y-1524000D3*
X-6858000D3*
X-7112000Y-1778000D3*
X-6858000D3*
X-7112000Y-2032000D3*
X-6858000D3*
X-7112000Y-2286000D3*
X-6858000D3*
X-7112000Y-2540000D3*
X-6858000D3*
X-7112000Y-2794000D3*
X-6858000D3*
X-7112000Y-3048000D3*
X-6858000D3*
X-7112000Y-3302000D3*
X-6858000D3*
X-7112000Y-3556000D3*
X-6858000D3*
D38*
X-8509000Y1270000D3*
D36*
X-8763000D3*
X-8509000Y1524000D3*
X-8763000D3*
X-8509000Y1778000D3*
X-8763000D3*
X-8509000Y2032000D3*
X-8763000D3*
X-8509000Y2286000D3*
X-8763000D3*
X-8509000Y2540000D3*
X-8763000D3*
X-8509000Y2794000D3*
X-8763000D3*
X-8509000Y3048000D3*
X-8763000D3*
X-8509000Y3302000D3*
X-8763000D3*
X-8509000Y3556000D3*
X-8763000D3*
D42*
Y-1651000D3*
D40*
X-8509000D3*
X-8763000Y-1905000D3*
X-8509000D3*
X-8763000Y-2159000D3*
X-8509000D3*
X-8763000Y-2413000D3*
X-8509000D3*
M02*
