G04 DipTrace 4.3.0.5*
G04 TopSilk.gbr*
%MOMM*%
G04 #@! TF.FileFunction,Legend,Top*
G04 #@! TF.Part,Single*
%ADD10C,0.25*%
%ADD13C,0.12*%
%ADD19C,0.15*%
%ADD47C,0.19608*%
%ADD48C,0.15686*%
%ADD49C,0.27778*%
%ADD50C,0.31373*%
%FSLAX35Y35*%
G04*
G71*
G90*
G75*
G01*
G04 TopSilk*
%LPD*%
X-944500Y1347750D2*
D13*
Y1434750D1*
X-1214500D1*
Y1347750D1*
X-944500Y1001750D2*
Y914750D1*
X-1214500D1*
Y1001750D1*
X-1079500Y1601750D2*
Y1434750D1*
Y914750D2*
Y747750D1*
G36*
X-962500Y1723750D2*
X-959237Y1723536D1*
X-956030Y1722898D1*
X-952933Y1721847D1*
X-950000Y1720401D1*
X-947281Y1718584D1*
X-944822Y1716428D1*
X-942666Y1713969D1*
X-940849Y1711250D1*
X-939403Y1708317D1*
X-938352Y1705220D1*
X-937714Y1702013D1*
X-937500Y1698750D1*
X-937714Y1695487D1*
X-938352Y1692280D1*
X-939403Y1689183D1*
X-940849Y1686250D1*
X-942666Y1683531D1*
X-944822Y1681072D1*
X-947281Y1678916D1*
X-950000Y1677099D1*
X-952933Y1675653D1*
X-956030Y1674602D1*
X-959237Y1673964D1*
X-962500Y1673750D1*
D1*
X-965763Y1673964D1*
X-968970Y1674602D1*
X-972067Y1675653D1*
X-975000Y1677099D1*
X-977719Y1678916D1*
X-980178Y1681072D1*
X-982334Y1683531D1*
X-984151Y1686250D1*
X-985597Y1689183D1*
X-986648Y1692280D1*
X-987286Y1695487D1*
X-987500Y1698750D1*
X-987286Y1702013D1*
X-986648Y1705220D1*
X-985597Y1708317D1*
X-984151Y1711250D1*
X-982334Y1713969D1*
X-980178Y1716428D1*
X-977719Y1718584D1*
X-975000Y1720401D1*
X-972067Y1721847D1*
X-968970Y1722898D1*
X-965763Y1723536D1*
X-962500Y1723750D1*
D1*
G37*
X-111000Y259000D2*
D13*
X-651000D1*
Y-4831000D1*
X-111000D1*
Y259000D1*
G36*
X-694000Y152000D2*
X-690737Y151786D1*
X-687530Y151148D1*
X-684433Y150097D1*
X-681500Y148651D1*
X-678781Y146834D1*
X-676322Y144678D1*
X-674166Y142219D1*
X-672349Y139500D1*
X-670903Y136567D1*
X-669852Y133470D1*
X-669214Y130263D1*
X-669000Y127000D1*
X-669214Y123737D1*
X-669852Y120530D1*
X-670903Y117433D1*
X-672349Y114500D1*
X-674166Y111781D1*
X-676322Y109322D1*
X-678781Y107166D1*
X-681500Y105349D1*
X-684433Y103903D1*
X-687530Y102852D1*
X-690737Y102214D1*
X-694000Y102000D1*
D1*
X-697263Y102214D1*
X-700470Y102852D1*
X-703567Y103903D1*
X-706500Y105349D1*
X-709219Y107166D1*
X-711678Y109322D1*
X-713834Y111781D1*
X-715651Y114500D1*
X-717097Y117433D1*
X-718148Y120530D1*
X-718786Y123737D1*
X-719000Y127000D1*
X-718786Y130263D1*
X-718148Y133470D1*
X-717097Y136567D1*
X-715651Y139500D1*
X-713834Y142219D1*
X-711678Y144678D1*
X-709219Y146834D1*
X-706500Y148651D1*
X-703567Y150097D1*
X-700470Y151148D1*
X-697263Y151786D1*
X-694000Y152000D1*
D1*
G37*
X-111000Y4831000D2*
D13*
X-651000D1*
Y503000D1*
X-111000D1*
Y4831000D1*
G36*
X-694000Y4724000D2*
X-690737Y4723786D1*
X-687530Y4723148D1*
X-684433Y4722097D1*
X-681500Y4720651D1*
X-678781Y4718834D1*
X-676322Y4716678D1*
X-674166Y4714219D1*
X-672349Y4711500D1*
X-670903Y4708567D1*
X-669852Y4705470D1*
X-669214Y4702263D1*
X-669000Y4699000D1*
X-669214Y4695737D1*
X-669852Y4692530D1*
X-670903Y4689433D1*
X-672349Y4686500D1*
X-674166Y4683781D1*
X-676322Y4681322D1*
X-678781Y4679166D1*
X-681500Y4677349D1*
X-684433Y4675903D1*
X-687530Y4674852D1*
X-690737Y4674214D1*
X-694000Y4674000D1*
D1*
X-697263Y4674214D1*
X-700470Y4674852D1*
X-703567Y4675903D1*
X-706500Y4677349D1*
X-709219Y4679166D1*
X-711678Y4681322D1*
X-713834Y4683781D1*
X-715651Y4686500D1*
X-717097Y4689433D1*
X-718148Y4692530D1*
X-718786Y4695737D1*
X-719000Y4699000D1*
X-718786Y4702263D1*
X-718148Y4705470D1*
X-717097Y4708567D1*
X-715651Y4711500D1*
X-713834Y4714219D1*
X-711678Y4716678D1*
X-709219Y4718834D1*
X-706500Y4720651D1*
X-703567Y4722097D1*
X-700470Y4723148D1*
X-697263Y4723786D1*
X-694000Y4724000D1*
D1*
G37*
X-6759000Y-4064000D2*
D13*
X-5872500D1*
Y1778000D1*
X-6759000D1*
G36*
X-7112000Y1796000D2*
X-7115263Y1796214D1*
X-7118470Y1796852D1*
X-7121567Y1797903D1*
X-7124500Y1799349D1*
X-7127219Y1801166D1*
X-7129678Y1803322D1*
X-7131834Y1805781D1*
X-7133651Y1808500D1*
X-7135097Y1811433D1*
X-7136148Y1814530D1*
X-7136786Y1817737D1*
X-7137000Y1821000D1*
X-7136786Y1824263D1*
X-7136148Y1827470D1*
X-7135097Y1830567D1*
X-7133651Y1833500D1*
X-7131834Y1836219D1*
X-7129678Y1838678D1*
X-7127219Y1840834D1*
X-7124500Y1842651D1*
X-7121567Y1844097D1*
X-7118470Y1845148D1*
X-7115263Y1845786D1*
X-7112000Y1846000D1*
D1*
X-7108737Y1845786D1*
X-7105530Y1845148D1*
X-7102433Y1844097D1*
X-7099500Y1842651D1*
X-7096781Y1840834D1*
X-7094322Y1838678D1*
X-7092166Y1836219D1*
X-7090349Y1833500D1*
X-7088903Y1830567D1*
X-7087852Y1827470D1*
X-7087214Y1824263D1*
X-7087000Y1821000D1*
X-7087214Y1817737D1*
X-7087852Y1814530D1*
X-7088903Y1811433D1*
X-7090349Y1808500D1*
X-7092166Y1805781D1*
X-7094322Y1803322D1*
X-7096781Y1801166D1*
X-7099500Y1799349D1*
X-7102433Y1797903D1*
X-7105530Y1796852D1*
X-7108737Y1796214D1*
X-7112000Y1796000D1*
D1*
G37*
X-8862000Y4064000D2*
D13*
X-9748500D1*
Y762000D1*
X-8862000D1*
G36*
X-8509000Y744000D2*
X-8505737Y743786D1*
X-8502530Y743148D1*
X-8499433Y742097D1*
X-8496500Y740651D1*
X-8493781Y738834D1*
X-8491322Y736678D1*
X-8489166Y734219D1*
X-8487349Y731500D1*
X-8485903Y728567D1*
X-8484852Y725470D1*
X-8484214Y722263D1*
X-8484000Y719000D1*
X-8484214Y715737D1*
X-8484852Y712530D1*
X-8485903Y709433D1*
X-8487349Y706500D1*
X-8489166Y703781D1*
X-8491322Y701322D1*
X-8493781Y699166D1*
X-8496500Y697349D1*
X-8499433Y695903D1*
X-8502530Y694852D1*
X-8505737Y694214D1*
X-8509000Y694000D1*
D1*
X-8512263Y694214D1*
X-8515470Y694852D1*
X-8518567Y695903D1*
X-8521500Y697349D1*
X-8524219Y699166D1*
X-8526678Y701322D1*
X-8528834Y703781D1*
X-8530651Y706500D1*
X-8532097Y709433D1*
X-8533148Y712530D1*
X-8533786Y715737D1*
X-8534000Y719000D1*
X-8533786Y722263D1*
X-8533148Y725470D1*
X-8532097Y728567D1*
X-8530651Y731500D1*
X-8528834Y734219D1*
X-8526678Y736678D1*
X-8524219Y738834D1*
X-8521500Y740651D1*
X-8518567Y742097D1*
X-8515470Y743148D1*
X-8512263Y743786D1*
X-8509000Y744000D1*
D1*
G37*
X-8366000Y-1519000D2*
D13*
X-8906000D1*
Y-2545000D1*
X-8366000D1*
Y-1519000D1*
G36*
X-8949000Y-1626000D2*
X-8945737Y-1626214D1*
X-8942530Y-1626852D1*
X-8939433Y-1627903D1*
X-8936500Y-1629349D1*
X-8933781Y-1631166D1*
X-8931322Y-1633322D1*
X-8929166Y-1635781D1*
X-8927349Y-1638500D1*
X-8925903Y-1641433D1*
X-8924852Y-1644530D1*
X-8924214Y-1647737D1*
X-8924000Y-1651000D1*
X-8924214Y-1654263D1*
X-8924852Y-1657470D1*
X-8925903Y-1660567D1*
X-8927349Y-1663500D1*
X-8929166Y-1666219D1*
X-8931322Y-1668678D1*
X-8933781Y-1670834D1*
X-8936500Y-1672651D1*
X-8939433Y-1674097D1*
X-8942530Y-1675148D1*
X-8945737Y-1675786D1*
X-8949000Y-1676000D1*
D1*
X-8952263Y-1675786D1*
X-8955470Y-1675148D1*
X-8958567Y-1674097D1*
X-8961500Y-1672651D1*
X-8964219Y-1670834D1*
X-8966678Y-1668678D1*
X-8968834Y-1666219D1*
X-8970651Y-1663500D1*
X-8972097Y-1660567D1*
X-8973148Y-1657470D1*
X-8973786Y-1654263D1*
X-8974000Y-1651000D1*
X-8973786Y-1647737D1*
X-8973148Y-1644530D1*
X-8972097Y-1641433D1*
X-8970651Y-1638500D1*
X-8968834Y-1635781D1*
X-8966678Y-1633322D1*
X-8964219Y-1631166D1*
X-8961500Y-1629349D1*
X-8958567Y-1627903D1*
X-8955470Y-1626852D1*
X-8952263Y-1626214D1*
X-8949000Y-1626000D1*
D1*
G37*
G36*
X-658620Y4699623D2*
X-912620Y4826623D1*
Y4572627D1*
D1*
X-658620Y4699623D1*
G37*
G36*
Y127623D2*
X-912620Y254623D1*
Y627D1*
D1*
X-658620Y127623D1*
G37*
X-7239000Y4889500D2*
D10*
X-6794500D1*
X-6858000Y4953000D1*
X-6794500Y4889500D2*
X-6858000Y4826000D1*
G36*
X-8310370Y1270627D2*
X-8056370Y1143627D1*
Y1397623D1*
D1*
X-8310370Y1270627D1*
G37*
G36*
X-7262620Y1238873D2*
X-7516620Y1365873D1*
Y1111877D1*
D1*
X-7262620Y1238873D1*
G37*
X-7018247Y3732017D2*
D19*
X-1730743D1*
X-8086128Y4918540D2*
D48*
Y4816452D1*
X-8120157Y4918540D2*
X-8052098D1*
X-7991526D2*
X-8001297Y4913711D1*
X-8010955Y4903940D1*
X-8015897Y4894281D1*
X-8020726Y4879681D1*
Y4855311D1*
X-8015897Y4840823D1*
X-8010955Y4831052D1*
X-8001297Y4821394D1*
X-7991526Y4816452D1*
X-7972097D1*
X-7962438Y4821394D1*
X-7952667Y4831052D1*
X-7947838Y4840823D1*
X-7943009Y4855311D1*
Y4879681D1*
X-7947838Y4894281D1*
X-7952667Y4903940D1*
X-7962438Y4913711D1*
X-7972097Y4918540D1*
X-7991526D1*
X-7911636Y4865081D2*
X-7867836D1*
X-7853349Y4869911D1*
X-7848407Y4874852D1*
X-7843578Y4884511D1*
Y4899111D1*
X-7848407Y4908769D1*
X-7853349Y4913711D1*
X-7867836Y4918540D1*
X-7911636D1*
Y4816452D1*
X-6907212Y3794477D2*
D49*
Y3922087D1*
X-6955785Y3794477D1*
X-7004358Y3922087D1*
Y3794477D1*
X-6760546Y3891764D2*
X-6766583Y3903837D1*
X-6778796Y3916050D1*
X-6790870Y3922087D1*
X-6815156D1*
X-6827370Y3916050D1*
X-6839443Y3903837D1*
X-6845620Y3891764D1*
X-6851656Y3873514D1*
Y3843050D1*
X-6845620Y3824940D1*
X-6839443Y3812727D1*
X-6827370Y3800654D1*
X-6815156Y3794477D1*
X-6790870D1*
X-6778796Y3800654D1*
X-6766583Y3812727D1*
X-6760546Y3824940D1*
X-6619918Y3903837D2*
X-6631991Y3916050D1*
X-6650241Y3922087D1*
X-6674527D1*
X-6692777Y3916050D1*
X-6704991Y3903837D1*
Y3891764D1*
X-6698814Y3879550D1*
X-6692777Y3873514D1*
X-6680704Y3867477D1*
X-6644204Y3855264D1*
X-6631991Y3849227D1*
X-6625954Y3843050D1*
X-6619918Y3830977D1*
Y3812727D1*
X-6631991Y3800654D1*
X-6650241Y3794477D1*
X-6674527D1*
X-6692777Y3800654D1*
X-6704991Y3812727D1*
X-6564362Y3858212D2*
X-6494170D1*
X-6365755Y3921946D2*
X-6426401D1*
X-6432437Y3867337D1*
X-6426401Y3873373D1*
X-6408151Y3879550D1*
X-6390041D1*
X-6371791Y3873373D1*
X-6359578Y3861300D1*
X-6353541Y3843050D1*
Y3830977D1*
X-6359578Y3812727D1*
X-6371791Y3800514D1*
X-6390041Y3794477D1*
X-6408151D1*
X-6426401Y3800514D1*
X-6432437Y3806690D1*
X-6438614Y3818764D1*
X-6297986Y3897660D2*
X-6285772Y3903837D1*
X-6267522Y3921946D1*
Y3794477D1*
X-5975034D2*
Y3922087D1*
X-6023607Y3794477D1*
X-6072180Y3922087D1*
Y3794477D1*
X-5889156Y3879550D2*
X-5901229Y3873514D1*
X-5913442Y3861300D1*
X-5919479Y3843050D1*
Y3830977D1*
X-5913442Y3812727D1*
X-5901229Y3800654D1*
X-5889156Y3794477D1*
X-5870906D1*
X-5858692Y3800654D1*
X-5846619Y3812727D1*
X-5840442Y3830977D1*
Y3843050D1*
X-5846619Y3861300D1*
X-5858692Y3873514D1*
X-5870906Y3879550D1*
X-5889156D1*
X-5712027Y3922087D2*
Y3794477D1*
Y3861300D2*
X-5724100Y3873514D1*
X-5736314Y3879550D1*
X-5754564D1*
X-5766637Y3873514D1*
X-5778850Y3861300D1*
X-5784887Y3843050D1*
Y3830977D1*
X-5778850Y3812727D1*
X-5766637Y3800654D1*
X-5754564Y3794477D1*
X-5736314D1*
X-5724100Y3800654D1*
X-5712027Y3812727D1*
X-5656471Y3879550D2*
Y3818764D1*
X-5650435Y3800654D1*
X-5638221Y3794477D1*
X-5619971D1*
X-5607898Y3800654D1*
X-5589648Y3818764D1*
Y3879550D2*
Y3794477D1*
X-5534093Y3922087D2*
Y3794477D1*
X-5405678Y3879550D2*
Y3794477D1*
Y3861300D2*
X-5417751Y3873514D1*
X-5429964Y3879550D1*
X-5448074D1*
X-5460287Y3873514D1*
X-5472360Y3861300D1*
X-5478537Y3843050D1*
Y3830977D1*
X-5472360Y3812727D1*
X-5460287Y3800654D1*
X-5448074Y3794477D1*
X-5429964D1*
X-5417751Y3800654D1*
X-5405678Y3812727D1*
X-5350122Y3879550D2*
Y3794477D1*
Y3843050D2*
X-5343945Y3861300D1*
X-5331872Y3873514D1*
X-5319659Y3879550D1*
X-5301409D1*
X-5014957Y3891764D2*
X-5020994Y3903837D1*
X-5033207Y3916050D1*
X-5045280Y3922087D1*
X-5069567D1*
X-5081780Y3916050D1*
X-5093853Y3903837D1*
X-5100030Y3891764D1*
X-5106067Y3873514D1*
Y3843050D1*
X-5100030Y3824940D1*
X-5093853Y3812727D1*
X-5081780Y3800654D1*
X-5069567Y3794477D1*
X-5045280D1*
X-5033207Y3800654D1*
X-5020994Y3812727D1*
X-5014957Y3824940D1*
X-4929079Y3879550D2*
X-4941152Y3873514D1*
X-4953365Y3861300D1*
X-4959402Y3843050D1*
Y3830977D1*
X-4953365Y3812727D1*
X-4941152Y3800654D1*
X-4929079Y3794477D1*
X-4910829D1*
X-4898615Y3800654D1*
X-4886542Y3812727D1*
X-4880365Y3830977D1*
Y3843050D1*
X-4886542Y3861300D1*
X-4898615Y3873514D1*
X-4910829Y3879550D1*
X-4929079D1*
X-4824809D2*
Y3794477D1*
Y3855264D2*
X-4806559Y3873514D1*
X-4794346Y3879550D1*
X-4776236D1*
X-4764023Y3873514D1*
X-4757986Y3855264D1*
Y3794477D1*
Y3855264D2*
X-4739736Y3873514D1*
X-4727523Y3879550D1*
X-4709413D1*
X-4697200Y3873514D1*
X-4691023Y3855264D1*
Y3794477D1*
X-4635467Y3879550D2*
Y3751940D1*
Y3861300D2*
X-4623254Y3873373D1*
X-4611181Y3879550D1*
X-4592931D1*
X-4580717Y3873373D1*
X-4568644Y3861300D1*
X-4562467Y3843050D1*
Y3830837D1*
X-4568644Y3812727D1*
X-4580717Y3800514D1*
X-4592931Y3794477D1*
X-4611181D1*
X-4623254Y3800514D1*
X-4635467Y3812727D1*
X-4506912Y3879550D2*
Y3818764D1*
X-4500875Y3800654D1*
X-4488662Y3794477D1*
X-4470412D1*
X-4458339Y3800654D1*
X-4440089Y3818764D1*
Y3879550D2*
Y3794477D1*
X-4366283Y3922087D2*
Y3818764D1*
X-4360247Y3800654D1*
X-4348033Y3794477D1*
X-4335960D1*
X-4384533Y3879550D2*
X-4341997D1*
X-4280405Y3843050D2*
X-4207545D1*
Y3855264D1*
X-4213581Y3867477D1*
X-4219618Y3873514D1*
X-4231831Y3879550D1*
X-4250081D1*
X-4262155Y3873514D1*
X-4274368Y3861300D1*
X-4280405Y3843050D1*
Y3830977D1*
X-4274368Y3812727D1*
X-4262155Y3800654D1*
X-4250081Y3794477D1*
X-4231831D1*
X-4219618Y3800654D1*
X-4207545Y3812727D1*
X-4151989Y3879550D2*
Y3794477D1*
Y3843050D2*
X-4145812Y3861300D1*
X-4133739Y3873514D1*
X-4121526Y3879550D1*
X-4103276D1*
X-3907934Y3922087D2*
Y3794477D1*
X-3853184D1*
X-3834934Y3800654D1*
X-3828898Y3806690D1*
X-3822861Y3818764D1*
Y3837014D1*
X-3828898Y3849227D1*
X-3834934Y3855264D1*
X-3853184Y3861300D1*
X-3834934Y3867477D1*
X-3828898Y3873514D1*
X-3822861Y3885587D1*
Y3897800D1*
X-3828898Y3909873D1*
X-3834934Y3916050D1*
X-3853184Y3922087D1*
X-3907934D1*
Y3861300D2*
X-3853184D1*
X-3670019Y3794477D2*
X-3718732Y3922087D1*
X-3767305Y3794477D1*
X-3749055Y3837014D2*
X-3688269D1*
X-3529390Y3903837D2*
X-3541463Y3916050D1*
X-3559713Y3922087D1*
X-3584000D1*
X-3602250Y3916050D1*
X-3614463Y3903837D1*
Y3891764D1*
X-3608286Y3879550D1*
X-3602250Y3873514D1*
X-3590177Y3867477D1*
X-3553677Y3855264D1*
X-3541463Y3849227D1*
X-3535427Y3843050D1*
X-3529390Y3830977D1*
Y3812727D1*
X-3541463Y3800654D1*
X-3559713Y3794477D1*
X-3584000D1*
X-3602250Y3800654D1*
X-3614463Y3812727D1*
X-3473835Y3922087D2*
Y3794477D1*
X-3327170Y3891764D2*
X-3333206Y3903837D1*
X-3345420Y3916050D1*
X-3357493Y3922087D1*
X-3381779D1*
X-3393993Y3916050D1*
X-3406066Y3903837D1*
X-3412243Y3891764D1*
X-3418279Y3873514D1*
Y3843050D1*
X-3412243Y3824940D1*
X-3406066Y3812727D1*
X-3393993Y3800654D1*
X-3381779Y3794477D1*
X-3357493D1*
X-3345420Y3800654D1*
X-3333206Y3812727D1*
X-3327170Y3824940D1*
X-3046755Y3903837D2*
X-3058828Y3916050D1*
X-3077078Y3922087D1*
X-3101364D1*
X-3119614Y3916050D1*
X-3131828Y3903837D1*
Y3891764D1*
X-3125651Y3879550D1*
X-3119614Y3873514D1*
X-3107541Y3867477D1*
X-3071041Y3855264D1*
X-3058828Y3849227D1*
X-3052791Y3843050D1*
X-3046755Y3830977D1*
Y3812727D1*
X-3058828Y3800654D1*
X-3077078Y3794477D1*
X-3101364D1*
X-3119614Y3800654D1*
X-3131828Y3812727D1*
X-2991199Y3922087D2*
Y3794477D1*
X-2936449D1*
X-2918199Y3800654D1*
X-2912162Y3806690D1*
X-2906126Y3818764D1*
Y3837014D1*
X-2912162Y3849227D1*
X-2918199Y3855264D1*
X-2936449Y3861300D1*
X-2918199Y3867477D1*
X-2912162Y3873514D1*
X-2906126Y3885587D1*
Y3897800D1*
X-2912162Y3909873D1*
X-2918199Y3916050D1*
X-2936449Y3922087D1*
X-2991199D1*
Y3861300D2*
X-2936449D1*
X-2759461Y3891764D2*
X-2765497Y3903837D1*
X-2777711Y3916050D1*
X-2789784Y3922087D1*
X-2814070D1*
X-2826284Y3916050D1*
X-2838357Y3903837D1*
X-2844534Y3891764D1*
X-2850570Y3873514D1*
Y3843050D1*
X-2844534Y3824940D1*
X-2838357Y3812727D1*
X-2826284Y3800654D1*
X-2814070Y3794477D1*
X-2789784D1*
X-2777711Y3800654D1*
X-2765497Y3812727D1*
X-2759461Y3824940D1*
X-2466832Y3794477D2*
X-2515546Y3922087D1*
X-2564119Y3794477D1*
X-2545869Y3837014D2*
X-2485082D1*
X-2338417Y3922087D2*
Y3794477D1*
Y3861300D2*
X-2350490Y3873514D1*
X-2362704Y3879550D1*
X-2380954D1*
X-2393027Y3873514D1*
X-2405240Y3861300D1*
X-2411277Y3843050D1*
Y3830977D1*
X-2405240Y3812727D1*
X-2393027Y3800654D1*
X-2380954Y3794477D1*
X-2362704D1*
X-2350490Y3800654D1*
X-2338417Y3812727D1*
X-2210002Y3879550D2*
Y3794477D1*
Y3861300D2*
X-2222075Y3873514D1*
X-2234289Y3879550D1*
X-2252398D1*
X-2264612Y3873514D1*
X-2276685Y3861300D1*
X-2282862Y3843050D1*
Y3830977D1*
X-2276685Y3812727D1*
X-2264612Y3800654D1*
X-2252398Y3794477D1*
X-2234289D1*
X-2222075Y3800654D1*
X-2210002Y3812727D1*
X-2154446Y3879550D2*
Y3751940D1*
Y3861300D2*
X-2142233Y3873373D1*
X-2130160Y3879550D1*
X-2111910D1*
X-2099696Y3873373D1*
X-2087623Y3861300D1*
X-2081446Y3843050D1*
Y3830837D1*
X-2087623Y3812727D1*
X-2099696Y3800514D1*
X-2111910Y3794477D1*
X-2130160D1*
X-2142233Y3800514D1*
X-2154446Y3812727D1*
X-2007641Y3922087D2*
Y3818764D1*
X-2001604Y3800654D1*
X-1989391Y3794477D1*
X-1977318D1*
X-2025891Y3879550D2*
X-1983354D1*
X-1921762Y3843050D2*
X-1848903D1*
Y3855264D1*
X-1854939Y3867477D1*
X-1860976Y3873514D1*
X-1873189Y3879550D1*
X-1891439D1*
X-1903512Y3873514D1*
X-1915726Y3861300D1*
X-1921762Y3843050D1*
Y3830977D1*
X-1915726Y3812727D1*
X-1903512Y3800654D1*
X-1891439Y3794477D1*
X-1873189D1*
X-1860976Y3800654D1*
X-1848903Y3812727D1*
X-1793347Y3879550D2*
Y3794477D1*
Y3843050D2*
X-1787170Y3861300D1*
X-1775097Y3873514D1*
X-1762884Y3879550D1*
X-1744634D1*
X-7008443Y3608672D2*
D47*
Y3481062D1*
X-6923370Y3608672D2*
Y3481062D1*
X-7008443Y3547885D2*
X-6923370D1*
X-6787008Y3481062D2*
Y3608672D1*
X-6835581Y3481062D1*
X-6884154Y3608672D1*
Y3481062D1*
X-6656683Y3578349D2*
X-6662719Y3590422D1*
X-6674933Y3602635D1*
X-6687006Y3608672D1*
X-6711292D1*
X-6723506Y3602635D1*
X-6735579Y3590422D1*
X-6741756Y3578349D1*
X-6747792Y3560099D1*
Y3529635D1*
X-6741756Y3511525D1*
X-6735579Y3499312D1*
X-6723506Y3487239D1*
X-6711292Y3481062D1*
X-6687006D1*
X-6674933Y3487239D1*
X-6662719Y3499312D1*
X-6656683Y3511525D1*
X-6617467Y3544797D2*
X-6547275D1*
X-6508059Y3541849D2*
X-6453309D1*
X-6435199Y3547885D1*
X-6429022Y3554062D1*
X-6422986Y3566135D1*
Y3584385D1*
X-6429022Y3596458D1*
X-6435199Y3602635D1*
X-6453309Y3608672D1*
X-6508059D1*
Y3481062D1*
X-6383770Y3608672D2*
Y3481062D1*
X-6329020D1*
X-6310770Y3487239D1*
X-6304734Y3493275D1*
X-6298697Y3505349D1*
Y3523599D1*
X-6304734Y3535812D1*
X-6310770Y3541849D1*
X-6329020Y3547885D1*
X-6310770Y3554062D1*
X-6304734Y3560099D1*
X-6298697Y3572172D1*
Y3584385D1*
X-6304734Y3596458D1*
X-6310770Y3602635D1*
X-6329020Y3608672D1*
X-6383770D1*
Y3547885D2*
X-6329020D1*
X-6259481Y3544797D2*
X-6189289D1*
X-6150073Y3584245D2*
X-6137860Y3590422D1*
X-6119610Y3608531D1*
Y3481062D1*
X-5833501Y3608672D2*
X-5784928Y3481062D1*
X-5736355Y3608672D1*
X-5697139Y3584245D2*
X-5684926Y3590422D1*
X-5666676Y3608531D1*
Y3481062D1*
X-5621424Y3493275D2*
X-5627460Y3487099D1*
X-5621424Y3481062D1*
X-5615247Y3487099D1*
X-5621424Y3493275D1*
X-5539531Y3608531D2*
X-5557781Y3602495D1*
X-5569995Y3584245D1*
X-5576031Y3553922D1*
Y3535672D1*
X-5569995Y3505349D1*
X-5557781Y3487099D1*
X-5539531Y3481062D1*
X-5527458D1*
X-5509208Y3487099D1*
X-5497135Y3505349D1*
X-5490958Y3535672D1*
Y3553922D1*
X-5497135Y3584245D1*
X-5509208Y3602495D1*
X-5527458Y3608531D1*
X-5539531D1*
X-5497135Y3584245D2*
X-5569995Y3505349D1*
X-5415242Y3608531D2*
X-5433492Y3602495D1*
X-5445706Y3584245D1*
X-5451742Y3553922D1*
Y3535672D1*
X-5445706Y3505349D1*
X-5433492Y3487099D1*
X-5415242Y3481062D1*
X-5403169D1*
X-5384919Y3487099D1*
X-5372846Y3505349D1*
X-5366669Y3535672D1*
Y3553922D1*
X-5372846Y3584245D1*
X-5384919Y3602495D1*
X-5403169Y3608531D1*
X-5415242D1*
X-5372846Y3584245D2*
X-5445706Y3505349D1*
X-5143221Y3608672D2*
Y3511525D1*
X-5149257Y3493275D1*
X-5155434Y3487239D1*
X-5167507Y3481062D1*
X-5179721D1*
X-5191794Y3487239D1*
X-5197830Y3493275D1*
X-5204007Y3511525D1*
Y3523599D1*
X-5104005Y3566135D2*
Y3505349D1*
X-5097968Y3487239D1*
X-5085755Y3481062D1*
X-5067505D1*
X-5055432Y3487239D1*
X-5037182Y3505349D1*
Y3566135D2*
Y3481062D1*
X-4997966Y3608672D2*
Y3481062D1*
X-4952574Y3566135D2*
X-4916214Y3481062D1*
X-4928287Y3456775D1*
X-4940500Y3444562D1*
X-4952574Y3438525D1*
X-4958750D1*
X-4879714Y3566135D2*
X-4916214Y3481062D1*
X-4710875Y3578208D2*
Y3584245D1*
X-4704838Y3596458D1*
X-4698802Y3602495D1*
X-4686588Y3608531D1*
X-4662302D1*
X-4650229Y3602495D1*
X-4644192Y3596458D1*
X-4638015Y3584245D1*
Y3572172D1*
X-4644192Y3559958D1*
X-4656265Y3541849D1*
X-4717052Y3481062D1*
X-4631979D1*
X-4556263Y3608531D2*
X-4574513Y3602495D1*
X-4586726Y3584245D1*
X-4592763Y3553922D1*
Y3535672D1*
X-4586726Y3505349D1*
X-4574513Y3487099D1*
X-4556263Y3481062D1*
X-4544190D1*
X-4525940Y3487099D1*
X-4513867Y3505349D1*
X-4507690Y3535672D1*
Y3553922D1*
X-4513867Y3584245D1*
X-4525940Y3602495D1*
X-4544190Y3608531D1*
X-4556263D1*
X-4513867Y3584245D2*
X-4586726Y3505349D1*
X-4462297Y3578208D2*
Y3584245D1*
X-4456261Y3596458D1*
X-4450224Y3602495D1*
X-4438011Y3608531D1*
X-4413724D1*
X-4401651Y3602495D1*
X-4395615Y3596458D1*
X-4389438Y3584245D1*
Y3572172D1*
X-4395615Y3559958D1*
X-4407688Y3541849D1*
X-4468474Y3481062D1*
X-4383401D1*
X-4331972Y3608531D2*
X-4265289D1*
X-4301649Y3559958D1*
X-4283399D1*
X-4271326Y3553922D1*
X-4265289Y3547885D1*
X-4259112Y3529635D1*
Y3517562D1*
X-4265289Y3499312D1*
X-4277362Y3487099D1*
X-4295612Y3481062D1*
X-4313862D1*
X-4331972Y3487099D1*
X-4338009Y3493275D1*
X-4344186Y3505349D1*
X-6901460Y3308472D2*
X-6907496Y3320545D1*
X-6919710Y3332758D1*
X-6931783Y3338795D1*
X-6956069D1*
X-6968283Y3332758D1*
X-6980356Y3320545D1*
X-6986533Y3308472D1*
X-6992569Y3290222D1*
Y3259758D1*
X-6986533Y3241649D1*
X-6980356Y3229435D1*
X-6968283Y3217362D1*
X-6956069Y3211185D1*
X-6931783D1*
X-6919710Y3217362D1*
X-6907496Y3229435D1*
X-6901460Y3241649D1*
X-6831921Y3296258D2*
X-6843994Y3290222D1*
X-6856208Y3278008D1*
X-6862244Y3259758D1*
Y3247685D1*
X-6856208Y3229435D1*
X-6843994Y3217362D1*
X-6831921Y3211185D1*
X-6813671D1*
X-6801458Y3217362D1*
X-6789384Y3229435D1*
X-6783208Y3247685D1*
Y3259758D1*
X-6789384Y3278008D1*
X-6801458Y3290222D1*
X-6813671Y3296258D1*
X-6831921D1*
X-6743992D2*
Y3168649D1*
Y3278008D2*
X-6731778Y3290081D1*
X-6719705Y3296258D1*
X-6701455D1*
X-6689242Y3290081D1*
X-6677169Y3278008D1*
X-6670992Y3259758D1*
Y3247545D1*
X-6677169Y3229435D1*
X-6689242Y3217222D1*
X-6701455Y3211185D1*
X-6719705D1*
X-6731778Y3217222D1*
X-6743992Y3229435D1*
X-6625599Y3296258D2*
X-6589240Y3211185D1*
X-6601313Y3186899D1*
X-6613526Y3174685D1*
X-6625599Y3168649D1*
X-6631776D1*
X-6552740Y3296258D2*
X-6589240Y3211185D1*
X-6513524Y3296258D2*
Y3211185D1*
Y3259758D2*
X-6507347Y3278008D1*
X-6495274Y3290222D1*
X-6483061Y3296258D1*
X-6464811D1*
X-6425595Y3338795D2*
X-6419558Y3332758D1*
X-6413381Y3338795D1*
X-6419558Y3344972D1*
X-6425595Y3338795D1*
X-6419558Y3296258D2*
Y3211185D1*
X-6301306Y3290222D2*
Y3192935D1*
X-6307343Y3174826D1*
X-6313379Y3168649D1*
X-6325593Y3162612D1*
X-6343843D1*
X-6355916Y3168649D1*
X-6301306Y3271972D2*
X-6313379Y3284045D1*
X-6325593Y3290222D1*
X-6343843D1*
X-6355916Y3284045D1*
X-6368129Y3271972D1*
X-6374166Y3253722D1*
Y3241508D1*
X-6368129Y3223399D1*
X-6355916Y3211185D1*
X-6343843Y3205149D1*
X-6325593D1*
X-6313379Y3211185D1*
X-6301306Y3223399D1*
X-6262090Y3338795D2*
Y3211185D1*
Y3271972D2*
X-6243840Y3290222D1*
X-6231627Y3296258D1*
X-6213377D1*
X-6201304Y3290222D1*
X-6195267Y3271972D1*
Y3211185D1*
X-6137802Y3338795D2*
Y3235472D1*
X-6131765Y3217362D1*
X-6119552Y3211185D1*
X-6107479D1*
X-6156052Y3296258D2*
X-6113515D1*
X-5902280Y3372066D2*
X-5914493Y3359993D1*
X-5926566Y3341743D1*
X-5938780Y3317456D1*
X-5944816Y3286993D1*
Y3262706D1*
X-5938780Y3232383D1*
X-5926566Y3208097D1*
X-5914493Y3189847D1*
X-5902280Y3177774D1*
X-5790064Y3278008D2*
X-5802278Y3290222D1*
X-5814491Y3296258D1*
X-5832601D1*
X-5844814Y3290222D1*
X-5856887Y3278008D1*
X-5863064Y3259758D1*
Y3247685D1*
X-5856887Y3229435D1*
X-5844814Y3217362D1*
X-5832601Y3211185D1*
X-5814491D1*
X-5802278Y3217362D1*
X-5790064Y3229435D1*
X-5750848Y3372066D2*
X-5738635Y3359993D1*
X-5726562Y3341743D1*
X-5714348Y3317456D1*
X-5708312Y3286993D1*
Y3262706D1*
X-5714348Y3232383D1*
X-5726562Y3208097D1*
X-5738635Y3189847D1*
X-5750848Y3177774D1*
X-5448363Y3211185D2*
X-5497077Y3338795D1*
X-5545650Y3211185D1*
X-5527400Y3253722D2*
X-5466613D1*
X-5409148Y3338795D2*
Y3211185D1*
X-5363755Y3296258D2*
X-5327395Y3211185D1*
X-5339468Y3186899D1*
X-5351682Y3174685D1*
X-5363755Y3168649D1*
X-5369932D1*
X-5290895Y3296258D2*
X-5327395Y3211185D1*
X-5184857Y3278008D2*
X-5190893Y3290222D1*
X-5209143Y3296258D1*
X-5227393D1*
X-5245643Y3290222D1*
X-5251680Y3278008D1*
X-5245643Y3265935D1*
X-5233430Y3259758D1*
X-5203107Y3253722D1*
X-5190893Y3247685D1*
X-5184857Y3235472D1*
Y3229435D1*
X-5190893Y3217362D1*
X-5209143Y3211185D1*
X-5227393D1*
X-5245643Y3217362D1*
X-5251680Y3229435D1*
X-5078818Y3278008D2*
X-5084854Y3290222D1*
X-5103104Y3296258D1*
X-5121354D1*
X-5139604Y3290222D1*
X-5145641Y3278008D1*
X-5139604Y3265935D1*
X-5127391Y3259758D1*
X-5097068Y3253722D1*
X-5084854Y3247685D1*
X-5078818Y3235472D1*
Y3229435D1*
X-5084854Y3217362D1*
X-5103104Y3211185D1*
X-5121354D1*
X-5139604Y3217362D1*
X-5145641Y3229435D1*
X-5009279Y3296258D2*
X-5021352Y3290222D1*
X-5033566Y3278008D1*
X-5039602Y3259758D1*
Y3247685D1*
X-5033566Y3229435D1*
X-5021352Y3217362D1*
X-5009279Y3211185D1*
X-4991029D1*
X-4978816Y3217362D1*
X-4966743Y3229435D1*
X-4960566Y3247685D1*
Y3259758D1*
X-4966743Y3278008D1*
X-4978816Y3290222D1*
X-4991029Y3296258D1*
X-5009279D1*
X-4921350D2*
Y3211185D1*
Y3271972D2*
X-4903100Y3290222D1*
X-4890886Y3296258D1*
X-4872777D1*
X-4860563Y3290222D1*
X-4854527Y3271972D1*
Y3211185D1*
X-4691865Y3278008D2*
X-4637255D1*
X-4619005Y3284185D1*
X-4612828Y3290222D1*
X-4606792Y3302295D1*
Y3314508D1*
X-4612828Y3326581D1*
X-4619005Y3332758D1*
X-4637255Y3338795D1*
X-4691865D1*
Y3211185D1*
X-4649328Y3278008D2*
X-4606792Y3211185D1*
X-4537253Y3296258D2*
X-4549326Y3290222D1*
X-4561539Y3278008D1*
X-4567576Y3259758D1*
Y3247685D1*
X-4561539Y3229435D1*
X-4549326Y3217362D1*
X-4537253Y3211185D1*
X-4519003D1*
X-4506789Y3217362D1*
X-4494716Y3229435D1*
X-4488539Y3247685D1*
Y3259758D1*
X-4494716Y3278008D1*
X-4506789Y3290222D1*
X-4519003Y3296258D1*
X-4537253D1*
X-4449324D2*
X-4425037Y3211185D1*
X-4400751Y3296258D1*
X-4376464Y3211185D1*
X-4352178Y3296258D1*
X-4240102D2*
Y3211185D1*
Y3278008D2*
X-4252175Y3290222D1*
X-4264389Y3296258D1*
X-4282498D1*
X-4294712Y3290222D1*
X-4306785Y3278008D1*
X-4312962Y3259758D1*
Y3247685D1*
X-4306785Y3229435D1*
X-4294712Y3217362D1*
X-4282498Y3211185D1*
X-4264389D1*
X-4252175Y3217362D1*
X-4240102Y3229435D1*
X-4200887Y3296258D2*
Y3211185D1*
Y3271972D2*
X-4182637Y3290222D1*
X-4170423Y3296258D1*
X-4152313D1*
X-4140100Y3290222D1*
X-4134063Y3271972D1*
Y3211185D1*
X-4082634Y3217222D2*
X-4088811Y3211185D1*
X-4094848Y3217222D1*
X-4088811Y3223399D1*
X-4082634Y3217222D1*
Y3205149D1*
X-4088811Y3192935D1*
X-4094848Y3186899D1*
X-3913795Y3308331D2*
Y3314368D1*
X-3907759Y3326581D1*
X-3901722Y3332618D1*
X-3889509Y3338655D1*
X-3865222D1*
X-3853149Y3332618D1*
X-3847113Y3326581D1*
X-3840936Y3314368D1*
Y3302295D1*
X-3847113Y3290081D1*
X-3859186Y3271972D1*
X-3919972Y3211185D1*
X-3834899D1*
X-3759183Y3338655D2*
X-3777433Y3332618D1*
X-3789647Y3314368D1*
X-3795683Y3284045D1*
Y3265795D1*
X-3789647Y3235472D1*
X-3777433Y3217222D1*
X-3759183Y3211185D1*
X-3747110D1*
X-3728860Y3217222D1*
X-3716787Y3235472D1*
X-3710610Y3265795D1*
Y3284045D1*
X-3716787Y3314368D1*
X-3728860Y3332618D1*
X-3747110Y3338655D1*
X-3759183D1*
X-3716787Y3314368D2*
X-3789647Y3235472D1*
X-3665218Y3308331D2*
Y3314368D1*
X-3659181Y3326581D1*
X-3653145Y3332618D1*
X-3640931Y3338655D1*
X-3616645D1*
X-3604572Y3332618D1*
X-3598535Y3326581D1*
X-3592358Y3314368D1*
Y3302295D1*
X-3598535Y3290081D1*
X-3610608Y3271972D1*
X-3671395Y3211185D1*
X-3586322D1*
X-3534892Y3338655D2*
X-3468210D1*
X-3504569Y3290081D1*
X-3486319D1*
X-3474246Y3284045D1*
X-3468210Y3278008D1*
X-3462033Y3259758D1*
Y3247685D1*
X-3468210Y3229435D1*
X-3480283Y3217222D1*
X-3498533Y3211185D1*
X-3516783D1*
X-3534892Y3217222D1*
X-3540929Y3223399D1*
X-3547106Y3235472D1*
X-6994530Y2998160D2*
D48*
Y2896072D1*
Y2944701D2*
X-6979930Y2959301D1*
X-6970159Y2964131D1*
X-6955559D1*
X-6945901Y2959301D1*
X-6941072Y2944701D1*
Y2896072D1*
X-6895099Y2998160D2*
Y2915501D1*
X-6890270Y2901014D1*
X-6880499Y2896072D1*
X-6870841D1*
X-6909699Y2964131D2*
X-6875670D1*
X-6824868Y2998160D2*
Y2915501D1*
X-6820039Y2901014D1*
X-6810268Y2896072D1*
X-6800610D1*
X-6839468Y2964131D2*
X-6805439D1*
X-6769237D2*
Y2862043D1*
Y2949531D2*
X-6759466Y2959189D1*
X-6749808Y2964131D1*
X-6735208D1*
X-6725437Y2959189D1*
X-6715779Y2949531D1*
X-6710837Y2934931D1*
Y2925160D1*
X-6715779Y2910672D1*
X-6725437Y2900901D1*
X-6735208Y2896072D1*
X-6749808D1*
X-6759466Y2900901D1*
X-6769237Y2910672D1*
X-6626006Y2949531D2*
X-6630835Y2959301D1*
X-6645435Y2964131D1*
X-6660035D1*
X-6674635Y2959301D1*
X-6679465Y2949531D1*
X-6674635Y2939872D1*
X-6664865Y2934931D1*
X-6640606Y2930101D1*
X-6630835Y2925272D1*
X-6626006Y2915501D1*
Y2910672D1*
X-6630835Y2901014D1*
X-6645435Y2896072D1*
X-6660035D1*
X-6674635Y2901014D1*
X-6679465Y2910672D1*
X-6589692Y2964131D2*
X-6594634Y2959189D1*
X-6589692Y2954360D1*
X-6584863Y2959189D1*
X-6589692Y2964131D1*
Y2905843D2*
X-6594634Y2900901D1*
X-6589692Y2896072D1*
X-6584863Y2900901D1*
X-6589692Y2905843D1*
X-6553490Y2896072D2*
X-6485432Y2998048D1*
X-6454059Y2896072D2*
X-6386001Y2998048D1*
X-6296341Y2959301D2*
Y2881472D1*
X-6301170Y2866985D1*
X-6305999Y2862043D1*
X-6315770Y2857214D1*
X-6330370D1*
X-6340028Y2862043D1*
X-6296341Y2944701D2*
X-6305999Y2954360D1*
X-6315770Y2959301D1*
X-6330370D1*
X-6340028Y2954360D1*
X-6349799Y2944701D1*
X-6354628Y2930101D1*
Y2920331D1*
X-6349799Y2905843D1*
X-6340028Y2896072D1*
X-6330370Y2891243D1*
X-6315770D1*
X-6305999Y2896072D1*
X-6296341Y2905843D1*
X-6264968Y2998160D2*
X-6260139Y2993331D1*
X-6255197Y2998160D1*
X-6260139Y3003101D1*
X-6264968Y2998160D1*
X-6260139Y2964131D2*
Y2896072D1*
X-6209225Y2998160D2*
Y2915501D1*
X-6204395Y2901014D1*
X-6194625Y2896072D1*
X-6184966D1*
X-6223825Y2964131D2*
X-6189795D1*
X-6153594Y2998160D2*
Y2896072D1*
Y2944701D2*
X-6138994Y2959301D1*
X-6129223Y2964131D1*
X-6114623D1*
X-6104964Y2959301D1*
X-6100135Y2944701D1*
Y2896072D1*
X-6068763Y2964131D2*
Y2915501D1*
X-6063933Y2901014D1*
X-6054163Y2896072D1*
X-6039563D1*
X-6029904Y2901014D1*
X-6015304Y2915501D1*
Y2964131D2*
Y2896072D1*
X-5983932Y2998160D2*
Y2896072D1*
Y2949531D2*
X-5974161Y2959301D1*
X-5964502Y2964131D1*
X-5949902D1*
X-5940244Y2959301D1*
X-5930473Y2949531D1*
X-5925644Y2934931D1*
Y2925272D1*
X-5930473Y2910672D1*
X-5940244Y2901014D1*
X-5949902Y2896072D1*
X-5964502D1*
X-5974161Y2901014D1*
X-5983932Y2910672D1*
X-5889442Y2905843D2*
X-5894271Y2900901D1*
X-5889442Y2896072D1*
X-5884501Y2900901D1*
X-5889442Y2905843D1*
X-5794728Y2949531D2*
X-5804499Y2959301D1*
X-5814270Y2964131D1*
X-5828757D1*
X-5838528Y2959301D1*
X-5848187Y2949531D1*
X-5853128Y2934931D1*
Y2925272D1*
X-5848187Y2910672D1*
X-5838528Y2901014D1*
X-5828757Y2896072D1*
X-5814270D1*
X-5804499Y2901014D1*
X-5794728Y2910672D1*
X-5739097Y2964131D2*
X-5748756Y2959301D1*
X-5758526Y2949531D1*
X-5763356Y2934931D1*
Y2925272D1*
X-5758526Y2910672D1*
X-5748756Y2901014D1*
X-5739097Y2896072D1*
X-5724497D1*
X-5714726Y2901014D1*
X-5705068Y2910672D1*
X-5700126Y2925272D1*
Y2934931D1*
X-5705068Y2949531D1*
X-5714726Y2959301D1*
X-5724497Y2964131D1*
X-5739097D1*
X-5668754D2*
Y2896072D1*
Y2944701D2*
X-5654154Y2959301D1*
X-5644383Y2964131D1*
X-5629895D1*
X-5620125Y2959301D1*
X-5615295Y2944701D1*
Y2896072D1*
Y2944701D2*
X-5600695Y2959301D1*
X-5590925Y2964131D1*
X-5576437D1*
X-5566666Y2959301D1*
X-5561725Y2944701D1*
Y2896072D1*
X-5530352D2*
X-5462294Y2998048D1*
X-5353092Y2896072D2*
X-5392063Y2998160D1*
X-5430921Y2896072D1*
X-5416321Y2930101D2*
X-5367692D1*
X-5321719Y2998160D2*
Y2896072D1*
X-5285405Y2964131D2*
X-5256317Y2896072D1*
X-5265976Y2876643D1*
X-5275747Y2866872D1*
X-5285405Y2862043D1*
X-5290347D1*
X-5227117Y2964131D2*
X-5256317Y2896072D1*
X-5142286Y2949531D2*
X-5147116Y2959301D1*
X-5161716Y2964131D1*
X-5176316D1*
X-5190916Y2959301D1*
X-5195745Y2949531D1*
X-5190916Y2939872D1*
X-5181145Y2934931D1*
X-5156886Y2930101D1*
X-5147116Y2925272D1*
X-5142286Y2915501D1*
Y2910672D1*
X-5147116Y2901014D1*
X-5161716Y2896072D1*
X-5176316D1*
X-5190916Y2901014D1*
X-5195745Y2910672D1*
X-5057455Y2949531D2*
X-5062285Y2959301D1*
X-5076885Y2964131D1*
X-5091485D1*
X-5106085Y2959301D1*
X-5110914Y2949531D1*
X-5106085Y2939872D1*
X-5096314Y2934931D1*
X-5072055Y2930101D1*
X-5062285Y2925272D1*
X-5057455Y2915501D1*
Y2910672D1*
X-5062285Y2901014D1*
X-5076885Y2896072D1*
X-5091485D1*
X-5106085Y2901014D1*
X-5110914Y2910672D1*
X-5001824Y2964131D2*
X-5011483Y2959301D1*
X-5021254Y2949531D1*
X-5026083Y2934931D1*
Y2925272D1*
X-5021254Y2910672D1*
X-5011483Y2901014D1*
X-5001824Y2896072D1*
X-4987224D1*
X-4977454Y2901014D1*
X-4967795Y2910672D1*
X-4962854Y2925272D1*
Y2934931D1*
X-4967795Y2949531D1*
X-4977454Y2959301D1*
X-4987224Y2964131D1*
X-5001824D1*
X-4931481D2*
Y2896072D1*
Y2944701D2*
X-4916881Y2959301D1*
X-4907110Y2964131D1*
X-4892623D1*
X-4882852Y2959301D1*
X-4878023Y2944701D1*
Y2896072D1*
X-4846650Y2949531D2*
X-4802962D1*
X-4788362Y2954472D1*
X-4783421Y2959301D1*
X-4778592Y2968960D1*
Y2978731D1*
X-4783421Y2988389D1*
X-4788362Y2993331D1*
X-4802962Y2998160D1*
X-4846650D1*
Y2896072D1*
X-4812621Y2949531D2*
X-4778592Y2896072D1*
X-4722961Y2964131D2*
X-4732619Y2959301D1*
X-4742390Y2949531D1*
X-4747219Y2934931D1*
Y2925272D1*
X-4742390Y2910672D1*
X-4732619Y2901014D1*
X-4722961Y2896072D1*
X-4708361D1*
X-4698590Y2901014D1*
X-4688931Y2910672D1*
X-4683990Y2925272D1*
Y2934931D1*
X-4688931Y2949531D1*
X-4698590Y2959301D1*
X-4708361Y2964131D1*
X-4722961D1*
X-4652617D2*
X-4633188Y2896072D1*
X-4613759Y2964131D1*
X-4594330Y2896072D1*
X-4574900Y2964131D1*
X-4485240D2*
Y2896072D1*
Y2949531D2*
X-4494899Y2959301D1*
X-4504669Y2964131D1*
X-4519157D1*
X-4528928Y2959301D1*
X-4538586Y2949531D1*
X-4543528Y2934931D1*
Y2925272D1*
X-4538586Y2910672D1*
X-4528928Y2901014D1*
X-4519157Y2896072D1*
X-4504669D1*
X-4494899Y2901014D1*
X-4485240Y2910672D1*
X-4453868Y2964131D2*
Y2896072D1*
Y2944701D2*
X-4439268Y2959301D1*
X-4429497Y2964131D1*
X-4415009D1*
X-4405238Y2959301D1*
X-4400409Y2944701D1*
Y2896072D1*
X-4369037D2*
X-4300978Y2998048D1*
X-4191889Y2896072D2*
Y2998160D1*
X-4230747Y2896072D1*
X-4269606Y2998160D1*
Y2896072D1*
X-4087628Y2973901D2*
X-4092458Y2983560D1*
X-4102228Y2993331D1*
X-4111887Y2998160D1*
X-4131316D1*
X-4141087Y2993331D1*
X-4150745Y2983560D1*
X-4155687Y2973901D1*
X-4160516Y2959301D1*
Y2934931D1*
X-4155687Y2920443D1*
X-4150745Y2910672D1*
X-4141087Y2901014D1*
X-4131316Y2896072D1*
X-4111887D1*
X-4102228Y2901014D1*
X-4092458Y2910672D1*
X-4087628Y2920443D1*
X-3988197Y2983560D2*
X-3997856Y2993331D1*
X-4012456Y2998160D1*
X-4031885D1*
X-4046485Y2993331D1*
X-4056256Y2983560D1*
Y2973901D1*
X-4051314Y2964131D1*
X-4046485Y2959301D1*
X-4036827Y2954472D1*
X-4007627Y2944701D1*
X-3997856Y2939872D1*
X-3993027Y2934931D1*
X-3988197Y2925272D1*
Y2910672D1*
X-3997856Y2901014D1*
X-4012456Y2896072D1*
X-4031885D1*
X-4046485Y2901014D1*
X-4056256Y2910672D1*
X-3956825Y2947060D2*
X-3900671D1*
X-3811011Y2998048D2*
X-3859528D1*
X-3864357Y2954360D1*
X-3859528Y2959189D1*
X-3844928Y2964131D1*
X-3830440D1*
X-3815840Y2959189D1*
X-3806069Y2949531D1*
X-3801240Y2934931D1*
Y2925272D1*
X-3806069Y2910672D1*
X-3815840Y2900901D1*
X-3830440Y2896072D1*
X-3844928D1*
X-3859528Y2900901D1*
X-3864357Y2905843D1*
X-3869298Y2915501D1*
X-3769867Y2978618D2*
X-3760097Y2983560D1*
X-3745497Y2998048D1*
Y2896072D1*
X-3714124Y2947060D2*
X-3657970D1*
X-3548881Y2896072D2*
Y2998160D1*
X-3587739Y2896072D1*
X-3626598Y2998160D1*
Y2896072D1*
X-3493250Y2964131D2*
X-3502908Y2959301D1*
X-3512679Y2949531D1*
X-3517508Y2934931D1*
Y2925272D1*
X-3512679Y2910672D1*
X-3502908Y2901014D1*
X-3493250Y2896072D1*
X-3478650D1*
X-3468879Y2901014D1*
X-3459221Y2910672D1*
X-3454279Y2925272D1*
Y2934931D1*
X-3459221Y2949531D1*
X-3468879Y2959301D1*
X-3478650Y2964131D1*
X-3493250D1*
X-3364619Y2998160D2*
Y2896072D1*
Y2949531D2*
X-3374277Y2959301D1*
X-3384048Y2964131D1*
X-3398648D1*
X-3408306Y2959301D1*
X-3418077Y2949531D1*
X-3422906Y2934931D1*
Y2925272D1*
X-3418077Y2910672D1*
X-3408306Y2901014D1*
X-3398648Y2896072D1*
X-3384048D1*
X-3374277Y2901014D1*
X-3364619Y2910672D1*
X-3333246Y2964131D2*
Y2915501D1*
X-3328417Y2901014D1*
X-3318646Y2896072D1*
X-3304046D1*
X-3294388Y2901014D1*
X-3279788Y2915501D1*
Y2964131D2*
Y2896072D1*
X-3248415Y2998160D2*
Y2896072D1*
X-3158755Y2964131D2*
Y2896072D1*
Y2949531D2*
X-3168413Y2959301D1*
X-3178184Y2964131D1*
X-3192672D1*
X-3202443Y2959301D1*
X-3212101Y2949531D1*
X-3217043Y2934931D1*
Y2925272D1*
X-3212101Y2910672D1*
X-3202443Y2901014D1*
X-3192672Y2896072D1*
X-3178184D1*
X-3168413Y2901014D1*
X-3158755Y2910672D1*
X-3127382Y2964131D2*
Y2896072D1*
Y2934931D2*
X-3122441Y2949531D1*
X-3112782Y2959301D1*
X-3103012Y2964131D1*
X-3088412D1*
X-3057039Y2947060D2*
X-3000885D1*
X-2896625Y2973901D2*
X-2901454Y2983560D1*
X-2911225Y2993331D1*
X-2920883Y2998160D1*
X-2940313D1*
X-2950083Y2993331D1*
X-2959742Y2983560D1*
X-2964683Y2973901D1*
X-2969513Y2959301D1*
Y2934931D1*
X-2964683Y2920443D1*
X-2959742Y2910672D1*
X-2950083Y2901014D1*
X-2940313Y2896072D1*
X-2920883D1*
X-2911225Y2901014D1*
X-2901454Y2910672D1*
X-2896625Y2920443D1*
X-2840994Y2964131D2*
X-2850652Y2959301D1*
X-2860423Y2949531D1*
X-2865252Y2934931D1*
Y2925272D1*
X-2860423Y2910672D1*
X-2850652Y2901014D1*
X-2840994Y2896072D1*
X-2826394D1*
X-2816623Y2901014D1*
X-2806965Y2910672D1*
X-2802023Y2925272D1*
Y2934931D1*
X-2806965Y2949531D1*
X-2816623Y2959301D1*
X-2826394Y2964131D1*
X-2840994D1*
X-2770651D2*
Y2896072D1*
Y2944701D2*
X-2756051Y2959301D1*
X-2746280Y2964131D1*
X-2731792D1*
X-2722021Y2959301D1*
X-2717192Y2944701D1*
Y2896072D1*
Y2944701D2*
X-2702592Y2959301D1*
X-2692821Y2964131D1*
X-2678334D1*
X-2668563Y2959301D1*
X-2663621Y2944701D1*
Y2896072D1*
X-2632249Y2964131D2*
Y2862043D1*
Y2949531D2*
X-2622478Y2959189D1*
X-2612820Y2964131D1*
X-2598220D1*
X-2588449Y2959189D1*
X-2578790Y2949531D1*
X-2573849Y2934931D1*
Y2925160D1*
X-2578790Y2910672D1*
X-2588449Y2900901D1*
X-2598220Y2896072D1*
X-2612820D1*
X-2622478Y2900901D1*
X-2632249Y2910672D1*
X-2542476Y2964131D2*
Y2915501D1*
X-2537647Y2901014D1*
X-2527876Y2896072D1*
X-2513276D1*
X-2503618Y2901014D1*
X-2489018Y2915501D1*
Y2964131D2*
Y2896072D1*
X-2443045Y2998160D2*
Y2915501D1*
X-2438216Y2901014D1*
X-2428445Y2896072D1*
X-2418787D1*
X-2457645Y2964131D2*
X-2423616D1*
X-2387414Y2934931D2*
X-2329127D1*
Y2944701D1*
X-2333956Y2954472D1*
X-2338785Y2959301D1*
X-2348556Y2964131D1*
X-2363156D1*
X-2372814Y2959301D1*
X-2382585Y2949531D1*
X-2387414Y2934931D1*
Y2925272D1*
X-2382585Y2910672D1*
X-2372814Y2901014D1*
X-2363156Y2896072D1*
X-2348556D1*
X-2338785Y2901014D1*
X-2329127Y2910672D1*
X-2297754Y2964131D2*
Y2896072D1*
Y2934931D2*
X-2292813Y2949531D1*
X-2283154Y2959301D1*
X-2273383Y2964131D1*
X-2258783D1*
X-7553630Y-1975447D2*
D50*
X-7573171Y-1994764D1*
X-7582830Y-2023964D1*
Y-2062822D1*
X-7573171Y-2092022D1*
X-7553630Y-2111564D1*
X-7534313D1*
X-7514771Y-2101681D1*
X-7505113Y-2092022D1*
X-7495454Y-2072705D1*
X-7475913Y-2014305D1*
X-7466254Y-1994764D1*
X-7456371Y-1985105D1*
X-7437054Y-1975447D1*
X-7407854D1*
X-7388538Y-1994764D1*
X-7378654Y-2023964D1*
Y-2062822D1*
X-7388538Y-2092022D1*
X-7407854Y-2111564D1*
X-7582830Y-1912702D2*
X-7378654D1*
Y-1825102D1*
X-7388538Y-1795902D1*
X-7398196Y-1786243D1*
X-7417513Y-1776585D1*
X-7446713D1*
X-7466254Y-1786243D1*
X-7475913Y-1795902D1*
X-7485571Y-1825102D1*
X-7495454Y-1795902D1*
X-7505113Y-1786243D1*
X-7524430Y-1776585D1*
X-7543971D1*
X-7563288Y-1786243D1*
X-7573171Y-1795902D1*
X-7582830Y-1825102D1*
Y-1912702D1*
X-7485571D2*
Y-1825102D1*
X-7534313Y-1568064D2*
X-7553630Y-1577723D1*
X-7573171Y-1597264D1*
X-7582830Y-1616581D1*
Y-1655440D1*
X-7573171Y-1674981D1*
X-7553630Y-1694298D1*
X-7534313Y-1704181D1*
X-7505113Y-1713840D1*
X-7456371D1*
X-7427396Y-1704181D1*
X-7407854Y-1694298D1*
X-7388538Y-1674981D1*
X-7378654Y-1655440D1*
Y-1616581D1*
X-7388538Y-1597264D1*
X-7407854Y-1577723D1*
X-7427396Y-1568064D1*
X-7582830Y-1307805D2*
X-7378654D1*
Y-1220205D1*
X-7388538Y-1191005D1*
X-7398196Y-1181346D1*
X-7417513Y-1171688D1*
X-7446713D1*
X-7466254Y-1181346D1*
X-7475913Y-1191005D1*
X-7485571Y-1220205D1*
X-7495454Y-1191005D1*
X-7505113Y-1181346D1*
X-7524430Y-1171688D1*
X-7543971D1*
X-7563288Y-1181346D1*
X-7573171Y-1191005D1*
X-7582830Y-1220205D1*
Y-1307805D1*
X-7485571D2*
Y-1220205D1*
X-7514771Y-1108943D2*
X-7417513D1*
X-7388538Y-1099284D1*
X-7378654Y-1079743D1*
Y-1050543D1*
X-7388538Y-1031226D1*
X-7417513Y-1002026D1*
X-7514771D2*
X-7378654D1*
X-7485571Y-832364D2*
X-7505113Y-842022D1*
X-7514771Y-871222D1*
Y-900422D1*
X-7505113Y-929622D1*
X-7485571Y-939281D1*
X-7466254Y-929622D1*
X-7456371Y-910081D1*
X-7446713Y-861564D1*
X-7437054Y-842022D1*
X-7417513Y-832364D1*
X-7407854D1*
X-7388538Y-842022D1*
X-7378654Y-871222D1*
Y-900422D1*
X-7388538Y-929622D1*
X-7407854Y-939281D1*
X-7534313Y-426329D2*
X-7553630Y-435988D1*
X-7573171Y-455529D1*
X-7582830Y-474846D1*
Y-513704D1*
X-7573171Y-533246D1*
X-7553630Y-552563D1*
X-7534313Y-562446D1*
X-7505113Y-572104D1*
X-7456371D1*
X-7427396Y-562446D1*
X-7407854Y-552563D1*
X-7388538Y-533246D1*
X-7378654Y-513704D1*
Y-474846D1*
X-7388538Y-455529D1*
X-7407854Y-435988D1*
X-7427396Y-426329D1*
X-7514771Y-247009D2*
X-7378654D1*
X-7485571D2*
X-7505113Y-266326D1*
X-7514771Y-285867D1*
Y-314842D1*
X-7505113Y-334384D1*
X-7485571Y-353701D1*
X-7456371Y-363584D1*
X-7437054D1*
X-7407854Y-353701D1*
X-7388538Y-334384D1*
X-7378654Y-314842D1*
Y-285867D1*
X-7388538Y-266326D1*
X-7407854Y-247009D1*
X-7582830Y-184264D2*
X-7378654D1*
X-7485571D2*
X-7505113Y-164722D1*
X-7514771Y-145405D1*
Y-116205D1*
X-7505113Y-96888D1*
X-7485571Y-77347D1*
X-7456371Y-67688D1*
X-7437054D1*
X-7407854Y-77347D1*
X-7388538Y-96888D1*
X-7378654Y-116205D1*
Y-145405D1*
X-7388538Y-164722D1*
X-7407854Y-184264D1*
X-7582830Y-4943D2*
X-7378654D1*
X-7456371Y57802D2*
Y174377D1*
X-7475913D1*
X-7495454Y164719D1*
X-7505113Y155061D1*
X-7514771Y135519D1*
Y106319D1*
X-7505113Y87002D1*
X-7485571Y67461D1*
X-7456371Y57802D1*
X-7437054D1*
X-7407854Y67461D1*
X-7388538Y87002D1*
X-7378654Y106319D1*
Y135519D1*
X-7388538Y155061D1*
X-7407854Y174377D1*
X-7749870Y3562947D2*
X-7730329Y3582264D1*
X-7720670Y3611464D1*
Y3650322D1*
X-7730329Y3679522D1*
X-7749870Y3699064D1*
X-7769187D1*
X-7788729Y3689181D1*
X-7798387Y3679522D1*
X-7808046Y3660205D1*
X-7827587Y3601805D1*
X-7837246Y3582264D1*
X-7847129Y3572605D1*
X-7866446Y3562947D1*
X-7895646D1*
X-7914962Y3582264D1*
X-7924846Y3611464D1*
Y3650322D1*
X-7914962Y3679522D1*
X-7895646Y3699064D1*
X-7720670Y3500202D2*
X-7924846D1*
Y3412602D1*
X-7914962Y3383402D1*
X-7905304Y3373743D1*
X-7885987Y3364085D1*
X-7856787D1*
X-7837246Y3373743D1*
X-7827587Y3383402D1*
X-7817929Y3412602D1*
X-7808046Y3383402D1*
X-7798387Y3373743D1*
X-7779070Y3364085D1*
X-7759529D1*
X-7740212Y3373743D1*
X-7730329Y3383402D1*
X-7720670Y3412602D1*
Y3500202D1*
X-7817929D2*
Y3412602D1*
X-7769187Y3155564D2*
X-7749870Y3165223D1*
X-7730329Y3184764D1*
X-7720670Y3204081D1*
Y3242940D1*
X-7730329Y3262481D1*
X-7749870Y3281798D1*
X-7769187Y3291681D1*
X-7798387Y3301340D1*
X-7847129D1*
X-7876104Y3291681D1*
X-7895646Y3281798D1*
X-7914962Y3262481D1*
X-7924846Y3242940D1*
Y3204081D1*
X-7914962Y3184764D1*
X-7895646Y3165223D1*
X-7876104Y3155564D1*
X-7924846Y2739646D2*
X-7720670Y2817588D1*
X-7924846Y2895305D1*
X-7856787Y2866105D2*
Y2768846D1*
X-7788729Y2676901D2*
X-7885987D1*
X-7914962Y2667243D1*
X-7924846Y2647701D1*
Y2618501D1*
X-7914962Y2599184D1*
X-7885987Y2569984D1*
X-7788729D2*
X-7924846D1*
X-7788729Y2507239D2*
X-7924846Y2400322D1*
X-7788729D2*
X-7924846Y2507239D1*
X-7769187Y1994288D2*
X-7749870Y2003946D1*
X-7730329Y2023488D1*
X-7720670Y2042804D1*
Y2081663D1*
X-7730329Y2101204D1*
X-7749870Y2120521D1*
X-7769187Y2130404D1*
X-7798387Y2140063D1*
X-7847129D1*
X-7876104Y2130404D1*
X-7895646Y2120521D1*
X-7914962Y2101204D1*
X-7924846Y2081663D1*
Y2042804D1*
X-7914962Y2023488D1*
X-7895646Y2003946D1*
X-7876104Y1994288D1*
X-7788729Y1814967D2*
X-7924846D1*
X-7817929D2*
X-7798387Y1834284D1*
X-7788729Y1853826D1*
Y1882801D1*
X-7798387Y1902342D1*
X-7817929Y1921659D1*
X-7847129Y1931542D1*
X-7866446D1*
X-7895646Y1921659D1*
X-7914962Y1902342D1*
X-7924846Y1882801D1*
Y1853826D1*
X-7914962Y1834284D1*
X-7895646Y1814967D1*
X-7720670Y1752222D2*
X-7924846D1*
X-7817929D2*
X-7798387Y1732680D1*
X-7788729Y1713364D1*
Y1684164D1*
X-7798387Y1664847D1*
X-7817929Y1645305D1*
X-7847129Y1635647D1*
X-7866446D1*
X-7895646Y1645305D1*
X-7914962Y1664847D1*
X-7924846Y1684164D1*
Y1713364D1*
X-7914962Y1732680D1*
X-7895646Y1752222D1*
X-7720670Y1572901D2*
X-7924846D1*
X-7847129Y1510156D2*
Y1393581D1*
X-7827587D1*
X-7808046Y1403239D1*
X-7798387Y1412898D1*
X-7788729Y1432439D1*
Y1461639D1*
X-7798387Y1480956D1*
X-7817929Y1500498D1*
X-7847129Y1510156D1*
X-7866446D1*
X-7895646Y1500498D1*
X-7914962Y1480956D1*
X-7924846Y1461639D1*
Y1432439D1*
X-7914962Y1412898D1*
X-7895646Y1393581D1*
X-9669087Y-2619186D2*
Y-2706786D1*
X-9659429Y-2735762D1*
X-9649546Y-2745645D1*
X-9630229Y-2755303D1*
X-9601029D1*
X-9581712Y-2745645D1*
X-9571829Y-2735762D1*
X-9562170Y-2706786D1*
Y-2619186D1*
X-9766346D1*
X-9630229Y-2818048D2*
X-9766346D1*
X-9688629D2*
X-9659429Y-2827931D1*
X-9639887Y-2847248D1*
X-9630229Y-2866790D1*
Y-2895990D1*
X-9562170Y-2958735D2*
X-9571829Y-2968393D1*
X-9562170Y-2978276D1*
X-9552287Y-2968393D1*
X-9562170Y-2958735D1*
X-9630229Y-2968393D2*
X-9766346D1*
X-9630229Y-3041022D2*
X-9766346D1*
X-9669087D2*
X-9639887Y-3070222D1*
X-9630229Y-3089763D1*
Y-3118738D1*
X-9639887Y-3138280D1*
X-9669087Y-3147938D1*
X-9766346D1*
X-9562170Y-3239884D2*
X-9727487D1*
X-9756462Y-3249542D1*
X-9766346Y-3269084D1*
Y-3288401D1*
X-9630229Y-3210684D2*
Y-3278742D1*
X-9688629Y-3351146D2*
Y-3467721D1*
X-9669087D1*
X-9649546Y-3458063D1*
X-9639887Y-3448404D1*
X-9630229Y-3428863D1*
Y-3399663D1*
X-9639887Y-3380346D1*
X-9659429Y-3360804D1*
X-9688629Y-3351146D1*
X-9707946D1*
X-9737146Y-3360804D1*
X-9756462Y-3380346D1*
X-9766346Y-3399663D1*
Y-3428863D1*
X-9756462Y-3448404D1*
X-9737146Y-3467721D1*
X-9630229Y-3530466D2*
X-9766346D1*
X-9688629D2*
X-9659429Y-3540349D1*
X-9639887Y-3559666D1*
X-9630229Y-3579208D1*
Y-3608408D1*
X-9562170Y-3927067D2*
X-9571829Y-3907526D1*
X-9591370Y-3888209D1*
X-9610687Y-3878326D1*
X-9639887Y-3868667D1*
X-9688629D1*
X-9717604Y-3878326D1*
X-9737146Y-3888209D1*
X-9756462Y-3907526D1*
X-9766346Y-3927067D1*
Y-3965926D1*
X-9756462Y-3985242D1*
X-9737146Y-4004784D1*
X-9717604Y-4014442D1*
X-9688629Y-4024101D1*
X-9639887D1*
X-9610687Y-4014442D1*
X-9591370Y-4004784D1*
X-9571829Y-3985242D1*
X-9562170Y-3965926D1*
Y-3927067D1*
X-9630229Y-4086846D2*
X-9727487D1*
X-9756462Y-4096504D1*
X-9766346Y-4116046D1*
Y-4145246D1*
X-9756462Y-4164563D1*
X-9727487Y-4193763D1*
X-9630229D2*
X-9766346D1*
X-9562170Y-4285708D2*
X-9727487D1*
X-9756462Y-4295366D1*
X-9766346Y-4314908D1*
Y-4334225D1*
X-9630229Y-4256508D2*
Y-4324566D1*
X-733513Y1252126D2*
D47*
X-861123D1*
Y1209590D1*
X-854946Y1191340D1*
X-842873Y1179126D1*
X-830660Y1173090D1*
X-812550Y1167053D1*
X-782086D1*
X-763836Y1173090D1*
X-751763Y1179126D1*
X-739550Y1191340D1*
X-733513Y1209590D1*
Y1252126D1*
X-757940Y1127837D2*
X-751763Y1115624D1*
X-733654Y1097374D1*
X-861123D1*
X99987Y-2281554D2*
X2840D1*
X-15410Y-2275517D1*
X-21446Y-2269340D1*
X-27623Y-2257267D1*
Y-2245054D1*
X-21446Y-2232981D1*
X-15410Y-2226944D1*
X2840Y-2220767D1*
X14914D1*
X75560Y-2320769D2*
X81737Y-2332983D1*
X99846Y-2351233D1*
X-27623D1*
X99987Y2698751D2*
X2840D1*
X-15410Y2704788D1*
X-21446Y2710965D1*
X-27623Y2723038D1*
Y2735251D1*
X-21446Y2747324D1*
X-15410Y2753361D1*
X2840Y2759538D1*
X14914D1*
X69523Y2653359D2*
X75560D1*
X87773Y2647322D1*
X93810Y2641285D1*
X99846Y2629072D1*
Y2604785D1*
X93810Y2592712D1*
X87773Y2586676D1*
X75560Y2580499D1*
X63487D1*
X51273Y2586676D1*
X33164Y2598749D1*
X-27623Y2659535D1*
Y2574462D1*
X-6564251Y2031987D2*
Y1934840D1*
X-6570288Y1916590D1*
X-6576465Y1910554D1*
X-6588538Y1904377D1*
X-6600751D1*
X-6612824Y1910554D1*
X-6618861Y1916590D1*
X-6625038Y1934840D1*
Y1946914D1*
X-6512822Y2031846D2*
X-6446139D1*
X-6482499Y1983273D1*
X-6464249D1*
X-6452176Y1977237D1*
X-6446139Y1971200D1*
X-6439962Y1952950D1*
Y1940877D1*
X-6446139Y1922627D1*
X-6458212Y1910414D1*
X-6476462Y1904377D1*
X-6494712D1*
X-6512822Y1910414D1*
X-6518859Y1916590D1*
X-6525035Y1928664D1*
X-8217013Y2426269D2*
X-8314160D1*
X-8332410Y2432306D1*
X-8338446Y2438483D1*
X-8344623Y2450556D1*
Y2462769D1*
X-8338446Y2474842D1*
X-8332410Y2480879D1*
X-8314160Y2487056D1*
X-8302086D1*
X-8344623Y2326267D2*
X-8217154D1*
X-8302086Y2387054D1*
Y2295944D1*
X-8155013Y-2000249D2*
X-8252160D1*
X-8270410Y-1994212D1*
X-8276446Y-1988035D1*
X-8282623Y-1975962D1*
Y-1963749D1*
X-8276446Y-1951676D1*
X-8270410Y-1945639D1*
X-8252160Y-1939462D1*
X-8240086D1*
X-8155154Y-2112324D2*
Y-2051678D1*
X-8209763Y-2045641D1*
X-8203727Y-2051678D1*
X-8197550Y-2069928D1*
Y-2088038D1*
X-8203727Y-2106288D1*
X-8215800Y-2118501D1*
X-8234050Y-2124538D1*
X-8246123D1*
X-8264373Y-2118501D1*
X-8276586Y-2106288D1*
X-8282623Y-2088038D1*
Y-2069928D1*
X-8276586Y-2051678D1*
X-8270410Y-2045641D1*
X-8258336Y-2039465D1*
M02*
