G04 DipTrace 4.3.0.5*
G04 BottomMask.gbr*
%MOMM*%
G04 #@! TF.FileFunction,Soldermask,Bot*
G04 #@! TF.Part,Single*
%ADD54C,2.4*%
%ADD56R,2.4X2.4*%
%ADD58C,1.7*%
%ADD59C,1.3*%
%ADD60R,1.7X1.7*%
%ADD61R,1.3X1.3*%
%ADD62C,1.724*%
%ADD64C,1.76*%
%ADD66R,1.76X1.76*%
%ADD68C,1.47*%
%ADD70C,1.47*%
%ADD72C,2.08*%
%ADD74R,2.08X2.08*%
%ADD76C,3.7*%
%ADD77C,1.8*%
%ADD79R,1.8X1.8*%
%ADD81C,1.85*%
%FSLAX35Y35*%
G04*
G71*
G90*
G75*
G01*
G04 BotMask*
%LPD*%
D61*
X-2349504Y481000D3*
D59*
X-2349496Y281000D3*
D61*
X-4000503Y481000D3*
D59*
X-4000497Y281000D3*
D61*
X-3111500Y481000D3*
D59*
Y281000D3*
D61*
X-3551250Y-3682996D3*
D59*
X-3751250Y-3683004D3*
D61*
X-3551250Y1905002D3*
D59*
X-3751250Y1904998D3*
D81*
X-3556000Y-3111500D3*
X-3048000D3*
X-3556000Y-4318000D3*
X-3048000D3*
X-3556000Y-1206500D3*
X-3048000D3*
X-3556000Y-190500D3*
X-3048000D3*
X-3556000Y-2222500D3*
X-3048000D3*
X-3556000Y1270000D3*
X-3048000D3*
X-3556000Y2444750D3*
X-3048000D3*
X-3556000Y3429000D3*
X-3048000D3*
X-3556000Y4381500D3*
X-3048000D3*
D79*
X-254500Y635000D3*
D77*
X-508500D3*
X-254500Y889000D3*
X-508500D3*
X-254500Y1143000D3*
X-508500D3*
X-254500Y1397000D3*
X-508500D3*
X-254500Y1651000D3*
X-508500D3*
X-254500Y1905000D3*
X-508500D3*
X-254500Y2159000D3*
X-508500D3*
X-254500Y2413000D3*
X-508500D3*
X-254500Y2667000D3*
X-508500D3*
X-254500Y2921000D3*
X-508500D3*
X-254500Y3175000D3*
X-508500D3*
X-254500Y3429000D3*
X-508500D3*
X-254500Y3683000D3*
X-508500D3*
X-254500Y3937000D3*
X-508500D3*
X-254500Y4191000D3*
X-508500D3*
X-254500Y4445000D3*
X-508500D3*
X-254500Y4699000D3*
X-508500D3*
D79*
X-254000Y-4699000D3*
D77*
X-508000D3*
X-254000Y-4445000D3*
X-508000D3*
X-254000Y-4191000D3*
X-508000D3*
X-254000Y-3937000D3*
X-508000D3*
X-254000Y-3683000D3*
X-508000D3*
X-254000Y-3429000D3*
X-508000D3*
X-254000Y-3175000D3*
X-508000D3*
X-254000Y-2921000D3*
X-508000D3*
X-254000Y-2667000D3*
X-508000D3*
X-254000Y-2413000D3*
X-508000D3*
X-254000Y-2159000D3*
X-508000D3*
X-254000Y-1905000D3*
X-508000D3*
X-254000Y-1651000D3*
X-508000D3*
X-254000Y-1397000D3*
X-508000D3*
X-254000Y-1143000D3*
X-508000D3*
X-254000Y-889000D3*
X-508000D3*
X-254000Y-635000D3*
X-508000D3*
X-254000Y-381000D3*
X-508000D3*
X-254000Y-127000D3*
X-508000D3*
X-254000Y127000D3*
X-508000D3*
D76*
X-4222750Y2873377D3*
Y-2841623D3*
D74*
X-4000500Y-2032000D3*
D72*
X-4229500D3*
X-4458500D3*
D74*
X-4000500Y3683000D3*
D72*
X-4229500D3*
X-4458500D3*
D70*
X-3365500Y-4699000D3*
D68*
X-4127500D3*
D70*
X-3365500Y889011D3*
D68*
X-4127500Y888989D3*
D66*
X-3048001Y-3683030D3*
D64*
X-2794001Y-3683022D3*
X-2540001Y-3683015D3*
X-2286001Y-3683007D3*
X-2032001Y-3683000D3*
X-1778001Y-3682993D3*
X-1524001Y-3682985D3*
X-1270001Y-3682978D3*
X-1016001Y-3682970D3*
D66*
X-3048000Y-4699000D3*
D64*
X-2794000D3*
X-2540000D3*
X-2286000D3*
X-2032000D3*
X-1778000D3*
X-1524000D3*
X-1270000D3*
X-1016000D3*
D66*
X-3048001Y-1651030D3*
D64*
X-2794001Y-1651022D3*
X-2540001Y-1651015D3*
X-2286001Y-1651007D3*
X-2032001Y-1651000D3*
X-1778001Y-1650993D3*
X-1524001Y-1650985D3*
X-1270001Y-1650978D3*
X-1016001Y-1650970D3*
D66*
X-3048001Y-635030D3*
D64*
X-2794001Y-635022D3*
X-2540001Y-635015D3*
X-2286001Y-635007D3*
X-2032001Y-635000D3*
X-1778001Y-634993D3*
X-1524001Y-634985D3*
X-1270001Y-634978D3*
X-1016001Y-634970D3*
D66*
X-3048000Y-2667000D3*
D64*
X-2794000D3*
X-2540000D3*
X-2286000D3*
X-2032000D3*
X-1778000D3*
X-1524000D3*
X-1270000D3*
X-1016000D3*
D66*
X-3048001Y888970D3*
D64*
X-2794001Y888978D3*
X-2540001Y888985D3*
X-2286001Y888993D3*
X-2032001Y889000D3*
X-1778001Y889007D3*
X-1524001Y889015D3*
X-1270001Y889022D3*
X-1016001Y889030D3*
D66*
X-3048000Y1905000D3*
D64*
X-2794000D3*
X-2540000D3*
X-2286000D3*
X-2032000D3*
X-1778000D3*
X-1524000D3*
X-1270000D3*
X-1016000D3*
D66*
X-3048000Y2921000D3*
D64*
X-2794000D3*
X-2540000D3*
X-2286000D3*
X-2032000D3*
X-1778000D3*
X-1524000D3*
X-1270000D3*
X-1016000D3*
D66*
X-3048001Y3936970D3*
D64*
X-2794001Y3936978D3*
X-2540001Y3936985D3*
X-2286001Y3936993D3*
X-2032001Y3937000D3*
X-1778001Y3937007D3*
X-1524001Y3937015D3*
X-1270001Y3937022D3*
X-1016001Y3937030D3*
D62*
X-5270500Y4572000D3*
X-5334000Y-3048000D3*
Y-3810000D3*
X-5270500Y3238500D3*
Y3873500D3*
D60*
X-5333993Y-349257D3*
D58*
X-5079993Y-349252D3*
X-4825993Y-349248D3*
X-4571993Y-349243D3*
X-4572007Y412757D3*
X-4826007Y412752D3*
X-5080007Y412748D3*
X-5334007Y412743D3*
D56*
X-5341513Y-1214003D3*
D54*
X-4945500Y-1650991D3*
X-5341487Y-2088003D3*
D56*
X-5341500Y2215000D3*
D54*
X-4945500Y1778000D3*
X-5341500Y1341000D3*
M02*
