M48
METRIC,0000.00
T01C0.486
T02C0.559
T03C0.7
T04C0.9
T05C0.965
T06C1.0
T07C1.04
T08C1.25
T09C1.4
T10C3.3
%
T01
X-003747Y-003683
T02
X-003366Y-004699
X-004127Y-004699
X-004127Y+000889
X-003366Y+000889
T03
X-002350Y+000481
X-002349Y+000281
X-003112Y+000281
X-003112Y+000481
X-004001Y+000481
X-004000Y+000281
X-003751Y+001905
X-003551Y+001905
X-003551Y-003683
X-003751Y-003683
T04
X-005334Y-000349
X-005080Y-000349
X-004826Y-000349
X-004572Y-000349
X-004572Y+000413
X-004826Y+000413
X-005080Y+000413
X-005334Y+000413
T05
X-005271Y+004572
X-005271Y+003874
X-005271Y+003238
X-005334Y-003048
X-005334Y-003810
T06
X-003556Y-003112
X-003048Y-003112
X-003048Y-002223
X-003556Y-002223
X-003556Y-001207
X-003048Y-001207
X-003048Y-000190
X-003556Y-000190
X-003556Y+001270
X-003048Y+001270
X-003048Y+002445
X-003556Y+002445
X-003556Y+003429
X-003048Y+003429
X-003048Y+004381
X-003556Y+004381
X-000509Y+004445
X-000509Y+004191
X-000509Y+003937
X-000255Y+003937
X-000255Y+004191
X-000255Y+004445
X-000255Y+004699
X-000509Y+004699
X-000509Y+003683
X-000509Y+003429
X-000509Y+003175
X-000255Y+003175
X-000255Y+003429
X-000255Y+003683
X-000255Y+002921
X-000255Y+002667
X-000255Y+002413
X-000509Y+002413
X-000509Y+002667
X-000509Y+002921
X-000509Y+002159
X-000255Y+002159
X-000255Y+001905
X-000255Y+001651
X-000509Y+001651
X-000509Y+001905
X-000509Y+001397
X-000255Y+001397
X-000255Y+001143
X-000255Y+000889
X-000509Y+000889
X-000509Y+001143
X-000509Y+000635
X-000255Y+000635
X-000254Y+000127
X-000254Y-000127
X-000508Y-000127
X-000508Y+000127
X-000508Y-000381
X-000508Y-000635
X-000508Y-000889
X-000254Y-000889
X-000254Y-000635
X-000254Y-000381
X-000254Y-001143
X-000508Y-001143
X-000508Y-001397
X-000508Y-001651
X-000254Y-001651
X-000254Y-001397
X-000254Y-001905
X-000508Y-001905
X-000508Y-002159
X-000254Y-002159
X-000254Y-002413
X-000508Y-002413
X-000508Y-002667
X-000254Y-002667
X-000254Y-002921
X-000508Y-002921
X-000508Y-003175
X-000508Y-003429
X-000254Y-003429
X-000254Y-003175
X-000254Y-003683
X-000508Y-003683
X-000508Y-003937
X-000254Y-003937
X-000254Y-004191
X-000508Y-004191
X-000508Y-004445
X-000254Y-004445
X-000254Y-004699
X-000508Y-004699
X-003048Y-004318
X-003556Y-004318
T07
X-003048Y-003683
X-002794Y-003683
X-002540Y-003683
X-002286Y-003683
X-002032Y-003683
X-001778Y-003683
X-001524Y-003683
X-001270Y-003683
X-001016Y-003683
X-001016Y-002667
X-001270Y-002667
X-001524Y-002667
X-001778Y-002667
X-002032Y-002667
X-002286Y-002667
X-002540Y-002667
X-002794Y-002667
X-003048Y-002667
X-003048Y-001651
X-002794Y-001651
X-002540Y-001651
X-002286Y-001651
X-002032Y-001651
X-001778Y-001651
X-001524Y-001651
X-001270Y-001651
X-001016Y-001651
X-001016Y-000635
X-001270Y-000635
X-001524Y-000635
X-001778Y-000635
X-002032Y-000635
X-002286Y-000635
X-002540Y-000635
X-002794Y-000635
X-003048Y-000635
X-003048Y+000889
X-002794Y+000889
X-002540Y+000889
X-002286Y+000889
X-002032Y+000889
X-001778Y+000889
X-001524Y+000889
X-001270Y+000889
X-001016Y+000889
X-001016Y+001905
X-001270Y+001905
X-001524Y+001905
X-001778Y+001905
X-002032Y+001905
X-002286Y+001905
X-002540Y+001905
X-002794Y+001905
X-003048Y+001905
X-003048Y+002921
X-002794Y+002921
X-002540Y+002921
X-002286Y+002921
X-002032Y+002921
X-001778Y+002921
X-001524Y+002921
X-001270Y+002921
X-001016Y+002921
X-001016Y+003937
X-001270Y+003937
X-001524Y+003937
X-001778Y+003937
X-002032Y+003937
X-002286Y+003937
X-002540Y+003937
X-002794Y+003937
X-003048Y+003937
X-003048Y-004699
X-002794Y-004699
X-002540Y-004699
X-002286Y-004699
X-002032Y-004699
X-001778Y-004699
X-001524Y-004699
X-001270Y-004699
X-001016Y-004699
T08
X-004001Y-002032
X-004230Y-002032
X-004459Y-002032
X-004459Y+003683
X-004230Y+003683
X-004001Y+003683
T09
X-005342Y-001214
X-004946Y-001651
X-005341Y-002088
X-005342Y+001341
X-004946Y+001778
X-005342Y+002215
T10
X-004223Y+002873
X-004223Y-002842
T00
M30
