G04 DipTrace 4.3.0.5*
G04 TopAssembly.gbr*
%MOMM*%
G04 #@! TF.FileFunction,Drawing,Top*
G04 #@! TF.Part,Single*
%ADD10C,0.25*%
%ADD13C,0.12*%
%FSLAX35Y35*%
G04*
G71*
G90*
G75*
G01*
G04 TopAssy*
%LPD*%
X-2624500Y381000D2*
D13*
G02X-2624500Y381000I275000J0D01*
G01*
G36*
X-2102732Y677790D2*
X-2096206Y677362D1*
X-2089791Y676087D1*
X-2083598Y673985D1*
X-2077732Y671092D1*
X-2072294Y667459D1*
X-2067376Y663147D1*
X-2063064Y658230D1*
X-2059430Y652792D1*
X-2056537Y646926D1*
X-2054434Y640733D1*
X-2053158Y634318D1*
X-2052730Y627792D1*
X-2053157Y621266D1*
X-2054433Y614851D1*
X-2056535Y608658D1*
X-2059428Y602792D1*
X-2063061Y597354D1*
X-2067373Y592436D1*
X-2072290Y588124D1*
X-2077728Y584490D1*
X-2083594Y581597D1*
X-2089787Y579494D1*
X-2096202Y578218D1*
X-2102728Y577790D1*
D1*
X-2109254Y578217D1*
X-2115669Y579493D1*
X-2121862Y581595D1*
X-2127728Y584488D1*
X-2133166Y588121D1*
X-2138084Y592433D1*
X-2142396Y597350D1*
X-2146030Y602788D1*
X-2148923Y608654D1*
X-2151026Y614847D1*
X-2152302Y621262D1*
X-2152730Y627788D1*
X-2152302Y634314D1*
X-2151027Y640729D1*
X-2148925Y646922D1*
X-2146032Y652788D1*
X-2142399Y658226D1*
X-2138087Y663144D1*
X-2133170Y667456D1*
X-2127732Y671090D1*
X-2121866Y673983D1*
X-2115673Y676086D1*
X-2109258Y677362D1*
X-2102732Y677790D1*
D1*
G37*
X-4275500Y381000D2*
D13*
G02X-4275500Y381000I275000J0D01*
G01*
G36*
X-3753728Y677786D2*
X-3747201Y677359D1*
X-3740787Y676083D1*
X-3734593Y673981D1*
X-3728727Y671088D1*
X-3723289Y667455D1*
X-3718372Y663143D1*
X-3714059Y658225D1*
X-3710426Y652787D1*
X-3707533Y646922D1*
X-3705430Y640729D1*
X-3704154Y634314D1*
X-3703726Y627788D1*
X-3704154Y621261D1*
X-3705430Y614847D1*
X-3707532Y608653D1*
X-3710424Y602787D1*
X-3714058Y597349D1*
X-3718370Y592432D1*
X-3723287Y588119D1*
X-3728725Y584486D1*
X-3734591Y581593D1*
X-3740784Y579490D1*
X-3747199Y578214D1*
X-3753725Y577786D1*
D1*
X-3760251Y578214D1*
X-3766666Y579490D1*
X-3772859Y581592D1*
X-3778725Y584484D1*
X-3784163Y588118D1*
X-3789081Y592430D1*
X-3793393Y597347D1*
X-3797027Y602785D1*
X-3799920Y608651D1*
X-3802022Y614844D1*
X-3803298Y621259D1*
X-3803726Y627785D1*
X-3803299Y634311D1*
X-3802023Y640726D1*
X-3799921Y646919D1*
X-3797028Y652785D1*
X-3793395Y658223D1*
X-3789083Y663141D1*
X-3784165Y667453D1*
X-3778727Y671087D1*
X-3772862Y673980D1*
X-3766669Y676082D1*
X-3760254Y677358D1*
X-3753728Y677786D1*
D1*
G37*
X-3386500Y381000D2*
D13*
G02X-3386500Y381000I275000J0D01*
G01*
G36*
X-2864720Y677780D2*
X-2858194Y677352D1*
X-2851779Y676076D1*
X-2845586Y673974D1*
X-2839720Y671081D1*
X-2834282Y667448D1*
X-2829365Y663135D1*
X-2825052Y658218D1*
X-2821419Y652780D1*
X-2818526Y646914D1*
X-2816424Y640721D1*
X-2815148Y634306D1*
X-2814720Y627780D1*
X-2815148Y621254D1*
X-2816424Y614839D1*
X-2818526Y608646D1*
X-2821419Y602780D1*
X-2825052Y597342D1*
X-2829365Y592425D1*
X-2834282Y588112D1*
X-2839720Y584479D1*
X-2845586Y581586D1*
X-2851779Y579484D1*
X-2858194Y578208D1*
X-2864720Y577780D1*
D1*
X-2871246Y578208D1*
X-2877661Y579484D1*
X-2883854Y581586D1*
X-2889720Y584479D1*
X-2895158Y588112D1*
X-2900075Y592425D1*
X-2904388Y597342D1*
X-2908021Y602780D1*
X-2910914Y608646D1*
X-2913016Y614839D1*
X-2914292Y621254D1*
X-2914720Y627780D1*
X-2914292Y634306D1*
X-2913016Y640721D1*
X-2910914Y646914D1*
X-2908021Y652780D1*
X-2904388Y658218D1*
X-2900075Y663135D1*
X-2895158Y667448D1*
X-2889720Y671081D1*
X-2883854Y673974D1*
X-2877661Y676076D1*
X-2871246Y677352D1*
X-2864720Y677780D1*
D1*
G37*
X-3926250Y-3683000D2*
D13*
G02X-3926250Y-3683000I275000J0D01*
G01*
G36*
X-3354461Y-3929769D2*
X-3354888Y-3936295D1*
X-3356164Y-3942710D1*
X-3358266Y-3948903D1*
X-3361159Y-3954769D1*
X-3364792Y-3960208D1*
X-3369104Y-3965125D1*
X-3374021Y-3969437D1*
X-3379459Y-3973071D1*
X-3385325Y-3975964D1*
X-3391518Y-3978067D1*
X-3397933Y-3979343D1*
X-3404459Y-3979771D1*
X-3410985Y-3979343D1*
X-3417400Y-3978068D1*
X-3423593Y-3975966D1*
X-3429459Y-3973073D1*
X-3434898Y-3969440D1*
X-3439815Y-3965128D1*
X-3444127Y-3960210D1*
X-3447761Y-3954773D1*
X-3450654Y-3948907D1*
X-3452757Y-3942714D1*
X-3454033Y-3936299D1*
X-3454461Y-3929773D1*
D1*
X-3454033Y-3923246D1*
X-3452758Y-3916832D1*
X-3450656Y-3910638D1*
X-3447763Y-3904773D1*
X-3444130Y-3899334D1*
X-3439818Y-3894417D1*
X-3434900Y-3890104D1*
X-3429463Y-3886471D1*
X-3423597Y-3883578D1*
X-3417404Y-3881475D1*
X-3410989Y-3880199D1*
X-3404463Y-3879771D1*
X-3397936Y-3880198D1*
X-3391522Y-3881474D1*
X-3385328Y-3883576D1*
X-3379463Y-3886469D1*
X-3374024Y-3890102D1*
X-3369107Y-3894414D1*
X-3364794Y-3899331D1*
X-3361161Y-3904769D1*
X-3358268Y-3910635D1*
X-3356165Y-3916828D1*
X-3354889Y-3923243D1*
X-3354461Y-3929769D1*
D1*
G37*
X-3926250Y1905000D2*
D13*
G02X-3926250Y1905000I275000J0D01*
G01*
G36*
X-3354465Y1658227D2*
X-3354892Y1651700D1*
X-3356168Y1645286D1*
X-3358270Y1639092D1*
X-3361163Y1633226D1*
X-3364796Y1627788D1*
X-3369108Y1622871D1*
X-3374026Y1618558D1*
X-3379464Y1614925D1*
X-3385329Y1612032D1*
X-3391523Y1609929D1*
X-3397937Y1608653D1*
X-3404463Y1608225D1*
X-3410990Y1608653D1*
X-3417404Y1609929D1*
X-3423598Y1612031D1*
X-3429464Y1614924D1*
X-3434902Y1618557D1*
X-3439819Y1622869D1*
X-3444132Y1627786D1*
X-3447765Y1633224D1*
X-3450658Y1639090D1*
X-3452761Y1645283D1*
X-3454037Y1651698D1*
X-3454465Y1658224D1*
D1*
X-3454037Y1664751D1*
X-3452761Y1671165D1*
X-3450659Y1677359D1*
X-3447766Y1683224D1*
X-3444133Y1688663D1*
X-3439821Y1693580D1*
X-3434904Y1697892D1*
X-3429466Y1701526D1*
X-3423600Y1704419D1*
X-3417407Y1706521D1*
X-3410992Y1707798D1*
X-3404466Y1708225D1*
X-3397939Y1707798D1*
X-3391525Y1706522D1*
X-3385331Y1704420D1*
X-3379466Y1701527D1*
X-3374027Y1697894D1*
X-3369110Y1693582D1*
X-3364798Y1688664D1*
X-3361164Y1683226D1*
X-3358271Y1677361D1*
X-3356169Y1671167D1*
X-3354892Y1664753D1*
X-3354465Y1658227D1*
D1*
G37*
X-3839500Y-2151500D2*
D13*
X-4619500D1*
Y-1851500D1*
X-3939500D1*
X-3839500Y-1951500D1*
Y-2151500D1*
Y3563500D2*
X-4619500D1*
Y3863500D1*
X-3939500D1*
X-3839500Y3763500D1*
Y3563500D1*
X-3132005Y-3533032D2*
X-932005Y-3532968D1*
X-931996Y-3832968D1*
X-3131996Y-3833032D1*
X-3131999Y-3733032D1*
X-3032001Y-3683029D1*
X-3132002Y-3633032D1*
X-3132005Y-3533032D1*
X-3132000Y-4549000D2*
X-932000D1*
Y-4849000D1*
X-3132000D1*
Y-4749000D1*
X-3032000Y-4699000D1*
X-3132000Y-4649000D1*
Y-4549000D1*
X-3132005Y-1501032D2*
X-932005Y-1500968D1*
X-931996Y-1800968D1*
X-3131996Y-1801032D1*
X-3131999Y-1701032D1*
X-3032001Y-1651029D1*
X-3132002Y-1601032D1*
X-3132005Y-1501032D1*
Y-485032D2*
X-932005Y-484968D1*
X-931996Y-784968D1*
X-3131996Y-785032D1*
X-3131999Y-685032D1*
X-3032001Y-635029D1*
X-3132002Y-585032D1*
X-3132005Y-485032D1*
X-3132000Y-2517000D2*
X-932000D1*
Y-2817000D1*
X-3132000D1*
Y-2717000D1*
X-3032000Y-2667000D1*
X-3132000Y-2617000D1*
Y-2517000D1*
X-3132005Y1038968D2*
X-932005Y1039032D1*
X-931996Y739032D1*
X-3131996Y738968D1*
X-3131999Y838968D1*
X-3032001Y888971D1*
X-3132002Y938968D1*
X-3132005Y1038968D1*
X-3132000Y2055000D2*
X-932000D1*
Y1755000D1*
X-3132000D1*
Y1855000D1*
X-3032000Y1905000D1*
X-3132000Y1955000D1*
Y2055000D1*
Y3071000D2*
X-932000D1*
Y2771000D1*
X-3132000D1*
Y2871000D1*
X-3032000Y2921000D1*
X-3132000Y2971000D1*
Y3071000D1*
X-3132005Y4086968D2*
X-932005Y4087032D1*
X-931996Y3787032D1*
X-3131996Y3786968D1*
X-3131999Y3886968D1*
X-3032001Y3936971D1*
X-3132002Y3986968D1*
X-3132005Y4086968D1*
X-317500Y-2159000D2*
D10*
G02X-317500Y-2159000I63500J0D01*
G01*
Y-1905000D2*
G02X-317500Y-1905000I63500J0D01*
G01*
Y-1651000D2*
G02X-317500Y-1651000I63500J0D01*
G01*
Y-1397000D2*
G02X-317500Y-1397000I63500J0D01*
G01*
Y-1143000D2*
G02X-317500Y-1143000I63500J0D01*
G01*
X-571500Y-2159000D2*
G02X-571500Y-2159000I63500J0D01*
G01*
Y-1905000D2*
G02X-571500Y-1905000I63500J0D01*
G01*
Y-1651000D2*
G02X-571500Y-1651000I63500J0D01*
G01*
Y-1397000D2*
G02X-571500Y-1397000I63500J0D01*
G01*
Y-1143000D2*
G02X-571500Y-1143000I63500J0D01*
G01*
X-317500Y-889000D2*
G02X-317500Y-889000I63500J0D01*
G01*
Y-635000D2*
G02X-317500Y-635000I63500J0D01*
G01*
Y-381000D2*
G02X-317500Y-381000I63500J0D01*
G01*
Y-127000D2*
G02X-317500Y-127000I63500J0D01*
G01*
Y127000D2*
G02X-317500Y127000I63500J0D01*
G01*
X-571500Y-889000D2*
G02X-571500Y-889000I63500J0D01*
G01*
Y-635000D2*
G02X-571500Y-635000I63500J0D01*
G01*
Y-381000D2*
G02X-571500Y-381000I63500J0D01*
G01*
Y-127000D2*
G02X-571500Y-127000I63500J0D01*
G01*
Y127000D2*
G02X-571500Y127000I63500J0D01*
G01*
X-317500Y-3429000D2*
G02X-317500Y-3429000I63500J0D01*
G01*
Y-3175000D2*
G02X-317500Y-3175000I63500J0D01*
G01*
Y-2921000D2*
G02X-317500Y-2921000I63500J0D01*
G01*
Y-2667000D2*
G02X-317500Y-2667000I63500J0D01*
G01*
Y-2413000D2*
G02X-317500Y-2413000I63500J0D01*
G01*
X-571500Y-3429000D2*
G02X-571500Y-3429000I63500J0D01*
G01*
Y-3175000D2*
G02X-571500Y-3175000I63500J0D01*
G01*
Y-2921000D2*
G02X-571500Y-2921000I63500J0D01*
G01*
Y-2667000D2*
G02X-571500Y-2667000I63500J0D01*
G01*
Y-2413000D2*
G02X-571500Y-2413000I63500J0D01*
G01*
X-317500Y-4699000D2*
G02X-317500Y-4699000I63500J0D01*
G01*
Y-4445000D2*
G02X-317500Y-4445000I63500J0D01*
G01*
Y-4191000D2*
G02X-317500Y-4191000I63500J0D01*
G01*
Y-3937000D2*
G02X-317500Y-3937000I63500J0D01*
G01*
Y-3683000D2*
G02X-317500Y-3683000I63500J0D01*
G01*
X-571500Y-4699000D2*
G02X-571500Y-4699000I63500J0D01*
G01*
Y-4445000D2*
G02X-571500Y-4445000I63500J0D01*
G01*
Y-4191000D2*
G02X-571500Y-4191000I63500J0D01*
G01*
Y-3937000D2*
G02X-571500Y-3937000I63500J0D01*
G01*
Y-3683000D2*
G02X-571500Y-3683000I63500J0D01*
G01*
X-127000Y-4826000D2*
D13*
Y254000D1*
X-635000D1*
Y-4826000D1*
X-127000D1*
X-444500Y63500D2*
D10*
Y190500D1*
X-571500D1*
Y63500D1*
X-444500D1*
X-317500Y2413000D2*
G02X-317500Y2413000I63500J0D01*
G01*
Y2667000D2*
G02X-317500Y2667000I63500J0D01*
G01*
Y2921000D2*
G02X-317500Y2921000I63500J0D01*
G01*
Y3175000D2*
G02X-317500Y3175000I63500J0D01*
G01*
Y3429000D2*
G02X-317500Y3429000I63500J0D01*
G01*
X-571500Y2413000D2*
G02X-571500Y2413000I63500J0D01*
G01*
Y2667000D2*
G02X-571500Y2667000I63500J0D01*
G01*
Y2921000D2*
G02X-571500Y2921000I63500J0D01*
G01*
Y3175000D2*
G02X-571500Y3175000I63500J0D01*
G01*
Y3429000D2*
G02X-571500Y3429000I63500J0D01*
G01*
X-317500Y3683000D2*
G02X-317500Y3683000I63500J0D01*
G01*
Y3937000D2*
G02X-317500Y3937000I63500J0D01*
G01*
Y4191000D2*
G02X-317500Y4191000I63500J0D01*
G01*
Y4445000D2*
G02X-317500Y4445000I63500J0D01*
G01*
Y4699000D2*
G02X-317500Y4699000I63500J0D01*
G01*
X-571500Y3683000D2*
G02X-571500Y3683000I63500J0D01*
G01*
Y3937000D2*
G02X-571500Y3937000I63500J0D01*
G01*
Y4191000D2*
G02X-571500Y4191000I63500J0D01*
G01*
Y4445000D2*
G02X-571500Y4445000I63500J0D01*
G01*
Y4699000D2*
G02X-571500Y4699000I63500J0D01*
G01*
X-317500Y1143000D2*
G02X-317500Y1143000I63500J0D01*
G01*
Y1397000D2*
G02X-317500Y1397000I63500J0D01*
G01*
Y1651000D2*
G02X-317500Y1651000I63500J0D01*
G01*
Y1905000D2*
G02X-317500Y1905000I63500J0D01*
G01*
Y2159000D2*
G02X-317500Y2159000I63500J0D01*
G01*
X-571500Y1143000D2*
G02X-571500Y1143000I63500J0D01*
G01*
Y1397000D2*
G02X-571500Y1397000I63500J0D01*
G01*
Y1651000D2*
G02X-571500Y1651000I63500J0D01*
G01*
Y1905000D2*
G02X-571500Y1905000I63500J0D01*
G01*
Y2159000D2*
G02X-571500Y2159000I63500J0D01*
G01*
X-317500Y635000D2*
G02X-317500Y635000I63500J0D01*
G01*
Y889000D2*
G02X-317500Y889000I63500J0D01*
G01*
X-571500Y635000D2*
G02X-571500Y635000I63500J0D01*
G01*
Y889000D2*
G02X-571500Y889000I63500J0D01*
G01*
X-127000Y508000D2*
D13*
Y4826000D1*
X-635000D1*
Y508000D1*
X-127000D1*
X-444500Y4635500D2*
D10*
Y4762500D1*
X-571500D1*
Y4635500D1*
X-444500D1*
X-5634500Y-1651012D2*
D13*
X-5634512Y-1251012D1*
X-5532512Y-1251009D1*
X-5532522Y-896009D1*
X-5136522Y-895997D1*
X-5136478Y-2405997D1*
X-5532478Y-2406009D1*
X-5532488Y-2051009D1*
X-5634488Y-2051012D1*
X-5634500Y-1651012D1*
Y1778000D2*
Y2178000D1*
X-5532500D1*
Y2533000D1*
X-5136500D1*
Y1023000D1*
X-5532500D1*
Y1378000D1*
X-5634500D1*
Y1778000D1*
M02*
