G04 DipTrace 4.3.0.5*
G04 TopDimension.gbr*
%MOMM*%
G04 #@! TF.FileFunction,Drawing,Top*
G04 #@! TF.Part,Single*
%ADD15C,0.035*%
%ADD86C,0.15686*%
%ADD88C,0.23529*%
%FSLAX35Y35*%
G04*
G71*
G90*
G75*
G01*
G04 TopDimension*
%LPD*%
X-8000000Y5000000D2*
D15*
X-8863000D1*
X-8000000Y-5000000D2*
X-8863000D1*
X-8763000Y0D2*
Y4800000D1*
G36*
Y5000000D2*
X-8723000Y4800000D1*
X-8803000D1*
X-8763000Y5000000D1*
G37*
Y0D2*
D15*
Y-4800000D1*
G36*
Y-5000000D2*
X-8803000Y-4800000D1*
X-8723000D1*
X-8763000Y-5000000D1*
G37*
X-8000000Y5000000D2*
D15*
Y5815000D1*
X6877Y5000000D2*
Y5815000D1*
X-3996562Y5715000D2*
X-7800000D1*
G36*
X-8000000D2*
X-7800000Y5755000D1*
Y5675000D1*
X-8000000Y5715000D1*
G37*
X-3996562D2*
D15*
X-193123D1*
G36*
X6877D2*
X-193123Y5675000D1*
Y5755000D1*
X6877Y5715000D1*
G37*
X-8000000Y5000000D2*
D15*
Y5384000D1*
X-7493000Y4763127D2*
Y5384000D1*
X-7746500Y5334000D2*
X-7900000D1*
G36*
X-8000000D2*
X-7900000Y5354000D1*
Y5314000D1*
X-8000000Y5334000D1*
G37*
X-7746500D2*
D15*
X-7593000D1*
G36*
X-7493000D2*
X-7593000Y5314000D1*
Y5354000D1*
X-7493000Y5334000D1*
G37*
X-6709375D2*
D15*
X-7493000D1*
X0Y5000000D2*
Y5257000D1*
X-7493000Y4763127D2*
Y5257000D1*
X-3746500Y5207000D2*
X-100000D1*
G36*
X0D2*
X-100000Y5187000D1*
Y5227000D1*
X0Y5207000D1*
G37*
X-3746500D2*
D15*
X-7393000D1*
G36*
X-7493000D2*
X-7393000Y5227000D1*
Y5187000D1*
X-7493000Y5207000D1*
G37*
X-8933342Y-437330D2*
D88*
X-8940755Y-422674D1*
X-8962486Y-400774D1*
X-8809523D1*
X-8962486Y-309915D2*
X-8955242Y-331815D1*
X-8933342Y-346472D1*
X-8896955Y-353715D1*
X-8875055D1*
X-8838667Y-346472D1*
X-8816767Y-331815D1*
X-8809523Y-309915D1*
Y-295428D1*
X-8816767Y-273528D1*
X-8838667Y-259040D1*
X-8875055Y-251628D1*
X-8896955D1*
X-8933342Y-259040D1*
X-8955242Y-273528D1*
X-8962486Y-295428D1*
Y-309915D1*
X-8933342Y-259040D2*
X-8838667Y-346472D1*
X-8962486Y-160769D2*
X-8955242Y-182669D1*
X-8933342Y-197325D1*
X-8896955Y-204569D1*
X-8875055D1*
X-8838667Y-197325D1*
X-8816767Y-182669D1*
X-8809523Y-160769D1*
Y-146281D1*
X-8816767Y-124381D1*
X-8838667Y-109894D1*
X-8875055Y-102481D1*
X-8896955D1*
X-8933342Y-109894D1*
X-8955242Y-124381D1*
X-8962486Y-146281D1*
Y-160769D1*
X-8933342Y-109894D2*
X-8838667Y-197325D1*
X-8911611Y92713D2*
X-8809523D1*
X-8882467D2*
X-8904367Y114613D1*
X-8911611Y129269D1*
Y151001D1*
X-8904367Y165657D1*
X-8882467Y172901D1*
X-8809523D1*
X-8882467D2*
X-8904367Y194801D1*
X-8911611Y209457D1*
Y231189D1*
X-8904367Y245845D1*
X-8882467Y253257D1*
X-8809523D1*
X-8911611Y300316D2*
X-8809523D1*
X-8882467D2*
X-8904367Y322216D1*
X-8911611Y336872D1*
Y358604D1*
X-8904367Y373260D1*
X-8882467Y380504D1*
X-8809523D1*
X-8882467D2*
X-8904367Y402404D1*
X-8911611Y417060D1*
Y438791D1*
X-8904367Y453448D1*
X-8882467Y460860D1*
X-8809523D1*
X-4602862Y5914486D2*
X-4624593Y5907242D1*
X-4632006Y5892755D1*
Y5878098D1*
X-4624593Y5863611D1*
X-4610106Y5856198D1*
X-4580962Y5848955D1*
X-4559062Y5841711D1*
X-4544574Y5827055D1*
X-4537330Y5812567D1*
Y5790667D1*
X-4544574Y5776179D1*
X-4551818Y5768767D1*
X-4573718Y5761523D1*
X-4602862D1*
X-4624593Y5768767D1*
X-4632006Y5776179D1*
X-4639250Y5790667D1*
Y5812567D1*
X-4632006Y5827055D1*
X-4617350Y5841711D1*
X-4595618Y5848955D1*
X-4566474Y5856198D1*
X-4551818Y5863611D1*
X-4544574Y5878098D1*
Y5892755D1*
X-4551818Y5907242D1*
X-4573718Y5914486D1*
X-4602862D1*
X-4446472D2*
X-4468372Y5907242D1*
X-4483028Y5885342D1*
X-4490272Y5848955D1*
Y5827055D1*
X-4483028Y5790667D1*
X-4468372Y5768767D1*
X-4446472Y5761523D1*
X-4431984D1*
X-4410084Y5768767D1*
X-4395596Y5790667D1*
X-4388184Y5827055D1*
Y5848955D1*
X-4395596Y5885342D1*
X-4410084Y5907242D1*
X-4431984Y5914486D1*
X-4446472D1*
X-4395596Y5885342D2*
X-4483028Y5790667D1*
X-4333881Y5776179D2*
X-4341125Y5768767D1*
X-4333881Y5761523D1*
X-4326469Y5768767D1*
X-4333881Y5776179D1*
X-4235610Y5914486D2*
X-4257510Y5907242D1*
X-4272166Y5885342D1*
X-4279410Y5848955D1*
Y5827055D1*
X-4272166Y5790667D1*
X-4257510Y5768767D1*
X-4235610Y5761523D1*
X-4221122D1*
X-4199222Y5768767D1*
X-4184735Y5790667D1*
X-4177322Y5827055D1*
Y5848955D1*
X-4184735Y5885342D1*
X-4199222Y5907242D1*
X-4221122Y5914486D1*
X-4235610D1*
X-4184735Y5885342D2*
X-4272166Y5790667D1*
X-4042832Y5892755D2*
X-4050076Y5907242D1*
X-4071976Y5914486D1*
X-4086463D1*
X-4108363Y5907242D1*
X-4123020Y5885342D1*
X-4130263Y5848955D1*
Y5812567D1*
X-4123020Y5783423D1*
X-4108363Y5768767D1*
X-4086463Y5761523D1*
X-4079220D1*
X-4057488Y5768767D1*
X-4042832Y5783423D1*
X-4035588Y5805323D1*
Y5812567D1*
X-4042832Y5834467D1*
X-4057488Y5848955D1*
X-4079220Y5856198D1*
X-4086463D1*
X-4108363Y5848955D1*
X-4123020Y5834467D1*
X-4130263Y5812567D1*
X-3893685Y5863611D2*
X-3901098Y5841711D1*
X-3915585Y5827055D1*
X-3937485Y5819811D1*
X-3944729D1*
X-3966629Y5827055D1*
X-3981117Y5841711D1*
X-3988529Y5863611D1*
Y5870855D1*
X-3981117Y5892755D1*
X-3966629Y5907242D1*
X-3944729Y5914486D1*
X-3937485D1*
X-3915585Y5907242D1*
X-3901098Y5892755D1*
X-3893685Y5863611D1*
Y5827055D1*
X-3901098Y5790667D1*
X-3915585Y5768767D1*
X-3937485Y5761523D1*
X-3951973D1*
X-3973873Y5768767D1*
X-3981117Y5783423D1*
X-3698491Y5863611D2*
Y5761523D1*
Y5834467D2*
X-3676591Y5856367D1*
X-3661935Y5863611D1*
X-3640203D1*
X-3625547Y5856367D1*
X-3618303Y5834467D1*
Y5761523D1*
Y5834467D2*
X-3596403Y5856367D1*
X-3581747Y5863611D1*
X-3560015D1*
X-3545359Y5856367D1*
X-3537947Y5834467D1*
Y5761523D1*
X-3490888Y5863611D2*
Y5761523D1*
Y5834467D2*
X-3468988Y5856367D1*
X-3454332Y5863611D1*
X-3432601D1*
X-3417944Y5856367D1*
X-3410701Y5834467D1*
Y5761523D1*
Y5834467D2*
X-3388801Y5856367D1*
X-3374144Y5863611D1*
X-3352413D1*
X-3337757Y5856367D1*
X-3330344Y5834467D1*
Y5761523D1*
X-7311183Y5466991D2*
D86*
X-7359700D1*
X-7364529Y5423303D1*
X-7359700Y5428132D1*
X-7345100Y5433074D1*
X-7330612D1*
X-7316012Y5428132D1*
X-7306241Y5418474D1*
X-7301412Y5403874D1*
Y5394215D1*
X-7306241Y5379615D1*
X-7316012Y5369845D1*
X-7330612Y5365015D1*
X-7345100D1*
X-7359700Y5369845D1*
X-7364529Y5374786D1*
X-7369471Y5384445D1*
X-7265210Y5374786D2*
X-7270040Y5369845D1*
X-7265210Y5365015D1*
X-7260269Y5369845D1*
X-7265210Y5374786D1*
X-7199696Y5466991D2*
X-7214296Y5462161D1*
X-7224067Y5447561D1*
X-7228896Y5423303D1*
Y5408703D1*
X-7224067Y5384445D1*
X-7214296Y5369845D1*
X-7199696Y5365015D1*
X-7190038D1*
X-7175438Y5369845D1*
X-7165779Y5384445D1*
X-7160838Y5408703D1*
Y5423303D1*
X-7165779Y5447561D1*
X-7175438Y5462161D1*
X-7190038Y5466991D1*
X-7199696D1*
X-7165779Y5447561D2*
X-7224067Y5384445D1*
X-7110036Y5365015D2*
X-7061407Y5466991D1*
X-7129465D1*
X-6931277Y5433074D2*
Y5365015D1*
Y5413645D2*
X-6916677Y5428245D1*
X-6906906Y5433074D1*
X-6892419D1*
X-6882648Y5428245D1*
X-6877819Y5413645D1*
Y5365015D1*
Y5413645D2*
X-6863219Y5428245D1*
X-6853448Y5433074D1*
X-6838960D1*
X-6829189Y5428245D1*
X-6824248Y5413645D1*
Y5365015D1*
X-6792875Y5433074D2*
Y5365015D1*
Y5413645D2*
X-6778275Y5428245D1*
X-6768505Y5433074D1*
X-6754017D1*
X-6744246Y5428245D1*
X-6739417Y5413645D1*
Y5365015D1*
Y5413645D2*
X-6724817Y5428245D1*
X-6715046Y5433074D1*
X-6700558D1*
X-6690788Y5428245D1*
X-6685846Y5413645D1*
Y5365015D1*
X-4110755Y5238015D2*
X-4062126Y5339991D1*
X-4130185D1*
X-3982124Y5238015D2*
Y5339991D1*
X-4030754Y5272045D1*
X-3957866D1*
X-3921664Y5247786D2*
X-3926493Y5242845D1*
X-3921664Y5238015D1*
X-3916723Y5242845D1*
X-3921664Y5247786D1*
X-3822121Y5306074D2*
X-3827062Y5291474D1*
X-3836721Y5281703D1*
X-3851321Y5276874D1*
X-3856150D1*
X-3870750Y5281703D1*
X-3880409Y5291474D1*
X-3885350Y5306074D1*
Y5310903D1*
X-3880409Y5325503D1*
X-3870750Y5335161D1*
X-3856150Y5339991D1*
X-3851321D1*
X-3836721Y5335161D1*
X-3827062Y5325503D1*
X-3822121Y5306074D1*
Y5281703D1*
X-3827062Y5257445D1*
X-3836721Y5242845D1*
X-3851321Y5238015D1*
X-3860979D1*
X-3875579Y5242845D1*
X-3880409Y5252615D1*
X-3780978Y5339991D2*
X-3727631D1*
X-3756719Y5301132D1*
X-3742119D1*
X-3732461Y5296303D1*
X-3727631Y5291474D1*
X-3722690Y5276874D1*
Y5267215D1*
X-3727631Y5252615D1*
X-3737290Y5242845D1*
X-3751890Y5238015D1*
X-3766490D1*
X-3780978Y5242845D1*
X-3785807Y5247786D1*
X-3790748Y5257445D1*
X-3592560Y5306074D2*
Y5238015D1*
Y5286645D2*
X-3577960Y5301245D1*
X-3568189Y5306074D1*
X-3553702D1*
X-3543931Y5301245D1*
X-3539102Y5286645D1*
Y5238015D1*
Y5286645D2*
X-3524502Y5301245D1*
X-3514731Y5306074D1*
X-3500243D1*
X-3490472Y5301245D1*
X-3485531Y5286645D1*
Y5238015D1*
X-3454158Y5306074D2*
Y5238015D1*
Y5286645D2*
X-3439558Y5301245D1*
X-3429788Y5306074D1*
X-3415300D1*
X-3405529Y5301245D1*
X-3400700Y5286645D1*
Y5238015D1*
Y5286645D2*
X-3386100Y5301245D1*
X-3376329Y5306074D1*
X-3361841D1*
X-3352071Y5301245D1*
X-3347129Y5286645D1*
Y5238015D1*
M02*
