G04 DipTrace 4.3.0.5*
G04 1 - Top.gbr*
%MOMM*%
G04 #@! TF.FileFunction,Copper,L1,Top*
G04 #@! TF.Part,Single*
%AMOUTLINE0*
4,1,28,
0.16,-1.035,
-0.16,-1.035,
-0.204,-1.02921,
-0.245,-1.01222,
-0.28021,-0.98521,
-0.30722,-0.95,
-0.32421,-0.909,
-0.33,-0.865,
-0.33,0.865,
-0.32421,0.909,
-0.30722,0.95,
-0.28021,0.98521,
-0.245,1.01222,
-0.204,1.02921,
-0.16,1.035,
0.16,1.035,
0.204,1.02921,
0.245,1.01222,
0.28021,0.98521,
0.30722,0.95,
0.32421,0.909,
0.33,0.865,
0.33,-0.865,
0.32421,-0.909,
0.30722,-0.95,
0.28021,-0.98521,
0.245,-1.01222,
0.204,-1.02921,
0.16,-1.035,
0*%
%AMOUTLINE3*
4,1,28,
-0.16,1.035,
0.16,1.035,
0.204,1.02921,
0.245,1.01222,
0.28021,0.98521,
0.30722,0.95,
0.32421,0.909,
0.33,0.865,
0.33,-0.865,
0.32421,-0.909,
0.30722,-0.95,
0.28021,-0.98521,
0.245,-1.01222,
0.204,-1.02921,
0.16,-1.035,
-0.16,-1.035,
-0.204,-1.02921,
-0.245,-1.01222,
-0.28021,-0.98521,
-0.30722,-0.95,
-0.32421,-0.909,
-0.33,-0.865,
-0.33,0.865,
-0.32421,0.909,
-0.30722,0.95,
-0.28021,0.98521,
-0.245,1.01222,
-0.204,1.02921,
-0.16,1.035,
0*%
%AMOUTLINE6*
4,1,28,
1.035,0.16,
1.035,-0.16,
1.02921,-0.204,
1.01222,-0.245,
0.98521,-0.28021,
0.95,-0.30722,
0.909,-0.32421,
0.865,-0.33,
-0.865,-0.33,
-0.909,-0.32421,
-0.95,-0.30722,
-0.98521,-0.28021,
-1.01222,-0.245,
-1.02921,-0.204,
-1.035,-0.16,
-1.035,0.16,
-1.02921,0.204,
-1.01222,0.245,
-0.98521,0.28021,
-0.95,0.30722,
-0.909,0.32421,
-0.865,0.33,
0.865,0.33,
0.909,0.32421,
0.95,0.30722,
0.98521,0.28021,
1.01222,0.245,
1.02921,0.204,
1.035,0.16,
0*%
%AMOUTLINE9*
4,1,28,
-1.035,-0.16,
-1.035,0.16,
-1.02921,0.204,
-1.01222,0.245,
-0.98521,0.28021,
-0.95,0.30722,
-0.909,0.32421,
-0.865,0.33,
0.865,0.33,
0.909,0.32421,
0.95,0.30722,
0.98521,0.28021,
1.01222,0.245,
1.02921,0.204,
1.035,0.16,
1.035,-0.16,
1.02921,-0.204,
1.01222,-0.245,
0.98521,-0.28021,
0.95,-0.30722,
0.909,-0.32421,
0.865,-0.33,
-0.865,-0.33,
-0.909,-0.32421,
-0.95,-0.30722,
-0.98521,-0.28021,
-1.01222,-0.245,
-1.02921,-0.204,
-1.035,-0.16,
0*%
G04 #@! TA.AperFunction,Conductor*
%ADD10C,0.25*%
%ADD16C,1.5*%
%ADD17C,1.2*%
%ADD18C,1.0*%
%ADD19C,0.44*%
%ADD20C,0.66*%
%ADD21C,0.5*%
G04 #@! TA.AperFunction,CopperBalancing*
%ADD23C,0.381*%
G04 #@! TA.AperFunction,ComponentPad*
%ADD27R,1.6X1.6*%
%ADD28C,1.6*%
%ADD29R,1.69X1.69*%
%ADD30C,1.69*%
%ADD31R,1.7X1.7*%
%ADD32C,1.7*%
%ADD33C,1.5*%
%ADD34R,1.5X1.5*%
%ADD35C,1.524*%
%ADD36C,1.524*%
%ADD37C,3.5*%
%ADD38R,3.5X3.5*%
%ADD39R,2.0X3.0*%
%ADD40R,3.08X3.08*%
%ADD41C,3.08*%
%ADD42R,3.1X3.1*%
%ADD43C,3.1*%
%ADD44C,1.1*%
%ADD45C,2.0*%
%ADD46C,1.65*%
%ADD47C,4.5*%
%ADD49R,1.1X1.1*%
%ADD50R,2.0X2.0*%
%ADD51C,2.0*%
%ADD52C,1.27*%
%ADD53C,1.27*%
G04 #@! TA.AperFunction,ViaPad*
%ADD54C,1.016*%
%ADD120OUTLINE0*%
%ADD123OUTLINE3*%
%ADD126OUTLINE6*%
%ADD129OUTLINE9*%
%FSLAX35Y35*%
G04*
G71*
G90*
G75*
G01*
G04 Top*
%LPD*%
X2918880Y-563753D2*
D16*
X4516247D1*
X4572000Y-508000D1*
X4617503D1*
X2172753Y-563753D2*
X2918880D1*
X1270000D2*
X1918753D1*
X2172753D1*
X4617503Y-762000D2*
D10*
Y-508000D1*
X1918753Y-563753D2*
D3*
X1270000D2*
D16*
Y-825500D1*
X2918880Y-563753D2*
Y-823380D1*
X2921000Y-825500D1*
X1270000Y-563753D2*
D17*
X817753D1*
X635000Y-381000D1*
Y444500D1*
Y698500D2*
Y1905000D1*
Y4318000D1*
Y2857500D2*
D10*
Y3111500D1*
Y4064000D1*
Y2857500D2*
D17*
Y698500D1*
Y1651000D1*
Y1905000D1*
Y444500D2*
Y698500D1*
X-3143250Y1746250D2*
D19*
X-1936750D1*
X-1301750Y2381250D1*
X-3365500Y2401500D2*
X-2846000D1*
X-2571750Y2127250D1*
X-2381250D1*
X-2571750Y2952750D2*
X-2433250D1*
X-1301750Y3270250D2*
X-1809750D1*
X-2433250Y2571750D2*
X-2317750D1*
X-1809750Y3270250D2*
Y3161573D1*
X-1948250Y3023073D1*
Y2952750D1*
X4617503Y-2532253D2*
D17*
Y-2278253D1*
Y-2532253D2*
D16*
Y-2649003D1*
X4826000Y-2857500D1*
Y-4000500D1*
X4572000Y-4254500D1*
X4001197D1*
X3683000Y-3936303D1*
Y-2709567D1*
X3685267Y-2707300D1*
Y-2237300D1*
X4191000Y-3302000D2*
X4013357Y-3124357D1*
Y-2095390D1*
X3685267Y-1767300D1*
X4191000Y-3873500D2*
X4254500D1*
X4572000Y-3556000D1*
Y-3048000D1*
X4254500Y-2730500D1*
Y-1325753D1*
X4000500D1*
X2918880D1*
X1270000D1*
X-1778000Y-698500D2*
D18*
X-1150747Y-1325753D1*
X1270000D1*
X-4000500Y-456000D2*
D21*
Y-317500D1*
X-1778000Y-444500D2*
D18*
Y-698500D1*
X2918880Y-1325753D2*
D17*
Y-1081620D1*
X2921000Y-1079500D1*
X1270000Y-1325753D2*
Y-1079500D1*
X4191000Y-1333500D2*
D20*
Y-1325753D1*
D16*
X4254500D1*
X4000500Y-1333500D2*
D20*
Y-1325753D1*
X4699000Y698500D2*
D17*
Y4064000D1*
Y3111500D2*
D10*
Y4064000D1*
Y2857500D2*
Y698500D1*
X2698750Y4774000D2*
D18*
X4243000D1*
X4699000Y4318000D1*
Y698500D2*
D17*
Y1651000D1*
Y1905000D2*
Y2857500D1*
Y3111500D2*
Y2857500D1*
Y1651000D2*
Y1905000D1*
Y4064000D2*
D16*
Y4318000D1*
X4191000Y571500D2*
D18*
X4635500D1*
X4699000Y635000D1*
Y444500D1*
X4000500Y571500D2*
D17*
X4191000D1*
X2698750Y4774000D2*
D18*
X75000D1*
X0Y4699000D1*
X4699000Y444500D2*
D16*
Y698500D1*
X-4000500Y-941000D2*
D21*
Y-1079500D1*
X-762000Y-444500D2*
D10*
Y-317500D1*
X-1143000Y63500D1*
X-3692657D1*
X-3873500Y-117343D1*
Y-456000D1*
X-1016000Y-444500D2*
Y-317500D1*
X-1333500Y0D1*
X-3335490D1*
X-3619500Y-284010D1*
Y-456000D1*
X-3365500Y2551500D2*
D19*
X-3027750Y2889250D1*
X-2698750D1*
X-2635250Y2825750D1*
X-2433250D1*
X-2284250D1*
X-2157250Y2698750D1*
X-1948250D1*
X-1809750Y2825750D2*
X-1948250D1*
X-2571750Y3270250D2*
X-2825750D1*
X-3143250Y3587750D1*
X-2889250Y2762250D2*
X-2776180D1*
X-2712680Y2698750D1*
X-2433250D1*
X889000Y1270000D2*
D10*
Y698500D1*
X-1873250Y2127250D2*
D19*
Y2347730D1*
X-1936750Y2411230D1*
Y2571750D1*
X-1948250D1*
X-3619500Y-941000D2*
D10*
Y-1077760D1*
X-3937000Y-1395260D1*
Y-2171007D1*
X-4107747Y-2341753D1*
X-3873500Y-941000D2*
Y-1079500D1*
X-4119753Y-1325753D1*
X-4107747D1*
X-3746500Y-941000D2*
Y-1077760D1*
X-4000500Y-1331760D1*
Y-1726507D1*
X-4107747Y-1833753D1*
X-1016000Y-698500D2*
X-1143000Y-571500D1*
Y-317500D1*
X-1397000Y-63500D1*
X-3271990D1*
X-3492500Y-284010D1*
Y-456000D1*
X-1270000Y-444500D2*
Y-317500D1*
X-1460500Y-127000D1*
X-3208490D1*
X-3365500Y-284010D1*
Y-456000D1*
X-3492500Y-941000D2*
Y-1077760D1*
X-3873500Y-1458760D1*
Y-2615507D1*
X-4107747Y-2849753D1*
X-3365500Y-941000D2*
Y-1077760D1*
X-3810000Y-1522260D1*
Y-3060007D1*
X-4107747Y-3357753D1*
X-1270000Y-698500D2*
X-1397000Y-571500D1*
Y-317500D1*
X-1524000Y-190500D1*
X-3144990D1*
X-3238500Y-284010D1*
Y-456000D1*
Y-941000D2*
Y-1077760D1*
X-3746500Y-1585760D1*
Y-3504507D1*
X-4107747Y-3865753D1*
X-1524000Y-444500D2*
Y-317500D1*
X-1587500Y-254000D1*
X-3048000D1*
X-3111500Y-317500D1*
Y-456000D1*
Y-941000D2*
Y-1079500D1*
X-3238500Y-1206500D1*
Y-1397000D1*
X-3492500Y-1651000D1*
Y-3758507D1*
X-4107747Y-4373753D1*
X-3746500Y-456000D2*
Y-317500D1*
D54*
X-4000500D3*
Y-1079500D3*
X-3746500Y-317500D3*
X-2317750Y2571750D3*
X-2571750Y2952750D3*
X-1809750Y2825750D3*
X4531787Y-437817D2*
D23*
X4549133D1*
X4481447Y-475583D2*
X4549133D1*
X4431107Y-513350D2*
X4549133D1*
X4380727Y-551117D2*
X4549133D1*
X4376747Y-588883D2*
X4549133D1*
X4427087Y-626650D2*
X4549133D1*
X4477467Y-664417D2*
X4549133D1*
X4527807Y-702183D2*
X4549133D1*
X4552963Y-419090D2*
X4349747Y-571497D1*
X4552950Y-723880D1*
Y-419120D1*
X3961080Y-1390317D2*
X4231620D1*
X3998847Y-1428083D2*
X4231620D1*
X4036613Y-1465850D2*
X4231620D1*
X4074377Y-1503617D2*
X4231620D1*
X4112143Y-1541383D2*
X4231620D1*
X4149907Y-1579150D2*
X4231620D1*
X4187673Y-1616917D2*
X4231620D1*
X4235430Y-1352550D2*
X3919507D1*
X4235457Y-1668517D1*
X4235450Y-1352570D1*
X4350800Y705183D2*
X4612633D1*
X4124173Y667417D2*
X4612633D1*
X4023380Y629650D2*
X4612633D1*
X4023380Y591883D2*
X4612633D1*
X4023380Y554117D2*
X4612633D1*
X4023380Y516350D2*
X4612633D1*
X4117177Y478583D2*
X4612633D1*
X4368957Y440817D2*
X4612633D1*
X4019540Y492657D2*
X4616450Y403120D1*
X4616443Y742950D1*
X4573573D1*
X4019533Y650610D1*
X4019550Y514350D1*
Y492640D1*
D27*
X2918880Y-563753D3*
D28*
Y-1325753D3*
D27*
X1270000Y-563753D3*
D28*
Y-1325753D3*
D29*
X-4699000Y4318000D3*
D30*
Y4064000D3*
D31*
X635000Y4318000D3*
D32*
Y4064000D3*
X381000Y4318000D3*
Y4064000D3*
X127000Y4318000D3*
Y4064000D3*
D33*
X2912063Y-3076367D3*
D34*
X2658063D3*
D35*
X2172753Y-1579753D3*
D36*
Y-563753D3*
D37*
X4191000Y-3873500D3*
D38*
Y-3302000D3*
D39*
X4617503Y-762000D3*
Y-508000D3*
Y-2532253D3*
Y-2278253D3*
D31*
X-508000Y-444500D3*
D32*
Y-698500D3*
X-762000Y-444500D3*
Y-698500D3*
X-1016000Y-444500D3*
Y-698500D3*
X-1270000Y-444500D3*
Y-698500D3*
X-1524000Y-444500D3*
Y-698500D3*
X-1778000Y-444500D3*
Y-698500D3*
X-2032000Y-444500D3*
Y-698500D3*
D33*
X-3097747Y-1325753D3*
D34*
X-2843747D3*
D40*
X-1256247Y-2699553D3*
D41*
Y-2229553D3*
Y-1759553D3*
D42*
X153253Y-2699553D3*
D43*
Y-2229553D3*
Y-1759553D3*
X636253D3*
Y-2229553D3*
Y-2699553D3*
D120*
X-3111500Y-456000D3*
X-3238500D3*
X-3365500D3*
X-3492500D3*
X-3619500D3*
X-3746500D3*
X-3873500D3*
X-4000500D3*
D123*
Y-941000D3*
X-3873500D3*
X-3746500D3*
X-3619500D3*
X-3492500D3*
X-3365500D3*
X-3238500D3*
X-3111500D3*
D44*
X-4107747Y-1325753D3*
X-3357747D3*
X-4107747Y-1833753D3*
X-3357747D3*
X-4107747Y-2341753D3*
X-3357747D3*
X-4107747Y-2849753D3*
X-3357747D3*
X-4107747Y-3357753D3*
X-3357747D3*
X-4107747Y-3865753D3*
X-3357747D3*
X-4107747Y-4373753D3*
X-3357747D3*
D33*
X-3097747Y-1833753D3*
D34*
X-2843747D3*
D33*
X-3097747Y-2341753D3*
D34*
X-2843747D3*
D33*
X-3097747Y-2849753D3*
D34*
X-2843747D3*
D33*
X-3097747Y-3357753D3*
D34*
X-2843747D3*
D33*
X-3097747Y-3865753D3*
D34*
X-2843747D3*
D33*
X-3097747Y-4373753D3*
D34*
X-2843747D3*
D45*
X1918753Y-563753D3*
Y-1564500D3*
D46*
X-2843747Y-976503D3*
Y-468503D3*
D40*
X3685267Y-2707300D3*
D41*
Y-2237300D3*
Y-1767300D3*
D47*
X0Y4699000D3*
D29*
X-4699000Y3111500D3*
D30*
Y2857500D3*
D31*
X635000Y3111500D3*
D32*
Y2857500D3*
X381000Y3111500D3*
Y2857500D3*
X127000Y3111500D3*
Y2857500D3*
D49*
X2698750Y3567500D3*
D44*
Y3417500D3*
D49*
X2730500Y1154500D3*
D44*
Y1004500D3*
D49*
X2698750Y4774000D3*
D44*
Y4624000D3*
D31*
X635000Y1905000D3*
D32*
Y1651000D3*
X381000Y1905000D3*
Y1651000D3*
X127000Y1905000D3*
Y1651000D3*
D49*
X2730500Y2361000D3*
D44*
Y2211000D3*
D29*
X4699000Y2857500D3*
D30*
Y3111500D3*
D29*
X-4699000Y1905000D3*
D30*
Y1651000D3*
D29*
X4699000Y1905000D3*
D30*
Y1651000D3*
D29*
Y4064000D3*
D30*
Y4318000D3*
D29*
X-4699000Y698500D3*
D30*
Y444500D3*
D31*
X635000Y698500D3*
D32*
Y444500D3*
X381000Y698500D3*
Y444500D3*
X127000Y698500D3*
Y444500D3*
D29*
X4699000Y698500D3*
D30*
Y444500D3*
D50*
X1270000Y-825500D3*
X2921000D3*
D51*
X1270000Y-1079500D3*
X2921000D3*
D46*
X-2381250Y2127250D3*
X-1873250D3*
D33*
X-3143250Y2000250D3*
D34*
Y1746250D3*
D52*
X-1809750Y3270250D3*
D53*
X-2571750D3*
D34*
X-3143250Y3587750D3*
D33*
X-3397250Y3333750D3*
X-3143250Y3079750D3*
D52*
X-2889250Y2000250D3*
D53*
Y2762250D3*
D35*
X-1301750Y3270250D3*
Y1682750D3*
Y2381250D3*
D126*
X-2433250Y2952750D3*
Y2825750D3*
Y2698750D3*
Y2571750D3*
D129*
X-1948250D3*
Y2698750D3*
Y2825750D3*
Y2952750D3*
D51*
X-1301750Y1428750D3*
X-1047750D3*
D49*
X-3365500Y2401500D3*
D44*
Y2551500D3*
D29*
X889000Y698500D3*
D30*
Y444500D3*
D51*
X317500Y1270000D3*
X889000D3*
X4191000Y-1333500D3*
Y571500D3*
X4000500Y-1333500D3*
Y571500D3*
M02*
