G04 DipTrace 4.3.0.5*
G04 2 - Bottom.gbr*
%MOMM*%
G04 #@! TF.FileFunction,Copper,L2,Bot*
G04 #@! TF.Part,Single*
G04 #@! TA.AperFunction,Conductor*
%ADD10C,0.25*%
%ADD16C,1.5*%
%ADD17C,1.2*%
%ADD18C,1.0*%
%ADD19C,0.44*%
%ADD20C,0.66*%
%ADD21C,0.5*%
%ADD22C,0.3302*%
G04 #@! TA.AperFunction,CopperBalancing*
%ADD23C,0.381*%
G04 #@! TA.AperFunction,ComponentPad*
%ADD27R,1.6X1.6*%
%ADD28C,1.6*%
%ADD29R,1.69X1.69*%
%ADD30C,1.69*%
%ADD31R,1.7X1.7*%
%ADD32C,1.7*%
%ADD33C,1.5*%
%ADD34R,1.5X1.5*%
%ADD35C,1.524*%
%ADD36C,1.524*%
%ADD37C,3.5*%
%ADD38R,3.5X3.5*%
%ADD39R,2.0X3.0*%
%ADD40R,3.08X3.08*%
%ADD41C,3.08*%
%ADD42R,3.1X3.1*%
%ADD43C,3.1*%
%ADD44C,1.1*%
%ADD45C,2.0*%
%ADD46C,1.65*%
%ADD47C,4.5*%
%ADD49R,1.1X1.1*%
%ADD50R,2.0X2.0*%
%ADD51C,2.0*%
%ADD52C,1.27*%
%ADD53C,1.27*%
G04 #@! TA.AperFunction,ViaPad*
%ADD54C,1.016*%
%FSLAX35Y35*%
G04*
G71*
G90*
G75*
G01*
G04 Bottom*
%LPD*%
X1270000Y-563753D2*
D16*
X2172753D1*
X2918880D1*
X4500753D1*
X4556507Y-508000D1*
X4617503D1*
X1270000Y-563753D2*
Y-825500D1*
X2918880Y-563753D2*
D17*
Y-823380D1*
X2921000Y-825500D1*
X635000Y698500D2*
Y4064000D1*
X2698750Y4624000D2*
D18*
X941000D1*
X635000Y4318000D1*
X2698750Y3417500D2*
X941000D1*
X635000Y3111500D1*
X2730500Y1004500D2*
X814000D1*
X635000Y825500D1*
Y698500D1*
X2730500Y2211000D2*
X941000D1*
X635000Y1905000D1*
Y4064000D2*
D17*
Y4318000D1*
Y444500D2*
Y698500D1*
X-3365500Y2401500D2*
D19*
Y1968500D1*
X-3143250Y1746250D1*
X-2381250Y2127250D2*
X-2571750Y2317750D1*
Y2952750D1*
X-1301750Y2381250D2*
D17*
X158750D1*
X635000Y1905000D1*
X1270000Y-563753D2*
X817753D1*
X635000Y-381000D1*
Y444500D1*
X-1809750Y3270250D2*
D19*
X-2317750Y2762250D1*
Y2571750D1*
X-1301750Y3270250D2*
D20*
X476250D1*
X635000Y3111500D1*
X-508000Y-444500D2*
D16*
Y-698500D1*
X-307430Y-899070D1*
X264070D1*
X952500Y-1587500D1*
Y-2095500D1*
X818447Y-2229553D1*
X636253D1*
X4617503Y-2532253D2*
Y-2649003D1*
X4826000Y-2857500D1*
Y-4000500D1*
X4572000Y-4254500D1*
X4001197D1*
X3683000Y-3936303D1*
Y-3365500D1*
X3685267Y-3363233D1*
Y-2707300D1*
Y-2237300D1*
X-2032000Y-444500D2*
Y-698500D1*
Y-2540000D1*
X-1524000Y-3048000D1*
X-195193D1*
X153253Y-2699553D1*
X636253D1*
X4191000Y-3302000D2*
X4013357Y-3124357D1*
Y-2095390D1*
X3685267Y-1767300D1*
X4191000Y-3873500D2*
X4254500D1*
X4572000Y-3556000D1*
Y-3048000D1*
X4252333Y-2728333D1*
Y-1325753D1*
X2918880D1*
X2921000D1*
X1270000D1*
X-1778000Y-444500D2*
D18*
Y-698500D1*
X-4000500Y-317500D2*
D21*
Y-574003D1*
X-3954997Y-619507D1*
X-2994750D1*
X-2843747Y-468503D1*
Y-270257D1*
X-2653247Y-79757D1*
X-1952243D1*
X-1778000Y-254000D1*
Y-444500D1*
X2912063Y-3076367D2*
D10*
X2921000D1*
Y-1325753D1*
X2918880D2*
D17*
Y-1081620D1*
X2921000Y-1079500D1*
X1270000Y-1325753D2*
Y-1079500D1*
X4699000Y698500D2*
Y4064000D1*
X2730500Y1154500D2*
D18*
X4243000D1*
X4699000Y698500D1*
X2698750Y3567500D2*
X4243000D1*
X4699000Y3111500D1*
X2730500Y2361000D2*
X4243000D1*
X4699000Y1905000D1*
Y4064000D2*
D16*
Y4318000D1*
X4191000Y571500D2*
D17*
X4635500D1*
X4699000Y635000D1*
Y444500D1*
X4000500Y571500D2*
D18*
X4191000D1*
X2698750Y4774000D2*
X75000D1*
X0Y4699000D1*
X2698750Y4774000D2*
X4243000D1*
X4699000Y4318000D1*
Y444500D2*
D16*
Y698500D1*
X-2843747Y-1325753D2*
D21*
Y-1833753D1*
Y-2341753D1*
Y-2849753D1*
Y-3357753D1*
Y-3865753D1*
Y-4373753D1*
Y-2849753D2*
X-2399247D1*
X-1693000Y-3556000D1*
X1651000D1*
X1918753Y-3288247D1*
Y-1564500D1*
X-4000500Y-1079500D2*
Y-792010D1*
X-3954997Y-746507D1*
X-3002497D1*
X-2843747Y-905257D1*
Y-976503D1*
Y-1325753D1*
X-3143250Y2000250D2*
D19*
X-2889250D1*
X-3365500Y2551500D2*
Y2857500D1*
X-3143250Y3079750D1*
X-3397250Y3333750D1*
X-2571750Y3270250D2*
X-2444750Y3143250D1*
Y2508250D1*
X-2381250Y2444750D1*
X-2063750D1*
X-1809750Y2698750D1*
Y2825750D1*
X-1301750Y1682750D2*
Y1428750D1*
Y1682750D2*
X-2254250D1*
X-2889250Y2317750D1*
Y2762250D1*
X-3097747Y-1325753D2*
D10*
X-3357747D1*
X-3097747Y-1833753D2*
X-3357747D1*
X-3097747Y-2341753D2*
X-3357747D1*
X-3097747Y-2849753D2*
X-3357747D1*
X-3097747Y-3357753D2*
X-3357747D1*
X-3097747Y-3865753D2*
X-3357747D1*
X-3097747Y-4373753D2*
X-3357747D1*
X-3746500Y-317500D2*
Y-190500D1*
X-3429000Y127000D1*
X-1270000D1*
X-1047750Y349250D1*
Y1428750D1*
X-889000Y1270000D1*
X317500D1*
X2658063Y-3076367D2*
D22*
Y-1769063D1*
X2476500Y-1587500D1*
X2172753D1*
Y-1579753D1*
X-762000Y-698500D2*
D21*
Y-1061007D1*
X-1256247Y-1555253D1*
Y-1759553D1*
X-1524000Y-698500D2*
D18*
Y-1197950D1*
X-1629250Y-1303200D1*
Y-1770530D1*
X-1256247Y-2143533D1*
Y-2229553D1*
X153253D1*
D54*
X-4000500Y-317500D3*
Y-1079500D3*
X-3746500Y-317500D3*
X-2317750Y2571750D3*
X-2571750Y2952750D3*
X-1809750Y2825750D3*
X4531787Y-437817D2*
D23*
X4549133D1*
X4481447Y-475583D2*
X4549133D1*
X4431107Y-513350D2*
X4549133D1*
X4380727Y-551117D2*
X4549133D1*
X4376747Y-588883D2*
X4549133D1*
X4427087Y-626650D2*
X4549133D1*
X4477467Y-664417D2*
X4549133D1*
X4527807Y-702183D2*
X4549133D1*
X4552963Y-419090D2*
X4349747Y-571497D1*
X4552950Y-723880D1*
Y-419120D1*
X3961080Y-1390317D2*
X4231620D1*
X3998847Y-1428083D2*
X4231620D1*
X4036613Y-1465850D2*
X4231620D1*
X4074377Y-1503617D2*
X4231620D1*
X4112143Y-1541383D2*
X4231620D1*
X4149907Y-1579150D2*
X4231620D1*
X4187673Y-1616917D2*
X4231620D1*
X4235430Y-1352550D2*
X3919507D1*
X4235457Y-1668517D1*
X4235450Y-1352570D1*
X4350800Y705183D2*
X4612633D1*
X4124173Y667417D2*
X4612633D1*
X4023380Y629650D2*
X4612633D1*
X4023380Y591883D2*
X4612633D1*
X4023380Y554117D2*
X4612633D1*
X4023380Y516350D2*
X4612633D1*
X4117177Y478583D2*
X4612633D1*
X4368957Y440817D2*
X4612633D1*
X4019540Y492657D2*
X4616450Y403120D1*
X4616443Y742950D1*
X4573573D1*
X4019533Y650610D1*
X4019550Y514350D1*
Y492640D1*
D27*
X2918880Y-563753D3*
D28*
Y-1325753D3*
D27*
X1270000Y-563753D3*
D28*
Y-1325753D3*
D29*
X-4699000Y4318000D3*
D30*
Y4064000D3*
D31*
X635000Y4318000D3*
D32*
Y4064000D3*
X381000Y4318000D3*
Y4064000D3*
X127000Y4318000D3*
Y4064000D3*
D33*
X2912063Y-3076367D3*
D34*
X2658063D3*
D35*
X2172753Y-1579753D3*
D36*
Y-563753D3*
D37*
X4191000Y-3873500D3*
D38*
Y-3302000D3*
D39*
X4617503Y-762000D3*
Y-508000D3*
Y-2532253D3*
Y-2278253D3*
D31*
X-508000Y-444500D3*
D32*
Y-698500D3*
X-762000Y-444500D3*
Y-698500D3*
X-1016000Y-444500D3*
Y-698500D3*
X-1270000Y-444500D3*
Y-698500D3*
X-1524000Y-444500D3*
Y-698500D3*
X-1778000Y-444500D3*
Y-698500D3*
X-2032000Y-444500D3*
Y-698500D3*
D33*
X-3097747Y-1325753D3*
D34*
X-2843747D3*
D40*
X-1256247Y-2699553D3*
D41*
Y-2229553D3*
Y-1759553D3*
D42*
X153253Y-2699553D3*
D43*
Y-2229553D3*
Y-1759553D3*
X636253D3*
Y-2229553D3*
Y-2699553D3*
D44*
X-4107747Y-1325753D3*
X-3357747D3*
X-4107747Y-1833753D3*
X-3357747D3*
X-4107747Y-2341753D3*
X-3357747D3*
X-4107747Y-2849753D3*
X-3357747D3*
X-4107747Y-3357753D3*
X-3357747D3*
X-4107747Y-3865753D3*
X-3357747D3*
X-4107747Y-4373753D3*
X-3357747D3*
D33*
X-3097747Y-1833753D3*
D34*
X-2843747D3*
D33*
X-3097747Y-2341753D3*
D34*
X-2843747D3*
D33*
X-3097747Y-2849753D3*
D34*
X-2843747D3*
D33*
X-3097747Y-3357753D3*
D34*
X-2843747D3*
D33*
X-3097747Y-3865753D3*
D34*
X-2843747D3*
D33*
X-3097747Y-4373753D3*
D34*
X-2843747D3*
D45*
X1918753Y-563753D3*
Y-1564500D3*
D46*
X-2843747Y-976503D3*
Y-468503D3*
D40*
X3685267Y-2707300D3*
D41*
Y-2237300D3*
Y-1767300D3*
D47*
X0Y4699000D3*
D29*
X-4699000Y3111500D3*
D30*
Y2857500D3*
D31*
X635000Y3111500D3*
D32*
Y2857500D3*
X381000Y3111500D3*
Y2857500D3*
X127000Y3111500D3*
Y2857500D3*
D49*
X2698750Y3567500D3*
D44*
Y3417500D3*
D49*
X2730500Y1154500D3*
D44*
Y1004500D3*
D49*
X2698750Y4774000D3*
D44*
Y4624000D3*
D31*
X635000Y1905000D3*
D32*
Y1651000D3*
X381000Y1905000D3*
Y1651000D3*
X127000Y1905000D3*
Y1651000D3*
D49*
X2730500Y2361000D3*
D44*
Y2211000D3*
D29*
X4699000Y2857500D3*
D30*
Y3111500D3*
D29*
X-4699000Y1905000D3*
D30*
Y1651000D3*
D29*
X4699000Y1905000D3*
D30*
Y1651000D3*
D29*
Y4064000D3*
D30*
Y4318000D3*
D29*
X-4699000Y698500D3*
D30*
Y444500D3*
D31*
X635000Y698500D3*
D32*
Y444500D3*
X381000Y698500D3*
Y444500D3*
X127000Y698500D3*
Y444500D3*
D29*
X4699000Y698500D3*
D30*
Y444500D3*
D50*
X1270000Y-825500D3*
X2921000D3*
D51*
X1270000Y-1079500D3*
X2921000D3*
D46*
X-2381250Y2127250D3*
X-1873250D3*
D33*
X-3143250Y2000250D3*
D34*
Y1746250D3*
D52*
X-1809750Y3270250D3*
D53*
X-2571750D3*
D34*
X-3143250Y3587750D3*
D33*
X-3397250Y3333750D3*
X-3143250Y3079750D3*
D52*
X-2889250Y2000250D3*
D53*
Y2762250D3*
D35*
X-1301750Y3270250D3*
Y1682750D3*
Y2381250D3*
D51*
Y1428750D3*
X-1047750D3*
D49*
X-3365500Y2401500D3*
D44*
Y2551500D3*
D29*
X889000Y698500D3*
D30*
Y444500D3*
D51*
X317500Y1270000D3*
X889000D3*
X4191000Y-1333500D3*
Y571500D3*
X4000500Y-1333500D3*
Y571500D3*
M02*
