G04 DipTrace 4.3.0.5*
G04 BottomPaste.gbr*
%MOMM*%
G04 #@! TF.FileFunction,Paste,Bot*
G04 #@! TF.Part,Single*
%ADD33C,1.5*%
%ADD34R,1.5X1.5*%
%ADD71C,1.07*%
%ADD73C,1.07*%
%ADD75C,1.8*%
%ADD77R,1.8X1.8*%
%ADD78R,1.3X1.3*%
%ADD79R,0.9X0.9*%
%ADD81C,4.3*%
%ADD83C,1.45*%
%ADD85C,1.8*%
%ADD86C,1.3*%
%ADD87C,0.9*%
%ADD88C,3.3*%
%ADD89C,2.9*%
%ADD90R,3.3X3.3*%
%ADD91R,2.9X2.9*%
%ADD93C,2.88*%
%ADD95R,2.88X2.88*%
%ADD97R,1.8X2.8*%
%ADD101C,1.324*%
%ADD103C,1.324*%
%ADD107C,1.49*%
%ADD109R,1.49X1.49*%
%ADD110C,1.4*%
%ADD111R,1.4X1.4*%
%FSLAX35Y35*%
G04*
G71*
G90*
G75*
G01*
G04 BotPaste*
%LPD*%
D111*
X2918880Y-563753D3*
D110*
Y-1325753D3*
D111*
X1270000Y-563753D3*
D110*
Y-1325753D3*
D109*
X-4699000Y4318000D3*
D107*
Y4064000D3*
D34*
X635000Y4318000D3*
D33*
Y4064000D3*
X381000Y4318000D3*
Y4064000D3*
X127000Y4318000D3*
Y4064000D3*
D86*
X2912063Y-3076367D3*
D78*
X2658063D3*
D103*
X2172753Y-1579753D3*
D101*
Y-563753D3*
D88*
X4191000Y-3873500D3*
D90*
Y-3302000D3*
D97*
X4617503Y-762000D3*
Y-508000D3*
Y-2532253D3*
Y-2278253D3*
D34*
X-508000Y-444500D3*
D33*
Y-698500D3*
X-762000Y-444500D3*
Y-698500D3*
X-1016000Y-444500D3*
Y-698500D3*
X-1270000Y-444500D3*
Y-698500D3*
X-1524000Y-444500D3*
Y-698500D3*
X-1778000Y-444500D3*
Y-698500D3*
X-2032000Y-444500D3*
Y-698500D3*
D86*
X-3097747Y-1325753D3*
D78*
X-2843747D3*
D95*
X-1256247Y-2699553D3*
D93*
Y-2229553D3*
Y-1759553D3*
D91*
X153253Y-2699553D3*
D89*
Y-2229553D3*
Y-1759553D3*
X636253D3*
Y-2229553D3*
Y-2699553D3*
D87*
X-4107747Y-1325753D3*
X-3357747D3*
X-4107747Y-1833753D3*
X-3357747D3*
X-4107747Y-2341753D3*
X-3357747D3*
X-4107747Y-2849753D3*
X-3357747D3*
X-4107747Y-3357753D3*
X-3357747D3*
X-4107747Y-3865753D3*
X-3357747D3*
X-4107747Y-4373753D3*
X-3357747D3*
D86*
X-3097747Y-1833753D3*
D78*
X-2843747D3*
D86*
X-3097747Y-2341753D3*
D78*
X-2843747D3*
D86*
X-3097747Y-2849753D3*
D78*
X-2843747D3*
D86*
X-3097747Y-3357753D3*
D78*
X-2843747D3*
D86*
X-3097747Y-3865753D3*
D78*
X-2843747D3*
D86*
X-3097747Y-4373753D3*
D78*
X-2843747D3*
D85*
X1918753Y-563753D3*
Y-1564500D3*
D83*
X-2843747Y-976503D3*
Y-468503D3*
D95*
X3685267Y-2707300D3*
D93*
Y-2237300D3*
Y-1767300D3*
D81*
X0Y4699000D3*
D109*
X-4699000Y3111500D3*
D107*
Y2857500D3*
D34*
X635000Y3111500D3*
D33*
Y2857500D3*
X381000Y3111500D3*
Y2857500D3*
X127000Y3111500D3*
Y2857500D3*
D79*
X2698750Y3567500D3*
D87*
Y3417500D3*
D79*
X2730500Y1154500D3*
D87*
Y1004500D3*
D79*
X2698750Y4774000D3*
D87*
Y4624000D3*
D34*
X635000Y1905000D3*
D33*
Y1651000D3*
X381000Y1905000D3*
Y1651000D3*
X127000Y1905000D3*
Y1651000D3*
D79*
X2730500Y2361000D3*
D87*
Y2211000D3*
D109*
X4699000Y2857500D3*
D107*
Y3111500D3*
D109*
X-4699000Y1905000D3*
D107*
Y1651000D3*
D109*
X4699000Y1905000D3*
D107*
Y1651000D3*
D109*
Y4064000D3*
D107*
Y4318000D3*
D109*
X-4699000Y698500D3*
D107*
Y444500D3*
D34*
X635000Y698500D3*
D33*
Y444500D3*
X381000Y698500D3*
Y444500D3*
X127000Y698500D3*
Y444500D3*
D109*
X4699000Y698500D3*
D107*
Y444500D3*
D77*
X1270000Y-825500D3*
X2921000D3*
D75*
X1270000Y-1079500D3*
X2921000D3*
D83*
X-2381250Y2127250D3*
X-1873250D3*
D86*
X-3143250Y2000250D3*
D78*
Y1746250D3*
D73*
X-1809750Y3270250D3*
D71*
X-2571750D3*
D78*
X-3143250Y3587750D3*
D86*
X-3397250Y3333750D3*
X-3143250Y3079750D3*
D73*
X-2889250Y2000250D3*
D71*
Y2762250D3*
D103*
X-1301750Y3270250D3*
Y1682750D3*
Y2381250D3*
D75*
Y1428750D3*
X-1047750D3*
D79*
X-3365500Y2401500D3*
D87*
Y2551500D3*
D109*
X889000Y698500D3*
D107*
Y444500D3*
D75*
X317500Y1270000D3*
X889000D3*
X4191000Y-1333500D3*
Y571500D3*
X4000500Y-1333500D3*
Y571500D3*
M02*
