M48
METRIC,0000.00
T01C0.486
T02C0.559
T03C0.7
T04C0.889
T05C0.9
T06C0.965
T07C1.0
T08C1.1
T09C1.14
T10C1.2
T11C1.85
T12C3.0
%
T01
X-002318Y+002572
X-002572Y+002953
X-001810Y+002826
X-003747Y-000317
X-004000Y-000317
X-004000Y-001079
T02
X-001810Y+003270
X-002572Y+003270
X-002889Y+002762
X-002889Y+002000
T03
X-004108Y-001326
X-004108Y-001834
X-004108Y-002342
X-004108Y-002850
X-004108Y-003358
X-004108Y-003866
X-004108Y-004374
X-003358Y-004374
X-003358Y-003866
X-003358Y-003358
X-003358Y-002850
X-003358Y-002342
X-003358Y-001834
X-003358Y-001326
X-003365Y+002402
X-003365Y+002552
X+002730Y+002361
X+002730Y+002211
X+002730Y+001154
X+002730Y+001004
X+002699Y+003417
X+002699Y+003567
X+002699Y+004624
X+002699Y+004774
T04
X+002912Y-003076
X+002658Y-003076
X-002844Y-002850
X-003098Y-002850
X-003098Y-003358
X-002844Y-003358
X-002844Y-003866
X-003098Y-003866
X-003098Y-004374
X-002844Y-004374
X-002844Y-002342
X-003098Y-002342
X-003098Y-001834
X-002844Y-001834
X-002844Y-001326
X-003098Y-001326
X-003143Y+001746
X-003143Y+002000
T05
X-003143Y+003588
X-003397Y+003334
X-003143Y+003080
T06
X+002173Y-001580
X+002173Y-000564
X-001302Y+001683
X-001302Y+002381
X-001302Y+003270
T07
X+002919Y-000564
X+002921Y-000825
X+002921Y-001079
X+002919Y-001326
X+001919Y-001564
X+001270Y-001326
X+001270Y-001079
X+001270Y-000825
X+001270Y-000564
X+001919Y-000564
X+000889Y+001270
X+000317Y+001270
X-001048Y+001429
X-001302Y+001429
X-001873Y+002127
X-002381Y+002127
X-002844Y-000469
X-002844Y-000977
X+004000Y-001334
X+004191Y-001334
X+004618Y-000762
X+004618Y-000508
X+004191Y+000572
X+004000Y+000572
X+004618Y-002278
X+004618Y-002532
T08
X+000635Y+004318
X+000635Y+004064
X+000381Y+004064
X+000381Y+004318
X+000127Y+004318
X+000127Y+004064
X+000127Y+003112
X+000381Y+003112
X+000635Y+003112
X+000635Y+002858
X+000381Y+002858
X+000127Y+002858
X+000127Y+001905
X+000381Y+001905
X+000635Y+001905
X+000635Y+001651
X+000381Y+001651
X+000127Y+001651
X+000127Y+000699
X+000381Y+000699
X+000635Y+000699
X+000635Y+000445
X+000381Y+000445
X+000127Y+000445
X-000508Y-000445
X-000508Y-000699
X-000762Y-000699
X-000762Y-000445
X-001016Y-000445
X-001270Y-000445
X-001524Y-000445
X-001524Y-000699
X-001270Y-000699
X-001016Y-000699
X-001778Y-000699
X-002032Y-000699
X-002032Y-000445
X-001778Y-000445
T09
X-004699Y+004318
X-004699Y+004064
X-004699Y+003112
X-004699Y+002858
X-004699Y+001905
X-004699Y+001651
X-004699Y+000698
X-004699Y+000444
X+000889Y+000444
X+000889Y+000698
X+004699Y+000698
X+004699Y+000444
X+004699Y+001651
X+004699Y+001905
X+004699Y+002858
X+004699Y+003112
X+004699Y+004064
X+004699Y+004318
T10
X+004191Y-003874
X+004191Y-003302
T11
X-001256Y-002700
X-001256Y-002230
X-001256Y-001760
X+000153Y-001760
X+000153Y-002230
X+000153Y-002700
X+000636Y-002700
X+000636Y-002230
X+000636Y-001760
X+003685Y-001767
X+003685Y-002237
X+003685Y-002707
T12
X+004699Y-004699
X+000000Y-004699
X-004699Y-004699
X-004699Y+000000
X-004699Y+004699
X+000000Y+004699
X+000014Y+000015
X+004713Y+000000
X+004699Y+004699
T00
M30
