G04 DipTrace 4.3.0.5*
G04 TopAssembly.gbr*
%MOMM*%
G04 #@! TF.FileFunction,Drawing,Top*
G04 #@! TF.Part,Single*
%ADD13C,0.12*%
%FSLAX35Y35*%
G04*
G71*
G90*
G75*
G01*
G04 TopAssy*
%LPD*%
X-4651000Y4461000D2*
D13*
X-4556000Y4366000D1*
Y3921000D1*
X-4842000D1*
Y4461000D1*
X-4651000D1*
X-1402247Y-1935553D2*
G02X-1402247Y-1935553I146000J0D01*
G01*
X-1386480Y-2110427D2*
G03X-1128413Y-2107853I130234J-119126D01*
G01*
X-913247Y-2229553D2*
Y-2696953D1*
X-926247D1*
Y-2823953D1*
X-937947Y-2852653D1*
X-966247Y-2864553D1*
X-1546247D1*
X-1574547Y-2852653D1*
X-1586247Y-2823953D1*
Y-2696953D1*
X-1599247D1*
Y-2229553D1*
Y-1762153D1*
X-1586247D1*
Y-1635153D1*
X-1574547Y-1606453D1*
X-1546247Y-1594553D1*
X-966247D1*
X-937947Y-1606453D1*
X-926247Y-1635153D1*
Y-1762153D1*
X-913247D1*
Y-2229553D1*
X-1402663Y-1947830D2*
G03X-1307260Y-2542930I146418J-281724D01*
G01*
X-1205260Y-2542773D2*
G03X-1113577Y-1946090I-50988J313220D01*
G01*
X-1307247Y-2542853D2*
Y-2471853D1*
X-1205247D1*
Y-2542853D1*
X-1370900Y-2199353D2*
G03X-1142247Y-2206553I114654J6799D01*
G01*
X-1370247D2*
X-1402247Y-1935553D1*
X-1142247Y-2206553D2*
X-1110247Y-1935553D1*
X170317Y-2004977D2*
G03X343740Y-2542930I224437J-224577D01*
G01*
X445740Y-2542773D2*
G03X620273Y-2006290I-50988J313220D01*
G01*
X343753Y-2542853D2*
Y-2471853D1*
X445753D1*
Y-2542853D1*
X221143Y-2126287D2*
G03X570323Y-2129660I173609J-103266D01*
G01*
X277600Y-2222110D2*
G03X512057Y-2224983I117155J-7445D01*
G01*
X490053Y-2239130D2*
X614753Y-2013380D1*
X174753D1*
X299453Y-2239130D1*
X490053D1*
X299463Y-2239170D2*
X272687Y-2218320D1*
X257187Y-2200120D1*
X249487Y-2187520D1*
X242787Y-2173620D1*
X170443Y-2005137D1*
X489443Y-2238573D2*
X516193Y-2217747D1*
X531693Y-2199547D1*
X539393Y-2186947D1*
X546093Y-2173047D1*
X619663Y-2005733D1*
X173217Y-1762590D2*
G03X173153Y-2010403I219929J-123963D01*
G01*
X616290Y-2010517D2*
G03X616353Y-1762703I-219929J123963D01*
G01*
X174753Y-1759553D2*
X614753D1*
X966253Y-2229553D2*
Y-2696553D1*
Y-2823553D1*
X954753Y-2852553D1*
X925753Y-2864553D1*
X-136247D1*
X-165247Y-2852553D1*
X-176747Y-2823553D1*
Y-2229553D1*
Y-1762553D1*
Y-1635553D1*
X-165247Y-1606553D1*
X-136247Y-1594553D1*
X925753D1*
X954753Y-1606553D1*
X966253Y-1635553D1*
Y-2229553D1*
X-3056000Y-898500D2*
X-4056000D1*
Y-498500D1*
X-3156000D1*
X-3056000Y-598500D1*
Y-898500D1*
X-3937747Y-1230753D2*
Y-1420753D1*
X-3527747D1*
Y-1230753D1*
X-3937747D1*
X-4052747Y-1325753D2*
X-3937747D1*
X-3527747D2*
X-3412747D1*
X-3937747Y-1738753D2*
Y-1928753D1*
X-3527747D1*
Y-1738753D1*
X-3937747D1*
X-4052747Y-1833753D2*
X-3937747D1*
X-3527747D2*
X-3412747D1*
X-3937747Y-2246753D2*
Y-2436753D1*
X-3527747D1*
Y-2246753D1*
X-3937747D1*
X-4052747Y-2341753D2*
X-3937747D1*
X-3527747D2*
X-3412747D1*
X-3937747Y-2754753D2*
Y-2944753D1*
X-3527747D1*
Y-2754753D1*
X-3937747D1*
X-4052747Y-2849753D2*
X-3937747D1*
X-3527747D2*
X-3412747D1*
X-3937747Y-3262753D2*
Y-3452753D1*
X-3527747D1*
Y-3262753D1*
X-3937747D1*
X-4052747Y-3357753D2*
X-3937747D1*
X-3527747D2*
X-3412747D1*
X-3937747Y-3770753D2*
Y-3960753D1*
X-3527747D1*
Y-3770753D1*
X-3937747D1*
X-4052747Y-3865753D2*
X-3937747D1*
X-3527747D2*
X-3412747D1*
X-3937747Y-4278753D2*
Y-4468753D1*
X-3527747D1*
Y-4278753D1*
X-3937747D1*
X-4052747Y-4373753D2*
X-3937747D1*
X-3527747D2*
X-3412747D1*
X3539267Y-1943300D2*
G02X3539267Y-1943300I146000J0D01*
G01*
X3555033Y-2118173D2*
G03X3813100Y-2115600I130234J-119126D01*
G01*
X4028267Y-2237300D2*
Y-2704700D1*
X4015267D1*
Y-2831700D1*
X4003567Y-2860400D1*
X3975267Y-2872300D1*
X3395267D1*
X3366967Y-2860400D1*
X3355267Y-2831700D1*
Y-2704700D1*
X3342267D1*
Y-2237300D1*
Y-1769900D1*
X3355267D1*
Y-1642900D1*
X3366967Y-1614200D1*
X3395267Y-1602300D1*
X3975267D1*
X4003567Y-1614200D1*
X4015267Y-1642900D1*
Y-1769900D1*
X4028267D1*
Y-2237300D1*
X3538850Y-1955577D2*
G03X3634253Y-2550677I146418J-281724D01*
G01*
X3736253Y-2550520D2*
G03X3827937Y-1953837I-50988J313220D01*
G01*
X3634267Y-2550600D2*
Y-2479600D1*
X3736267D1*
Y-2550600D1*
X3570613Y-2207100D2*
G03X3799267Y-2214300I114654J6799D01*
G01*
X3571267D2*
X3539267Y-1943300D1*
X3799267Y-2214300D2*
X3831267Y-1943300D1*
X-4651000Y3254500D2*
X-4556000Y3159500D1*
Y2714500D1*
X-4842000D1*
Y3254500D1*
X-4651000D1*
X2473750Y3492500D2*
G02X2473750Y3492500I225000J0D01*
G01*
G36*
X2910177Y3753927D2*
X2916703Y3753499D1*
X2923118Y3752223D1*
X2929311Y3750121D1*
X2935177Y3747228D1*
X2940615Y3743594D1*
X2945532Y3739282D1*
X2949844Y3734365D1*
X2953478Y3728927D1*
X2956371Y3723061D1*
X2958473Y3716868D1*
X2959749Y3710453D1*
X2960177Y3703927D1*
X2959749Y3697400D1*
X2958473Y3690986D1*
X2956371Y3684792D1*
X2953478Y3678927D1*
X2949844Y3673489D1*
X2945532Y3668571D1*
X2940615Y3664259D1*
X2935177Y3660625D1*
X2929311Y3657733D1*
X2923118Y3655630D1*
X2916703Y3654354D1*
X2910177Y3653927D1*
D1*
X2903650Y3654354D1*
X2897236Y3655630D1*
X2891042Y3657733D1*
X2885177Y3660625D1*
X2879739Y3664259D1*
X2874821Y3668571D1*
X2870509Y3673489D1*
X2866875Y3678927D1*
X2863983Y3684792D1*
X2861880Y3690986D1*
X2860604Y3697400D1*
X2860177Y3703927D1*
X2860604Y3710453D1*
X2861880Y3716868D1*
X2863983Y3723061D1*
X2866875Y3728927D1*
X2870509Y3734365D1*
X2874821Y3739282D1*
X2879739Y3743594D1*
X2885177Y3747228D1*
X2891042Y3750121D1*
X2897236Y3752223D1*
X2903650Y3753499D1*
X2910177Y3753927D1*
D1*
G37*
X2505500Y1079500D2*
D13*
G02X2505500Y1079500I225000J0D01*
G01*
G36*
X2941927Y1340927D2*
X2948453Y1340499D1*
X2954868Y1339223D1*
X2961061Y1337121D1*
X2966927Y1334228D1*
X2972365Y1330594D1*
X2977282Y1326282D1*
X2981594Y1321365D1*
X2985228Y1315927D1*
X2988121Y1310061D1*
X2990223Y1303868D1*
X2991499Y1297453D1*
X2991927Y1290927D1*
X2991499Y1284400D1*
X2990223Y1277986D1*
X2988121Y1271792D1*
X2985228Y1265927D1*
X2981594Y1260489D1*
X2977282Y1255571D1*
X2972365Y1251259D1*
X2966927Y1247625D1*
X2961061Y1244733D1*
X2954868Y1242630D1*
X2948453Y1241354D1*
X2941927Y1240927D1*
D1*
X2935400Y1241354D1*
X2928986Y1242630D1*
X2922792Y1244733D1*
X2916927Y1247625D1*
X2911489Y1251259D1*
X2906571Y1255571D1*
X2902259Y1260489D1*
X2898625Y1265927D1*
X2895733Y1271792D1*
X2893630Y1277986D1*
X2892354Y1284400D1*
X2891927Y1290927D1*
X2892354Y1297453D1*
X2893630Y1303868D1*
X2895733Y1310061D1*
X2898625Y1315927D1*
X2902259Y1321365D1*
X2906571Y1326282D1*
X2911489Y1330594D1*
X2916927Y1334228D1*
X2922792Y1337121D1*
X2928986Y1339223D1*
X2935400Y1340499D1*
X2941927Y1340927D1*
D1*
G37*
X2473750Y4699000D2*
D13*
G02X2473750Y4699000I225000J0D01*
G01*
G36*
X2910177Y4960427D2*
X2916703Y4959999D1*
X2923118Y4958723D1*
X2929311Y4956621D1*
X2935177Y4953728D1*
X2940615Y4950094D1*
X2945532Y4945782D1*
X2949844Y4940865D1*
X2953478Y4935427D1*
X2956371Y4929561D1*
X2958473Y4923368D1*
X2959749Y4916953D1*
X2960177Y4910427D1*
X2959749Y4903900D1*
X2958473Y4897486D1*
X2956371Y4891292D1*
X2953478Y4885427D1*
X2949844Y4879989D1*
X2945532Y4875071D1*
X2940615Y4870759D1*
X2935177Y4867125D1*
X2929311Y4864233D1*
X2923118Y4862130D1*
X2916703Y4860854D1*
X2910177Y4860427D1*
D1*
X2903650Y4860854D1*
X2897236Y4862130D1*
X2891042Y4864233D1*
X2885177Y4867125D1*
X2879739Y4870759D1*
X2874821Y4875071D1*
X2870509Y4879989D1*
X2866875Y4885427D1*
X2863983Y4891292D1*
X2861880Y4897486D1*
X2860604Y4903900D1*
X2860177Y4910427D1*
X2860604Y4916953D1*
X2861880Y4923368D1*
X2863983Y4929561D1*
X2866875Y4935427D1*
X2870509Y4940865D1*
X2874821Y4945782D1*
X2879739Y4950094D1*
X2885177Y4953728D1*
X2891042Y4956621D1*
X2897236Y4958723D1*
X2903650Y4959999D1*
X2910177Y4960427D1*
D1*
G37*
X2505500Y2286000D2*
D13*
G02X2505500Y2286000I225000J0D01*
G01*
G36*
X2941927Y2547427D2*
X2948453Y2546999D1*
X2954868Y2545723D1*
X2961061Y2543621D1*
X2966927Y2540728D1*
X2972365Y2537094D1*
X2977282Y2532782D1*
X2981594Y2527865D1*
X2985228Y2522427D1*
X2988121Y2516561D1*
X2990223Y2510368D1*
X2991499Y2503953D1*
X2991927Y2497427D1*
X2991499Y2490900D1*
X2990223Y2484486D1*
X2988121Y2478292D1*
X2985228Y2472427D1*
X2981594Y2466989D1*
X2977282Y2462071D1*
X2972365Y2457759D1*
X2966927Y2454125D1*
X2961061Y2451233D1*
X2954868Y2449130D1*
X2948453Y2447854D1*
X2941927Y2447427D1*
D1*
X2935400Y2447854D1*
X2928986Y2449130D1*
X2922792Y2451233D1*
X2916927Y2454125D1*
X2911489Y2457759D1*
X2906571Y2462071D1*
X2902259Y2466989D1*
X2898625Y2472427D1*
X2895733Y2478292D1*
X2893630Y2484486D1*
X2892354Y2490900D1*
X2891927Y2497427D1*
X2892354Y2503953D1*
X2893630Y2510368D1*
X2895733Y2516561D1*
X2898625Y2522427D1*
X2902259Y2527865D1*
X2906571Y2532782D1*
X2911489Y2537094D1*
X2916927Y2540728D1*
X2922792Y2543621D1*
X2928986Y2545723D1*
X2935400Y2546999D1*
X2941927Y2547427D1*
D1*
G37*
X4651000Y2714500D2*
D13*
X4556000Y2809500D1*
Y3254500D1*
X4842000D1*
Y2714500D1*
X4651000D1*
X-4651000Y2048000D2*
X-4556000Y1953000D1*
Y1508000D1*
X-4842000D1*
Y2048000D1*
X-4651000D1*
X4747000D2*
X4842000Y1953000D1*
Y1508000D1*
X4556000D1*
Y2048000D1*
X4747000D1*
X4651000Y3921000D2*
X4556000Y4016000D1*
Y4461000D1*
X4842000D1*
Y3921000D1*
X4651000D1*
X-4651000Y841500D2*
X-4556000Y746500D1*
Y301500D1*
X-4842000D1*
Y841500D1*
X-4651000D1*
X4747000D2*
X4842000Y746500D1*
Y301500D1*
X4556000D1*
Y841500D1*
X4747000D1*
X-2769750Y3688250D2*
Y2979250D1*
X-3498750D1*
Y3445750D1*
X-3625750D1*
Y3648750D1*
X-3498750D1*
Y3688250D1*
X-2769750D1*
X-1990750Y3012250D2*
Y2512250D1*
X-2390750D1*
Y2912250D1*
X-2290750Y3012250D1*
X-1990750D1*
X-3590500Y2476500D2*
G02X-3590500Y2476500I225000J0D01*
G01*
G36*
X-3576927Y2215073D2*
X-3583453Y2215501D1*
X-3589868Y2216777D1*
X-3596061Y2218879D1*
X-3601927Y2221772D1*
X-3607365Y2225406D1*
X-3612282Y2229718D1*
X-3616594Y2234635D1*
X-3620228Y2240073D1*
X-3623121Y2245939D1*
X-3625223Y2252132D1*
X-3626499Y2258547D1*
X-3626927Y2265073D1*
X-3626499Y2271600D1*
X-3625223Y2278014D1*
X-3623121Y2284208D1*
X-3620228Y2290073D1*
X-3616594Y2295511D1*
X-3612282Y2300429D1*
X-3607365Y2304741D1*
X-3601927Y2308375D1*
X-3596061Y2311267D1*
X-3589868Y2313370D1*
X-3583453Y2314646D1*
X-3576927Y2315073D1*
D1*
X-3570400Y2314646D1*
X-3563986Y2313370D1*
X-3557792Y2311267D1*
X-3551927Y2308375D1*
X-3546489Y2304741D1*
X-3541571Y2300429D1*
X-3537259Y2295511D1*
X-3533625Y2290073D1*
X-3530733Y2284208D1*
X-3528630Y2278014D1*
X-3527354Y2271600D1*
X-3526927Y2265073D1*
X-3527354Y2258547D1*
X-3528630Y2252132D1*
X-3530733Y2245939D1*
X-3533625Y2240073D1*
X-3537259Y2234635D1*
X-3541571Y2229718D1*
X-3546489Y2225406D1*
X-3551927Y2221772D1*
X-3557792Y2218879D1*
X-3563986Y2216777D1*
X-3570400Y2215501D1*
X-3576927Y2215073D1*
D1*
G37*
X937000Y841500D2*
D13*
X1032000Y746500D1*
Y301500D1*
X746000D1*
Y841500D1*
X937000D1*
M02*
