G04 DipTrace 4.3.0.5*
G04 TopDimension.gbr*
%MOMM*%
G04 #@! TF.FileFunction,Drawing,Top*
G04 #@! TF.Part,Single*
%ADD15C,0.035*%
%ADD114C,0.23529*%
%FSLAX35Y35*%
G04*
G71*
G90*
G75*
G01*
G04 TopDimension*
%LPD*%
X5006877Y-4992253D2*
D15*
X6958000D1*
X5006877Y5007747D2*
X6958000D1*
X6858000Y7747D2*
Y-4792253D1*
G36*
Y-4992253D2*
X6818000Y-4792253D1*
X6898000D1*
X6858000Y-4992253D1*
G37*
Y7747D2*
D15*
Y4807747D1*
G36*
Y5007747D2*
X6898000Y4807747D1*
X6818000D1*
X6858000Y5007747D1*
G37*
X4617503Y-2532253D2*
D15*
X5434000D1*
X4617503Y-508000D2*
X5434000D1*
X5334000Y-1520127D2*
Y-2332253D1*
G36*
Y-2532253D2*
X5294000Y-2332253D1*
X5374000D1*
X5334000Y-2532253D1*
G37*
Y-1520127D2*
D15*
Y-708000D1*
G36*
Y-508000D2*
X5374000Y-708000D1*
X5294000D1*
X5334000Y-508000D1*
G37*
X-4993123Y5007747D2*
D15*
Y6450000D1*
X5006877Y5007747D2*
Y6450000D1*
X6877Y6350000D2*
X-4793123D1*
G36*
X-4993123D2*
X-4793123Y6390000D1*
Y6310000D1*
X-4993123Y6350000D1*
G37*
X6877D2*
D15*
X4806877D1*
G36*
X5006877D2*
X4806877Y6310000D1*
Y6390000D1*
X5006877Y6350000D1*
G37*
X-4699000Y4699000D2*
D15*
Y5434000D1*
X0Y4699000D2*
Y5434000D1*
X-2349500Y5334000D2*
X-4499000D1*
G36*
X-4699000D2*
X-4499000Y5374000D1*
Y5294000D1*
X-4699000Y5334000D1*
G37*
X-2349500D2*
D15*
X-200000D1*
G36*
X0D2*
X-200000Y5294000D1*
Y5374000D1*
X0Y5334000D1*
G37*
Y4699000D2*
D15*
Y5434000D1*
X4699000Y4699000D2*
Y5434000D1*
X2349500Y5334000D2*
X200000D1*
G36*
X0D2*
X200000Y5374000D1*
Y5294000D1*
X0Y5334000D1*
G37*
X2349500D2*
D15*
X4499000D1*
G36*
X4699000D2*
X4499000Y5294000D1*
Y5374000D1*
X4699000Y5334000D1*
G37*
Y4699000D2*
D15*
X5942000D1*
X4712753Y0D2*
X5942000D1*
X5842000Y2349500D2*
Y4499000D1*
G36*
Y4699000D2*
X5882000Y4499000D1*
X5802000D1*
X5842000Y4699000D1*
G37*
Y2349500D2*
D15*
Y200000D1*
G36*
Y0D2*
X5802000Y200000D1*
X5882000D1*
X5842000Y0D1*
G37*
X4699000Y-4699000D2*
D15*
X5942000D1*
X4712753Y0D2*
X5942000D1*
X5842000Y-2349500D2*
Y-4499000D1*
G36*
Y-4699000D2*
X5802000Y-4499000D1*
X5882000D1*
X5842000Y-4699000D1*
G37*
Y-2349500D2*
D15*
Y-200000D1*
G36*
Y0D2*
X5882000Y-200000D1*
X5802000D1*
X5842000Y0D1*
G37*
X-4993123Y-4992253D2*
D15*
X-6958000D1*
X-4699000Y444500D2*
X-6958000D1*
X-6858000Y-2273877D2*
Y-4792253D1*
G36*
Y-4992253D2*
X-6898000Y-4792253D1*
X-6818000D1*
X-6858000Y-4992253D1*
G37*
Y-2273877D2*
D15*
Y244500D1*
G36*
Y444500D2*
X-6818000Y244500D1*
X-6898000D1*
X-6858000Y444500D1*
G37*
X4572000Y6032500D2*
D15*
X5370500D1*
X4699000Y444500D2*
X5370500D1*
X5270500Y3238500D2*
Y5832500D1*
G36*
Y6032500D2*
X5310500Y5832500D1*
X5230500D1*
X5270500Y6032500D1*
G37*
Y3238500D2*
D15*
Y644500D1*
G36*
Y444500D2*
X5230500Y644500D1*
X5310500D1*
X5270500Y444500D1*
G37*
X-4699000Y4064000D2*
D15*
X-5434000D1*
X-4784000Y2857500D2*
X-5434000D1*
X-5334000Y3460750D2*
Y3864000D1*
G36*
Y4064000D2*
X-5294000Y3864000D1*
X-5374000D1*
X-5334000Y4064000D1*
G37*
Y3460750D2*
D15*
Y3057500D1*
G36*
Y2857500D2*
X-5374000Y3057500D1*
X-5294000D1*
X-5334000Y2857500D1*
G37*
Y5514786D2*
D15*
Y4064000D1*
X-4699000Y2857500D2*
X-5815000D1*
X-4699000Y1651000D2*
X-5815000D1*
X-5715000Y2254250D2*
Y2657500D1*
G36*
Y2857500D2*
X-5675000Y2657500D1*
X-5755000D1*
X-5715000Y2857500D1*
G37*
Y2254250D2*
D15*
Y1851000D1*
G36*
Y1651000D2*
X-5755000Y1851000D1*
X-5675000D1*
X-5715000Y1651000D1*
G37*
Y4308286D2*
D15*
Y2857500D1*
X-4699000Y1651000D2*
X-6259500D1*
X-4699000Y444500D2*
X-6259500D1*
X-6159500Y1047750D2*
Y1451000D1*
G36*
Y1651000D2*
X-6119500Y1451000D1*
X-6199500D1*
X-6159500Y1651000D1*
G37*
Y1047750D2*
D15*
Y644500D1*
G36*
Y444500D2*
X-6199500Y644500D1*
X-6119500D1*
X-6159500Y444500D1*
G37*
Y3101786D2*
D15*
Y1651000D1*
X7028342Y445077D2*
D114*
X7035755Y430421D1*
X7057486Y408521D1*
X6904523D1*
X7057486Y317662D2*
X7050242Y339562D1*
X7028342Y354218D1*
X6991955Y361462D1*
X6970055D1*
X6933667Y354218D1*
X6911767Y339562D1*
X6904523Y317662D1*
Y303174D1*
X6911767Y281274D1*
X6933667Y266787D1*
X6970055Y259374D1*
X6991955D1*
X7028342Y266787D1*
X7050242Y281274D1*
X7057486Y303174D1*
Y317662D1*
X7028342Y266787D2*
X6933667Y354218D1*
X7057486Y168516D2*
X7050242Y190416D1*
X7028342Y205072D1*
X6991955Y212316D1*
X6970055D1*
X6933667Y205072D1*
X6911767Y190416D1*
X6904523Y168516D1*
Y154028D1*
X6911767Y132128D1*
X6933667Y117640D1*
X6970055Y110228D1*
X6991955D1*
X7028342Y117640D1*
X7050242Y132128D1*
X7057486Y154028D1*
Y168516D1*
X7028342Y117640D2*
X6933667Y205072D1*
X7006611Y-84967D2*
X6904523D1*
X6977467D2*
X6999367Y-106867D1*
X7006611Y-121523D1*
Y-143254D1*
X6999367Y-157911D1*
X6977467Y-165154D1*
X6904523D1*
X6977467D2*
X6999367Y-187054D1*
X7006611Y-201711D1*
Y-223442D1*
X6999367Y-238098D1*
X6977467Y-245511D1*
X6904523D1*
X7006611Y-292569D2*
X6904523D1*
X6977467D2*
X6999367Y-314469D1*
X7006611Y-329125D1*
Y-350857D1*
X6999367Y-365513D1*
X6977467Y-372757D1*
X6904523D1*
X6977467D2*
X6999367Y-394657D1*
X7006611Y-409313D1*
Y-431045D1*
X6999367Y-445701D1*
X6977467Y-453113D1*
X6904523D1*
X5497098Y-873817D2*
X5504342D1*
X5518998Y-881061D1*
X5526242Y-888305D1*
X5533486Y-902961D1*
Y-932105D1*
X5526242Y-946592D1*
X5518998Y-953836D1*
X5504342Y-961248D1*
X5489855D1*
X5475198Y-953836D1*
X5453467Y-939348D1*
X5380523Y-866405D1*
Y-968492D1*
X5533486Y-1059351D2*
X5526242Y-1037451D1*
X5504342Y-1022795D1*
X5467955Y-1015551D1*
X5446055D1*
X5409667Y-1022795D1*
X5387767Y-1037451D1*
X5380523Y-1059351D1*
Y-1073839D1*
X5387767Y-1095739D1*
X5409667Y-1110226D1*
X5446055Y-1117639D1*
X5467955D1*
X5504342Y-1110226D1*
X5526242Y-1095739D1*
X5533486Y-1073839D1*
Y-1059351D1*
X5504342Y-1110226D2*
X5409667Y-1022795D1*
X5395179Y-1171941D2*
X5387767Y-1164698D1*
X5380523Y-1171941D1*
X5387767Y-1179354D1*
X5395179Y-1171941D1*
X5497098Y-1233825D2*
X5504342D1*
X5518998Y-1241069D1*
X5526242Y-1248313D1*
X5533486Y-1262969D1*
Y-1292113D1*
X5526242Y-1306600D1*
X5518998Y-1313844D1*
X5504342Y-1321256D1*
X5489855D1*
X5475198Y-1313844D1*
X5453467Y-1299356D1*
X5380523Y-1226413D1*
Y-1328500D1*
Y-1448503D2*
X5533486D1*
X5431567Y-1375559D1*
Y-1484891D1*
X5533486Y-1546606D2*
Y-1626625D1*
X5475198Y-1582993D1*
Y-1604893D1*
X5467955Y-1619381D1*
X5460711Y-1626625D1*
X5438811Y-1634037D1*
X5424323D1*
X5402423Y-1626625D1*
X5387767Y-1612137D1*
X5380523Y-1590237D1*
Y-1568337D1*
X5387767Y-1546606D1*
X5395179Y-1539362D1*
X5409667Y-1531949D1*
X5482611Y-1829232D2*
X5380523D1*
X5453467D2*
X5475367Y-1851132D1*
X5482611Y-1865788D1*
Y-1887519D1*
X5475367Y-1902176D1*
X5453467Y-1909419D1*
X5380523D1*
X5453467D2*
X5475367Y-1931319D1*
X5482611Y-1945976D1*
Y-1967707D1*
X5475367Y-1982363D1*
X5453467Y-1989776D1*
X5380523D1*
X5482611Y-2036834D2*
X5380523D1*
X5453467D2*
X5475367Y-2058734D1*
X5482611Y-2073391D1*
Y-2095122D1*
X5475367Y-2109778D1*
X5453467Y-2117022D1*
X5380523D1*
X5453467D2*
X5475367Y-2138922D1*
X5482611Y-2153578D1*
Y-2175310D1*
X5475367Y-2189966D1*
X5453467Y-2197378D1*
X5380523D1*
X-430454Y6520342D2*
X-415798Y6527755D1*
X-393898Y6549486D1*
Y6396523D1*
X-303039Y6549486D2*
X-324939Y6542242D1*
X-339595Y6520342D1*
X-346839Y6483955D1*
Y6462055D1*
X-339595Y6425667D1*
X-324939Y6403767D1*
X-303039Y6396523D1*
X-288551D1*
X-266651Y6403767D1*
X-252163Y6425667D1*
X-244751Y6462055D1*
Y6483955D1*
X-252163Y6520342D1*
X-266651Y6542242D1*
X-288551Y6549486D1*
X-303039D1*
X-252163Y6520342D2*
X-339595Y6425667D1*
X-153892Y6549486D2*
X-175792Y6542242D1*
X-190448Y6520342D1*
X-197692Y6483955D1*
Y6462055D1*
X-190448Y6425667D1*
X-175792Y6403767D1*
X-153892Y6396523D1*
X-139405D1*
X-117505Y6403767D1*
X-103017Y6425667D1*
X-95605Y6462055D1*
Y6483955D1*
X-103017Y6520342D1*
X-117505Y6542242D1*
X-139405Y6549486D1*
X-153892D1*
X-103017Y6520342D2*
X-190448Y6425667D1*
X99590Y6498611D2*
Y6396523D1*
Y6469467D2*
X121490Y6491367D1*
X136146Y6498611D1*
X157878D1*
X172534Y6491367D1*
X179778Y6469467D1*
Y6396523D1*
Y6469467D2*
X201678Y6491367D1*
X216334Y6498611D1*
X238065D1*
X252722Y6491367D1*
X260134Y6469467D1*
Y6396523D1*
X307193Y6498611D2*
Y6396523D1*
Y6469467D2*
X329093Y6491367D1*
X343749Y6498611D1*
X365480D1*
X380137Y6491367D1*
X387380Y6469467D1*
Y6396523D1*
Y6469467D2*
X409280Y6491367D1*
X423937Y6498611D1*
X445668D1*
X460324Y6491367D1*
X467737Y6469467D1*
Y6396523D1*
X-2844755Y5380523D2*
Y5533486D1*
X-2917699Y5431567D1*
X-2808367D1*
X-2673877Y5511755D2*
X-2681121Y5526242D1*
X-2703021Y5533486D1*
X-2717509D1*
X-2739409Y5526242D1*
X-2754065Y5504342D1*
X-2761309Y5467955D1*
Y5431567D1*
X-2754065Y5402423D1*
X-2739409Y5387767D1*
X-2717509Y5380523D1*
X-2710265D1*
X-2688533Y5387767D1*
X-2673877Y5402423D1*
X-2666633Y5424323D1*
Y5431567D1*
X-2673877Y5453467D1*
X-2688533Y5467955D1*
X-2710265Y5475198D1*
X-2717509D1*
X-2739409Y5467955D1*
X-2754065Y5453467D1*
X-2761309Y5431567D1*
X-2612330Y5395179D2*
X-2619574Y5387767D1*
X-2612330Y5380523D1*
X-2604918Y5387767D1*
X-2612330Y5395179D1*
X-2463015Y5482611D2*
X-2470428Y5460711D1*
X-2484915Y5446055D1*
X-2506815Y5438811D1*
X-2514059D1*
X-2535959Y5446055D1*
X-2550447Y5460711D1*
X-2557859Y5482611D1*
Y5489855D1*
X-2550447Y5511755D1*
X-2535959Y5526242D1*
X-2514059Y5533486D1*
X-2506815D1*
X-2484915Y5526242D1*
X-2470428Y5511755D1*
X-2463015Y5482611D1*
Y5446055D1*
X-2470428Y5409667D1*
X-2484915Y5387767D1*
X-2506815Y5380523D1*
X-2521303D1*
X-2543203Y5387767D1*
X-2550447Y5402423D1*
X-2321113Y5482611D2*
X-2328525Y5460711D1*
X-2343013Y5446055D1*
X-2364913Y5438811D1*
X-2372157D1*
X-2394057Y5446055D1*
X-2408544Y5460711D1*
X-2415957Y5482611D1*
Y5489855D1*
X-2408544Y5511755D1*
X-2394057Y5526242D1*
X-2372157Y5533486D1*
X-2364913D1*
X-2343013Y5526242D1*
X-2328525Y5511755D1*
X-2321113Y5482611D1*
Y5446055D1*
X-2328525Y5409667D1*
X-2343013Y5387767D1*
X-2364913Y5380523D1*
X-2379400D1*
X-2401300Y5387767D1*
X-2408544Y5402423D1*
X-2125918Y5482611D2*
Y5380523D1*
Y5453467D2*
X-2104018Y5475367D1*
X-2089362Y5482611D1*
X-2067631D1*
X-2052974Y5475367D1*
X-2045731Y5453467D1*
Y5380523D1*
Y5453467D2*
X-2023831Y5475367D1*
X-2009174Y5482611D1*
X-1987443D1*
X-1972787Y5475367D1*
X-1965374Y5453467D1*
Y5380523D1*
X-1918316Y5482611D2*
Y5380523D1*
Y5453467D2*
X-1896416Y5475367D1*
X-1881759Y5482611D1*
X-1860028D1*
X-1845372Y5475367D1*
X-1838128Y5453467D1*
Y5380523D1*
Y5453467D2*
X-1816228Y5475367D1*
X-1801572Y5482611D1*
X-1779840D1*
X-1765184Y5475367D1*
X-1757772Y5453467D1*
Y5380523D1*
X1854245D2*
Y5533486D1*
X1781301Y5431567D1*
X1890633D1*
X2025123Y5511755D2*
X2017879Y5526242D1*
X1995979Y5533486D1*
X1981491D1*
X1959591Y5526242D1*
X1944935Y5504342D1*
X1937691Y5467955D1*
Y5431567D1*
X1944935Y5402423D1*
X1959591Y5387767D1*
X1981491Y5380523D1*
X1988735D1*
X2010467Y5387767D1*
X2025123Y5402423D1*
X2032367Y5424323D1*
Y5431567D1*
X2025123Y5453467D1*
X2010467Y5467955D1*
X1988735Y5475198D1*
X1981491D1*
X1959591Y5467955D1*
X1944935Y5453467D1*
X1937691Y5431567D1*
X2086670Y5395179D2*
X2079426Y5387767D1*
X2086670Y5380523D1*
X2094082Y5387767D1*
X2086670Y5395179D1*
X2235985Y5482611D2*
X2228572Y5460711D1*
X2214085Y5446055D1*
X2192185Y5438811D1*
X2184941D1*
X2163041Y5446055D1*
X2148553Y5460711D1*
X2141141Y5482611D1*
Y5489855D1*
X2148553Y5511755D1*
X2163041Y5526242D1*
X2184941Y5533486D1*
X2192185D1*
X2214085Y5526242D1*
X2228572Y5511755D1*
X2235985Y5482611D1*
Y5446055D1*
X2228572Y5409667D1*
X2214085Y5387767D1*
X2192185Y5380523D1*
X2177697D1*
X2155797Y5387767D1*
X2148553Y5402423D1*
X2377887Y5482611D2*
X2370475Y5460711D1*
X2355987Y5446055D1*
X2334087Y5438811D1*
X2326843D1*
X2304943Y5446055D1*
X2290456Y5460711D1*
X2283043Y5482611D1*
Y5489855D1*
X2290456Y5511755D1*
X2304943Y5526242D1*
X2326843Y5533486D1*
X2334087D1*
X2355987Y5526242D1*
X2370475Y5511755D1*
X2377887Y5482611D1*
Y5446055D1*
X2370475Y5409667D1*
X2355987Y5387767D1*
X2334087Y5380523D1*
X2319600D1*
X2297700Y5387767D1*
X2290456Y5402423D1*
X2573082Y5482611D2*
Y5380523D1*
Y5453467D2*
X2594982Y5475367D1*
X2609638Y5482611D1*
X2631369D1*
X2646026Y5475367D1*
X2653269Y5453467D1*
Y5380523D1*
Y5453467D2*
X2675169Y5475367D1*
X2689826Y5482611D1*
X2711557D1*
X2726213Y5475367D1*
X2733626Y5453467D1*
Y5380523D1*
X2780684Y5482611D2*
Y5380523D1*
Y5453467D2*
X2802584Y5475367D1*
X2817241Y5482611D1*
X2838972D1*
X2853628Y5475367D1*
X2860872Y5453467D1*
Y5380523D1*
Y5453467D2*
X2882772Y5475367D1*
X2897428Y5482611D1*
X2919160D1*
X2933816Y5475367D1*
X2941228Y5453467D1*
Y5380523D1*
X5888523Y2844755D2*
X6041486D1*
X5939567Y2917699D1*
Y2808367D1*
X6019755Y2673877D2*
X6034242Y2681121D1*
X6041486Y2703021D1*
Y2717509D1*
X6034242Y2739409D1*
X6012342Y2754065D1*
X5975955Y2761309D1*
X5939567D1*
X5910423Y2754065D1*
X5895767Y2739409D1*
X5888523Y2717509D1*
Y2710265D1*
X5895767Y2688533D1*
X5910423Y2673877D1*
X5932323Y2666633D1*
X5939567D1*
X5961467Y2673877D1*
X5975955Y2688533D1*
X5983198Y2710265D1*
Y2717509D1*
X5975955Y2739409D1*
X5961467Y2754065D1*
X5939567Y2761309D1*
X5903179Y2612330D2*
X5895767Y2619574D1*
X5888523Y2612330D1*
X5895767Y2604918D1*
X5903179Y2612330D1*
X5990611Y2463015D2*
X5968711Y2470428D1*
X5954055Y2484915D1*
X5946811Y2506815D1*
Y2514059D1*
X5954055Y2535959D1*
X5968711Y2550447D1*
X5990611Y2557859D1*
X5997855D1*
X6019755Y2550447D1*
X6034242Y2535959D1*
X6041486Y2514059D1*
Y2506815D1*
X6034242Y2484915D1*
X6019755Y2470428D1*
X5990611Y2463015D1*
X5954055D1*
X5917667Y2470428D1*
X5895767Y2484915D1*
X5888523Y2506815D1*
Y2521303D1*
X5895767Y2543203D1*
X5910423Y2550447D1*
X5990611Y2321113D2*
X5968711Y2328525D1*
X5954055Y2343013D1*
X5946811Y2364913D1*
Y2372157D1*
X5954055Y2394057D1*
X5968711Y2408544D1*
X5990611Y2415957D1*
X5997855D1*
X6019755Y2408544D1*
X6034242Y2394057D1*
X6041486Y2372157D1*
Y2364913D1*
X6034242Y2343013D1*
X6019755Y2328525D1*
X5990611Y2321113D1*
X5954055D1*
X5917667Y2328525D1*
X5895767Y2343013D1*
X5888523Y2364913D1*
Y2379400D1*
X5895767Y2401300D1*
X5910423Y2408544D1*
X5990611Y2125918D2*
X5888523D1*
X5961467D2*
X5983367Y2104018D1*
X5990611Y2089362D1*
Y2067631D1*
X5983367Y2052974D1*
X5961467Y2045731D1*
X5888523D1*
X5961467D2*
X5983367Y2023831D1*
X5990611Y2009174D1*
Y1987443D1*
X5983367Y1972787D1*
X5961467Y1965374D1*
X5888523D1*
X5990611Y1918316D2*
X5888523D1*
X5961467D2*
X5983367Y1896416D1*
X5990611Y1881759D1*
Y1860028D1*
X5983367Y1845372D1*
X5961467Y1838128D1*
X5888523D1*
X5961467D2*
X5983367Y1816228D1*
X5990611Y1801572D1*
Y1779840D1*
X5983367Y1765184D1*
X5961467Y1757772D1*
X5888523D1*
Y-1854245D2*
X6041486D1*
X5939567Y-1781301D1*
Y-1890633D1*
X6019755Y-2025123D2*
X6034242Y-2017879D1*
X6041486Y-1995979D1*
Y-1981491D1*
X6034242Y-1959591D1*
X6012342Y-1944935D1*
X5975955Y-1937691D1*
X5939567D1*
X5910423Y-1944935D1*
X5895767Y-1959591D1*
X5888523Y-1981491D1*
Y-1988735D1*
X5895767Y-2010467D1*
X5910423Y-2025123D1*
X5932323Y-2032367D1*
X5939567D1*
X5961467Y-2025123D1*
X5975955Y-2010467D1*
X5983198Y-1988735D1*
Y-1981491D1*
X5975955Y-1959591D1*
X5961467Y-1944935D1*
X5939567Y-1937691D1*
X5903179Y-2086670D2*
X5895767Y-2079426D1*
X5888523Y-2086670D1*
X5895767Y-2094082D1*
X5903179Y-2086670D1*
X5990611Y-2235985D2*
X5968711Y-2228572D1*
X5954055Y-2214085D1*
X5946811Y-2192185D1*
Y-2184941D1*
X5954055Y-2163041D1*
X5968711Y-2148553D1*
X5990611Y-2141141D1*
X5997855D1*
X6019755Y-2148553D1*
X6034242Y-2163041D1*
X6041486Y-2184941D1*
Y-2192185D1*
X6034242Y-2214085D1*
X6019755Y-2228572D1*
X5990611Y-2235985D1*
X5954055D1*
X5917667Y-2228572D1*
X5895767Y-2214085D1*
X5888523Y-2192185D1*
Y-2177697D1*
X5895767Y-2155797D1*
X5910423Y-2148553D1*
X5990611Y-2377887D2*
X5968711Y-2370475D1*
X5954055Y-2355987D1*
X5946811Y-2334087D1*
Y-2326843D1*
X5954055Y-2304943D1*
X5968711Y-2290456D1*
X5990611Y-2283043D1*
X5997855D1*
X6019755Y-2290456D1*
X6034242Y-2304943D1*
X6041486Y-2326843D1*
Y-2334087D1*
X6034242Y-2355987D1*
X6019755Y-2370475D1*
X5990611Y-2377887D1*
X5954055D1*
X5917667Y-2370475D1*
X5895767Y-2355987D1*
X5888523Y-2334087D1*
Y-2319600D1*
X5895767Y-2297700D1*
X5910423Y-2290456D1*
X5990611Y-2573082D2*
X5888523D1*
X5961467D2*
X5983367Y-2594982D1*
X5990611Y-2609638D1*
Y-2631369D1*
X5983367Y-2646026D1*
X5961467Y-2653269D1*
X5888523D1*
X5961467D2*
X5983367Y-2675169D1*
X5990611Y-2689826D1*
Y-2711557D1*
X5983367Y-2726213D1*
X5961467Y-2733626D1*
X5888523D1*
X5990611Y-2780684D2*
X5888523D1*
X5961467D2*
X5983367Y-2802584D1*
X5990611Y-2817241D1*
Y-2838972D1*
X5983367Y-2853628D1*
X5961467Y-2860872D1*
X5888523D1*
X5961467D2*
X5983367Y-2882772D1*
X5990611Y-2897428D1*
Y-2919160D1*
X5983367Y-2933816D1*
X5961467Y-2941228D1*
X5888523D1*
X-7057486Y-2836377D2*
Y-2909152D1*
X-6991955Y-2916396D1*
X-6999198Y-2909152D1*
X-7006611Y-2887252D1*
Y-2865521D1*
X-6999198Y-2843621D1*
X-6984711Y-2828965D1*
X-6962811Y-2821721D1*
X-6948323D1*
X-6926423Y-2828965D1*
X-6911767Y-2843621D1*
X-6904523Y-2865521D1*
Y-2887252D1*
X-6911767Y-2909152D1*
X-6919179Y-2916396D1*
X-6933667Y-2923808D1*
X-6904523Y-2701718D2*
X-7057486D1*
X-6955567Y-2774662D1*
Y-2665330D1*
X-6919179Y-2611028D2*
X-6911767Y-2618272D1*
X-6904523Y-2611028D1*
X-6911767Y-2603615D1*
X-6919179Y-2611028D1*
X-7057486Y-2541900D2*
Y-2461881D1*
X-6999198Y-2505513D1*
Y-2483613D1*
X-6991955Y-2469125D1*
X-6984711Y-2461881D1*
X-6962811Y-2454469D1*
X-6948323D1*
X-6926423Y-2461881D1*
X-6911767Y-2476369D1*
X-6904523Y-2498269D1*
Y-2520169D1*
X-6911767Y-2541900D1*
X-6919179Y-2549144D1*
X-6933667Y-2556557D1*
X-7035755Y-2319978D2*
X-7050242Y-2327222D1*
X-7057486Y-2349122D1*
Y-2363610D1*
X-7050242Y-2385510D1*
X-7028342Y-2400166D1*
X-6991955Y-2407410D1*
X-6955567D1*
X-6926423Y-2400166D1*
X-6911767Y-2385510D1*
X-6904523Y-2363610D1*
Y-2356366D1*
X-6911767Y-2334635D1*
X-6926423Y-2319978D1*
X-6948323Y-2312735D1*
X-6955567D1*
X-6977467Y-2319978D1*
X-6991955Y-2334635D1*
X-6999198Y-2356366D1*
Y-2363610D1*
X-6991955Y-2385510D1*
X-6977467Y-2400166D1*
X-6955567Y-2407410D1*
X-7057486Y-2229288D2*
X-7050242Y-2251020D1*
X-7035755Y-2258432D1*
X-7021098D1*
X-7006611Y-2251020D1*
X-6999198Y-2236532D1*
X-6991955Y-2207388D1*
X-6984711Y-2185488D1*
X-6970055Y-2171000D1*
X-6955567Y-2163757D1*
X-6933667D1*
X-6919179Y-2171000D1*
X-6911767Y-2178244D1*
X-6904523Y-2200144D1*
Y-2229288D1*
X-6911767Y-2251020D1*
X-6919179Y-2258432D1*
X-6933667Y-2265676D1*
X-6955567D1*
X-6970055Y-2258432D1*
X-6984711Y-2243776D1*
X-6991955Y-2222044D1*
X-6999198Y-2192900D1*
X-7006611Y-2178244D1*
X-7021098Y-2171000D1*
X-7035755D1*
X-7050242Y-2178244D1*
X-7057486Y-2200144D1*
Y-2229288D1*
X-7006611Y-1968562D2*
X-6904523D1*
X-6977467D2*
X-6999367Y-1946662D1*
X-7006611Y-1932006D1*
Y-1910274D1*
X-6999367Y-1895618D1*
X-6977467Y-1888374D1*
X-6904523D1*
X-6977467D2*
X-6999367Y-1866474D1*
X-7006611Y-1851818D1*
Y-1830087D1*
X-6999367Y-1815430D1*
X-6977467Y-1808018D1*
X-6904523D1*
X-7006611Y-1760959D2*
X-6904523D1*
X-6977467D2*
X-6999367Y-1739059D1*
X-7006611Y-1724403D1*
Y-1702672D1*
X-6999367Y-1688016D1*
X-6977467Y-1680772D1*
X-6904523D1*
X-6977467D2*
X-6999367Y-1658872D1*
X-7006611Y-1644216D1*
Y-1622484D1*
X-6999367Y-1607828D1*
X-6977467Y-1600416D1*
X-6904523D1*
X5469986Y3726427D2*
Y3799202D1*
X5404455Y3806446D1*
X5411698Y3799202D1*
X5419111Y3777302D1*
Y3755571D1*
X5411698Y3733671D1*
X5397211Y3719015D1*
X5375311Y3711771D1*
X5360823D1*
X5338923Y3719015D1*
X5324267Y3733671D1*
X5317023Y3755571D1*
Y3777302D1*
X5324267Y3799202D1*
X5331679Y3806446D1*
X5346167Y3813858D1*
X5469986Y3577280D2*
Y3650056D1*
X5404455Y3657300D1*
X5411698Y3650056D1*
X5419111Y3628156D1*
Y3606424D1*
X5411698Y3584524D1*
X5397211Y3569868D1*
X5375311Y3562624D1*
X5360823D1*
X5338923Y3569868D1*
X5324267Y3584524D1*
X5317023Y3606424D1*
Y3628156D1*
X5324267Y3650056D1*
X5331679Y3657300D1*
X5346167Y3664712D1*
X5331679Y3508322D2*
X5324267Y3515565D1*
X5317023Y3508322D1*
X5324267Y3500909D1*
X5331679Y3508322D1*
X5469986Y3417463D2*
X5462742Y3439194D1*
X5448255Y3446607D1*
X5433598D1*
X5419111Y3439194D1*
X5411698Y3424707D1*
X5404455Y3395563D1*
X5397211Y3373663D1*
X5382555Y3359175D1*
X5368067Y3351931D1*
X5346167D1*
X5331679Y3359175D1*
X5324267Y3366419D1*
X5317023Y3388319D1*
Y3417463D1*
X5324267Y3439194D1*
X5331679Y3446607D1*
X5346167Y3453850D1*
X5368067D1*
X5382555Y3446607D1*
X5397211Y3431950D1*
X5404455Y3410219D1*
X5411698Y3381075D1*
X5419111Y3366419D1*
X5433598Y3359175D1*
X5448255D1*
X5462742Y3366419D1*
X5469986Y3388319D1*
Y3417463D1*
Y3268485D2*
X5462742Y3290216D1*
X5448255Y3297629D1*
X5433598D1*
X5419111Y3290216D1*
X5411698Y3275729D1*
X5404455Y3246585D1*
X5397211Y3224685D1*
X5382555Y3210197D1*
X5368067Y3202953D1*
X5346167D1*
X5331679Y3210197D1*
X5324267Y3217441D1*
X5317023Y3239341D1*
Y3268485D1*
X5324267Y3290216D1*
X5331679Y3297629D1*
X5346167Y3304872D1*
X5368067D1*
X5382555Y3297629D1*
X5397211Y3282972D1*
X5404455Y3261241D1*
X5411698Y3232097D1*
X5419111Y3217441D1*
X5433598Y3210197D1*
X5448255D1*
X5462742Y3217441D1*
X5469986Y3239341D1*
Y3268485D1*
X5419111Y3007759D2*
X5317023D1*
X5389967D2*
X5411867Y2985859D1*
X5419111Y2971202D1*
Y2949471D1*
X5411867Y2934815D1*
X5389967Y2927571D1*
X5317023D1*
X5389967D2*
X5411867Y2905671D1*
X5419111Y2891015D1*
Y2869283D1*
X5411867Y2854627D1*
X5389967Y2847215D1*
X5317023D1*
X5419111Y2800156D2*
X5317023D1*
X5389967D2*
X5411867Y2778256D1*
X5419111Y2763600D1*
Y2741868D1*
X5411867Y2727212D1*
X5389967Y2719968D1*
X5317023D1*
X5389967D2*
X5411867Y2698068D1*
X5419111Y2683412D1*
Y2661681D1*
X5411867Y2647024D1*
X5389967Y2639612D1*
X5317023D1*
X-5504342Y4299294D2*
X-5511755Y4313950D1*
X-5533486Y4335850D1*
X-5380523D1*
X-5497098Y4390321D2*
X-5504342D1*
X-5518998Y4397565D1*
X-5526242Y4404809D1*
X-5533486Y4419465D1*
Y4448609D1*
X-5526242Y4463097D1*
X-5518998Y4470341D1*
X-5504342Y4477753D1*
X-5489855D1*
X-5475198Y4470341D1*
X-5453467Y4455853D1*
X-5380523Y4382909D1*
Y4484997D1*
X-5395179Y4539299D2*
X-5387767Y4532056D1*
X-5380523Y4539299D1*
X-5387767Y4546712D1*
X-5395179Y4539299D1*
X-5533486Y4637571D2*
X-5526242Y4615671D1*
X-5504342Y4601014D1*
X-5467955Y4593771D1*
X-5446055D1*
X-5409667Y4601014D1*
X-5387767Y4615671D1*
X-5380523Y4637571D1*
Y4652058D1*
X-5387767Y4673958D1*
X-5409667Y4688446D1*
X-5446055Y4695858D1*
X-5467955D1*
X-5504342Y4688446D1*
X-5526242Y4673958D1*
X-5533486Y4652058D1*
Y4637571D1*
X-5504342Y4688446D2*
X-5409667Y4601014D1*
X-5511755Y4830349D2*
X-5526242Y4823105D1*
X-5533486Y4801205D1*
Y4786717D1*
X-5526242Y4764817D1*
X-5504342Y4750161D1*
X-5467955Y4742917D1*
X-5431567D1*
X-5402423Y4750161D1*
X-5387767Y4764817D1*
X-5380523Y4786717D1*
Y4793961D1*
X-5387767Y4815692D1*
X-5402423Y4830349D1*
X-5424323Y4837592D1*
X-5431567D1*
X-5453467Y4830349D1*
X-5467955Y4815692D1*
X-5475198Y4793961D1*
Y4786717D1*
X-5467955Y4764817D1*
X-5453467Y4750161D1*
X-5431567Y4742917D1*
X-5533486Y4972083D2*
Y4899307D1*
X-5467955Y4892064D1*
X-5475198Y4899307D1*
X-5482611Y4921207D1*
Y4942939D1*
X-5475198Y4964839D1*
X-5460711Y4979495D1*
X-5438811Y4986739D1*
X-5424323D1*
X-5402423Y4979495D1*
X-5387767Y4964839D1*
X-5380523Y4942939D1*
Y4921207D1*
X-5387767Y4899307D1*
X-5395179Y4892064D1*
X-5409667Y4884651D1*
X-5482611Y5181934D2*
X-5380523D1*
X-5453467D2*
X-5475367Y5203834D1*
X-5482611Y5218490D1*
Y5240221D1*
X-5475367Y5254877D1*
X-5453467Y5262121D1*
X-5380523D1*
X-5453467D2*
X-5475367Y5284021D1*
X-5482611Y5298677D1*
Y5320409D1*
X-5475367Y5335065D1*
X-5453467Y5342477D1*
X-5380523D1*
X-5482611Y5389536D2*
X-5380523D1*
X-5453467D2*
X-5475367Y5411436D1*
X-5482611Y5426092D1*
Y5447824D1*
X-5475367Y5462480D1*
X-5453467Y5469724D1*
X-5380523D1*
X-5453467D2*
X-5475367Y5491624D1*
X-5482611Y5506280D1*
Y5528012D1*
X-5475367Y5542668D1*
X-5453467Y5550080D1*
X-5380523D1*
X-5885342Y3092794D2*
X-5892755Y3107450D1*
X-5914486Y3129350D1*
X-5761523D1*
X-5878098Y3183821D2*
X-5885342D1*
X-5899998Y3191065D1*
X-5907242Y3198309D1*
X-5914486Y3212965D1*
Y3242109D1*
X-5907242Y3256597D1*
X-5899998Y3263841D1*
X-5885342Y3271253D1*
X-5870855D1*
X-5856198Y3263841D1*
X-5834467Y3249353D1*
X-5761523Y3176409D1*
Y3278497D1*
X-5776179Y3332799D2*
X-5768767Y3325556D1*
X-5761523Y3332799D1*
X-5768767Y3340212D1*
X-5776179Y3332799D1*
X-5914486Y3431071D2*
X-5907242Y3409171D1*
X-5885342Y3394514D1*
X-5848955Y3387271D1*
X-5827055D1*
X-5790667Y3394514D1*
X-5768767Y3409171D1*
X-5761523Y3431071D1*
Y3445558D1*
X-5768767Y3467458D1*
X-5790667Y3481946D1*
X-5827055Y3489358D1*
X-5848955D1*
X-5885342Y3481946D1*
X-5907242Y3467458D1*
X-5914486Y3445558D1*
Y3431071D1*
X-5885342Y3481946D2*
X-5790667Y3394514D1*
X-5892755Y3623849D2*
X-5907242Y3616605D1*
X-5914486Y3594705D1*
Y3580217D1*
X-5907242Y3558317D1*
X-5885342Y3543661D1*
X-5848955Y3536417D1*
X-5812567D1*
X-5783423Y3543661D1*
X-5768767Y3558317D1*
X-5761523Y3580217D1*
Y3587461D1*
X-5768767Y3609192D1*
X-5783423Y3623849D1*
X-5805323Y3631092D1*
X-5812567D1*
X-5834467Y3623849D1*
X-5848955Y3609192D1*
X-5856198Y3587461D1*
Y3580217D1*
X-5848955Y3558317D1*
X-5834467Y3543661D1*
X-5812567Y3536417D1*
X-5914486Y3765583D2*
Y3692807D1*
X-5848955Y3685564D1*
X-5856198Y3692807D1*
X-5863611Y3714707D1*
Y3736439D1*
X-5856198Y3758339D1*
X-5841711Y3772995D1*
X-5819811Y3780239D1*
X-5805323D1*
X-5783423Y3772995D1*
X-5768767Y3758339D1*
X-5761523Y3736439D1*
Y3714707D1*
X-5768767Y3692807D1*
X-5776179Y3685564D1*
X-5790667Y3678151D1*
X-5863611Y3975434D2*
X-5761523D1*
X-5834467D2*
X-5856367Y3997334D1*
X-5863611Y4011990D1*
Y4033721D1*
X-5856367Y4048377D1*
X-5834467Y4055621D1*
X-5761523D1*
X-5834467D2*
X-5856367Y4077521D1*
X-5863611Y4092177D1*
Y4113909D1*
X-5856367Y4128565D1*
X-5834467Y4135977D1*
X-5761523D1*
X-5863611Y4183036D2*
X-5761523D1*
X-5834467D2*
X-5856367Y4204936D1*
X-5863611Y4219592D1*
Y4241324D1*
X-5856367Y4255980D1*
X-5834467Y4263224D1*
X-5761523D1*
X-5834467D2*
X-5856367Y4285124D1*
X-5863611Y4299780D1*
Y4321512D1*
X-5856367Y4336168D1*
X-5834467Y4343580D1*
X-5761523D1*
X-6329842Y1886294D2*
X-6337255Y1900950D1*
X-6358986Y1922850D1*
X-6206023D1*
X-6322598Y1977321D2*
X-6329842D1*
X-6344498Y1984565D1*
X-6351742Y1991809D1*
X-6358986Y2006465D1*
Y2035609D1*
X-6351742Y2050097D1*
X-6344498Y2057341D1*
X-6329842Y2064753D1*
X-6315355D1*
X-6300698Y2057341D1*
X-6278967Y2042853D1*
X-6206023Y1969909D1*
Y2071997D1*
X-6220679Y2126299D2*
X-6213267Y2119056D1*
X-6206023Y2126299D1*
X-6213267Y2133712D1*
X-6220679Y2126299D1*
X-6358986Y2224571D2*
X-6351742Y2202671D1*
X-6329842Y2188014D1*
X-6293455Y2180771D1*
X-6271555D1*
X-6235167Y2188014D1*
X-6213267Y2202671D1*
X-6206023Y2224571D1*
Y2239058D1*
X-6213267Y2260958D1*
X-6235167Y2275446D1*
X-6271555Y2282858D1*
X-6293455D1*
X-6329842Y2275446D1*
X-6351742Y2260958D1*
X-6358986Y2239058D1*
Y2224571D1*
X-6329842Y2275446D2*
X-6235167Y2188014D1*
X-6337255Y2417349D2*
X-6351742Y2410105D1*
X-6358986Y2388205D1*
Y2373717D1*
X-6351742Y2351817D1*
X-6329842Y2337161D1*
X-6293455Y2329917D1*
X-6257067D1*
X-6227923Y2337161D1*
X-6213267Y2351817D1*
X-6206023Y2373717D1*
Y2380961D1*
X-6213267Y2402692D1*
X-6227923Y2417349D1*
X-6249823Y2424592D1*
X-6257067D1*
X-6278967Y2417349D1*
X-6293455Y2402692D1*
X-6300698Y2380961D1*
Y2373717D1*
X-6293455Y2351817D1*
X-6278967Y2337161D1*
X-6257067Y2329917D1*
X-6358986Y2559083D2*
Y2486307D1*
X-6293455Y2479064D1*
X-6300698Y2486307D1*
X-6308111Y2508207D1*
Y2529939D1*
X-6300698Y2551839D1*
X-6286211Y2566495D1*
X-6264311Y2573739D1*
X-6249823D1*
X-6227923Y2566495D1*
X-6213267Y2551839D1*
X-6206023Y2529939D1*
Y2508207D1*
X-6213267Y2486307D1*
X-6220679Y2479064D1*
X-6235167Y2471651D1*
X-6308111Y2768934D2*
X-6206023D1*
X-6278967D2*
X-6300867Y2790834D1*
X-6308111Y2805490D1*
Y2827221D1*
X-6300867Y2841877D1*
X-6278967Y2849121D1*
X-6206023D1*
X-6278967D2*
X-6300867Y2871021D1*
X-6308111Y2885677D1*
Y2907409D1*
X-6300867Y2922065D1*
X-6278967Y2929477D1*
X-6206023D1*
X-6308111Y2976536D2*
X-6206023D1*
X-6278967D2*
X-6300867Y2998436D1*
X-6308111Y3013092D1*
Y3034824D1*
X-6300867Y3049480D1*
X-6278967Y3056724D1*
X-6206023D1*
X-6278967D2*
X-6300867Y3078624D1*
X-6308111Y3093280D1*
Y3115012D1*
X-6300867Y3129668D1*
X-6278967Y3137080D1*
X-6206023D1*
M02*
