M48
METRIC,0000.00
T01C1.0
T02C1.1
%
T01
X+000381Y+000000
X+000381Y-000254
X+000381Y-001207
X+000381Y-001461
X+000381Y-002413
X+000381Y-002667
X+000381Y-003620
X+000381Y-003874
X+001079Y-004191
X+001333Y-004191
X+001588Y-004191
X+001841Y-004191
T02
X+000127Y+000000
X+000127Y-000254
X-000127Y-000254
X-000127Y+000000
X-000381Y+000000
X-000635Y+000000
X-000635Y-000254
X-000381Y-000254
X-000889Y-000254
X-000889Y+000000
X-001143Y+000000
X-001143Y-000254
X-001397Y-000254
X-001397Y+000000
X-001651Y+000000
X-001651Y-000254
X-001905Y-000254
X-001905Y+000000
X-002159Y+000000
X-002159Y-000254
X-002413Y-000254
X-002413Y+000000
X-002667Y+000000
X-002667Y-000254
X-002921Y-000254
X-002921Y+000000
X-003175Y+000000
X-003175Y-000254
X-003429Y-000254
X-003429Y+000000
X-003683Y+000000
X-003683Y-000254
X-003937Y-000254
X-003937Y+000000
X-004191Y+000000
X-004191Y-000254
X-004445Y-000254
X-004445Y+000000
X-004699Y+000000
X-004699Y-000254
X-004699Y-001207
X-004699Y-001461
X-004445Y-001461
X-004445Y-001207
X-004191Y-001207
X-003937Y-001207
X-003937Y-001461
X-003683Y-001461
X-003683Y-001207
X-003429Y-001207
X-003175Y-001207
X-002921Y-001207
X-002921Y-001461
X-003175Y-001461
X-003429Y-001461
X-002667Y-001461
X-002413Y-001461
X-002159Y-001461
X-002159Y-001207
X-002413Y-001207
X-002667Y-001207
X-001905Y-001207
X-001905Y-001461
X-001651Y-001461
X-001397Y-001461
X-001397Y-001207
X-001143Y-001207
X-001143Y-001461
X-000889Y-001461
X-000889Y-001207
X-000635Y-001207
X-000381Y-001207
X-000381Y-001461
X-000635Y-001461
X-000127Y-001461
X-000127Y-001207
X+000127Y-001207
X+000127Y-001461
X+000635Y-001461
X+000635Y-001207
X+000889Y-001207
X+001143Y-001207
X+001143Y-001461
X+001397Y-001461
X+001397Y-001207
X+001651Y-001207
X+001905Y-001207
X+002159Y-001207
X+002159Y-001461
X+001905Y-001461
X+001651Y-001461
X+002413Y-001461
X+002667Y-001461
X+002921Y-001461
X+002921Y-001207
X+002667Y-001207
X+002413Y-001207
X+003175Y-001207
X+003175Y-001461
X+003429Y-001461
X+003683Y-001461
X+003683Y-001207
X+003429Y-001207
X+003937Y-001207
X+003937Y-001461
X+004191Y-001461
X+004191Y-001207
X+004445Y-001207
X+004445Y-001461
X+004699Y-001461
X+004699Y-001207
X+004699Y-000254
X+004699Y+000000
X+004445Y+000000
X+004445Y-000254
X+004191Y-000254
X+004191Y+000000
X+003937Y+000000
X+003937Y-000254
X+003683Y-000254
X+003683Y+000000
X+003429Y+000000
X+003429Y-000254
X+003175Y-000254
X+003175Y+000000
X+002921Y+000000
X+002921Y-000254
X+002667Y-000254
X+002667Y+000000
X+002413Y+000000
X+002413Y-000254
X+002159Y-000254
X+002159Y+000000
X+001905Y+000000
X+001905Y-000254
X+001651Y-000254
X+001651Y+000000
X+001397Y+000000
X+001143Y+000000
X+001143Y-000254
X+001397Y-000254
X+000889Y-000254
X+000889Y+000000
X+000635Y+000000
X+000635Y-000254
X+000889Y-001461
X+000889Y-002413
X+001143Y-002413
X+001143Y-002667
X+001397Y-002667
X+001397Y-002413
X+001651Y-002413
X+001651Y-002667
X+001905Y-002667
X+001905Y-002413
X+002159Y-002413
X+002159Y-002667
X+002413Y-002667
X+002667Y-002667
X+002921Y-002667
X+002921Y-002413
X+002667Y-002413
X+002413Y-002413
X+003175Y-002413
X+003429Y-002413
X+003429Y-002667
X+003683Y-002667
X+003683Y-002413
X+003937Y-002413
X+004191Y-002413
X+004191Y-002667
X+004445Y-002667
X+004445Y-002413
X+004699Y-002413
X+004699Y-002667
X+003937Y-002667
X+003175Y-002667
X+003175Y-003620
X+003429Y-003620
X+003429Y-003874
X+003683Y-003874
X+003683Y-003620
X+003937Y-003620
X+004191Y-003620
X+004191Y-003874
X+004445Y-003874
X+004445Y-003620
X+004699Y-003620
X+004699Y-003874
X+003937Y-003874
X+003175Y-003874
X+002921Y-003874
X+002921Y-003620
X+002667Y-003620
X+002667Y-003874
X+002413Y-003874
X+002413Y-003620
X+002159Y-003620
X+001905Y-003620
X+001905Y-003874
X+002159Y-003874
X+001651Y-003874
X+001651Y-003620
X+001397Y-003620
X+001143Y-003620
X+001143Y-003874
X+001397Y-003874
X+000889Y-003874
X+000889Y-003620
X+000635Y-003620
X+000635Y-003874
X+000127Y-003874
X+000127Y-003620
X-000127Y-003620
X-000127Y-003874
X-000381Y-003874
X-000635Y-003874
X-000635Y-003620
X-000381Y-003620
X-000889Y-003620
X-000889Y-003874
X-001143Y-003874
X-001397Y-003874
X-001651Y-003874
X-001651Y-003620
X-001397Y-003620
X-001143Y-003620
X-001905Y-003620
X-001905Y-003874
X-002159Y-003874
X-002159Y-003620
X-002413Y-003620
X-002413Y-003874
X-002667Y-003874
X-002667Y-003620
X-002921Y-003620
X-003175Y-003620
X-003429Y-003620
X-003429Y-003874
X-003175Y-003874
X-002921Y-003874
X-003683Y-003874
X-003683Y-003620
X-003937Y-003620
X-003937Y-003874
X-004191Y-003874
X-004191Y-003620
X-004445Y-003620
X-004699Y-003620
X-004699Y-003874
X-004445Y-003874
X-004445Y-002667
X-004699Y-002667
X-004699Y-002413
X-004445Y-002413
X-004191Y-002413
X-004191Y-002667
X-003937Y-002667
X-003937Y-002413
X-003683Y-002413
X-003683Y-002667
X-003429Y-002667
X-003175Y-002667
X-002921Y-002667
X-002921Y-002413
X-003175Y-002413
X-003429Y-002413
X-002667Y-002413
X-002667Y-002667
X-002413Y-002667
X-002413Y-002413
X-002159Y-002413
X-002159Y-002667
X-001905Y-002667
X-001905Y-002413
X-001651Y-002413
X-001651Y-002667
X-001397Y-002667
X-001397Y-002413
X-001143Y-002413
X-001143Y-002667
X-000889Y-002667
X-000889Y-002413
X-000635Y-002413
X-000381Y-002413
X-000381Y-002667
X-000635Y-002667
X-000127Y-002667
X+000127Y-002667
X+000127Y-002413
X-000127Y-002413
X+000635Y-002413
X+000635Y-002667
X+000889Y-002667
X-001651Y-001207
X-004191Y-001461
T00
M30
