G04 DipTrace 4.3.0.5*
G04 TopSilk.gbr*
%MOMM*%
G04 #@! TF.FileFunction,Legend,Top*
G04 #@! TF.Part,Single*
%ADD10C,0.25*%
%ADD17C,0.3*%
%ADD33C,0.19608*%
%ADD34C,0.44444*%
%FSLAX35Y35*%
G04*
G71*
G90*
G75*
G01*
G04 TopSilk*
%LPD*%
X254000Y-381000D2*
D10*
Y127000D1*
X-4826000D1*
Y-381000D1*
X254000D1*
Y-1587500D2*
Y-1079500D1*
X-4826000D1*
Y-1587500D1*
X254000D1*
X4826000D2*
Y-1079500D1*
X508000D1*
Y-1587500D1*
X4826000D1*
Y-381000D2*
Y127000D1*
X508000D1*
Y-381000D1*
X4826000D1*
X254000Y-2794000D2*
Y-2286000D1*
X-4826000D1*
Y-2794000D1*
X254000D1*
X4826000D2*
Y-2286000D1*
X508000D1*
Y-2794000D1*
X4826000D1*
X254000Y-4000500D2*
Y-3492500D1*
X-4826000D1*
Y-4000500D1*
X254000D1*
X4826000D2*
Y-3492500D1*
X508000D1*
Y-4000500D1*
X4826000D1*
G36*
X4704797Y-2833877D2*
X4577797Y-3087877D1*
X4831793D1*
D1*
X4704797Y-2833877D1*
G37*
G36*
X132837D2*
X5837Y-3087877D1*
X259837D1*
D1*
X132837Y-2833877D1*
G37*
G36*
X4704797Y-1595627D2*
X4577797Y-1849627D1*
X4831793D1*
D1*
X4704797Y-1595627D1*
G37*
G36*
X164587D2*
X37587Y-1849627D1*
X291587D1*
D1*
X164587Y-1595627D1*
G37*
G36*
X4704797Y-393193D2*
X4577797Y-647190D1*
X4831793D1*
D1*
X4704797Y-393193D1*
G37*
G36*
X132837D2*
X5837Y-647190D1*
X259837D1*
D1*
X132837Y-393193D1*
G37*
G36*
X4704797Y-4040377D2*
X4577797Y-4294377D1*
X4831793D1*
D1*
X4704797Y-4040377D1*
G37*
G36*
X132837D2*
X5837Y-4294377D1*
X259837D1*
D1*
X132837Y-4040377D1*
G37*
G36*
X762000Y-3429000D2*
X1016000D1*
Y-4000500D1*
X762000D1*
Y-3429000D1*
G37*
X571500Y-4254500D2*
D17*
Y-4381500D1*
X508000Y-4318000D2*
X635000D1*
X1968500D2*
X2095500D1*
X-2640869Y-496333D2*
D34*
Y-651767D1*
X-2650528Y-680967D1*
X-2660411Y-690625D1*
X-2679728Y-700508D1*
X-2699269D1*
X-2718586Y-690625D1*
X-2728245Y-680967D1*
X-2738128Y-651767D1*
Y-632450D1*
X-2454722Y-700508D2*
Y-496557D1*
X-2551980Y-632450D1*
X-2406205D1*
X-2161658Y-700508D2*
X-2239599Y-496333D1*
X-2317316Y-700508D1*
X-2288116Y-632450D2*
X-2190858D1*
X2518464Y-496333D2*
Y-651767D1*
X2508806Y-680967D1*
X2498922Y-690625D1*
X2479606Y-700508D1*
X2460064D1*
X2440747Y-690625D1*
X2431089Y-680967D1*
X2421206Y-651767D1*
Y-632450D1*
X2704611Y-700508D2*
Y-496557D1*
X2607353Y-632450D1*
X2753128D1*
X2842017Y-496333D2*
Y-700508D1*
X2929617D1*
X2958817Y-690625D1*
X2968476Y-680967D1*
X2978134Y-661650D1*
Y-632450D1*
X2968476Y-612908D1*
X2958817Y-603250D1*
X2929617Y-593591D1*
X2958817Y-583708D1*
X2968476Y-574050D1*
X2978134Y-554733D1*
Y-535191D1*
X2968476Y-515874D1*
X2958817Y-505991D1*
X2929617Y-496333D1*
X2842017D1*
Y-593591D2*
X2929617D1*
X-2684559Y-2877583D2*
Y-3033017D1*
X-2694218Y-3062217D1*
X-2704101Y-3071875D1*
X-2723418Y-3081758D1*
X-2742959D1*
X-2762276Y-3071875D1*
X-2771935Y-3062217D1*
X-2781818Y-3033017D1*
Y-3013700D1*
X-2585787Y-2926324D2*
Y-2916666D1*
X-2576129Y-2897124D1*
X-2566470Y-2887466D1*
X-2546929Y-2877807D1*
X-2508070D1*
X-2488754Y-2887466D1*
X-2479095Y-2897124D1*
X-2469212Y-2916666D1*
Y-2935983D1*
X-2479095Y-2955524D1*
X-2498412Y-2984500D1*
X-2595670Y-3081758D1*
X-2459554D1*
X-2215006D2*
X-2292948Y-2877583D1*
X-2370665Y-3081758D1*
X-2341465Y-3013700D2*
X-2244206D1*
X2474774Y-2877583D2*
Y-3033017D1*
X2465116Y-3062217D1*
X2455232Y-3071875D1*
X2435916Y-3081758D1*
X2416374D1*
X2397057Y-3071875D1*
X2387399Y-3062217D1*
X2377516Y-3033017D1*
Y-3013700D1*
X2573546Y-2926324D2*
Y-2916666D1*
X2583204Y-2897124D1*
X2592863Y-2887466D1*
X2612404Y-2877807D1*
X2651263D1*
X2670580Y-2887466D1*
X2680238Y-2897124D1*
X2690121Y-2916666D1*
Y-2935983D1*
X2680238Y-2955524D1*
X2660921Y-2984500D1*
X2563663Y-3081758D1*
X2699780D1*
X2788669Y-2877583D2*
Y-3081758D1*
X2876269D1*
X2905469Y-3071875D1*
X2915127Y-3062217D1*
X2924786Y-3042900D1*
Y-3013700D1*
X2915127Y-2994158D1*
X2905469Y-2984500D1*
X2876269Y-2974841D1*
X2905469Y-2964958D1*
X2915127Y-2955300D1*
X2924786Y-2935983D1*
Y-2916441D1*
X2915127Y-2897124D1*
X2905469Y-2887241D1*
X2876269Y-2877583D1*
X2788669D1*
Y-2974841D2*
X2876269D1*
X-2684559Y-1675149D2*
Y-1830583D1*
X-2694218Y-1859783D1*
X-2704101Y-1869442D1*
X-2723418Y-1879325D1*
X-2742959D1*
X-2762276Y-1869442D1*
X-2771935Y-1859783D1*
X-2781818Y-1830583D1*
Y-1811266D1*
X-2576129Y-1675374D2*
X-2469437D1*
X-2527612Y-1753091D1*
X-2498412D1*
X-2479095Y-1762749D1*
X-2469437Y-1772408D1*
X-2459554Y-1801608D1*
Y-1820925D1*
X-2469437Y-1850125D1*
X-2488754Y-1869666D1*
X-2517954Y-1879325D1*
X-2547154D1*
X-2576129Y-1869666D1*
X-2585787Y-1859783D1*
X-2595670Y-1840466D1*
X-2215006Y-1879325D2*
X-2292948Y-1675149D1*
X-2370665Y-1879325D1*
X-2341465Y-1811266D2*
X-2244206D1*
X2474774Y-1675149D2*
Y-1830583D1*
X2465116Y-1859783D1*
X2455232Y-1869442D1*
X2435916Y-1879325D1*
X2416374D1*
X2397057Y-1869442D1*
X2387399Y-1859783D1*
X2377516Y-1830583D1*
Y-1811266D1*
X2583204Y-1675374D2*
X2689897D1*
X2631721Y-1753091D1*
X2660921D1*
X2680238Y-1762749D1*
X2689897Y-1772408D1*
X2699780Y-1801608D1*
Y-1820925D1*
X2689897Y-1850125D1*
X2670580Y-1869666D1*
X2641380Y-1879325D1*
X2612180D1*
X2583204Y-1869666D1*
X2573546Y-1859783D1*
X2563663Y-1840466D1*
X2788669Y-1675149D2*
Y-1879325D1*
X2876269D1*
X2905469Y-1869442D1*
X2915127Y-1859783D1*
X2924786Y-1840466D1*
Y-1811266D1*
X2915127Y-1791725D1*
X2905469Y-1782066D1*
X2876269Y-1772408D1*
X2905469Y-1762525D1*
X2915127Y-1752866D1*
X2924786Y-1733549D1*
Y-1714008D1*
X2915127Y-1694691D1*
X2905469Y-1684808D1*
X2876269Y-1675149D1*
X2788669D1*
Y-1772408D2*
X2876269D1*
X-2640869Y-4115833D2*
Y-4271267D1*
X-2650528Y-4300467D1*
X-2660411Y-4310125D1*
X-2679728Y-4320008D1*
X-2699269D1*
X-2718586Y-4310125D1*
X-2728245Y-4300467D1*
X-2738128Y-4271267D1*
Y-4251950D1*
X-2551980Y-4154916D2*
X-2532439Y-4145033D1*
X-2503239Y-4116057D1*
Y-4320008D1*
X-2258692D2*
X-2336633Y-4115833D1*
X-2414350Y-4320008D1*
X-2385150Y-4251950D2*
X-2287892D1*
X2518464Y-4115833D2*
Y-4271267D1*
X2508806Y-4300467D1*
X2498922Y-4310125D1*
X2479606Y-4320008D1*
X2460064D1*
X2440747Y-4310125D1*
X2431089Y-4300467D1*
X2421206Y-4271267D1*
Y-4251950D1*
X2607353Y-4154916D2*
X2626894Y-4145033D1*
X2656094Y-4116057D1*
Y-4320008D1*
X2744983Y-4115833D2*
Y-4320008D1*
X2832583D1*
X2861783Y-4310125D1*
X2871442Y-4300467D1*
X2881100Y-4281150D1*
Y-4251950D1*
X2871442Y-4232408D1*
X2861783Y-4222750D1*
X2832583Y-4213091D1*
X2861783Y-4203208D1*
X2871442Y-4193550D1*
X2881100Y-4174233D1*
Y-4154691D1*
X2871442Y-4135374D1*
X2861783Y-4125491D1*
X2832583Y-4115833D1*
X2744983D1*
Y-4213091D2*
X2832583D1*
X781164Y-4234215D2*
D33*
X720517D1*
X714481Y-4288825D1*
X720517Y-4282789D1*
X738767Y-4276612D1*
X756877D1*
X775127Y-4282789D1*
X787340Y-4294862D1*
X793377Y-4313112D1*
Y-4325185D1*
X787340Y-4343435D1*
X775127Y-4355648D1*
X756877Y-4361685D1*
X738767D1*
X720517Y-4355648D1*
X714481Y-4349471D1*
X708304Y-4337398D1*
X832593Y-4234075D2*
X881166Y-4361685D1*
X929739Y-4234075D1*
M02*
