G04 DipTrace 4.3.0.5*
G04 1 - Top.gbr*
%MOMM*%
G04 #@! TF.FileFunction,Copper,L1,Top*
G04 #@! TF.Part,Single*
%AMOUTLINE0*
4,1,4,
0.0,1.1243,
1.1243,0.0,
0.0,-1.1243,
-1.1243,0.0,
0.0,1.1243,
0*%
G04 #@! TA.AperFunction,Conductor*
%ADD16C,1.0*%
%ADD17C,0.66*%
%ADD18C,0.3302*%
%ADD19C,1.2*%
%ADD20C,0.6604*%
G04 #@! TA.AperFunction,ComponentPad*
%ADD22C,1.6*%
%ADD24C,1.65*%
%ADD25R,1.1X1.1*%
%ADD26C,1.1*%
%ADD27R,1.6X1.6*%
%ADD28C,1.59*%
%ADD29R,1.71X1.71*%
%ADD30C,1.71*%
%ADD31R,1.7X1.7*%
%ADD32C,1.7*%
%ADD33R,1.69X1.69*%
%ADD34C,1.69*%
%ADD35O,1.905X2.159*%
%ADD36C,1.27*%
%ADD37C,1.27*%
%ADD38R,1.5X1.5*%
%ADD39C,1.5*%
%ADD40C,1.03*%
G04 #@! TA.AperFunction,ViaPad*
%ADD41C,1.016*%
G04 #@! TA.AperFunction,ComponentPad*
%ADD88OUTLINE0*%
%FSLAX35Y35*%
G04*
G71*
G90*
G75*
G01*
G04 Top*
%LPD*%
X-5651493Y3270250D2*
D16*
X-2603500D1*
X-2349500Y3016250D1*
X-4730750Y1428750D2*
D17*
X-4667250D1*
X-4445000Y1651000D1*
X-3841753D1*
X-3619500Y1428747D1*
Y1841500D1*
X-9112250Y-4508500D2*
D18*
X-8096250Y-3492500D1*
Y-2635250D1*
X-7842250Y-2381250D1*
Y-539750D2*
Y-190500D1*
X-8001000Y-31750D1*
X-9112250Y2127250D2*
D19*
X-8001000D1*
Y412750D1*
X-5651493Y3270250D2*
X-6794493Y2127250D1*
X-9112250D1*
X-2603500Y3016250D2*
D18*
X-3048000Y2571750D1*
X-4254500D1*
X-4921250Y1905000D1*
Y-1809760D1*
X-5238717Y-2127227D1*
X-5238723Y-1873227D2*
Y-1841473D1*
X-4984750Y-1587500D1*
Y1968500D1*
X-4286250Y2667000D1*
X-3206750D1*
X-2857500Y3016250D1*
X-3111500D2*
X-3365500Y2762250D1*
X-4356320D1*
X-5048250Y2070320D1*
Y-1428747D1*
X-5238730Y-1619227D1*
X-4381500Y1174750D2*
Y1231703D1*
X-4311453Y1301750D1*
X-3143250D1*
X-2825750Y984250D1*
X-1492250D1*
X-635000Y127000D1*
X-476250D1*
X-4381500Y920750D2*
X-4254500Y1047750D1*
X-3048000D1*
X-2889250Y889000D1*
X-1524000D1*
X-635000Y0D1*
X-349250D1*
X-222250Y127000D1*
X-4381500Y666750D2*
X-4254500Y793750D1*
X-1555750D1*
X-635000Y-127000D1*
X-476250D1*
X-4381500Y412747D2*
Y469703D1*
X-4311453Y539750D1*
X-1428750D1*
X-635000Y-254000D1*
X-349250D1*
X-222250Y-127000D1*
X-4381500Y158747D2*
X-4254497Y285750D1*
X-1301750D1*
X-635000Y-381000D1*
X-476250D1*
X-4381500Y-95250D2*
X-4254500Y31750D1*
X-1174750D1*
X-635000Y-508000D1*
X-349250D1*
X-222250Y-381000D1*
X-4381500Y-349253D2*
X-4254497Y-222250D1*
X-1047750D1*
X-635000Y-635000D1*
X-476250D1*
X-4381500Y-603253D2*
Y-546297D1*
X-4311453Y-476250D1*
X-920750D1*
X-635000Y-762000D1*
X-349250D1*
X-222250Y-635000D1*
X-7810500Y-3429000D2*
D16*
X-7556500D1*
D20*
X-6762679D1*
Y-3397272D1*
X-7461259Y222248D2*
Y-31752D1*
X-7461255D1*
Y-285752D1*
X-7461250D1*
Y-539752D1*
X-7461245D1*
X-8763000Y-1555750D2*
X-8509000D1*
X-8382000Y-1428750D1*
X-7429500D1*
X-7362697Y-1495553D1*
X-7202583D1*
X-7321157D1*
X-7461250Y-1635647D1*
Y-2317750D1*
X-8001000Y-2857500D1*
Y-3238500D1*
X-7810500Y-3429000D1*
X-8763000Y-1555750D2*
Y-2349492D1*
Y-3429000D1*
X-9080500Y-3746500D1*
X-9112250D1*
X-9366250Y-285750D2*
D18*
X-9239250Y-412750D1*
X-9048750D1*
X-8763000Y-698500D1*
Y-793750D1*
X-8001000Y-1555750D2*
X-8032750D1*
X-8191500Y-1714500D1*
Y-3365500D1*
X-9080500Y-4254500D1*
X-9112250D1*
X-9366250Y-539750D2*
X-9525000D1*
X-9652000Y-412750D1*
Y2508250D1*
X-9429750Y2730500D1*
X-6762750D1*
X-5905500Y3587750D1*
X-2571750D1*
X-1746250Y2762250D1*
Y1333500D1*
X-1587500Y1174750D1*
X-1143000D1*
X-889000Y1428750D1*
Y4374953D1*
X-818953Y4445000D1*
X-476250D1*
Y635000D2*
D22*
X-767080D1*
X-772477Y629603D1*
X-476250Y635000D2*
D19*
X-222250D1*
X-8001000Y-285750D2*
D18*
X-8350250Y63500D1*
X-8509000D1*
X-8572500Y0D1*
Y-349250D1*
X-8636000Y-412750D1*
X-8864797D1*
X-8921750Y-355797D1*
Y-228797D1*
X-8991797Y-158750D1*
X-9461500D1*
X-9556750Y-63500D1*
Y2444750D1*
X-9429750Y2571750D1*
X-6667500D1*
X-5778500Y3460750D1*
X-2540000D1*
X-1841500Y2762250D1*
Y1270000D1*
X-1682750Y1111250D1*
X-889000D1*
X-730250Y1270000D1*
Y4127500D1*
X-539750Y4318000D1*
X-349250D1*
X-222250Y4445000D1*
X-7556500Y-2921000D2*
X-7514750D1*
X-7143750Y-3292000D1*
X-7133750D1*
X-6985023Y-3143273D1*
X-6762687D1*
X-6762693Y-2889273D2*
X-7058477D1*
X-7143750Y-2804000D1*
Y-2800547D1*
X-7213797Y-2730500D1*
X-7620000D1*
X-7810500Y-2921000D1*
X-476250Y-4445000D2*
X-635000D1*
X-3619500Y-1460500D1*
Y-857250D1*
X-8763000Y-31750D2*
Y63500D1*
X-8667750Y158750D1*
X-7810500D1*
X-7651750Y0D1*
Y-850703D1*
X-7549953Y-952500D1*
X-7143750D1*
X-6921500Y-730250D1*
X-5683250D1*
X-3365500Y3016250D2*
X-3524250Y2857500D1*
X-4413250D1*
X-5111750Y2159000D1*
Y-1301750D1*
X-5150037Y-1340037D1*
X-5213547D1*
X-5238740Y-1365227D1*
X-222250Y-4445000D2*
X-349250Y-4572000D1*
X-825500D1*
X-4032273Y-1365227D1*
X-4730750D1*
X-7207260Y222253D2*
X-7080300D1*
X-6762777Y-95273D1*
X-7207253Y-31747D2*
X-7080293D1*
X-6762770Y-349273D1*
X-8763000Y-1301750D2*
X-8509000D1*
X-8382000Y-1174750D1*
X-7080230D1*
X-6762753Y-857273D1*
X-8001000Y-1301750D2*
X-6953223D1*
X-6762747Y-1111273D1*
X-9366250Y-1047750D2*
D19*
X-9556750D1*
X-9779000Y-825500D1*
Y2604060D1*
X-9430310Y2952750D1*
X-7556500D1*
X-6508750Y4000500D1*
X-2635250D1*
X-1513524Y2878774D1*
Y1370651D1*
X-9366250Y-1047750D2*
X-9112250D1*
X-7461241Y-793752D2*
D18*
X-7334250Y-666762D1*
Y349250D1*
X-7143750Y539750D1*
X-6610547D1*
X-6508750Y641547D1*
Y1301750D1*
X-6381728Y1428772D1*
X-5238821D1*
X-9112250Y-539750D2*
X-8921750Y-730250D1*
Y-857250D1*
X-8858250Y-920750D1*
X-7747000D1*
X-9527750Y-3214250D2*
X-9500750D1*
X-9302750Y-3016250D1*
Y-2063750D1*
X-9080500Y-1841500D1*
X-8985250D1*
X-8921750Y-1778000D1*
Y-730250D1*
X-5238753Y-857227D2*
X-5460977D1*
X-6350000Y-1746250D1*
X-7199273D1*
X-7202577Y-1749553D1*
X-7207250Y-285748D2*
X-7080286D1*
X-6762761Y-603272D1*
X-5619728D1*
X-5492750Y-730250D1*
X-4507953D2*
X-3492500D1*
X-3302000Y-920750D1*
Y-1460500D1*
X-698500Y-4064000D1*
X-349250D1*
X-222250Y-4191000D1*
X-9588500Y-1841500D2*
Y-2063750D1*
X-9527750Y-2124500D1*
Y-2346758D1*
X-9525000Y-2349508D1*
Y-2561500D1*
X-9527750Y-2564250D1*
X-8477250Y-63500D2*
Y-793750D1*
Y-1009453D2*
X-8438953Y-1047750D1*
X-8001000D1*
X-9366250Y222250D2*
X-9239250Y95250D1*
X-8985250D1*
X-8921750Y31750D1*
Y-127000D1*
X-8763000Y-285750D1*
D41*
X-7842250Y-2381250D3*
Y-539750D3*
X-5683250Y-730250D3*
X-4730750Y-1365227D3*
X-7747000Y-920750D3*
X-5492750Y-730250D3*
X-4507953D3*
X-8477250Y-63500D3*
Y-793750D3*
Y-1009453D3*
D24*
X-5651507Y3778250D3*
X-5651493Y3270250D3*
D25*
X-6540503Y3465500D3*
D26*
X-6540497Y3265500D3*
D24*
X-8509000Y412750D3*
X-8001000D3*
X-5429250Y1873250D3*
X-5937250D3*
D22*
X-9080500Y-1841500D3*
D27*
X-9588500D3*
D24*
X-7810500Y-3429000D3*
Y-2921000D3*
X-7556500Y-3429000D3*
Y-2921000D3*
X-3619500Y1841500D3*
X-4127500D3*
D88*
X-1513524Y1370651D3*
D28*
X-772476Y629603D3*
D29*
X-476250Y127000D3*
D30*
X-222250D3*
X-476250Y-127000D3*
X-222250D3*
X-476250Y-381000D3*
X-222250D3*
X-476250Y-635000D3*
X-222250D3*
X-476250Y-889000D3*
X-222250D3*
X-476250Y-1143000D3*
X-222250D3*
X-476250Y-1397000D3*
X-222250D3*
X-476250Y-1651000D3*
X-222250D3*
X-476250Y-1905000D3*
X-222250D3*
X-476250Y-2159000D3*
X-222250D3*
X-476250Y-2413000D3*
X-222250D3*
X-476250Y-2667000D3*
X-222250D3*
X-476250Y-2921000D3*
X-222250D3*
X-476250Y-3175000D3*
X-222250D3*
X-476250Y-3429000D3*
X-222250D3*
X-476250Y-3683000D3*
X-222250D3*
X-476250Y-3937000D3*
X-222250D3*
X-476250Y-4191000D3*
X-222250D3*
X-476250Y-4445000D3*
X-222250D3*
X-476250Y-4699000D3*
X-222250D3*
D29*
X-476250Y4699000D3*
D30*
X-222250D3*
X-476250Y4445000D3*
X-222250D3*
X-476250Y4191000D3*
X-222250D3*
X-476250Y3937000D3*
X-222250D3*
X-476250Y3683000D3*
X-222250D3*
X-476250Y3429000D3*
X-222250D3*
X-476250Y3175000D3*
X-222250D3*
X-476250Y2921000D3*
X-222250D3*
X-476250Y2667000D3*
X-222250D3*
X-476250Y2413000D3*
X-222250D3*
X-476250Y2159000D3*
X-222250D3*
X-476250Y1905000D3*
X-222250D3*
X-476250Y1651000D3*
X-222250D3*
X-476250Y1397000D3*
X-222250D3*
X-476250Y1143000D3*
X-222250D3*
X-476250Y889000D3*
X-222250D3*
X-476250Y635000D3*
X-222250D3*
D31*
X-7207241Y-793748D3*
D32*
X-7461241Y-793752D3*
X-7207245Y-539748D3*
X-7461245Y-539752D3*
X-7207250Y-285748D3*
X-7461250Y-285752D3*
X-7207255Y-31748D3*
X-7461255Y-31752D3*
X-7207259Y222252D3*
X-7461259Y222248D3*
D33*
X-9366250Y-3746500D3*
D34*
X-9112250D3*
X-9366250Y-4000500D3*
X-9112250D3*
X-9366250Y-4254500D3*
X-9112250D3*
X-9366250Y-4508500D3*
X-9112250D3*
D33*
X-9366250Y476250D3*
D34*
X-9112250D3*
X-9366250Y222250D3*
X-9112250D3*
X-9366250Y-31750D3*
X-9112250D3*
X-9366250Y-285750D3*
X-9112250D3*
X-9366250Y-539750D3*
X-9112250D3*
X-9366250Y-793750D3*
X-9112250D3*
X-9366250Y-1047750D3*
X-9112250D3*
D35*
X-7202583Y-1495553D3*
X-7202573Y-2003550D3*
X-7202577Y-1749553D3*
D36*
X-9525000Y-2349508D3*
D37*
X-8763000Y-2349492D3*
D38*
X-4730750Y1428750D3*
D39*
Y1174750D3*
Y920750D3*
Y666750D3*
Y412750D3*
Y158750D3*
Y-95250D3*
Y-349250D3*
Y-603250D3*
Y-857250D3*
D31*
X-9527750Y-3214250D3*
D32*
X-9077750D3*
Y-2564250D3*
X-9527750D3*
D38*
X-2349500Y4540250D3*
D39*
X-2603500D3*
X-2857500D3*
X-3111500D3*
X-3365500D3*
X-3619500D3*
X-3873500D3*
X-4127500D3*
X-4381500D3*
X-4635500D3*
X-4889500D3*
X-5143500D3*
Y3016250D3*
X-4889500D3*
X-4635500D3*
X-4381500D3*
X-4127500D3*
X-3873500D3*
X-3619500D3*
X-3365500D3*
X-3111500D3*
X-2857500D3*
X-2603500D3*
X-2349500D3*
D38*
X-6762821Y1428728D3*
D39*
X-6762813Y1174728D3*
X-6762806Y920728D3*
X-6762798Y666728D3*
X-6762791Y412728D3*
X-6762783Y158728D3*
X-6762776Y-95272D3*
X-6762769Y-349272D3*
X-6762761Y-603272D3*
X-6762754Y-857272D3*
X-6762746Y-1111272D3*
X-6762739Y-1365272D3*
X-6762731Y-1619272D3*
X-6762724Y-1873272D3*
X-6762716Y-2127272D3*
X-6762709Y-2381272D3*
X-6762701Y-2635272D3*
X-6762694Y-2889272D3*
X-6762686Y-3143272D3*
X-6762679Y-3397272D3*
X-5238679Y-3397228D3*
X-5238686Y-3143228D3*
X-5238694Y-2889228D3*
X-5238701Y-2635228D3*
X-5238709Y-2381228D3*
X-5238716Y-2127228D3*
X-5238724Y-1873228D3*
X-5238731Y-1619228D3*
X-5238739Y-1365228D3*
X-5238746Y-1111228D3*
X-5238754Y-857228D3*
X-5238761Y-603228D3*
X-5238769Y-349228D3*
X-5238776Y-95228D3*
X-5238783Y158772D3*
X-5238791Y412772D3*
X-5238798Y666772D3*
X-5238806Y920772D3*
X-5238813Y1174772D3*
X-5238821Y1428772D3*
D38*
X-8763000Y-31750D3*
D39*
Y-285750D3*
Y-539750D3*
Y-793750D3*
Y-1047750D3*
Y-1301750D3*
Y-1555750D3*
X-8001000D3*
Y-1301750D3*
Y-1047750D3*
Y-793750D3*
Y-539750D3*
Y-285750D3*
Y-31750D3*
D38*
X-4381500Y1428750D3*
D39*
Y1174750D3*
Y920750D3*
Y666750D3*
Y412747D3*
Y158747D3*
Y-95250D3*
Y-349253D3*
Y-603253D3*
Y-857250D3*
X-3619500Y1428747D3*
Y1174747D3*
Y920747D3*
Y666750D3*
Y412747D3*
Y158747D3*
Y-95250D3*
Y-349253D3*
Y-603253D3*
Y-857250D3*
D40*
X-7143750Y-2804000D3*
Y-3292000D3*
D33*
X-9366250Y2381250D3*
D34*
X-9112250D3*
X-9366250Y2127250D3*
X-9112250D3*
X-9366250Y1873250D3*
X-9112250D3*
M02*
