G04 DipTrace 4.3.0.5*
G04 2 - Bottom.gbr*
%MOMM*%
G04 #@! TF.FileFunction,Copper,L2,Bot*
G04 #@! TF.Part,Single*
%AMOUTLINE0*
4,1,4,
0.0,1.1243,
1.1243,0.0,
0.0,-1.1243,
-1.1243,0.0,
0.0,1.1243,
0*%
G04 #@! TA.AperFunction,Conductor*
%ADD16C,1.0*%
%ADD18C,0.3302*%
%ADD19C,1.2*%
%ADD20C,0.6604*%
%ADD21C,0.33*%
G04 #@! TA.AperFunction,ComponentPad*
%ADD22C,1.6*%
%ADD24C,1.65*%
%ADD25R,1.1X1.1*%
%ADD26C,1.1*%
%ADD27R,1.6X1.6*%
%ADD28C,1.59*%
%ADD29R,1.71X1.71*%
%ADD30C,1.71*%
%ADD31R,1.7X1.7*%
%ADD32C,1.7*%
%ADD33R,1.69X1.69*%
%ADD34C,1.69*%
%ADD35O,1.905X2.159*%
%ADD36C,1.27*%
%ADD37C,1.27*%
%ADD38R,1.5X1.5*%
%ADD39C,1.5*%
%ADD40C,1.03*%
G04 #@! TA.AperFunction,ViaPad*
%ADD41C,1.016*%
G04 #@! TA.AperFunction,ComponentPad*
%ADD88OUTLINE0*%
%FSLAX35Y35*%
G04*
G71*
G90*
G75*
G01*
G04 Bottom*
%LPD*%
X-6540497Y3265500D2*
D16*
X-5656243D1*
X-5651493Y3270250D1*
X-8001000Y412750D2*
D18*
Y-31750D1*
X-4730750Y1428750D2*
D19*
Y1873250D1*
X-5651493Y2793993D1*
Y3270250D1*
X-7842250Y-2381250D2*
D18*
Y-539750D1*
X-9366250Y2127250D2*
D19*
X-9112250D1*
X-9366250Y-4508500D2*
D18*
X-9112250D1*
X-9366250Y476250D2*
D19*
X-9525000D1*
X-9620250Y571500D1*
Y2286000D1*
X-9525000Y2381250D1*
X-9366250D1*
X-9112250D1*
X-9366250Y476250D2*
X-9112250D1*
X-3619500Y1174747D2*
D18*
X-1555753Y-889000D1*
X-476250D1*
X-3619500Y920747D2*
X-1682753Y-1016000D1*
X-349250D1*
X-222250Y-889000D1*
X-3619500Y666750D2*
X-1809750Y-1143000D1*
X-476250D1*
X-3619500Y412747D2*
X-1936753Y-1270000D1*
X-349250D1*
X-222250Y-1143000D1*
X-3619500Y158747D2*
X-2063753Y-1397000D1*
X-476250D1*
X-3619500Y-95250D2*
X-2190750Y-1524000D1*
X-349250D1*
X-222250Y-1397000D1*
X-3619500Y-349253D2*
X-2317753Y-1651000D1*
X-476250D1*
X-3619500Y-603253D2*
X-2444753Y-1778000D1*
X-349250D1*
X-222250Y-1651000D1*
X-5238680Y-3397227D2*
X-1238227D1*
X-635000Y-2794000D1*
X-349250D1*
X-222250Y-2667000D1*
X-5238687Y-3143227D2*
X-1111227D1*
X-635000Y-2667000D1*
X-476250D1*
X-5238693Y-2889227D2*
X-984227D1*
X-635000Y-2540000D1*
X-317500D1*
X-222250Y-2444750D1*
Y-2413000D1*
X-5238700Y-2635227D2*
X-888977D1*
X-666750Y-2413000D1*
X-476250D1*
X-5238710Y-2381227D2*
X-730227D1*
X-635000Y-2286000D1*
X-349250D1*
X-222250Y-2159000D1*
X-5238717Y-2127227D2*
X-5111773D1*
X-5080000Y-2159000D1*
X-476250D1*
X-5238723Y-1873227D2*
X-5143523D1*
X-4984750Y-2032000D1*
X-349250D1*
X-222250Y-1905000D1*
X-5238730Y-1619227D2*
X-5111773D1*
X-4826000Y-1905000D1*
X-476250D1*
X-5238813Y1174773D2*
X-5238790Y1174750D1*
X-4730750D1*
X-4381500D1*
X-5238807Y920773D2*
X-5238783Y920750D1*
X-4730750D1*
X-4381500D1*
X-5238800Y666773D2*
X-4730750D1*
Y666750D1*
X-4381500D1*
X-5238790Y412773D2*
X-4730750D1*
Y412750D1*
X-4381500D1*
Y412747D1*
X-5238783Y158773D2*
X-4730750D1*
Y158750D1*
X-4381500D1*
Y158747D1*
X-5238777Y-95227D2*
X-4730750D1*
Y-95250D1*
X-4381500D1*
X-5238770Y-349227D2*
X-5206980D1*
X-5206957Y-349250D1*
X-4730750D1*
X-4381500D1*
Y-349253D1*
X-5238760Y-603227D2*
X-4730750D1*
Y-603250D1*
X-4381500D1*
Y-603253D1*
X-3873500Y3016250D2*
D16*
X-3619500D1*
X-3841750D1*
X-5143500Y4318000D1*
Y4540250D1*
X-4889500Y4794250D1*
X-666750D1*
X-571500Y4699000D1*
X-476250D1*
X-5651507Y3778250D2*
X-5143500Y4286257D1*
Y4540250D1*
X-4381500Y-857250D2*
D19*
X-4222750D1*
X-4127500Y-762000D1*
Y1841500D1*
X-7461245Y-539752D2*
D21*
Y-571505D1*
X-7334250Y-698500D1*
Y-1397000D1*
X-7235697Y-1495553D1*
X-7202583D1*
X-4127500Y1841500D2*
D19*
X-4159250D1*
X-4349750Y2032000D1*
X-4508500D1*
X-5429250Y2952750D1*
Y3555993D1*
X-5651507Y3778250D1*
X-4127500Y1841500D2*
D20*
Y1428750D1*
X-4381500D1*
X-8509000Y412750D2*
D19*
Y539750D1*
X-8286750Y762000D1*
X-7461250D1*
Y222257D1*
X-7461259Y222248D1*
X-9112250Y-793750D2*
D20*
X-8921750Y-984250D1*
Y-1397000D1*
X-8763000Y-1555750D1*
X-5937250Y1873250D2*
D19*
X-6826250D1*
X-7461259Y1238241D1*
Y222248D1*
X-5937250Y1873250D2*
X-6794500D1*
Y3333750D1*
X-6662750Y3465500D1*
X-6540503D1*
X-5651507Y3778250D2*
X-5964257Y3465500D1*
X-6540503D1*
X-9112250Y1873250D2*
X-5937250D1*
X-476250Y4699000D2*
D16*
X-222250D1*
X-9112250Y1873250D2*
D19*
X-9366250D1*
Y-793750D2*
D20*
X-9112250D1*
X-9366250Y-3746500D2*
X-9112250D1*
X-8001000Y-1555750D2*
D18*
X-8128000Y-1428750D1*
Y-920750D1*
X-8001000Y-793750D1*
X-9112250Y-4254500D2*
X-6699250D1*
X-6254750Y-4699000D1*
X-476250D1*
X-9366250Y-4254500D2*
X-9112250D1*
Y-4000500D2*
X-8477250Y-3365500D1*
Y-1333500D1*
X-8763000Y-1047750D1*
X-8636000Y-920750D1*
Y-635000D1*
X-8731250Y-539750D1*
X-8763000D1*
X-9112250Y-4000500D2*
X-6794500D1*
X-6223000Y-4572000D1*
X-349250D1*
X-222250Y-4699000D1*
X-9366250Y-4000500D2*
X-9112250D1*
X-222250Y635000D2*
D19*
X-476250D1*
X-5238747Y-1111227D2*
D18*
X-5206977D1*
X-5080000Y-984250D1*
X-3746500D1*
X-3619500Y-857250D1*
X-5683250Y-730250D2*
X-5302273Y-1111227D1*
X-5238747D1*
X-4730750Y-1365227D2*
X-5238740D1*
X-7207240Y-793747D2*
X-7080247D1*
X-6921500Y-635000D1*
Y10D1*
X-6762783Y158727D1*
X-6762710Y-2381273D2*
X-6730977D1*
X-6413500Y-2698750D1*
Y-4095750D1*
X-6127750Y-4381500D1*
X-984250D1*
X-666750Y-4064000D1*
X-349250D1*
X-222250Y-3937000D1*
X-6762700Y-2635273D2*
X-6737547D1*
X-6508750Y-2864070D1*
Y-4127500D1*
X-6159500Y-4476750D1*
X-952500D1*
X-666750Y-4191000D1*
X-476250D1*
X-6762740Y-1365273D2*
X-6032500Y-2095510D1*
Y-3930453D1*
X-5962453Y-4000500D1*
X-1111250D1*
X-666750Y-3556000D1*
X-349250D1*
X-222250Y-3429000D1*
X-6762730Y-1619273D2*
X-6127750Y-2254253D1*
Y-4000500D1*
X-6032500Y-4095750D1*
X-1079500D1*
X-666750Y-3683000D1*
X-476250D1*
X-6762723Y-1873273D2*
X-6223000Y-2412997D1*
Y-4032250D1*
X-6064250Y-4191000D1*
X-1047750D1*
X-666750Y-3810000D1*
X-349250D1*
X-222250Y-3683000D1*
X-6762717Y-2127273D2*
X-6699227D1*
X-6318250Y-2508250D1*
Y-4064000D1*
X-6096000Y-4286250D1*
X-1016000D1*
X-666750Y-3937000D1*
X-476250D1*
X-6762820Y1428727D2*
X-6096000Y761907D1*
Y-1111250D1*
X-5556250Y-1651000D1*
Y-3454203D1*
X-5486203Y-3524250D1*
X-1238250D1*
X-635000Y-2921000D1*
X-476250D1*
X-6762813Y1174727D2*
X-6730977D1*
X-6223000Y666750D1*
Y-1143000D1*
X-5651500Y-1714500D1*
Y-3549453D1*
X-5581453Y-3619500D1*
X-1206500D1*
X-635000Y-3048000D1*
X-349250D1*
X-222250Y-2921000D1*
X-7461241Y-793752D2*
Y-1744883D1*
X-7202573Y-2003550D1*
X-5238821Y1428772D2*
Y1682821D1*
X-5429250Y1873250D1*
X-7747000Y-920750D2*
X-7588238D1*
X-7461241Y-793752D1*
X-9112250Y222250D2*
X-8293297D1*
X-8223250Y292297D1*
Y451047D1*
X-8071047Y603250D1*
X-7874000D1*
X-7715250Y444500D1*
Y-31750D1*
X-7588250Y-158750D1*
X-7334248D1*
X-7207250Y-285748D1*
X-9588500Y-1841500D2*
Y190500D1*
X-9429750Y349250D1*
X-9239250D1*
X-9112250Y222250D1*
X-5492750Y-730250D2*
X-4507953D1*
X-6762807Y920727D2*
X-6350000Y507923D1*
Y-1206500D1*
X-5746750Y-1809750D1*
Y-3644703D1*
X-5676703Y-3714750D1*
X-1174750D1*
X-635000Y-3175000D1*
X-476250D1*
X-222250D2*
X-285750D1*
X-412750Y-3302000D1*
X-635000D1*
X-1143000Y-3810000D1*
X-5771953D1*
X-5842000Y-3739953D1*
Y-1905000D1*
X-6477000Y-1270000D1*
Y380930D1*
X-6762800Y666727D1*
X-476250Y-3429000D2*
X-666750D1*
X-1143000Y-3905250D1*
X-5867203D1*
X-5937250Y-3835203D1*
Y-2000250D1*
X-6604000Y-1333500D1*
Y285750D1*
X-6730937Y412687D1*
X-6762750D1*
X-6762790Y412727D1*
X-9112250Y-31750D2*
X-8953500Y127000D1*
X-8667750D1*
X-8477250Y-63500D1*
Y-793750D2*
Y-1009453D1*
X-8001000Y-539750D2*
X-7810500Y-349250D1*
Y-222250D1*
X-7874000Y-158750D1*
X-9239250D1*
X-9366250Y-31750D1*
X-2349500Y4540250D2*
Y4445000D1*
X-571500Y2667000D1*
X-476250D1*
X-2603500Y4540250D2*
X-2571750D1*
X-571500Y2540000D1*
X-349250D1*
X-222250Y2667000D1*
X-2857500Y4540250D2*
X-2444750Y4127500D1*
X-2286000D1*
X-571500Y2413000D1*
X-476250D1*
X-3111500Y4540250D2*
X-2603500Y4032250D1*
X-2317750D1*
X-571500Y2286000D1*
X-349250D1*
X-222250Y2413000D1*
X-3365500Y4540250D2*
X-2762250Y3937000D1*
X-2349500D1*
X-571500Y2159000D1*
X-476250D1*
X-3619500Y4540250D2*
X-2921000Y3841750D1*
X-2381250D1*
X-571500Y2032000D1*
X-349250D1*
X-222250Y2159000D1*
X-3873500Y4540250D2*
X-3079750Y3746500D1*
X-2413000D1*
X-571500Y1905000D1*
X-476250D1*
X-4127500Y4540250D2*
X-3238500Y3651250D1*
X-2444750D1*
X-571500Y1778000D1*
X-349250D1*
X-222250Y1905000D1*
X-4381500Y4540250D2*
X-3397250Y3556000D1*
X-2476500D1*
X-571500Y1651000D1*
X-476250D1*
X-4635500Y4540250D2*
X-3556000Y3460750D1*
X-2508250D1*
X-571500Y1524000D1*
X-349250D1*
X-222250Y1651000D1*
X-4889500Y4540250D2*
X-3714750Y3365500D1*
X-2540000D1*
X-571500Y1397000D1*
X-476250D1*
X-5143500Y3016250D2*
X-4603750Y2476500D1*
X-2286000D1*
X-571500Y762000D1*
X-349250D1*
X-222250Y889000D1*
X-4889500Y3016250D2*
X-4445000Y2571750D1*
X-2254250D1*
X-571500Y889000D1*
X-476250D1*
X-4635500Y3016250D2*
X-4286250Y2667000D1*
X-2222500D1*
X-571500Y1016000D1*
X-349250D1*
X-222250Y1143000D1*
X-4381500Y3016250D2*
X-4127500Y2762250D1*
X-2190750D1*
X-571500Y1143000D1*
X-476250D1*
X-4127500Y3016250D2*
X-3968750Y2857500D1*
X-2159000D1*
X-571500Y1270000D1*
X-349250D1*
X-222250Y1397000D1*
D41*
X-7842250Y-2381250D3*
Y-539750D3*
X-5683250Y-730250D3*
X-4730750Y-1365227D3*
X-7747000Y-920750D3*
X-5492750Y-730250D3*
X-4507953D3*
X-8477250Y-63500D3*
Y-793750D3*
Y-1009453D3*
D24*
X-5651507Y3778250D3*
X-5651493Y3270250D3*
D25*
X-6540503Y3465500D3*
D26*
X-6540497Y3265500D3*
D24*
X-8509000Y412750D3*
X-8001000D3*
X-5429250Y1873250D3*
X-5937250D3*
D22*
X-9080500Y-1841500D3*
D27*
X-9588500D3*
D24*
X-7810500Y-3429000D3*
Y-2921000D3*
X-7556500Y-3429000D3*
Y-2921000D3*
X-3619500Y1841500D3*
X-4127500D3*
D88*
X-1513524Y1370651D3*
D28*
X-772476Y629603D3*
D29*
X-476250Y127000D3*
D30*
X-222250D3*
X-476250Y-127000D3*
X-222250D3*
X-476250Y-381000D3*
X-222250D3*
X-476250Y-635000D3*
X-222250D3*
X-476250Y-889000D3*
X-222250D3*
X-476250Y-1143000D3*
X-222250D3*
X-476250Y-1397000D3*
X-222250D3*
X-476250Y-1651000D3*
X-222250D3*
X-476250Y-1905000D3*
X-222250D3*
X-476250Y-2159000D3*
X-222250D3*
X-476250Y-2413000D3*
X-222250D3*
X-476250Y-2667000D3*
X-222250D3*
X-476250Y-2921000D3*
X-222250D3*
X-476250Y-3175000D3*
X-222250D3*
X-476250Y-3429000D3*
X-222250D3*
X-476250Y-3683000D3*
X-222250D3*
X-476250Y-3937000D3*
X-222250D3*
X-476250Y-4191000D3*
X-222250D3*
X-476250Y-4445000D3*
X-222250D3*
X-476250Y-4699000D3*
X-222250D3*
D29*
X-476250Y4699000D3*
D30*
X-222250D3*
X-476250Y4445000D3*
X-222250D3*
X-476250Y4191000D3*
X-222250D3*
X-476250Y3937000D3*
X-222250D3*
X-476250Y3683000D3*
X-222250D3*
X-476250Y3429000D3*
X-222250D3*
X-476250Y3175000D3*
X-222250D3*
X-476250Y2921000D3*
X-222250D3*
X-476250Y2667000D3*
X-222250D3*
X-476250Y2413000D3*
X-222250D3*
X-476250Y2159000D3*
X-222250D3*
X-476250Y1905000D3*
X-222250D3*
X-476250Y1651000D3*
X-222250D3*
X-476250Y1397000D3*
X-222250D3*
X-476250Y1143000D3*
X-222250D3*
X-476250Y889000D3*
X-222250D3*
X-476250Y635000D3*
X-222250D3*
D31*
X-7207241Y-793748D3*
D32*
X-7461241Y-793752D3*
X-7207245Y-539748D3*
X-7461245Y-539752D3*
X-7207250Y-285748D3*
X-7461250Y-285752D3*
X-7207255Y-31748D3*
X-7461255Y-31752D3*
X-7207259Y222252D3*
X-7461259Y222248D3*
D33*
X-9366250Y-3746500D3*
D34*
X-9112250D3*
X-9366250Y-4000500D3*
X-9112250D3*
X-9366250Y-4254500D3*
X-9112250D3*
X-9366250Y-4508500D3*
X-9112250D3*
D33*
X-9366250Y476250D3*
D34*
X-9112250D3*
X-9366250Y222250D3*
X-9112250D3*
X-9366250Y-31750D3*
X-9112250D3*
X-9366250Y-285750D3*
X-9112250D3*
X-9366250Y-539750D3*
X-9112250D3*
X-9366250Y-793750D3*
X-9112250D3*
X-9366250Y-1047750D3*
X-9112250D3*
D35*
X-7202583Y-1495553D3*
X-7202573Y-2003550D3*
X-7202577Y-1749553D3*
D36*
X-9525000Y-2349508D3*
D37*
X-8763000Y-2349492D3*
D38*
X-4730750Y1428750D3*
D39*
Y1174750D3*
Y920750D3*
Y666750D3*
Y412750D3*
Y158750D3*
Y-95250D3*
Y-349250D3*
Y-603250D3*
Y-857250D3*
D31*
X-9527750Y-3214250D3*
D32*
X-9077750D3*
Y-2564250D3*
X-9527750D3*
D38*
X-2349500Y4540250D3*
D39*
X-2603500D3*
X-2857500D3*
X-3111500D3*
X-3365500D3*
X-3619500D3*
X-3873500D3*
X-4127500D3*
X-4381500D3*
X-4635500D3*
X-4889500D3*
X-5143500D3*
Y3016250D3*
X-4889500D3*
X-4635500D3*
X-4381500D3*
X-4127500D3*
X-3873500D3*
X-3619500D3*
X-3365500D3*
X-3111500D3*
X-2857500D3*
X-2603500D3*
X-2349500D3*
D38*
X-6762821Y1428728D3*
D39*
X-6762813Y1174728D3*
X-6762806Y920728D3*
X-6762798Y666728D3*
X-6762791Y412728D3*
X-6762783Y158728D3*
X-6762776Y-95272D3*
X-6762769Y-349272D3*
X-6762761Y-603272D3*
X-6762754Y-857272D3*
X-6762746Y-1111272D3*
X-6762739Y-1365272D3*
X-6762731Y-1619272D3*
X-6762724Y-1873272D3*
X-6762716Y-2127272D3*
X-6762709Y-2381272D3*
X-6762701Y-2635272D3*
X-6762694Y-2889272D3*
X-6762686Y-3143272D3*
X-6762679Y-3397272D3*
X-5238679Y-3397228D3*
X-5238686Y-3143228D3*
X-5238694Y-2889228D3*
X-5238701Y-2635228D3*
X-5238709Y-2381228D3*
X-5238716Y-2127228D3*
X-5238724Y-1873228D3*
X-5238731Y-1619228D3*
X-5238739Y-1365228D3*
X-5238746Y-1111228D3*
X-5238754Y-857228D3*
X-5238761Y-603228D3*
X-5238769Y-349228D3*
X-5238776Y-95228D3*
X-5238783Y158772D3*
X-5238791Y412772D3*
X-5238798Y666772D3*
X-5238806Y920772D3*
X-5238813Y1174772D3*
X-5238821Y1428772D3*
D38*
X-8763000Y-31750D3*
D39*
Y-285750D3*
Y-539750D3*
Y-793750D3*
Y-1047750D3*
Y-1301750D3*
Y-1555750D3*
X-8001000D3*
Y-1301750D3*
Y-1047750D3*
Y-793750D3*
Y-539750D3*
Y-285750D3*
Y-31750D3*
D38*
X-4381500Y1428750D3*
D39*
Y1174750D3*
Y920750D3*
Y666750D3*
Y412747D3*
Y158747D3*
Y-95250D3*
Y-349253D3*
Y-603253D3*
Y-857250D3*
X-3619500Y1428747D3*
Y1174747D3*
Y920747D3*
Y666750D3*
Y412747D3*
Y158747D3*
Y-95250D3*
Y-349253D3*
Y-603253D3*
Y-857250D3*
D40*
X-7143750Y-2804000D3*
Y-3292000D3*
D33*
X-9366250Y2381250D3*
D34*
X-9112250D3*
X-9366250Y2127250D3*
X-9112250D3*
X-9366250Y1873250D3*
X-9112250D3*
M02*
