G04 DipTrace 4.3.0.5*
G04 BottomPaste.gbr*
%MOMM*%
G04 #@! TF.FileFunction,Paste,Bot*
G04 #@! TF.Part,Single*
%AMOUTLINE2*
4,1,4,
0.0,0.98288,
0.98288,0.0,
0.0,-0.98288,
-0.98288,0.0,
0.0,0.98288,
0*%
%ADD38R,1.5X1.5*%
%ADD39C,1.5*%
%ADD55C,0.83*%
%ADD56C,1.3*%
%ADD57R,1.3X1.3*%
%ADD59C,1.07*%
%ADD61C,1.07*%
%ADD63O,1.705X1.959*%
%ADD65C,1.49*%
%ADD67R,1.49X1.49*%
%ADD71C,1.51*%
%ADD73R,1.51X1.51*%
%ADD75C,1.39*%
%ADD77R,1.4X1.4*%
%ADD79C,1.4*%
%ADD80C,0.9*%
%ADD81R,0.9X0.9*%
%ADD83C,1.45*%
%ADD90OUTLINE2*%
%FSLAX35Y35*%
G04*
G71*
G90*
G75*
G01*
G04 BotPaste*
%LPD*%
D83*
X-5651507Y3778250D3*
X-5651493Y3270250D3*
D81*
X-6540503Y3465500D3*
D80*
X-6540497Y3265500D3*
D83*
X-8509000Y412750D3*
X-8001000D3*
X-5429250Y1873250D3*
X-5937250D3*
D79*
X-9080500Y-1841500D3*
D77*
X-9588500D3*
D83*
X-7810500Y-3429000D3*
Y-2921000D3*
X-7556500Y-3429000D3*
Y-2921000D3*
X-3619500Y1841500D3*
X-4127500D3*
D90*
X-1513524Y1370651D3*
D75*
X-772476Y629603D3*
D73*
X-476250Y127000D3*
D71*
X-222250D3*
X-476250Y-127000D3*
X-222250D3*
X-476250Y-381000D3*
X-222250D3*
X-476250Y-635000D3*
X-222250D3*
X-476250Y-889000D3*
X-222250D3*
X-476250Y-1143000D3*
X-222250D3*
X-476250Y-1397000D3*
X-222250D3*
X-476250Y-1651000D3*
X-222250D3*
X-476250Y-1905000D3*
X-222250D3*
X-476250Y-2159000D3*
X-222250D3*
X-476250Y-2413000D3*
X-222250D3*
X-476250Y-2667000D3*
X-222250D3*
X-476250Y-2921000D3*
X-222250D3*
X-476250Y-3175000D3*
X-222250D3*
X-476250Y-3429000D3*
X-222250D3*
X-476250Y-3683000D3*
X-222250D3*
X-476250Y-3937000D3*
X-222250D3*
X-476250Y-4191000D3*
X-222250D3*
X-476250Y-4445000D3*
X-222250D3*
X-476250Y-4699000D3*
X-222250D3*
D73*
X-476250Y4699000D3*
D71*
X-222250D3*
X-476250Y4445000D3*
X-222250D3*
X-476250Y4191000D3*
X-222250D3*
X-476250Y3937000D3*
X-222250D3*
X-476250Y3683000D3*
X-222250D3*
X-476250Y3429000D3*
X-222250D3*
X-476250Y3175000D3*
X-222250D3*
X-476250Y2921000D3*
X-222250D3*
X-476250Y2667000D3*
X-222250D3*
X-476250Y2413000D3*
X-222250D3*
X-476250Y2159000D3*
X-222250D3*
X-476250Y1905000D3*
X-222250D3*
X-476250Y1651000D3*
X-222250D3*
X-476250Y1397000D3*
X-222250D3*
X-476250Y1143000D3*
X-222250D3*
X-476250Y889000D3*
X-222250D3*
X-476250Y635000D3*
X-222250D3*
D38*
X-7207241Y-793748D3*
D39*
X-7461241Y-793752D3*
X-7207245Y-539748D3*
X-7461245Y-539752D3*
X-7207250Y-285748D3*
X-7461250Y-285752D3*
X-7207255Y-31748D3*
X-7461255Y-31752D3*
X-7207259Y222252D3*
X-7461259Y222248D3*
D67*
X-9366250Y-3746500D3*
D65*
X-9112250D3*
X-9366250Y-4000500D3*
X-9112250D3*
X-9366250Y-4254500D3*
X-9112250D3*
X-9366250Y-4508500D3*
X-9112250D3*
D67*
X-9366250Y476250D3*
D65*
X-9112250D3*
X-9366250Y222250D3*
X-9112250D3*
X-9366250Y-31750D3*
X-9112250D3*
X-9366250Y-285750D3*
X-9112250D3*
X-9366250Y-539750D3*
X-9112250D3*
X-9366250Y-793750D3*
X-9112250D3*
X-9366250Y-1047750D3*
X-9112250D3*
D63*
X-7202583Y-1495553D3*
X-7202573Y-2003550D3*
X-7202577Y-1749553D3*
D61*
X-9525000Y-2349508D3*
D59*
X-8763000Y-2349492D3*
D57*
X-4730750Y1428750D3*
D56*
Y1174750D3*
Y920750D3*
Y666750D3*
Y412750D3*
Y158750D3*
Y-95250D3*
Y-349250D3*
Y-603250D3*
Y-857250D3*
D38*
X-9527750Y-3214250D3*
D39*
X-9077750D3*
Y-2564250D3*
X-9527750D3*
D57*
X-2349500Y4540250D3*
D56*
X-2603500D3*
X-2857500D3*
X-3111500D3*
X-3365500D3*
X-3619500D3*
X-3873500D3*
X-4127500D3*
X-4381500D3*
X-4635500D3*
X-4889500D3*
X-5143500D3*
Y3016250D3*
X-4889500D3*
X-4635500D3*
X-4381500D3*
X-4127500D3*
X-3873500D3*
X-3619500D3*
X-3365500D3*
X-3111500D3*
X-2857500D3*
X-2603500D3*
X-2349500D3*
D57*
X-6762821Y1428728D3*
D56*
X-6762813Y1174728D3*
X-6762806Y920728D3*
X-6762798Y666728D3*
X-6762791Y412728D3*
X-6762783Y158728D3*
X-6762776Y-95272D3*
X-6762769Y-349272D3*
X-6762761Y-603272D3*
X-6762754Y-857272D3*
X-6762746Y-1111272D3*
X-6762739Y-1365272D3*
X-6762731Y-1619272D3*
X-6762724Y-1873272D3*
X-6762716Y-2127272D3*
X-6762709Y-2381272D3*
X-6762701Y-2635272D3*
X-6762694Y-2889272D3*
X-6762686Y-3143272D3*
X-6762679Y-3397272D3*
X-5238679Y-3397228D3*
X-5238686Y-3143228D3*
X-5238694Y-2889228D3*
X-5238701Y-2635228D3*
X-5238709Y-2381228D3*
X-5238716Y-2127228D3*
X-5238724Y-1873228D3*
X-5238731Y-1619228D3*
X-5238739Y-1365228D3*
X-5238746Y-1111228D3*
X-5238754Y-857228D3*
X-5238761Y-603228D3*
X-5238769Y-349228D3*
X-5238776Y-95228D3*
X-5238783Y158772D3*
X-5238791Y412772D3*
X-5238798Y666772D3*
X-5238806Y920772D3*
X-5238813Y1174772D3*
X-5238821Y1428772D3*
D57*
X-8763000Y-31750D3*
D56*
Y-285750D3*
Y-539750D3*
Y-793750D3*
Y-1047750D3*
Y-1301750D3*
Y-1555750D3*
X-8001000D3*
Y-1301750D3*
Y-1047750D3*
Y-793750D3*
Y-539750D3*
Y-285750D3*
Y-31750D3*
D57*
X-4381500Y1428750D3*
D56*
Y1174750D3*
Y920750D3*
Y666750D3*
Y412747D3*
Y158747D3*
Y-95250D3*
Y-349253D3*
Y-603253D3*
Y-857250D3*
X-3619500Y1428747D3*
Y1174747D3*
Y920747D3*
Y666750D3*
Y412747D3*
Y158747D3*
Y-95250D3*
Y-349253D3*
Y-603253D3*
Y-857250D3*
D55*
X-7143750Y-2804000D3*
Y-3292000D3*
D67*
X-9366250Y2381250D3*
D65*
X-9112250D3*
X-9366250Y2127250D3*
X-9112250D3*
X-9366250Y1873250D3*
X-9112250D3*
M02*
