M48
METRIC,0000.00
T01C0.486
T02C0.559
T03C0.63
T04C0.7
T05C0.9
T06C1.0
T07C1.06
T08C1.1
T09C1.14
%
T01
X-007842Y-002381
X-007747Y-000921
X-007842Y-000540
X-008477Y-000794
X-008477Y-001009
X-008477Y-000063
X-005683Y-000730
X-005493Y-000730
X-004508Y-000730
X-004731Y-001365
T02
X-009525Y-002350
X-008763Y-002349
T03
X-007144Y-002804
X-007144Y-003292
T04
X-006541Y+003465
X-006540Y+003266
T05
X-009081Y-001842
X-008763Y-001556
X-008763Y-001302
X-008763Y-001048
X-008763Y-000794
X-008763Y-000540
X-008763Y-000286
X-008763Y-000032
X-008001Y-000032
X-008001Y-000286
X-008001Y-000540
X-008001Y-000794
X-008001Y-001048
X-008001Y-001302
X-008001Y-001556
X-006763Y-001619
X-006763Y-001365
X-006763Y-001111
X-006763Y-000857
X-006763Y-000603
X-006763Y-000349
X-006763Y-000095
X-006763Y+000159
X-006763Y+000413
X-006763Y+000667
X-006763Y+000921
X-006763Y+001175
X-006763Y+001429
X-005239Y+001429
X-005239Y+001175
X-005239Y+000921
X-005239Y+000667
X-005239Y+000413
X-005239Y+000159
X-005239Y-000095
X-005239Y-000349
X-005239Y-000603
X-005239Y-000857
X-005239Y-001111
X-005239Y-001365
X-005239Y-001619
X-005239Y-001873
X-005239Y-002127
X-005239Y-002381
X-005239Y-002635
X-005239Y-002889
X-005239Y-003143
X-005239Y-003397
X-006763Y-003397
X-006763Y-003143
X-006763Y-002889
X-006763Y-002635
X-006763Y-002381
X-006763Y-002127
X-006763Y-001873
X-004731Y-000857
X-004731Y-000603
X-004731Y-000349
X-004731Y-000095
X-004731Y+000159
X-004731Y+000413
X-004731Y+000667
X-004731Y+000921
X-004731Y+001175
X-004731Y+001429
X-004381Y+001429
X-004381Y+001175
X-004381Y+000921
X-004381Y+000667
X-004381Y+000413
X-004381Y+000159
X-004381Y-000095
X-004381Y-000349
X-004381Y-000603
X-004381Y-000857
X-003620Y-000857
X-003620Y-000603
X-003620Y-000349
X-003620Y-000095
X-003620Y+000159
X-003620Y+000413
X-003620Y+000667
X-003620Y+000921
X-003620Y+001175
X-003620Y+001429
X-003620Y+003016
X-003366Y+003016
X-003112Y+003016
X-002858Y+003016
X-002604Y+003016
X-002350Y+003016
X-003874Y+003016
X-004127Y+003016
X-004382Y+003016
X-004636Y+003016
X-004889Y+003016
X-005144Y+003016
X-005144Y+004540
X-004889Y+004540
X-004636Y+004540
X-004382Y+004540
X-004127Y+004540
X-003874Y+004540
X-003620Y+004540
X-003366Y+004540
X-003112Y+004540
X-002858Y+004540
X-002604Y+004540
X-002350Y+004540
X-009588Y-001842
T06
X-005652Y+003778
X-005651Y+003270
X-005429Y+001873
X-005937Y+001873
X-004127Y+001841
X-003620Y+001841
X-008001Y+000413
X-008509Y+000413
X-007203Y-001496
X-007203Y-001750
X-007203Y-002004
X-007557Y-002921
X-007811Y-002921
X-007811Y-003429
X-007557Y-003429
X-009078Y-003214
X-009528Y-003214
X-009528Y-002564
X-009078Y-002564
T07
X-001514Y+001371
X-000772Y+000630
T08
X-007207Y-000794
X-007461Y-000794
X-007461Y-000540
X-007207Y-000540
X-007207Y-000286
X-007207Y-000032
X-007461Y-000032
X-007461Y-000286
X-007461Y+000222
X-007207Y+000222
T09
X-000476Y+000127
X-000222Y+000127
X-000222Y-000127
X-000476Y-000127
X-000476Y-000381
X-000222Y-000381
X-000222Y-000635
X-000476Y-000635
X-000476Y-000889
X-000222Y-000889
X-000222Y-001143
X-000222Y-001397
X-000476Y-001397
X-000476Y-001143
X-000476Y-001651
X-000222Y-001651
X-000222Y-001905
X-000476Y-001905
X-000476Y-002159
X-000476Y-002413
X-000222Y-002413
X-000222Y-002667
X-000476Y-002667
X-000476Y-002921
X-000476Y-003175
X-000222Y-003175
X-000222Y-003429
X-000476Y-003429
X-000476Y-003683
X-000222Y-003683
X-000222Y-003937
X-000476Y-003937
X-000476Y-004191
X-000222Y-004191
X-000222Y-004445
X-000476Y-004445
X-000476Y-004699
X-000222Y-004699
X-000222Y-002921
X-000222Y-002159
X-000222Y+000635
X-000476Y+000635
X-000476Y+000889
X-000476Y+001143
X-000476Y+001397
X-000222Y+001397
X-000222Y+001143
X-000222Y+000889
X-000222Y+001651
X-000222Y+001905
X-000222Y+002159
X-000476Y+002159
X-000476Y+001905
X-000476Y+001651
X-000476Y+002413
X-000476Y+002667
X-000222Y+002667
X-000222Y+002921
X-000476Y+002921
X-000476Y+003175
X-000476Y+003429
X-000222Y+003429
X-000222Y+003683
X-000476Y+003683
X-000476Y+003937
X-000476Y+004191
X-000222Y+004191
X-000222Y+004445
X-000476Y+004445
X-000476Y+004699
X-000222Y+004699
X-000222Y+003937
X-000222Y+003175
X-000222Y+002413
X-009112Y+002381
X-009366Y+002381
X-009366Y+002127
X-009112Y+002127
X-009112Y+001873
X-009366Y+001873
X-009366Y+000476
X-009112Y+000476
X-009112Y+000222
X-009366Y+000222
X-009366Y-000032
X-009112Y-000032
X-009112Y-000286
X-009366Y-000286
X-009366Y-000540
X-009112Y-000540
X-009112Y-000794
X-009366Y-000794
X-009366Y-001048
X-009112Y-001048
X-009112Y-003746
X-009366Y-003746
X-009366Y-004000
X-009112Y-004000
X-009112Y-004254
X-009112Y-004508
X-009366Y-004508
X-009366Y-004254
T00
M30
