G04 DipTrace 4.3.0.5*
G04 TopAssembly.gbr*
%MOMM*%
G04 #@! TF.FileFunction,Drawing,Top*
G04 #@! TF.Part,Single*
%ADD13C,0.12*%
%FSLAX35Y35*%
G04*
G71*
G90*
G75*
G01*
G04 TopAssy*
%LPD*%
X-6815500Y3365500D2*
D13*
G02X-6815500Y3365500I275000J0D01*
G01*
G36*
X-6293728Y3662286D2*
X-6287201Y3661859D1*
X-6280787Y3660583D1*
X-6274593Y3658481D1*
X-6268727Y3655588D1*
X-6263289Y3651955D1*
X-6258372Y3647643D1*
X-6254059Y3642725D1*
X-6250426Y3637287D1*
X-6247533Y3631422D1*
X-6245430Y3625229D1*
X-6244154Y3618814D1*
X-6243726Y3612288D1*
X-6244154Y3605761D1*
X-6245430Y3599347D1*
X-6247532Y3593153D1*
X-6250424Y3587287D1*
X-6254058Y3581849D1*
X-6258370Y3576932D1*
X-6263287Y3572619D1*
X-6268725Y3568986D1*
X-6274591Y3566093D1*
X-6280784Y3563990D1*
X-6287199Y3562714D1*
X-6293725Y3562286D1*
D1*
X-6300251Y3562714D1*
X-6306666Y3563990D1*
X-6312859Y3566092D1*
X-6318725Y3568984D1*
X-6324163Y3572618D1*
X-6329081Y3576930D1*
X-6333393Y3581847D1*
X-6337027Y3587285D1*
X-6339920Y3593151D1*
X-6342022Y3599344D1*
X-6343298Y3605759D1*
X-6343726Y3612285D1*
X-6343299Y3618811D1*
X-6342023Y3625226D1*
X-6339921Y3631419D1*
X-6337028Y3637285D1*
X-6333395Y3642723D1*
X-6329083Y3647641D1*
X-6324165Y3651953D1*
X-6318727Y3655587D1*
X-6312862Y3658480D1*
X-6306669Y3660582D1*
X-6300254Y3661858D1*
X-6293728Y3662286D1*
D1*
G37*
X-1422307Y1088515D2*
D13*
X-1295028Y1215794D1*
X-1167749D1*
X-863693Y911738D1*
X-1054612Y720819D1*
X-1422307Y1088515D1*
X-1457309Y1314436D2*
X-1326848Y1183974D1*
X-959152Y816279D2*
X-828691Y685818D1*
X-603250Y154000D2*
X-503250Y254000D1*
X-95250D1*
Y-4826000D1*
X-603250D1*
Y154000D1*
Y4726000D2*
X-503250Y4826000D1*
X-95250D1*
Y508000D1*
X-603250D1*
Y4726000D1*
X-9509250Y-3714500D2*
X-9409250Y-3614500D1*
X-8969250D1*
Y-4640500D1*
X-9509250D1*
Y-3714500D1*
Y508250D2*
X-9409250Y608250D1*
X-8969250D1*
Y-1179750D1*
X-9509250D1*
Y508250D1*
X-6910750Y-2713000D2*
Y-3383000D1*
X-7376750Y-2713000D2*
Y-3383000D1*
X-6910750Y-2713000D2*
G03X-7376750Y-2713000I-233000J0D01*
G01*
X-6910750Y-3383000D2*
G02X-7376750Y-3383000I-233000J0D01*
G01*
X-9509250Y2413250D2*
X-9409250Y2513250D1*
X-8969250D1*
Y1741250D1*
X-9509250D1*
Y2413250D1*
M02*
