G04 DipTrace 4.3.0.5*
G04 TopSilk.gbr*
%MOMM*%
G04 #@! TF.FileFunction,Legend,Top*
G04 #@! TF.Part,Single*
%ADD10C,0.25*%
%ADD13C,0.12*%
%ADD23C,0.1*%
%ADD84C,0.19608*%
%ADD85C,0.15686*%
%ADD86C,0.27778*%
%FSLAX35Y35*%
G04*
G71*
G90*
G75*
G01*
G04 TopSilk*
%LPD*%
X-5776505Y3724127D2*
D10*
X-5758505D1*
X-5544505Y3724133D2*
X-5526505D1*
X-5544495Y3324373D2*
X-5526495D1*
X-5776495Y3324367D2*
X-5758495D1*
X-5526505Y3724133D2*
X-5526495Y3324373D1*
X-5776505Y3724127D2*
X-5776495Y3324367D1*
X-6815500Y3365500D2*
D13*
G02X-6815500Y3365500I275000J0D01*
G01*
G36*
X-6315646Y3615366D2*
X-6312383Y3615152D1*
X-6309176Y3614514D1*
X-6306079Y3613463D1*
X-6303146Y3612017D1*
X-6300427Y3610200D1*
X-6297969Y3608044D1*
X-6295812Y3605585D1*
X-6293995Y3602866D1*
X-6292549Y3599933D1*
X-6291498Y3596837D1*
X-6290860Y3593630D1*
X-6290646Y3590366D1*
X-6290860Y3587103D1*
X-6291497Y3583896D1*
X-6292549Y3580799D1*
X-6293995Y3577866D1*
X-6295812Y3575147D1*
X-6297968Y3572689D1*
X-6300426Y3570532D1*
X-6303145Y3568715D1*
X-6306078Y3567269D1*
X-6309175Y3566218D1*
X-6312382Y3565580D1*
X-6315645Y3565366D1*
D1*
X-6318908Y3565580D1*
X-6322116Y3566217D1*
X-6325212Y3567269D1*
X-6328145Y3568715D1*
X-6330864Y3570532D1*
X-6333323Y3572688D1*
X-6335479Y3575146D1*
X-6337296Y3577865D1*
X-6338743Y3580798D1*
X-6339794Y3583895D1*
X-6340432Y3587102D1*
X-6340646Y3590365D1*
X-6340432Y3593628D1*
X-6339794Y3596836D1*
X-6338743Y3599932D1*
X-6337297Y3602865D1*
X-6335480Y3605584D1*
X-6333324Y3608043D1*
X-6330865Y3610199D1*
X-6328146Y3612016D1*
X-6325213Y3613463D1*
X-6322117Y3614514D1*
X-6318910Y3615152D1*
X-6315646Y3615366D1*
D1*
G37*
X-8454880Y287750D2*
D10*
Y305750D1*
Y519750D2*
Y537750D1*
X-8055120Y519750D2*
Y537750D1*
Y287750D2*
Y305750D1*
X-8454880Y537750D2*
X-8055120D1*
X-8454880Y287750D2*
X-8055120D1*
X-5483370Y1998250D2*
Y1980250D1*
Y1766250D2*
Y1748250D1*
X-5883130Y1766250D2*
Y1748250D1*
Y1998250D2*
Y1980250D1*
X-5483370Y1748250D2*
X-5883130D1*
X-5483370Y1998250D2*
X-5883130D1*
X-9794520Y-1871523D2*
Y-1811477D1*
X-9824483Y-1841500D2*
X-9764470D1*
X-9334520Y-2222500D2*
X-9334483D1*
G03X-9334483Y-1460500I0J381000D01*
G01*
X-9334520D1*
G03X-9334520Y-2222500I0J-381000D01*
G01*
X-7685500Y-3374880D2*
X-7703500D1*
X-7917500D2*
X-7935500D1*
X-7917500Y-2975120D2*
X-7935500D1*
X-7685500D2*
X-7703500D1*
X-7935500Y-3374880D2*
Y-2975120D1*
X-7685500Y-3374880D2*
Y-2975120D1*
X-7431500Y-3374880D2*
X-7449500D1*
X-7663500D2*
X-7681500D1*
X-7663500Y-2975120D2*
X-7681500D1*
X-7431500D2*
X-7449500D1*
X-7681500Y-3374880D2*
Y-2975120D1*
X-7431500Y-3374880D2*
Y-2975120D1*
X-3673620Y1966500D2*
Y1948500D1*
Y1734500D2*
Y1716500D1*
X-4073380Y1734500D2*
Y1716500D1*
Y1966500D2*
Y1948500D1*
X-3673620Y1716500D2*
X-4073380D1*
X-3673620Y1966500D2*
X-4073380D1*
X-1169870Y1217916D2*
D13*
X-1231388Y1279434D1*
X-1422307Y1088515D1*
X-1360789Y1026997D1*
X-925211Y973257D2*
X-863693Y911738D1*
X-1054612Y720819D1*
X-1116130Y782338D1*
X-1444935Y1302061D2*
X-1326848Y1183974D1*
X-959152Y816279D2*
X-841065Y698192D1*
G36*
X-1448470Y1471060D2*
X-1446011Y1473216D1*
X-1443292Y1475033D1*
X-1440360Y1476479D1*
X-1437263Y1477530D1*
X-1434056Y1478168D1*
X-1430792Y1478382D1*
X-1427529Y1478168D1*
X-1424322Y1477530D1*
X-1421225Y1476479D1*
X-1418292Y1475033D1*
X-1415573Y1473216D1*
X-1413115Y1471060D1*
X-1410959Y1468601D1*
X-1409142Y1465882D1*
X-1407695Y1462949D1*
X-1406644Y1459853D1*
X-1406006Y1456645D1*
X-1405792Y1453382D1*
X-1406006Y1450119D1*
X-1406644Y1446912D1*
X-1407695Y1443815D1*
X-1409142Y1440882D1*
X-1410959Y1438163D1*
X-1413115Y1435704D1*
D1*
X-1415573Y1433548D1*
X-1418292Y1431731D1*
X-1421225Y1430285D1*
X-1424322Y1429234D1*
X-1427529Y1428596D1*
X-1430792Y1428382D1*
X-1434056Y1428596D1*
X-1437263Y1429234D1*
X-1440360Y1430285D1*
X-1443292Y1431731D1*
X-1446011Y1433548D1*
X-1448470Y1435704D1*
X-1450626Y1438163D1*
X-1452443Y1440882D1*
X-1453889Y1443815D1*
X-1454941Y1446912D1*
X-1455579Y1450119D1*
X-1455792Y1453382D1*
X-1455579Y1456645D1*
X-1454941Y1459853D1*
X-1453889Y1462949D1*
X-1452443Y1465882D1*
X-1450626Y1468601D1*
X-1448470Y1471060D1*
D1*
G37*
X-95250Y254000D2*
D13*
X-603250D1*
Y-4826000D1*
X-95250D1*
Y254000D1*
G36*
X-646250Y152000D2*
X-642987Y151786D1*
X-639780Y151148D1*
X-636683Y150097D1*
X-633750Y148651D1*
X-631031Y146834D1*
X-628572Y144678D1*
X-626416Y142219D1*
X-624599Y139500D1*
X-623153Y136567D1*
X-622102Y133470D1*
X-621464Y130263D1*
X-621250Y127000D1*
X-621464Y123737D1*
X-622102Y120530D1*
X-623153Y117433D1*
X-624599Y114500D1*
X-626416Y111781D1*
X-628572Y109322D1*
X-631031Y107166D1*
X-633750Y105349D1*
X-636683Y103903D1*
X-639780Y102852D1*
X-642987Y102214D1*
X-646250Y102000D1*
D1*
X-649513Y102214D1*
X-652720Y102852D1*
X-655817Y103903D1*
X-658750Y105349D1*
X-661469Y107166D1*
X-663928Y109322D1*
X-666084Y111781D1*
X-667901Y114500D1*
X-669347Y117433D1*
X-670398Y120530D1*
X-671036Y123737D1*
X-671250Y127000D1*
X-671036Y130263D1*
X-670398Y133470D1*
X-669347Y136567D1*
X-667901Y139500D1*
X-666084Y142219D1*
X-663928Y144678D1*
X-661469Y146834D1*
X-658750Y148651D1*
X-655817Y150097D1*
X-652720Y151148D1*
X-649513Y151786D1*
X-646250Y152000D1*
D1*
G37*
X-95250Y4826000D2*
D13*
X-603250D1*
Y508000D1*
X-95250D1*
Y4826000D1*
G36*
X-646250Y4724000D2*
X-642987Y4723786D1*
X-639780Y4723148D1*
X-636683Y4722097D1*
X-633750Y4720651D1*
X-631031Y4718834D1*
X-628572Y4716678D1*
X-626416Y4714219D1*
X-624599Y4711500D1*
X-623153Y4708567D1*
X-622102Y4705470D1*
X-621464Y4702263D1*
X-621250Y4699000D1*
X-621464Y4695737D1*
X-622102Y4692530D1*
X-623153Y4689433D1*
X-624599Y4686500D1*
X-626416Y4683781D1*
X-628572Y4681322D1*
X-631031Y4679166D1*
X-633750Y4677349D1*
X-636683Y4675903D1*
X-639780Y4674852D1*
X-642987Y4674214D1*
X-646250Y4674000D1*
D1*
X-649513Y4674214D1*
X-652720Y4674852D1*
X-655817Y4675903D1*
X-658750Y4677349D1*
X-661469Y4679166D1*
X-663928Y4681322D1*
X-666084Y4683781D1*
X-667901Y4686500D1*
X-669347Y4689433D1*
X-670398Y4692530D1*
X-671036Y4695737D1*
X-671250Y4699000D1*
X-671036Y4702263D1*
X-670398Y4705470D1*
X-669347Y4708567D1*
X-667901Y4711500D1*
X-666084Y4714219D1*
X-663928Y4716678D1*
X-661469Y4718834D1*
X-658750Y4720651D1*
X-655817Y4722097D1*
X-652720Y4723148D1*
X-649513Y4723786D1*
X-646250Y4724000D1*
D1*
G37*
X-7588238Y-920755D2*
D10*
X-7080238Y-920745D1*
X-7080262Y349255D1*
X-7588262Y349245D1*
X-7588238Y-920755D1*
X-8969250Y-3614500D2*
D13*
X-9509250D1*
Y-4640500D1*
X-8969250D1*
Y-3614500D1*
G36*
X-9552250Y-3721500D2*
X-9548987Y-3721714D1*
X-9545780Y-3722352D1*
X-9542683Y-3723403D1*
X-9539750Y-3724849D1*
X-9537031Y-3726666D1*
X-9534572Y-3728822D1*
X-9532416Y-3731281D1*
X-9530599Y-3734000D1*
X-9529153Y-3736933D1*
X-9528102Y-3740030D1*
X-9527464Y-3743237D1*
X-9527250Y-3746500D1*
X-9527464Y-3749763D1*
X-9528102Y-3752970D1*
X-9529153Y-3756067D1*
X-9530599Y-3759000D1*
X-9532416Y-3761719D1*
X-9534572Y-3764178D1*
X-9537031Y-3766334D1*
X-9539750Y-3768151D1*
X-9542683Y-3769597D1*
X-9545780Y-3770648D1*
X-9548987Y-3771286D1*
X-9552250Y-3771500D1*
D1*
X-9555513Y-3771286D1*
X-9558720Y-3770648D1*
X-9561817Y-3769597D1*
X-9564750Y-3768151D1*
X-9567469Y-3766334D1*
X-9569928Y-3764178D1*
X-9572084Y-3761719D1*
X-9573901Y-3759000D1*
X-9575347Y-3756067D1*
X-9576398Y-3752970D1*
X-9577036Y-3749763D1*
X-9577250Y-3746500D1*
X-9577036Y-3743237D1*
X-9576398Y-3740030D1*
X-9575347Y-3736933D1*
X-9573901Y-3734000D1*
X-9572084Y-3731281D1*
X-9569928Y-3728822D1*
X-9567469Y-3726666D1*
X-9564750Y-3724849D1*
X-9561817Y-3723403D1*
X-9558720Y-3722352D1*
X-9555513Y-3721714D1*
X-9552250Y-3721500D1*
D1*
G37*
X-8969250Y608250D2*
D13*
X-9509250D1*
Y-1179750D1*
X-8969250D1*
Y608250D1*
G36*
X-9552250Y501250D2*
X-9548987Y501036D1*
X-9545780Y500398D1*
X-9542683Y499347D1*
X-9539750Y497901D1*
X-9537031Y496084D1*
X-9534572Y493928D1*
X-9532416Y491469D1*
X-9530599Y488750D1*
X-9529153Y485817D1*
X-9528102Y482720D1*
X-9527464Y479513D1*
X-9527250Y476250D1*
X-9527464Y472987D1*
X-9528102Y469780D1*
X-9529153Y466683D1*
X-9530599Y463750D1*
X-9532416Y461031D1*
X-9534572Y458572D1*
X-9537031Y456416D1*
X-9539750Y454599D1*
X-9542683Y453153D1*
X-9545780Y452102D1*
X-9548987Y451464D1*
X-9552250Y451250D1*
D1*
X-9555513Y451464D1*
X-9558720Y452102D1*
X-9561817Y453153D1*
X-9564750Y454599D1*
X-9567469Y456416D1*
X-9569928Y458572D1*
X-9572084Y461031D1*
X-9573901Y463750D1*
X-9575347Y466683D1*
X-9576398Y469780D1*
X-9577036Y472987D1*
X-9577250Y476250D1*
X-9577036Y479513D1*
X-9576398Y482720D1*
X-9575347Y485817D1*
X-9573901Y488750D1*
X-9572084Y491469D1*
X-9569928Y493928D1*
X-9567469Y496084D1*
X-9564750Y497901D1*
X-9561817Y499347D1*
X-9558720Y500398D1*
X-9555513Y501036D1*
X-9552250Y501250D1*
D1*
G37*
X-7016763Y-1238245D2*
D10*
X-7397763Y-1238255D1*
X-7016737Y-2254245D2*
X-7397737Y-2254255D1*
X-9347582Y-2273304D2*
X-9347578Y-2425704D1*
X-8940422Y-2273296D2*
X-9347582Y-2273304D1*
X-8940422Y-2273296D2*
X-8940418Y-2425696D1*
X-9347578Y-2425704D1*
X-4610750Y1555750D2*
X-4850750D1*
Y-984250D1*
X-4610750D1*
Y1555750D1*
X-9482740Y-2889250D2*
G02X-9482740Y-2889250I179990J0D01*
G01*
X-9002733Y-3119260D2*
Y-2659240D1*
X-9202683Y-2589213D2*
X-9402757D1*
X-9602767Y-2659240D2*
Y-3079243D1*
X-9402757Y-3189287D2*
X-9202683D1*
X-9302750Y-3039227D2*
X-9302687D1*
G03X-9302687Y-2739273I0J149977D01*
G01*
X-9302750D1*
G03X-9302750Y-3039227I0J-149977D01*
G01*
X-2126500Y3138280D2*
X-5366500D1*
X-2126500Y4418220D2*
X-5366500D1*
Y3138280D2*
Y4418220D1*
X-2126500D2*
Y3858267D1*
Y3138280D2*
Y3698233D1*
Y3858267D2*
G03X-2126500Y3698233I-10J-80017D01*
G01*
X-6640795Y1565511D2*
X-6640645Y-3534269D1*
X-5360705Y-3534231D1*
X-5360855Y1565549D2*
X-5360705Y-3534231D1*
X-6640795Y1575731D2*
X-6080842Y1575748D1*
X-5360855Y1575769D2*
X-5920808Y1575752D1*
X-6080842Y1575748D2*
G03X-5920808Y1575752I80017J303D01*
G01*
X-8121990Y186250D2*
Y-1773750D1*
X-8642010D2*
X-8121990D1*
X-8642010Y186250D2*
Y-1773750D1*
Y186250D2*
X-8442010D1*
X-8121990D2*
X-8321990D1*
X-8442010D2*
G03X-8321990Y186250I60010J33D01*
G01*
X-3740490Y1585750D2*
Y-1014250D1*
X-4260510D2*
X-3740490D1*
X-4260510Y1585750D2*
Y-1014250D1*
Y1585750D2*
X-4060510D1*
X-3740490D2*
X-3940490D1*
X-4060510D2*
G03X-3940490Y1585750I60010J210D01*
G01*
X-6910750Y-2713000D2*
D13*
Y-3383000D1*
X-7376750Y-2713000D2*
Y-3383000D1*
X-6910750Y-2713000D2*
G03X-7376750Y-2713000I-233000J0D01*
G01*
X-6910750Y-3383000D2*
G02X-7376750Y-3383000I-233000J0D01*
G01*
X-8969250Y2513250D2*
X-9509250D1*
Y1741250D1*
X-8969250D1*
Y2513250D1*
G36*
X-9552250Y2406250D2*
X-9548987Y2406036D1*
X-9545780Y2405398D1*
X-9542683Y2404347D1*
X-9539750Y2402901D1*
X-9537031Y2401084D1*
X-9534572Y2398928D1*
X-9532416Y2396469D1*
X-9530599Y2393750D1*
X-9529153Y2390817D1*
X-9528102Y2387720D1*
X-9527464Y2384513D1*
X-9527250Y2381250D1*
X-9527464Y2377987D1*
X-9528102Y2374780D1*
X-9529153Y2371683D1*
X-9530599Y2368750D1*
X-9532416Y2366031D1*
X-9534572Y2363572D1*
X-9537031Y2361416D1*
X-9539750Y2359599D1*
X-9542683Y2358153D1*
X-9545780Y2357102D1*
X-9548987Y2356464D1*
X-9552250Y2356250D1*
D1*
X-9555513Y2356464D1*
X-9558720Y2357102D1*
X-9561817Y2358153D1*
X-9564750Y2359599D1*
X-9567469Y2361416D1*
X-9569928Y2363572D1*
X-9572084Y2366031D1*
X-9573901Y2368750D1*
X-9575347Y2371683D1*
X-9576398Y2374780D1*
X-9577036Y2377987D1*
X-9577250Y2381250D1*
X-9577036Y2384513D1*
X-9576398Y2387720D1*
X-9575347Y2390817D1*
X-9573901Y2393750D1*
X-9572084Y2396469D1*
X-9569928Y2398928D1*
X-9567469Y2401084D1*
X-9564750Y2402901D1*
X-9561817Y2404347D1*
X-9558720Y2405398D1*
X-9555513Y2406036D1*
X-9552250Y2406250D1*
D1*
G37*
G36*
X-658620Y4699623D2*
X-912620Y4826623D1*
Y4572627D1*
D1*
X-658620Y4699623D1*
G37*
G36*
Y127623D2*
X-912620Y254623D1*
Y627D1*
D1*
X-658620Y127623D1*
G37*
X-7239000Y4889500D2*
D10*
X-6794500D1*
X-6858000Y4953000D1*
X-6794500Y4889500D2*
X-6858000Y4826000D1*
X-9906000Y4438187D2*
D23*
X-5449617D1*
X-7874000Y3683000D2*
X-6445250D1*
Y3048000D1*
X-7874000D1*
Y3683000D1*
X-8086128Y4918540D2*
D85*
Y4816452D1*
X-8120157Y4918540D2*
X-8052098D1*
X-7991526D2*
X-8001297Y4913711D1*
X-8010955Y4903940D1*
X-8015897Y4894281D1*
X-8020726Y4879681D1*
Y4855311D1*
X-8015897Y4840823D1*
X-8010955Y4831052D1*
X-8001297Y4821394D1*
X-7991526Y4816452D1*
X-7972097D1*
X-7962438Y4821394D1*
X-7952667Y4831052D1*
X-7947838Y4840823D1*
X-7943009Y4855311D1*
Y4879681D1*
X-7947838Y4894281D1*
X-7952667Y4903940D1*
X-7962438Y4913711D1*
X-7972097Y4918540D1*
X-7991526D1*
X-7911636Y4865081D2*
X-7867836D1*
X-7853349Y4869911D1*
X-7848407Y4874852D1*
X-7843578Y4884511D1*
Y4899111D1*
X-7848407Y4908769D1*
X-7853349Y4913711D1*
X-7867836Y4918540D1*
X-7911636D1*
Y4816452D1*
X-8741148Y-3752164D2*
D84*
X-8729075Y-3746127D1*
X-8716862Y-3733914D1*
X-8710825Y-3721840D1*
Y-3697554D1*
X-8716862Y-3685340D1*
X-8729075Y-3673267D1*
X-8741148Y-3667090D1*
X-8759398Y-3661054D1*
X-8789862D1*
X-8807971Y-3667090D1*
X-8820185Y-3673267D1*
X-8832258Y-3685340D1*
X-8838435Y-3697554D1*
Y-3721840D1*
X-8832258Y-3733914D1*
X-8820185Y-3746127D1*
X-8807971Y-3752164D1*
X-8710825Y-3827879D2*
X-8716862Y-3815666D1*
X-8729075Y-3803593D1*
X-8741148Y-3797416D1*
X-8759398Y-3791379D1*
X-8789862D1*
X-8807971Y-3797416D1*
X-8820185Y-3803593D1*
X-8832258Y-3815666D1*
X-8838435Y-3827879D1*
Y-3852166D1*
X-8832258Y-3864239D1*
X-8820185Y-3876452D1*
X-8807971Y-3882489D1*
X-8789862Y-3888525D1*
X-8759398D1*
X-8741148Y-3882489D1*
X-8729075Y-3876452D1*
X-8716862Y-3864239D1*
X-8710825Y-3852166D1*
Y-3827879D1*
Y-4012814D2*
X-8838435D1*
X-8710825Y-3927741D1*
X-8838435D1*
X-8729075Y-4137103D2*
X-8716862Y-4125030D1*
X-8710825Y-4106780D1*
Y-4082493D1*
X-8716862Y-4064243D1*
X-8729075Y-4052030D1*
X-8741148D1*
X-8753362Y-4058207D1*
X-8759398Y-4064243D1*
X-8765435Y-4076316D1*
X-8777648Y-4112816D1*
X-8783685Y-4125030D1*
X-8789862Y-4131066D1*
X-8801935Y-4137103D1*
X-8820185D1*
X-8832258Y-4125030D1*
X-8838435Y-4106780D1*
Y-4082493D1*
X-8832258Y-4064243D1*
X-8820185Y-4052030D1*
X-8710825Y-4212819D2*
X-8716862Y-4200605D1*
X-8729075Y-4188532D1*
X-8741148Y-4182355D1*
X-8759398Y-4176319D1*
X-8789862D1*
X-8807971Y-4182355D1*
X-8820185Y-4188532D1*
X-8832258Y-4200605D1*
X-8838435Y-4212819D1*
Y-4237105D1*
X-8832258Y-4249178D1*
X-8820185Y-4261392D1*
X-8807971Y-4267428D1*
X-8789862Y-4273465D1*
X-8759398D1*
X-8741148Y-4267428D1*
X-8729075Y-4261392D1*
X-8716862Y-4249178D1*
X-8710825Y-4237105D1*
Y-4212819D1*
Y-4312680D2*
X-8838435D1*
Y-4385540D1*
X-8710825Y-4503652D2*
Y-4424756D1*
X-8838435D1*
Y-4503652D1*
X-8771612Y-4424756D2*
Y-4473329D1*
X-9798589Y-2738343D2*
D85*
Y-2782031D1*
X-9793648Y-2796631D1*
X-9788819Y-2801572D1*
X-9779160Y-2806402D1*
X-9769389D1*
X-9759731Y-2801572D1*
X-9754789Y-2796631D1*
X-9749960Y-2782031D1*
Y-2738343D1*
X-9852048D1*
X-9798589Y-2772372D2*
X-9852048Y-2806402D1*
X-9749960Y-2900891D2*
Y-2837774D1*
X-9852048D1*
Y-2900891D1*
X-9798589Y-2837774D2*
Y-2876633D1*
X-9764560Y-3000322D2*
X-9754789Y-2990664D1*
X-9749960Y-2976064D1*
Y-2956634D1*
X-9754789Y-2942034D1*
X-9764560Y-2932264D1*
X-9774219D1*
X-9783989Y-2937205D1*
X-9788819Y-2942034D1*
X-9793648Y-2951693D1*
X-9803419Y-2980893D1*
X-9808248Y-2990664D1*
X-9813189Y-2995493D1*
X-9822848Y-3000322D1*
X-9837448D1*
X-9847106Y-2990664D1*
X-9852048Y-2976064D1*
Y-2956634D1*
X-9847106Y-2942034D1*
X-9837448Y-2932264D1*
X-9749960Y-3094812D2*
Y-3031695D1*
X-9852048D1*
Y-3094812D1*
X-9798589Y-3031695D2*
Y-3070553D1*
X-9749960Y-3160213D2*
X-9852048D1*
X-9749960Y-3126184D2*
Y-3194243D1*
X-9095910Y1304075D2*
D86*
Y1383111D1*
X-9223520D1*
X-9156697D2*
Y1334538D1*
Y1248519D2*
Y1193909D1*
X-9150520Y1175659D1*
X-9144483Y1169482D1*
X-9132410Y1163446D1*
X-9120197D1*
X-9108124Y1169482D1*
X-9101947Y1175659D1*
X-9095910Y1193909D1*
Y1248519D1*
X-9223520D1*
X-9156697Y1205982D2*
X-9223520Y1163446D1*
X-9095910Y1071390D2*
X-9101947Y1083604D1*
X-9114160Y1095677D1*
X-9126233Y1101854D1*
X-9144483Y1107890D1*
X-9174947D1*
X-9193056Y1101854D1*
X-9205270Y1095677D1*
X-9217343Y1083604D1*
X-9223520Y1071390D1*
Y1047104D1*
X-9217343Y1035031D1*
X-9205270Y1022817D1*
X-9193056Y1016781D1*
X-9174947Y1010744D1*
X-9144483D1*
X-9126233Y1016781D1*
X-9114160Y1022817D1*
X-9101947Y1035031D1*
X-9095910Y1047104D1*
Y1071390D1*
Y870116D2*
X-9223520D1*
X-9095910Y955189D1*
X-9223520D1*
X-9095910Y772024D2*
X-9223520D1*
X-9095910Y814560D2*
Y729487D1*
X-9411925Y1383111D2*
Y1328361D1*
X-9405889Y1310251D1*
X-9399712Y1304075D1*
X-9387639Y1298038D1*
X-9369389D1*
X-9357316Y1304075D1*
X-9351139Y1310251D1*
X-9345102Y1328361D1*
Y1383111D1*
X-9472712D1*
Y1145196D2*
X-9345102Y1193909D1*
X-9472712Y1242482D1*
X-9430175Y1224232D2*
Y1163446D1*
X-9345102Y1004567D2*
X-9472712D1*
X-9345102Y1089640D1*
X-9472712D1*
X-9345102Y870116D2*
Y949012D1*
X-9472712D1*
Y870116D1*
X-9405889Y949012D2*
Y900439D1*
X-9345102Y814560D2*
X-9472712D1*
Y741700D1*
X-9032410Y3542111D2*
X-9160020D1*
Y3487361D1*
X-9153843Y3469111D1*
X-9147806Y3463075D1*
X-9135733Y3457038D1*
X-9117483D1*
X-9105270Y3463075D1*
X-9099233Y3469111D1*
X-9093197Y3487361D1*
X-9087020Y3469111D1*
X-9080983Y3463075D1*
X-9068910Y3457038D1*
X-9056697D1*
X-9044624Y3463075D1*
X-9038447Y3469111D1*
X-9032410Y3487361D1*
Y3542111D1*
X-9093197D2*
Y3487361D1*
X-9160020Y3304196D2*
X-9032410Y3352909D1*
X-9160020Y3401482D1*
X-9117483Y3383232D2*
Y3322446D1*
X-9032410Y3206104D2*
X-9160020D1*
X-9032410Y3248640D2*
Y3163567D1*
Y3065475D2*
X-9160020D1*
X-9032410Y3108012D2*
Y3022939D1*
Y2888487D2*
Y2967383D1*
X-9160020D1*
Y2888487D1*
X-9093197Y2967383D2*
Y2918810D1*
Y2832931D2*
Y2778322D1*
X-9087020Y2760072D1*
X-9080983Y2753895D1*
X-9068910Y2747858D1*
X-9056697D1*
X-9044624Y2753895D1*
X-9038447Y2760072D1*
X-9032410Y2778322D1*
Y2832931D1*
X-9160020D1*
X-9093197Y2790395D2*
X-9160020Y2747858D1*
X-9032410Y2692303D2*
X-9093197Y2643730D1*
X-9160020D1*
X-9032410Y2595157D2*
X-9093197Y2643730D1*
X-9281602Y3542111D2*
X-9409212D1*
Y3487361D1*
X-9403035Y3469111D1*
X-9396998Y3463075D1*
X-9384925Y3457038D1*
X-9366675D1*
X-9354462Y3463075D1*
X-9348425Y3469111D1*
X-9342389Y3487361D1*
X-9336212Y3469111D1*
X-9330175Y3463075D1*
X-9318102Y3457038D1*
X-9305889D1*
X-9293816Y3463075D1*
X-9287639Y3469111D1*
X-9281602Y3487361D1*
Y3542111D1*
X-9342389D2*
Y3487361D1*
X-9409212Y3304196D2*
X-9281602Y3352909D1*
X-9409212Y3401482D1*
X-9366675Y3383232D2*
Y3322446D1*
X-9311925Y3157531D2*
X-9299852Y3163567D1*
X-9287639Y3175781D1*
X-9281602Y3187854D1*
Y3212140D1*
X-9287639Y3224354D1*
X-9299852Y3236427D1*
X-9311925Y3242604D1*
X-9330175Y3248640D1*
X-9360639D1*
X-9378748Y3242604D1*
X-9390962Y3236427D1*
X-9403035Y3224354D1*
X-9409212Y3212140D1*
Y3187854D1*
X-9403035Y3175781D1*
X-9390962Y3163567D1*
X-9378748Y3157531D1*
X-9281602Y3101975D2*
X-9409212D1*
X-9281602Y3016902D2*
X-9366675Y3101975D1*
X-9336212Y3071652D2*
X-9409212Y3016902D1*
X-9281602Y2961347D2*
X-9372712D1*
X-9390962Y2955310D1*
X-9403035Y2943097D1*
X-9409212Y2924847D1*
Y2912774D1*
X-9403035Y2894524D1*
X-9390962Y2882310D1*
X-9372712Y2876274D1*
X-9281602D1*
X-9348425Y2820718D2*
Y2765968D1*
X-9342389Y2747858D1*
X-9336212Y2741681D1*
X-9324139Y2735645D1*
X-9305889D1*
X-9293816Y2741681D1*
X-9287639Y2747858D1*
X-9281602Y2765968D1*
Y2820718D1*
X-9409212D1*
X-9799050Y4496565D2*
D84*
Y4624175D1*
X-9847623Y4496565D1*
X-9896196Y4624175D1*
Y4496565D1*
X-9668725Y4593852D2*
X-9674761Y4605925D1*
X-9686975Y4618138D1*
X-9699048Y4624175D1*
X-9723334D1*
X-9735548Y4618138D1*
X-9747621Y4605925D1*
X-9753798Y4593852D1*
X-9759834Y4575602D1*
Y4545138D1*
X-9753798Y4527029D1*
X-9747621Y4514815D1*
X-9735548Y4502742D1*
X-9723334Y4496565D1*
X-9699048D1*
X-9686975Y4502742D1*
X-9674761Y4514815D1*
X-9668725Y4527029D1*
X-9544436Y4605925D2*
X-9556509Y4618138D1*
X-9574759Y4624175D1*
X-9599045D1*
X-9617295Y4618138D1*
X-9629509Y4605925D1*
Y4593852D1*
X-9623332Y4581638D1*
X-9617295Y4575602D1*
X-9605222Y4569565D1*
X-9568722Y4557352D1*
X-9556509Y4551315D1*
X-9550472Y4545138D1*
X-9544436Y4533065D1*
Y4514815D1*
X-9556509Y4502742D1*
X-9574759Y4496565D1*
X-9599045D1*
X-9617295Y4502742D1*
X-9629509Y4514815D1*
X-9505220Y4560300D2*
X-9435028D1*
X-9322953Y4624035D2*
X-9383599D1*
X-9389635Y4569425D1*
X-9383599Y4575461D1*
X-9365349Y4581638D1*
X-9347239D1*
X-9328989Y4575461D1*
X-9316776Y4563388D1*
X-9310739Y4545138D1*
Y4533065D1*
X-9316776Y4514815D1*
X-9328989Y4502602D1*
X-9347239Y4496565D1*
X-9365349D1*
X-9383599Y4502602D1*
X-9389635Y4508779D1*
X-9395812Y4520852D1*
X-9271523Y4599748D2*
X-9259310Y4605925D1*
X-9241060Y4624035D1*
Y4496565D1*
X-8981252D2*
Y4624175D1*
X-9029825Y4496565D1*
X-9078398Y4624175D1*
Y4496565D1*
X-8911713Y4581638D2*
X-8923786Y4575602D1*
X-8935999Y4563388D1*
X-8942036Y4545138D1*
Y4533065D1*
X-8935999Y4514815D1*
X-8923786Y4502742D1*
X-8911713Y4496565D1*
X-8893463D1*
X-8881249Y4502742D1*
X-8869176Y4514815D1*
X-8862999Y4533065D1*
Y4545138D1*
X-8869176Y4563388D1*
X-8881249Y4575602D1*
X-8893463Y4581638D1*
X-8911713D1*
X-8750924Y4624175D2*
Y4496565D1*
Y4563388D2*
X-8762997Y4575602D1*
X-8775211Y4581638D1*
X-8793461D1*
X-8805534Y4575602D1*
X-8817747Y4563388D1*
X-8823784Y4545138D1*
Y4533065D1*
X-8817747Y4514815D1*
X-8805534Y4502742D1*
X-8793461Y4496565D1*
X-8775211D1*
X-8762997Y4502742D1*
X-8750924Y4514815D1*
X-8711708Y4581638D2*
Y4520852D1*
X-8705672Y4502742D1*
X-8693458Y4496565D1*
X-8675208D1*
X-8663135Y4502742D1*
X-8644885Y4520852D1*
Y4581638D2*
Y4496565D1*
X-8605670Y4624175D2*
Y4496565D1*
X-8493594Y4581638D2*
Y4496565D1*
Y4563388D2*
X-8505667Y4575602D1*
X-8517881Y4581638D1*
X-8535991D1*
X-8548204Y4575602D1*
X-8560277Y4563388D1*
X-8566454Y4545138D1*
Y4533065D1*
X-8560277Y4514815D1*
X-8548204Y4502742D1*
X-8535991Y4496565D1*
X-8517881D1*
X-8505667Y4502742D1*
X-8493594Y4514815D1*
X-8454379Y4581638D2*
Y4496565D1*
Y4545138D2*
X-8448202Y4563388D1*
X-8436129Y4575602D1*
X-8423915Y4581638D1*
X-8405665D1*
X-8151893Y4593852D2*
X-8157930Y4605925D1*
X-8170143Y4618138D1*
X-8182217Y4624175D1*
X-8206503D1*
X-8218717Y4618138D1*
X-8230790Y4605925D1*
X-8236967Y4593852D1*
X-8243003Y4575602D1*
Y4545138D1*
X-8236967Y4527029D1*
X-8230790Y4514815D1*
X-8218717Y4502742D1*
X-8206503Y4496565D1*
X-8182217D1*
X-8170143Y4502742D1*
X-8157930Y4514815D1*
X-8151893Y4527029D1*
X-8082355Y4581638D2*
X-8094428Y4575602D1*
X-8106641Y4563388D1*
X-8112678Y4545138D1*
Y4533065D1*
X-8106641Y4514815D1*
X-8094428Y4502742D1*
X-8082355Y4496565D1*
X-8064105D1*
X-8051891Y4502742D1*
X-8039818Y4514815D1*
X-8033641Y4533065D1*
Y4545138D1*
X-8039818Y4563388D1*
X-8051891Y4575602D1*
X-8064105Y4581638D1*
X-8082355D1*
X-7994426D2*
Y4496565D1*
Y4557352D2*
X-7976176Y4575602D1*
X-7963962Y4581638D1*
X-7945852D1*
X-7933639Y4575602D1*
X-7927602Y4557352D1*
Y4496565D1*
Y4557352D2*
X-7909352Y4575602D1*
X-7897139Y4581638D1*
X-7879029D1*
X-7866816Y4575602D1*
X-7860639Y4557352D1*
Y4496565D1*
X-7821423Y4581638D2*
Y4454029D1*
Y4563388D2*
X-7809210Y4575461D1*
X-7797137Y4581638D1*
X-7778887D1*
X-7766673Y4575461D1*
X-7754600Y4563388D1*
X-7748423Y4545138D1*
Y4532925D1*
X-7754600Y4514815D1*
X-7766673Y4502602D1*
X-7778887Y4496565D1*
X-7797137D1*
X-7809210Y4502602D1*
X-7821423Y4514815D1*
X-7709208Y4581638D2*
Y4520852D1*
X-7703171Y4502742D1*
X-7690958Y4496565D1*
X-7672708D1*
X-7660635Y4502742D1*
X-7642385Y4520852D1*
Y4581638D2*
Y4496565D1*
X-7584919Y4624175D2*
Y4520852D1*
X-7578882Y4502742D1*
X-7566669Y4496565D1*
X-7554596D1*
X-7603169Y4581638D2*
X-7560632D1*
X-7515380Y4545138D2*
X-7442521D1*
Y4557352D1*
X-7448557Y4569565D1*
X-7454594Y4575602D1*
X-7466807Y4581638D1*
X-7485057D1*
X-7497130Y4575602D1*
X-7509344Y4563388D1*
X-7515380Y4545138D1*
Y4533065D1*
X-7509344Y4514815D1*
X-7497130Y4502742D1*
X-7485057Y4496565D1*
X-7466807D1*
X-7454594Y4502742D1*
X-7442521Y4514815D1*
X-7403305Y4581638D2*
Y4496565D1*
Y4545138D2*
X-7397128Y4563388D1*
X-7385055Y4575602D1*
X-7372841Y4581638D1*
X-7354591D1*
X-7191929Y4560300D2*
X-7121737D1*
X-6959075Y4557352D2*
X-6904325D1*
X-6886215Y4563388D1*
X-6880038Y4569565D1*
X-6874002Y4581638D1*
Y4599888D1*
X-6880038Y4611961D1*
X-6886215Y4618138D1*
X-6904325Y4624175D1*
X-6959075D1*
Y4496565D1*
X-6834786Y4581638D2*
Y4496565D1*
Y4545138D2*
X-6828609Y4563388D1*
X-6816536Y4575602D1*
X-6804323Y4581638D1*
X-6786073D1*
X-6716534D2*
X-6728607Y4575602D1*
X-6740820Y4563388D1*
X-6746857Y4545138D1*
Y4533065D1*
X-6740820Y4514815D1*
X-6728607Y4502742D1*
X-6716534Y4496565D1*
X-6698284D1*
X-6686070Y4502742D1*
X-6673997Y4514815D1*
X-6667820Y4533065D1*
Y4545138D1*
X-6673997Y4563388D1*
X-6686070Y4575602D1*
X-6698284Y4581638D1*
X-6716534D1*
X-6555605Y4563388D2*
X-6567818Y4575602D1*
X-6580032Y4581638D1*
X-6598141D1*
X-6610355Y4575602D1*
X-6622428Y4563388D1*
X-6628605Y4545138D1*
Y4533065D1*
X-6622428Y4514815D1*
X-6610355Y4502742D1*
X-6598141Y4496565D1*
X-6580032D1*
X-6567818Y4502742D1*
X-6555605Y4514815D1*
X-6516389Y4545138D2*
X-6443529D1*
Y4557352D1*
X-6449566Y4569565D1*
X-6455602Y4575602D1*
X-6467816Y4581638D1*
X-6486066D1*
X-6498139Y4575602D1*
X-6510352Y4563388D1*
X-6516389Y4545138D1*
Y4533065D1*
X-6510352Y4514815D1*
X-6498139Y4502742D1*
X-6486066Y4496565D1*
X-6467816D1*
X-6455602Y4502742D1*
X-6443529Y4514815D1*
X-6337491Y4563388D2*
X-6343527Y4575602D1*
X-6361777Y4581638D1*
X-6380027D1*
X-6398277Y4575602D1*
X-6404314Y4563388D1*
X-6398277Y4551315D1*
X-6386064Y4545138D1*
X-6355741Y4539102D1*
X-6343527Y4533065D1*
X-6337491Y4520852D1*
Y4514815D1*
X-6343527Y4502742D1*
X-6361777Y4496565D1*
X-6380027D1*
X-6398277Y4502742D1*
X-6404314Y4514815D1*
X-6231452Y4563388D2*
X-6237488Y4575602D1*
X-6255738Y4581638D1*
X-6273988D1*
X-6292238Y4575602D1*
X-6298275Y4563388D1*
X-6292238Y4551315D1*
X-6280025Y4545138D1*
X-6249702Y4539102D1*
X-6237488Y4533065D1*
X-6231452Y4520852D1*
Y4514815D1*
X-6237488Y4502742D1*
X-6255738Y4496565D1*
X-6273988D1*
X-6292238Y4502742D1*
X-6298275Y4514815D1*
X-6161913Y4581638D2*
X-6173986Y4575602D1*
X-6186200Y4563388D1*
X-6192236Y4545138D1*
Y4533065D1*
X-6186200Y4514815D1*
X-6173986Y4502742D1*
X-6161913Y4496565D1*
X-6143663D1*
X-6131450Y4502742D1*
X-6119377Y4514815D1*
X-6113200Y4533065D1*
Y4545138D1*
X-6119377Y4563388D1*
X-6131450Y4575602D1*
X-6143663Y4581638D1*
X-6161913D1*
X-6073984D2*
Y4496565D1*
Y4545138D2*
X-6067807Y4563388D1*
X-6055734Y4575602D1*
X-6043520Y4581638D1*
X-6025270D1*
X-5771499Y4593852D2*
X-5777535Y4605925D1*
X-5789749Y4618138D1*
X-5801822Y4624175D1*
X-5826108D1*
X-5838322Y4618138D1*
X-5850395Y4605925D1*
X-5856572Y4593852D1*
X-5862608Y4575602D1*
Y4545138D1*
X-5856572Y4527029D1*
X-5850395Y4514815D1*
X-5838322Y4502742D1*
X-5826108Y4496565D1*
X-5801822D1*
X-5789749Y4502742D1*
X-5777535Y4514815D1*
X-5771499Y4527029D1*
X-5659423Y4581638D2*
Y4496565D1*
Y4563388D2*
X-5671496Y4575602D1*
X-5683710Y4581638D1*
X-5701820D1*
X-5714033Y4575602D1*
X-5726106Y4563388D1*
X-5732283Y4545138D1*
Y4533065D1*
X-5726106Y4514815D1*
X-5714033Y4502742D1*
X-5701820Y4496565D1*
X-5683710D1*
X-5671496Y4502742D1*
X-5659423Y4514815D1*
X-5620208Y4581638D2*
Y4496565D1*
Y4545138D2*
X-5614031Y4563388D1*
X-5601958Y4575602D1*
X-5589744Y4581638D1*
X-5571494D1*
X-5459419Y4624175D2*
Y4496565D1*
Y4563388D2*
X-5471492Y4575602D1*
X-5483705Y4581638D1*
X-5501955D1*
X-5514029Y4575602D1*
X-5526242Y4563388D1*
X-5532279Y4545138D1*
Y4533065D1*
X-5526242Y4514815D1*
X-5514029Y4502742D1*
X-5501955Y4496565D1*
X-5483705D1*
X-5471492Y4502742D1*
X-5459419Y4514815D1*
X-9834657Y4251790D2*
D85*
Y4149702D1*
X-9766598Y4251790D2*
Y4149702D1*
X-9834657Y4203161D2*
X-9766598D1*
X-9657509Y4149702D2*
Y4251790D1*
X-9696367Y4149702D1*
X-9735226Y4251790D1*
Y4149702D1*
X-9553249Y4227531D2*
X-9558078Y4237190D1*
X-9567849Y4246961D1*
X-9577507Y4251790D1*
X-9596936D1*
X-9606707Y4246961D1*
X-9616366Y4237190D1*
X-9621307Y4227531D1*
X-9626136Y4212931D1*
Y4188561D1*
X-9621307Y4174073D1*
X-9616366Y4164302D1*
X-9606707Y4154644D1*
X-9596936Y4149702D1*
X-9577507D1*
X-9567849Y4154644D1*
X-9558078Y4164302D1*
X-9553249Y4174073D1*
X-9521876Y4200690D2*
X-9465722D1*
X-9434350Y4198331D2*
X-9390550D1*
X-9376062Y4203161D1*
X-9371121Y4208102D1*
X-9366291Y4217761D1*
Y4232361D1*
X-9371121Y4242019D1*
X-9376062Y4246961D1*
X-9390550Y4251790D1*
X-9434350D1*
Y4149702D1*
X-9334919Y4203161D2*
X-9291231D1*
X-9276631Y4208102D1*
X-9271690Y4212931D1*
X-9266860Y4222590D1*
Y4232361D1*
X-9271690Y4242019D1*
X-9276631Y4246961D1*
X-9291231Y4251790D1*
X-9334919D1*
Y4149702D1*
X-9300890Y4203161D2*
X-9266860Y4149702D1*
X-9235488Y4200690D2*
X-9179334D1*
X-9147961Y4232248D2*
X-9138191Y4237190D1*
X-9123591Y4251678D1*
Y4149702D1*
X-8697189Y4251790D2*
X-8658331Y4149702D1*
X-8619472Y4251790D1*
X-8489343Y4232248D2*
X-8479572Y4237190D1*
X-8464972Y4251678D1*
Y4149702D1*
X-8428770Y4159473D2*
X-8433599Y4154531D1*
X-8428770Y4149702D1*
X-8423829Y4154531D1*
X-8428770Y4159473D1*
X-8387515Y4227419D2*
Y4232248D1*
X-8382685Y4242019D1*
X-8377856Y4246848D1*
X-8368085Y4251678D1*
X-8348656D1*
X-8338998Y4246848D1*
X-8334168Y4242019D1*
X-8329227Y4232248D1*
Y4222590D1*
X-8334168Y4212819D1*
X-8343827Y4198331D1*
X-8392456Y4149702D1*
X-8324398D1*
X-8263825Y4251678D2*
X-8278425Y4246848D1*
X-8288196Y4232248D1*
X-8293025Y4207990D1*
Y4193390D1*
X-8288196Y4169131D1*
X-8278425Y4154531D1*
X-8263825Y4149702D1*
X-8254167D1*
X-8239567Y4154531D1*
X-8229908Y4169131D1*
X-8224967Y4193390D1*
Y4207990D1*
X-8229908Y4232248D1*
X-8239567Y4246848D1*
X-8254167Y4251678D1*
X-8263825D1*
X-8229908Y4232248D2*
X-8288196Y4169131D1*
X-7947450Y4251790D2*
Y4174073D1*
X-7952280Y4159473D1*
X-7957221Y4154644D1*
X-7966880Y4149702D1*
X-7976650D1*
X-7986309Y4154644D1*
X-7991138Y4159473D1*
X-7996080Y4174073D1*
Y4183731D1*
X-7916078Y4217761D2*
Y4169131D1*
X-7911249Y4154644D1*
X-7901478Y4149702D1*
X-7886878D1*
X-7877219Y4154644D1*
X-7862619Y4169131D1*
Y4217761D2*
Y4149702D1*
X-7831247Y4251790D2*
Y4149702D1*
X-7794933Y4217761D2*
X-7765845Y4149702D1*
X-7775504Y4130273D1*
X-7785274Y4120502D1*
X-7794933Y4115673D1*
X-7799874D1*
X-7736645Y4217761D2*
X-7765845Y4149702D1*
X-7601574Y4227419D2*
Y4232248D1*
X-7596745Y4242019D1*
X-7591915Y4246848D1*
X-7582145Y4251678D1*
X-7562715D1*
X-7553057Y4246848D1*
X-7548228Y4242019D1*
X-7543286Y4232248D1*
Y4222590D1*
X-7548228Y4212819D1*
X-7557886Y4198331D1*
X-7606515Y4149702D1*
X-7538457D1*
X-7477884Y4251678D2*
X-7492484Y4246848D1*
X-7502255Y4232248D1*
X-7507084Y4207990D1*
Y4193390D1*
X-7502255Y4169131D1*
X-7492484Y4154531D1*
X-7477884Y4149702D1*
X-7468226D1*
X-7453626Y4154531D1*
X-7443968Y4169131D1*
X-7439026Y4193390D1*
Y4207990D1*
X-7443968Y4232248D1*
X-7453626Y4246848D1*
X-7468226Y4251678D1*
X-7477884D1*
X-7443968Y4232248D2*
X-7502255Y4169131D1*
X-7402712Y4227419D2*
Y4232248D1*
X-7397883Y4242019D1*
X-7393053Y4246848D1*
X-7383283Y4251678D1*
X-7363853D1*
X-7354195Y4246848D1*
X-7349366Y4242019D1*
X-7344424Y4232248D1*
Y4222590D1*
X-7349366Y4212819D1*
X-7359024Y4198331D1*
X-7407653Y4149702D1*
X-7339595D1*
X-7298452Y4251678D2*
X-7245105D1*
X-7274193Y4212819D1*
X-7259593D1*
X-7249935Y4207990D1*
X-7245105Y4203161D1*
X-7240164Y4188561D1*
Y4178902D1*
X-7245105Y4164302D1*
X-7254764Y4154531D1*
X-7269364Y4149702D1*
X-7283964D1*
X-7298452Y4154531D1*
X-7303281Y4159473D1*
X-7308222Y4169131D1*
X-9761769Y4042557D2*
X-9766598Y4052215D1*
X-9776369Y4061986D1*
X-9786028Y4066815D1*
X-9805457D1*
X-9815228Y4061986D1*
X-9824886Y4052215D1*
X-9829828Y4042557D1*
X-9834657Y4027957D1*
Y4003586D1*
X-9829828Y3989098D1*
X-9824886Y3979328D1*
X-9815228Y3969669D1*
X-9805457Y3964728D1*
X-9786028D1*
X-9776369Y3969669D1*
X-9766598Y3979328D1*
X-9761769Y3989098D1*
X-9706138Y4032786D2*
X-9715797Y4027957D1*
X-9725567Y4018186D1*
X-9730397Y4003586D1*
Y3993928D1*
X-9725567Y3979328D1*
X-9715797Y3969669D1*
X-9706138Y3964728D1*
X-9691538D1*
X-9681767Y3969669D1*
X-9672109Y3979328D1*
X-9667167Y3993928D1*
Y4003586D1*
X-9672109Y4018186D1*
X-9681767Y4027957D1*
X-9691538Y4032786D1*
X-9706138D1*
X-9635795D2*
Y3930698D1*
Y4018186D2*
X-9626024Y4027845D1*
X-9616366Y4032786D1*
X-9601766D1*
X-9591995Y4027845D1*
X-9582336Y4018186D1*
X-9577395Y4003586D1*
Y3993815D1*
X-9582336Y3979328D1*
X-9591995Y3969557D1*
X-9601766Y3964728D1*
X-9616366D1*
X-9626024Y3969557D1*
X-9635795Y3979328D1*
X-9541081Y4032786D2*
X-9511993Y3964728D1*
X-9521652Y3945298D1*
X-9531422Y3935528D1*
X-9541081Y3930698D1*
X-9546022D1*
X-9482793Y4032786D2*
X-9511993Y3964728D1*
X-9451421Y4032786D2*
Y3964728D1*
Y4003586D2*
X-9446479Y4018186D1*
X-9436821Y4027957D1*
X-9427050Y4032786D1*
X-9412450D1*
X-9381077Y4066815D2*
X-9376248Y4061986D1*
X-9371306Y4066815D1*
X-9376248Y4071757D1*
X-9381077Y4066815D1*
X-9376248Y4032786D2*
Y3964728D1*
X-9281646Y4027957D2*
Y3950128D1*
X-9286475Y3935640D1*
X-9291305Y3930698D1*
X-9301075Y3925869D1*
X-9315675D1*
X-9325334Y3930698D1*
X-9281646Y4013357D2*
X-9291305Y4023015D1*
X-9301075Y4027957D1*
X-9315675D1*
X-9325334Y4023015D1*
X-9335105Y4013357D1*
X-9339934Y3998757D1*
Y3988986D1*
X-9335105Y3974498D1*
X-9325334Y3964728D1*
X-9315675Y3959898D1*
X-9301075D1*
X-9291305Y3964728D1*
X-9281646Y3974498D1*
X-9250274Y4066815D2*
Y3964728D1*
Y4013357D2*
X-9235674Y4027957D1*
X-9225903Y4032786D1*
X-9211303D1*
X-9201644Y4027957D1*
X-9196815Y4013357D1*
Y3964728D1*
X-9150843Y4066815D2*
Y3984157D1*
X-9146013Y3969669D1*
X-9136243Y3964728D1*
X-9126584D1*
X-9165443Y4032786D2*
X-9131413D1*
X-8962425Y4093432D2*
X-8972196Y4083774D1*
X-8981854Y4069174D1*
X-8991625Y4049745D1*
X-8996454Y4025374D1*
Y4005945D1*
X-8991625Y3981686D1*
X-8981854Y3962257D1*
X-8972196Y3947657D1*
X-8962425Y3937998D1*
X-8872653Y4018186D2*
X-8882423Y4027957D1*
X-8892194Y4032786D1*
X-8906682D1*
X-8916453Y4027957D1*
X-8926111Y4018186D1*
X-8931053Y4003586D1*
Y3993928D1*
X-8926111Y3979328D1*
X-8916453Y3969669D1*
X-8906682Y3964728D1*
X-8892194D1*
X-8882423Y3969669D1*
X-8872653Y3979328D1*
X-8841280Y4093432D2*
X-8831509Y4083774D1*
X-8821851Y4069174D1*
X-8812080Y4049745D1*
X-8807251Y4025374D1*
Y4005945D1*
X-8812080Y3981686D1*
X-8821851Y3962257D1*
X-8831509Y3947657D1*
X-8841280Y3937998D1*
X-8599292Y3964728D2*
X-8638263Y4066815D1*
X-8677121Y3964728D1*
X-8662521Y3998757D2*
X-8613892D1*
X-8567919Y4066815D2*
Y3964728D1*
X-8531605Y4032786D2*
X-8502518Y3964728D1*
X-8512176Y3945298D1*
X-8521947Y3935528D1*
X-8531605Y3930698D1*
X-8536547D1*
X-8473318Y4032786D2*
X-8502518Y3964728D1*
X-8388487Y4018186D2*
X-8393316Y4027957D1*
X-8407916Y4032786D1*
X-8422516D1*
X-8437116Y4027957D1*
X-8441945Y4018186D1*
X-8437116Y4008528D1*
X-8427345Y4003586D1*
X-8403087Y3998757D1*
X-8393316Y3993928D1*
X-8388487Y3984157D1*
Y3979328D1*
X-8393316Y3969669D1*
X-8407916Y3964728D1*
X-8422516D1*
X-8437116Y3969669D1*
X-8441945Y3979328D1*
X-8303656Y4018186D2*
X-8308485Y4027957D1*
X-8323085Y4032786D1*
X-8337685D1*
X-8352285Y4027957D1*
X-8357114Y4018186D1*
X-8352285Y4008528D1*
X-8342514Y4003586D1*
X-8318256Y3998757D1*
X-8308485Y3993928D1*
X-8303656Y3984157D1*
Y3979328D1*
X-8308485Y3969669D1*
X-8323085Y3964728D1*
X-8337685D1*
X-8352285Y3969669D1*
X-8357114Y3979328D1*
X-8248025Y4032786D2*
X-8257683Y4027957D1*
X-8267454Y4018186D1*
X-8272283Y4003586D1*
Y3993928D1*
X-8267454Y3979328D1*
X-8257683Y3969669D1*
X-8248025Y3964728D1*
X-8233425D1*
X-8223654Y3969669D1*
X-8213995Y3979328D1*
X-8209054Y3993928D1*
Y4003586D1*
X-8213995Y4018186D1*
X-8223654Y4027957D1*
X-8233425Y4032786D1*
X-8248025D1*
X-8177681D2*
Y3964728D1*
Y4013357D2*
X-8163081Y4027957D1*
X-8153310Y4032786D1*
X-8138823D1*
X-8129052Y4027957D1*
X-8124223Y4013357D1*
Y3964728D1*
X-7994093Y4018186D2*
X-7950405D1*
X-7935805Y4023128D1*
X-7930864Y4027957D1*
X-7926035Y4037615D1*
Y4047386D1*
X-7930864Y4057045D1*
X-7935805Y4061986D1*
X-7950405Y4066815D1*
X-7994093D1*
Y3964728D1*
X-7960064Y4018186D2*
X-7926035Y3964728D1*
X-7870404Y4032786D2*
X-7880062Y4027957D1*
X-7889833Y4018186D1*
X-7894662Y4003586D1*
Y3993928D1*
X-7889833Y3979328D1*
X-7880062Y3969669D1*
X-7870404Y3964728D1*
X-7855804D1*
X-7846033Y3969669D1*
X-7836374Y3979328D1*
X-7831433Y3993928D1*
Y4003586D1*
X-7836374Y4018186D1*
X-7846033Y4027957D1*
X-7855804Y4032786D1*
X-7870404D1*
X-7800060D2*
X-7780631Y3964728D1*
X-7761202Y4032786D1*
X-7741773Y3964728D1*
X-7722343Y4032786D1*
X-7632683D2*
Y3964728D1*
Y4018186D2*
X-7642342Y4027957D1*
X-7652112Y4032786D1*
X-7666600D1*
X-7676371Y4027957D1*
X-7686029Y4018186D1*
X-7690971Y4003586D1*
Y3993928D1*
X-7686029Y3979328D1*
X-7676371Y3969669D1*
X-7666600Y3964728D1*
X-7652112D1*
X-7642342Y3969669D1*
X-7632683Y3979328D1*
X-7601311Y4032786D2*
Y3964728D1*
Y4013357D2*
X-7586711Y4027957D1*
X-7576940Y4032786D1*
X-7562452D1*
X-7552681Y4027957D1*
X-7547852Y4013357D1*
Y3964728D1*
X-7506709Y3969557D2*
X-7511650Y3964728D1*
X-7516480Y3969557D1*
X-7511650Y3974498D1*
X-7506709Y3969557D1*
Y3959898D1*
X-7511650Y3950128D1*
X-7516480Y3945298D1*
X-7371638Y4042445D2*
Y4047274D1*
X-7366808Y4057045D1*
X-7361979Y4061874D1*
X-7352208Y4066703D1*
X-7332779D1*
X-7323121Y4061874D1*
X-7318291Y4057045D1*
X-7313350Y4047274D1*
Y4037615D1*
X-7318291Y4027845D1*
X-7327950Y4013357D1*
X-7376579Y3964728D1*
X-7308521D1*
X-7247948Y4066703D2*
X-7262548Y4061874D1*
X-7272319Y4047274D1*
X-7277148Y4023015D1*
Y4008415D1*
X-7272319Y3984157D1*
X-7262548Y3969557D1*
X-7247948Y3964728D1*
X-7238290D1*
X-7223690Y3969557D1*
X-7214031Y3984157D1*
X-7209090Y4008415D1*
Y4023015D1*
X-7214031Y4047274D1*
X-7223690Y4061874D1*
X-7238290Y4066703D1*
X-7247948D1*
X-7214031Y4047274D2*
X-7272319Y3984157D1*
X-7172776Y4042445D2*
Y4047274D1*
X-7167946Y4057045D1*
X-7163117Y4061874D1*
X-7153346Y4066703D1*
X-7133917D1*
X-7124259Y4061874D1*
X-7119429Y4057045D1*
X-7114488Y4047274D1*
Y4037615D1*
X-7119429Y4027845D1*
X-7129088Y4013357D1*
X-7177717Y3964728D1*
X-7109659D1*
X-7068515Y4066703D2*
X-7015169D1*
X-7044257Y4027845D1*
X-7029657D1*
X-7019998Y4023015D1*
X-7015169Y4018186D1*
X-7010228Y4003586D1*
Y3993928D1*
X-7015169Y3979328D1*
X-7024828Y3969557D1*
X-7039428Y3964728D1*
X-7054028D1*
X-7068515Y3969557D1*
X-7073345Y3974498D1*
X-7078286Y3984157D1*
X-6343654Y4855537D2*
Y4753449D1*
Y4802078D2*
X-6329054Y4816678D1*
X-6319283Y4821507D1*
X-6304683D1*
X-6295024Y4816678D1*
X-6290195Y4802078D1*
Y4753449D1*
X-6244223Y4855537D2*
Y4772878D1*
X-6239393Y4758390D1*
X-6229623Y4753449D1*
X-6219964D1*
X-6258823Y4821507D2*
X-6224793D1*
X-6173992Y4855537D2*
Y4772878D1*
X-6169162Y4758390D1*
X-6159392Y4753449D1*
X-6149733D1*
X-6188592Y4821507D2*
X-6154562D1*
X-6118360D2*
Y4719420D1*
Y4806907D2*
X-6108590Y4816566D1*
X-6098931Y4821507D1*
X-6084331D1*
X-6074560Y4816566D1*
X-6064902Y4806907D1*
X-6059960Y4792307D1*
Y4782537D1*
X-6064902Y4768049D1*
X-6074560Y4758278D1*
X-6084331Y4753449D1*
X-6098931D1*
X-6108590Y4758278D1*
X-6118360Y4768049D1*
X-5975129Y4806907D2*
X-5979959Y4816678D1*
X-5994559Y4821507D1*
X-6009159D1*
X-6023759Y4816678D1*
X-6028588Y4806907D1*
X-6023759Y4797249D1*
X-6013988Y4792307D1*
X-5989729Y4787478D1*
X-5979959Y4782649D1*
X-5975129Y4772878D1*
Y4768049D1*
X-5979959Y4758390D1*
X-5994559Y4753449D1*
X-6009159D1*
X-6023759Y4758390D1*
X-6028588Y4768049D1*
X-5938815Y4821507D2*
X-5943757Y4816566D1*
X-5938815Y4811737D1*
X-5933986Y4816566D1*
X-5938815Y4821507D1*
Y4763220D2*
X-5943757Y4758278D1*
X-5938815Y4753449D1*
X-5933986Y4758278D1*
X-5938815Y4763220D1*
X-5902614Y4753449D2*
X-5834555Y4855424D1*
X-5803183Y4753449D2*
X-5735124Y4855424D1*
X-5645464Y4816678D2*
Y4738849D1*
X-5650293Y4724361D1*
X-5655122Y4719420D1*
X-5664893Y4714590D1*
X-5679493D1*
X-5689152Y4719420D1*
X-5645464Y4802078D2*
X-5655122Y4811737D1*
X-5664893Y4816678D1*
X-5679493D1*
X-5689152Y4811737D1*
X-5698922Y4802078D1*
X-5703752Y4787478D1*
Y4777707D1*
X-5698922Y4763220D1*
X-5689152Y4753449D1*
X-5679493Y4748620D1*
X-5664893D1*
X-5655122Y4753449D1*
X-5645464Y4763220D1*
X-5614091Y4855537D2*
X-5609262Y4850707D1*
X-5604321Y4855537D1*
X-5609262Y4860478D1*
X-5614091Y4855537D1*
X-5609262Y4821507D2*
Y4753449D1*
X-5558348Y4855537D2*
Y4772878D1*
X-5553519Y4758390D1*
X-5543748Y4753449D1*
X-5534090D1*
X-5572948Y4821507D2*
X-5538919D1*
X-5502717Y4855537D2*
Y4753449D1*
Y4802078D2*
X-5488117Y4816678D1*
X-5478346Y4821507D1*
X-5463746D1*
X-5454088Y4816678D1*
X-5449259Y4802078D1*
Y4753449D1*
X-5417886Y4821507D2*
Y4772878D1*
X-5413057Y4758390D1*
X-5403286Y4753449D1*
X-5388686D1*
X-5379028Y4758390D1*
X-5364428Y4772878D1*
Y4821507D2*
Y4753449D1*
X-5333055Y4855537D2*
Y4753449D1*
Y4806907D2*
X-5323284Y4816678D1*
X-5313626Y4821507D1*
X-5299026D1*
X-5289367Y4816678D1*
X-5279597Y4806907D1*
X-5274767Y4792307D1*
Y4782649D1*
X-5279597Y4768049D1*
X-5289367Y4758390D1*
X-5299026Y4753449D1*
X-5313626D1*
X-5323284Y4758390D1*
X-5333055Y4768049D1*
X-5238566Y4763220D2*
X-5243395Y4758278D1*
X-5238566Y4753449D1*
X-5233624Y4758278D1*
X-5238566Y4763220D1*
X-5143851Y4806907D2*
X-5153622Y4816678D1*
X-5163393Y4821507D1*
X-5177881D1*
X-5187651Y4816678D1*
X-5197310Y4806907D1*
X-5202251Y4792307D1*
Y4782649D1*
X-5197310Y4768049D1*
X-5187651Y4758390D1*
X-5177881Y4753449D1*
X-5163393D1*
X-5153622Y4758390D1*
X-5143851Y4768049D1*
X-5088220Y4821507D2*
X-5097879Y4816678D1*
X-5107650Y4806907D1*
X-5112479Y4792307D1*
Y4782649D1*
X-5107650Y4768049D1*
X-5097879Y4758390D1*
X-5088220Y4753449D1*
X-5073620D1*
X-5063850Y4758390D1*
X-5054191Y4768049D1*
X-5049250Y4782649D1*
Y4792307D1*
X-5054191Y4806907D1*
X-5063850Y4816678D1*
X-5073620Y4821507D1*
X-5088220D1*
X-5017877D2*
Y4753449D1*
Y4802078D2*
X-5003277Y4816678D1*
X-4993506Y4821507D1*
X-4979019D1*
X-4969248Y4816678D1*
X-4964419Y4802078D1*
Y4753449D1*
Y4802078D2*
X-4949819Y4816678D1*
X-4940048Y4821507D1*
X-4925560D1*
X-4915789Y4816678D1*
X-4910848Y4802078D1*
Y4753449D1*
X-4879475D2*
X-4811417Y4855424D1*
X-4702215Y4753449D2*
X-4741186Y4855537D1*
X-4780044Y4753449D1*
X-4765444Y4787478D2*
X-4716815D1*
X-4670843Y4855537D2*
Y4753449D1*
X-4634528Y4821507D2*
X-4605441Y4753449D1*
X-4615099Y4734020D1*
X-4624870Y4724249D1*
X-4634528Y4719420D1*
X-4639470D1*
X-4576241Y4821507D2*
X-4605441Y4753449D1*
X-4491410Y4806907D2*
X-4496239Y4816678D1*
X-4510839Y4821507D1*
X-4525439D1*
X-4540039Y4816678D1*
X-4544868Y4806907D1*
X-4540039Y4797249D1*
X-4530268Y4792307D1*
X-4506010Y4787478D1*
X-4496239Y4782649D1*
X-4491410Y4772878D1*
Y4768049D1*
X-4496239Y4758390D1*
X-4510839Y4753449D1*
X-4525439D1*
X-4540039Y4758390D1*
X-4544868Y4768049D1*
X-4406579Y4806907D2*
X-4411408Y4816678D1*
X-4426008Y4821507D1*
X-4440608D1*
X-4455208Y4816678D1*
X-4460037Y4806907D1*
X-4455208Y4797249D1*
X-4445437Y4792307D1*
X-4421179Y4787478D1*
X-4411408Y4782649D1*
X-4406579Y4772878D1*
Y4768049D1*
X-4411408Y4758390D1*
X-4426008Y4753449D1*
X-4440608D1*
X-4455208Y4758390D1*
X-4460037Y4768049D1*
X-4350948Y4821507D2*
X-4360606Y4816678D1*
X-4370377Y4806907D1*
X-4375206Y4792307D1*
Y4782649D1*
X-4370377Y4768049D1*
X-4360606Y4758390D1*
X-4350948Y4753449D1*
X-4336348D1*
X-4326577Y4758390D1*
X-4316919Y4768049D1*
X-4311977Y4782649D1*
Y4792307D1*
X-4316919Y4806907D1*
X-4326577Y4816678D1*
X-4336348Y4821507D1*
X-4350948D1*
X-4280604D2*
Y4753449D1*
Y4802078D2*
X-4266004Y4816678D1*
X-4256234Y4821507D1*
X-4241746D1*
X-4231975Y4816678D1*
X-4227146Y4802078D1*
Y4753449D1*
X-4195773Y4806907D2*
X-4152086D1*
X-4137486Y4811849D1*
X-4132544Y4816678D1*
X-4127715Y4826337D1*
Y4836107D1*
X-4132544Y4845766D1*
X-4137486Y4850707D1*
X-4152086Y4855537D1*
X-4195773D1*
Y4753449D1*
X-4161744Y4806907D2*
X-4127715Y4753449D1*
X-4072084Y4821507D2*
X-4081742Y4816678D1*
X-4091513Y4806907D1*
X-4096342Y4792307D1*
Y4782649D1*
X-4091513Y4768049D1*
X-4081742Y4758390D1*
X-4072084Y4753449D1*
X-4057484D1*
X-4047713Y4758390D1*
X-4038055Y4768049D1*
X-4033113Y4782649D1*
Y4792307D1*
X-4038055Y4806907D1*
X-4047713Y4816678D1*
X-4057484Y4821507D1*
X-4072084D1*
X-4001741D2*
X-3982311Y4753449D1*
X-3962882Y4821507D1*
X-3943453Y4753449D1*
X-3924024Y4821507D1*
X-3834363D2*
Y4753449D1*
Y4806907D2*
X-3844022Y4816678D1*
X-3853793Y4821507D1*
X-3868280D1*
X-3878051Y4816678D1*
X-3887710Y4806907D1*
X-3892651Y4792307D1*
Y4782649D1*
X-3887710Y4768049D1*
X-3878051Y4758390D1*
X-3868280Y4753449D1*
X-3853793D1*
X-3844022Y4758390D1*
X-3834363Y4768049D1*
X-3802991Y4821507D2*
Y4753449D1*
Y4802078D2*
X-3788391Y4816678D1*
X-3778620Y4821507D1*
X-3764132D1*
X-3754362Y4816678D1*
X-3749532Y4802078D1*
Y4753449D1*
X-3718160D2*
X-3650101Y4855424D1*
X-3541012Y4753449D2*
Y4855537D1*
X-3579870Y4753449D1*
X-3618729Y4855537D1*
Y4753449D1*
X-3436752Y4831278D2*
X-3441581Y4840937D1*
X-3451352Y4850707D1*
X-3461010Y4855537D1*
X-3480439D1*
X-3490210Y4850707D1*
X-3499869Y4840937D1*
X-3504810Y4831278D1*
X-3509639Y4816678D1*
Y4792307D1*
X-3504810Y4777820D1*
X-3499869Y4768049D1*
X-3490210Y4758390D1*
X-3480439Y4753449D1*
X-3461010D1*
X-3451352Y4758390D1*
X-3441581Y4768049D1*
X-3436752Y4777820D1*
X-3337321Y4840937D2*
X-3346979Y4850707D1*
X-3361579Y4855537D1*
X-3381008D1*
X-3395608Y4850707D1*
X-3405379Y4840937D1*
Y4831278D1*
X-3400438Y4821507D1*
X-3395608Y4816678D1*
X-3385950Y4811849D1*
X-3356750Y4802078D1*
X-3346979Y4797249D1*
X-3342150Y4792307D1*
X-3337321Y4782649D1*
Y4768049D1*
X-3346979Y4758390D1*
X-3361579Y4753449D1*
X-3381008D1*
X-3395608Y4758390D1*
X-3405379Y4768049D1*
X-3305948Y4804437D2*
X-3249794D1*
X-3160134Y4855424D2*
X-3208651D1*
X-3213480Y4811737D1*
X-3208651Y4816566D1*
X-3194051Y4821507D1*
X-3179563D1*
X-3164963Y4816566D1*
X-3155193Y4806907D1*
X-3150363Y4792307D1*
Y4782649D1*
X-3155193Y4768049D1*
X-3164963Y4758278D1*
X-3179563Y4753449D1*
X-3194051D1*
X-3208651Y4758278D1*
X-3213480Y4763220D1*
X-3218422Y4772878D1*
X-3118991Y4835995D2*
X-3109220Y4840937D1*
X-3094620Y4855424D1*
Y4753449D1*
X-3063247Y4804437D2*
X-3007094D1*
X-2898004Y4753449D2*
Y4855537D1*
X-2936863Y4753449D1*
X-2975721Y4855537D1*
Y4753449D1*
X-2842373Y4821507D2*
X-2852032Y4816678D1*
X-2861802Y4806907D1*
X-2866632Y4792307D1*
Y4782649D1*
X-2861802Y4768049D1*
X-2852032Y4758390D1*
X-2842373Y4753449D1*
X-2827773D1*
X-2818002Y4758390D1*
X-2808344Y4768049D1*
X-2803402Y4782649D1*
Y4792307D1*
X-2808344Y4806907D1*
X-2818002Y4816678D1*
X-2827773Y4821507D1*
X-2842373D1*
X-2713742Y4855537D2*
Y4753449D1*
Y4806907D2*
X-2723401Y4816678D1*
X-2733171Y4821507D1*
X-2747771D1*
X-2757430Y4816678D1*
X-2767201Y4806907D1*
X-2772030Y4792307D1*
Y4782649D1*
X-2767201Y4768049D1*
X-2757430Y4758390D1*
X-2747771Y4753449D1*
X-2733171D1*
X-2723401Y4758390D1*
X-2713742Y4768049D1*
X-2682370Y4821507D2*
Y4772878D1*
X-2677540Y4758390D1*
X-2667770Y4753449D1*
X-2653170D1*
X-2643511Y4758390D1*
X-2628911Y4772878D1*
Y4821507D2*
Y4753449D1*
X-2597539Y4855537D2*
Y4753449D1*
X-2507878Y4821507D2*
Y4753449D1*
Y4806907D2*
X-2517537Y4816678D1*
X-2527308Y4821507D1*
X-2541795D1*
X-2551566Y4816678D1*
X-2561224Y4806907D1*
X-2566166Y4792307D1*
Y4782649D1*
X-2561224Y4768049D1*
X-2551566Y4758390D1*
X-2541795Y4753449D1*
X-2527308D1*
X-2517537Y4758390D1*
X-2507878Y4768049D1*
X-2476506Y4821507D2*
Y4753449D1*
Y4792307D2*
X-2471564Y4806907D1*
X-2461906Y4816678D1*
X-2452135Y4821507D1*
X-2437535D1*
X-2406162Y4804437D2*
X-2350009D1*
X-2245748Y4831278D2*
X-2250578Y4840937D1*
X-2260348Y4850707D1*
X-2270007Y4855537D1*
X-2289436D1*
X-2299207Y4850707D1*
X-2308865Y4840937D1*
X-2313807Y4831278D1*
X-2318636Y4816678D1*
Y4792307D1*
X-2313807Y4777820D1*
X-2308865Y4768049D1*
X-2299207Y4758390D1*
X-2289436Y4753449D1*
X-2270007D1*
X-2260348Y4758390D1*
X-2250578Y4768049D1*
X-2245748Y4777820D1*
X-2190117Y4821507D2*
X-2199776Y4816678D1*
X-2209547Y4806907D1*
X-2214376Y4792307D1*
Y4782649D1*
X-2209547Y4768049D1*
X-2199776Y4758390D1*
X-2190117Y4753449D1*
X-2175517D1*
X-2165747Y4758390D1*
X-2156088Y4768049D1*
X-2151147Y4782649D1*
Y4792307D1*
X-2156088Y4806907D1*
X-2165747Y4816678D1*
X-2175517Y4821507D1*
X-2190117D1*
X-2119774D2*
Y4753449D1*
Y4802078D2*
X-2105174Y4816678D1*
X-2095403Y4821507D1*
X-2080916D1*
X-2071145Y4816678D1*
X-2066316Y4802078D1*
Y4753449D1*
Y4802078D2*
X-2051716Y4816678D1*
X-2041945Y4821507D1*
X-2027457D1*
X-2017686Y4816678D1*
X-2012745Y4802078D1*
Y4753449D1*
X-1981372Y4821507D2*
Y4719420D1*
Y4806907D2*
X-1971601Y4816566D1*
X-1961943Y4821507D1*
X-1947343D1*
X-1937572Y4816566D1*
X-1927914Y4806907D1*
X-1922972Y4792307D1*
Y4782537D1*
X-1927914Y4768049D1*
X-1937572Y4758278D1*
X-1947343Y4753449D1*
X-1961943D1*
X-1971601Y4758278D1*
X-1981372Y4768049D1*
X-1891600Y4821507D2*
Y4772878D1*
X-1886770Y4758390D1*
X-1877000Y4753449D1*
X-1862400D1*
X-1852741Y4758390D1*
X-1838141Y4772878D1*
Y4821507D2*
Y4753449D1*
X-1792169Y4855537D2*
Y4772878D1*
X-1787339Y4758390D1*
X-1777569Y4753449D1*
X-1767910D1*
X-1806769Y4821507D2*
X-1772739D1*
X-1736538Y4792307D2*
X-1678250D1*
Y4802078D1*
X-1683079Y4811849D1*
X-1687908Y4816678D1*
X-1697679Y4821507D1*
X-1712279D1*
X-1721938Y4816678D1*
X-1731708Y4806907D1*
X-1736538Y4792307D1*
Y4782649D1*
X-1731708Y4768049D1*
X-1721938Y4758390D1*
X-1712279Y4753449D1*
X-1697679D1*
X-1687908Y4758390D1*
X-1678250Y4768049D1*
X-1646877Y4821507D2*
Y4753449D1*
Y4792307D2*
X-1641936Y4806907D1*
X-1632277Y4816678D1*
X-1622507Y4821507D1*
X-1607907D1*
X-5610367Y3513536D2*
D84*
X-5598294Y3519573D1*
X-5586081Y3531786D1*
X-5580045Y3543860D1*
Y3568146D1*
X-5586082Y3580360D1*
X-5598296Y3592432D1*
X-5610369Y3598609D1*
X-5628619Y3604645D1*
X-5659083Y3604644D1*
X-5677192Y3598607D1*
X-5689406Y3592430D1*
X-5701478Y3580357D1*
X-5707655Y3568143D1*
X-5707654Y3543856D1*
X-5701477Y3531783D1*
X-5689404Y3519570D1*
X-5677190Y3513534D1*
X-5604470Y3474320D2*
X-5598293Y3462107D1*
X-5580183Y3443857D1*
X-5707652Y3443854D1*
X-6499368Y3382091D2*
X-6487295Y3388127D1*
X-6475082Y3400341D1*
X-6469045Y3412414D1*
X-6469046Y3436701D1*
X-6475083Y3448914D1*
X-6487297Y3460987D1*
X-6499370Y3467164D1*
X-6517620Y3473200D1*
X-6548084Y3473199D1*
X-6566193Y3467162D1*
X-6578406Y3460985D1*
X-6590479Y3448911D1*
X-6596656Y3436698D1*
X-6596655Y3412411D1*
X-6590478Y3400338D1*
X-6578404Y3388125D1*
X-6566191Y3382089D1*
X-6499507Y3336698D2*
X-6493470D1*
X-6481257Y3330662D1*
X-6475220Y3324626D1*
X-6469183Y3312412D1*
Y3288126D1*
X-6475219Y3276052D1*
X-6481255Y3270016D1*
X-6493469Y3263839D1*
X-6505542Y3263838D1*
X-6517755Y3270015D1*
X-6535865Y3282087D1*
X-6596653Y3342872D1*
X-6596651Y3257799D1*
X-8271590Y453883D2*
X-8277626Y465956D1*
X-8289840Y478169D1*
X-8301913Y484206D1*
X-8326199D1*
X-8338413Y478169D1*
X-8350486Y465956D1*
X-8356663Y453883D1*
X-8362699Y435633D1*
Y405169D1*
X-8356663Y387060D1*
X-8350486Y374846D1*
X-8338413Y362773D1*
X-8326199Y356596D1*
X-8301913D1*
X-8289840Y362773D1*
X-8277626Y374846D1*
X-8271590Y387060D1*
X-8220160Y484065D2*
X-8153478D1*
X-8189837Y435492D1*
X-8171587D1*
X-8159514Y429456D1*
X-8153478Y423419D1*
X-8147301Y405169D1*
Y393096D1*
X-8153478Y374846D1*
X-8165551Y362633D1*
X-8183801Y356596D1*
X-8202051D1*
X-8220160Y362633D1*
X-8226197Y368810D1*
X-8232374Y380883D1*
X-5663642Y1832117D2*
X-5657606Y1820044D1*
X-5645392Y1807831D1*
X-5633319Y1801794D1*
X-5609033D1*
X-5596819Y1807831D1*
X-5584746Y1820044D1*
X-5578569Y1832117D1*
X-5572533Y1850367D1*
Y1880831D1*
X-5578569Y1898940D1*
X-5584746Y1911154D1*
X-5596819Y1923227D1*
X-5609033Y1929404D1*
X-5633319D1*
X-5645392Y1923227D1*
X-5657606Y1911154D1*
X-5663642Y1898940D1*
X-5763644Y1929404D2*
Y1801935D1*
X-5702858Y1886867D1*
X-5793967D1*
X-9405573Y-1800367D2*
X-9411609Y-1788294D1*
X-9423823Y-1776081D1*
X-9435896Y-1770044D1*
X-9460183D1*
X-9472396Y-1776081D1*
X-9484469Y-1788294D1*
X-9490646Y-1800367D1*
X-9496683Y-1818617D1*
Y-1849081D1*
X-9490646Y-1867190D1*
X-9484469Y-1879404D1*
X-9472396Y-1891477D1*
X-9460183Y-1897654D1*
X-9435896D1*
X-9423823Y-1891477D1*
X-9411609Y-1879404D1*
X-9405573Y-1867190D1*
X-9293498Y-1770185D2*
X-9354144D1*
X-9360180Y-1824794D1*
X-9354144Y-1818758D1*
X-9335894Y-1812581D1*
X-9317784D1*
X-9299534Y-1818758D1*
X-9287321Y-1830831D1*
X-9281284Y-1849081D1*
Y-1861154D1*
X-9287321Y-1879404D1*
X-9299534Y-1891617D1*
X-9317784Y-1897654D1*
X-9335894D1*
X-9354144Y-1891617D1*
X-9360180Y-1885440D1*
X-9366357Y-1873367D1*
X-7851633Y-3188501D2*
X-7863706Y-3194538D1*
X-7875919Y-3206751D1*
X-7881956Y-3218824D1*
Y-3243111D1*
X-7875919Y-3255324D1*
X-7863706Y-3267397D1*
X-7851633Y-3273574D1*
X-7833383Y-3279611D1*
X-7802919D1*
X-7784810Y-3273574D1*
X-7772596Y-3267397D1*
X-7760523Y-3255324D1*
X-7754346Y-3243111D1*
Y-3218824D1*
X-7760523Y-3206751D1*
X-7772596Y-3194538D1*
X-7784810Y-3188501D1*
X-7863706Y-3076426D2*
X-7875779Y-3082462D1*
X-7881815Y-3100712D1*
Y-3112785D1*
X-7875779Y-3131035D1*
X-7857529Y-3143249D1*
X-7827206Y-3149285D1*
X-7796883D1*
X-7772596Y-3143249D1*
X-7760383Y-3131035D1*
X-7754346Y-3112785D1*
Y-3106749D1*
X-7760383Y-3088639D1*
X-7772596Y-3076426D1*
X-7790846Y-3070389D1*
X-7796883D1*
X-7815133Y-3076426D1*
X-7827206Y-3088639D1*
X-7833242Y-3106749D1*
Y-3112785D1*
X-7827206Y-3131035D1*
X-7815133Y-3143249D1*
X-7796883Y-3149285D1*
X-7597633Y-3191590D2*
X-7609706Y-3197626D1*
X-7621919Y-3209840D1*
X-7627956Y-3221913D1*
Y-3246199D1*
X-7621919Y-3258413D1*
X-7609706Y-3270486D1*
X-7597633Y-3276663D1*
X-7579383Y-3282699D1*
X-7548919D1*
X-7530810Y-3276663D1*
X-7518596Y-3270486D1*
X-7506523Y-3258413D1*
X-7500346Y-3246199D1*
Y-3221913D1*
X-7506523Y-3209840D1*
X-7518596Y-3197626D1*
X-7530810Y-3191590D1*
X-7500346Y-3128087D2*
X-7627815Y-3067301D1*
Y-3152374D1*
X-3856981Y1800367D2*
X-3850944Y1788294D1*
X-3838731Y1776081D1*
X-3826658Y1770044D1*
X-3802371D1*
X-3790158Y1776081D1*
X-3778084Y1788294D1*
X-3771908Y1800367D1*
X-3765871Y1818617D1*
Y1849081D1*
X-3771908Y1867190D1*
X-3778084Y1879404D1*
X-3790158Y1891477D1*
X-3802371Y1897654D1*
X-3826658D1*
X-3838731Y1891477D1*
X-3850944Y1879404D1*
X-3856981Y1867190D1*
X-3926519Y1770185D2*
X-3908410Y1776221D1*
X-3902233Y1788294D1*
Y1800508D1*
X-3908410Y1812581D1*
X-3920483Y1818758D1*
X-3944769Y1824794D1*
X-3963019Y1830831D1*
X-3975092Y1843044D1*
X-3981129Y1855117D1*
Y1873367D1*
X-3975092Y1885440D1*
X-3969056Y1891617D1*
X-3950806Y1897654D1*
X-3926519D1*
X-3908410Y1891617D1*
X-3902233Y1885440D1*
X-3896196Y1873367D1*
Y1855117D1*
X-3902233Y1843044D1*
X-3914446Y1830831D1*
X-3932556Y1824794D1*
X-3956842Y1818758D1*
X-3969056Y1812581D1*
X-3975092Y1800508D1*
Y1788294D1*
X-3969056Y1776221D1*
X-3950806Y1770185D1*
X-3926519D1*
X-1147186Y1105367D2*
X-1237420Y1015133D1*
X-1207342Y985055D1*
X-1190070Y976518D1*
X-1172896Y976419D1*
X-1159992Y980787D1*
X-1142918Y989324D1*
X-1121377Y1010865D1*
X-1112741Y1028038D1*
X-1108472Y1040843D1*
Y1058116D1*
X-1117108Y1075289D1*
X-1147186Y1105367D1*
X-1076573Y1000209D2*
X-1063569Y995940D1*
X-1037859Y995841D1*
X-1127994Y905707D1*
X-299294Y-2281554D2*
X-396440D1*
X-414690Y-2275517D1*
X-420727Y-2269340D1*
X-426904Y-2257267D1*
Y-2245054D1*
X-420727Y-2232981D1*
X-414690Y-2226944D1*
X-396440Y-2220767D1*
X-384367D1*
X-323721Y-2320769D2*
X-317544Y-2332983D1*
X-299435Y-2351233D1*
X-426904D1*
X-299294Y2698751D2*
X-396440D1*
X-414690Y2704788D1*
X-420727Y2710965D1*
X-426904Y2723038D1*
Y2735251D1*
X-420727Y2747324D1*
X-414690Y2753361D1*
X-396440Y2759538D1*
X-384367D1*
X-329758Y2653359D2*
X-323721D1*
X-311508Y2647322D1*
X-305471Y2641285D1*
X-299435Y2629072D1*
Y2604785D1*
X-305471Y2592712D1*
X-311508Y2586676D1*
X-323721Y2580499D1*
X-335794D1*
X-348008Y2586676D1*
X-366117Y2598749D1*
X-426904Y2659535D1*
Y2574462D1*
X-7405705Y-317502D2*
X-7308559Y-317501D1*
X-7290309Y-323537D1*
X-7284272Y-329714D1*
X-7278095Y-341787D1*
Y-354000D1*
X-7284272Y-366073D1*
X-7290308Y-372110D1*
X-7308558Y-378287D1*
X-7320631D1*
X-7405566Y-266073D2*
X-7405567Y-199391D1*
X-7356993Y-235749D1*
X-7356994Y-217499D1*
X-7350957Y-205426D1*
X-7344921Y-199389D1*
X-7326671Y-193212D1*
X-7314598D1*
X-7296348Y-199389D1*
X-7284134Y-211461D1*
X-7278097Y-229711D1*
Y-247961D1*
X-7284133Y-266071D1*
X-7290310Y-272108D1*
X-7302383Y-278285D1*
X-9295519Y-3403513D2*
Y-3500660D1*
X-9301556Y-3518910D1*
X-9307733Y-3524946D1*
X-9319806Y-3531123D1*
X-9332019D1*
X-9344092Y-3524946D1*
X-9350129Y-3518910D1*
X-9356306Y-3500660D1*
Y-3488586D1*
X-9195517Y-3531123D2*
Y-3403654D1*
X-9256304Y-3488586D1*
X-9165194D1*
X-9232087Y-1390737D2*
Y-1293590D1*
X-9226051Y-1275340D1*
X-9219874Y-1269304D1*
X-9207801Y-1263127D1*
X-9195587D1*
X-9183514Y-1269304D1*
X-9177478Y-1275340D1*
X-9171301Y-1293590D1*
Y-1305664D1*
X-9344163Y-1372487D2*
X-9338126Y-1384560D1*
X-9319876Y-1390596D1*
X-9307803D1*
X-9289553Y-1384560D1*
X-9277340Y-1366310D1*
X-9271303Y-1335987D1*
Y-1305664D1*
X-9277340Y-1281377D1*
X-9289553Y-1269164D1*
X-9307803Y-1263127D1*
X-9313840D1*
X-9331949Y-1269164D1*
X-9344163Y-1281377D1*
X-9350199Y-1299627D1*
Y-1305664D1*
X-9344163Y-1323914D1*
X-9331949Y-1335987D1*
X-9313840Y-1342023D1*
X-9307803D1*
X-9289553Y-1335987D1*
X-9277340Y-1323914D1*
X-9271303Y-1305664D1*
X-7135796Y-1679657D2*
X-7232942Y-1679660D1*
X-7251192Y-1673624D1*
X-7257229Y-1667447D1*
X-7263406Y-1655374D1*
Y-1643161D1*
X-7257230Y-1631088D1*
X-7251194Y-1625051D1*
X-7232944Y-1618873D1*
X-7220871D1*
X-7202618Y-1718875D2*
X-7202617Y-1773625D1*
X-7196580Y-1791734D1*
X-7190403Y-1797911D1*
X-7178329Y-1803947D1*
X-7160079D1*
X-7148006Y-1797910D1*
X-7141830Y-1791733D1*
X-7135794Y-1773623D1*
X-7135795Y-1718873D1*
X-7263405Y-1718876D1*
X-7160219Y-1843163D2*
X-7154041Y-1855376D1*
X-7135931Y-1873625D1*
X-7263401Y-1873629D1*
X-9066624Y-2360168D2*
X-9121233Y-2360169D1*
X-9139483Y-2366346D1*
X-9145660Y-2372383D1*
X-9151696Y-2384456D1*
Y-2396669D1*
X-9145659Y-2408742D1*
X-9139482Y-2414919D1*
X-9121232Y-2420955D1*
X-9066622Y-2420954D1*
X-9066625Y-2293344D1*
X-9109160Y-2360168D2*
X-9151698Y-2293346D1*
X-9190912Y-2396530D2*
X-9203125Y-2402707D1*
X-9221375Y-2420817D1*
X-9221377Y-2293348D1*
X-4720081Y390431D2*
Y335821D1*
X-4713904Y317571D1*
X-4707867Y311394D1*
X-4695794Y305358D1*
X-4683581D1*
X-4671508Y311394D1*
X-4665331Y317571D1*
X-4659294Y335821D1*
Y390431D1*
X-4786904D1*
X-4720081Y347894D2*
X-4786904Y305358D1*
X-4689758Y259965D2*
X-4683721D1*
X-4671508Y253929D1*
X-4665471Y247892D1*
X-4659435Y235679D1*
Y211392D1*
X-4665471Y199319D1*
X-4671508Y193283D1*
X-4683721Y187106D1*
X-4695794D1*
X-4708008Y193283D1*
X-4726117Y205356D1*
X-4786904Y266142D1*
Y181069D1*
X-9355956Y-2961947D2*
X-9368169Y-2974020D1*
X-9374206Y-2992270D1*
Y-3016557D1*
X-9368169Y-3034807D1*
X-9355956Y-3047020D1*
X-9343883D1*
X-9331669Y-3040844D1*
X-9325633Y-3034807D1*
X-9319596Y-3022734D1*
X-9307383Y-2986234D1*
X-9301346Y-2974020D1*
X-9295169Y-2967984D1*
X-9283096Y-2961947D1*
X-9264846D1*
X-9252773Y-2974020D1*
X-9246596Y-2992270D1*
Y-3016557D1*
X-9252773Y-3034807D1*
X-9264846Y-3047020D1*
X-9374206Y-2922732D2*
X-9246596Y-2892268D1*
X-9374206Y-2861945D1*
X-9246596Y-2831622D1*
X-9374206Y-2801159D1*
X-9349779Y-2761943D2*
X-9355956Y-2749730D1*
X-9374065Y-2731480D1*
X-9246596D1*
X-3823876Y3849706D2*
Y3758596D1*
X-3817840Y3740346D1*
X-3805626Y3728273D1*
X-3787376Y3722096D1*
X-3775303D1*
X-3757053Y3728273D1*
X-3744840Y3740346D1*
X-3738803Y3758596D1*
Y3849706D1*
X-3699587Y3825279D2*
X-3687374Y3831456D1*
X-3669124Y3849565D1*
Y3722096D1*
X-6072203Y-1083933D2*
X-5981093Y-1083930D1*
X-5962843Y-1077893D1*
X-5950771Y-1065679D1*
X-5944594Y-1047429D1*
X-5944595Y-1035356D1*
X-5950772Y-1017106D1*
X-5962845Y-1004893D1*
X-5981096Y-998857D1*
X-6072205Y-998860D1*
X-6041743Y-953466D2*
X-6047780Y-953467D1*
X-6059993Y-947430D1*
X-6066030Y-941394D1*
X-6072067Y-929181D1*
X-6072068Y-904894D1*
X-6066031Y-892821D1*
X-6059995Y-886784D1*
X-6047782Y-880607D1*
X-6035709D1*
X-6023495Y-886783D1*
X-6005385Y-898856D1*
X-5944597Y-959641D1*
X-5944599Y-874567D1*
X-8453456Y-898431D2*
X-8362346D1*
X-8344096Y-892394D1*
X-8332023Y-880181D1*
X-8325846Y-861931D1*
Y-849858D1*
X-8332023Y-831608D1*
X-8344096Y-819394D1*
X-8362346Y-813358D1*
X-8453456D1*
X-8453315Y-761929D2*
Y-695246D1*
X-8404742Y-731606D1*
Y-713356D1*
X-8398706Y-701283D1*
X-8392669Y-695246D1*
X-8374419Y-689069D1*
X-8362346D1*
X-8344096Y-695246D1*
X-8331883Y-707319D1*
X-8325846Y-725569D1*
Y-743819D1*
X-8331883Y-761929D1*
X-8338060Y-767965D1*
X-8350133Y-774142D1*
X-4071956Y178051D2*
X-3980846D1*
X-3962596Y184087D1*
X-3950523Y196301D1*
X-3944346Y214551D1*
Y226624D1*
X-3950523Y244874D1*
X-3962596Y257087D1*
X-3980846Y263124D1*
X-4071956D1*
X-3944346Y363126D2*
X-4071815D1*
X-3986883Y302340D1*
Y393449D1*
X-7072294Y-2964587D2*
X-7133081Y-3013160D1*
X-7199904D1*
X-7072294Y-3061734D2*
X-7133081Y-3013160D1*
X-7096721Y-3100949D2*
X-7090544Y-3113163D1*
X-7072435Y-3131413D1*
X-7199904D1*
X-8758263Y2159001D2*
X-8855410D1*
X-8873660Y2165038D1*
X-8879696Y2171215D1*
X-8885873Y2183288D1*
Y2195501D1*
X-8879696Y2207574D1*
X-8873660Y2213611D1*
X-8855410Y2219788D1*
X-8843336D1*
X-8758404Y2046926D2*
Y2107572D1*
X-8813013Y2113609D1*
X-8806977Y2107572D1*
X-8800800Y2089322D1*
Y2071212D1*
X-8806977Y2052962D1*
X-8819050Y2040749D1*
X-8837300Y2034712D1*
X-8849373D1*
X-8867623Y2040749D1*
X-8879836Y2052962D1*
X-8885873Y2071212D1*
Y2089322D1*
X-8879836Y2107572D1*
X-8873660Y2113609D1*
X-8861586Y2119785D1*
M02*
