G04 DipTrace 4.3.0.5*
G04 1 - Top.gbr*
%MOMM*%
G04 #@! TF.FileFunction,Copper,L1,Top*
G04 #@! TF.Part,Single*
%AMOUTLINE0*
4,1,4,
0.0,1.1243,
1.1243,0.0,
0.0,-1.1243,
-1.1243,0.0,
0.0,1.1243,
0*%
G04 #@! TA.AperFunction,Conductor*
%ADD16C,0.66*%
%ADD17C,0.3302*%
%ADD18C,0.6604*%
G04 #@! TA.AperFunction,ComponentPad*
%ADD22R,1.1X1.1*%
%ADD23C,1.1*%
%ADD24C,1.65*%
%ADD25C,1.59*%
%ADD26R,1.71X1.71*%
%ADD27C,1.71*%
%ADD28R,1.62X1.62*%
%ADD29C,1.62*%
%ADD30O,2.159X1.905*%
%ADD31C,1.5*%
%ADD32R,1.25X1.25*%
%ADD33C,1.25*%
G04 #@! TA.AperFunction,ViaPad*
%ADD34C,1.016*%
G04 #@! TA.AperFunction,ComponentPad*
%ADD72OUTLINE0*%
%FSLAX35Y35*%
G04*
G71*
G90*
G75*
G01*
G04 Top*
%LPD*%
X-7826470Y-952513D2*
D16*
X-7810487D1*
X-7683500Y-1079500D1*
X-6159500D1*
X-6048470Y-968470D1*
Y-952513D1*
X-6032487D1*
X-5905500Y-1079500D1*
X-4381500D1*
X-4270500Y-968500D1*
Y-952500D1*
X-9604470Y-952513D2*
X-9588487D1*
X-9461500Y-1079500D1*
X-7937500D1*
X-7826470Y-968470D1*
Y-952513D1*
X-7048500Y-2154250D2*
Y-1968500D1*
X-6048470Y-968470D1*
X-8572500Y-2159000D2*
X-8318500D1*
X-7053250D1*
X-7048500Y-2154250D1*
X-3238500Y3079750D2*
X-3429000Y3270250D1*
X-4826000D1*
X-5016500Y3079750D1*
X-5175250Y3238500D1*
X-6635750D1*
X-6794500Y3079750D1*
X-6953250Y3238500D1*
X-8413750D1*
X-8572500Y3079750D1*
X-9169290D1*
X-9461500Y2787540D1*
Y-809543D1*
X-9604470Y-952513D1*
X-1735773Y1386523D2*
Y1418273D1*
X-2000250Y1682750D1*
X-8048510Y1333513D2*
D17*
X-8001013D1*
X-7874000Y1206500D1*
X-6413500D1*
X-6286487Y1333513D1*
X-6270510D1*
Y1317510D1*
X-6159500Y1206500D1*
X-4635500D1*
X-4508487Y1333513D1*
X-4492510D1*
Y1317510D1*
X-4381500Y1206500D1*
X-2857500D1*
X-2730500Y1333500D1*
X-2714500D1*
X-2698700D1*
X-476200Y-889000D1*
X-8048507Y1079513D2*
Y1063507D1*
X-7937500Y952500D1*
X-6413500D1*
X-6286487Y1079513D1*
X-6270507D1*
Y1063507D1*
X-6159500Y952500D1*
X-4635500D1*
X-4508487Y1079513D1*
X-4492507D1*
Y1063507D1*
X-4381500Y952500D1*
X-2857500D1*
X-2730500Y1079500D1*
X-2714500D1*
Y1031750D1*
X-666750Y-1016000D1*
X-349200D1*
X-222200Y-889000D1*
X-8048503Y825513D2*
Y809503D1*
X-7937500Y698500D1*
X-6413500D1*
X-6286487Y825513D1*
X-6270503D1*
Y809503D1*
X-6159500Y698500D1*
X-4635500D1*
X-4508487Y825513D1*
X-4492503D1*
Y809503D1*
X-4381500Y698500D1*
X-2857500D1*
X-2730500Y825500D1*
X-2714500D1*
Y809500D1*
X-762000Y-1143000D1*
X-476200D1*
X-8048497Y571513D2*
Y555497D1*
X-7937500Y444500D1*
X-6413500D1*
X-6286487Y571513D1*
X-6270497D1*
Y555497D1*
X-6159500Y444500D1*
X-4635500D1*
X-4508487Y571513D1*
X-4492497D1*
Y555497D1*
X-4381500Y444500D1*
X-2857500D1*
X-2730500Y571500D1*
X-2714500D1*
Y555500D1*
X-889000Y-1270000D1*
X-349200D1*
X-222200Y-1143000D1*
X-8048493Y317513D2*
Y301493D1*
X-7937500Y190500D1*
X-6413500D1*
X-6286487Y317513D1*
X-6270493D1*
Y301493D1*
X-6159500Y190500D1*
X-4635500D1*
X-4508487Y317513D1*
X-4492493D1*
Y301493D1*
X-4381500Y190500D1*
X-2857500D1*
X-2730500Y317500D1*
X-2714500D1*
X-2667000D1*
X-952500Y-1397000D1*
X-476200D1*
X-8048490Y63513D2*
Y47490D1*
X-7937500Y-63500D1*
X-6413500D1*
X-6286487Y63513D1*
X-6270490D1*
Y47490D1*
X-6159500Y-63500D1*
X-4635500D1*
X-4508487Y63513D1*
X-4492490D1*
Y47490D1*
X-4381500Y-63500D1*
X-2857500D1*
X-2730500Y63500D1*
X-2714500D1*
X-2603500D1*
X-1016000Y-1524000D1*
X-349200D1*
X-222200Y-1397000D1*
X-8048483Y-190487D2*
Y-206517D1*
X-7937500Y-317500D1*
X-6413500D1*
X-6286487Y-190487D1*
X-6270483D1*
Y-206517D1*
X-6159500Y-317500D1*
X-4635500D1*
X-4508487Y-190487D1*
X-4492483D1*
Y-206517D1*
X-4381500Y-317500D1*
X-2857500D1*
X-2730500Y-190500D1*
X-2714500D1*
X-2603500D1*
X-1111250Y-1682750D1*
X-507950D1*
X-476200Y-1651000D1*
X-8048480Y-444487D2*
Y-460520D1*
X-7937500Y-571500D1*
X-6413500D1*
X-6286487Y-444487D1*
X-6270480D1*
Y-460520D1*
X-6159500Y-571500D1*
X-4635500D1*
X-4508487Y-444487D1*
X-4492480D1*
Y-460520D1*
X-4381500Y-571500D1*
X-2857500D1*
X-2730500Y-444500D1*
X-2714500D1*
X-2508250D1*
X-1174750Y-1778000D1*
X-349200D1*
X-222200Y-1651000D1*
X-1174750Y-2413000D2*
X-793750Y-2794000D1*
X-342250D1*
X-222200Y-2673950D1*
Y-2667000D1*
X-1047750Y-2286000D2*
X-666750Y-2667000D1*
X-476200D1*
X-952500Y-2159000D2*
X-698500Y-2413000D1*
X-476200D1*
X-8048473Y-698487D2*
Y-714527D1*
X-7937500Y-825500D1*
X-6413500D1*
X-6286487Y-698487D1*
X-6270473D1*
Y-714527D1*
X-6159500Y-825500D1*
X-4635500D1*
X-4508487Y-698487D1*
X-4492473D1*
Y-714527D1*
X-4381500Y-825500D1*
X-2857500D1*
X-2730500Y-698500D1*
X-2714500D1*
X-2444750D1*
X-1111250Y-2032000D1*
X-349200D1*
X-222200Y-2159000D1*
X-8048517Y1587513D2*
Y1571517D1*
X-7937500Y1460500D1*
X-6413500D1*
X-6286487Y1587513D1*
X-6270517D1*
Y1571517D1*
X-6159500Y1460500D1*
X-4635500D1*
X-4508487Y1587513D1*
X-4492517D1*
Y1571517D1*
X-4381500Y1460500D1*
X-2857500D1*
X-2730500Y1587500D1*
X-2714500D1*
X-2667000D1*
X-1206500Y127000D1*
X-476200D1*
X-8048520Y1841513D2*
Y1825520D1*
X-7937500Y1714500D1*
X-6413500D1*
X-6286487Y1841513D1*
X-6270520D1*
Y1825520D1*
X-6159500Y1714500D1*
X-4635500D1*
X-4508487Y1841513D1*
X-4492520D1*
Y1825520D1*
X-4381500Y1714500D1*
X-2857500D1*
X-2730500Y1841500D1*
X-2714500D1*
X-2698750D1*
X-1143000Y285750D1*
X-380950D1*
X-222200Y127000D1*
X-8048527Y2095513D2*
Y2079527D1*
X-7937500Y1968500D1*
X-6413500D1*
X-6286487Y2095513D1*
X-6270527D1*
Y2079527D1*
X-6159500Y1968500D1*
X-4635500D1*
X-4508487Y2095513D1*
X-4492527D1*
Y2079527D1*
X-4381500Y1968500D1*
X-2857500D1*
X-2730500Y2095500D1*
X-2714500D1*
Y2079500D1*
X-1079500Y444500D1*
X-317500D1*
X-95250Y222250D1*
Y63500D1*
X-158750Y0D1*
X-349200D1*
X-476200Y-127000D1*
X-2730500Y3079750D2*
D18*
Y2365500D1*
X-2714500Y2349500D1*
X-4508500Y3079750D2*
Y2365483D1*
X-4492530Y2349513D1*
X-6286500Y3079750D2*
Y2365483D1*
X-6270530Y2349513D1*
X-8064500Y3079750D2*
Y2365483D1*
X-8048530Y2349513D1*
X-8064500Y3079750D2*
D16*
X-7905750Y2921000D1*
X-6445250D1*
X-6286500Y3079750D1*
X-6127750Y2921000D1*
X-4667250D1*
X-4508500Y3079750D1*
X-4349750Y2921000D1*
X-2889250D1*
X-2730500Y3079750D1*
X-476200Y4699000D2*
D18*
X-6826250D1*
X-6953250Y4572000D1*
X-9493250D1*
X-9715500Y4349750D1*
Y3569093D1*
X-9575407Y3429000D1*
X-8318500D1*
X-9575407D2*
X-9550203Y3403797D1*
X-9842500Y3111500D1*
Y-1746250D1*
X-9144000Y-2444750D1*
X-8604250D1*
X-8572500Y-2413000D1*
X-8318500D1*
X-7107250D1*
X-7048500Y-2354250D1*
X-476200Y4699000D2*
X-222200D1*
X-476200Y635000D2*
D16*
X-984250D1*
X-994727Y645477D1*
X-222200Y635000D2*
X-476200D1*
X-857250Y-3333750D2*
D17*
Y-3873500D1*
X-539750Y-4191000D1*
X-476200D1*
X-8572500Y-1905000D2*
D16*
X-8318500D1*
X-9140697Y4259173D2*
D17*
Y4191000D1*
X-9112250D1*
X-8985250Y4064000D1*
X-8699500D1*
X-8032750Y3397250D1*
X-2413000D1*
X-1524000Y2508250D1*
Y1721047D1*
X-7299197Y4259173D2*
Y4251197D1*
X-6762750Y3714750D1*
X-2254250D1*
X-1238250Y2698750D1*
Y1873250D1*
X-5521197Y4259173D2*
X-5497423D1*
X-5143500Y3905250D1*
X-1968953D1*
X-1016000Y2952297D1*
Y1460047D1*
X-952953Y1397000D1*
X-476200D1*
X-8632700Y4259170D2*
Y4251200D1*
X-7969250Y3587750D1*
X-2349500D1*
X-1365250Y2603500D1*
Y1460500D1*
X-762000Y857250D1*
X-507950D1*
X-476200Y889000D1*
X-6791200Y4259170D2*
Y4219450D1*
X-6381750Y3810000D1*
X-2120703D1*
X-1143000Y2832297D1*
Y1428750D1*
X-984250Y1270000D1*
X-349200D1*
X-222200Y1143000D1*
X-5013200Y4259170D2*
Y4251200D1*
X-4762500Y4000500D1*
X-1873250D1*
X-857250Y2984500D1*
Y1492250D1*
X-3298700Y4259170D2*
Y4251200D1*
X-3175000Y4127500D1*
X-1746250D1*
X-730250Y3111500D1*
Y1594047D1*
X-660203Y1524000D1*
X-349200D1*
X-222200Y1397000D1*
D34*
X-1174750Y-2413000D3*
X-1047750Y-2286000D3*
X-952500Y-2159000D3*
X-8318500Y3429000D3*
X-857250Y-3333750D3*
X-1524000Y1721047D3*
X-1238250Y1873250D3*
X-857250Y1492250D3*
D22*
X-7048500Y-2354250D3*
D23*
Y-2154250D3*
D24*
X-8064500Y3079750D3*
X-8572500D3*
X-6286500D3*
X-6794500D3*
X-4508500D3*
X-5016500D3*
X-2730500D3*
X-3238500D3*
D72*
X-1735774Y1386524D3*
D25*
X-994726Y645476D3*
D26*
X-476200Y127000D3*
D27*
X-222200D3*
X-476200Y-127000D3*
X-222200D3*
X-476200Y-381000D3*
X-222200D3*
X-476200Y-635000D3*
X-222200D3*
X-476200Y-889000D3*
X-222200D3*
X-476200Y-1143000D3*
X-222200D3*
X-476200Y-1397000D3*
X-222200D3*
X-476200Y-1651000D3*
X-222200D3*
X-476200Y-1905000D3*
X-222200D3*
X-476200Y-2159000D3*
X-222200D3*
X-476200Y-2413000D3*
X-222200D3*
X-476200Y-2667000D3*
X-222200D3*
X-476200Y-2921000D3*
X-222200D3*
X-476200Y-3175000D3*
X-222200D3*
X-476200Y-3429000D3*
X-222200D3*
X-476200Y-3683000D3*
X-222200D3*
X-476200Y-3937000D3*
X-222200D3*
X-476200Y-4191000D3*
X-222200D3*
X-476200Y-4445000D3*
X-222200D3*
X-476200Y-4699000D3*
X-222200D3*
D26*
X-476200Y4699000D3*
D27*
X-222200D3*
X-476200Y4445000D3*
X-222200D3*
X-476200Y4191000D3*
X-222200D3*
X-476200Y3937000D3*
X-222200D3*
X-476200Y3683000D3*
X-222200D3*
X-476200Y3429000D3*
X-222200D3*
X-476200Y3175000D3*
X-222200D3*
X-476200Y2921000D3*
X-222200D3*
X-476200Y2667000D3*
X-222200D3*
X-476200Y2413000D3*
X-222200D3*
X-476200Y2159000D3*
X-222200D3*
X-476200Y1905000D3*
X-222200D3*
X-476200Y1651000D3*
X-222200D3*
X-476200Y1397000D3*
X-222200D3*
X-476200Y1143000D3*
X-222200D3*
X-476200Y889000D3*
X-222200D3*
X-476200Y635000D3*
X-222200D3*
D28*
X-8572500Y-1905000D3*
D29*
X-8318500D3*
X-8572500Y-2159000D3*
X-8318500D3*
X-8572500Y-2413000D3*
X-8318500D3*
D30*
X-9140697Y4259173D3*
X-8632700Y4259170D3*
X-8886697Y4259173D3*
X-7299197D3*
X-6791200Y4259170D3*
X-7045197Y4259173D3*
X-5521197D3*
X-5013200Y4259170D3*
X-5267197Y4259173D3*
X-3806697D3*
X-3298700Y4259170D3*
X-3552697Y4259173D3*
D31*
X-2000250Y1682750D3*
Y-1905000D3*
X-5270500Y1079500D3*
Y2381250D3*
X-3556000D3*
Y1079500D3*
D32*
X-8048470Y-952486D3*
D33*
X-8048474Y-698486D3*
X-8048479Y-444486D3*
X-8048484Y-190486D3*
X-8048488Y63514D3*
X-8048493Y317514D3*
X-8048498Y571514D3*
X-8048502Y825514D3*
X-8048507Y1079514D3*
X-8048512Y1333514D3*
X-8048516Y1587514D3*
X-8048521Y1841514D3*
X-8048526Y2095514D3*
X-8048530Y2349514D3*
X-9604530Y2349485D3*
X-9604526Y2095485D3*
X-9604521Y1841485D3*
X-9604516Y1587485D3*
X-9604512Y1333485D3*
X-9604507Y1079485D3*
X-9604502Y825485D3*
X-9604498Y571485D3*
X-9604493Y317485D3*
X-9604488Y63485D3*
X-9604484Y-190515D3*
X-9604479Y-444515D3*
X-9604474Y-698515D3*
X-9604470Y-952515D3*
D32*
X-6270470Y-952486D3*
D33*
X-6270474Y-698486D3*
X-6270479Y-444486D3*
X-6270484Y-190486D3*
X-6270488Y63514D3*
X-6270493Y317514D3*
X-6270498Y571514D3*
X-6270502Y825514D3*
X-6270507Y1079514D3*
X-6270512Y1333514D3*
X-6270516Y1587514D3*
X-6270521Y1841514D3*
X-6270526Y2095514D3*
X-6270530Y2349514D3*
X-7826530Y2349485D3*
X-7826526Y2095485D3*
X-7826521Y1841485D3*
X-7826516Y1587485D3*
X-7826512Y1333485D3*
X-7826507Y1079485D3*
X-7826502Y825485D3*
X-7826498Y571485D3*
X-7826493Y317485D3*
X-7826488Y63485D3*
X-7826484Y-190515D3*
X-7826479Y-444515D3*
X-7826474Y-698515D3*
X-7826470Y-952515D3*
D32*
X-4492470Y-952486D3*
D33*
X-4492474Y-698486D3*
X-4492479Y-444486D3*
X-4492484Y-190486D3*
X-4492488Y63514D3*
X-4492493Y317514D3*
X-4492498Y571514D3*
X-4492502Y825514D3*
X-4492507Y1079514D3*
X-4492512Y1333514D3*
X-4492516Y1587514D3*
X-4492521Y1841514D3*
X-4492526Y2095514D3*
X-4492530Y2349514D3*
X-6048530Y2349485D3*
X-6048526Y2095485D3*
X-6048521Y1841485D3*
X-6048516Y1587485D3*
X-6048512Y1333485D3*
X-6048507Y1079485D3*
X-6048502Y825485D3*
X-6048498Y571485D3*
X-6048493Y317485D3*
X-6048488Y63485D3*
X-6048484Y-190515D3*
X-6048479Y-444515D3*
X-6048474Y-698515D3*
X-6048470Y-952515D3*
D32*
X-2714500Y-952500D3*
D33*
Y-698500D3*
Y-444500D3*
Y-190500D3*
Y63500D3*
Y317500D3*
Y571500D3*
Y825500D3*
Y1079500D3*
Y1333500D3*
Y1587500D3*
Y1841500D3*
Y2095500D3*
Y2349500D3*
X-4270500D3*
Y2095500D3*
Y1841500D3*
Y1587500D3*
Y1333500D3*
Y1079500D3*
Y825500D3*
Y571500D3*
Y317500D3*
Y63500D3*
Y-190500D3*
Y-444500D3*
Y-698500D3*
Y-952500D3*
M02*
