G04 DipTrace 4.3.0.5*
G04 2 - Bottom.gbr*
%MOMM*%
G04 #@! TF.FileFunction,Copper,L2,Bot*
G04 #@! TF.Part,Single*
%AMOUTLINE0*
4,1,4,
0.0,1.1243,
1.1243,0.0,
0.0,-1.1243,
-1.1243,0.0,
0.0,1.1243,
0*%
G04 #@! TA.AperFunction,Conductor*
%ADD16C,0.66*%
%ADD17C,0.3302*%
%ADD18C,0.6604*%
G04 #@! TA.AperFunction,ComponentPad*
%ADD22R,1.1X1.1*%
%ADD23C,1.1*%
%ADD24C,1.65*%
%ADD25C,1.59*%
%ADD26R,1.71X1.71*%
%ADD27C,1.71*%
%ADD28R,1.62X1.62*%
%ADD29C,1.62*%
%ADD30O,2.159X1.905*%
%ADD31C,1.5*%
%ADD32R,1.25X1.25*%
%ADD33C,1.25*%
G04 #@! TA.AperFunction,ViaPad*
%ADD34C,1.016*%
G04 #@! TA.AperFunction,ComponentPad*
%ADD72OUTLINE0*%
%FSLAX35Y35*%
G04*
G71*
G90*
G75*
G01*
G04 Bottom*
%LPD*%
X-9604480Y-444513D2*
D16*
Y-460270D1*
X-9493250Y-571500D1*
X-7937500D1*
X-7826480Y-460480D1*
Y-444513D1*
Y-460270D2*
X-7715250Y-571500D1*
X-6159500D1*
X-6048480Y-460480D1*
Y-444513D1*
Y-492020D1*
X-5969000Y-571500D1*
X-4381500D1*
X-4270500Y-460500D1*
Y-444500D1*
X-9604480Y-460480D2*
X-9747250Y-603250D1*
Y-809733D1*
X-9604470Y-952513D1*
X-9604483Y-190513D2*
D17*
X-9588487D1*
X-9461500Y-317500D1*
X-7937500D1*
X-7826483Y-206483D1*
Y-190513D1*
X-7810487D1*
X-7683500Y-317500D1*
X-6159500D1*
X-6048483Y-206483D1*
Y-190513D1*
X-6032487D1*
X-5905500Y-317500D1*
X-4381500D1*
X-4270500Y-206500D1*
Y-190500D1*
X-2857500D1*
X-2762250Y-95250D1*
X-2603500D1*
X-1174750Y-1524000D1*
Y-2413000D1*
X-9604490Y63487D2*
X-9588487D1*
X-9461500Y-63500D1*
X-7937500D1*
X-7826490Y47510D1*
Y63487D1*
X-7810487D1*
X-7683500Y-63500D1*
X-6159500D1*
X-6048490Y47510D1*
Y63487D1*
X-6032487D1*
X-5905500Y-63500D1*
X-4381500D1*
X-4270500Y47500D1*
Y63500D1*
X-2857500D1*
X-2730500Y190500D1*
X-2603500D1*
X-1047750Y-1365250D1*
Y-2286000D1*
X-9604503Y825487D2*
X-9588487D1*
X-9461500Y698500D1*
X-7937500D1*
X-7826503Y809497D1*
Y825487D1*
X-7810487D1*
X-7683500Y698500D1*
X-6159500D1*
X-6048503Y809497D1*
Y825487D1*
X-6032487D1*
X-5905500Y698500D1*
X-4381500D1*
X-4270500Y809500D1*
Y825500D1*
X-2857500D1*
X-2730500Y952500D1*
X-2635250D1*
X-762000Y-920750D1*
Y-2120703D1*
X-596703Y-2286000D1*
X-349200D1*
X-222200Y-2413000D1*
X-9604493Y317487D2*
X-9588487D1*
X-9461500Y190500D1*
X-7937500D1*
X-7826493Y301507D1*
Y317487D1*
X-7810487D1*
X-7683500Y190500D1*
X-6159500D1*
X-6048493Y301507D1*
Y317487D1*
X-6032487D1*
X-5905500Y190500D1*
X-4381500D1*
X-4270500Y301500D1*
Y317500D1*
X-2889250D1*
X-2762250Y444500D1*
X-2540000D1*
X-952500Y-1143000D1*
Y-2159000D1*
X-9604530Y2349487D2*
X-9588487D1*
X-9461500Y2222500D1*
X-7937500D1*
X-7826530Y2333470D1*
Y2349487D1*
X-7810487D1*
X-7683500Y2222500D1*
X-6159500D1*
X-6048530Y2333470D1*
Y2349487D1*
X-6032487D1*
X-5905500Y2222500D1*
X-4381500D1*
X-4270500Y2333500D1*
Y2349500D1*
X-4254500D1*
X-4127500Y2222500D1*
X-2635250D1*
X-2413000Y2000250D1*
Y1746250D1*
X-666750Y0D1*
X-349200D1*
X-222200Y-127000D1*
X-9604527Y2095487D2*
X-9588487D1*
X-9461500Y1968500D1*
X-7937500D1*
X-7826527Y2079473D1*
Y2095487D1*
X-7810487D1*
X-7683500Y1968500D1*
X-6159500D1*
X-6048527Y2079473D1*
Y2095487D1*
X-6032487D1*
X-5905500Y1968500D1*
X-4381500D1*
X-4270500Y2079500D1*
Y2095500D1*
Y2079750D2*
X-4159250Y1968500D1*
X-2603500D1*
X-2540000Y1905000D1*
Y1746250D1*
X-666750Y-127000D1*
Y-254000D1*
X-539750Y-381000D1*
X-476200D1*
X-9604520Y1841487D2*
X-9588487D1*
X-9461500Y1714500D1*
X-7937500D1*
X-7826520Y1825480D1*
Y1841487D1*
X-7810487D1*
X-7683500Y1714500D1*
X-6159500D1*
X-6048520Y1825480D1*
Y1841487D1*
X-6032487D1*
X-5905500Y1714500D1*
X-4381500D1*
X-4270500Y1825500D1*
Y1841500D1*
Y1794000D1*
X-4159250Y1682750D1*
X-2635250D1*
X-793750Y-158750D1*
Y-317500D1*
X-603250Y-508000D1*
X-349200D1*
X-222200Y-381000D1*
X-9604517Y1587487D2*
X-9588487D1*
X-9461500Y1460500D1*
X-7937500D1*
X-7826517Y1571483D1*
Y1587487D1*
X-7810487D1*
X-7683500Y1460500D1*
X-6159500D1*
X-6048517Y1571483D1*
Y1587487D1*
X-6032487D1*
X-5905500Y1460500D1*
X-4381500D1*
X-4270500Y1571500D1*
Y1587500D1*
Y1571750D2*
X-4159250Y1460500D1*
X-2667000D1*
X-571500Y-635000D1*
X-476200D1*
X-9604510Y1333487D2*
X-9588487D1*
X-9461500Y1206500D1*
X-7937500D1*
X-7826510Y1317490D1*
Y1333487D1*
X-7810487D1*
X-7683500Y1206500D1*
X-6159500D1*
X-6048510Y1317490D1*
Y1333487D1*
X-6032487D1*
X-5905500Y1206500D1*
X-4381500D1*
X-4270500Y1317500D1*
Y1333500D1*
Y1286000D1*
X-4191000Y1206500D1*
X-2667000D1*
X-698500Y-762000D1*
X-349200D1*
X-222200Y-635000D1*
X-8318500Y3429000D2*
D18*
X-8204593D1*
X-8064500Y3288907D1*
Y3079750D1*
X-7045197Y4259173D2*
D17*
Y4378197D1*
X-7207250Y4540250D1*
X-9429750D1*
X-9842500Y4127500D1*
Y1143000D1*
X-9652000Y952500D1*
X-7969250D1*
X-7842263Y1079487D1*
X-7826507D1*
X-5267197Y4259173D2*
Y2384553D1*
X-5270500Y2381250D1*
X-3552697Y4259173D2*
Y4314697D1*
X-3714750Y4476750D1*
X-4032250D1*
Y2857500D1*
X-3556000Y2381250D1*
X-4270500Y1079500D2*
X-3556000D1*
X-9604473Y-698513D2*
X-9588487D1*
X-9461500Y-825500D1*
X-7937500D1*
X-7826473Y-714473D1*
Y-698513D1*
X-7810487D1*
X-7683500Y-825500D1*
X-6159500D1*
X-6048473Y-714473D1*
Y-698513D1*
X-6032487D1*
X-5905500Y-825500D1*
X-4381500D1*
X-4270500Y-714500D1*
Y-698500D1*
X-4254500D1*
X-3841750Y-1111250D1*
X-2095500D1*
X-1365250Y-1841500D1*
Y-3048000D1*
X-603250Y-3810000D1*
X-349200D1*
X-222200Y-3937000D1*
X-9604497Y571487D2*
X-9588487D1*
X-9461500Y444500D1*
X-7937500D1*
X-7826497Y555503D1*
Y571487D1*
X-7810487D1*
X-7683500Y444500D1*
X-6159500D1*
X-6048497Y555503D1*
Y571487D1*
X-6032487D1*
X-5905500Y444500D1*
X-4381500D1*
X-4270500Y555500D1*
Y571500D1*
X-2889250D1*
X-2762250Y698500D1*
X-2610047D1*
X-857250Y-1054297D1*
Y-3333750D1*
X-6048507Y1079487D2*
X-5270513D1*
X-5270500Y1079500D1*
X-8318500Y-1905000D2*
D16*
X-2000250D1*
X-8886697Y4259173D2*
D17*
Y4378197D1*
X-8953500Y4445000D1*
X-9334500D1*
X-9747250Y4032250D1*
Y1222230D1*
X-9604507Y1079487D1*
X-1524000Y1721047D2*
X-1453953Y1651000D1*
X-476200D1*
X-1238250Y1873250D2*
X-1143000Y1778000D1*
X-349200D1*
X-222200Y1651000D1*
X-3806697Y4259173D2*
Y4187697D1*
X-3714750Y4095750D1*
X-2508250D1*
X-1905000Y3492500D1*
Y1905000D1*
X-1016000Y1016000D1*
X-349200D1*
X-222200Y889000D1*
X-857250Y1492250D2*
X-920750D1*
Y1206047D1*
X-857703Y1143000D1*
X-476200D1*
D34*
X-1174750Y-2413000D3*
X-1047750Y-2286000D3*
X-952500Y-2159000D3*
X-8318500Y3429000D3*
X-857250Y-3333750D3*
X-1524000Y1721047D3*
X-1238250Y1873250D3*
X-857250Y1492250D3*
D22*
X-7048500Y-2354250D3*
D23*
Y-2154250D3*
D24*
X-8064500Y3079750D3*
X-8572500D3*
X-6286500D3*
X-6794500D3*
X-4508500D3*
X-5016500D3*
X-2730500D3*
X-3238500D3*
D72*
X-1735774Y1386524D3*
D25*
X-994726Y645476D3*
D26*
X-476200Y127000D3*
D27*
X-222200D3*
X-476200Y-127000D3*
X-222200D3*
X-476200Y-381000D3*
X-222200D3*
X-476200Y-635000D3*
X-222200D3*
X-476200Y-889000D3*
X-222200D3*
X-476200Y-1143000D3*
X-222200D3*
X-476200Y-1397000D3*
X-222200D3*
X-476200Y-1651000D3*
X-222200D3*
X-476200Y-1905000D3*
X-222200D3*
X-476200Y-2159000D3*
X-222200D3*
X-476200Y-2413000D3*
X-222200D3*
X-476200Y-2667000D3*
X-222200D3*
X-476200Y-2921000D3*
X-222200D3*
X-476200Y-3175000D3*
X-222200D3*
X-476200Y-3429000D3*
X-222200D3*
X-476200Y-3683000D3*
X-222200D3*
X-476200Y-3937000D3*
X-222200D3*
X-476200Y-4191000D3*
X-222200D3*
X-476200Y-4445000D3*
X-222200D3*
X-476200Y-4699000D3*
X-222200D3*
D26*
X-476200Y4699000D3*
D27*
X-222200D3*
X-476200Y4445000D3*
X-222200D3*
X-476200Y4191000D3*
X-222200D3*
X-476200Y3937000D3*
X-222200D3*
X-476200Y3683000D3*
X-222200D3*
X-476200Y3429000D3*
X-222200D3*
X-476200Y3175000D3*
X-222200D3*
X-476200Y2921000D3*
X-222200D3*
X-476200Y2667000D3*
X-222200D3*
X-476200Y2413000D3*
X-222200D3*
X-476200Y2159000D3*
X-222200D3*
X-476200Y1905000D3*
X-222200D3*
X-476200Y1651000D3*
X-222200D3*
X-476200Y1397000D3*
X-222200D3*
X-476200Y1143000D3*
X-222200D3*
X-476200Y889000D3*
X-222200D3*
X-476200Y635000D3*
X-222200D3*
D28*
X-8572500Y-1905000D3*
D29*
X-8318500D3*
X-8572500Y-2159000D3*
X-8318500D3*
X-8572500Y-2413000D3*
X-8318500D3*
D30*
X-9140697Y4259173D3*
X-8632700Y4259170D3*
X-8886697Y4259173D3*
X-7299197D3*
X-6791200Y4259170D3*
X-7045197Y4259173D3*
X-5521197D3*
X-5013200Y4259170D3*
X-5267197Y4259173D3*
X-3806697D3*
X-3298700Y4259170D3*
X-3552697Y4259173D3*
D31*
X-2000250Y1682750D3*
Y-1905000D3*
X-5270500Y1079500D3*
Y2381250D3*
X-3556000D3*
Y1079500D3*
D32*
X-8048470Y-952486D3*
D33*
X-8048474Y-698486D3*
X-8048479Y-444486D3*
X-8048484Y-190486D3*
X-8048488Y63514D3*
X-8048493Y317514D3*
X-8048498Y571514D3*
X-8048502Y825514D3*
X-8048507Y1079514D3*
X-8048512Y1333514D3*
X-8048516Y1587514D3*
X-8048521Y1841514D3*
X-8048526Y2095514D3*
X-8048530Y2349514D3*
X-9604530Y2349485D3*
X-9604526Y2095485D3*
X-9604521Y1841485D3*
X-9604516Y1587485D3*
X-9604512Y1333485D3*
X-9604507Y1079485D3*
X-9604502Y825485D3*
X-9604498Y571485D3*
X-9604493Y317485D3*
X-9604488Y63485D3*
X-9604484Y-190515D3*
X-9604479Y-444515D3*
X-9604474Y-698515D3*
X-9604470Y-952515D3*
D32*
X-6270470Y-952486D3*
D33*
X-6270474Y-698486D3*
X-6270479Y-444486D3*
X-6270484Y-190486D3*
X-6270488Y63514D3*
X-6270493Y317514D3*
X-6270498Y571514D3*
X-6270502Y825514D3*
X-6270507Y1079514D3*
X-6270512Y1333514D3*
X-6270516Y1587514D3*
X-6270521Y1841514D3*
X-6270526Y2095514D3*
X-6270530Y2349514D3*
X-7826530Y2349485D3*
X-7826526Y2095485D3*
X-7826521Y1841485D3*
X-7826516Y1587485D3*
X-7826512Y1333485D3*
X-7826507Y1079485D3*
X-7826502Y825485D3*
X-7826498Y571485D3*
X-7826493Y317485D3*
X-7826488Y63485D3*
X-7826484Y-190515D3*
X-7826479Y-444515D3*
X-7826474Y-698515D3*
X-7826470Y-952515D3*
D32*
X-4492470Y-952486D3*
D33*
X-4492474Y-698486D3*
X-4492479Y-444486D3*
X-4492484Y-190486D3*
X-4492488Y63514D3*
X-4492493Y317514D3*
X-4492498Y571514D3*
X-4492502Y825514D3*
X-4492507Y1079514D3*
X-4492512Y1333514D3*
X-4492516Y1587514D3*
X-4492521Y1841514D3*
X-4492526Y2095514D3*
X-4492530Y2349514D3*
X-6048530Y2349485D3*
X-6048526Y2095485D3*
X-6048521Y1841485D3*
X-6048516Y1587485D3*
X-6048512Y1333485D3*
X-6048507Y1079485D3*
X-6048502Y825485D3*
X-6048498Y571485D3*
X-6048493Y317485D3*
X-6048488Y63485D3*
X-6048484Y-190515D3*
X-6048479Y-444515D3*
X-6048474Y-698515D3*
X-6048470Y-952515D3*
D32*
X-2714500Y-952500D3*
D33*
Y-698500D3*
Y-444500D3*
Y-190500D3*
Y63500D3*
Y317500D3*
Y571500D3*
Y825500D3*
Y1079500D3*
Y1333500D3*
Y1587500D3*
Y1841500D3*
Y2095500D3*
Y2349500D3*
X-4270500D3*
Y2095500D3*
Y1841500D3*
Y1587500D3*
Y1333500D3*
Y1079500D3*
Y825500D3*
Y571500D3*
Y317500D3*
Y63500D3*
Y-190500D3*
Y-444500D3*
Y-698500D3*
Y-952500D3*
M02*
