M48
METRIC,0000.00
T01C0.486
T02C0.7
T03C0.83
T04C0.9
T05C1.0
T06C1.06
T07C1.08
T08C1.14
%
T01
X-001175Y-002413
X-001048Y-002286
X-000952Y-002159
X-000857Y-003334
X-000857Y+001492
X-001238Y+001873
X-001524Y+001721
X-008319Y+003429
T02
X-007049Y-002354
X-007049Y-002154
T03
X-008048Y-000952
X-007826Y-000953
X-007826Y-000699
X-008048Y-000698
X-008048Y-000444
X-007826Y-000445
X-007826Y-000191
X-008048Y-000190
X-008048Y+000064
X-007826Y+000063
X-007826Y+000317
X-008048Y+000318
X-008048Y+000572
X-007826Y+000571
X-007827Y+000825
X-008049Y+000826
X-008049Y+001080
X-007827Y+001079
X-007827Y+001333
X-008049Y+001334
X-008049Y+001588
X-007827Y+001587
X-007827Y+001841
X-008049Y+001842
X-008049Y+002096
X-007827Y+002095
X-007827Y+002349
X-008049Y+002350
X-009605Y+002349
X-009605Y+002095
X-009605Y+001841
X-009605Y+001587
X-009605Y+001333
X-009605Y+001079
X-009605Y+000825
X-009604Y+000571
X-009604Y+000317
X-009604Y+000063
X-009604Y-000191
X-009604Y-000445
X-009604Y-000699
X-009604Y-000953
X-006270Y-000952
X-006048Y-000953
X-006048Y-000699
X-006270Y-000698
X-006270Y-000444
X-006048Y-000445
X-006048Y-000191
X-006270Y-000190
X-006270Y+000064
X-006048Y+000063
X-006048Y+000317
X-006270Y+000318
X-006270Y+000572
X-006048Y+000571
X-006049Y+000825
X-006271Y+000826
X-006271Y+001080
X-006049Y+001079
X-006049Y+001333
X-006271Y+001334
X-006271Y+001588
X-006049Y+001587
X-006049Y+001841
X-006271Y+001842
X-006271Y+002096
X-006049Y+002095
X-006049Y+002349
X-006271Y+002350
X-004493Y+002350
X-004271Y+002350
X-004271Y+002096
X-004493Y+002096
X-004493Y+001842
X-004271Y+001841
X-004271Y+001588
X-004493Y+001588
X-004493Y+001334
X-004271Y+001334
X-004271Y+001079
X-004493Y+001080
X-004493Y+000826
X-004271Y+000825
X-004271Y+000572
X-004492Y+000572
X-004492Y+000318
X-004271Y+000318
X-004271Y+000063
X-004492Y+000064
X-004492Y-000190
X-004271Y-000190
X-004271Y-000444
X-004492Y-000444
X-004492Y-000698
X-004271Y-000699
X-004271Y-000952
X-004492Y-000952
X-002715Y-000952
X-002715Y-000699
X-002715Y-000444
X-002715Y-000190
X-002715Y+000063
X-002715Y+000318
X-002715Y+000572
X-002715Y+000825
X-002715Y+001079
X-002715Y+001334
X-002715Y+001588
X-002715Y+001841
X-002715Y+002096
X-002715Y+002350
T04
X-002000Y+001683
X-003556Y+001079
X-003556Y+002381
X-005271Y+002381
X-005271Y+001079
X-002000Y-001905
T05
X-008065Y+003080
X-008573Y+003080
X-008633Y+004259
X-008887Y+004259
X-009141Y+004259
X-007299Y+004259
X-007045Y+004259
X-006791Y+004259
X-006794Y+003080
X-006287Y+003080
X-005016Y+003080
X-004509Y+003080
X-003238Y+003080
X-002731Y+003080
X-003299Y+004259
X-003553Y+004259
X-003807Y+004259
X-005013Y+004259
X-005267Y+004259
X-005521Y+004259
T06
X-001736Y+001387
X-000995Y+000645
T07
X-008573Y-001905
X-008318Y-001905
X-008318Y-002159
X-008318Y-002413
X-008573Y-002413
X-008573Y-002159
T08
X-000476Y+000127
X-000222Y+000127
X-000222Y-000127
X-000476Y-000127
X-000476Y-000381
X-000222Y-000381
X-000222Y-000635
X-000476Y-000635
X-000476Y-000889
X-000222Y-000889
X-000222Y-001143
X-000222Y-001397
X-000476Y-001397
X-000476Y-001143
X-000476Y-001651
X-000222Y-001651
X-000222Y-001905
X-000476Y-001905
X-000476Y-002159
X-000476Y-002413
X-000222Y-002413
X-000222Y-002667
X-000476Y-002667
X-000476Y-002921
X-000476Y-003175
X-000222Y-003175
X-000222Y-003429
X-000476Y-003429
X-000476Y-003683
X-000222Y-003683
X-000222Y-003937
X-000476Y-003937
X-000476Y-004191
X-000222Y-004191
X-000222Y-004445
X-000476Y-004445
X-000476Y-004699
X-000222Y-004699
X-000222Y-002921
X-000222Y-002159
X-000222Y+000635
X-000476Y+000635
X-000476Y+000889
X-000476Y+001143
X-000476Y+001397
X-000222Y+001397
X-000222Y+001143
X-000222Y+000889
X-000222Y+001651
X-000222Y+001905
X-000222Y+002159
X-000476Y+002159
X-000476Y+001905
X-000476Y+001651
X-000476Y+002413
X-000476Y+002667
X-000222Y+002667
X-000222Y+002921
X-000476Y+002921
X-000476Y+003175
X-000476Y+003429
X-000222Y+003429
X-000222Y+003683
X-000476Y+003683
X-000476Y+003937
X-000476Y+004191
X-000222Y+004191
X-000222Y+004445
X-000476Y+004445
X-000476Y+004699
X-000222Y+004699
X-000222Y+003937
X-000222Y+003175
X-000222Y+002413
T00
M30
