G04 DipTrace 4.3.0.5*
G04 TopAssembly.gbr*
%MOMM*%
G04 #@! TF.FileFunction,Drawing,Top*
G04 #@! TF.Part,Single*
%ADD13C,0.12*%
%ADD19C,0.1*%
%FSLAX35Y35*%
G04*
G71*
G90*
G75*
G01*
G04 TopAssy*
%LPD*%
X-7323500Y-2254250D2*
D13*
G02X-7323500Y-2254250I275000J0D01*
G01*
G36*
X-7295280Y-2551030D2*
X-7301806Y-2550602D1*
X-7308221Y-2549326D1*
X-7314414Y-2547224D1*
X-7320280Y-2544331D1*
X-7325718Y-2540698D1*
X-7330635Y-2536385D1*
X-7334948Y-2531468D1*
X-7338581Y-2526030D1*
X-7341474Y-2520164D1*
X-7343576Y-2513971D1*
X-7344852Y-2507556D1*
X-7345280Y-2501030D1*
X-7344852Y-2494504D1*
X-7343576Y-2488089D1*
X-7341474Y-2481896D1*
X-7338581Y-2476030D1*
X-7334948Y-2470592D1*
X-7330635Y-2465675D1*
X-7325718Y-2461362D1*
X-7320280Y-2457729D1*
X-7314414Y-2454836D1*
X-7308221Y-2452734D1*
X-7301806Y-2451458D1*
X-7295280Y-2451030D1*
D1*
X-7288754Y-2451458D1*
X-7282339Y-2452734D1*
X-7276146Y-2454836D1*
X-7270280Y-2457729D1*
X-7264842Y-2461362D1*
X-7259925Y-2465675D1*
X-7255612Y-2470592D1*
X-7251979Y-2476030D1*
X-7249086Y-2481896D1*
X-7246984Y-2488089D1*
X-7245708Y-2494504D1*
X-7245280Y-2501030D1*
X-7245708Y-2507556D1*
X-7246984Y-2513971D1*
X-7249086Y-2520164D1*
X-7251979Y-2526030D1*
X-7255612Y-2531468D1*
X-7259925Y-2536385D1*
X-7264842Y-2540698D1*
X-7270280Y-2544331D1*
X-7276146Y-2547224D1*
X-7282339Y-2549326D1*
X-7288754Y-2550602D1*
X-7295280Y-2551030D1*
D1*
G37*
X-1644557Y1104388D2*
D13*
X-1517278Y1231668D1*
X-1389999D1*
X-1085943Y927612D1*
X-1276862Y736693D1*
X-1644557Y1104388D1*
X-1679559Y1330309D2*
X-1549098Y1199848D1*
X-1181402Y832152D2*
X-1050941Y701691D1*
X-603200Y154000D2*
X-503200Y254000D1*
X-95200D1*
Y-4826000D1*
X-603200D1*
Y154000D1*
Y4726000D2*
X-503200Y4826000D1*
X-95200D1*
Y508000D1*
X-603200D1*
Y4726000D1*
X-8984000Y-1854633D2*
X-8921367Y-1792000D1*
X-8796000D1*
Y-2526000D1*
X-8984000D1*
Y-1854633D1*
X-8089465Y-1189487D2*
X-8189463Y-1289489D1*
X-9563463Y-1289514D1*
X-9563537Y2686486D1*
X-8089537Y2686513D1*
X-8089465Y-1189487D1*
X-6311465D2*
X-6411463Y-1289489D1*
X-7785463Y-1289514D1*
X-7785537Y2686486D1*
X-6311537Y2686513D1*
X-6311465Y-1189487D1*
X-4533465D2*
X-4633463Y-1289489D1*
X-6007463Y-1289514D1*
X-6007537Y2686486D1*
X-4533537Y2686513D1*
X-4533465Y-1189487D1*
X-2755500Y-1189500D2*
X-2855500Y-1289500D1*
X-4229500D1*
Y2686500D1*
X-2755500D1*
Y-1189500D1*
X-9588500Y6350000D2*
D19*
X-1587500D1*
Y4254500D1*
X-9588500D1*
Y6350000D1*
M02*
