G04 DipTrace 4.3.0.5*
G04 TopDimension.gbr*
%MOMM*%
G04 #@! TF.FileFunction,Drawing,Top*
G04 #@! TF.Part,Single*
%ADD15C,0.035*%
%ADD69C,0.15686*%
%ADD71C,0.23529*%
%FSLAX35Y35*%
G04*
G71*
G90*
G75*
G01*
G04 TopDimension*
%LPD*%
X-9993123Y5000000D2*
D15*
X-10895000D1*
X-9993123Y-5000000D2*
X-10895000D1*
X-10795000Y0D2*
Y4800000D1*
G36*
Y5000000D2*
X-10755000Y4800000D1*
X-10835000D1*
X-10795000Y5000000D1*
G37*
Y0D2*
D15*
Y-4800000D1*
G36*
Y-5000000D2*
X-10835000Y-4800000D1*
X-10755000D1*
X-10795000Y-5000000D1*
G37*
X-9993123Y5000000D2*
D15*
Y5815000D1*
X6877Y5000000D2*
Y5815000D1*
X-4993123Y5715000D2*
X-9793123D1*
G36*
X-9993123D2*
X-9793123Y5755000D1*
Y5675000D1*
X-9993123Y5715000D1*
G37*
X-4993123D2*
D15*
X-193123D1*
G36*
X6877D2*
X-193123Y5675000D1*
Y5755000D1*
X6877Y5715000D1*
G37*
X-10000000Y5000000D2*
D15*
Y5257000D1*
X-7493000Y4763127D2*
Y5257000D1*
X-8746500Y5207000D2*
X-9900000D1*
G36*
X-10000000D2*
X-9900000Y5227000D1*
Y5187000D1*
X-10000000Y5207000D1*
G37*
X-8746500D2*
D15*
X-7593000D1*
G36*
X-7493000D2*
X-7593000Y5187000D1*
Y5227000D1*
X-7493000Y5207000D1*
G37*
X0Y5000000D2*
D15*
Y5257000D1*
X-7493000Y4763127D2*
Y5257000D1*
X-3746500Y5207000D2*
X-100000D1*
G36*
X0D2*
X-100000Y5187000D1*
Y5227000D1*
X0Y5207000D1*
G37*
X-3746500D2*
D15*
X-7393000D1*
G36*
X-7493000D2*
X-7393000Y5227000D1*
Y5187000D1*
X-7493000Y5207000D1*
G37*
X-8572500Y-2413000D2*
D15*
X-10450500D1*
X-10000000Y-5000000D2*
X-10450500D1*
X-10350500Y-3706500D2*
Y-2613000D1*
G36*
Y-2413000D2*
X-10310500Y-2613000D1*
X-10390500D1*
X-10350500Y-2413000D1*
G37*
Y-3706500D2*
D15*
Y-4800000D1*
G36*
Y-5000000D2*
X-10390500Y-4800000D1*
X-10310500D1*
X-10350500Y-5000000D1*
G37*
X-10965342Y-437330D2*
D71*
X-10972755Y-422674D1*
X-10994486Y-400774D1*
X-10841523D1*
X-10994486Y-309915D2*
X-10987242Y-331815D1*
X-10965342Y-346472D1*
X-10928955Y-353715D1*
X-10907055D1*
X-10870667Y-346472D1*
X-10848767Y-331815D1*
X-10841523Y-309915D1*
Y-295428D1*
X-10848767Y-273528D1*
X-10870667Y-259040D1*
X-10907055Y-251628D1*
X-10928955D1*
X-10965342Y-259040D1*
X-10987242Y-273528D1*
X-10994486Y-295428D1*
Y-309915D1*
X-10965342Y-259040D2*
X-10870667Y-346472D1*
X-10994486Y-160769D2*
X-10987242Y-182669D1*
X-10965342Y-197325D1*
X-10928955Y-204569D1*
X-10907055D1*
X-10870667Y-197325D1*
X-10848767Y-182669D1*
X-10841523Y-160769D1*
Y-146281D1*
X-10848767Y-124381D1*
X-10870667Y-109894D1*
X-10907055Y-102481D1*
X-10928955D1*
X-10965342Y-109894D1*
X-10987242Y-124381D1*
X-10994486Y-146281D1*
Y-160769D1*
X-10965342Y-109894D2*
X-10870667Y-197325D1*
X-10943611Y92713D2*
X-10841523D1*
X-10914467D2*
X-10936367Y114613D1*
X-10943611Y129269D1*
Y151001D1*
X-10936367Y165657D1*
X-10914467Y172901D1*
X-10841523D1*
X-10914467D2*
X-10936367Y194801D1*
X-10943611Y209457D1*
Y231189D1*
X-10936367Y245845D1*
X-10914467Y253257D1*
X-10841523D1*
X-10943611Y300316D2*
X-10841523D1*
X-10914467D2*
X-10936367Y322216D1*
X-10943611Y336872D1*
Y358604D1*
X-10936367Y373260D1*
X-10914467Y380504D1*
X-10841523D1*
X-10914467D2*
X-10936367Y402404D1*
X-10943611Y417060D1*
Y438791D1*
X-10936367Y453448D1*
X-10914467Y460860D1*
X-10841523D1*
X-5430454Y5885342D2*
X-5415798Y5892755D1*
X-5393898Y5914486D1*
Y5761523D1*
X-5303039Y5914486D2*
X-5324939Y5907242D1*
X-5339595Y5885342D1*
X-5346839Y5848955D1*
Y5827055D1*
X-5339595Y5790667D1*
X-5324939Y5768767D1*
X-5303039Y5761523D1*
X-5288551D1*
X-5266651Y5768767D1*
X-5252163Y5790667D1*
X-5244751Y5827055D1*
Y5848955D1*
X-5252163Y5885342D1*
X-5266651Y5907242D1*
X-5288551Y5914486D1*
X-5303039D1*
X-5252163Y5885342D2*
X-5339595Y5790667D1*
X-5153892Y5914486D2*
X-5175792Y5907242D1*
X-5190448Y5885342D1*
X-5197692Y5848955D1*
Y5827055D1*
X-5190448Y5790667D1*
X-5175792Y5768767D1*
X-5153892Y5761523D1*
X-5139405D1*
X-5117505Y5768767D1*
X-5103017Y5790667D1*
X-5095605Y5827055D1*
Y5848955D1*
X-5103017Y5885342D1*
X-5117505Y5907242D1*
X-5139405Y5914486D1*
X-5153892D1*
X-5103017Y5885342D2*
X-5190448Y5790667D1*
X-4900410Y5863611D2*
Y5761523D1*
Y5834467D2*
X-4878510Y5856367D1*
X-4863854Y5863611D1*
X-4842122D1*
X-4827466Y5856367D1*
X-4820222Y5834467D1*
Y5761523D1*
Y5834467D2*
X-4798322Y5856367D1*
X-4783666Y5863611D1*
X-4761935D1*
X-4747278Y5856367D1*
X-4739866Y5834467D1*
Y5761523D1*
X-4692807Y5863611D2*
Y5761523D1*
Y5834467D2*
X-4670907Y5856367D1*
X-4656251Y5863611D1*
X-4634520D1*
X-4619863Y5856367D1*
X-4612620Y5834467D1*
Y5761523D1*
Y5834467D2*
X-4590720Y5856367D1*
X-4576063Y5863611D1*
X-4554332D1*
X-4539676Y5856367D1*
X-4532263Y5834467D1*
Y5761523D1*
X-9125243Y5315732D2*
D69*
Y5320561D1*
X-9120414Y5330332D1*
X-9115585Y5335161D1*
X-9105814Y5339991D1*
X-9086385D1*
X-9076726Y5335161D1*
X-9071897Y5330332D1*
X-9066955Y5320561D1*
Y5310903D1*
X-9071897Y5301132D1*
X-9081555Y5286645D1*
X-9130185Y5238015D1*
X-9062126D1*
X-8972466Y5339991D2*
X-9020983D1*
X-9025812Y5296303D1*
X-9020983Y5301132D1*
X-9006383Y5306074D1*
X-8991895D1*
X-8977295Y5301132D1*
X-8967524Y5291474D1*
X-8962695Y5276874D1*
Y5267215D1*
X-8967524Y5252615D1*
X-8977295Y5242845D1*
X-8991895Y5238015D1*
X-9006383D1*
X-9020983Y5242845D1*
X-9025812Y5247786D1*
X-9030754Y5257445D1*
X-8926493Y5247786D2*
X-8931323Y5242845D1*
X-8926493Y5238015D1*
X-8921552Y5242845D1*
X-8926493Y5247786D1*
X-8860979Y5339991D2*
X-8875579Y5335161D1*
X-8885350Y5320561D1*
X-8890179Y5296303D1*
Y5281703D1*
X-8885350Y5257445D1*
X-8875579Y5242845D1*
X-8860979Y5238015D1*
X-8851321D1*
X-8836721Y5242845D1*
X-8827062Y5257445D1*
X-8822121Y5281703D1*
Y5296303D1*
X-8827062Y5320561D1*
X-8836721Y5335161D1*
X-8851321Y5339991D1*
X-8860979D1*
X-8827062Y5320561D2*
X-8885350Y5257445D1*
X-8771319Y5238015D2*
X-8722690Y5339991D1*
X-8790748D1*
X-8592560Y5306074D2*
Y5238015D1*
Y5286645D2*
X-8577960Y5301245D1*
X-8568189Y5306074D1*
X-8553702D1*
X-8543931Y5301245D1*
X-8539102Y5286645D1*
Y5238015D1*
Y5286645D2*
X-8524502Y5301245D1*
X-8514731Y5306074D1*
X-8500243D1*
X-8490472Y5301245D1*
X-8485531Y5286645D1*
Y5238015D1*
X-8454158Y5306074D2*
Y5238015D1*
Y5286645D2*
X-8439558Y5301245D1*
X-8429788Y5306074D1*
X-8415300D1*
X-8405529Y5301245D1*
X-8400700Y5286645D1*
Y5238015D1*
Y5286645D2*
X-8386100Y5301245D1*
X-8376329Y5306074D1*
X-8361841D1*
X-8352071Y5301245D1*
X-8347129Y5286645D1*
Y5238015D1*
X-4110755D2*
X-4062126Y5339991D1*
X-4130185D1*
X-3982124Y5238015D2*
Y5339991D1*
X-4030754Y5272045D1*
X-3957866D1*
X-3921664Y5247786D2*
X-3926493Y5242845D1*
X-3921664Y5238015D1*
X-3916723Y5242845D1*
X-3921664Y5247786D1*
X-3822121Y5306074D2*
X-3827062Y5291474D1*
X-3836721Y5281703D1*
X-3851321Y5276874D1*
X-3856150D1*
X-3870750Y5281703D1*
X-3880409Y5291474D1*
X-3885350Y5306074D1*
Y5310903D1*
X-3880409Y5325503D1*
X-3870750Y5335161D1*
X-3856150Y5339991D1*
X-3851321D1*
X-3836721Y5335161D1*
X-3827062Y5325503D1*
X-3822121Y5306074D1*
Y5281703D1*
X-3827062Y5257445D1*
X-3836721Y5242845D1*
X-3851321Y5238015D1*
X-3860979D1*
X-3875579Y5242845D1*
X-3880409Y5252615D1*
X-3780978Y5339991D2*
X-3727631D1*
X-3756719Y5301132D1*
X-3742119D1*
X-3732461Y5296303D1*
X-3727631Y5291474D1*
X-3722690Y5276874D1*
Y5267215D1*
X-3727631Y5252615D1*
X-3737290Y5242845D1*
X-3751890Y5238015D1*
X-3766490D1*
X-3780978Y5242845D1*
X-3785807Y5247786D1*
X-3790748Y5257445D1*
X-3592560Y5306074D2*
Y5238015D1*
Y5286645D2*
X-3577960Y5301245D1*
X-3568189Y5306074D1*
X-3553702D1*
X-3543931Y5301245D1*
X-3539102Y5286645D1*
Y5238015D1*
Y5286645D2*
X-3524502Y5301245D1*
X-3514731Y5306074D1*
X-3500243D1*
X-3490472Y5301245D1*
X-3485531Y5286645D1*
Y5238015D1*
X-3454158Y5306074D2*
Y5238015D1*
Y5286645D2*
X-3439558Y5301245D1*
X-3429788Y5306074D1*
X-3415300D1*
X-3405529Y5301245D1*
X-3400700Y5286645D1*
Y5238015D1*
Y5286645D2*
X-3386100Y5301245D1*
X-3376329Y5306074D1*
X-3361841D1*
X-3352071Y5301245D1*
X-3347129Y5286645D1*
Y5238015D1*
X-10513598Y-4274530D2*
D71*
X-10520842D1*
X-10535498Y-4267287D1*
X-10542742Y-4260043D1*
X-10549986Y-4245387D1*
Y-4216243D1*
X-10542742Y-4201755D1*
X-10535498Y-4194511D1*
X-10520842Y-4187099D1*
X-10506355D1*
X-10491698Y-4194511D1*
X-10469967Y-4208999D1*
X-10397023Y-4281943D1*
Y-4179855D1*
X-10549986Y-4045365D2*
Y-4118140D1*
X-10484455Y-4125384D1*
X-10491698Y-4118140D1*
X-10499111Y-4096240D1*
Y-4074509D1*
X-10491698Y-4052609D1*
X-10477211Y-4037952D1*
X-10455311Y-4030709D1*
X-10440823D1*
X-10418923Y-4037952D1*
X-10404267Y-4052609D1*
X-10397023Y-4074509D1*
Y-4096240D1*
X-10404267Y-4118140D1*
X-10411679Y-4125384D1*
X-10426167Y-4132796D1*
X-10411679Y-3976406D2*
X-10404267Y-3983650D1*
X-10397023Y-3976406D1*
X-10404267Y-3968994D1*
X-10411679Y-3976406D1*
X-10549986Y-3885547D2*
X-10542742Y-3907279D1*
X-10528255Y-3914691D1*
X-10513598D1*
X-10499111Y-3907279D1*
X-10491698Y-3892791D1*
X-10484455Y-3863647D1*
X-10477211Y-3841747D1*
X-10462555Y-3827259D1*
X-10448067Y-3820015D1*
X-10426167D1*
X-10411679Y-3827259D1*
X-10404267Y-3834503D1*
X-10397023Y-3856403D1*
Y-3885547D1*
X-10404267Y-3907279D1*
X-10411679Y-3914691D1*
X-10426167Y-3921935D1*
X-10448067D1*
X-10462555Y-3914691D1*
X-10477211Y-3900035D1*
X-10484455Y-3878303D1*
X-10491698Y-3849159D1*
X-10499111Y-3834503D1*
X-10513598Y-3827259D1*
X-10528255D1*
X-10542742Y-3834503D1*
X-10549986Y-3856403D1*
Y-3885547D1*
X-10397023Y-3743813D2*
X-10549986Y-3670869D1*
Y-3772957D1*
X-10499111Y-3475674D2*
X-10397023D1*
X-10469967D2*
X-10491867Y-3453774D1*
X-10499111Y-3439118D1*
Y-3417387D1*
X-10491867Y-3402731D1*
X-10469967Y-3395487D1*
X-10397023D1*
X-10469967D2*
X-10491867Y-3373587D1*
X-10499111Y-3358931D1*
Y-3337199D1*
X-10491867Y-3322543D1*
X-10469967Y-3315131D1*
X-10397023D1*
X-10499111Y-3268072D2*
X-10397023D1*
X-10469967D2*
X-10491867Y-3246172D1*
X-10499111Y-3231516D1*
Y-3209784D1*
X-10491867Y-3195128D1*
X-10469967Y-3187884D1*
X-10397023D1*
X-10469967D2*
X-10491867Y-3165984D1*
X-10499111Y-3151328D1*
Y-3129596D1*
X-10491867Y-3114940D1*
X-10469967Y-3107528D1*
X-10397023D1*
M02*
