G04 DipTrace 4.3.0.5*
G04 TopSilk.gbr*
%MOMM*%
G04 #@! TF.FileFunction,Legend,Top*
G04 #@! TF.Part,Single*
%ADD10C,0.25*%
%ADD13C,0.12*%
%ADD19C,0.1*%
%ADD20C,0.3*%
%ADD21C,0.15*%
%ADD68C,0.19608*%
%ADD69C,0.15686*%
%ADD70C,0.27778*%
%FSLAX35Y35*%
G04*
G71*
G90*
G75*
G01*
G04 TopSilk*
%LPD*%
X-7323500Y-2254250D2*
D13*
G02X-7323500Y-2254250I275000J0D01*
G01*
G36*
X-7273360Y-2504110D2*
X-7276623Y-2503896D1*
X-7279830Y-2503258D1*
X-7282927Y-2502207D1*
X-7285860Y-2500761D1*
X-7288579Y-2498944D1*
X-7291038Y-2496788D1*
X-7293194Y-2494329D1*
X-7295011Y-2491610D1*
X-7296457Y-2488677D1*
X-7297508Y-2485580D1*
X-7298146Y-2482373D1*
X-7298360Y-2479110D1*
X-7298146Y-2475847D1*
X-7297508Y-2472640D1*
X-7296457Y-2469543D1*
X-7295011Y-2466610D1*
X-7293194Y-2463891D1*
X-7291038Y-2461432D1*
X-7288579Y-2459276D1*
X-7285860Y-2457459D1*
X-7282927Y-2456013D1*
X-7279830Y-2454962D1*
X-7276623Y-2454324D1*
X-7273360Y-2454110D1*
D1*
X-7270097Y-2454324D1*
X-7266890Y-2454962D1*
X-7263793Y-2456013D1*
X-7260860Y-2457459D1*
X-7258141Y-2459276D1*
X-7255682Y-2461432D1*
X-7253526Y-2463891D1*
X-7251709Y-2466610D1*
X-7250263Y-2469543D1*
X-7249212Y-2472640D1*
X-7248574Y-2475847D1*
X-7248360Y-2479110D1*
X-7248574Y-2482373D1*
X-7249212Y-2485580D1*
X-7250263Y-2488677D1*
X-7251709Y-2491610D1*
X-7253526Y-2494329D1*
X-7255682Y-2496788D1*
X-7258141Y-2498944D1*
X-7260860Y-2500761D1*
X-7263793Y-2502207D1*
X-7266890Y-2503258D1*
X-7270097Y-2503896D1*
X-7273360Y-2504110D1*
D1*
G37*
X-8118620Y3204750D2*
D10*
Y3186750D1*
Y2972750D2*
Y2954750D1*
X-8518380Y2972750D2*
Y2954750D1*
Y3204750D2*
Y3186750D1*
X-8118620Y2954750D2*
X-8518380D1*
X-8118620Y3204750D2*
X-8518380D1*
X-6340620D2*
Y3186750D1*
Y2972750D2*
Y2954750D1*
X-6740380Y2972750D2*
Y2954750D1*
Y3204750D2*
Y3186750D1*
X-6340620Y2954750D2*
X-6740380D1*
X-6340620Y3204750D2*
X-6740380D1*
X-4562620D2*
Y3186750D1*
Y2972750D2*
Y2954750D1*
X-4962380Y2972750D2*
Y2954750D1*
Y3204750D2*
Y3186750D1*
X-4562620Y2954750D2*
X-4962380D1*
X-4562620Y3204750D2*
X-4962380D1*
X-2784620D2*
Y3186750D1*
Y2972750D2*
Y2954750D1*
X-3184380Y2972750D2*
Y2954750D1*
Y3204750D2*
Y3186750D1*
X-2784620Y2954750D2*
X-3184380D1*
X-2784620Y3204750D2*
X-3184380D1*
X-1392120Y1233789D2*
D13*
X-1453638Y1295307D1*
X-1644557Y1104388D1*
X-1583039Y1042870D1*
X-1147461Y989130D2*
X-1085943Y927612D1*
X-1276862Y736693D1*
X-1338380Y798211D1*
X-1667185Y1317935D2*
X-1549098Y1199848D1*
X-1181402Y832152D2*
X-1063315Y714065D1*
G36*
X-1670720Y1486933D2*
X-1668261Y1489089D1*
X-1665542Y1490906D1*
X-1662610Y1492352D1*
X-1659513Y1493404D1*
X-1656306Y1494042D1*
X-1653042Y1494255D1*
X-1649779Y1494042D1*
X-1646572Y1493404D1*
X-1643475Y1492352D1*
X-1640542Y1490906D1*
X-1637823Y1489089D1*
X-1635365Y1486933D1*
X-1633209Y1484474D1*
X-1631392Y1481755D1*
X-1629945Y1478823D1*
X-1628894Y1475726D1*
X-1628256Y1472519D1*
X-1628042Y1469255D1*
X-1628256Y1465992D1*
X-1628894Y1462785D1*
X-1629945Y1459688D1*
X-1631392Y1456755D1*
X-1633209Y1454036D1*
X-1635365Y1451578D1*
D1*
X-1637823Y1449422D1*
X-1640542Y1447605D1*
X-1643475Y1446158D1*
X-1646572Y1445107D1*
X-1649779Y1444469D1*
X-1653042Y1444255D1*
X-1656306Y1444469D1*
X-1659513Y1445107D1*
X-1662610Y1446158D1*
X-1665542Y1447605D1*
X-1668261Y1449422D1*
X-1670720Y1451578D1*
X-1672876Y1454036D1*
X-1674693Y1456755D1*
X-1676139Y1459688D1*
X-1677191Y1462785D1*
X-1677829Y1465992D1*
X-1678042Y1469255D1*
X-1677829Y1472519D1*
X-1677191Y1475726D1*
X-1676139Y1478823D1*
X-1674693Y1481755D1*
X-1672876Y1484474D1*
X-1670720Y1486933D1*
D1*
G37*
X-95200Y254000D2*
D13*
X-603200D1*
Y-4826000D1*
X-95200D1*
Y254000D1*
G36*
X-646200Y152000D2*
X-642937Y151786D1*
X-639730Y151148D1*
X-636633Y150097D1*
X-633700Y148651D1*
X-630981Y146834D1*
X-628522Y144678D1*
X-626366Y142219D1*
X-624549Y139500D1*
X-623103Y136567D1*
X-622052Y133470D1*
X-621414Y130263D1*
X-621200Y127000D1*
X-621414Y123737D1*
X-622052Y120530D1*
X-623103Y117433D1*
X-624549Y114500D1*
X-626366Y111781D1*
X-628522Y109322D1*
X-630981Y107166D1*
X-633700Y105349D1*
X-636633Y103903D1*
X-639730Y102852D1*
X-642937Y102214D1*
X-646200Y102000D1*
D1*
X-649463Y102214D1*
X-652670Y102852D1*
X-655767Y103903D1*
X-658700Y105349D1*
X-661419Y107166D1*
X-663878Y109322D1*
X-666034Y111781D1*
X-667851Y114500D1*
X-669297Y117433D1*
X-670348Y120530D1*
X-670986Y123737D1*
X-671200Y127000D1*
X-670986Y130263D1*
X-670348Y133470D1*
X-669297Y136567D1*
X-667851Y139500D1*
X-666034Y142219D1*
X-663878Y144678D1*
X-661419Y146834D1*
X-658700Y148651D1*
X-655767Y150097D1*
X-652670Y151148D1*
X-649463Y151786D1*
X-646200Y152000D1*
D1*
G37*
X-95200Y4826000D2*
D13*
X-603200D1*
Y508000D1*
X-95200D1*
Y4826000D1*
G36*
X-646200Y4724000D2*
X-642937Y4723786D1*
X-639730Y4723148D1*
X-636633Y4722097D1*
X-633700Y4720651D1*
X-630981Y4718834D1*
X-628522Y4716678D1*
X-626366Y4714219D1*
X-624549Y4711500D1*
X-623103Y4708567D1*
X-622052Y4705470D1*
X-621414Y4702263D1*
X-621200Y4699000D1*
X-621414Y4695737D1*
X-622052Y4692530D1*
X-623103Y4689433D1*
X-624549Y4686500D1*
X-626366Y4683781D1*
X-628522Y4681322D1*
X-630981Y4679166D1*
X-633700Y4677349D1*
X-636633Y4675903D1*
X-639730Y4674852D1*
X-642937Y4674214D1*
X-646200Y4674000D1*
D1*
X-649463Y4674214D1*
X-652670Y4674852D1*
X-655767Y4675903D1*
X-658700Y4677349D1*
X-661419Y4679166D1*
X-663878Y4681322D1*
X-666034Y4683781D1*
X-667851Y4686500D1*
X-669297Y4689433D1*
X-670348Y4692530D1*
X-670986Y4695737D1*
X-671200Y4699000D1*
X-670986Y4702263D1*
X-670348Y4705470D1*
X-669297Y4708567D1*
X-667851Y4711500D1*
X-666034Y4714219D1*
X-663878Y4716678D1*
X-661419Y4718834D1*
X-658700Y4720651D1*
X-655767Y4722097D1*
X-652670Y4723148D1*
X-649463Y4723786D1*
X-646200Y4724000D1*
D1*
G37*
X-8796000Y-1792000D2*
D13*
X-8983900D1*
Y-2526000D1*
X-8796000D1*
X-8983900Y-1905000D2*
X-9791600D1*
X-8983900Y-2159000D2*
X-9791600D1*
X-8983900Y-2413000D2*
X-9791600D1*
G36*
X-8572500Y-1724000D2*
X-8569237Y-1724214D1*
X-8566030Y-1724852D1*
X-8562933Y-1725903D1*
X-8560000Y-1727349D1*
X-8557281Y-1729166D1*
X-8554822Y-1731322D1*
X-8552666Y-1733781D1*
X-8550849Y-1736500D1*
X-8549403Y-1739433D1*
X-8548352Y-1742530D1*
X-8547714Y-1745737D1*
X-8547500Y-1749000D1*
X-8547714Y-1752263D1*
X-8548352Y-1755470D1*
X-8549403Y-1758567D1*
X-8550849Y-1761500D1*
X-8552666Y-1764219D1*
X-8554822Y-1766678D1*
X-8557281Y-1768834D1*
X-8560000Y-1770651D1*
X-8562933Y-1772097D1*
X-8566030Y-1773148D1*
X-8569237Y-1773786D1*
X-8572500Y-1774000D1*
D1*
X-8575763Y-1773786D1*
X-8578970Y-1773148D1*
X-8582067Y-1772097D1*
X-8585000Y-1770651D1*
X-8587719Y-1768834D1*
X-8590178Y-1766678D1*
X-8592334Y-1764219D1*
X-8594151Y-1761500D1*
X-8595597Y-1758567D1*
X-8596648Y-1755470D1*
X-8597286Y-1752263D1*
X-8597500Y-1749000D1*
X-8597286Y-1745737D1*
X-8596648Y-1742530D1*
X-8595597Y-1739433D1*
X-8594151Y-1736500D1*
X-8592334Y-1733781D1*
X-8590178Y-1731322D1*
X-8587719Y-1729166D1*
X-8585000Y-1727349D1*
X-8582067Y-1725903D1*
X-8578970Y-1724852D1*
X-8575763Y-1724214D1*
X-8572500Y-1724000D1*
D1*
G37*
X-9398000Y4445000D2*
D10*
Y4064000D1*
X-8382000Y4445000D2*
Y4064000D1*
X-7556500Y4445000D2*
Y4064000D1*
X-6540500Y4445000D2*
Y4064000D1*
X-5778500Y4445000D2*
Y4064000D1*
X-4762500Y4445000D2*
Y4064000D1*
X-4064000Y4445000D2*
Y4064000D1*
X-3048000Y4445000D2*
Y4064000D1*
X-9562968Y-1033514D2*
D13*
X-9562963Y-1289514D1*
X-8089963Y-1289487D1*
X-8089968Y-1033487D1*
X-9563032Y2430486D2*
X-9563037Y2686486D1*
X-8090037Y2686513D1*
X-8090032Y2430513D1*
G36*
X-7948969Y-977484D2*
X-7952232Y-977270D1*
X-7955440Y-976632D1*
X-7958536Y-975581D1*
X-7961469Y-974135D1*
X-7964188Y-972318D1*
X-7966647Y-970162D1*
X-7968803Y-967704D1*
X-7970620Y-964985D1*
X-7972066Y-962052D1*
X-7973118Y-958955D1*
X-7973756Y-955748D1*
X-7973970Y-952485D1*
X-7973756Y-949222D1*
X-7973118Y-946014D1*
X-7972067Y-942918D1*
X-7970621Y-939985D1*
X-7968804Y-937266D1*
X-7966648Y-934807D1*
X-7964189Y-932651D1*
X-7961470Y-930834D1*
X-7958537Y-929387D1*
X-7955441Y-928336D1*
X-7952233Y-927698D1*
X-7948970Y-927484D1*
D1*
X-7945707Y-927698D1*
X-7942500Y-928336D1*
X-7939403Y-929387D1*
X-7936470Y-930833D1*
X-7933751Y-932650D1*
X-7931292Y-934806D1*
X-7929136Y-937265D1*
X-7927319Y-939984D1*
X-7925873Y-942917D1*
X-7924822Y-946013D1*
X-7924184Y-949221D1*
X-7923970Y-952484D1*
X-7924183Y-955747D1*
X-7924821Y-958954D1*
X-7925873Y-962051D1*
X-7927319Y-964984D1*
X-7929136Y-967703D1*
X-7931292Y-970162D1*
X-7933750Y-972318D1*
X-7936469Y-974135D1*
X-7939402Y-975581D1*
X-7942499Y-976632D1*
X-7945706Y-977270D1*
X-7948969Y-977484D1*
D1*
G37*
X-7784968Y-1033514D2*
D13*
X-7784963Y-1289514D1*
X-6311963Y-1289487D1*
X-6311968Y-1033487D1*
X-7785032Y2430486D2*
X-7785037Y2686486D1*
X-6312037Y2686513D1*
X-6312032Y2430513D1*
G36*
X-6170969Y-977484D2*
X-6174232Y-977270D1*
X-6177440Y-976632D1*
X-6180536Y-975581D1*
X-6183469Y-974135D1*
X-6186188Y-972318D1*
X-6188647Y-970162D1*
X-6190803Y-967704D1*
X-6192620Y-964985D1*
X-6194066Y-962052D1*
X-6195118Y-958955D1*
X-6195756Y-955748D1*
X-6195970Y-952485D1*
X-6195756Y-949222D1*
X-6195118Y-946014D1*
X-6194067Y-942918D1*
X-6192621Y-939985D1*
X-6190804Y-937266D1*
X-6188648Y-934807D1*
X-6186189Y-932651D1*
X-6183470Y-930834D1*
X-6180537Y-929387D1*
X-6177441Y-928336D1*
X-6174233Y-927698D1*
X-6170970Y-927484D1*
D1*
X-6167707Y-927698D1*
X-6164500Y-928336D1*
X-6161403Y-929387D1*
X-6158470Y-930833D1*
X-6155751Y-932650D1*
X-6153292Y-934806D1*
X-6151136Y-937265D1*
X-6149319Y-939984D1*
X-6147873Y-942917D1*
X-6146822Y-946013D1*
X-6146184Y-949221D1*
X-6145970Y-952484D1*
X-6146183Y-955747D1*
X-6146821Y-958954D1*
X-6147873Y-962051D1*
X-6149319Y-964984D1*
X-6151136Y-967703D1*
X-6153292Y-970162D1*
X-6155750Y-972318D1*
X-6158469Y-974135D1*
X-6161402Y-975581D1*
X-6164499Y-976632D1*
X-6167706Y-977270D1*
X-6170969Y-977484D1*
D1*
G37*
X-6006968Y-1033514D2*
D13*
X-6006963Y-1289514D1*
X-4533963Y-1289487D1*
X-4533968Y-1033487D1*
X-6007032Y2430486D2*
X-6007037Y2686486D1*
X-4534037Y2686513D1*
X-4534032Y2430513D1*
G36*
X-4392969Y-977484D2*
X-4396232Y-977270D1*
X-4399440Y-976632D1*
X-4402536Y-975581D1*
X-4405469Y-974135D1*
X-4408188Y-972318D1*
X-4410647Y-970162D1*
X-4412803Y-967704D1*
X-4414620Y-964985D1*
X-4416066Y-962052D1*
X-4417118Y-958955D1*
X-4417756Y-955748D1*
X-4417970Y-952485D1*
X-4417756Y-949222D1*
X-4417118Y-946014D1*
X-4416067Y-942918D1*
X-4414621Y-939985D1*
X-4412804Y-937266D1*
X-4410648Y-934807D1*
X-4408189Y-932651D1*
X-4405470Y-930834D1*
X-4402537Y-929387D1*
X-4399441Y-928336D1*
X-4396233Y-927698D1*
X-4392970Y-927484D1*
D1*
X-4389707Y-927698D1*
X-4386500Y-928336D1*
X-4383403Y-929387D1*
X-4380470Y-930833D1*
X-4377751Y-932650D1*
X-4375292Y-934806D1*
X-4373136Y-937265D1*
X-4371319Y-939984D1*
X-4369873Y-942917D1*
X-4368822Y-946013D1*
X-4368184Y-949221D1*
X-4367970Y-952484D1*
X-4368183Y-955747D1*
X-4368821Y-958954D1*
X-4369873Y-962051D1*
X-4371319Y-964984D1*
X-4373136Y-967703D1*
X-4375292Y-970162D1*
X-4377750Y-972318D1*
X-4380469Y-974135D1*
X-4383402Y-975581D1*
X-4386499Y-976632D1*
X-4389706Y-977270D1*
X-4392969Y-977484D1*
D1*
G37*
X-4229000Y-1033500D2*
D13*
Y-1289500D1*
X-2756000D1*
Y-1033500D1*
X-4229000Y2430500D2*
Y2686500D1*
X-2756000D1*
Y2430500D1*
G36*
X-2615000Y-977500D2*
X-2618263Y-977286D1*
X-2621470Y-976648D1*
X-2624567Y-975597D1*
X-2627500Y-974151D1*
X-2630219Y-972334D1*
X-2632678Y-970178D1*
X-2634834Y-967719D1*
X-2636651Y-965000D1*
X-2638097Y-962067D1*
X-2639148Y-958970D1*
X-2639786Y-955763D1*
X-2640000Y-952500D1*
X-2639786Y-949237D1*
X-2639148Y-946030D1*
X-2638097Y-942933D1*
X-2636651Y-940000D1*
X-2634834Y-937281D1*
X-2632678Y-934822D1*
X-2630219Y-932666D1*
X-2627500Y-930849D1*
X-2624567Y-929403D1*
X-2621470Y-928352D1*
X-2618263Y-927714D1*
X-2615000Y-927500D1*
D1*
X-2611737Y-927714D1*
X-2608530Y-928352D1*
X-2605433Y-929403D1*
X-2602500Y-930849D1*
X-2599781Y-932666D1*
X-2597322Y-934822D1*
X-2595166Y-937281D1*
X-2593349Y-940000D1*
X-2591903Y-942933D1*
X-2590852Y-946030D1*
X-2590214Y-949237D1*
X-2590000Y-952500D1*
X-2590214Y-955763D1*
X-2590852Y-958970D1*
X-2591903Y-962067D1*
X-2593349Y-965000D1*
X-2595166Y-967719D1*
X-2597322Y-970178D1*
X-2599781Y-972334D1*
X-2602500Y-974151D1*
X-2605433Y-975597D1*
X-2608530Y-976648D1*
X-2611737Y-977286D1*
X-2615000Y-977500D1*
D1*
G37*
G36*
X-658620Y4699623D2*
X-912620Y4826623D1*
Y4572627D1*
D1*
X-658620Y4699623D1*
G37*
G36*
Y127623D2*
X-912620Y254623D1*
Y627D1*
D1*
X-658620Y127623D1*
G37*
X-7239000Y4889500D2*
D10*
X-6794500D1*
X-6858000Y4953000D1*
X-6794500Y4889500D2*
X-6858000Y4826000D1*
X-2000250Y1682750D2*
Y-1905000D1*
X-5270500Y2381250D2*
D20*
Y1079500D1*
X-3556000Y2381250D2*
Y1079500D1*
X-8783873Y-2698750D2*
D19*
Y-4805893D1*
X-6351497Y-2661477D2*
D21*
X-3422637D1*
X-6203990Y-2919503D2*
X-3492500Y-2921000D1*
X-8890000Y4127500D2*
D20*
Y2952750D1*
X-8731250Y3270250D1*
X-8890000Y2952750D2*
X-9048750Y3270250D1*
X-7048500Y4127500D2*
Y2952750D1*
X-6889750Y3270250D1*
X-7048500Y2952750D2*
X-7207250Y3270250D1*
X-5270500Y4127500D2*
Y2952750D1*
X-5111750Y3270250D1*
X-5270500Y2952750D2*
X-5429250Y3270250D1*
X-3556000Y4127500D2*
Y2952750D1*
X-3397250Y3270250D1*
X-3556000Y2952750D2*
X-3714750Y3270250D1*
X-8086128Y4918540D2*
D69*
Y4816452D1*
X-8120157Y4918540D2*
X-8052098D1*
X-7991526D2*
X-8001297Y4913711D1*
X-8010955Y4903940D1*
X-8015897Y4894281D1*
X-8020726Y4879681D1*
Y4855311D1*
X-8015897Y4840823D1*
X-8010955Y4831052D1*
X-8001297Y4821394D1*
X-7991526Y4816452D1*
X-7972097D1*
X-7962438Y4821394D1*
X-7952667Y4831052D1*
X-7947838Y4840823D1*
X-7943009Y4855311D1*
Y4879681D1*
X-7947838Y4894281D1*
X-7952667Y4903940D1*
X-7962438Y4913711D1*
X-7972097Y4918540D1*
X-7991526D1*
X-7911636Y4865081D2*
X-7867836D1*
X-7853349Y4869911D1*
X-7848407Y4874852D1*
X-7843578Y4884511D1*
Y4899111D1*
X-7848407Y4908769D1*
X-7853349Y4913711D1*
X-7867836Y4918540D1*
X-7911636D1*
Y4816452D1*
X-9060215Y4049446D2*
D68*
X-9066252Y4067696D1*
X-9084502Y4079910D1*
X-9114825Y4085946D1*
X-9133075D1*
X-9163398Y4079910D1*
X-9181648Y4067696D1*
X-9187685Y4049446D1*
Y4037373D1*
X-9181648Y4019123D1*
X-9163398Y4007050D1*
X-9133075Y4000873D1*
X-9114825D1*
X-9084502Y4007050D1*
X-9066252Y4019123D1*
X-9060215Y4037373D1*
Y4049446D1*
X-9084502Y4007050D2*
X-9163398Y4079910D1*
X-9060215Y3925157D2*
X-9066252Y3943407D1*
X-9084502Y3955621D1*
X-9114825Y3961657D1*
X-9133075D1*
X-9163398Y3955621D1*
X-9181648Y3943407D1*
X-9187685Y3925157D1*
Y3913084D1*
X-9181648Y3894834D1*
X-9163398Y3882761D1*
X-9133075Y3876584D1*
X-9114825D1*
X-9084502Y3882761D1*
X-9066252Y3894834D1*
X-9060215Y3913084D1*
Y3925157D1*
X-9084502Y3882761D2*
X-9163398Y3955621D1*
X-9060215Y3800869D2*
X-9066252Y3819119D1*
X-9084502Y3831332D1*
X-9114825Y3837369D1*
X-9133075D1*
X-9163398Y3831332D1*
X-9181648Y3819119D1*
X-9187685Y3800869D1*
Y3788795D1*
X-9181648Y3770545D1*
X-9163398Y3758472D1*
X-9133075Y3752295D1*
X-9114825D1*
X-9084502Y3758472D1*
X-9066252Y3770545D1*
X-9060215Y3788795D1*
Y3800869D1*
X-9084502Y3758472D2*
X-9163398Y3831332D1*
X-9060215Y3676580D2*
X-9066252Y3694830D1*
X-9084502Y3707043D1*
X-9114825Y3713080D1*
X-9133075D1*
X-9163398Y3707043D1*
X-9181648Y3694830D1*
X-9187685Y3676580D1*
Y3664507D1*
X-9181648Y3646257D1*
X-9163398Y3634184D1*
X-9133075Y3628007D1*
X-9114825D1*
X-9084502Y3634184D1*
X-9066252Y3646257D1*
X-9060215Y3664507D1*
Y3676580D1*
X-9084502Y3634184D2*
X-9163398Y3707043D1*
X-9060075Y3588791D2*
X-9187685D1*
X-9060075Y3503718D2*
X-9187685D1*
X-9120862Y3588791D2*
Y3503718D1*
X-1789325Y402946D2*
X-1916935D1*
Y330086D1*
X-1789325Y290871D2*
X-1916935D1*
X-1789325Y205798D2*
X-1874398Y290871D1*
X-1843935Y260548D2*
X-1916935Y205798D1*
X-1813752Y166582D2*
X-1807575Y154369D1*
X-1789465Y136119D1*
X-1916935D1*
X-5059575Y1831696D2*
X-5187185D1*
Y1758836D1*
X-5059575Y1719621D2*
X-5187185D1*
X-5059575Y1634548D2*
X-5144648Y1719621D1*
X-5114185Y1689298D2*
X-5187185Y1634548D1*
X-5090039Y1589155D2*
X-5084002D1*
X-5071789Y1583119D1*
X-5065752Y1577082D1*
X-5059715Y1564869D1*
Y1540582D1*
X-5065752Y1528509D1*
X-5071789Y1522472D1*
X-5084002Y1516295D1*
X-5096075D1*
X-5108289Y1522472D1*
X-5126398Y1534545D1*
X-5187185Y1595332D1*
Y1510259D1*
X-3376825Y1831696D2*
X-3504435D1*
Y1758836D1*
X-3376825Y1719621D2*
X-3504435D1*
X-3376825Y1634548D2*
X-3461898Y1719621D1*
X-3431435Y1689298D2*
X-3504435Y1634548D1*
X-3376965Y1583119D2*
Y1516436D1*
X-3425539Y1552795D1*
Y1534545D1*
X-3431575Y1522472D1*
X-3437612Y1516436D1*
X-3455862Y1510259D1*
X-3467935D1*
X-3486185Y1516436D1*
X-3498398Y1528509D1*
X-3504435Y1546759D1*
Y1565009D1*
X-3498398Y1583119D1*
X-3492221Y1589155D1*
X-3480148Y1595332D1*
X-8860960Y-2769822D2*
D69*
Y-2706593D1*
X-8963048D1*
X-8909589D2*
Y-2745452D1*
X-8894989Y-2825453D2*
X-8899819Y-2815795D1*
X-8909589Y-2806024D1*
X-8924189Y-2801195D1*
X-8933848D1*
X-8948448Y-2806024D1*
X-8958106Y-2815795D1*
X-8963048Y-2825453D1*
Y-2840053D1*
X-8958106Y-2849824D1*
X-8948448Y-2859483D1*
X-8933848Y-2864424D1*
X-8924189D1*
X-8909589Y-2859483D1*
X-8899819Y-2849824D1*
X-8894989Y-2840053D1*
Y-2825453D1*
Y-2895797D2*
X-8963048D1*
X-8924189D2*
X-8909589Y-2900738D1*
X-8899819Y-2910397D1*
X-8894989Y-2920167D1*
Y-2934767D1*
Y-3064897D2*
X-8943619D1*
X-8958106Y-3069726D1*
X-8963048Y-3079497D1*
Y-3094097D1*
X-8958106Y-3103756D1*
X-8943619Y-3118356D1*
X-8894989D2*
X-8963048D1*
X-8909589Y-3203187D2*
X-8899819Y-3198357D1*
X-8894989Y-3183757D1*
Y-3169157D1*
X-8899819Y-3154557D1*
X-8909589Y-3149728D1*
X-8919248Y-3154557D1*
X-8924189Y-3164328D1*
X-8929019Y-3188587D1*
X-8933848Y-3198357D1*
X-8943619Y-3203187D1*
X-8948448D1*
X-8958106Y-3198357D1*
X-8963048Y-3183757D1*
Y-3169157D1*
X-8958106Y-3154557D1*
X-8948448Y-3149728D1*
X-8924189Y-3234559D2*
Y-3292847D1*
X-8914419D1*
X-8904648Y-3288018D1*
X-8899819Y-3283188D1*
X-8894989Y-3273418D1*
Y-3258818D1*
X-8899819Y-3249159D1*
X-8909589Y-3239388D1*
X-8924189Y-3234559D1*
X-8933848D1*
X-8948448Y-3239388D1*
X-8958106Y-3249159D1*
X-8963048Y-3258818D1*
Y-3273418D1*
X-8958106Y-3283188D1*
X-8948448Y-3292847D1*
X-8860960Y-3422977D2*
X-8963048Y-3447347D1*
X-8860960Y-3471606D1*
X-8963048Y-3495864D1*
X-8860960Y-3520235D1*
Y-3551608D2*
X-8963048D1*
X-8860960Y-3617009D2*
X-8963048D1*
X-8860960Y-3582980D2*
Y-3651039D1*
Y-3682411D2*
X-8963048D1*
X-8860960Y-3750470D2*
X-8963048D1*
X-8909589Y-3682411D2*
Y-3750470D1*
X-8860960Y-3811042D2*
X-8865789Y-3801271D1*
X-8875560Y-3791613D1*
X-8885219Y-3786671D1*
X-8899819Y-3781842D1*
X-8924189D1*
X-8938677Y-3786671D1*
X-8948448Y-3791613D1*
X-8958106Y-3801271D1*
X-8963048Y-3811042D1*
Y-3830471D1*
X-8958106Y-3840130D1*
X-8948448Y-3849901D1*
X-8938677Y-3854730D1*
X-8924189Y-3859559D1*
X-8899819D1*
X-8885219Y-3854730D1*
X-8875560Y-3849901D1*
X-8865789Y-3840130D1*
X-8860960Y-3830471D1*
Y-3811042D1*
Y-3890932D2*
X-8933848D1*
X-8948448Y-3895761D1*
X-8958106Y-3905532D1*
X-8963048Y-3920132D1*
Y-3929790D1*
X-8958106Y-3944390D1*
X-8948448Y-3954161D1*
X-8933848Y-3958990D1*
X-8860960D1*
Y-4024392D2*
X-8963048D1*
X-8860960Y-3990363D2*
Y-4058421D1*
Y-4188551D2*
X-8963048D1*
X-8909589D2*
X-8899819Y-4198322D1*
X-8894989Y-4207980D1*
Y-4222580D1*
X-8899819Y-4232239D1*
X-8909589Y-4242009D1*
X-8924189Y-4246839D1*
X-8933848D1*
X-8948448Y-4242009D1*
X-8958106Y-4232239D1*
X-8963048Y-4222580D1*
Y-4207980D1*
X-8958106Y-4198322D1*
X-8948448Y-4188551D1*
X-8894989Y-4336499D2*
X-8963048D1*
X-8909589D2*
X-8899819Y-4326840D1*
X-8894989Y-4317070D1*
Y-4302582D1*
X-8899819Y-4292811D1*
X-8909589Y-4283153D1*
X-8924189Y-4278211D1*
X-8933848D1*
X-8948448Y-4283153D1*
X-8958106Y-4292811D1*
X-8963048Y-4302582D1*
Y-4317070D1*
X-8958106Y-4326840D1*
X-8948448Y-4336499D1*
X-8860960Y-4382471D2*
X-8943619D1*
X-8958106Y-4387301D1*
X-8963048Y-4397071D1*
Y-4406730D1*
X-8894989Y-4367871D2*
Y-4401901D1*
X-8860960Y-4452702D2*
X-8943619D1*
X-8958106Y-4457532D1*
X-8963048Y-4467302D1*
Y-4476961D1*
X-8894989Y-4438102D2*
Y-4472132D1*
X-8924189Y-4508333D2*
Y-4566621D1*
X-8914419D1*
X-8904648Y-4561792D1*
X-8899819Y-4556963D1*
X-8894989Y-4547192D1*
Y-4532592D1*
X-8899819Y-4522933D1*
X-8909589Y-4513163D1*
X-8924189Y-4508333D1*
X-8933848D1*
X-8948448Y-4513163D1*
X-8958106Y-4522933D1*
X-8963048Y-4532592D1*
Y-4547192D1*
X-8958106Y-4556963D1*
X-8948448Y-4566621D1*
X-8894989Y-4597994D2*
X-8963048D1*
X-8924189D2*
X-8909589Y-4602935D1*
X-8899819Y-4612594D1*
X-8894989Y-4622364D1*
Y-4636964D1*
Y-4673278D2*
X-8963048Y-4702366D1*
X-8982477Y-4692708D1*
X-8992248Y-4682937D1*
X-8997077Y-4673278D1*
Y-4668337D1*
X-8894989Y-4731566D2*
X-8963048Y-4702366D1*
X-9045935Y-2706593D2*
X-9148022D1*
X-9094564D2*
X-9084793Y-2716364D1*
X-9079964Y-2726022D1*
Y-2740622D1*
X-9084793Y-2750281D1*
X-9094564Y-2760052D1*
X-9109164Y-2764881D1*
X-9118822D1*
X-9133422Y-2760052D1*
X-9143081Y-2750281D1*
X-9148022Y-2740622D1*
Y-2726022D1*
X-9143081Y-2716364D1*
X-9133422Y-2706593D1*
X-9079964Y-2854541D2*
X-9148022D1*
X-9094564D2*
X-9084793Y-2844883D1*
X-9079964Y-2835112D1*
Y-2820624D1*
X-9084793Y-2810853D1*
X-9094564Y-2801195D1*
X-9109164Y-2796253D1*
X-9118822D1*
X-9133422Y-2801195D1*
X-9143081Y-2810853D1*
X-9148022Y-2820624D1*
Y-2835112D1*
X-9143081Y-2844883D1*
X-9133422Y-2854541D1*
X-9094564Y-2944314D2*
X-9084793Y-2934543D1*
X-9079964Y-2924772D1*
Y-2910284D1*
X-9084793Y-2900514D1*
X-9094564Y-2890855D1*
X-9109164Y-2885914D1*
X-9118822D1*
X-9133422Y-2890855D1*
X-9143081Y-2900514D1*
X-9148022Y-2910284D1*
Y-2924772D1*
X-9143081Y-2934543D1*
X-9133422Y-2944314D1*
X-9045935Y-2975686D2*
X-9148022D1*
X-9079964Y-3024315D2*
X-9128593Y-2975686D1*
X-9109164Y-2995115D2*
X-9148022Y-3029145D1*
X-9079964Y-3060517D2*
X-9128593D1*
X-9143081Y-3065346D1*
X-9148022Y-3075117D1*
Y-3089717D1*
X-9143081Y-3099376D1*
X-9128593Y-3113976D1*
X-9079964D2*
X-9148022D1*
X-9079964Y-3145348D2*
X-9182052D1*
X-9094564D2*
X-9084905Y-3155119D1*
X-9079964Y-3164777D1*
Y-3179377D1*
X-9084905Y-3189148D1*
X-9094564Y-3198807D1*
X-9109164Y-3203748D1*
X-9118935D1*
X-9133422Y-3198807D1*
X-9143193Y-3189148D1*
X-9148022Y-3179377D1*
Y-3164777D1*
X-9143193Y-3155119D1*
X-9133422Y-3145348D1*
X-9079964Y-3358136D2*
X-9084793Y-3348478D1*
X-9094564Y-3338707D1*
X-9109164Y-3333878D1*
X-9118822D1*
X-9133422Y-3338707D1*
X-9143081Y-3348478D1*
X-9148022Y-3358136D1*
Y-3372736D1*
X-9143081Y-3382507D1*
X-9133422Y-3392166D1*
X-9118822Y-3397107D1*
X-9109164D1*
X-9094564Y-3392166D1*
X-9084793Y-3382507D1*
X-9079964Y-3372736D1*
Y-3358136D1*
Y-3428480D2*
X-9148022D1*
X-9099393D2*
X-9084793Y-3443080D1*
X-9079964Y-3452850D1*
Y-3467338D1*
X-9084793Y-3477109D1*
X-9099393Y-3481938D1*
X-9148022D1*
X-9045935Y-3612068D2*
X-9148022D1*
X-9094564D2*
X-9084793Y-3621839D1*
X-9079964Y-3631497D1*
Y-3646097D1*
X-9084793Y-3655756D1*
X-9094564Y-3665526D1*
X-9109164Y-3670356D1*
X-9118822D1*
X-9133422Y-3665526D1*
X-9143081Y-3655756D1*
X-9148022Y-3646097D1*
Y-3631497D1*
X-9143081Y-3621839D1*
X-9133422Y-3612068D1*
X-9079964Y-3725987D2*
X-9084793Y-3716328D1*
X-9094564Y-3706557D1*
X-9109164Y-3701728D1*
X-9118822D1*
X-9133422Y-3706557D1*
X-9143081Y-3716328D1*
X-9148022Y-3725987D1*
Y-3740587D1*
X-9143081Y-3750357D1*
X-9133422Y-3760016D1*
X-9118822Y-3764957D1*
X-9109164D1*
X-9094564Y-3760016D1*
X-9084793Y-3750357D1*
X-9079964Y-3740587D1*
Y-3725987D1*
Y-3854618D2*
X-9148022D1*
X-9094564D2*
X-9084793Y-3844959D1*
X-9079964Y-3835188D1*
Y-3820701D1*
X-9084793Y-3810930D1*
X-9094564Y-3801271D1*
X-9109164Y-3796330D1*
X-9118822D1*
X-9133422Y-3801271D1*
X-9143081Y-3810930D1*
X-9148022Y-3820701D1*
Y-3835188D1*
X-9143081Y-3844959D1*
X-9133422Y-3854618D1*
X-9079964Y-3885990D2*
X-9148022D1*
X-9109164D2*
X-9094564Y-3890932D1*
X-9084793Y-3900590D1*
X-9079964Y-3910361D1*
Y-3924961D1*
X-9045935Y-4014621D2*
X-9148022D1*
X-9094564D2*
X-9084793Y-4004963D1*
X-9079964Y-3995192D1*
Y-3980592D1*
X-9084793Y-3970933D1*
X-9094564Y-3961163D1*
X-9109164Y-3956333D1*
X-9118822D1*
X-9133422Y-3961163D1*
X-9143081Y-3970933D1*
X-9148022Y-3980592D1*
Y-3995192D1*
X-9143081Y-4004963D1*
X-9133422Y-4014621D1*
X-9079964Y-4050935D2*
X-9084905Y-4045994D1*
X-9089735Y-4050935D1*
X-9084905Y-4055764D1*
X-9079964Y-4050935D1*
X-9138252D2*
X-9143193Y-4045994D1*
X-9148022Y-4050935D1*
X-9143193Y-4055764D1*
X-9138252Y-4050935D1*
X-9060535Y-4253953D2*
X-9050764Y-4244294D1*
X-9045935Y-4229694D1*
Y-4210265D1*
X-9050764Y-4195665D1*
X-9060535Y-4185894D1*
X-9070193D1*
X-9079964Y-4190836D1*
X-9084793Y-4195665D1*
X-9089622Y-4205323D1*
X-9099393Y-4234523D1*
X-9104222Y-4244294D1*
X-9109164Y-4249123D1*
X-9118822Y-4253953D1*
X-9133422D1*
X-9143081Y-4244294D1*
X-9148022Y-4229694D1*
Y-4210265D1*
X-9143081Y-4195665D1*
X-9133422Y-4185894D1*
X-9045935Y-4285325D2*
X-9148022D1*
X-9099393D2*
X-9084793Y-4299925D1*
X-9079964Y-4309696D1*
Y-4324296D1*
X-9084793Y-4333954D1*
X-9099393Y-4338784D1*
X-9148022D1*
X-9079964Y-4394415D2*
X-9084793Y-4384756D1*
X-9094564Y-4374985D1*
X-9109164Y-4370156D1*
X-9118822D1*
X-9133422Y-4374985D1*
X-9143081Y-4384756D1*
X-9148022Y-4394415D1*
Y-4409015D1*
X-9143081Y-4418785D1*
X-9133422Y-4428444D1*
X-9118822Y-4433385D1*
X-9109164D1*
X-9094564Y-4428444D1*
X-9084793Y-4418785D1*
X-9079964Y-4409015D1*
Y-4394415D1*
Y-4464758D2*
X-9148022D1*
X-9109164D2*
X-9094564Y-4469700D1*
X-9084793Y-4479358D1*
X-9079964Y-4489129D1*
Y-4503729D1*
X-9045935Y-4549701D2*
X-9128593D1*
X-9143081Y-4554531D1*
X-9148022Y-4564301D1*
Y-4573960D1*
X-9079964Y-4535101D2*
Y-4569131D1*
X-9284368Y-2706593D2*
Y-2750393D1*
X-9279539Y-2764881D1*
X-9274597Y-2769822D1*
X-9264939Y-2774652D1*
X-9250339D1*
X-9240680Y-2769822D1*
X-9235739Y-2764881D1*
X-9230909Y-2750393D1*
Y-2706593D1*
X-9332997D1*
X-9230909Y-2806024D2*
X-9235739Y-2810853D1*
X-9230909Y-2815795D1*
X-9225968Y-2810853D1*
X-9230909Y-2806024D1*
X-9264939Y-2810853D2*
X-9332997D1*
X-9264939Y-2847167D2*
X-9332997D1*
X-9284368D2*
X-9269768Y-2861767D1*
X-9264939Y-2871538D1*
Y-2886026D1*
X-9269768Y-2895797D1*
X-9284368Y-2900626D1*
X-9332997D1*
X-9250451Y-3030756D2*
X-9245509Y-3040526D1*
X-9231022Y-3055126D1*
X-9332997D1*
X-9230909Y-3199856D2*
X-9313568D1*
X-9328055Y-3204685D1*
X-9332997Y-3214456D1*
Y-3224115D1*
X-9264939Y-3185256D2*
Y-3219285D1*
Y-3279746D2*
X-9269768Y-3270087D1*
X-9279539Y-3260316D1*
X-9294139Y-3255487D1*
X-9303797D1*
X-9318397Y-3260316D1*
X-9328055Y-3270087D1*
X-9332997Y-3279746D1*
Y-3294346D1*
X-9328055Y-3304116D1*
X-9318397Y-3313775D1*
X-9303797Y-3318716D1*
X-9294139D1*
X-9279539Y-3313775D1*
X-9269768Y-3304116D1*
X-9264939Y-3294346D1*
Y-3279746D1*
X-9284368Y-3448846D2*
Y-3492646D1*
X-9279539Y-3507134D1*
X-9274597Y-3512075D1*
X-9264939Y-3516905D1*
X-9250339D1*
X-9240680Y-3512075D1*
X-9235739Y-3507134D1*
X-9230909Y-3492646D1*
Y-3448846D1*
X-9332997D1*
X-9230909Y-3548277D2*
X-9235739Y-3553106D1*
X-9230909Y-3558048D1*
X-9225968Y-3553106D1*
X-9230909Y-3548277D1*
X-9264939Y-3553106D2*
X-9332997D1*
X-9264939Y-3589420D2*
X-9332997D1*
X-9284368D2*
X-9269768Y-3604020D1*
X-9264939Y-3613791D1*
Y-3628279D1*
X-9269768Y-3638050D1*
X-9284368Y-3642879D1*
X-9332997D1*
X-9231022Y-3782779D2*
Y-3836126D1*
X-9269880Y-3807038D1*
Y-3821638D1*
X-9274709Y-3831296D1*
X-9279539Y-3836126D1*
X-9294139Y-3841067D1*
X-9303797D1*
X-9318397Y-3836126D1*
X-9328168Y-3826467D1*
X-9332997Y-3811867D1*
Y-3797267D1*
X-9328168Y-3782779D1*
X-9323226Y-3777950D1*
X-9313568Y-3773009D1*
X-9264939Y-4029484D2*
X-9332997D1*
X-9279539D2*
X-9269768Y-4019826D1*
X-9264939Y-4010055D1*
Y-3995568D1*
X-9269768Y-3985797D1*
X-9279539Y-3976138D1*
X-9294139Y-3971197D1*
X-9303797D1*
X-9318397Y-3976138D1*
X-9328055Y-3985797D1*
X-9332997Y-3995568D1*
Y-4010055D1*
X-9328055Y-4019826D1*
X-9318397Y-4029484D1*
X-9264939Y-4060857D2*
X-9332997D1*
X-9284368D2*
X-9269768Y-4075457D1*
X-9264939Y-4085228D1*
Y-4099715D1*
X-9269768Y-4109486D1*
X-9284368Y-4114315D1*
X-9332997D1*
X-9230909Y-4203976D2*
X-9332997D1*
X-9279539D2*
X-9269768Y-4194317D1*
X-9264939Y-4184546D1*
Y-4169946D1*
X-9269768Y-4160288D1*
X-9279539Y-4150517D1*
X-9294139Y-4145688D1*
X-9303797D1*
X-9318397Y-4150517D1*
X-9328055Y-4160288D1*
X-9332997Y-4169946D1*
Y-4184546D1*
X-9328055Y-4194317D1*
X-9318397Y-4203976D1*
X-9284368Y-4334105D2*
Y-4377905D1*
X-9279539Y-4392393D1*
X-9274597Y-4397335D1*
X-9264939Y-4402164D1*
X-9250339D1*
X-9240680Y-4397335D1*
X-9235739Y-4392393D1*
X-9230909Y-4377905D1*
Y-4334105D1*
X-9332997D1*
X-9230909Y-4433536D2*
X-9235739Y-4438366D1*
X-9230909Y-4443307D1*
X-9225968Y-4438366D1*
X-9230909Y-4433536D1*
X-9264939Y-4438366D2*
X-9332997D1*
X-9264939Y-4474680D2*
X-9332997D1*
X-9284368D2*
X-9269768Y-4489280D1*
X-9264939Y-4499051D1*
Y-4513538D1*
X-9269768Y-4523309D1*
X-9284368Y-4528138D1*
X-9332997D1*
X-9255280Y-4663209D2*
X-9250451D1*
X-9240680Y-4668039D1*
X-9235851Y-4672868D1*
X-9231022Y-4682639D1*
Y-4702068D1*
X-9235851Y-4711726D1*
X-9240680Y-4716556D1*
X-9250451Y-4721497D1*
X-9260109D1*
X-9269880Y-4716556D1*
X-9284368Y-4706897D1*
X-9332997Y-4658268D1*
Y-4726326D1*
X-9415884Y-2721193D2*
X-9498542D1*
X-9513030Y-2726022D1*
X-9517972Y-2735793D1*
Y-2745452D1*
X-9449913Y-2706593D2*
Y-2740622D1*
Y-2801083D2*
X-9454742Y-2791424D1*
X-9464513Y-2781653D1*
X-9479113Y-2776824D1*
X-9488772D1*
X-9503372Y-2781653D1*
X-9513030Y-2791424D1*
X-9517972Y-2801083D1*
Y-2815683D1*
X-9513030Y-2825453D1*
X-9503372Y-2835112D1*
X-9488772Y-2840053D1*
X-9479113D1*
X-9464513Y-2835112D1*
X-9454742Y-2825453D1*
X-9449913Y-2815683D1*
Y-2801083D1*
X-9469342Y-3068940D2*
Y-3112740D1*
X-9464513Y-3127228D1*
X-9459572Y-3132169D1*
X-9449913Y-3136999D1*
X-9435313D1*
X-9425655Y-3132169D1*
X-9420713Y-3127228D1*
X-9415884Y-3112740D1*
Y-3068940D1*
X-9517972D1*
X-9415884Y-3168371D2*
X-9420713Y-3173200D1*
X-9415884Y-3178142D1*
X-9410942Y-3173200D1*
X-9415884Y-3168371D1*
X-9449913Y-3173200D2*
X-9517972D1*
X-9449913Y-3209515D2*
X-9517972D1*
X-9469342D2*
X-9454742Y-3224115D1*
X-9449913Y-3233885D1*
Y-3248373D1*
X-9454742Y-3258144D1*
X-9469342Y-3262973D1*
X-9517972D1*
Y-3441732D2*
X-9415996D1*
X-9483942Y-3393103D1*
Y-3465990D1*
X-9508201Y-3502192D2*
X-9513142Y-3497363D1*
X-9517972Y-3502192D1*
X-9513142Y-3507134D1*
X-9508201Y-3502192D1*
X-8063586Y-2116020D2*
D68*
Y-2225380D1*
X-8118196Y-2170770D2*
X-8008836D1*
X-7896761Y-2106965D2*
X-7957407D1*
X-7963444Y-2161575D1*
X-7957407Y-2155539D1*
X-7939157Y-2149362D1*
X-7921048D1*
X-7902798Y-2155539D1*
X-7890584Y-2167612D1*
X-7884548Y-2185862D1*
Y-2197935D1*
X-7890584Y-2216185D1*
X-7902798Y-2228398D1*
X-7921048Y-2234435D1*
X-7939157D1*
X-7957407Y-2228398D1*
X-7963444Y-2222221D1*
X-7969621Y-2210148D1*
X-7845332Y-2106825D2*
X-7796759Y-2234435D1*
X-7748186Y-2106825D1*
X-8027086Y-1883148D2*
X-8033123Y-1871075D1*
X-8045336Y-1858862D1*
X-8057410Y-1852825D1*
X-8081696D1*
X-8093910Y-1858862D1*
X-8105983Y-1871075D1*
X-8112160Y-1883148D1*
X-8118196Y-1901398D1*
Y-1931862D1*
X-8112160Y-1949971D1*
X-8105983Y-1962185D1*
X-8093910Y-1974258D1*
X-8081696Y-1980435D1*
X-8057410D1*
X-8045336Y-1974258D1*
X-8033123Y-1962185D1*
X-8027086Y-1949971D1*
Y-1931862D1*
X-8057410D1*
X-7902798Y-1852825D2*
Y-1980435D1*
X-7987871Y-1852825D1*
Y-1980435D1*
X-7863582Y-1852825D2*
Y-1980435D1*
X-7821045D1*
X-7802795Y-1974258D1*
X-7790582Y-1962185D1*
X-7784545Y-1949971D1*
X-7778509Y-1931862D1*
Y-1901398D1*
X-7784545Y-1883148D1*
X-7790582Y-1871075D1*
X-7802795Y-1858862D1*
X-7821045Y-1852825D1*
X-7863582D1*
X-8063586Y-2370020D2*
Y-2479380D1*
X-8118196Y-2424770D2*
X-8008836D1*
X-7896761Y-2360965D2*
X-7957407D1*
X-7963444Y-2415575D1*
X-7957407Y-2409539D1*
X-7939157Y-2403362D1*
X-7921048D1*
X-7902798Y-2409539D1*
X-7890584Y-2421612D1*
X-7884548Y-2439862D1*
Y-2451935D1*
X-7890584Y-2470185D1*
X-7902798Y-2482398D1*
X-7921048Y-2488435D1*
X-7939157D1*
X-7957407Y-2482398D1*
X-7963444Y-2476221D1*
X-7969621Y-2464148D1*
X-7845332Y-2360825D2*
X-7796759Y-2488435D1*
X-7748186Y-2360825D1*
X-7585524D2*
X-7579487Y-2366862D1*
X-7573310Y-2360825D1*
X-7579487Y-2354648D1*
X-7585524Y-2360825D1*
X-7579487Y-2403362D2*
Y-2488435D1*
X-7534095Y-2403362D2*
Y-2488435D1*
Y-2427648D2*
X-7515845Y-2409398D1*
X-7503631Y-2403362D1*
X-7485521D1*
X-7473308Y-2409398D1*
X-7467271Y-2427648D1*
Y-2488435D1*
X-6184904Y-3748713D2*
D69*
Y-3850801D1*
Y-3802172D2*
X-6170304Y-3787572D1*
X-6160533Y-3782743D1*
X-6145933D1*
X-6136274Y-3787572D1*
X-6131445Y-3802172D1*
Y-3850801D1*
X-6085473Y-3748713D2*
Y-3831372D1*
X-6080643Y-3845860D1*
X-6070873Y-3850801D1*
X-6061214D1*
X-6100073Y-3782743D2*
X-6066043D1*
X-6015242Y-3748713D2*
Y-3831372D1*
X-6010412Y-3845860D1*
X-6000642Y-3850801D1*
X-5990983D1*
X-6029842Y-3782743D2*
X-5995812D1*
X-5959610D2*
Y-3884830D1*
Y-3797343D2*
X-5949840Y-3787684D1*
X-5940181Y-3782743D1*
X-5925581D1*
X-5915810Y-3787684D1*
X-5906152Y-3797343D1*
X-5901210Y-3811943D1*
Y-3821713D1*
X-5906152Y-3836201D1*
X-5915810Y-3845972D1*
X-5925581Y-3850801D1*
X-5940181D1*
X-5949840Y-3845972D1*
X-5959610Y-3836201D1*
X-5816379Y-3797343D2*
X-5821209Y-3787572D1*
X-5835809Y-3782743D1*
X-5850409D1*
X-5865009Y-3787572D1*
X-5869838Y-3797343D1*
X-5865009Y-3807001D1*
X-5855238Y-3811943D1*
X-5830979Y-3816772D1*
X-5821209Y-3821601D1*
X-5816379Y-3831372D1*
Y-3836201D1*
X-5821209Y-3845860D1*
X-5835809Y-3850801D1*
X-5850409D1*
X-5865009Y-3845860D1*
X-5869838Y-3836201D1*
X-5780065Y-3782743D2*
X-5785007Y-3787684D1*
X-5780065Y-3792513D1*
X-5775236Y-3787684D1*
X-5780065Y-3782743D1*
Y-3841030D2*
X-5785007Y-3845972D1*
X-5780065Y-3850801D1*
X-5775236Y-3845972D1*
X-5780065Y-3841030D1*
X-5743864Y-3850801D2*
X-5675805Y-3748826D1*
X-5644433Y-3850801D2*
X-5576374Y-3748826D1*
X-5486714Y-3787572D2*
Y-3865401D1*
X-5491543Y-3879889D1*
X-5496372Y-3884830D1*
X-5506143Y-3889660D1*
X-5520743D1*
X-5530402Y-3884830D1*
X-5486714Y-3802172D2*
X-5496372Y-3792513D1*
X-5506143Y-3787572D1*
X-5520743D1*
X-5530402Y-3792513D1*
X-5540172Y-3802172D1*
X-5545002Y-3816772D1*
Y-3826543D1*
X-5540172Y-3841030D1*
X-5530402Y-3850801D1*
X-5520743Y-3855630D1*
X-5506143D1*
X-5496372Y-3850801D1*
X-5486714Y-3841030D1*
X-5455341Y-3748713D2*
X-5450512Y-3753543D1*
X-5445571Y-3748713D1*
X-5450512Y-3743772D1*
X-5455341Y-3748713D1*
X-5450512Y-3782743D2*
Y-3850801D1*
X-5399598Y-3748713D2*
Y-3831372D1*
X-5394769Y-3845860D1*
X-5384998Y-3850801D1*
X-5375340D1*
X-5414198Y-3782743D2*
X-5380169D1*
X-5343967Y-3748713D2*
Y-3850801D1*
Y-3802172D2*
X-5329367Y-3787572D1*
X-5319596Y-3782743D1*
X-5304996D1*
X-5295338Y-3787572D1*
X-5290509Y-3802172D1*
Y-3850801D1*
X-5259136Y-3782743D2*
Y-3831372D1*
X-5254307Y-3845860D1*
X-5244536Y-3850801D1*
X-5229936D1*
X-5220278Y-3845860D1*
X-5205678Y-3831372D1*
Y-3782743D2*
Y-3850801D1*
X-5174305Y-3748713D2*
Y-3850801D1*
Y-3797343D2*
X-5164534Y-3787572D1*
X-5154876Y-3782743D1*
X-5140276D1*
X-5130617Y-3787572D1*
X-5120847Y-3797343D1*
X-5116017Y-3811943D1*
Y-3821601D1*
X-5120847Y-3836201D1*
X-5130617Y-3845860D1*
X-5140276Y-3850801D1*
X-5154876D1*
X-5164534Y-3845860D1*
X-5174305Y-3836201D1*
X-5079816Y-3841030D2*
X-5084645Y-3845972D1*
X-5079816Y-3850801D1*
X-5074874Y-3845972D1*
X-5079816Y-3841030D1*
X-4985101Y-3797343D2*
X-4994872Y-3787572D1*
X-5004643Y-3782743D1*
X-5019131D1*
X-5028901Y-3787572D1*
X-5038560Y-3797343D1*
X-5043501Y-3811943D1*
Y-3821601D1*
X-5038560Y-3836201D1*
X-5028901Y-3845860D1*
X-5019131Y-3850801D1*
X-5004643D1*
X-4994872Y-3845860D1*
X-4985101Y-3836201D1*
X-4929470Y-3782743D2*
X-4939129Y-3787572D1*
X-4948900Y-3797343D1*
X-4953729Y-3811943D1*
Y-3821601D1*
X-4948900Y-3836201D1*
X-4939129Y-3845860D1*
X-4929470Y-3850801D1*
X-4914870D1*
X-4905100Y-3845860D1*
X-4895441Y-3836201D1*
X-4890500Y-3821601D1*
Y-3811943D1*
X-4895441Y-3797343D1*
X-4905100Y-3787572D1*
X-4914870Y-3782743D1*
X-4929470D1*
X-4859127D2*
Y-3850801D1*
Y-3802172D2*
X-4844527Y-3787572D1*
X-4834756Y-3782743D1*
X-4820269D1*
X-4810498Y-3787572D1*
X-4805669Y-3802172D1*
Y-3850801D1*
Y-3802172D2*
X-4791069Y-3787572D1*
X-4781298Y-3782743D1*
X-4766810D1*
X-4757039Y-3787572D1*
X-4752098Y-3802172D1*
Y-3850801D1*
X-4720725D2*
X-4652667Y-3748826D1*
X-4543465Y-3850801D2*
X-4582436Y-3748713D1*
X-4621294Y-3850801D1*
X-4606694Y-3816772D2*
X-4558065D1*
X-4512093Y-3748713D2*
Y-3850801D1*
X-4475778Y-3782743D2*
X-4446691Y-3850801D1*
X-4456349Y-3870230D1*
X-4466120Y-3880001D1*
X-4475778Y-3884830D1*
X-4480720D1*
X-4417491Y-3782743D2*
X-4446691Y-3850801D1*
X-4332660Y-3797343D2*
X-4337489Y-3787572D1*
X-4352089Y-3782743D1*
X-4366689D1*
X-4381289Y-3787572D1*
X-4386118Y-3797343D1*
X-4381289Y-3807001D1*
X-4371518Y-3811943D1*
X-4347260Y-3816772D1*
X-4337489Y-3821601D1*
X-4332660Y-3831372D1*
Y-3836201D1*
X-4337489Y-3845860D1*
X-4352089Y-3850801D1*
X-4366689D1*
X-4381289Y-3845860D1*
X-4386118Y-3836201D1*
X-4247829Y-3797343D2*
X-4252658Y-3787572D1*
X-4267258Y-3782743D1*
X-4281858D1*
X-4296458Y-3787572D1*
X-4301287Y-3797343D1*
X-4296458Y-3807001D1*
X-4286687Y-3811943D1*
X-4262429Y-3816772D1*
X-4252658Y-3821601D1*
X-4247829Y-3831372D1*
Y-3836201D1*
X-4252658Y-3845860D1*
X-4267258Y-3850801D1*
X-4281858D1*
X-4296458Y-3845860D1*
X-4301287Y-3836201D1*
X-4192198Y-3782743D2*
X-4201856Y-3787572D1*
X-4211627Y-3797343D1*
X-4216456Y-3811943D1*
Y-3821601D1*
X-4211627Y-3836201D1*
X-4201856Y-3845860D1*
X-4192198Y-3850801D1*
X-4177598D1*
X-4167827Y-3845860D1*
X-4158169Y-3836201D1*
X-4153227Y-3821601D1*
Y-3811943D1*
X-4158169Y-3797343D1*
X-4167827Y-3787572D1*
X-4177598Y-3782743D1*
X-4192198D1*
X-4121854D2*
Y-3850801D1*
Y-3802172D2*
X-4107254Y-3787572D1*
X-4097484Y-3782743D1*
X-4082996D1*
X-4073225Y-3787572D1*
X-4068396Y-3802172D1*
Y-3850801D1*
X-4037023Y-3797343D2*
X-3993336D1*
X-3978736Y-3792401D1*
X-3973794Y-3787572D1*
X-3968965Y-3777913D1*
Y-3768143D1*
X-3973794Y-3758484D1*
X-3978736Y-3753543D1*
X-3993336Y-3748713D1*
X-4037023D1*
Y-3850801D1*
X-4002994Y-3797343D2*
X-3968965Y-3850801D1*
X-3913334Y-3782743D2*
X-3922992Y-3787572D1*
X-3932763Y-3797343D1*
X-3937592Y-3811943D1*
Y-3821601D1*
X-3932763Y-3836201D1*
X-3922992Y-3845860D1*
X-3913334Y-3850801D1*
X-3898734D1*
X-3888963Y-3845860D1*
X-3879305Y-3836201D1*
X-3874363Y-3821601D1*
Y-3811943D1*
X-3879305Y-3797343D1*
X-3888963Y-3787572D1*
X-3898734Y-3782743D1*
X-3913334D1*
X-3842991D2*
X-3823561Y-3850801D1*
X-3804132Y-3782743D1*
X-3784703Y-3850801D1*
X-3765274Y-3782743D1*
X-3675613D2*
Y-3850801D1*
Y-3797343D2*
X-3685272Y-3787572D1*
X-3695043Y-3782743D1*
X-3709530D1*
X-3719301Y-3787572D1*
X-3728960Y-3797343D1*
X-3733901Y-3811943D1*
Y-3821601D1*
X-3728960Y-3836201D1*
X-3719301Y-3845860D1*
X-3709530Y-3850801D1*
X-3695043D1*
X-3685272Y-3845860D1*
X-3675613Y-3836201D1*
X-3644241Y-3782743D2*
Y-3850801D1*
Y-3802172D2*
X-3629641Y-3787572D1*
X-3619870Y-3782743D1*
X-3605382D1*
X-3595612Y-3787572D1*
X-3590782Y-3802172D1*
Y-3850801D1*
X-3559410D2*
X-3491351Y-3748826D1*
X-3382262Y-3850801D2*
Y-3748713D1*
X-3421120Y-3850801D1*
X-3459979Y-3748713D1*
Y-3850801D1*
X-3278002Y-3772972D2*
X-3282831Y-3763313D1*
X-3292602Y-3753543D1*
X-3302260Y-3748713D1*
X-3321689D1*
X-3331460Y-3753543D1*
X-3341119Y-3763313D1*
X-3346060Y-3772972D1*
X-3350889Y-3787572D1*
Y-3811943D1*
X-3346060Y-3826430D1*
X-3341119Y-3836201D1*
X-3331460Y-3845860D1*
X-3321689Y-3850801D1*
X-3302260D1*
X-3292602Y-3845860D1*
X-3282831Y-3836201D1*
X-3278002Y-3826430D1*
X-3178571Y-3763313D2*
X-3188229Y-3753543D1*
X-3202829Y-3748713D1*
X-3222258D1*
X-3236858Y-3753543D1*
X-3246629Y-3763313D1*
Y-3772972D1*
X-3241688Y-3782743D1*
X-3236858Y-3787572D1*
X-3227200Y-3792401D1*
X-3198000Y-3802172D1*
X-3188229Y-3807001D1*
X-3183400Y-3811943D1*
X-3178571Y-3821601D1*
Y-3836201D1*
X-3188229Y-3845860D1*
X-3202829Y-3850801D1*
X-3222258D1*
X-3236858Y-3845860D1*
X-3246629Y-3836201D1*
X-3147198Y-3799813D2*
X-3091044D1*
X-3001384Y-3748826D2*
X-3049901D1*
X-3054730Y-3792513D1*
X-3049901Y-3787684D1*
X-3035301Y-3782743D1*
X-3020813D1*
X-3006213Y-3787684D1*
X-2996443Y-3797343D1*
X-2991613Y-3811943D1*
Y-3821601D1*
X-2996443Y-3836201D1*
X-3006213Y-3845972D1*
X-3020813Y-3850801D1*
X-3035301D1*
X-3049901Y-3845972D1*
X-3054730Y-3841030D1*
X-3059672Y-3831372D1*
X-2960241Y-3768255D2*
X-2950470Y-3763313D1*
X-2935870Y-3748826D1*
Y-3850801D1*
X-2904497Y-3799813D2*
X-2848344D1*
X-2739254Y-3850801D2*
Y-3748713D1*
X-2778113Y-3850801D1*
X-2816971Y-3748713D1*
Y-3850801D1*
X-2683623Y-3782743D2*
X-2693282Y-3787572D1*
X-2703052Y-3797343D1*
X-2707882Y-3811943D1*
Y-3821601D1*
X-2703052Y-3836201D1*
X-2693282Y-3845860D1*
X-2683623Y-3850801D1*
X-2669023D1*
X-2659252Y-3845860D1*
X-2649594Y-3836201D1*
X-2644652Y-3821601D1*
Y-3811943D1*
X-2649594Y-3797343D1*
X-2659252Y-3787572D1*
X-2669023Y-3782743D1*
X-2683623D1*
X-2554992Y-3748713D2*
Y-3850801D1*
Y-3797343D2*
X-2564651Y-3787572D1*
X-2574421Y-3782743D1*
X-2589021D1*
X-2598680Y-3787572D1*
X-2608451Y-3797343D1*
X-2613280Y-3811943D1*
Y-3821601D1*
X-2608451Y-3836201D1*
X-2598680Y-3845860D1*
X-2589021Y-3850801D1*
X-2574421D1*
X-2564651Y-3845860D1*
X-2554992Y-3836201D1*
X-2523620Y-3782743D2*
Y-3831372D1*
X-2518790Y-3845860D1*
X-2509020Y-3850801D1*
X-2494420D1*
X-2484761Y-3845860D1*
X-2470161Y-3831372D1*
Y-3782743D2*
Y-3850801D1*
X-2438789Y-3748713D2*
Y-3850801D1*
X-2349128Y-3782743D2*
Y-3850801D1*
Y-3797343D2*
X-2358787Y-3787572D1*
X-2368558Y-3782743D1*
X-2383045D1*
X-2392816Y-3787572D1*
X-2402474Y-3797343D1*
X-2407416Y-3811943D1*
Y-3821601D1*
X-2402474Y-3836201D1*
X-2392816Y-3845860D1*
X-2383045Y-3850801D1*
X-2368558D1*
X-2358787Y-3845860D1*
X-2349128Y-3836201D1*
X-2317756Y-3782743D2*
Y-3850801D1*
Y-3811943D2*
X-2312814Y-3797343D1*
X-2303156Y-3787572D1*
X-2293385Y-3782743D1*
X-2278785D1*
X-2247412Y-3799813D2*
X-2191259D1*
X-2086998Y-3772972D2*
X-2091828Y-3763313D1*
X-2101598Y-3753543D1*
X-2111257Y-3748713D1*
X-2130686D1*
X-2140457Y-3753543D1*
X-2150115Y-3763313D1*
X-2155057Y-3772972D1*
X-2159886Y-3787572D1*
Y-3811943D1*
X-2155057Y-3826430D1*
X-2150115Y-3836201D1*
X-2140457Y-3845860D1*
X-2130686Y-3850801D1*
X-2111257D1*
X-2101598Y-3845860D1*
X-2091828Y-3836201D1*
X-2086998Y-3826430D1*
X-2031367Y-3782743D2*
X-2041026Y-3787572D1*
X-2050797Y-3797343D1*
X-2055626Y-3811943D1*
Y-3821601D1*
X-2050797Y-3836201D1*
X-2041026Y-3845860D1*
X-2031367Y-3850801D1*
X-2016767D1*
X-2006997Y-3845860D1*
X-1997338Y-3836201D1*
X-1992397Y-3821601D1*
Y-3811943D1*
X-1997338Y-3797343D1*
X-2006997Y-3787572D1*
X-2016767Y-3782743D1*
X-2031367D1*
X-1961024D2*
Y-3850801D1*
Y-3802172D2*
X-1946424Y-3787572D1*
X-1936653Y-3782743D1*
X-1922166D1*
X-1912395Y-3787572D1*
X-1907566Y-3802172D1*
Y-3850801D1*
Y-3802172D2*
X-1892966Y-3787572D1*
X-1883195Y-3782743D1*
X-1868707D1*
X-1858936Y-3787572D1*
X-1853995Y-3802172D1*
Y-3850801D1*
X-1822622Y-3782743D2*
Y-3884830D1*
Y-3797343D2*
X-1812851Y-3787684D1*
X-1803193Y-3782743D1*
X-1788593D1*
X-1778822Y-3787684D1*
X-1769164Y-3797343D1*
X-1764222Y-3811943D1*
Y-3821713D1*
X-1769164Y-3836201D1*
X-1778822Y-3845972D1*
X-1788593Y-3850801D1*
X-1803193D1*
X-1812851Y-3845972D1*
X-1822622Y-3836201D1*
X-1732850Y-3782743D2*
Y-3831372D1*
X-1728020Y-3845860D1*
X-1718250Y-3850801D1*
X-1703650D1*
X-1693991Y-3845860D1*
X-1679391Y-3831372D1*
Y-3782743D2*
Y-3850801D1*
X-1633419Y-3748713D2*
Y-3831372D1*
X-1628589Y-3845860D1*
X-1618819Y-3850801D1*
X-1609160D1*
X-1648019Y-3782743D2*
X-1613989D1*
X-1577788Y-3811943D2*
X-1519500D1*
Y-3802172D1*
X-1524329Y-3792401D1*
X-1529158Y-3787572D1*
X-1538929Y-3782743D1*
X-1553529D1*
X-1563188Y-3787572D1*
X-1572958Y-3797343D1*
X-1577788Y-3811943D1*
Y-3821601D1*
X-1572958Y-3836201D1*
X-1563188Y-3845860D1*
X-1553529Y-3850801D1*
X-1538929D1*
X-1529158Y-3845860D1*
X-1519500Y-3836201D1*
X-1488127Y-3782743D2*
Y-3850801D1*
Y-3811943D2*
X-1483186Y-3797343D1*
X-1473527Y-3787572D1*
X-1463757Y-3782743D1*
X-1449157D1*
X-6240462Y-2599013D2*
D70*
Y-2471403D1*
X-6289035Y-2599013D1*
X-6337608Y-2471403D1*
Y-2599013D1*
X-6093796Y-2501726D2*
X-6099833Y-2489653D1*
X-6112046Y-2477440D1*
X-6124120Y-2471403D1*
X-6148406D1*
X-6160620Y-2477440D1*
X-6172693Y-2489653D1*
X-6178870Y-2501726D1*
X-6184906Y-2519976D1*
Y-2550440D1*
X-6178870Y-2568550D1*
X-6172693Y-2580763D1*
X-6160620Y-2592836D1*
X-6148406Y-2599013D1*
X-6124120D1*
X-6112046Y-2592836D1*
X-6099833Y-2580763D1*
X-6093796Y-2568550D1*
X-5953168Y-2489653D2*
X-5965241Y-2477440D1*
X-5983491Y-2471403D1*
X-6007777D1*
X-6026027Y-2477440D1*
X-6038241Y-2489653D1*
Y-2501726D1*
X-6032064Y-2513940D1*
X-6026027Y-2519976D1*
X-6013954Y-2526013D1*
X-5977454Y-2538226D1*
X-5965241Y-2544263D1*
X-5959204Y-2550440D1*
X-5953168Y-2562513D1*
Y-2580763D1*
X-5965241Y-2592836D1*
X-5983491Y-2599013D1*
X-6007777D1*
X-6026027Y-2592836D1*
X-6038241Y-2580763D1*
X-5897612Y-2535278D2*
X-5827420D1*
X-5699005Y-2471544D2*
X-5759651D1*
X-5765687Y-2526153D1*
X-5759651Y-2520117D1*
X-5741401Y-2513940D1*
X-5723291D1*
X-5705041Y-2520117D1*
X-5692828Y-2532190D1*
X-5686791Y-2550440D1*
Y-2562513D1*
X-5692828Y-2580763D1*
X-5705041Y-2592976D1*
X-5723291Y-2599013D1*
X-5741401D1*
X-5759651Y-2592976D1*
X-5765687Y-2586800D1*
X-5771864Y-2574726D1*
X-5631236Y-2495830D2*
X-5619022Y-2489653D1*
X-5600772Y-2471544D1*
Y-2599013D1*
X-5308284D2*
Y-2471403D1*
X-5356857Y-2599013D1*
X-5405430Y-2471403D1*
Y-2599013D1*
X-5222406Y-2513940D2*
X-5234479Y-2519976D1*
X-5246692Y-2532190D1*
X-5252729Y-2550440D1*
Y-2562513D1*
X-5246692Y-2580763D1*
X-5234479Y-2592836D1*
X-5222406Y-2599013D1*
X-5204156D1*
X-5191942Y-2592836D1*
X-5179869Y-2580763D1*
X-5173692Y-2562513D1*
Y-2550440D1*
X-5179869Y-2532190D1*
X-5191942Y-2519976D1*
X-5204156Y-2513940D1*
X-5222406D1*
X-5045277Y-2471403D2*
Y-2599013D1*
Y-2532190D2*
X-5057350Y-2519976D1*
X-5069564Y-2513940D1*
X-5087814D1*
X-5099887Y-2519976D1*
X-5112100Y-2532190D1*
X-5118137Y-2550440D1*
Y-2562513D1*
X-5112100Y-2580763D1*
X-5099887Y-2592836D1*
X-5087814Y-2599013D1*
X-5069564D1*
X-5057350Y-2592836D1*
X-5045277Y-2580763D1*
X-4989721Y-2513940D2*
Y-2574726D1*
X-4983685Y-2592836D1*
X-4971471Y-2599013D1*
X-4953221D1*
X-4941148Y-2592836D1*
X-4922898Y-2574726D1*
Y-2513940D2*
Y-2599013D1*
X-4867343Y-2471403D2*
Y-2599013D1*
X-4738928Y-2513940D2*
Y-2599013D1*
Y-2532190D2*
X-4751001Y-2519976D1*
X-4763214Y-2513940D1*
X-4781324D1*
X-4793537Y-2519976D1*
X-4805610Y-2532190D1*
X-4811787Y-2550440D1*
Y-2562513D1*
X-4805610Y-2580763D1*
X-4793537Y-2592836D1*
X-4781324Y-2599013D1*
X-4763214D1*
X-4751001Y-2592836D1*
X-4738928Y-2580763D1*
X-4683372Y-2513940D2*
Y-2599013D1*
Y-2550440D2*
X-4677195Y-2532190D1*
X-4665122Y-2519976D1*
X-4652909Y-2513940D1*
X-4634659D1*
X-4348207Y-2501726D2*
X-4354244Y-2489653D1*
X-4366457Y-2477440D1*
X-4378530Y-2471403D1*
X-4402817D1*
X-4415030Y-2477440D1*
X-4427103Y-2489653D1*
X-4433280Y-2501726D1*
X-4439317Y-2519976D1*
Y-2550440D1*
X-4433280Y-2568550D1*
X-4427103Y-2580763D1*
X-4415030Y-2592836D1*
X-4402817Y-2599013D1*
X-4378530D1*
X-4366457Y-2592836D1*
X-4354244Y-2580763D1*
X-4348207Y-2568550D1*
X-4262329Y-2513940D2*
X-4274402Y-2519976D1*
X-4286615Y-2532190D1*
X-4292652Y-2550440D1*
Y-2562513D1*
X-4286615Y-2580763D1*
X-4274402Y-2592836D1*
X-4262329Y-2599013D1*
X-4244079D1*
X-4231865Y-2592836D1*
X-4219792Y-2580763D1*
X-4213615Y-2562513D1*
Y-2550440D1*
X-4219792Y-2532190D1*
X-4231865Y-2519976D1*
X-4244079Y-2513940D1*
X-4262329D1*
X-4158059D2*
Y-2599013D1*
Y-2538226D2*
X-4139809Y-2519976D1*
X-4127596Y-2513940D1*
X-4109486D1*
X-4097273Y-2519976D1*
X-4091236Y-2538226D1*
Y-2599013D1*
Y-2538226D2*
X-4072986Y-2519976D1*
X-4060773Y-2513940D1*
X-4042663D1*
X-4030450Y-2519976D1*
X-4024273Y-2538226D1*
Y-2599013D1*
X-3968717Y-2513940D2*
Y-2641550D1*
Y-2532190D2*
X-3956504Y-2520117D1*
X-3944431Y-2513940D1*
X-3926181D1*
X-3913967Y-2520117D1*
X-3901894Y-2532190D1*
X-3895717Y-2550440D1*
Y-2562653D1*
X-3901894Y-2580763D1*
X-3913967Y-2592976D1*
X-3926181Y-2599013D1*
X-3944431D1*
X-3956504Y-2592976D1*
X-3968717Y-2580763D1*
X-3840162Y-2513940D2*
Y-2574726D1*
X-3834125Y-2592836D1*
X-3821912Y-2599013D1*
X-3803662D1*
X-3791589Y-2592836D1*
X-3773339Y-2574726D1*
Y-2513940D2*
Y-2599013D1*
X-3699533Y-2471403D2*
Y-2574726D1*
X-3693497Y-2592836D1*
X-3681283Y-2599013D1*
X-3669210D1*
X-3717783Y-2513940D2*
X-3675247D1*
X-3613655Y-2550440D2*
X-3540795D1*
Y-2538226D1*
X-3546831Y-2526013D1*
X-3552868Y-2519976D1*
X-3565081Y-2513940D1*
X-3583331D1*
X-3595405Y-2519976D1*
X-3607618Y-2532190D1*
X-3613655Y-2550440D1*
Y-2562513D1*
X-3607618Y-2580763D1*
X-3595405Y-2592836D1*
X-3583331Y-2599013D1*
X-3565081D1*
X-3552868Y-2592836D1*
X-3540795Y-2580763D1*
X-3485239Y-2513940D2*
Y-2599013D1*
Y-2550440D2*
X-3479062Y-2532190D1*
X-3466989Y-2519976D1*
X-3454776Y-2513940D1*
X-3436526D1*
X-6194683Y-3122825D2*
D68*
Y-3250435D1*
X-6109610Y-3122825D2*
Y-3250435D1*
X-6194683Y-3183612D2*
X-6109610D1*
X-5973248Y-3250435D2*
Y-3122825D1*
X-6021821Y-3250435D1*
X-6070394Y-3122825D1*
Y-3250435D1*
X-5842923Y-3153148D2*
X-5848959Y-3141075D1*
X-5861173Y-3128862D1*
X-5873246Y-3122825D1*
X-5897532D1*
X-5909746Y-3128862D1*
X-5921819Y-3141075D1*
X-5927996Y-3153148D1*
X-5934032Y-3171398D1*
Y-3201862D1*
X-5927996Y-3219971D1*
X-5921819Y-3232185D1*
X-5909746Y-3244258D1*
X-5897532Y-3250435D1*
X-5873246D1*
X-5861173Y-3244258D1*
X-5848959Y-3232185D1*
X-5842923Y-3219971D1*
X-5803707Y-3186700D2*
X-5733515D1*
X-5597153Y-3250435D2*
Y-3122825D1*
X-5645726Y-3250435D1*
X-5694299Y-3122825D1*
Y-3250435D1*
X-5460791D2*
Y-3122825D1*
X-5509364Y-3250435D1*
X-5557937Y-3122825D1*
Y-3250435D1*
X-5421575Y-3122825D2*
Y-3250435D1*
X-5366825D1*
X-5348575Y-3244258D1*
X-5342539Y-3238221D1*
X-5336502Y-3226148D1*
Y-3207898D1*
X-5342539Y-3195685D1*
X-5348575Y-3189648D1*
X-5366825Y-3183612D1*
X-5348575Y-3177435D1*
X-5342539Y-3171398D1*
X-5336502Y-3159325D1*
Y-3147112D1*
X-5342539Y-3135039D1*
X-5348575Y-3128862D1*
X-5366825Y-3122825D1*
X-5421575D1*
Y-3183612D2*
X-5366825D1*
X-5297286Y-3186700D2*
X-5227094D1*
X-5187878Y-3147252D2*
X-5175665Y-3141075D1*
X-5157415Y-3122965D1*
Y-3250435D1*
X-4871306Y-3122825D2*
X-4822733Y-3250435D1*
X-4774160Y-3122825D1*
X-4734945Y-3147252D2*
X-4722731Y-3141075D1*
X-4704481Y-3122965D1*
Y-3250435D1*
X-4659229Y-3238221D2*
X-4665265Y-3244398D1*
X-4659229Y-3250435D1*
X-4653052Y-3244398D1*
X-4659229Y-3238221D1*
X-4577336Y-3122965D2*
X-4595586Y-3129002D1*
X-4607800Y-3147252D1*
X-4613836Y-3177575D1*
Y-3195825D1*
X-4607800Y-3226148D1*
X-4595586Y-3244398D1*
X-4577336Y-3250435D1*
X-4565263D1*
X-4547013Y-3244398D1*
X-4534940Y-3226148D1*
X-4528763Y-3195825D1*
Y-3177575D1*
X-4534940Y-3147252D1*
X-4547013Y-3129002D1*
X-4565263Y-3122965D1*
X-4577336D1*
X-4534940Y-3147252D2*
X-4607800Y-3226148D1*
X-4453047Y-3122965D2*
X-4471297Y-3129002D1*
X-4483511Y-3147252D1*
X-4489547Y-3177575D1*
Y-3195825D1*
X-4483511Y-3226148D1*
X-4471297Y-3244398D1*
X-4453047Y-3250435D1*
X-4440974D1*
X-4422724Y-3244398D1*
X-4410651Y-3226148D1*
X-4404474Y-3195825D1*
Y-3177575D1*
X-4410651Y-3147252D1*
X-4422724Y-3129002D1*
X-4440974Y-3122965D1*
X-4453047D1*
X-4410651Y-3147252D2*
X-4483511Y-3226148D1*
X-4181026Y-3122825D2*
Y-3219971D1*
X-4187062Y-3238221D1*
X-4193239Y-3244258D1*
X-4205312Y-3250435D1*
X-4217526D1*
X-4229599Y-3244258D1*
X-4235635Y-3238221D1*
X-4241812Y-3219971D1*
Y-3207898D1*
X-4141810Y-3165362D2*
Y-3226148D1*
X-4135773Y-3244258D1*
X-4123560Y-3250435D1*
X-4105310D1*
X-4093237Y-3244258D1*
X-4074987Y-3226148D1*
Y-3165362D2*
Y-3250435D1*
X-4035771Y-3122825D2*
Y-3250435D1*
X-3990379Y-3165362D2*
X-3954019Y-3250435D1*
X-3966092Y-3274721D1*
X-3978306Y-3286935D1*
X-3990379Y-3292971D1*
X-3996556D1*
X-3917519Y-3165362D2*
X-3954019Y-3250435D1*
X-3748680Y-3153289D2*
Y-3147252D1*
X-3742643Y-3135039D1*
X-3736607Y-3129002D1*
X-3724393Y-3122965D1*
X-3700107D1*
X-3688034Y-3129002D1*
X-3681997Y-3135039D1*
X-3675820Y-3147252D1*
Y-3159325D1*
X-3681997Y-3171539D1*
X-3694070Y-3189648D1*
X-3754857Y-3250435D1*
X-3669784D1*
X-3594068Y-3122965D2*
X-3612318Y-3129002D1*
X-3624532Y-3147252D1*
X-3630568Y-3177575D1*
Y-3195825D1*
X-3624532Y-3226148D1*
X-3612318Y-3244398D1*
X-3594068Y-3250435D1*
X-3581995D1*
X-3563745Y-3244398D1*
X-3551672Y-3226148D1*
X-3545495Y-3195825D1*
Y-3177575D1*
X-3551672Y-3147252D1*
X-3563745Y-3129002D1*
X-3581995Y-3122965D1*
X-3594068D1*
X-3551672Y-3147252D2*
X-3624532Y-3226148D1*
X-3469779Y-3122965D2*
X-3488029Y-3129002D1*
X-3500243Y-3147252D1*
X-3506279Y-3177575D1*
Y-3195825D1*
X-3500243Y-3226148D1*
X-3488029Y-3244398D1*
X-3469779Y-3250435D1*
X-3457706D1*
X-3439456Y-3244398D1*
X-3427383Y-3226148D1*
X-3421206Y-3195825D1*
Y-3177575D1*
X-3427383Y-3147252D1*
X-3439456Y-3129002D1*
X-3457706Y-3122965D1*
X-3469779D1*
X-3427383Y-3147252D2*
X-3500243Y-3226148D1*
X-3369777Y-3122965D2*
X-3303094D1*
X-3339454Y-3171539D1*
X-3321204D1*
X-3309131Y-3177575D1*
X-3303094Y-3183612D1*
X-3296918Y-3201862D1*
Y-3213935D1*
X-3303094Y-3232185D1*
X-3315168Y-3244398D1*
X-3333418Y-3250435D1*
X-3351668D1*
X-3369777Y-3244398D1*
X-3375814Y-3238221D1*
X-3381991Y-3226148D1*
X-6123756Y-3455969D2*
D69*
X-6128585Y-3446310D1*
X-6138356Y-3436539D1*
X-6148014Y-3431710D1*
X-6167444D1*
X-6177214Y-3436539D1*
X-6186873Y-3446310D1*
X-6191814Y-3455969D1*
X-6196644Y-3470569D1*
Y-3494939D1*
X-6191814Y-3509427D1*
X-6186873Y-3519198D1*
X-6177214Y-3528856D1*
X-6167444Y-3533798D1*
X-6148014D1*
X-6138356Y-3528856D1*
X-6128585Y-3519198D1*
X-6123756Y-3509427D1*
X-6068125Y-3465739D2*
X-6077783Y-3470569D1*
X-6087554Y-3480339D1*
X-6092383Y-3494939D1*
Y-3504598D1*
X-6087554Y-3519198D1*
X-6077783Y-3528856D1*
X-6068125Y-3533798D1*
X-6053525D1*
X-6043754Y-3528856D1*
X-6034096Y-3519198D1*
X-6029154Y-3504598D1*
Y-3494939D1*
X-6034096Y-3480339D1*
X-6043754Y-3470569D1*
X-6053525Y-3465739D1*
X-6068125D1*
X-5997782D2*
Y-3567827D1*
Y-3480339D2*
X-5988011Y-3470681D1*
X-5978352Y-3465739D1*
X-5963752D1*
X-5953982Y-3470681D1*
X-5944323Y-3480339D1*
X-5939382Y-3494939D1*
Y-3504710D1*
X-5944323Y-3519198D1*
X-5953982Y-3528969D1*
X-5963752Y-3533798D1*
X-5978352D1*
X-5988011Y-3528969D1*
X-5997782Y-3519198D1*
X-5903067Y-3465739D2*
X-5873980Y-3533798D1*
X-5883638Y-3553227D1*
X-5893409Y-3562998D1*
X-5903067Y-3567827D1*
X-5908009D1*
X-5844780Y-3465739D2*
X-5873980Y-3533798D1*
X-5813407Y-3465739D2*
Y-3533798D1*
Y-3494939D2*
X-5808466Y-3480339D1*
X-5798807Y-3470569D1*
X-5789036Y-3465739D1*
X-5774436D1*
X-5743064Y-3431710D2*
X-5738235Y-3436539D1*
X-5733293Y-3431710D1*
X-5738235Y-3426769D1*
X-5743064Y-3431710D1*
X-5738235Y-3465739D2*
Y-3533798D1*
X-5643633Y-3470569D2*
Y-3548398D1*
X-5648462Y-3562885D1*
X-5653291Y-3567827D1*
X-5663062Y-3572656D1*
X-5677662D1*
X-5687321Y-3567827D1*
X-5643633Y-3485169D2*
X-5653291Y-3475510D1*
X-5663062Y-3470569D1*
X-5677662D1*
X-5687321Y-3475510D1*
X-5697091Y-3485169D1*
X-5701921Y-3499769D1*
Y-3509539D1*
X-5697091Y-3524027D1*
X-5687321Y-3533798D1*
X-5677662Y-3538627D1*
X-5663062D1*
X-5653291Y-3533798D1*
X-5643633Y-3524027D1*
X-5612260Y-3431710D2*
Y-3533798D1*
Y-3485169D2*
X-5597660Y-3470569D1*
X-5587890Y-3465739D1*
X-5573290D1*
X-5563631Y-3470569D1*
X-5558802Y-3485169D1*
Y-3533798D1*
X-5512829Y-3431710D2*
Y-3514369D1*
X-5508000Y-3528856D1*
X-5498229Y-3533798D1*
X-5488571D1*
X-5527429Y-3465739D2*
X-5493400D1*
X-5324412Y-3405093D2*
X-5334183Y-3414752D1*
X-5343841Y-3429352D1*
X-5353612Y-3448781D1*
X-5358441Y-3473152D1*
Y-3492581D1*
X-5353612Y-3516839D1*
X-5343841Y-3536269D1*
X-5334183Y-3550869D1*
X-5324412Y-3560527D1*
X-5234639Y-3480339D2*
X-5244410Y-3470569D1*
X-5254181Y-3465739D1*
X-5268669D1*
X-5278439Y-3470569D1*
X-5288098Y-3480339D1*
X-5293039Y-3494939D1*
Y-3504598D1*
X-5288098Y-3519198D1*
X-5278439Y-3528856D1*
X-5268669Y-3533798D1*
X-5254181D1*
X-5244410Y-3528856D1*
X-5234639Y-3519198D1*
X-5203267Y-3405093D2*
X-5193496Y-3414752D1*
X-5183838Y-3429352D1*
X-5174067Y-3448781D1*
X-5169238Y-3473152D1*
Y-3492581D1*
X-5174067Y-3516839D1*
X-5183838Y-3536269D1*
X-5193496Y-3550869D1*
X-5203267Y-3560527D1*
X-4961279Y-3533798D2*
X-5000249Y-3431710D1*
X-5039108Y-3533798D1*
X-5024508Y-3499769D2*
X-4975879D1*
X-4929906Y-3431710D2*
Y-3533798D1*
X-4893592Y-3465739D2*
X-4864504Y-3533798D1*
X-4874163Y-3553227D1*
X-4883934Y-3562998D1*
X-4893592Y-3567827D1*
X-4898534D1*
X-4835304Y-3465739D2*
X-4864504Y-3533798D1*
X-4750473Y-3480339D2*
X-4755303Y-3470569D1*
X-4769903Y-3465739D1*
X-4784503D1*
X-4799103Y-3470569D1*
X-4803932Y-3480339D1*
X-4799103Y-3489998D1*
X-4789332Y-3494939D1*
X-4765073Y-3499769D1*
X-4755303Y-3504598D1*
X-4750473Y-3514369D1*
Y-3519198D1*
X-4755303Y-3528856D1*
X-4769903Y-3533798D1*
X-4784503D1*
X-4799103Y-3528856D1*
X-4803932Y-3519198D1*
X-4665642Y-3480339D2*
X-4670471Y-3470569D1*
X-4685071Y-3465739D1*
X-4699671D1*
X-4714271Y-3470569D1*
X-4719101Y-3480339D1*
X-4714271Y-3489998D1*
X-4704501Y-3494939D1*
X-4680242Y-3499769D1*
X-4670471Y-3504598D1*
X-4665642Y-3514369D1*
Y-3519198D1*
X-4670471Y-3528856D1*
X-4685071Y-3533798D1*
X-4699671D1*
X-4714271Y-3528856D1*
X-4719101Y-3519198D1*
X-4634270Y-3431710D2*
Y-3533798D1*
X-4578639Y-3465739D2*
X-4588297Y-3470569D1*
X-4598068Y-3480339D1*
X-4602897Y-3494939D1*
Y-3504598D1*
X-4598068Y-3519198D1*
X-4588297Y-3528856D1*
X-4578639Y-3533798D1*
X-4564039D1*
X-4554268Y-3528856D1*
X-4544609Y-3519198D1*
X-4539668Y-3504598D1*
Y-3494939D1*
X-4544609Y-3480339D1*
X-4554268Y-3470569D1*
X-4564039Y-3465739D1*
X-4578639D1*
X-4508295D2*
Y-3533798D1*
Y-3485169D2*
X-4493695Y-3470569D1*
X-4483925Y-3465739D1*
X-4469437D1*
X-4459666Y-3470569D1*
X-4454837Y-3485169D1*
Y-3533798D1*
X-4324707Y-3480339D2*
X-4281020D1*
X-4266420Y-3475398D1*
X-4261478Y-3470569D1*
X-4256649Y-3460910D1*
Y-3451139D1*
X-4261478Y-3441481D1*
X-4266420Y-3436539D1*
X-4281020Y-3431710D1*
X-4324707D1*
Y-3533798D1*
X-4290678Y-3480339D2*
X-4256649Y-3533798D1*
X-4201018Y-3465739D2*
X-4210676Y-3470569D1*
X-4220447Y-3480339D1*
X-4225276Y-3494939D1*
Y-3504598D1*
X-4220447Y-3519198D1*
X-4210676Y-3528856D1*
X-4201018Y-3533798D1*
X-4186418D1*
X-4176647Y-3528856D1*
X-4166989Y-3519198D1*
X-4162047Y-3504598D1*
Y-3494939D1*
X-4166989Y-3480339D1*
X-4176647Y-3470569D1*
X-4186418Y-3465739D1*
X-4201018D1*
X-4130674D2*
X-4111245Y-3533798D1*
X-4091816Y-3465739D1*
X-4072387Y-3533798D1*
X-4052957Y-3465739D1*
X-3963297D2*
Y-3533798D1*
Y-3480339D2*
X-3972956Y-3470569D1*
X-3982726Y-3465739D1*
X-3997214D1*
X-4006985Y-3470569D1*
X-4016643Y-3480339D1*
X-4021585Y-3494939D1*
Y-3504598D1*
X-4016643Y-3519198D1*
X-4006985Y-3528856D1*
X-3997214Y-3533798D1*
X-3982726D1*
X-3972956Y-3528856D1*
X-3963297Y-3519198D1*
X-3931925Y-3465739D2*
Y-3533798D1*
Y-3485169D2*
X-3917325Y-3470569D1*
X-3907554Y-3465739D1*
X-3893066D1*
X-3883295Y-3470569D1*
X-3878466Y-3485169D1*
Y-3533798D1*
X-3837323Y-3528969D2*
X-3842264Y-3533798D1*
X-3847094Y-3528969D1*
X-3842264Y-3524027D1*
X-3837323Y-3528969D1*
Y-3538627D1*
X-3842264Y-3548398D1*
X-3847094Y-3553227D1*
X-3702252Y-3456081D2*
Y-3451252D1*
X-3697422Y-3441481D1*
X-3692593Y-3436652D1*
X-3682822Y-3431822D1*
X-3663393D1*
X-3653735Y-3436652D1*
X-3648906Y-3441481D1*
X-3643964Y-3451252D1*
Y-3460910D1*
X-3648906Y-3470681D1*
X-3658564Y-3485169D1*
X-3707193Y-3533798D1*
X-3639135D1*
X-3578562Y-3431822D2*
X-3593162Y-3436652D1*
X-3602933Y-3451252D1*
X-3607762Y-3475510D1*
Y-3490110D1*
X-3602933Y-3514369D1*
X-3593162Y-3528969D1*
X-3578562Y-3533798D1*
X-3568904D1*
X-3554304Y-3528969D1*
X-3544645Y-3514369D1*
X-3539704Y-3490110D1*
Y-3475510D1*
X-3544645Y-3451252D1*
X-3554304Y-3436652D1*
X-3568904Y-3431822D1*
X-3578562D1*
X-3544645Y-3451252D2*
X-3602933Y-3514369D1*
X-3503390Y-3456081D2*
Y-3451252D1*
X-3498560Y-3441481D1*
X-3493731Y-3436652D1*
X-3483960Y-3431822D1*
X-3464531D1*
X-3454873Y-3436652D1*
X-3450043Y-3441481D1*
X-3445102Y-3451252D1*
Y-3460910D1*
X-3450043Y-3470681D1*
X-3459702Y-3485169D1*
X-3508331Y-3533798D1*
X-3440273D1*
X-3399129Y-3431822D2*
X-3345783D1*
X-3374871Y-3470681D1*
X-3360271D1*
X-3350612Y-3475510D1*
X-3345783Y-3480339D1*
X-3340842Y-3494939D1*
Y-3504598D1*
X-3345783Y-3519198D1*
X-3355442Y-3528969D1*
X-3370042Y-3533798D1*
X-3384642D1*
X-3399129Y-3528969D1*
X-3403959Y-3524027D1*
X-3408900Y-3514369D1*
X-6210608Y-2725403D2*
D70*
Y-2853013D1*
X-6125535Y-2725403D2*
Y-2853013D1*
X-6210608Y-2786190D2*
X-6125535D1*
X-6069979Y-2725403D2*
X-6021406Y-2786190D1*
Y-2853013D1*
X-5972833Y-2725403D2*
X-6021406Y-2786190D1*
X-5844418Y-2743653D2*
X-5850454Y-2731580D1*
X-5868704Y-2725544D1*
X-5880777D1*
X-5899027Y-2731580D1*
X-5911241Y-2749830D1*
X-5917277Y-2780153D1*
Y-2810476D1*
X-5911241Y-2834763D1*
X-5899027Y-2846976D1*
X-5880777Y-2853013D1*
X-5874741D1*
X-5856631Y-2846976D1*
X-5844418Y-2834763D1*
X-5838381Y-2816513D1*
Y-2810476D1*
X-5844418Y-2792226D1*
X-5856631Y-2780153D1*
X-5874741Y-2774117D1*
X-5880777D1*
X-5899027Y-2780153D1*
X-5911241Y-2792226D1*
X-5917277Y-2810476D1*
X-5776649Y-2755867D2*
Y-2749830D1*
X-5770612Y-2737617D1*
X-5764576Y-2731580D1*
X-5752362Y-2725544D1*
X-5728076D1*
X-5716003Y-2731580D1*
X-5709966Y-2737617D1*
X-5703789Y-2749830D1*
Y-2761903D1*
X-5709966Y-2774117D1*
X-5722039Y-2792226D1*
X-5782826Y-2853013D1*
X-5697753D1*
X-5569337Y-2743653D2*
X-5575374Y-2731580D1*
X-5593624Y-2725544D1*
X-5605697D1*
X-5623947Y-2731580D1*
X-5636161Y-2749830D1*
X-5642197Y-2780153D1*
Y-2810476D1*
X-5636161Y-2834763D1*
X-5623947Y-2846976D1*
X-5605697Y-2853013D1*
X-5599661D1*
X-5581551Y-2846976D1*
X-5569337Y-2834763D1*
X-5563301Y-2816513D1*
Y-2810476D1*
X-5569337Y-2792226D1*
X-5581551Y-2780153D1*
X-5599661Y-2774117D1*
X-5605697D1*
X-5623947Y-2780153D1*
X-5636161Y-2792226D1*
X-5642197Y-2810476D1*
X-5446959Y-2853013D2*
Y-2725544D1*
X-5507745Y-2810476D1*
X-5416636D1*
X-5263794Y-2853013D2*
X-5312507Y-2725403D1*
X-5361080Y-2853013D1*
X-5342830Y-2810476D2*
X-5282044D1*
X-4971306Y-2853013D2*
Y-2725403D1*
X-5019879Y-2853013D1*
X-5068452Y-2725403D1*
Y-2853013D1*
X-4915750Y-2804440D2*
X-4842890D1*
Y-2792226D1*
X-4848927Y-2780013D1*
X-4854964Y-2773976D1*
X-4867177Y-2767940D1*
X-4885427D1*
X-4897500Y-2773976D1*
X-4909714Y-2786190D1*
X-4915750Y-2804440D1*
Y-2816513D1*
X-4909714Y-2834763D1*
X-4897500Y-2846836D1*
X-4885427Y-2853013D1*
X-4867177D1*
X-4854964Y-2846836D1*
X-4842890Y-2834763D1*
X-4787335Y-2767940D2*
Y-2853013D1*
Y-2792226D2*
X-4769085Y-2773976D1*
X-4756871Y-2767940D1*
X-4738762D1*
X-4726548Y-2773976D1*
X-4720512Y-2792226D1*
Y-2853013D1*
Y-2792226D2*
X-4702262Y-2773976D1*
X-4690048Y-2767940D1*
X-4671939D1*
X-4659725Y-2773976D1*
X-4653548Y-2792226D1*
Y-2853013D1*
X-4567670Y-2767940D2*
X-4579743Y-2773976D1*
X-4591956Y-2786190D1*
X-4597993Y-2804440D1*
Y-2816513D1*
X-4591956Y-2834763D1*
X-4579743Y-2846836D1*
X-4567670Y-2853013D1*
X-4549420D1*
X-4537206Y-2846836D1*
X-4525133Y-2834763D1*
X-4518956Y-2816513D1*
Y-2804440D1*
X-4525133Y-2786190D1*
X-4537206Y-2773976D1*
X-4549420Y-2767940D1*
X-4567670D1*
X-4463401D2*
Y-2853013D1*
Y-2804440D2*
X-4457224Y-2786190D1*
X-4445151Y-2773976D1*
X-4432937Y-2767940D1*
X-4414687D1*
X-4352955D2*
X-4316595Y-2853013D1*
X-4328668Y-2877300D1*
X-4340882Y-2889513D1*
X-4352955Y-2895550D1*
X-4359132D1*
X-4280095Y-2767940D2*
X-4316595Y-2853013D1*
X-4084753Y-2725403D2*
Y-2853013D1*
X-4030003D1*
X-4011753Y-2846836D1*
X-4005717Y-2840800D1*
X-3999680Y-2828726D1*
Y-2810476D1*
X-4005717Y-2798263D1*
X-4011753Y-2792226D1*
X-4030003Y-2786190D1*
X-4011753Y-2780013D1*
X-4005717Y-2773976D1*
X-3999680Y-2761903D1*
Y-2749690D1*
X-4005717Y-2737617D1*
X-4011753Y-2731440D1*
X-4030003Y-2725403D1*
X-4084753D1*
Y-2786190D2*
X-4030003D1*
X-3913802Y-2767940D2*
X-3925875Y-2773976D1*
X-3938088Y-2786190D1*
X-3944125Y-2804440D1*
Y-2816513D1*
X-3938088Y-2834763D1*
X-3925875Y-2846836D1*
X-3913802Y-2853013D1*
X-3895552D1*
X-3883338Y-2846836D1*
X-3871265Y-2834763D1*
X-3865088Y-2816513D1*
Y-2804440D1*
X-3871265Y-2786190D1*
X-3883338Y-2773976D1*
X-3895552Y-2767940D1*
X-3913802D1*
X-3736673D2*
Y-2853013D1*
Y-2786190D2*
X-3748746Y-2773976D1*
X-3760959Y-2767940D1*
X-3779069D1*
X-3791283Y-2773976D1*
X-3803356Y-2786190D1*
X-3809533Y-2804440D1*
Y-2816513D1*
X-3803356Y-2834763D1*
X-3791283Y-2846836D1*
X-3779069Y-2853013D1*
X-3760959D1*
X-3748746Y-2846836D1*
X-3736673Y-2834763D1*
X-3681117Y-2767940D2*
Y-2853013D1*
Y-2804440D2*
X-3674940Y-2786190D1*
X-3662867Y-2773976D1*
X-3650654Y-2767940D1*
X-3632404D1*
X-3503989Y-2725403D2*
Y-2853013D1*
Y-2786190D2*
X-3516062Y-2773976D1*
X-3528275Y-2767940D1*
X-3546525D1*
X-3558598Y-2773976D1*
X-3570812Y-2786190D1*
X-3576848Y-2804440D1*
Y-2816513D1*
X-3570812Y-2834763D1*
X-3558598Y-2846836D1*
X-3546525Y-2853013D1*
X-3528275D1*
X-3516062Y-2846836D1*
X-3503989Y-2834763D1*
X-8552215Y4055623D2*
D68*
X-8558252Y4073733D1*
X-8570325Y4079910D1*
X-8582539D1*
X-8594612Y4073733D1*
X-8600789Y4061660D1*
X-8606825Y4037373D1*
X-8612862Y4019123D1*
X-8625075Y4007050D1*
X-8637148Y4001013D1*
X-8655398D1*
X-8667471Y4007050D1*
X-8673648Y4013086D1*
X-8679685Y4031336D1*
Y4055623D1*
X-8673648Y4073733D1*
X-8667471Y4079910D1*
X-8655398Y4085946D1*
X-8637148D1*
X-8625075Y4079910D1*
X-8612862Y4067696D1*
X-8606825Y4049586D1*
X-8600789Y4025300D1*
X-8594612Y4013086D1*
X-8582539Y4007050D1*
X-8570325D1*
X-8558252Y4013086D1*
X-8552215Y4031336D1*
Y4055623D1*
Y3925298D2*
X-8558252Y3943548D1*
X-8576502Y3955761D1*
X-8606825Y3961798D1*
X-8625075D1*
X-8655398Y3955761D1*
X-8673648Y3943548D1*
X-8679685Y3925298D1*
Y3913225D1*
X-8673648Y3894975D1*
X-8655398Y3882902D1*
X-8625075Y3876725D1*
X-8606825D1*
X-8576502Y3882902D1*
X-8558252Y3894975D1*
X-8552215Y3913225D1*
Y3925298D1*
X-8576502Y3882902D2*
X-8655398Y3955761D1*
X-8552215Y3801009D2*
X-8558252Y3819259D1*
X-8576502Y3831472D1*
X-8606825Y3837509D1*
X-8625075D1*
X-8655398Y3831472D1*
X-8673648Y3819259D1*
X-8679685Y3801009D1*
Y3788936D1*
X-8673648Y3770686D1*
X-8655398Y3758613D1*
X-8625075Y3752436D1*
X-8606825D1*
X-8576502Y3758613D1*
X-8558252Y3770686D1*
X-8552215Y3788936D1*
Y3801009D1*
X-8576502Y3758613D2*
X-8655398Y3831472D1*
X-8552215Y3676720D2*
X-8558252Y3694970D1*
X-8576502Y3707184D1*
X-8606825Y3713220D1*
X-8625075D1*
X-8655398Y3707184D1*
X-8673648Y3694970D1*
X-8679685Y3676720D1*
Y3664647D1*
X-8673648Y3646397D1*
X-8655398Y3634324D1*
X-8625075Y3628147D1*
X-8606825D1*
X-8576502Y3634324D1*
X-8558252Y3646397D1*
X-8552215Y3664647D1*
Y3676720D1*
X-8576502Y3634324D2*
X-8655398Y3707184D1*
X-8552075Y3588931D2*
X-8679685D1*
X-8552075Y3503858D2*
X-8679685D1*
X-8612862Y3588931D2*
Y3503858D1*
X-7249039Y4079769D2*
X-7243002D1*
X-7230789Y4073733D1*
X-7224752Y4067696D1*
X-7218715Y4055483D1*
Y4031196D1*
X-7224752Y4019123D1*
X-7230789Y4013086D1*
X-7243002Y4006910D1*
X-7255075D1*
X-7267289Y4013086D1*
X-7285398Y4025160D1*
X-7346185Y4085946D1*
Y4000873D1*
X-7218715Y3925157D2*
X-7224752Y3943407D1*
X-7243002Y3955621D1*
X-7273325Y3961657D1*
X-7291575D1*
X-7321898Y3955621D1*
X-7340148Y3943407D1*
X-7346185Y3925157D1*
Y3913084D1*
X-7340148Y3894834D1*
X-7321898Y3882761D1*
X-7291575Y3876584D1*
X-7273325D1*
X-7243002Y3882761D1*
X-7224752Y3894834D1*
X-7218715Y3913084D1*
Y3925157D1*
X-7243002Y3882761D2*
X-7321898Y3955621D1*
X-7218715Y3800869D2*
X-7224752Y3819119D1*
X-7243002Y3831332D1*
X-7273325Y3837369D1*
X-7291575D1*
X-7321898Y3831332D1*
X-7340148Y3819119D1*
X-7346185Y3800869D1*
Y3788795D1*
X-7340148Y3770545D1*
X-7321898Y3758472D1*
X-7291575Y3752295D1*
X-7273325D1*
X-7243002Y3758472D1*
X-7224752Y3770545D1*
X-7218715Y3788795D1*
Y3800869D1*
X-7243002Y3758472D2*
X-7321898Y3831332D1*
X-7218715Y3676580D2*
X-7224752Y3694830D1*
X-7243002Y3707043D1*
X-7273325Y3713080D1*
X-7291575D1*
X-7321898Y3707043D1*
X-7340148Y3694830D1*
X-7346185Y3676580D1*
Y3664507D1*
X-7340148Y3646257D1*
X-7321898Y3634184D1*
X-7291575Y3628007D1*
X-7273325D1*
X-7243002Y3634184D1*
X-7224752Y3646257D1*
X-7218715Y3664507D1*
Y3676580D1*
X-7243002Y3634184D2*
X-7321898Y3707043D1*
X-7218575Y3588791D2*
X-7346185D1*
X-7218575Y3503718D2*
X-7346185D1*
X-7279362Y3588791D2*
Y3503718D1*
X-6838185Y3988660D2*
X-6710575Y4037373D1*
X-6838185Y4085946D1*
X-6795648Y4067696D2*
Y4006910D1*
X-6710715Y3912944D2*
X-6716752Y3931194D1*
X-6735002Y3943407D1*
X-6765325Y3949444D1*
X-6783575D1*
X-6813898Y3943407D1*
X-6832148Y3931194D1*
X-6838185Y3912944D1*
Y3900871D1*
X-6832148Y3882621D1*
X-6813898Y3870548D1*
X-6783575Y3864371D1*
X-6765325D1*
X-6735002Y3870548D1*
X-6716752Y3882621D1*
X-6710715Y3900871D1*
Y3912944D1*
X-6735002Y3870548D2*
X-6813898Y3943407D1*
X-6710715Y3788655D2*
X-6716752Y3806905D1*
X-6735002Y3819119D1*
X-6765325Y3825155D1*
X-6783575D1*
X-6813898Y3819119D1*
X-6832148Y3806905D1*
X-6838185Y3788655D1*
Y3776582D1*
X-6832148Y3758332D1*
X-6813898Y3746259D1*
X-6783575Y3740082D1*
X-6765325D1*
X-6735002Y3746259D1*
X-6716752Y3758332D1*
X-6710715Y3776582D1*
Y3788655D1*
X-6735002Y3746259D2*
X-6813898Y3819119D1*
X-6710715Y3664366D2*
X-6716752Y3682616D1*
X-6735002Y3694830D1*
X-6765325Y3700866D1*
X-6783575D1*
X-6813898Y3694830D1*
X-6832148Y3682616D1*
X-6838185Y3664366D1*
Y3652293D1*
X-6832148Y3634043D1*
X-6813898Y3621970D1*
X-6783575Y3615793D1*
X-6765325D1*
X-6735002Y3621970D1*
X-6716752Y3634043D1*
X-6710715Y3652293D1*
Y3664366D1*
X-6735002Y3621970D2*
X-6813898Y3694830D1*
X-6710575Y3576578D2*
X-6838185D1*
X-6710575Y3491504D2*
X-6838185D1*
X-6771362Y3576578D2*
Y3491504D1*
X-5568185Y4056910D2*
X-5440715D1*
X-5525648Y4117696D1*
Y4026586D1*
X-5440715Y3950871D2*
X-5446752Y3969121D1*
X-5465002Y3981334D1*
X-5495325Y3987371D1*
X-5513575D1*
X-5543898Y3981334D1*
X-5562148Y3969121D1*
X-5568185Y3950871D1*
Y3938798D1*
X-5562148Y3920548D1*
X-5543898Y3908475D1*
X-5513575Y3902298D1*
X-5495325D1*
X-5465002Y3908475D1*
X-5446752Y3920548D1*
X-5440715Y3938798D1*
Y3950871D1*
X-5465002Y3908475D2*
X-5543898Y3981334D1*
X-5440715Y3826582D2*
X-5446752Y3844832D1*
X-5465002Y3857045D1*
X-5495325Y3863082D1*
X-5513575D1*
X-5543898Y3857045D1*
X-5562148Y3844832D1*
X-5568185Y3826582D1*
Y3814509D1*
X-5562148Y3796259D1*
X-5543898Y3784186D1*
X-5513575Y3778009D1*
X-5495325D1*
X-5465002Y3784186D1*
X-5446752Y3796259D1*
X-5440715Y3814509D1*
Y3826582D1*
X-5465002Y3784186D2*
X-5543898Y3857045D1*
X-5440715Y3702293D2*
X-5446752Y3720543D1*
X-5465002Y3732757D1*
X-5495325Y3738793D1*
X-5513575D1*
X-5543898Y3732757D1*
X-5562148Y3720543D1*
X-5568185Y3702293D1*
Y3690220D1*
X-5562148Y3671970D1*
X-5543898Y3659897D1*
X-5513575Y3653720D1*
X-5495325D1*
X-5465002Y3659897D1*
X-5446752Y3671970D1*
X-5440715Y3690220D1*
Y3702293D1*
X-5465002Y3659897D2*
X-5543898Y3732757D1*
X-5440575Y3614504D2*
X-5568185D1*
X-5440575Y3529431D2*
X-5568185D1*
X-5501362Y3614504D2*
Y3529431D1*
X-4962898Y4026586D2*
X-4950825Y4032623D1*
X-4938612Y4044836D1*
X-4932575Y4056910D1*
Y4081196D1*
X-4938612Y4093410D1*
X-4950825Y4105483D1*
X-4962898Y4111660D1*
X-4981148Y4117696D1*
X-5011612D1*
X-5029721Y4111660D1*
X-5041935Y4105483D1*
X-5054008Y4093410D1*
X-5060185Y4081196D1*
Y4056910D1*
X-5054008Y4044836D1*
X-5041935Y4032623D1*
X-5029721Y4026586D1*
X-4932715Y3950871D2*
X-4938752Y3969121D1*
X-4957002Y3981334D1*
X-4987325Y3987371D1*
X-5005575D1*
X-5035898Y3981334D1*
X-5054148Y3969121D1*
X-5060185Y3950871D1*
Y3938798D1*
X-5054148Y3920548D1*
X-5035898Y3908475D1*
X-5005575Y3902298D1*
X-4987325D1*
X-4957002Y3908475D1*
X-4938752Y3920548D1*
X-4932715Y3938798D1*
Y3950871D1*
X-4957002Y3908475D2*
X-5035898Y3981334D1*
X-4932715Y3826582D2*
X-4938752Y3844832D1*
X-4957002Y3857045D1*
X-4987325Y3863082D1*
X-5005575D1*
X-5035898Y3857045D1*
X-5054148Y3844832D1*
X-5060185Y3826582D1*
Y3814509D1*
X-5054148Y3796259D1*
X-5035898Y3784186D1*
X-5005575Y3778009D1*
X-4987325D1*
X-4957002Y3784186D1*
X-4938752Y3796259D1*
X-4932715Y3814509D1*
Y3826582D1*
X-4957002Y3784186D2*
X-5035898Y3857045D1*
X-4932715Y3702293D2*
X-4938752Y3720543D1*
X-4957002Y3732757D1*
X-4987325Y3738793D1*
X-5005575D1*
X-5035898Y3732757D1*
X-5054148Y3720543D1*
X-5060185Y3702293D1*
Y3690220D1*
X-5054148Y3671970D1*
X-5035898Y3659897D1*
X-5005575Y3653720D1*
X-4987325D1*
X-4957002Y3659897D1*
X-4938752Y3671970D1*
X-4932715Y3690220D1*
Y3702293D1*
X-4957002Y3659897D2*
X-5035898Y3732757D1*
X-4932575Y3614504D2*
X-5060185D1*
X-4932575Y3529431D2*
X-5060185D1*
X-4993362Y3614504D2*
Y3529431D1*
X-3744325Y4044836D2*
X-3732252Y4050873D1*
X-3726215Y4069123D1*
Y4081196D1*
X-3732252Y4099446D1*
X-3750502Y4111660D1*
X-3780825Y4117696D1*
X-3811148D1*
X-3835435Y4111660D1*
X-3847648Y4099446D1*
X-3853685Y4081196D1*
Y4075160D1*
X-3847648Y4057050D1*
X-3835435Y4044836D1*
X-3817185Y4038800D1*
X-3811148D1*
X-3792898Y4044836D1*
X-3780825Y4057050D1*
X-3774789Y4075160D1*
Y4081196D1*
X-3780825Y4099446D1*
X-3792898Y4111660D1*
X-3811148Y4117696D1*
X-3726215Y3963084D2*
X-3732252Y3981334D1*
X-3750502Y3993548D1*
X-3780825Y3999584D1*
X-3799075D1*
X-3829398Y3993548D1*
X-3847648Y3981334D1*
X-3853685Y3963084D1*
Y3951011D1*
X-3847648Y3932761D1*
X-3829398Y3920688D1*
X-3799075Y3914511D1*
X-3780825D1*
X-3750502Y3920688D1*
X-3732252Y3932761D1*
X-3726215Y3951011D1*
Y3963084D1*
X-3750502Y3920688D2*
X-3829398Y3993548D1*
X-3726215Y3838795D2*
X-3732252Y3857045D1*
X-3750502Y3869259D1*
X-3780825Y3875295D1*
X-3799075D1*
X-3829398Y3869259D1*
X-3847648Y3857045D1*
X-3853685Y3838795D1*
Y3826722D1*
X-3847648Y3808472D1*
X-3829398Y3796399D1*
X-3799075Y3790222D1*
X-3780825D1*
X-3750502Y3796399D1*
X-3732252Y3808472D1*
X-3726215Y3826722D1*
Y3838795D1*
X-3750502Y3796399D2*
X-3829398Y3869259D1*
X-3726215Y3714507D2*
X-3732252Y3732757D1*
X-3750502Y3744970D1*
X-3780825Y3751007D1*
X-3799075D1*
X-3829398Y3744970D1*
X-3847648Y3732757D1*
X-3853685Y3714507D1*
Y3702434D1*
X-3847648Y3684184D1*
X-3829398Y3672111D1*
X-3799075Y3665934D1*
X-3780825D1*
X-3750502Y3672111D1*
X-3732252Y3684184D1*
X-3726215Y3702434D1*
Y3714507D1*
X-3750502Y3672111D2*
X-3829398Y3744970D1*
X-3726075Y3626718D2*
X-3853685D1*
X-3726075Y3541645D2*
X-3853685D1*
X-3786862Y3626718D2*
Y3541645D1*
X-3218075Y4038800D2*
Y4117696D1*
X-3345685D1*
Y4038800D1*
X-3278862Y4117696D2*
Y4069123D1*
X-3218215Y3963084D2*
X-3224252Y3981334D1*
X-3242502Y3993548D1*
X-3272825Y3999584D1*
X-3291075D1*
X-3321398Y3993548D1*
X-3339648Y3981334D1*
X-3345685Y3963084D1*
Y3951011D1*
X-3339648Y3932761D1*
X-3321398Y3920688D1*
X-3291075Y3914511D1*
X-3272825D1*
X-3242502Y3920688D1*
X-3224252Y3932761D1*
X-3218215Y3951011D1*
Y3963084D1*
X-3242502Y3920688D2*
X-3321398Y3993548D1*
X-3218215Y3838795D2*
X-3224252Y3857045D1*
X-3242502Y3869259D1*
X-3272825Y3875295D1*
X-3291075D1*
X-3321398Y3869259D1*
X-3339648Y3857045D1*
X-3345685Y3838795D1*
Y3826722D1*
X-3339648Y3808472D1*
X-3321398Y3796399D1*
X-3291075Y3790222D1*
X-3272825D1*
X-3242502Y3796399D1*
X-3224252Y3808472D1*
X-3218215Y3826722D1*
Y3838795D1*
X-3242502Y3796399D2*
X-3321398Y3869259D1*
X-3218215Y3714507D2*
X-3224252Y3732757D1*
X-3242502Y3744970D1*
X-3272825Y3751007D1*
X-3291075D1*
X-3321398Y3744970D1*
X-3339648Y3732757D1*
X-3345685Y3714507D1*
Y3702434D1*
X-3339648Y3684184D1*
X-3321398Y3672111D1*
X-3291075Y3665934D1*
X-3272825D1*
X-3242502Y3672111D1*
X-3224252Y3684184D1*
X-3218215Y3702434D1*
Y3714507D1*
X-3242502Y3672111D2*
X-3321398Y3744970D1*
X-3218075Y3626718D2*
X-3345685D1*
X-3218075Y3541645D2*
X-3345685D1*
X-3278862Y3626718D2*
Y3541645D1*
X-7504164Y-2243535D2*
X-7516237Y-2249571D1*
X-7528450Y-2261785D1*
X-7534487Y-2273858D1*
Y-2298144D1*
X-7528450Y-2310358D1*
X-7516237Y-2322431D1*
X-7504164Y-2328608D1*
X-7485914Y-2334644D1*
X-7455450D1*
X-7437340Y-2328608D1*
X-7425127Y-2322431D1*
X-7413054Y-2310358D1*
X-7406877Y-2298144D1*
Y-2273858D1*
X-7413054Y-2261785D1*
X-7425127Y-2249571D1*
X-7437340Y-2243535D1*
X-7510060Y-2204319D2*
X-7516237Y-2192106D1*
X-7534346Y-2173856D1*
X-7406877D1*
X-8301910Y3038617D2*
X-8295874Y3026544D1*
X-8283660Y3014331D1*
X-8271587Y3008294D1*
X-8247301D1*
X-8235087Y3014331D1*
X-8223014Y3026544D1*
X-8216837Y3038617D1*
X-8210801Y3056867D1*
Y3087331D1*
X-8216837Y3105440D1*
X-8223014Y3117654D1*
X-8235087Y3129727D1*
X-8247301Y3135904D1*
X-8271587D1*
X-8283660Y3129727D1*
X-8295874Y3117654D1*
X-8301910Y3105440D1*
X-8347303Y3038758D2*
Y3032721D1*
X-8353340Y3020508D1*
X-8359376Y3014471D1*
X-8371590Y3008435D1*
X-8395876D1*
X-8407949Y3014471D1*
X-8413986Y3020508D1*
X-8420163Y3032721D1*
Y3044794D1*
X-8413986Y3057008D1*
X-8401913Y3075117D1*
X-8341126Y3135904D1*
X-8426199D1*
X-6523910Y3038617D2*
X-6517874Y3026544D1*
X-6505660Y3014331D1*
X-6493587Y3008294D1*
X-6469301D1*
X-6457087Y3014331D1*
X-6445014Y3026544D1*
X-6438837Y3038617D1*
X-6432801Y3056867D1*
Y3087331D1*
X-6438837Y3105440D1*
X-6445014Y3117654D1*
X-6457087Y3129727D1*
X-6469301Y3135904D1*
X-6493587D1*
X-6505660Y3129727D1*
X-6517874Y3117654D1*
X-6523910Y3105440D1*
X-6575340Y3008435D2*
X-6642022D1*
X-6605663Y3057008D1*
X-6623913D1*
X-6635986Y3063044D1*
X-6642022Y3069081D1*
X-6648199Y3087331D1*
Y3099404D1*
X-6642022Y3117654D1*
X-6629949Y3129867D1*
X-6611699Y3135904D1*
X-6593449D1*
X-6575340Y3129867D1*
X-6569303Y3123690D1*
X-6563126Y3111617D1*
X-4742892Y3038617D2*
X-4736856Y3026544D1*
X-4724642Y3014331D1*
X-4712569Y3008294D1*
X-4688283D1*
X-4676069Y3014331D1*
X-4663996Y3026544D1*
X-4657819Y3038617D1*
X-4651783Y3056867D1*
Y3087331D1*
X-4657819Y3105440D1*
X-4663996Y3117654D1*
X-4676069Y3129727D1*
X-4688283Y3135904D1*
X-4712569D1*
X-4724642Y3129727D1*
X-4736856Y3117654D1*
X-4742892Y3105440D1*
X-4842894Y3135904D2*
Y3008435D1*
X-4782108Y3093367D1*
X-4873217D1*
X-2967910Y3038617D2*
X-2961874Y3026544D1*
X-2949660Y3014331D1*
X-2937587Y3008294D1*
X-2913301D1*
X-2901087Y3014331D1*
X-2889014Y3026544D1*
X-2882837Y3038617D1*
X-2876801Y3056867D1*
Y3087331D1*
X-2882837Y3105440D1*
X-2889014Y3117654D1*
X-2901087Y3129727D1*
X-2913301Y3135904D1*
X-2937587D1*
X-2949660Y3129727D1*
X-2961874Y3117654D1*
X-2967910Y3105440D1*
X-3079986Y3008435D2*
X-3019340D1*
X-3013303Y3063044D1*
X-3019340Y3057008D1*
X-3037590Y3050831D1*
X-3055699D1*
X-3073949Y3057008D1*
X-3086163Y3069081D1*
X-3092199Y3087331D1*
Y3099404D1*
X-3086163Y3117654D1*
X-3073949Y3129867D1*
X-3055699Y3135904D1*
X-3037590D1*
X-3019340Y3129867D1*
X-3013303Y3123690D1*
X-3007126Y3111617D1*
X-1369436Y1121240D2*
X-1459670Y1031006D1*
X-1429592Y1000929D1*
X-1412320Y992392D1*
X-1395146Y992292D1*
X-1382242Y996660D1*
X-1365168Y1005197D1*
X-1343627Y1026738D1*
X-1334991Y1043911D1*
X-1330722Y1056717D1*
Y1073989D1*
X-1339358Y1091162D1*
X-1369436Y1121240D1*
X-1298823Y1016082D2*
X-1285819Y1011814D1*
X-1260109Y1011714D1*
X-1350244Y921580D1*
X-299244Y-2281554D2*
X-396390D1*
X-414640Y-2275517D1*
X-420677Y-2269340D1*
X-426854Y-2257267D1*
Y-2245054D1*
X-420677Y-2232981D1*
X-414640Y-2226944D1*
X-396390Y-2220767D1*
X-384317D1*
X-323671Y-2320769D2*
X-317494Y-2332983D1*
X-299385Y-2351233D1*
X-426854D1*
X-299244Y2698751D2*
X-396390D1*
X-414640Y2704788D1*
X-420677Y2710965D1*
X-426854Y2723038D1*
Y2735251D1*
X-420677Y2747324D1*
X-414640Y2753361D1*
X-396390Y2759538D1*
X-384317D1*
X-329708Y2653359D2*
X-323671D1*
X-311458Y2647322D1*
X-305421Y2641285D1*
X-299385Y2629072D1*
Y2604785D1*
X-305421Y2592712D1*
X-311458Y2586676D1*
X-323671Y2580499D1*
X-335744D1*
X-347958Y2586676D1*
X-366067Y2598749D1*
X-426854Y2659535D1*
Y2574462D1*
X-8026513Y-2105749D2*
X-8123660D1*
X-8141910Y-2099712D1*
X-8147946Y-2093535D1*
X-8154123Y-2081462D1*
Y-2069249D1*
X-8147946Y-2057176D1*
X-8141910Y-2051139D1*
X-8123660Y-2044962D1*
X-8111586D1*
X-8026654Y-2157178D2*
Y-2223861D1*
X-8075227Y-2187501D1*
Y-2205751D1*
X-8081263Y-2217824D1*
X-8087300Y-2223861D1*
X-8105550Y-2230038D1*
X-8117623D1*
X-8135873Y-2223861D1*
X-8148086Y-2211788D1*
X-8154123Y-2193538D1*
Y-2175288D1*
X-8148086Y-2157178D1*
X-8141910Y-2151141D1*
X-8129836Y-2144965D1*
X-8956591Y4630987D2*
Y4533840D1*
X-8962627Y4515590D1*
X-8968804Y4509554D1*
X-8980877Y4503377D1*
X-8993091D1*
X-9005164Y4509554D1*
X-9011200Y4515590D1*
X-9017377Y4533840D1*
Y4545914D1*
X-8917375Y4564164D2*
X-8862625D1*
X-8844515Y4570200D1*
X-8838338Y4576377D1*
X-8832302Y4588450D1*
Y4606700D1*
X-8838338Y4618773D1*
X-8844515Y4624950D1*
X-8862625Y4630987D1*
X-8917375D1*
Y4503377D1*
X-8793086Y4606560D2*
X-8780873Y4612737D1*
X-8762623Y4630846D1*
Y4503377D1*
X-7142395Y4630987D2*
Y4533840D1*
X-7148432Y4515590D1*
X-7154609Y4509554D1*
X-7166682Y4503377D1*
X-7178895D1*
X-7190969Y4509554D1*
X-7197005Y4515590D1*
X-7203182Y4533840D1*
Y4545914D1*
X-7103180Y4564164D2*
X-7048430D1*
X-7030320Y4570200D1*
X-7024143Y4576377D1*
X-7018107Y4588450D1*
Y4606700D1*
X-7024143Y4618773D1*
X-7030320Y4624950D1*
X-7048430Y4630987D1*
X-7103180D1*
Y4503377D1*
X-6972714Y4600523D2*
Y4606560D1*
X-6966678Y4618773D1*
X-6960641Y4624810D1*
X-6948428Y4630846D1*
X-6924141D1*
X-6912068Y4624810D1*
X-6906031Y4618773D1*
X-6899855Y4606560D1*
Y4594487D1*
X-6906031Y4582273D1*
X-6918105Y4564164D1*
X-6978891Y4503377D1*
X-6893818D1*
X-5364395Y4630987D2*
Y4533840D1*
X-5370432Y4515590D1*
X-5376609Y4509554D1*
X-5388682Y4503377D1*
X-5400895D1*
X-5412969Y4509554D1*
X-5419005Y4515590D1*
X-5425182Y4533840D1*
Y4545914D1*
X-5325180Y4564164D2*
X-5270430D1*
X-5252320Y4570200D1*
X-5246143Y4576377D1*
X-5240107Y4588450D1*
Y4606700D1*
X-5246143Y4618773D1*
X-5252320Y4624950D1*
X-5270430Y4630987D1*
X-5325180D1*
Y4503377D1*
X-5188678Y4630846D2*
X-5121995D1*
X-5158355Y4582273D1*
X-5140105D1*
X-5128031Y4576237D1*
X-5121995Y4570200D1*
X-5115818Y4551950D1*
Y4539877D1*
X-5121995Y4521627D1*
X-5134068Y4509414D1*
X-5152318Y4503377D1*
X-5170568D1*
X-5188678Y4509414D1*
X-5194714Y4515590D1*
X-5200891Y4527664D1*
X-3652914Y4630987D2*
Y4533840D1*
X-3658950Y4515590D1*
X-3665127Y4509554D1*
X-3677200Y4503377D1*
X-3689414D1*
X-3701487Y4509554D1*
X-3707523Y4515590D1*
X-3713700Y4533840D1*
Y4545914D1*
X-3613698Y4564164D2*
X-3558948D1*
X-3540838Y4570200D1*
X-3534662Y4576377D1*
X-3528625Y4588450D1*
Y4606700D1*
X-3534662Y4618773D1*
X-3540838Y4624950D1*
X-3558948Y4630987D1*
X-3613698D1*
Y4503377D1*
X-3428623D2*
Y4630846D1*
X-3489409Y4545914D1*
X-3398300D1*
X-8879704Y621123D2*
X-8788595Y621124D1*
X-8770345Y627161D1*
X-8758272Y639375D1*
X-8752095Y657625D1*
X-8752096Y669698D1*
X-8758273Y687948D1*
X-8770346Y700161D1*
X-8788596Y706197D1*
X-8879706Y706196D1*
X-8855280Y745412D2*
X-8861457Y757625D1*
X-8879567Y775875D1*
X-8752098Y775877D1*
X-7101704Y593818D2*
X-7010594Y593819D1*
X-6992344Y599856D1*
X-6980271Y612070D1*
X-6974095Y630320D1*
Y642393D1*
X-6980272Y660643D1*
X-6992346Y672856D1*
X-7010596Y678893D1*
X-7101705Y678891D1*
X-7071243Y724284D2*
X-7077279D1*
X-7089493Y730320D1*
X-7095530Y736357D1*
X-7101566Y748570D1*
X-7101567Y772857D1*
X-7095530Y784930D1*
X-7089494Y790966D1*
X-7077281Y797144D1*
X-7065208D1*
X-7052994Y790967D1*
X-7034884Y778894D1*
X-6974097Y718109D1*
X-6974098Y803182D1*
X-5323704Y593818D2*
X-5232594Y593819D1*
X-5214344Y599856D1*
X-5202271Y612070D1*
X-5196095Y630320D1*
Y642393D1*
X-5202272Y660643D1*
X-5214346Y672856D1*
X-5232596Y678893D1*
X-5323705Y678891D1*
X-5323566Y730320D2*
X-5323567Y797003D1*
X-5274993Y760644D1*
X-5274994Y778894D1*
X-5268957Y790967D1*
X-5262921Y797004D1*
X-5244671Y803181D1*
X-5232598D1*
X-5214348Y797005D1*
X-5202134Y784932D1*
X-5196097Y766682D1*
Y748432D1*
X-5202133Y730322D1*
X-5208310Y724286D1*
X-5220383Y718108D1*
X-3545706Y590801D2*
X-3454596D1*
X-3436346Y596837D1*
X-3424273Y609051D1*
X-3418096Y627301D1*
Y639374D1*
X-3424273Y657624D1*
X-3436346Y669837D1*
X-3454596Y675874D1*
X-3545706D1*
X-3418096Y775876D2*
X-3545565D1*
X-3460633Y715090D1*
Y806199D1*
M02*
