G04 DipTrace 4.3.0.5*
G04 1 - Top.gbr*
%MOMM*%
G04 #@! TF.FileFunction,Copper,L1,Top*
G04 #@! TF.Part,Single*
G04 #@! TA.AperFunction,Conductor*
%ADD17C,0.3302*%
%ADD18C,1.2*%
G04 #@! TA.AperFunction,ComponentPad*
%ADD24C,1.7*%
%ADD25R,1.5X1.5*%
%ADD26C,1.5*%
%ADD27R,2.0X2.0*%
%ADD28C,2.0*%
%ADD29C,4.0*%
%FSLAX35Y35*%
G04*
G71*
G90*
G75*
G01*
G04 Top*
%LPD*%
X3556000Y0D2*
D18*
Y254000D1*
Y685123D1*
Y939123D1*
Y1193127D1*
Y2145627D1*
Y2653627D1*
Y2907627D1*
Y4114127D1*
Y4622127D1*
Y4876127D1*
Y6082627D1*
Y6590627D1*
Y6844627D1*
Y8051123D1*
Y8559127D1*
Y8813127D1*
Y9229877D1*
Y9483877D1*
X-1397000Y6463627D2*
Y6096000D1*
Y4495127D1*
Y4114127D1*
Y2526623D1*
Y2159000D1*
Y1193127D1*
Y812127D1*
Y224750D1*
X0Y9483877D2*
Y9229877D1*
Y8813127D2*
Y8559127D1*
Y6844627D1*
Y6590627D1*
Y4876127D1*
Y4622127D1*
Y2907627D1*
Y2653627D1*
Y939123D1*
Y685123D1*
Y254000D1*
Y0D1*
Y685123D2*
X-13377D1*
X-127000Y571500D1*
X-1206500D1*
X-1397000Y762000D1*
Y812127D1*
X0Y2907627D2*
X-1015997D1*
X-1397000Y2526623D1*
X0Y4876127D2*
X-1016000D1*
X-1397000Y4495127D1*
X0Y6844627D2*
X-1016000D1*
X-1397000Y6463627D1*
X0Y8813127D2*
X-1016000D1*
X-1397000Y8432127D1*
Y9225877D1*
Y8432127D2*
Y8051123D1*
Y7225627D1*
Y6463627D1*
X0Y9229877D2*
Y8813127D1*
X-1397000Y8051123D2*
D17*
D3*
Y6096000D2*
D3*
Y4114127D2*
D3*
Y2159000D2*
D3*
Y1193127D2*
D3*
X254000Y8559127D2*
X381000Y8432127D1*
Y6717627D1*
X254000Y6590627D1*
X381000Y6463627D1*
Y4749127D1*
X254000Y4622127D1*
X381000Y4495127D1*
Y2780627D1*
X254000Y2653627D1*
X381000Y2526627D1*
Y812123D1*
X254000Y685123D1*
X381000Y558123D1*
Y129500D1*
X254000Y2500D1*
Y0D1*
Y8559127D2*
X381000Y8686127D1*
Y9102877D1*
X254000Y9229877D1*
X508000D2*
X565000D1*
X635000Y9159873D1*
Y8686127D1*
X508000Y8559127D1*
X635000Y8432123D1*
Y6717627D1*
X508000Y6590627D1*
X635000Y6463623D1*
Y4749127D1*
X508000Y4622127D1*
X635000Y4495123D1*
Y2780627D1*
X508000Y2653627D1*
X635000Y2526623D1*
Y812123D1*
X508000Y685123D1*
X635000Y558120D1*
Y127000D1*
X508000Y0D1*
X762000Y9229877D2*
Y9223373D1*
X889000Y9096377D1*
Y8686127D1*
X762000Y8559127D1*
X889000Y8432127D1*
Y6717627D1*
X762000Y6590627D1*
X889000Y6463627D1*
Y4749127D1*
X762000Y4622127D1*
X889000Y4495127D1*
Y2780627D1*
X762000Y2653627D1*
X889000Y2526627D1*
Y812123D1*
X762000Y685123D1*
X889000Y558123D1*
Y127000D1*
X762000Y0D1*
X1016000Y9229877D2*
Y9223373D1*
X1143000Y9096377D1*
Y8686127D1*
X1016000Y8559127D1*
X1143000Y8432127D1*
Y6717627D1*
X1016000Y6590627D1*
X1143000Y6463627D1*
Y4749127D1*
X1016000Y4622127D1*
X1143000Y4495127D1*
Y2780627D1*
X1016000Y2653627D1*
X1143000Y2526627D1*
Y812123D1*
X1016000Y685123D1*
X1143000Y558123D1*
Y127000D1*
X1016000Y0D1*
X1270000Y9229877D2*
Y9223377D1*
X1397000Y9096377D1*
Y8686127D1*
X1270000Y8559127D1*
X1397000Y8432123D1*
Y6717627D1*
X1270000Y6590627D1*
X1397000Y6463623D1*
Y4749127D1*
X1270000Y4622127D1*
X1397000Y4495123D1*
Y2780627D1*
X1270000Y2653627D1*
X1397000Y2526623D1*
Y812123D1*
X1270000Y685123D1*
X1397000Y558120D1*
Y127000D1*
X1270000Y0D1*
X1524000Y9229877D2*
Y9223373D1*
X1651000Y9096377D1*
Y8686127D1*
X1524000Y8559127D1*
X1651000Y8432127D1*
Y6717627D1*
X1524000Y6590627D1*
X1651000Y6463627D1*
Y4749127D1*
X1524000Y4622127D1*
X1651000Y4495127D1*
Y2780627D1*
X1524000Y2653627D1*
X1651000Y2526627D1*
Y812123D1*
X1524000Y685123D1*
X1651000Y558123D1*
Y127000D1*
X1524000Y0D1*
X1778000Y9229877D2*
Y9223373D1*
X1905000Y9096377D1*
Y8686127D1*
X1778000Y8559127D1*
X1905000Y8432127D1*
Y6717627D1*
X1778000Y6590627D1*
X1905000Y6463627D1*
Y4749127D1*
X1778000Y4622127D1*
X1905000Y4495127D1*
Y2780627D1*
X1778000Y2653627D1*
X1905000Y2526627D1*
Y812123D1*
X1778000Y685123D1*
X1905000Y558123D1*
Y127000D1*
X1778000Y0D1*
X2032000Y9229877D2*
Y9223377D1*
X2159000Y9096377D1*
Y8686127D1*
X2032000Y8559127D1*
X2159000Y8432123D1*
Y6717627D1*
X2032000Y6590627D1*
X2159000Y6463623D1*
Y4749127D1*
X2032000Y4622127D1*
X2159000Y4495123D1*
Y2780627D1*
X2032000Y2653627D1*
X2159000Y2526623D1*
Y812123D1*
X2032000Y685123D1*
X2159000Y558120D1*
Y127000D1*
X2032000Y0D1*
X2286000Y9229877D2*
Y9223373D1*
X2413000Y9096377D1*
Y8686127D1*
X2286000Y8559127D1*
X2413000Y8432127D1*
Y6717627D1*
X2286000Y6590627D1*
X2413000Y6463627D1*
Y4749127D1*
X2286000Y4622127D1*
X2413000Y4495127D1*
Y2780627D1*
X2286000Y2653627D1*
X2413000Y2526627D1*
Y812123D1*
X2286000Y685123D1*
X2413000Y558123D1*
Y127000D1*
X2286000Y0D1*
X2540000Y9229877D2*
Y9223373D1*
X2667000Y9096377D1*
Y8686127D1*
X2540000Y8559127D1*
X2667000Y8432127D1*
Y6717627D1*
X2540000Y6590627D1*
X2667000Y6463627D1*
Y4749127D1*
X2540000Y4622127D1*
Y4556123D1*
X2667000Y4429123D1*
Y2780627D1*
X2540000Y2653627D1*
X2667000Y2526627D1*
Y812123D1*
X2540000Y685123D1*
X2667000Y558123D1*
Y127000D1*
X2540000Y0D1*
X2794000Y9229877D2*
Y9223377D1*
X2921000Y9096377D1*
Y8686127D1*
X2794000Y8559127D1*
X2921000Y8432123D1*
Y6717627D1*
X2794000Y6590627D1*
X2921000Y6463623D1*
Y4749127D1*
X2794000Y4622127D1*
X2921000Y4495123D1*
Y2780627D1*
X2794000Y2653627D1*
X2921000Y2526623D1*
Y812123D1*
X2794000Y685123D1*
X2921000Y558120D1*
Y127000D1*
X2794000Y0D1*
X3048000Y9229877D2*
Y9223373D1*
X3175000Y9096377D1*
Y8686127D1*
X3048000Y8559127D1*
X3175000Y8432127D1*
Y6717627D1*
X3048000Y6590627D1*
X3175000Y6463627D1*
Y4749127D1*
X3048000Y4622127D1*
X3175000Y4495127D1*
Y2780627D1*
X3048000Y2653627D1*
X3175000Y2526627D1*
Y812123D1*
X3048000Y685123D1*
X3175000Y558123D1*
Y127000D1*
X3048000Y0D1*
X3302000Y9229877D2*
Y9223373D1*
X3429000Y9096377D1*
Y8686127D1*
X3302000Y8559127D1*
X3429000Y8432127D1*
Y6717627D1*
X3302000Y6590627D1*
X3429000Y6463627D1*
Y4749127D1*
X3302000Y4622127D1*
X3429000Y4495127D1*
Y2780627D1*
X3302000Y2653627D1*
X3429000Y2526627D1*
Y812123D1*
X3302000Y685123D1*
X3429000Y558123D1*
Y127000D1*
X3302000Y0D1*
D24*
X0Y9229877D3*
Y9483877D3*
X254000Y9229877D3*
Y9483877D3*
X508000Y9229877D3*
Y9483877D3*
X762000Y9229877D3*
Y9483877D3*
X1016000Y9229877D3*
Y9483877D3*
X1270000Y9229877D3*
Y9483877D3*
X1524000Y9229877D3*
Y9483877D3*
X1778000Y9229877D3*
Y9483877D3*
X2032000Y9229877D3*
Y9483877D3*
X2286000Y9229877D3*
Y9483877D3*
X2540000Y9229877D3*
Y9483877D3*
X2794000Y9229877D3*
Y9483877D3*
X3048000Y9229877D3*
Y9483877D3*
X3302000Y9229877D3*
Y9483877D3*
X3556000Y9229877D3*
Y9483877D3*
D25*
X-1397000Y7225627D3*
D24*
X0Y8559127D3*
Y8813127D3*
X254000Y8559127D3*
Y8813127D3*
X508000Y8559127D3*
Y8813127D3*
X762000Y8559127D3*
Y8813127D3*
X1016000Y8559127D3*
Y8813127D3*
X1270000Y8559127D3*
Y8813127D3*
X1524000Y8559127D3*
Y8813127D3*
X1778000Y8559127D3*
Y8813127D3*
X2032000Y8559127D3*
Y8813127D3*
X2286000Y8559127D3*
Y8813127D3*
X2540000Y8559127D3*
Y8813127D3*
X2794000Y8559127D3*
Y8813127D3*
X3048000Y8559127D3*
Y8813127D3*
X3302000Y8559127D3*
Y8813127D3*
X3556000Y8559127D3*
Y8813127D3*
X0Y6590627D3*
Y6844627D3*
X254000Y6590627D3*
Y6844627D3*
X508000Y6590627D3*
Y6844627D3*
X762000Y6590627D3*
Y6844627D3*
X1016000Y6590627D3*
Y6844627D3*
X1270000Y6590627D3*
Y6844627D3*
X1524000Y6590627D3*
Y6844627D3*
X1778000Y6590627D3*
Y6844627D3*
X2032000Y6590627D3*
Y6844627D3*
X2286000Y6590627D3*
Y6844627D3*
X2540000Y6590627D3*
Y6844627D3*
X2794000Y6590627D3*
Y6844627D3*
X3048000Y6590627D3*
Y6844627D3*
X3302000Y6590627D3*
Y6844627D3*
X3556000Y6590627D3*
Y6844627D3*
X0Y4622127D3*
Y4876127D3*
X254000Y4622127D3*
Y4876127D3*
X508000Y4622127D3*
Y4876127D3*
X762000Y4622127D3*
Y4876127D3*
X1016000Y4622127D3*
Y4876127D3*
X1270000Y4622127D3*
Y4876127D3*
X1524000Y4622127D3*
Y4876127D3*
X1778000Y4622127D3*
Y4876127D3*
X2032000Y4622127D3*
Y4876127D3*
X2286000Y4622127D3*
Y4876127D3*
X2540000Y4622127D3*
Y4876127D3*
X2794000Y4622127D3*
Y4876127D3*
X3048000Y4622127D3*
Y4876127D3*
X3302000Y4622127D3*
Y4876127D3*
X3556000Y4622127D3*
Y4876127D3*
X0Y2653627D3*
Y2907627D3*
X254000Y2653627D3*
Y2907627D3*
X508000Y2653627D3*
Y2907627D3*
X762000Y2653627D3*
Y2907627D3*
X1016000Y2653627D3*
Y2907627D3*
X1270000Y2653627D3*
Y2907627D3*
X1524000Y2653627D3*
Y2907627D3*
X1778000Y2653627D3*
Y2907627D3*
X2032000Y2653627D3*
Y2907627D3*
X2286000Y2653627D3*
Y2907627D3*
X2540000Y2653627D3*
Y2907627D3*
X2794000Y2653627D3*
Y2907627D3*
X3048000Y2653627D3*
Y2907627D3*
X3302000Y2653627D3*
Y2907627D3*
X3556000Y2653627D3*
Y2907627D3*
X0Y685123D3*
Y939123D3*
X254000Y685123D3*
Y939123D3*
X508000Y685123D3*
Y939123D3*
X762000Y685123D3*
Y939123D3*
X1016000Y685123D3*
Y939123D3*
X1270000Y685123D3*
Y939123D3*
X1524000Y685123D3*
Y939123D3*
X1778000Y685123D3*
Y939123D3*
X2032000Y685123D3*
Y939123D3*
X2286000Y685123D3*
Y939123D3*
X2540000Y685123D3*
Y939123D3*
X2794000Y685123D3*
Y939123D3*
X3048000Y685123D3*
Y939123D3*
X3302000Y685123D3*
Y939123D3*
X3556000Y685123D3*
Y939123D3*
X0Y0D3*
Y254000D3*
X254000Y0D3*
Y254000D3*
X508000Y0D3*
Y254000D3*
X762000Y0D3*
Y254000D3*
X1016000Y0D3*
Y254000D3*
X1270000Y0D3*
Y254000D3*
X1524000Y0D3*
Y254000D3*
X1778000Y0D3*
Y254000D3*
X2032000Y0D3*
Y254000D3*
X2286000Y0D3*
Y254000D3*
X2540000Y0D3*
Y254000D3*
X2794000Y0D3*
Y254000D3*
X3048000Y0D3*
Y254000D3*
X3302000Y0D3*
Y254000D3*
X3556000Y0D3*
Y254000D3*
D26*
X-1143000Y7225627D3*
D27*
X-1397000Y9225877D3*
D28*
X-1143000D3*
D26*
X3556000Y8051123D3*
X-1397000Y6096000D3*
X3556000Y6082627D3*
X-1143000Y6463627D3*
D25*
X-1397000D3*
D26*
Y4114127D3*
X3556000D3*
X-1143000Y4495127D3*
D25*
X-1397000D3*
D26*
X3556000Y2145627D3*
X-1397000Y1193127D3*
X-1143000Y812127D3*
D25*
X-1397000D3*
D26*
Y8051123D3*
X-1143000Y8432127D3*
D25*
X-1397000D3*
D26*
Y2159000D3*
X-1143000Y2526623D3*
D25*
X-1397000D3*
D26*
X3556000Y1193127D3*
D27*
X-1397000Y224750D3*
D28*
X-1143000D3*
D29*
X-508000Y9398000D3*
Y7495503D3*
Y5463500D3*
Y3558503D3*
Y1526503D3*
Y129500D3*
M02*
