G04 DipTrace 4.3.0.5*
G04 2 - Bottom.gbr*
%MOMM*%
G04 #@! TF.FileFunction,Copper,L2,Bot*
G04 #@! TF.Part,Single*
G04 #@! TA.AperFunction,Conductor*
%ADD16C,1.0*%
%ADD17C,0.3302*%
%ADD18C,1.2*%
G04 #@! TA.AperFunction,CopperBalancing*
%ADD19C,0.381*%
G04 #@! TA.AperFunction,ComponentPad*
%ADD24C,1.7*%
%ADD25R,1.5X1.5*%
%ADD26C,1.5*%
%ADD27R,2.0X2.0*%
%ADD28C,2.0*%
%ADD29C,4.0*%
%FSLAX35Y35*%
G04*
G71*
G90*
G75*
G01*
G04 Bottom*
%LPD*%
X-1143000Y812127D2*
D16*
Y224750D1*
Y9225877D2*
X-508000D1*
Y9398000D1*
Y129500D2*
X-762000D1*
Y1526503D1*
X-508000D1*
X-762000D2*
Y3558503D1*
X-508000D1*
X-762000D2*
Y5463500D1*
X-508000D1*
X-762000D2*
Y7495503D1*
X-508000D1*
X-1143000Y9225877D2*
Y8432127D1*
X-762000Y7495503D2*
Y9398000D1*
X-508000D1*
X-1143000Y7225627D2*
Y6463627D1*
Y8432127D2*
D17*
Y7225627D1*
Y6463627D2*
Y4495127D1*
Y2526623D1*
Y812127D1*
X3556000Y9483877D2*
D18*
Y9229877D1*
Y8813127D2*
Y8559127D1*
Y8051123D1*
Y6844627D1*
Y6590627D1*
Y6082627D1*
Y4876127D1*
Y4622127D1*
Y4114127D1*
Y2907627D1*
Y2145627D1*
Y1193127D1*
Y939123D1*
Y685123D1*
Y254000D1*
Y0D1*
Y2907627D2*
Y2653627D1*
Y9229877D2*
Y8813127D1*
X0Y9483877D2*
Y9229877D1*
Y8813127D1*
Y8559127D1*
Y6844627D1*
Y6590627D1*
Y4876127D1*
Y4622127D1*
Y2907627D1*
Y2653627D1*
Y939123D1*
Y685123D1*
Y254000D1*
Y0D1*
X-1397000Y9225877D2*
Y8432127D1*
Y7225627D1*
Y6463627D1*
Y4495127D1*
Y2526623D1*
Y812127D1*
Y224750D1*
X254000Y8813123D2*
D17*
X127000Y8686127D1*
Y6971623D1*
X254000Y6844627D1*
X127000Y6717627D1*
Y5003127D1*
X254000Y4876127D1*
X127000Y4749127D1*
Y3034627D1*
X254000Y2907627D1*
X127000Y2780627D1*
Y1066120D1*
X254000Y939123D1*
X127000Y812123D1*
Y381000D1*
X254000Y254000D1*
Y8813123D2*
X127000Y8940123D1*
Y9356877D1*
X254000Y9483877D1*
X508000D2*
X466877D1*
X381000Y9398000D1*
Y8940123D1*
X508000Y8813123D1*
X381000Y8686127D1*
Y6971623D1*
X508000Y6844627D1*
X381000Y6717627D1*
Y5003127D1*
X508000Y4876127D1*
X381000Y4749127D1*
Y3034627D1*
X508000Y2907627D1*
X381000Y2780627D1*
Y1066120D1*
X508000Y939123D1*
X381000Y812123D1*
Y381000D1*
X508000Y254000D1*
X762000Y9483877D2*
Y9445623D1*
X635000Y9318623D1*
Y8940123D1*
X762000Y8813123D1*
X635000Y8686127D1*
Y6971623D1*
X762000Y6844627D1*
X635000Y6717627D1*
Y5003127D1*
X762000Y4876127D1*
X635000Y4749127D1*
Y3034627D1*
X762000Y2907627D1*
X635000Y2780627D1*
Y1066120D1*
X762000Y939123D1*
X635000Y812123D1*
Y381000D1*
X762000Y254000D1*
X1016000Y9483877D2*
Y9445623D1*
X889000Y9318623D1*
Y8940123D1*
X1016000Y8813123D1*
X889000Y8686127D1*
Y6971623D1*
X1016000Y6844627D1*
X889000Y6717627D1*
Y5003127D1*
X1016000Y4876127D1*
X889000Y4749127D1*
Y3034627D1*
X1016000Y2907627D1*
X889000Y2780627D1*
Y1066120D1*
X1016000Y939123D1*
X889000Y812123D1*
Y381000D1*
X1016000Y254000D1*
X1270000Y9483877D2*
Y9445623D1*
X1143000Y9318623D1*
Y8940123D1*
X1270000Y8813123D1*
X1143000Y8686127D1*
Y6971623D1*
X1270000Y6844627D1*
X1143000Y6717627D1*
Y5003127D1*
X1270000Y4876127D1*
X1143000Y4749127D1*
Y3034627D1*
X1270000Y2907627D1*
X1143000Y2780627D1*
Y1066120D1*
X1270000Y939123D1*
X1143000Y812123D1*
Y381000D1*
X1270000Y254000D1*
X1524000Y9483877D2*
Y9445623D1*
X1397000Y9318623D1*
Y8940123D1*
X1524000Y8813123D1*
X1397000Y8686127D1*
Y6971623D1*
X1524000Y6844627D1*
X1397000Y6717627D1*
Y5003127D1*
X1524000Y4876127D1*
X1397000Y4749127D1*
Y3034627D1*
X1524000Y2907627D1*
X1397000Y2780627D1*
Y1066120D1*
X1524000Y939123D1*
X1397000Y812123D1*
Y381000D1*
X1524000Y254000D1*
X1778000Y9483877D2*
Y9445623D1*
X1651000Y9318623D1*
Y8940123D1*
X1778000Y8813123D1*
X1651000Y8686127D1*
Y6971623D1*
X1778000Y6844627D1*
X1651000Y6717627D1*
Y5003127D1*
X1778000Y4876127D1*
X1651000Y4749127D1*
Y3034627D1*
X1778000Y2907627D1*
X1651000Y2780627D1*
Y1066120D1*
X1778000Y939123D1*
X1651000Y812123D1*
Y381000D1*
X1778000Y254000D1*
X2032000Y9483877D2*
Y9445623D1*
X1905000Y9318623D1*
Y8940123D1*
X2032000Y8813123D1*
X1905000Y8686127D1*
Y6971623D1*
X2032000Y6844627D1*
X1905000Y6717627D1*
Y5003127D1*
X2032000Y4876127D1*
X1905000Y4749127D1*
Y3034627D1*
X2032000Y2907627D1*
X1905000Y2780627D1*
Y1066120D1*
X2032000Y939123D1*
X1905000Y812123D1*
Y381000D1*
X2032000Y254000D1*
X2286000Y9483877D2*
Y9445623D1*
X2159000Y9318623D1*
Y8940123D1*
X2286000Y8813123D1*
X2159000Y8686127D1*
Y6971623D1*
X2286000Y6844627D1*
X2159000Y6717627D1*
Y5003127D1*
X2286000Y4876127D1*
X2159000Y4749127D1*
Y3034627D1*
X2286000Y2907627D1*
X2159000Y2780627D1*
Y1066120D1*
X2286000Y939123D1*
X2159000Y812123D1*
Y381000D1*
X2286000Y254000D1*
X2540000Y9483877D2*
Y9445623D1*
X2413000Y9318623D1*
Y8940123D1*
X2540000Y8813123D1*
X2413000Y8686127D1*
Y6971623D1*
X2540000Y6844627D1*
X2413000Y6717627D1*
Y5003127D1*
X2540000Y4876127D1*
X2413000Y4749127D1*
Y3034627D1*
X2540000Y2907627D1*
X2413000Y2780627D1*
Y1066120D1*
X2540000Y939123D1*
X2413000Y812123D1*
Y381000D1*
X2540000Y254000D1*
X2794000Y9483877D2*
Y9445623D1*
X2667000Y9318623D1*
Y8940123D1*
X2794000Y8813123D1*
X2667000Y8686127D1*
Y6971623D1*
X2794000Y6844627D1*
X2667000Y6717627D1*
Y5003127D1*
X2794000Y4876127D1*
X2667000Y4749127D1*
Y3034627D1*
X2794000Y2907627D1*
X2667000Y2780627D1*
Y1066120D1*
X2794000Y939123D1*
X2667000Y812123D1*
Y381000D1*
X2794000Y254000D1*
X3048000Y9483877D2*
Y9445623D1*
X2921000Y9318623D1*
Y8940123D1*
X3048000Y8813123D1*
X2921000Y8686127D1*
Y6971623D1*
X3048000Y6844627D1*
X2921000Y6717627D1*
Y5003127D1*
X3048000Y4876127D1*
X2921000Y4749127D1*
Y3034627D1*
X3048000Y2907627D1*
X2921000Y2780627D1*
Y1066120D1*
X3048000Y939123D1*
X2921000Y812123D1*
Y381000D1*
X3048000Y254000D1*
X3302000Y9483877D2*
Y9445623D1*
X3175000Y9318623D1*
Y8940123D1*
X3302000Y8813123D1*
X3175000Y8686127D1*
Y6971623D1*
X3302000Y6844627D1*
X3175000Y6717627D1*
Y5003127D1*
X3302000Y4876127D1*
X3175000Y4749127D1*
Y3034627D1*
X3302000Y2907627D1*
X3175000Y2780627D1*
Y1066120D1*
X3302000Y939123D1*
X3175000Y812123D1*
Y381000D1*
X3302000Y254000D1*
X-934520Y9531683D2*
D19*
X-181630D1*
X-943970Y9493917D2*
X-181630D1*
X-962760Y9456150D2*
X-181630D1*
X-995280Y9418383D2*
X-181630D1*
X-1061620Y9380617D2*
X-181630D1*
X-1183620Y9342850D2*
X-181630D1*
X-1183620Y9305083D2*
X-181630D1*
X-1183620Y9267317D2*
X-181630D1*
X-1183620Y9229550D2*
X-181630D1*
X-1183620Y9191783D2*
X-181630D1*
X-1183620Y9154017D2*
X-181630D1*
X-1183620Y9116250D2*
X-181630D1*
X-1183620Y9078483D2*
X-181630D1*
X-1183620Y9040717D2*
X-181630D1*
X-1183620Y9002950D2*
X-181630D1*
X-1183620Y8965183D2*
X-181630D1*
X-1183620Y8927417D2*
X-181630D1*
X-1183620Y8889650D2*
X-181630D1*
X-1183620Y8851883D2*
X-181630D1*
X-1183620Y8814117D2*
X-181630D1*
X-1183620Y8776350D2*
X-181630D1*
X-1183620Y8738583D2*
X-181630D1*
X-1183620Y8700817D2*
X-181630D1*
X-1183620Y8663050D2*
X-594440D1*
X-421547D2*
X-181630D1*
X-1183620Y8625283D2*
X-642327D1*
X-373660D2*
X-181630D1*
X-1183620Y8587517D2*
X-668000D1*
X-347990D2*
X-181630D1*
X-1183620Y8549750D2*
X-681803D1*
X-334183D2*
X-181630D1*
X-1183620Y8511983D2*
X-686603D1*
X-329387D2*
X-181630D1*
X-1183620Y8474217D2*
X-683143D1*
X-332883D2*
X-181630D1*
X-1183620Y8436450D2*
X-670863D1*
X-345160D2*
X-181630D1*
X-1183620Y8398683D2*
X-647423D1*
X-368563D2*
X-181630D1*
X-1183620Y8360917D2*
X-604710D1*
X-411277D2*
X-181630D1*
X-1183620Y8323150D2*
X-181630D1*
X-1183620Y8285383D2*
X-181630D1*
X-1183620Y8247617D2*
X-181630D1*
X-1183620Y8209850D2*
X-181630D1*
X-1183620Y8172083D2*
X-181630D1*
X-1183620Y8134317D2*
X-181630D1*
X-1183620Y8096550D2*
X-181630D1*
X-1183620Y8058783D2*
X-181630D1*
X-1183620Y8021017D2*
X-181630D1*
X-1183620Y7983250D2*
X-181630D1*
X-1183620Y7945483D2*
X-181630D1*
X-1183620Y7907717D2*
X-181630D1*
X-1183620Y7869950D2*
X-181630D1*
X-1183620Y7832183D2*
X-181630D1*
X-1183620Y7794417D2*
X-181630D1*
X-1183620Y7756650D2*
X-181630D1*
X-1183620Y7718883D2*
X-181630D1*
X-1183620Y7681117D2*
X-181630D1*
X-1183620Y7643350D2*
X-181630D1*
X-1183620Y7605583D2*
X-181630D1*
X-1183620Y7567817D2*
X-181630D1*
X-1183620Y7530050D2*
X-181630D1*
X-1183620Y7492283D2*
X-181630D1*
X-1183620Y7454517D2*
X-181630D1*
X-1183620Y7416750D2*
X-181630D1*
X-1183620Y7378983D2*
X-181630D1*
X-1183620Y7341217D2*
X-181630D1*
X-1183620Y7303450D2*
X-181630D1*
X-1183620Y7265683D2*
X-181630D1*
X-1183620Y7227917D2*
X-181630D1*
X-1183620Y7190150D2*
X-181630D1*
X-1183620Y7152383D2*
X-181630D1*
X-1183620Y7114617D2*
X-181630D1*
X-1183620Y7076850D2*
X-181630D1*
X-1183620Y7039083D2*
X-181630D1*
X-1183620Y7001317D2*
X-181630D1*
X-1183620Y6963550D2*
X-181630D1*
X-1183620Y6925783D2*
X-181630D1*
X-1183620Y6888017D2*
X-181630D1*
X-1183620Y6850250D2*
X-181630D1*
X-1183620Y6812483D2*
X-181630D1*
X-1183620Y6774717D2*
X-549420D1*
X-466567D2*
X-181630D1*
X-1183620Y6736950D2*
X-625323D1*
X-390703D2*
X-181630D1*
X-1183620Y6699183D2*
X-658437D1*
X-357550D2*
X-181630D1*
X-1183620Y6661417D2*
X-676930D1*
X-339060D2*
X-181630D1*
X-1183620Y6623650D2*
X-685523D1*
X-330500D2*
X-181630D1*
X-1183620Y6585883D2*
X-685673D1*
X-330317D2*
X-181630D1*
X-1183620Y6548117D2*
X-677450D1*
X-338537D2*
X-181630D1*
X-1183620Y6510350D2*
X-659403D1*
X-356583D2*
X-181630D1*
X-1183620Y6472583D2*
X-627070D1*
X-388917D2*
X-181630D1*
X-1183620Y6434817D2*
X-555820D1*
X-460207D2*
X-181630D1*
X-1183620Y6397050D2*
X-181630D1*
X-1183620Y6359283D2*
X-181630D1*
X-1183620Y6321517D2*
X-181630D1*
X-1183620Y6283750D2*
X-181630D1*
X-1183620Y6245983D2*
X-181630D1*
X-1183620Y6208217D2*
X-181630D1*
X-1183620Y6170450D2*
X-181630D1*
X-1183620Y6132683D2*
X-181630D1*
X-1183620Y6094917D2*
X-181630D1*
X-1183620Y6057150D2*
X-181630D1*
X-1183620Y6019383D2*
X-181630D1*
X-1183620Y5981617D2*
X-181630D1*
X-1183620Y5943850D2*
X-181630D1*
X-1183620Y5906083D2*
X-181630D1*
X-1183620Y5868317D2*
X-181630D1*
X-1183620Y5830550D2*
X-181630D1*
X-1183620Y5792783D2*
X-181630D1*
X-1183620Y5755017D2*
X-181630D1*
X-1183620Y5717250D2*
X-181630D1*
X-1183620Y5679483D2*
X-181630D1*
X-1183620Y5641717D2*
X-181630D1*
X-1183620Y5603950D2*
X-181630D1*
X-1183620Y5566183D2*
X-181630D1*
X-1183620Y5528417D2*
X-181630D1*
X-1183620Y5490650D2*
X-181630D1*
X-1183620Y5452883D2*
X-181630D1*
X-1183620Y5415117D2*
X-181630D1*
X-1183620Y5377350D2*
X-181630D1*
X-1183620Y5339583D2*
X-181630D1*
X-1183620Y5301817D2*
X-181630D1*
X-1183620Y5264050D2*
X-181630D1*
X-1183620Y5226283D2*
X-181630D1*
X-1183620Y5188517D2*
X-181630D1*
X-1183620Y5150750D2*
X-181630D1*
X-1183620Y5112983D2*
X-181630D1*
X-1183620Y5075217D2*
X-181630D1*
X-1183620Y5037450D2*
X-181630D1*
X-1183620Y4999683D2*
X-181630D1*
X-1183620Y4961917D2*
X-181630D1*
X-1183620Y4924150D2*
X-181630D1*
X-1183620Y4886383D2*
X-181630D1*
X-1183620Y4848617D2*
X-181630D1*
X-1183620Y4810850D2*
X-181630D1*
X-1183620Y4773083D2*
X-181630D1*
X-1183620Y4735317D2*
X-574163D1*
X-441863D2*
X-181630D1*
X-1183620Y4697550D2*
X-633433D1*
X-382553D2*
X-181630D1*
X-1183620Y4659783D2*
X-662977D1*
X-353010D2*
X-181630D1*
X-1183620Y4622017D2*
X-679310D1*
X-336677D2*
X-181630D1*
X-1183620Y4584250D2*
X-686193D1*
X-329793D2*
X-181630D1*
X-1183620Y4546483D2*
X-684743D1*
X-331247D2*
X-181630D1*
X-1183620Y4508717D2*
X-674770D1*
X-341217D2*
X-181630D1*
X-1183620Y4470950D2*
X-654457D1*
X-361533D2*
X-181630D1*
X-1183620Y4433183D2*
X-618067D1*
X-397957D2*
X-181630D1*
X-1183620Y4395417D2*
X-181630D1*
X-1183620Y4357650D2*
X-181630D1*
X-1183620Y4319883D2*
X-181630D1*
X-1183620Y4282117D2*
X-181630D1*
X-1183620Y4244350D2*
X-181630D1*
X-1183620Y4206583D2*
X-181630D1*
X-1183620Y4168817D2*
X-181630D1*
X-1183620Y4131050D2*
X-181630D1*
X-1183620Y4093283D2*
X-181630D1*
X-1183620Y4055517D2*
X-181630D1*
X-1183620Y4017750D2*
X-181630D1*
X-1183620Y3979983D2*
X-181630D1*
X-1183620Y3942217D2*
X-181630D1*
X-1183620Y3904450D2*
X-181630D1*
X-1183620Y3866683D2*
X-181630D1*
X-1183620Y3828917D2*
X-181630D1*
X-1183620Y3791150D2*
X-181630D1*
X-1183620Y3753383D2*
X-181630D1*
X-1183620Y3715617D2*
X-181630D1*
X-1183620Y3677850D2*
X-181630D1*
X-1183620Y3640083D2*
X-181630D1*
X-1183620Y3602317D2*
X-181630D1*
X-1183620Y3564550D2*
X-181630D1*
X-1183620Y3526783D2*
X-181630D1*
X-1183620Y3489017D2*
X-181630D1*
X-1183620Y3451250D2*
X-181630D1*
X-1183620Y3413483D2*
X-181630D1*
X-1183620Y3375717D2*
X-181630D1*
X-1183620Y3337950D2*
X-181630D1*
X-1183620Y3300183D2*
X-181630D1*
X-1183620Y3262417D2*
X-181630D1*
X-1183620Y3224650D2*
X-181630D1*
X-1183620Y3186883D2*
X-181630D1*
X-1183620Y3149117D2*
X-181630D1*
X-1183620Y3111350D2*
X-181630D1*
X-1183620Y3073583D2*
X-181630D1*
X-1183620Y3035817D2*
X-181630D1*
X-1183620Y2998050D2*
X-181630D1*
X-1183620Y2960283D2*
X-181630D1*
X-1183620Y2922517D2*
X-181630D1*
X-1183620Y2884750D2*
X-181630D1*
X-1183620Y2846983D2*
X-181630D1*
X-1183620Y2809217D2*
X-613453D1*
X-402533D2*
X-181630D1*
X-1183620Y2771450D2*
X-652000D1*
X-364023D2*
X-181630D1*
X-1183620Y2733683D2*
X-673393D1*
X-342593D2*
X-181630D1*
X-1183620Y2695917D2*
X-684220D1*
X-331803D2*
X-181630D1*
X-1183620Y2658150D2*
X-686417D1*
X-329610D2*
X-181630D1*
X-1183620Y2620383D2*
X-680277D1*
X-335710D2*
X-181630D1*
X-1183620Y2582617D2*
X-664910D1*
X-351077D2*
X-181630D1*
X-1183620Y2544850D2*
X-636857D1*
X-379130D2*
X-181630D1*
X-1183620Y2507083D2*
X-582423D1*
X-433563D2*
X-181630D1*
X-1183620Y2469317D2*
X-181630D1*
X-1183620Y2431550D2*
X-181630D1*
X-1183620Y2393783D2*
X-181630D1*
X-1183620Y2356017D2*
X-181630D1*
X-1183620Y2318250D2*
X-181630D1*
X-1183620Y2280483D2*
X-181630D1*
X-1183620Y2242717D2*
X-181630D1*
X-1183620Y2204950D2*
X-181630D1*
X-1183620Y2167183D2*
X-181630D1*
X-1183620Y2129417D2*
X-181630D1*
X-1183620Y2091650D2*
X-181630D1*
X-1183620Y2053883D2*
X-181630D1*
X-1183620Y2016117D2*
X-181630D1*
X-1183620Y1978350D2*
X-181630D1*
X-1183620Y1940583D2*
X-181630D1*
X-1183620Y1902817D2*
X-181630D1*
X-1183620Y1865050D2*
X-181630D1*
X-1183620Y1827283D2*
X-181630D1*
X-1183620Y1789517D2*
X-181630D1*
X-1183620Y1751750D2*
X-181630D1*
X-1183620Y1713983D2*
X-181630D1*
X-1183620Y1676217D2*
X-181630D1*
X-1183620Y1638450D2*
X-181630D1*
X-1183620Y1600683D2*
X-181630D1*
X-1183620Y1562917D2*
X-181630D1*
X-1183620Y1525150D2*
X-181630D1*
X-1183620Y1487383D2*
X-181630D1*
X-1183620Y1449617D2*
X-181630D1*
X-1183620Y1411850D2*
X-181630D1*
X-1183620Y1374083D2*
X-181630D1*
X-1183620Y1336317D2*
X-181630D1*
X-1183620Y1298550D2*
X-181630D1*
X-1183620Y1260783D2*
X-181630D1*
X-1183620Y1223017D2*
X-181630D1*
X-1183620Y1185250D2*
X-181630D1*
X-1183620Y1147483D2*
X-181630D1*
X-1183620Y1109717D2*
X-181630D1*
X-1183620Y1071950D2*
X-181630D1*
X-1183620Y1034183D2*
X-609173D1*
X-406813D2*
X-181630D1*
X-1183620Y996417D2*
X-649730D1*
X-366257D2*
X-181630D1*
X-1183620Y958650D2*
X-672130D1*
X-343860D2*
X-181630D1*
X-1183620Y920883D2*
X-683700D1*
X-332323D2*
X-181630D1*
X-1183620Y883117D2*
X-686527D1*
X-329460D2*
X-181630D1*
X-1183620Y845350D2*
X-681097D1*
X-334930D2*
X-181630D1*
X-1183620Y807583D2*
X-666510D1*
X-349477D2*
X-181630D1*
X-1183620Y769817D2*
X-639683D1*
X-376303D2*
X-181630D1*
X-1183620Y732050D2*
X-588787D1*
X-427203D2*
X-181630D1*
X-1183620Y694283D2*
X-181630D1*
X-1183620Y656517D2*
X-181630D1*
X-1183620Y618750D2*
X-181630D1*
X-1183620Y580983D2*
X-181630D1*
X-1183620Y543217D2*
X-181630D1*
X-1183620Y505450D2*
X-181630D1*
X-1183620Y467683D2*
X-181630D1*
X-1183620Y429917D2*
X-181630D1*
X-1183620Y392150D2*
X-181630D1*
X-1183620Y354383D2*
X-181630D1*
X-1183620Y316617D2*
X-181630D1*
X-1183620Y278850D2*
X-181630D1*
X-1183620Y241083D2*
X-181630D1*
X-1183620Y203317D2*
X-181630D1*
X-1183620Y165550D2*
X-181630D1*
X-1183620Y127783D2*
X-181630D1*
X-1064077Y90017D2*
X-181630D1*
X-1014403Y52250D2*
X-181630D1*
X-987130Y14483D2*
X-181630D1*
X-971653Y-23283D2*
X-181630D1*
X-965217Y-61050D2*
X-181630D1*
X-334223Y869987D2*
X-337300Y851310D1*
X-342373Y833077D1*
X-349393Y815497D1*
X-358270Y798780D1*
X-368900Y783120D1*
X-381163Y768700D1*
X-394913Y755693D1*
X-409990Y744247D1*
X-426217Y734500D1*
X-443400Y726563D1*
X-461340Y720530D1*
X-479830Y716473D1*
X-498647Y714437D1*
X-517577Y714450D1*
X-536393Y716510D1*
X-554877Y720590D1*
X-572810Y726647D1*
X-589983Y734603D1*
X-606197Y744373D1*
X-621257Y755837D1*
X-634990Y768863D1*
X-647233Y783297D1*
X-657847Y798970D1*
X-666703Y815700D1*
X-673697Y833290D1*
X-678750Y851530D1*
X-681800Y870210D1*
X-682813Y889113D1*
X-681777Y908013D1*
X-678700Y926690D1*
X-673627Y944923D1*
X-666607Y962503D1*
X-657730Y979220D1*
X-647100Y994880D1*
X-634837Y1009300D1*
X-621087Y1022307D1*
X-606010Y1033753D1*
X-589783Y1043500D1*
X-572600Y1051437D1*
X-554660Y1057470D1*
X-536170Y1061527D1*
X-517353Y1063563D1*
X-498423Y1063550D1*
X-479607Y1061490D1*
X-461123Y1057410D1*
X-443190Y1051353D1*
X-426017Y1043397D1*
X-409803Y1033627D1*
X-394743Y1022163D1*
X-381010Y1009137D1*
X-368767Y994703D1*
X-358153Y979030D1*
X-349297Y962300D1*
X-342303Y944710D1*
X-337250Y926470D1*
X-334200Y907790D1*
X-333187Y889000D1*
X-334223Y869987D1*
Y2647987D2*
X-337300Y2629310D1*
X-342373Y2611077D1*
X-349393Y2593497D1*
X-358270Y2576780D1*
X-368900Y2561120D1*
X-381163Y2546700D1*
X-394913Y2533693D1*
X-409990Y2522247D1*
X-426217Y2512500D1*
X-443400Y2504563D1*
X-461340Y2498530D1*
X-479830Y2494473D1*
X-498647Y2492437D1*
X-517577Y2492450D1*
X-536393Y2494510D1*
X-554877Y2498590D1*
X-572810Y2504647D1*
X-589983Y2512603D1*
X-606197Y2522373D1*
X-621257Y2533837D1*
X-634990Y2546863D1*
X-647233Y2561297D1*
X-657847Y2576970D1*
X-666703Y2593700D1*
X-673697Y2611290D1*
X-678750Y2629530D1*
X-681800Y2648210D1*
X-682813Y2667113D1*
X-681777Y2686013D1*
X-678700Y2704690D1*
X-673627Y2722923D1*
X-666607Y2740503D1*
X-657730Y2757220D1*
X-647100Y2772880D1*
X-634837Y2787300D1*
X-621087Y2800307D1*
X-606010Y2811753D1*
X-589783Y2821500D1*
X-572600Y2829437D1*
X-554660Y2835470D1*
X-536170Y2839527D1*
X-517353Y2841563D1*
X-498423Y2841550D1*
X-479607Y2839490D1*
X-461123Y2835410D1*
X-443190Y2829353D1*
X-426017Y2821397D1*
X-409803Y2811627D1*
X-394743Y2800163D1*
X-381010Y2787137D1*
X-368767Y2772703D1*
X-358153Y2757030D1*
X-349297Y2740300D1*
X-342303Y2722710D1*
X-337250Y2704470D1*
X-334200Y2685790D1*
X-333187Y2667000D1*
X-334223Y2647987D1*
Y4552987D2*
X-337300Y4534310D1*
X-342373Y4516077D1*
X-349393Y4498497D1*
X-358270Y4481780D1*
X-368900Y4466120D1*
X-381163Y4451700D1*
X-394913Y4438693D1*
X-409990Y4427247D1*
X-426217Y4417500D1*
X-443400Y4409563D1*
X-461340Y4403530D1*
X-479830Y4399473D1*
X-498647Y4397437D1*
X-517577Y4397450D1*
X-536393Y4399510D1*
X-554877Y4403590D1*
X-572810Y4409647D1*
X-589983Y4417603D1*
X-606197Y4427373D1*
X-621257Y4438837D1*
X-634990Y4451863D1*
X-647233Y4466297D1*
X-657847Y4481970D1*
X-666703Y4498700D1*
X-673697Y4516290D1*
X-678750Y4534530D1*
X-681800Y4553210D1*
X-682813Y4572113D1*
X-681777Y4591013D1*
X-678700Y4609690D1*
X-673627Y4627923D1*
X-666607Y4645503D1*
X-657730Y4662220D1*
X-647100Y4677880D1*
X-634837Y4692300D1*
X-621087Y4705307D1*
X-606010Y4716753D1*
X-589783Y4726500D1*
X-572600Y4734437D1*
X-554660Y4740470D1*
X-536170Y4744527D1*
X-517353Y4746563D1*
X-498423Y4746550D1*
X-479607Y4744490D1*
X-461123Y4740410D1*
X-443190Y4734353D1*
X-426017Y4726397D1*
X-409803Y4716627D1*
X-394743Y4705163D1*
X-381010Y4692137D1*
X-368767Y4677703D1*
X-358153Y4662030D1*
X-349297Y4645300D1*
X-342303Y4627710D1*
X-337250Y4609470D1*
X-334200Y4590790D1*
X-333187Y4572000D1*
X-334223Y4552987D1*
Y6584987D2*
X-337300Y6566310D1*
X-342373Y6548077D1*
X-349393Y6530497D1*
X-358270Y6513780D1*
X-368900Y6498120D1*
X-381163Y6483700D1*
X-394913Y6470693D1*
X-409990Y6459247D1*
X-426217Y6449500D1*
X-443400Y6441563D1*
X-461340Y6435530D1*
X-479830Y6431473D1*
X-498647Y6429437D1*
X-517577Y6429450D1*
X-536393Y6431510D1*
X-554877Y6435590D1*
X-572810Y6441647D1*
X-589983Y6449603D1*
X-606197Y6459373D1*
X-621257Y6470837D1*
X-634990Y6483863D1*
X-647233Y6498297D1*
X-657847Y6513970D1*
X-666703Y6530700D1*
X-673697Y6548290D1*
X-678750Y6566530D1*
X-681800Y6585210D1*
X-682813Y6604113D1*
X-681777Y6623013D1*
X-678700Y6641690D1*
X-673627Y6659923D1*
X-666607Y6677503D1*
X-657730Y6694220D1*
X-647100Y6709880D1*
X-634837Y6724300D1*
X-621087Y6737307D1*
X-606010Y6748753D1*
X-589783Y6758500D1*
X-572600Y6766437D1*
X-554660Y6772470D1*
X-536170Y6776527D1*
X-517353Y6778563D1*
X-498423Y6778550D1*
X-479607Y6776490D1*
X-461123Y6772410D1*
X-443190Y6766353D1*
X-426017Y6758397D1*
X-409803Y6748627D1*
X-394743Y6737163D1*
X-381010Y6724137D1*
X-368767Y6709703D1*
X-358153Y6694030D1*
X-349297Y6677300D1*
X-342303Y6659710D1*
X-337250Y6641470D1*
X-334200Y6622790D1*
X-333187Y6604000D1*
X-334223Y6584987D1*
Y8489987D2*
X-337300Y8471310D1*
X-342373Y8453077D1*
X-349393Y8435497D1*
X-358270Y8418780D1*
X-368900Y8403120D1*
X-381163Y8388700D1*
X-394913Y8375693D1*
X-409990Y8364247D1*
X-426217Y8354500D1*
X-443400Y8346563D1*
X-461340Y8340530D1*
X-479830Y8336473D1*
X-498647Y8334437D1*
X-517577Y8334450D1*
X-536393Y8336510D1*
X-554877Y8340590D1*
X-572810Y8346647D1*
X-589983Y8354603D1*
X-606197Y8364373D1*
X-621257Y8375837D1*
X-634990Y8388863D1*
X-647233Y8403297D1*
X-657847Y8418970D1*
X-666703Y8435700D1*
X-673697Y8453290D1*
X-678750Y8471530D1*
X-681800Y8490210D1*
X-682813Y8509113D1*
X-681777Y8528013D1*
X-678700Y8546690D1*
X-673627Y8564923D1*
X-666607Y8582503D1*
X-657730Y8599220D1*
X-647100Y8614880D1*
X-634837Y8629300D1*
X-621087Y8642307D1*
X-606010Y8653753D1*
X-589783Y8663500D1*
X-572600Y8671437D1*
X-554660Y8677470D1*
X-536170Y8681527D1*
X-517353Y8683563D1*
X-498423Y8683550D1*
X-479607Y8681490D1*
X-461123Y8677410D1*
X-443190Y8671353D1*
X-426017Y8663397D1*
X-409803Y8653627D1*
X-394743Y8642163D1*
X-381010Y8629137D1*
X-368767Y8614703D1*
X-358153Y8599030D1*
X-349297Y8582300D1*
X-342303Y8564710D1*
X-337250Y8546470D1*
X-334200Y8527790D1*
X-333187Y8509000D1*
X-334223Y8489987D1*
X-1018323Y52387D2*
X-1010557Y43530D1*
X-1002953Y33617D1*
X-996450Y23877D1*
X-990203Y13057D1*
X-985027Y2550D1*
X-980247Y-8993D1*
X-976487Y-20087D1*
X-973253Y-32153D1*
X-970973Y-43643D1*
X-969343Y-56030D1*
X-968580Y-67717D1*
X-968377Y-92083D1*
X-177787Y-92077D1*
X-177800Y384143D1*
Y9569460D1*
X-936613Y9569450D1*
X-936627Y9556730D1*
X-936843Y9550297D1*
X-937593Y9538850D1*
X-939223Y9526443D1*
X-941507Y9514973D1*
X-944740Y9502890D1*
X-948500Y9491813D1*
X-953283Y9480257D1*
X-958457Y9469767D1*
X-964710Y9458930D1*
X-971207Y9449207D1*
X-978820Y9439280D1*
X-986530Y9430487D1*
X-995377Y9421637D1*
X-1004167Y9413927D1*
X-1014090Y9406307D1*
X-1023817Y9399810D1*
X-1034647Y9393553D1*
X-1045137Y9388380D1*
X-1056693Y9383587D1*
X-1067770Y9379830D1*
X-1079853Y9376587D1*
X-1091323Y9374307D1*
X-1103727Y9372670D1*
X-1115397Y9371903D1*
X-1121680Y9371697D1*
X-1187463D1*
X-1187450Y8959880D1*
Y111137D1*
X-1153407Y111127D1*
X-1147133Y110920D1*
X-1135457Y110153D1*
X-1123073Y108520D1*
X-1111583Y106233D1*
X-1099517Y102997D1*
X-1088427Y99230D1*
X-1076887Y94447D1*
X-1066380Y89263D1*
X-1055563Y83017D1*
X-1045827Y76507D1*
X-1035917Y68900D1*
X-1027327Y61363D1*
X-1018323Y52387D1*
D24*
X0Y9229877D3*
Y9483877D3*
X254000Y9229877D3*
Y9483877D3*
X508000Y9229877D3*
Y9483877D3*
X762000Y9229877D3*
Y9483877D3*
X1016000Y9229877D3*
Y9483877D3*
X1270000Y9229877D3*
Y9483877D3*
X1524000Y9229877D3*
Y9483877D3*
X1778000Y9229877D3*
Y9483877D3*
X2032000Y9229877D3*
Y9483877D3*
X2286000Y9229877D3*
Y9483877D3*
X2540000Y9229877D3*
Y9483877D3*
X2794000Y9229877D3*
Y9483877D3*
X3048000Y9229877D3*
Y9483877D3*
X3302000Y9229877D3*
Y9483877D3*
X3556000Y9229877D3*
Y9483877D3*
D25*
X-1397000Y7225627D3*
D24*
X0Y8559127D3*
Y8813127D3*
X254000Y8559127D3*
Y8813127D3*
X508000Y8559127D3*
Y8813127D3*
X762000Y8559127D3*
Y8813127D3*
X1016000Y8559127D3*
Y8813127D3*
X1270000Y8559127D3*
Y8813127D3*
X1524000Y8559127D3*
Y8813127D3*
X1778000Y8559127D3*
Y8813127D3*
X2032000Y8559127D3*
Y8813127D3*
X2286000Y8559127D3*
Y8813127D3*
X2540000Y8559127D3*
Y8813127D3*
X2794000Y8559127D3*
Y8813127D3*
X3048000Y8559127D3*
Y8813127D3*
X3302000Y8559127D3*
Y8813127D3*
X3556000Y8559127D3*
Y8813127D3*
X0Y6590627D3*
Y6844627D3*
X254000Y6590627D3*
Y6844627D3*
X508000Y6590627D3*
Y6844627D3*
X762000Y6590627D3*
Y6844627D3*
X1016000Y6590627D3*
Y6844627D3*
X1270000Y6590627D3*
Y6844627D3*
X1524000Y6590627D3*
Y6844627D3*
X1778000Y6590627D3*
Y6844627D3*
X2032000Y6590627D3*
Y6844627D3*
X2286000Y6590627D3*
Y6844627D3*
X2540000Y6590627D3*
Y6844627D3*
X2794000Y6590627D3*
Y6844627D3*
X3048000Y6590627D3*
Y6844627D3*
X3302000Y6590627D3*
Y6844627D3*
X3556000Y6590627D3*
Y6844627D3*
X0Y4622127D3*
Y4876127D3*
X254000Y4622127D3*
Y4876127D3*
X508000Y4622127D3*
Y4876127D3*
X762000Y4622127D3*
Y4876127D3*
X1016000Y4622127D3*
Y4876127D3*
X1270000Y4622127D3*
Y4876127D3*
X1524000Y4622127D3*
Y4876127D3*
X1778000Y4622127D3*
Y4876127D3*
X2032000Y4622127D3*
Y4876127D3*
X2286000Y4622127D3*
Y4876127D3*
X2540000Y4622127D3*
Y4876127D3*
X2794000Y4622127D3*
Y4876127D3*
X3048000Y4622127D3*
Y4876127D3*
X3302000Y4622127D3*
Y4876127D3*
X3556000Y4622127D3*
Y4876127D3*
X0Y2653627D3*
Y2907627D3*
X254000Y2653627D3*
Y2907627D3*
X508000Y2653627D3*
Y2907627D3*
X762000Y2653627D3*
Y2907627D3*
X1016000Y2653627D3*
Y2907627D3*
X1270000Y2653627D3*
Y2907627D3*
X1524000Y2653627D3*
Y2907627D3*
X1778000Y2653627D3*
Y2907627D3*
X2032000Y2653627D3*
Y2907627D3*
X2286000Y2653627D3*
Y2907627D3*
X2540000Y2653627D3*
Y2907627D3*
X2794000Y2653627D3*
Y2907627D3*
X3048000Y2653627D3*
Y2907627D3*
X3302000Y2653627D3*
Y2907627D3*
X3556000Y2653627D3*
Y2907627D3*
X0Y685123D3*
Y939123D3*
X254000Y685123D3*
Y939123D3*
X508000Y685123D3*
Y939123D3*
X762000Y685123D3*
Y939123D3*
X1016000Y685123D3*
Y939123D3*
X1270000Y685123D3*
Y939123D3*
X1524000Y685123D3*
Y939123D3*
X1778000Y685123D3*
Y939123D3*
X2032000Y685123D3*
Y939123D3*
X2286000Y685123D3*
Y939123D3*
X2540000Y685123D3*
Y939123D3*
X2794000Y685123D3*
Y939123D3*
X3048000Y685123D3*
Y939123D3*
X3302000Y685123D3*
Y939123D3*
X3556000Y685123D3*
Y939123D3*
X0Y0D3*
Y254000D3*
X254000Y0D3*
Y254000D3*
X508000Y0D3*
Y254000D3*
X762000Y0D3*
Y254000D3*
X1016000Y0D3*
Y254000D3*
X1270000Y0D3*
Y254000D3*
X1524000Y0D3*
Y254000D3*
X1778000Y0D3*
Y254000D3*
X2032000Y0D3*
Y254000D3*
X2286000Y0D3*
Y254000D3*
X2540000Y0D3*
Y254000D3*
X2794000Y0D3*
Y254000D3*
X3048000Y0D3*
Y254000D3*
X3302000Y0D3*
Y254000D3*
X3556000Y0D3*
Y254000D3*
D26*
X-1143000Y7225627D3*
D27*
X-1397000Y9225877D3*
D28*
X-1143000D3*
D26*
X3556000Y8051123D3*
X-1397000Y6096000D3*
X3556000Y6082627D3*
X-1143000Y6463627D3*
D25*
X-1397000D3*
D26*
Y4114127D3*
X3556000D3*
X-1143000Y4495127D3*
D25*
X-1397000D3*
D26*
X3556000Y2145627D3*
X-1397000Y1193127D3*
X-1143000Y812127D3*
D25*
X-1397000D3*
D26*
Y8051123D3*
X-1143000Y8432127D3*
D25*
X-1397000D3*
D26*
Y2159000D3*
X-1143000Y2526623D3*
D25*
X-1397000D3*
D26*
X3556000Y1193127D3*
D27*
X-1397000Y224750D3*
D28*
X-1143000D3*
D29*
X-508000Y9398000D3*
Y7495503D3*
Y5463500D3*
Y3558503D3*
Y1526503D3*
Y129500D3*
M02*
