G04 DipTrace 4.3.0.5*
G04 BottomSilk.gbr*
%MOMM*%
G04 #@! TF.FileFunction,Legend,Bot*
G04 #@! TF.Part,Single*
%ADD20C,0.175*%
%ADD23C,0.5*%
%ADD45C,0.19608*%
%ADD46C,0.15686*%
%ADD47C,0.31373*%
%ADD48C,0.23529*%
%FSLAX35Y35*%
G04*
G71*
G90*
G75*
G01*
G04 BotSilk*
%LPD*%
X-1397000Y7543127D2*
D20*
Y7416127D1*
X-1460500Y7479627D2*
X-1333500D1*
X-1206500D2*
X-1079500D1*
X-1397000Y510500D2*
Y383500D1*
X-1460500Y447000D2*
X-1333500D1*
X-1206500D2*
X-1079500D1*
X-1397000Y9035373D2*
Y8908373D1*
X-1460500Y8971873D2*
X-1333500D1*
X-1206500D2*
X-1079500D1*
X3683000Y1526500D2*
D23*
X-508000Y1526503D1*
X3683000Y3558500D2*
X-508000Y3558503D1*
X3683000Y5463500D2*
X-508000D1*
X3683000Y7495500D2*
X-508000Y7495503D1*
X-1255697Y7064163D2*
D46*
Y6962076D1*
X-1221667Y7064163D2*
X-1289726D1*
X-1321098Y7010705D2*
X-1364898D1*
X-1379386Y7015534D1*
X-1384328Y7020476D1*
X-1389157Y7030134D1*
Y7044734D1*
X-1384328Y7054393D1*
X-1379386Y7059334D1*
X-1364898Y7064163D1*
X-1321098D1*
Y6962076D1*
X-981540Y9201322D2*
X-903823D1*
X-889223Y9206151D1*
X-884394Y9211092D1*
X-879452Y9220751D1*
Y9230522D1*
X-884394Y9240180D1*
X-889223Y9245009D1*
X-903823Y9249951D1*
X-913481D1*
X-947511Y9106720D2*
X-932911Y9111661D1*
X-923140Y9121320D1*
X-918311Y9135920D1*
Y9140749D1*
X-923140Y9155349D1*
X-932911Y9165007D1*
X-947511Y9169949D1*
X-952340D1*
X-966940Y9165007D1*
X-976598Y9155349D1*
X-981428Y9140749D1*
Y9135920D1*
X-976598Y9121320D1*
X-966940Y9111661D1*
X-947511Y9106720D1*
X-923140D1*
X-898881Y9111661D1*
X-884281Y9121320D1*
X-879452Y9135920D1*
Y9145578D1*
X-884281Y9160178D1*
X-894052Y9165007D1*
X-981540Y260767D2*
X-903823D1*
X-889223Y265597D1*
X-884394Y270538D1*
X-879452Y280197D1*
Y289967D1*
X-884394Y299626D1*
X-889223Y304455D1*
X-903823Y309397D1*
X-913481D1*
X-961998Y229395D2*
X-966940Y219624D1*
X-981428Y205024D1*
X-879452D1*
X-981428Y144452D2*
X-976598Y159052D1*
X-961998Y168822D1*
X-937740Y173652D1*
X-923140D1*
X-898881Y168822D1*
X-884281Y159052D1*
X-879452Y144452D1*
Y134793D1*
X-884281Y120193D1*
X-898881Y110535D1*
X-923140Y105593D1*
X-937740D1*
X-961998Y110535D1*
X-976598Y120193D1*
X-981428Y134793D1*
Y144452D1*
X-961998Y110535D2*
X-898881Y168822D1*
X64428Y8324123D2*
D47*
X44886Y8334007D1*
X15686Y8362982D1*
Y8159031D1*
X3642782Y8362982D2*
X3536090D1*
X3594265Y8285265D1*
X3565065D1*
X3545748Y8275607D1*
X3536090Y8265948D1*
X3526207Y8236748D1*
Y8217431D1*
X3536090Y8188231D1*
X3555407Y8168690D1*
X3584607Y8159031D1*
X3613807D1*
X3642782Y8168690D1*
X3652441Y8178573D1*
X3662324Y8197890D1*
X3366203Y8159031D2*
Y8362982D1*
X3463462Y8227090D1*
X3317686D1*
X3318327Y6348268D2*
D48*
X3340059Y6341024D1*
X3347471Y6326537D1*
Y6311880D1*
X3340059Y6297393D1*
X3325571Y6289980D1*
X3296427Y6282737D1*
X3274527Y6275493D1*
X3260039Y6260837D1*
X3252796Y6246349D1*
Y6224449D1*
X3260039Y6209961D1*
X3267283Y6202549D1*
X3289183Y6195305D1*
X3318327D1*
X3340059Y6202549D1*
X3347471Y6209961D1*
X3354715Y6224449D1*
Y6246349D1*
X3347471Y6260837D1*
X3332815Y6275493D1*
X3311083Y6282737D1*
X3281939Y6289980D1*
X3267283Y6297393D1*
X3260039Y6311880D1*
Y6326537D1*
X3267283Y6341024D1*
X3289183Y6348268D1*
X3318327D1*
X3161937D2*
X3183837Y6341024D1*
X3198493Y6319124D1*
X3205737Y6282737D1*
Y6260837D1*
X3198493Y6224449D1*
X3183837Y6202549D1*
X3161937Y6195305D1*
X3147449D1*
X3125549Y6202549D1*
X3111061Y6224449D1*
X3103649Y6260837D1*
Y6282737D1*
X3111061Y6319124D1*
X3125549Y6341024D1*
X3147449Y6348268D1*
X3161937D1*
X3111061Y6319124D2*
X3198493Y6224449D1*
X2969159Y6348268D2*
X3041934D1*
X3049178Y6282737D1*
X3041934Y6289980D1*
X3020034Y6297393D1*
X2998303D1*
X2976403Y6289980D1*
X2961746Y6275493D1*
X2954503Y6253593D1*
Y6239105D1*
X2961746Y6217205D1*
X2976403Y6202549D1*
X2998303Y6195305D1*
X3020034D1*
X3041934Y6202549D1*
X3049178Y6209961D1*
X3056590Y6224449D1*
X2907444Y6319124D2*
X2892788Y6326537D1*
X2870888Y6348268D1*
Y6195305D1*
X2675693Y6348437D2*
Y6195305D1*
X2609993D1*
X2588093Y6202717D1*
X2580849Y6209961D1*
X2573605Y6224449D1*
Y6246349D1*
X2580849Y6261005D1*
X2588093Y6268249D1*
X2609993Y6275493D1*
X2588093Y6282905D1*
X2580849Y6290149D1*
X2573605Y6304637D1*
Y6319293D1*
X2580849Y6333780D1*
X2588093Y6341193D1*
X2609993Y6348437D1*
X2675693D1*
Y6275493D2*
X2609993D1*
X2439115Y6297393D2*
Y6195305D1*
Y6275493D2*
X2453603Y6290149D1*
X2468259Y6297393D1*
X2489990D1*
X2504646Y6290149D1*
X2519134Y6275493D1*
X2526546Y6253593D1*
Y6239105D1*
X2519134Y6217205D1*
X2504646Y6202717D1*
X2489990Y6195305D1*
X2468259D1*
X2453603Y6202717D1*
X2439115Y6217205D1*
X2304456Y6275493D2*
X2319112Y6290149D1*
X2333768Y6297393D1*
X2355500D1*
X2370156Y6290149D1*
X2384644Y6275493D1*
X2392056Y6253593D1*
Y6239105D1*
X2384644Y6217205D1*
X2370156Y6202717D1*
X2355500Y6195305D1*
X2333768D1*
X2319112Y6202717D1*
X2304456Y6217205D1*
X2257397Y6348437D2*
Y6195305D1*
X2184453Y6297393D2*
X2257397Y6224449D1*
X2228253Y6253593D2*
X2177210Y6195305D1*
X2130151Y6297393D2*
Y6144261D1*
Y6275493D2*
X2115495Y6289980D1*
X2101007Y6297393D1*
X2079107D1*
X2064451Y6289980D1*
X2049963Y6275493D1*
X2042551Y6253593D1*
Y6238937D1*
X2049963Y6217205D1*
X2064451Y6202549D1*
X2079107Y6195305D1*
X2101007D1*
X2115495Y6202549D1*
X2130151Y6217205D1*
X1995492Y6348437D2*
Y6195305D1*
X1861002Y6297393D2*
Y6195305D1*
Y6275493D2*
X1875489Y6290149D1*
X1890145Y6297393D1*
X1911877D1*
X1926533Y6290149D1*
X1941021Y6275493D1*
X1948433Y6253593D1*
Y6239105D1*
X1941021Y6217205D1*
X1926533Y6202717D1*
X1911877Y6195305D1*
X1890145D1*
X1875489Y6202717D1*
X1861002Y6217205D1*
X1813943Y6297393D2*
Y6195305D1*
Y6268249D2*
X1792043Y6290149D1*
X1777387Y6297393D1*
X1755655D1*
X1740999Y6290149D1*
X1733755Y6268249D1*
Y6195305D1*
X1686696Y6253593D2*
X1599265D1*
Y6268249D1*
X1606509Y6282905D1*
X1613752Y6290149D1*
X1628409Y6297393D1*
X1650309D1*
X1664796Y6290149D1*
X1679452Y6275493D1*
X1686696Y6253593D1*
Y6239105D1*
X1679452Y6217205D1*
X1664796Y6202717D1*
X1650309Y6195305D1*
X1628409D1*
X1613752Y6202717D1*
X1599265Y6217205D1*
X2464975Y8253437D2*
Y8100305D1*
X2399275D1*
X2377375Y8107717D1*
X2370131Y8114961D1*
X2362888Y8129449D1*
Y8151349D1*
X2370131Y8166005D1*
X2377375Y8173249D1*
X2399275Y8180493D1*
X2377375Y8187905D1*
X2370131Y8195149D1*
X2362888Y8209637D1*
Y8224293D1*
X2370131Y8238780D1*
X2377375Y8246193D1*
X2399275Y8253437D1*
X2464975D1*
Y8180493D2*
X2399275D1*
X2228397Y8202393D2*
Y8100305D1*
Y8180493D2*
X2242885Y8195149D1*
X2257541Y8202393D1*
X2279273D1*
X2293929Y8195149D1*
X2308416Y8180493D1*
X2315829Y8158593D1*
Y8144105D1*
X2308416Y8122205D1*
X2293929Y8107717D1*
X2279273Y8100305D1*
X2257541D1*
X2242885Y8107717D1*
X2228397Y8122205D1*
X2093738Y8180493D2*
X2108395Y8195149D1*
X2123051Y8202393D1*
X2144782D1*
X2159438Y8195149D1*
X2173926Y8180493D1*
X2181338Y8158593D1*
Y8144105D1*
X2173926Y8122205D1*
X2159438Y8107717D1*
X2144782Y8100305D1*
X2123051D1*
X2108395Y8107717D1*
X2093738Y8122205D1*
X2046680Y8253437D2*
Y8100305D1*
X1973736Y8202393D2*
X2046680Y8129449D1*
X2017536Y8158593D2*
X1966492Y8100305D1*
X1919433Y8202393D2*
Y8049261D1*
Y8180493D2*
X1904777Y8194980D1*
X1890289Y8202393D1*
X1868389D1*
X1853733Y8194980D1*
X1839245Y8180493D1*
X1831833Y8158593D1*
Y8143937D1*
X1839245Y8122205D1*
X1853733Y8107549D1*
X1868389Y8100305D1*
X1890289D1*
X1904777Y8107549D1*
X1919433Y8122205D1*
X1784774Y8253437D2*
Y8100305D1*
X1650284Y8202393D2*
Y8100305D1*
Y8180493D2*
X1664772Y8195149D1*
X1679428Y8202393D1*
X1701159D1*
X1715815Y8195149D1*
X1730303Y8180493D1*
X1737715Y8158593D1*
Y8144105D1*
X1730303Y8122205D1*
X1715815Y8107717D1*
X1701159Y8100305D1*
X1679428D1*
X1664772Y8107717D1*
X1650284Y8122205D1*
X1603225Y8202393D2*
Y8100305D1*
Y8173249D2*
X1581325Y8195149D1*
X1566669Y8202393D1*
X1544937D1*
X1530281Y8195149D1*
X1523037Y8173249D1*
Y8100305D1*
X1475979Y8158593D2*
X1388547D1*
Y8173249D1*
X1395791Y8187905D1*
X1403035Y8195149D1*
X1417691Y8202393D1*
X1439591D1*
X1454079Y8195149D1*
X1468735Y8180493D1*
X1475979Y8158593D1*
Y8144105D1*
X1468735Y8122205D1*
X1454079Y8107717D1*
X1439591Y8100305D1*
X1417691D1*
X1403035Y8107717D1*
X1388547Y8122205D1*
X1193352Y8253437D2*
Y8100305D1*
X1127652D1*
X1105752Y8107717D1*
X1098509Y8114961D1*
X1091265Y8129449D1*
Y8151349D1*
X1098509Y8166005D1*
X1105752Y8173249D1*
X1127652Y8180493D1*
X1105752Y8187905D1*
X1098509Y8195149D1*
X1091265Y8209637D1*
Y8224293D1*
X1098509Y8238780D1*
X1105752Y8246193D1*
X1127652Y8253437D1*
X1193352D1*
Y8180493D2*
X1127652D1*
X3413949Y6103052D2*
D45*
X3365375Y5975442D1*
X3316802Y6103052D1*
X3271410Y6072588D2*
Y6078625D1*
X3265373Y6090838D1*
X3259337Y6096875D1*
X3247123Y6102911D1*
X3222837D1*
X3210764Y6096875D1*
X3204727Y6090838D1*
X3198550Y6078625D1*
Y6066552D1*
X3204727Y6054338D1*
X3216800Y6036229D1*
X3277587Y5975442D1*
X3192514D1*
X3147261Y5987655D2*
X3153298Y5981479D1*
X3147261Y5975442D1*
X3141084Y5981479D1*
X3147261Y5987655D1*
X3065369Y6102911D2*
X3083619Y6096875D1*
X3095832Y6078625D1*
X3101869Y6048302D1*
Y6030052D1*
X3095832Y5999729D1*
X3083619Y5981479D1*
X3065369Y5975442D1*
X3053296D1*
X3035046Y5981479D1*
X3022973Y5999729D1*
X3016796Y6030052D1*
Y6048302D1*
X3022973Y6078625D1*
X3035046Y6096875D1*
X3053296Y6102911D1*
X3065369D1*
X3022973Y6078625D2*
X3095832Y5999729D1*
X2941080Y6102911D2*
X2959330Y6096875D1*
X2971543Y6078625D1*
X2977580Y6048302D1*
Y6030052D1*
X2971543Y5999729D1*
X2959330Y5981479D1*
X2941080Y5975442D1*
X2929007D1*
X2910757Y5981479D1*
X2898684Y5999729D1*
X2892507Y6030052D1*
Y6048302D1*
X2898684Y6078625D1*
X2910757Y6096875D1*
X2929007Y6102911D1*
X2941080D1*
X2898684Y6078625D2*
X2971543Y5999729D1*
X2669058Y6103052D2*
Y6005905D1*
X2675095Y5987655D1*
X2681272Y5981619D1*
X2693345Y5975442D1*
X2705558D1*
X2717631Y5981619D1*
X2723668Y5987655D1*
X2729845Y6005905D1*
Y6017979D1*
X2629843Y6060515D2*
Y5999729D1*
X2623806Y5981619D1*
X2611593Y5975442D1*
X2593343D1*
X2581269Y5981619D1*
X2563019Y5999729D1*
Y6060515D2*
Y5975442D1*
X2523804Y6060515D2*
Y5975442D1*
Y6036229D2*
X2505554Y6054479D1*
X2493340Y6060515D1*
X2475231D1*
X2463017Y6054479D1*
X2456981Y6036229D1*
Y5975442D1*
X2417765Y6024015D2*
X2344905D1*
Y6036229D1*
X2350942Y6048442D1*
X2356979Y6054479D1*
X2369192Y6060515D1*
X2387442D1*
X2399515Y6054479D1*
X2411729Y6042265D1*
X2417765Y6024015D1*
Y6011942D1*
X2411729Y5993692D1*
X2399515Y5981619D1*
X2387442Y5975442D1*
X2369192D1*
X2356979Y5981619D1*
X2344905Y5993692D1*
X2176066Y6072588D2*
Y6078625D1*
X2170030Y6090838D1*
X2163993Y6096875D1*
X2151780Y6102911D1*
X2127493D1*
X2115420Y6096875D1*
X2109384Y6090838D1*
X2103207Y6078625D1*
Y6066552D1*
X2109384Y6054338D1*
X2121457Y6036229D1*
X2182243Y5975442D1*
X2097170D1*
X2021455Y6102911D2*
X2039705Y6096875D1*
X2051918Y6078625D1*
X2057955Y6048302D1*
Y6030052D1*
X2051918Y5999729D1*
X2039705Y5981479D1*
X2021455Y5975442D1*
X2009381D1*
X1991131Y5981479D1*
X1979058Y5999729D1*
X1972881Y6030052D1*
Y6048302D1*
X1979058Y6078625D1*
X1991131Y6096875D1*
X2009381Y6102911D1*
X2021455D1*
X1979058Y6078625D2*
X2051918Y5999729D1*
X1927489Y6072588D2*
Y6078625D1*
X1921452Y6090838D1*
X1915416Y6096875D1*
X1903202Y6102911D1*
X1878916D1*
X1866843Y6096875D1*
X1860806Y6090838D1*
X1854629Y6078625D1*
Y6066552D1*
X1860806Y6054338D1*
X1872879Y6036229D1*
X1933666Y5975442D1*
X1848593D1*
X1797164Y6102911D2*
X1730481D1*
X1766840Y6054338D1*
X1748590D1*
X1736517Y6048302D1*
X1730481Y6042265D1*
X1724304Y6024015D1*
Y6011942D1*
X1730481Y5993692D1*
X1742554Y5981479D1*
X1760804Y5975442D1*
X1779054D1*
X1797164Y5981479D1*
X1803200Y5987655D1*
X1809377Y5999729D1*
X3258731Y5755229D2*
X3264767Y5767302D1*
X3276981Y5779515D1*
X3289054Y5785552D1*
X3313340D1*
X3325554Y5779515D1*
X3337627Y5767302D1*
X3343804Y5755229D1*
X3349840Y5736979D1*
Y5706515D1*
X3343804Y5688405D1*
X3337627Y5676192D1*
X3325554Y5664119D1*
X3313340Y5657942D1*
X3289054D1*
X3276981Y5664119D1*
X3264767Y5676192D1*
X3258731Y5688405D1*
X3189192Y5743015D2*
X3201265Y5736979D1*
X3213479Y5724765D1*
X3219515Y5706515D1*
Y5694442D1*
X3213479Y5676192D1*
X3201265Y5664119D1*
X3189192Y5657942D1*
X3170942D1*
X3158729Y5664119D1*
X3146656Y5676192D1*
X3140479Y5694442D1*
Y5706515D1*
X3146656Y5724765D1*
X3158729Y5736979D1*
X3170942Y5743015D1*
X3189192D1*
X3101263D2*
Y5615405D1*
Y5724765D2*
X3089050Y5736838D1*
X3076976Y5743015D1*
X3058726D1*
X3046513Y5736838D1*
X3034440Y5724765D1*
X3028263Y5706515D1*
Y5694302D1*
X3034440Y5676192D1*
X3046513Y5663979D1*
X3058726Y5657942D1*
X3076976D1*
X3089050Y5663979D1*
X3101263Y5676192D1*
X2982870Y5743015D2*
X2946511Y5657942D1*
X2958584Y5633655D1*
X2970797Y5621442D1*
X2982870Y5615405D1*
X2989047D1*
X2910011Y5743015D2*
X2946511Y5657942D1*
X2870795Y5743015D2*
Y5657942D1*
Y5706515D2*
X2864618Y5724765D1*
X2852545Y5736979D1*
X2840332Y5743015D1*
X2822082D1*
X2782866Y5785552D2*
X2776829Y5779515D1*
X2770652Y5785552D1*
X2776829Y5791729D1*
X2782866Y5785552D1*
X2776829Y5743015D2*
Y5657942D1*
X2658577Y5736979D2*
Y5639692D1*
X2664614Y5621582D1*
X2670650Y5615405D1*
X2682864Y5609369D1*
X2701114D1*
X2713187Y5615405D1*
X2658577Y5718729D2*
X2670650Y5730802D1*
X2682864Y5736979D1*
X2701114D1*
X2713187Y5730802D1*
X2725400Y5718729D1*
X2731437Y5700479D1*
Y5688265D1*
X2725400Y5670155D1*
X2713187Y5657942D1*
X2701114Y5651905D1*
X2682864D1*
X2670650Y5657942D1*
X2658577Y5670155D1*
X2619361Y5785552D2*
Y5657942D1*
Y5718729D2*
X2601111Y5736979D1*
X2588898Y5743015D1*
X2570648D1*
X2558575Y5736979D1*
X2552538Y5718729D1*
Y5657942D1*
X2495073Y5785552D2*
Y5682229D1*
X2489036Y5664119D1*
X2476823Y5657942D1*
X2464750D1*
X2513323Y5743015D2*
X2470786D1*
X2259551Y5818823D2*
X2271764Y5806750D1*
X2283837Y5788500D1*
X2296051Y5764213D1*
X2302087Y5733750D1*
Y5709463D1*
X2296051Y5679140D1*
X2283837Y5654854D1*
X2271764Y5636604D1*
X2259551Y5624530D1*
X2147335Y5724765D2*
X2159549Y5736979D1*
X2171762Y5743015D1*
X2189872D1*
X2202085Y5736979D1*
X2214158Y5724765D1*
X2220335Y5706515D1*
Y5694442D1*
X2214158Y5676192D1*
X2202085Y5664119D1*
X2189872Y5657942D1*
X2171762D1*
X2159549Y5664119D1*
X2147335Y5676192D1*
X2108120Y5818823D2*
X2095906Y5806750D1*
X2083833Y5788500D1*
X2071620Y5764213D1*
X2065583Y5733750D1*
Y5709463D1*
X2071620Y5679140D1*
X2083833Y5654854D1*
X2095906Y5636604D1*
X2108120Y5624530D1*
X1805634Y5657942D2*
X1854348Y5785552D1*
X1902921Y5657942D1*
X1884671Y5700479D2*
X1823884D1*
X1766419Y5785552D2*
Y5657942D1*
X1721026Y5743015D2*
X1684666Y5657942D1*
X1696740Y5633655D1*
X1708953Y5621442D1*
X1721026Y5615405D1*
X1727203D1*
X1648166Y5743015D2*
X1684666Y5657942D1*
X1542128Y5724765D2*
X1548164Y5736979D1*
X1566414Y5743015D1*
X1584664D1*
X1602914Y5736979D1*
X1608951Y5724765D1*
X1602914Y5712692D1*
X1590701Y5706515D1*
X1560378Y5700479D1*
X1548164Y5694442D1*
X1542128Y5682229D1*
Y5676192D1*
X1548164Y5664119D1*
X1566414Y5657942D1*
X1584664D1*
X1602914Y5664119D1*
X1608951Y5676192D1*
X1436089Y5724765D2*
X1442125Y5736979D1*
X1460375Y5743015D1*
X1478625D1*
X1496875Y5736979D1*
X1502912Y5724765D1*
X1496875Y5712692D1*
X1484662Y5706515D1*
X1454339Y5700479D1*
X1442125Y5694442D1*
X1436089Y5682229D1*
Y5676192D1*
X1442125Y5664119D1*
X1460375Y5657942D1*
X1478625D1*
X1496875Y5664119D1*
X1502912Y5676192D1*
X1366550Y5743015D2*
X1378623Y5736979D1*
X1390837Y5724765D1*
X1396873Y5706515D1*
Y5694442D1*
X1390837Y5676192D1*
X1378623Y5664119D1*
X1366550Y5657942D1*
X1348300D1*
X1336087Y5664119D1*
X1324014Y5676192D1*
X1317837Y5694442D1*
Y5706515D1*
X1324014Y5724765D1*
X1336087Y5736979D1*
X1348300Y5743015D1*
X1366550D1*
X1278621D2*
Y5657942D1*
Y5718729D2*
X1260371Y5736979D1*
X1248158Y5743015D1*
X1230048D1*
X1217834Y5736979D1*
X1211798Y5718729D1*
Y5657942D1*
X1049136Y5724765D2*
X994526D1*
X976276Y5730942D1*
X970099Y5736979D1*
X964063Y5749052D1*
Y5761265D1*
X970099Y5773338D1*
X976276Y5779515D1*
X994526Y5785552D1*
X1049136D1*
Y5657942D1*
X1006599Y5724765D2*
X964063Y5657942D1*
X894524Y5743015D2*
X906597Y5736979D1*
X918810Y5724765D1*
X924847Y5706515D1*
Y5694442D1*
X918810Y5676192D1*
X906597Y5664119D1*
X894524Y5657942D1*
X876274D1*
X864060Y5664119D1*
X851987Y5676192D1*
X845810Y5694442D1*
Y5706515D1*
X851987Y5724765D1*
X864060Y5736979D1*
X876274Y5743015D1*
X894524D1*
X806595D2*
X782308Y5657942D1*
X758022Y5743015D1*
X733735Y5657942D1*
X709449Y5743015D1*
X597373D2*
Y5657942D1*
Y5724765D2*
X609446Y5736979D1*
X621660Y5743015D1*
X639769D1*
X651983Y5736979D1*
X664056Y5724765D1*
X670233Y5706515D1*
Y5694442D1*
X664056Y5676192D1*
X651983Y5664119D1*
X639769Y5657942D1*
X621660D1*
X609446Y5664119D1*
X597373Y5676192D1*
X558158Y5743015D2*
Y5657942D1*
Y5718729D2*
X539908Y5736979D1*
X527694Y5743015D1*
X509585D1*
X497371Y5736979D1*
X491335Y5718729D1*
Y5657942D1*
X439905Y5663979D2*
X446082Y5657942D1*
X452119Y5663979D1*
X446082Y5670155D1*
X439905Y5663979D1*
Y5651905D1*
X446082Y5639692D1*
X452119Y5633655D1*
X271066Y5755088D2*
Y5761125D1*
X265030Y5773338D1*
X258993Y5779375D1*
X246780Y5785411D1*
X222493D1*
X210420Y5779375D1*
X204384Y5773338D1*
X198207Y5761125D1*
Y5749052D1*
X204384Y5736838D1*
X216457Y5718729D1*
X277243Y5657942D1*
X192170D1*
X116455Y5785411D2*
X134705Y5779375D1*
X146918Y5761125D1*
X152955Y5730802D1*
Y5712552D1*
X146918Y5682229D1*
X134705Y5663979D1*
X116455Y5657942D1*
X104381D1*
X86131Y5663979D1*
X74058Y5682229D1*
X67881Y5712552D1*
Y5730802D1*
X74058Y5761125D1*
X86131Y5779375D1*
X104381Y5785411D1*
X116455D1*
X74058Y5761125D2*
X146918Y5682229D1*
X22489Y5755088D2*
Y5761125D1*
X16452Y5773338D1*
X10416Y5779375D1*
X-1798Y5785411D1*
X-26084D1*
X-38157Y5779375D1*
X-44194Y5773338D1*
X-50371Y5761125D1*
Y5749052D1*
X-44194Y5736838D1*
X-32121Y5718729D1*
X28666Y5657942D1*
X-56407D1*
X-107836Y5785411D2*
X-174519D1*
X-138160Y5736838D1*
X-156410D1*
X-168483Y5730802D1*
X-174519Y5724765D1*
X-180696Y5706515D1*
Y5694442D1*
X-174519Y5676192D1*
X-162446Y5663979D1*
X-144196Y5657942D1*
X-125946D1*
X-107836Y5663979D1*
X-101800Y5670155D1*
X-95623Y5682229D1*
X3600590Y5159163D2*
D46*
Y5057076D1*
Y5105705D2*
X3585990Y5120305D1*
X3576219Y5125134D1*
X3561619D1*
X3551961Y5120305D1*
X3547132Y5105705D1*
Y5057076D1*
X3501159Y5159163D2*
Y5076505D1*
X3496330Y5062017D1*
X3486559Y5057076D1*
X3476901D1*
X3515759Y5125134D2*
X3481730D1*
X3430928Y5159163D2*
Y5076505D1*
X3426099Y5062017D1*
X3416328Y5057076D1*
X3406670D1*
X3445528Y5125134D2*
X3411499D1*
X3375297D2*
Y5023046D1*
Y5110534D2*
X3365526Y5120193D1*
X3355868Y5125134D1*
X3341268D1*
X3331497Y5120193D1*
X3321839Y5110534D1*
X3316897Y5095934D1*
Y5086163D1*
X3321839Y5071676D1*
X3331497Y5061905D1*
X3341268Y5057076D1*
X3355868D1*
X3365526Y5061905D1*
X3375297Y5071676D1*
X3232066Y5110534D2*
X3236895Y5120305D1*
X3251495Y5125134D1*
X3266095D1*
X3280695Y5120305D1*
X3285524Y5110534D1*
X3280695Y5100876D1*
X3270924Y5095934D1*
X3246666Y5091105D1*
X3236895Y5086276D1*
X3232066Y5076505D1*
Y5071676D1*
X3236895Y5062017D1*
X3251495Y5057076D1*
X3266095D1*
X3280695Y5062017D1*
X3285524Y5071676D1*
X3195752Y5125134D2*
X3200693Y5120193D1*
X3195752Y5115363D1*
X3190923Y5120193D1*
X3195752Y5125134D1*
Y5066846D2*
X3200693Y5061905D1*
X3195752Y5057076D1*
X3190923Y5061905D1*
X3195752Y5066846D1*
X3159550Y5057076D2*
X3091492Y5159051D1*
X3060119Y5057076D2*
X2992061Y5159051D1*
X2902400Y5120305D2*
Y5042476D1*
X2907230Y5027988D1*
X2912059Y5023046D1*
X2921830Y5018217D1*
X2936430D1*
X2946088Y5023046D1*
X2902400Y5105705D2*
X2912059Y5115363D1*
X2921830Y5120305D1*
X2936430D1*
X2946088Y5115363D1*
X2955859Y5105705D1*
X2960688Y5091105D1*
Y5081334D1*
X2955859Y5066846D1*
X2946088Y5057076D1*
X2936430Y5052246D1*
X2921830D1*
X2912059Y5057076D1*
X2902400Y5066846D1*
X2871028Y5159163D2*
X2866199Y5154334D1*
X2861257Y5159163D1*
X2866199Y5164105D1*
X2871028Y5159163D1*
X2866199Y5125134D2*
Y5057076D1*
X2815285Y5159163D2*
Y5076505D1*
X2810455Y5062017D1*
X2800685Y5057076D1*
X2791026D1*
X2829885Y5125134D2*
X2795855D1*
X2759654Y5159163D2*
Y5057076D1*
Y5105705D2*
X2745054Y5120305D1*
X2735283Y5125134D1*
X2720683D1*
X2711024Y5120305D1*
X2706195Y5105705D1*
Y5057076D1*
X2674823Y5125134D2*
Y5076505D1*
X2669993Y5062017D1*
X2660223Y5057076D1*
X2645623D1*
X2635964Y5062017D1*
X2621364Y5076505D1*
Y5125134D2*
Y5057076D1*
X2589991Y5159163D2*
Y5057076D1*
Y5110534D2*
X2580221Y5120305D1*
X2570562Y5125134D1*
X2555962D1*
X2546304Y5120305D1*
X2536533Y5110534D1*
X2531704Y5095934D1*
Y5086276D1*
X2536533Y5071676D1*
X2546304Y5062017D1*
X2555962Y5057076D1*
X2570562D1*
X2580221Y5062017D1*
X2589991Y5071676D1*
X2495502Y5066846D2*
X2500331Y5061905D1*
X2495502Y5057076D1*
X2490560Y5061905D1*
X2495502Y5066846D1*
X2400788Y5110534D2*
X2410559Y5120305D1*
X2420329Y5125134D1*
X2434817D1*
X2444588Y5120305D1*
X2454246Y5110534D1*
X2459188Y5095934D1*
Y5086276D1*
X2454246Y5071676D1*
X2444588Y5062017D1*
X2434817Y5057076D1*
X2420329D1*
X2410559Y5062017D1*
X2400788Y5071676D1*
X2345157Y5125134D2*
X2354815Y5120305D1*
X2364586Y5110534D1*
X2369415Y5095934D1*
Y5086276D1*
X2364586Y5071676D1*
X2354815Y5062017D1*
X2345157Y5057076D1*
X2330557D1*
X2320786Y5062017D1*
X2311128Y5071676D1*
X2306186Y5086276D1*
Y5095934D1*
X2311128Y5110534D1*
X2320786Y5120305D1*
X2330557Y5125134D1*
X2345157D1*
X2274814D2*
Y5057076D1*
Y5105705D2*
X2260214Y5120305D1*
X2250443Y5125134D1*
X2235955D1*
X2226184Y5120305D1*
X2221355Y5105705D1*
Y5057076D1*
Y5105705D2*
X2206755Y5120305D1*
X2196984Y5125134D1*
X2182497D1*
X2172726Y5120305D1*
X2167784Y5105705D1*
Y5057076D1*
X2136412D2*
X2068353Y5159051D1*
X1959152Y5057076D2*
X1998122Y5159163D1*
X2036981Y5057076D1*
X2022381Y5091105D2*
X1973752D1*
X1927779Y5159163D2*
Y5057076D1*
X1891465Y5125134D2*
X1862377Y5057076D1*
X1872036Y5037646D1*
X1881806Y5027876D1*
X1891465Y5023046D1*
X1896406D1*
X1833177Y5125134D2*
X1862377Y5057076D1*
X1748346Y5110534D2*
X1753175Y5120305D1*
X1767775Y5125134D1*
X1782375D1*
X1796975Y5120305D1*
X1801805Y5110534D1*
X1796975Y5100876D1*
X1787205Y5095934D1*
X1762946Y5091105D1*
X1753175Y5086276D1*
X1748346Y5076505D1*
Y5071676D1*
X1753175Y5062017D1*
X1767775Y5057076D1*
X1782375D1*
X1796975Y5062017D1*
X1801805Y5071676D1*
X1663515Y5110534D2*
X1668344Y5120305D1*
X1682944Y5125134D1*
X1697544D1*
X1712144Y5120305D1*
X1716974Y5110534D1*
X1712144Y5100876D1*
X1702374Y5095934D1*
X1678115Y5091105D1*
X1668344Y5086276D1*
X1663515Y5076505D1*
Y5071676D1*
X1668344Y5062017D1*
X1682944Y5057076D1*
X1697544D1*
X1712144Y5062017D1*
X1716974Y5071676D1*
X1607884Y5125134D2*
X1617543Y5120305D1*
X1627313Y5110534D1*
X1632143Y5095934D1*
Y5086276D1*
X1627313Y5071676D1*
X1617543Y5062017D1*
X1607884Y5057076D1*
X1593284D1*
X1583513Y5062017D1*
X1573855Y5071676D1*
X1568913Y5086276D1*
Y5095934D1*
X1573855Y5110534D1*
X1583513Y5120305D1*
X1593284Y5125134D1*
X1607884D1*
X1537541D2*
Y5057076D1*
Y5105705D2*
X1522941Y5120305D1*
X1513170Y5125134D1*
X1498682D1*
X1488912Y5120305D1*
X1484082Y5105705D1*
Y5057076D1*
X1452710Y5110534D2*
X1409022D1*
X1394422Y5115476D1*
X1389481Y5120305D1*
X1384651Y5129963D1*
Y5139734D1*
X1389481Y5149393D1*
X1394422Y5154334D1*
X1409022Y5159163D1*
X1452710D1*
Y5057076D1*
X1418681Y5110534D2*
X1384651Y5057076D1*
X1329020Y5125134D2*
X1338679Y5120305D1*
X1348450Y5110534D1*
X1353279Y5095934D1*
Y5086276D1*
X1348450Y5071676D1*
X1338679Y5062017D1*
X1329020Y5057076D1*
X1314420D1*
X1304650Y5062017D1*
X1294991Y5071676D1*
X1290050Y5086276D1*
Y5095934D1*
X1294991Y5110534D1*
X1304650Y5120305D1*
X1314420Y5125134D1*
X1329020D1*
X1258677D2*
X1239248Y5057076D1*
X1219819Y5125134D1*
X1200389Y5057076D1*
X1180960Y5125134D1*
X1091300D2*
Y5057076D1*
Y5110534D2*
X1100958Y5120305D1*
X1110729Y5125134D1*
X1125217D1*
X1134988Y5120305D1*
X1144646Y5110534D1*
X1149588Y5095934D1*
Y5086276D1*
X1144646Y5071676D1*
X1134988Y5062017D1*
X1125217Y5057076D1*
X1110729D1*
X1100958Y5062017D1*
X1091300Y5071676D1*
X1059927Y5125134D2*
Y5057076D1*
Y5105705D2*
X1045327Y5120305D1*
X1035557Y5125134D1*
X1021069D1*
X1011298Y5120305D1*
X1006469Y5105705D1*
Y5057076D1*
X975096D2*
X907038Y5159051D1*
X797948Y5057076D2*
Y5159163D1*
X836807Y5057076D1*
X875665Y5159163D1*
Y5057076D1*
X693688Y5134905D2*
X698517Y5144563D1*
X708288Y5154334D1*
X717947Y5159163D1*
X737376D1*
X747147Y5154334D1*
X756805Y5144563D1*
X761747Y5134905D1*
X766576Y5120305D1*
Y5095934D1*
X761747Y5081446D1*
X756805Y5071676D1*
X747147Y5062017D1*
X737376Y5057076D1*
X717947D1*
X708288Y5062017D1*
X698517Y5071676D1*
X693688Y5081446D1*
X594257Y5144563D2*
X603916Y5154334D1*
X618516Y5159163D1*
X637945D1*
X652545Y5154334D1*
X662316Y5144563D1*
Y5134905D1*
X657374Y5125134D1*
X652545Y5120305D1*
X642886Y5115476D1*
X613686Y5105705D1*
X603916Y5100876D1*
X599086Y5095934D1*
X594257Y5086276D1*
Y5071676D1*
X603916Y5062017D1*
X618516Y5057076D1*
X637945D1*
X652545Y5062017D1*
X662316Y5071676D1*
X562885Y5108063D2*
X506731D1*
X417071Y5159051D2*
X465587D1*
X470417Y5115363D1*
X465587Y5120193D1*
X450987Y5125134D1*
X436500D1*
X421900Y5120193D1*
X412129Y5110534D1*
X407300Y5095934D1*
Y5086276D1*
X412129Y5071676D1*
X421900Y5061905D1*
X436500Y5057076D1*
X450987D1*
X465587Y5061905D1*
X470417Y5066846D1*
X475358Y5076505D1*
X375927Y5139622D2*
X366156Y5144563D1*
X351556Y5159051D1*
Y5057076D1*
X320184Y5108063D2*
X264030D1*
X154941Y5057076D2*
Y5159163D1*
X193799Y5057076D1*
X232658Y5159163D1*
Y5057076D1*
X99310Y5125134D2*
X108968Y5120305D1*
X118739Y5110534D1*
X123568Y5095934D1*
Y5086276D1*
X118739Y5071676D1*
X108968Y5062017D1*
X99310Y5057076D1*
X84710D1*
X74939Y5062017D1*
X65280Y5071676D1*
X60339Y5086276D1*
Y5095934D1*
X65280Y5110534D1*
X74939Y5120305D1*
X84710Y5125134D1*
X99310D1*
X-29321Y5159163D2*
Y5057076D1*
Y5110534D2*
X-19663Y5120305D1*
X-9892Y5125134D1*
X4708D1*
X14366Y5120305D1*
X24137Y5110534D1*
X28966Y5095934D1*
Y5086276D1*
X24137Y5071676D1*
X14366Y5062017D1*
X4708Y5057076D1*
X-9892D1*
X-19663Y5062017D1*
X-29321Y5071676D1*
X-60694Y5125134D2*
Y5076505D1*
X-65523Y5062017D1*
X-75294Y5057076D1*
X-89894D1*
X-99552Y5062017D1*
X-114152Y5076505D1*
Y5125134D2*
Y5057076D1*
X-145525Y5159163D2*
Y5057076D1*
X-235185Y5125134D2*
Y5057076D1*
Y5110534D2*
X-225527Y5120305D1*
X-215756Y5125134D1*
X-201268D1*
X-191498Y5120305D1*
X-181839Y5110534D1*
X-176898Y5095934D1*
Y5086276D1*
X-181839Y5071676D1*
X-191498Y5062017D1*
X-201268Y5057076D1*
X-215756D1*
X-225527Y5062017D1*
X-235185Y5071676D1*
X-266558Y5125134D2*
Y5057076D1*
Y5095934D2*
X-271499Y5110534D1*
X-281158Y5120305D1*
X-290929Y5125134D1*
X-305529D1*
X-336901Y5108063D2*
X-393055D1*
X-497315Y5134905D2*
X-492486Y5144563D1*
X-482715Y5154334D1*
X-473057Y5159163D1*
X-453627D1*
X-443857Y5154334D1*
X-434198Y5144563D1*
X-429257Y5134905D1*
X-424427Y5120305D1*
Y5095934D1*
X-429257Y5081446D1*
X-434198Y5071676D1*
X-443857Y5062017D1*
X-453627Y5057076D1*
X-473057D1*
X-482715Y5062017D1*
X-492486Y5071676D1*
X-497315Y5081446D1*
X-552946Y5125134D2*
X-543288Y5120305D1*
X-533517Y5110534D1*
X-528688Y5095934D1*
Y5086276D1*
X-533517Y5071676D1*
X-543288Y5062017D1*
X-552946Y5057076D1*
X-567546D1*
X-577317Y5062017D1*
X-586975Y5071676D1*
X-591917Y5086276D1*
Y5095934D1*
X-586975Y5110534D1*
X-577317Y5120305D1*
X-567546Y5125134D1*
X-552946D1*
X-623290D2*
Y5057076D1*
Y5105705D2*
X-637890Y5120305D1*
X-647660Y5125134D1*
X-662148D1*
X-671919Y5120305D1*
X-676748Y5105705D1*
Y5057076D1*
Y5105705D2*
X-691348Y5120305D1*
X-701119Y5125134D1*
X-715606D1*
X-725377Y5120305D1*
X-730319Y5105705D1*
Y5057076D1*
X-761691Y5125134D2*
Y5023046D1*
Y5110534D2*
X-771462Y5120193D1*
X-781121Y5125134D1*
X-795721D1*
X-805491Y5120193D1*
X-815150Y5110534D1*
X-820091Y5095934D1*
Y5086163D1*
X-815150Y5071676D1*
X-805491Y5061905D1*
X-795721Y5057076D1*
X-781121D1*
X-771462Y5061905D1*
X-761691Y5071676D1*
X-851464Y5125134D2*
Y5076505D1*
X-856293Y5062017D1*
X-866064Y5057076D1*
X-880664D1*
X-890322Y5062017D1*
X-904922Y5076505D1*
Y5125134D2*
Y5057076D1*
X-950895Y5159163D2*
Y5076505D1*
X-955724Y5062017D1*
X-965495Y5057076D1*
X-975153D1*
X-936295Y5125134D2*
X-970324D1*
X-1006526Y5095934D2*
X-1064814D1*
Y5105705D1*
X-1059984Y5115476D1*
X-1055155Y5120305D1*
X-1045384Y5125134D1*
X-1030784D1*
X-1021126Y5120305D1*
X-1011355Y5110534D1*
X-1006526Y5095934D1*
Y5086276D1*
X-1011355Y5071676D1*
X-1021126Y5062017D1*
X-1030784Y5057076D1*
X-1045384D1*
X-1055155Y5062017D1*
X-1064814Y5071676D1*
X-1096186Y5125134D2*
Y5057076D1*
Y5095934D2*
X-1101128Y5110534D1*
X-1110786Y5120305D1*
X-1120557Y5125134D1*
X-1135157D1*
M02*
