M48
METRIC,0000.00
T01C0.75
T02C1.0
T03C1.1
T04C1.25
T05C2.1
%
T01
X+003556Y+008051
X+003556Y+006083
X+003556Y+004114
X+003556Y+002146
X+003556Y+001193
X-001143Y+000812
X-001397Y+000812
X-001397Y+001193
X-001397Y+002159
X-001397Y+002527
X-001143Y+002527
X-001397Y+004114
X-001397Y+004495
X-001143Y+004495
X-001397Y+006096
X-001397Y+006464
X-001143Y+006464
X-001397Y+008051
X-001397Y+008432
X-001143Y+008432
T02
X-001397Y+007226
X-001143Y+007226
T03
X+000000Y+009230
X+000000Y+009484
X+000254Y+009484
X+000508Y+009484
X+000508Y+009230
X+000254Y+009230
X+000254Y+008813
X+000508Y+008813
X+000508Y+008559
X+000254Y+008559
X+000000Y+008559
X+000000Y+008813
X+000762Y+008813
X+000762Y+008559
X+001016Y+008559
X+001016Y+008813
X+001270Y+008813
X+001270Y+008559
X+001524Y+008559
X+001524Y+008813
X+001778Y+008813
X+001778Y+008559
X+002032Y+008559
X+002032Y+008813
X+002286Y+008813
X+002286Y+008559
X+002540Y+008559
X+002540Y+008813
X+002794Y+008813
X+002794Y+008559
X+003048Y+008559
X+003048Y+008813
X+003302Y+008813
X+003302Y+008559
X+003556Y+008559
X+003556Y+008813
X+003556Y+009230
X+003302Y+009230
X+003048Y+009230
X+003048Y+009484
X+003302Y+009484
X+003556Y+009484
X+002794Y+009484
X+002540Y+009484
X+002286Y+009484
X+002286Y+009230
X+002540Y+009230
X+002794Y+009230
X+002032Y+009230
X+001778Y+009230
X+001524Y+009230
X+001524Y+009484
X+001778Y+009484
X+002032Y+009484
X+001270Y+009484
X+001270Y+009230
X+001016Y+009230
X+001016Y+009484
X+000762Y+009484
X+000762Y+009230
X+000762Y+006845
X+000762Y+006591
X+001016Y+006591
X+001016Y+006845
X+001270Y+006845
X+001270Y+006591
X+001524Y+006591
X+001524Y+006845
X+001778Y+006845
X+001778Y+006591
X+002032Y+006591
X+002032Y+006845
X+002286Y+006845
X+002286Y+006591
X+002540Y+006591
X+002540Y+006845
X+002794Y+006845
X+002794Y+006591
X+003048Y+006591
X+003048Y+006845
X+003302Y+006845
X+003302Y+006591
X+003556Y+006591
X+003556Y+006845
X+003556Y+004876
X+003302Y+004876
X+003048Y+004876
X+003048Y+004622
X+003302Y+004622
X+003556Y+004622
X+002794Y+004622
X+002540Y+004622
X+002286Y+004622
X+002286Y+004876
X+002540Y+004876
X+002794Y+004876
X+002032Y+004876
X+001778Y+004876
X+001524Y+004876
X+001524Y+004622
X+001778Y+004622
X+002032Y+004622
X+001270Y+004622
X+001016Y+004622
X+001016Y+004876
X+000762Y+004876
X+000762Y+004622
X+000508Y+004622
X+000254Y+004622
X+000254Y+004876
X+000508Y+004876
X+000000Y+004876
X+000000Y+004622
X+001270Y+004876
X+000508Y+006591
X+000254Y+006591
X+000254Y+006845
X+000508Y+006845
X+000000Y+006845
X+000000Y+006591
X+000000Y+002908
X+000254Y+002908
X+000254Y+002654
X+000508Y+002654
X+000508Y+002908
X+000762Y+002908
X+000762Y+002654
X+001016Y+002654
X+001016Y+002908
X+001270Y+002908
X+001270Y+002654
X+001524Y+002654
X+001778Y+002654
X+001778Y+002908
X+001524Y+002908
X+002032Y+002908
X+002032Y+002654
X+002286Y+002654
X+002286Y+002908
X+002540Y+002908
X+002540Y+002654
X+002794Y+002654
X+002794Y+002908
X+003048Y+002908
X+003048Y+002654
X+003302Y+002654
X+003302Y+002908
X+003556Y+002908
X+003556Y+002654
X+003556Y+000939
X+003302Y+000939
X+003048Y+000939
X+003048Y+000685
X+003302Y+000685
X+003556Y+000685
X+003556Y+000254
X+003302Y+000254
X+003048Y+000254
X+003048Y+000000
X+003302Y+000000
X+003556Y+000000
X+002794Y+000000
X+002540Y+000000
X+002286Y+000000
X+002286Y+000254
X+002540Y+000254
X+002794Y+000254
X+002794Y+000685
X+002540Y+000685
X+002286Y+000685
X+002286Y+000939
X+002540Y+000939
X+002794Y+000939
X+002032Y+000939
X+001778Y+000939
X+001524Y+000939
X+001524Y+000685
X+001778Y+000685
X+002032Y+000685
X+002032Y+000254
X+001778Y+000254
X+001524Y+000254
X+001524Y+000000
X+001778Y+000000
X+002032Y+000000
X+001270Y+000000
X+001016Y+000000
X+000762Y+000000
X+000762Y+000254
X+001016Y+000254
X+001270Y+000254
X+001270Y+000685
X+001270Y+000939
X+001016Y+000939
X+001016Y+000685
X+000762Y+000685
X+000762Y+000939
X+000508Y+000939
X+000254Y+000939
X+000254Y+000685
X+000508Y+000685
X+000508Y+000254
X+000254Y+000254
X+000254Y+000000
X+000508Y+000000
X+000000Y-000000
X+000000Y+000254
X+000000Y+000685
X+000000Y+000939
X+000000Y+002654
T04
X-001397Y+009226
X-001143Y+009226
X-001143Y+000225
X-001397Y+000225
T05
X-000508Y+009398
X-000508Y+008509
X-000508Y+007496
X-000508Y+006604
X-000508Y+005463
X-000508Y+004572
X-000508Y+003559
X-000508Y+002667
X-000508Y+001527
X-000508Y+000889
X-000508Y+000129
T00
M30
