G04 DipTrace 4.3.0.5*
G04 TopMask.gbr*
%MOMM*%
G04 #@! TF.FileFunction,Soldermask,Top*
G04 #@! TF.Part,Single*
%ADD24C,1.7*%
%ADD30C,2.1*%
%ADD35C,4.2*%
%ADD37C,2.2*%
%ADD39R,2.2X2.2*%
%ADD42R,1.7X1.7*%
%ADD44C,1.9*%
%FSLAX35Y35*%
G04*
G71*
G90*
G75*
G01*
G04 TopMask*
%LPD*%
D44*
X0Y9229877D3*
Y9483877D3*
X254000Y9229877D3*
Y9483877D3*
X508000Y9229877D3*
Y9483877D3*
X762000Y9229877D3*
Y9483877D3*
X1016000Y9229877D3*
Y9483877D3*
X1270000Y9229877D3*
Y9483877D3*
X1524000Y9229877D3*
Y9483877D3*
X1778000Y9229877D3*
Y9483877D3*
X2032000Y9229877D3*
Y9483877D3*
X2286000Y9229877D3*
Y9483877D3*
X2540000Y9229877D3*
Y9483877D3*
X2794000Y9229877D3*
Y9483877D3*
X3048000Y9229877D3*
Y9483877D3*
X3302000Y9229877D3*
Y9483877D3*
X3556000Y9229877D3*
Y9483877D3*
D42*
X-1397000Y7225627D3*
D44*
X0Y8559127D3*
Y8813127D3*
X254000Y8559127D3*
Y8813127D3*
X508000Y8559127D3*
Y8813127D3*
X762000Y8559127D3*
Y8813127D3*
X1016000Y8559127D3*
Y8813127D3*
X1270000Y8559127D3*
Y8813127D3*
X1524000Y8559127D3*
Y8813127D3*
X1778000Y8559127D3*
Y8813127D3*
X2032000Y8559127D3*
Y8813127D3*
X2286000Y8559127D3*
Y8813127D3*
X2540000Y8559127D3*
Y8813127D3*
X2794000Y8559127D3*
Y8813127D3*
X3048000Y8559127D3*
Y8813127D3*
X3302000Y8559127D3*
Y8813127D3*
X3556000Y8559127D3*
Y8813127D3*
X0Y6590627D3*
Y6844627D3*
X254000Y6590627D3*
Y6844627D3*
X508000Y6590627D3*
Y6844627D3*
X762000Y6590627D3*
Y6844627D3*
X1016000Y6590627D3*
Y6844627D3*
X1270000Y6590627D3*
Y6844627D3*
X1524000Y6590627D3*
Y6844627D3*
X1778000Y6590627D3*
Y6844627D3*
X2032000Y6590627D3*
Y6844627D3*
X2286000Y6590627D3*
Y6844627D3*
X2540000Y6590627D3*
Y6844627D3*
X2794000Y6590627D3*
Y6844627D3*
X3048000Y6590627D3*
Y6844627D3*
X3302000Y6590627D3*
Y6844627D3*
X3556000Y6590627D3*
Y6844627D3*
X0Y4622127D3*
Y4876127D3*
X254000Y4622127D3*
Y4876127D3*
X508000Y4622127D3*
Y4876127D3*
X762000Y4622127D3*
Y4876127D3*
X1016000Y4622127D3*
Y4876127D3*
X1270000Y4622127D3*
Y4876127D3*
X1524000Y4622127D3*
Y4876127D3*
X1778000Y4622127D3*
Y4876127D3*
X2032000Y4622127D3*
Y4876127D3*
X2286000Y4622127D3*
Y4876127D3*
X2540000Y4622127D3*
Y4876127D3*
X2794000Y4622127D3*
Y4876127D3*
X3048000Y4622127D3*
Y4876127D3*
X3302000Y4622127D3*
Y4876127D3*
X3556000Y4622127D3*
Y4876127D3*
X0Y2653627D3*
Y2907627D3*
X254000Y2653627D3*
Y2907627D3*
X508000Y2653627D3*
Y2907627D3*
X762000Y2653627D3*
Y2907627D3*
X1016000Y2653627D3*
Y2907627D3*
X1270000Y2653627D3*
Y2907627D3*
X1524000Y2653627D3*
Y2907627D3*
X1778000Y2653627D3*
Y2907627D3*
X2032000Y2653627D3*
Y2907627D3*
X2286000Y2653627D3*
Y2907627D3*
X2540000Y2653627D3*
Y2907627D3*
X2794000Y2653627D3*
Y2907627D3*
X3048000Y2653627D3*
Y2907627D3*
X3302000Y2653627D3*
Y2907627D3*
X3556000Y2653627D3*
Y2907627D3*
X0Y685123D3*
Y939123D3*
X254000Y685123D3*
Y939123D3*
X508000Y685123D3*
Y939123D3*
X762000Y685123D3*
Y939123D3*
X1016000Y685123D3*
Y939123D3*
X1270000Y685123D3*
Y939123D3*
X1524000Y685123D3*
Y939123D3*
X1778000Y685123D3*
Y939123D3*
X2032000Y685123D3*
Y939123D3*
X2286000Y685123D3*
Y939123D3*
X2540000Y685123D3*
Y939123D3*
X2794000Y685123D3*
Y939123D3*
X3048000Y685123D3*
Y939123D3*
X3302000Y685123D3*
Y939123D3*
X3556000Y685123D3*
Y939123D3*
X0Y0D3*
Y254000D3*
X254000Y0D3*
Y254000D3*
X508000Y0D3*
Y254000D3*
X762000Y0D3*
Y254000D3*
X1016000Y0D3*
Y254000D3*
X1270000Y0D3*
Y254000D3*
X1524000Y0D3*
Y254000D3*
X1778000Y0D3*
Y254000D3*
X2032000Y0D3*
Y254000D3*
X2286000Y0D3*
Y254000D3*
X2540000Y0D3*
Y254000D3*
X2794000Y0D3*
Y254000D3*
X3048000Y0D3*
Y254000D3*
X3302000Y0D3*
Y254000D3*
X3556000Y0D3*
Y254000D3*
D24*
X-1143000Y7225627D3*
D39*
X-1397000Y9225877D3*
D37*
X-1143000D3*
D24*
X3556000Y8051123D3*
X-1397000Y6096000D3*
X3556000Y6082627D3*
X-1143000Y6463627D3*
D42*
X-1397000D3*
D24*
Y4114127D3*
X3556000D3*
X-1143000Y4495127D3*
D42*
X-1397000D3*
D24*
X3556000Y2145627D3*
X-1397000Y1193127D3*
X-1143000Y812127D3*
D42*
X-1397000D3*
D24*
Y8051123D3*
X-1143000Y8432127D3*
D42*
X-1397000D3*
D24*
Y2159000D3*
X-1143000Y2526623D3*
D42*
X-1397000D3*
D24*
X3556000Y1193127D3*
D39*
X-1397000Y224750D3*
D37*
X-1143000D3*
D35*
X-508000Y9398000D3*
Y7495503D3*
Y5463500D3*
Y3558503D3*
Y1526503D3*
Y129500D3*
D30*
Y889000D3*
Y2667000D3*
Y4572000D3*
Y6604000D3*
Y8509000D3*
M02*
