G04 DipTrace 4.3.0.5*
G04 TopSilk.gbr*
%MOMM*%
G04 #@! TF.FileFunction,Legend,Top*
G04 #@! TF.Part,Single*
%ADD10C,0.25*%
%ADD20C,0.175*%
%ADD21C,0.1*%
%ADD22C,0.3*%
%ADD45C,0.19608*%
%ADD46C,0.15686*%
%ADD49C,0.33333*%
%FSLAX35Y35*%
G04*
G71*
G90*
G75*
G01*
G04 TopSilk*
%LPD*%
X-127000Y9610877D2*
D10*
Y9102877D1*
X3683000D1*
Y9610877D1*
X-127000D1*
Y8940127D2*
Y8432127D1*
X3683000D1*
Y8940127D1*
X-127000D1*
Y6971627D2*
Y6463627D1*
X3683000D1*
Y6971627D1*
X-127000D1*
Y5003127D2*
Y4495127D1*
X3683000D1*
Y5003127D1*
X-127000D1*
Y3034627D2*
Y2526627D1*
X3683000D1*
Y3034627D1*
X-127000D1*
Y1066123D2*
Y558123D1*
X3683000D1*
Y1066123D1*
X-127000D1*
Y381000D2*
Y-127000D1*
X3683000D1*
Y381000D1*
X-127000D1*
X-1397000Y7543127D2*
D20*
Y7416127D1*
X-1524000Y7352627D2*
D21*
X-1016000D1*
Y7098623D1*
X-1524000D1*
Y7352627D1*
X-1460500Y7479627D2*
D20*
X-1333500D1*
X-1206500D2*
X-1079500D1*
X-1397000Y8051123D2*
D10*
X3556000D1*
X-1397000Y6082623D2*
X3556000D1*
X-1524000Y6463625D2*
D21*
G02X-1524000Y6463625I254000J0D01*
G01*
G36*
X-1174750Y6225500D2*
Y6701750D1*
X-1095377Y6654127D1*
X-1047750Y6590627D1*
X-1016000Y6511247D1*
Y6463627D1*
X-1031877Y6384247D1*
X-1047750Y6336623D1*
X-1095377Y6273123D1*
X-1127127Y6257250D1*
X-1143000Y6241373D1*
X-1174750Y6225500D1*
G37*
X-1397000Y4114123D2*
D10*
X3556000D1*
X-1524000Y4495125D2*
D21*
G02X-1524000Y4495125I254000J0D01*
G01*
G36*
X-1174750Y4257000D2*
Y4733250D1*
X-1095377Y4685627D1*
X-1047750Y4622127D1*
X-1016000Y4542747D1*
Y4495127D1*
X-1031877Y4415750D1*
X-1047750Y4368123D1*
X-1095377Y4304623D1*
X-1127127Y4288750D1*
X-1143000Y4272873D1*
X-1174750Y4257000D1*
G37*
X-1397000Y2145623D2*
D10*
X3556000D1*
X-1524000Y812125D2*
D21*
G02X-1524000Y812125I254000J0D01*
G01*
G36*
X-1174750Y573997D2*
Y1050250D1*
X-1095377Y1002623D1*
X-1047750Y939127D1*
X-1016000Y859750D1*
Y812127D1*
X-1031877Y732750D1*
X-1047750Y685127D1*
X-1095377Y621627D1*
X-1127127Y605747D1*
X-1143000Y589877D1*
X-1174750Y573997D1*
G37*
X-1524000Y8432125D2*
D21*
G02X-1524000Y8432125I254000J0D01*
G01*
G36*
X-1174750Y8194000D2*
Y8670250D1*
X-1095377Y8622627D1*
X-1047750Y8559127D1*
X-1016000Y8479747D1*
Y8432127D1*
X-1031877Y8352747D1*
X-1047750Y8305127D1*
X-1095377Y8241623D1*
X-1127127Y8225750D1*
X-1143000Y8209873D1*
X-1174750Y8194000D1*
G37*
X-1524000Y2526627D2*
D21*
G02X-1524000Y2526627I254000J0D01*
G01*
G36*
X-1174750Y2288500D2*
Y2764747D1*
X-1095377Y2717127D1*
X-1047750Y2653627D1*
X-1016000Y2574250D1*
Y2526623D1*
X-1031877Y2447250D1*
X-1047750Y2399623D1*
X-1095377Y2336123D1*
X-1127127Y2320250D1*
X-1143000Y2304377D1*
X-1174750Y2288500D1*
G37*
X-1397000Y1193123D2*
D10*
X3556000D1*
X-1524000Y9352877D2*
D21*
X-1016000D1*
Y9098877D1*
X-1524000D1*
Y9352877D1*
Y351750D2*
X-1016000D1*
Y97750D1*
X-1524000D1*
Y351750D1*
X-1397000Y9035373D2*
D20*
Y8908373D1*
X-1460500Y8971873D2*
X-1333500D1*
X-1206500D2*
X-1079500D1*
X-1397000Y510500D2*
Y383500D1*
X-1460500Y447000D2*
X-1333500D1*
X-1206500D2*
X-1079500D1*
X-1587500Y1066123D2*
Y939127D1*
X-1651000Y1002623D2*
X-1524000D1*
X-1587500Y2780627D2*
Y2653627D1*
X-1651000Y2717127D2*
X-1524000D1*
X-1587500Y4749127D2*
Y4622127D1*
X-1651000Y4685627D2*
X-1524000D1*
X-1587500Y6717627D2*
Y6590627D1*
X-1651000Y6654127D2*
X-1524000D1*
X-1587500Y8686127D2*
Y8559127D1*
X-1651000Y8622627D2*
X-1524000D1*
X-310000Y9667700D2*
D22*
Y-174000D1*
X-1252769Y8817905D2*
D46*
X-1257598Y8827563D1*
X-1267369Y8837334D1*
X-1277028Y8842163D1*
X-1296457D1*
X-1306228Y8837334D1*
X-1315886Y8827563D1*
X-1320828Y8817905D1*
X-1325657Y8803305D1*
Y8778934D1*
X-1320828Y8764446D1*
X-1315886Y8754676D1*
X-1306228Y8745017D1*
X-1296457Y8740076D1*
X-1277028D1*
X-1267369Y8745017D1*
X-1257598Y8754676D1*
X-1252769Y8764446D1*
X-1216455Y8817793D2*
Y8822622D1*
X-1211626Y8832393D1*
X-1206797Y8837222D1*
X-1197026Y8842051D1*
X-1177597D1*
X-1167938Y8837222D1*
X-1163109Y8832393D1*
X-1158167Y8822622D1*
Y8812963D1*
X-1163109Y8803193D1*
X-1172767Y8788705D1*
X-1221397Y8740076D1*
X-1153338D1*
X-1252769Y6849405D2*
X-1257598Y6859063D1*
X-1267369Y6868834D1*
X-1277028Y6873663D1*
X-1296457D1*
X-1306228Y6868834D1*
X-1315886Y6859063D1*
X-1320828Y6849405D1*
X-1325657Y6834805D1*
Y6810434D1*
X-1320828Y6795946D1*
X-1315886Y6786176D1*
X-1306228Y6776517D1*
X-1296457Y6771576D1*
X-1277028D1*
X-1267369Y6776517D1*
X-1257598Y6786176D1*
X-1252769Y6795946D1*
X-1211626Y6873551D2*
X-1158280D1*
X-1187367Y6834693D1*
X-1172767D1*
X-1163109Y6829863D1*
X-1158280Y6825034D1*
X-1153338Y6810434D1*
Y6800776D1*
X-1158280Y6786176D1*
X-1167938Y6776405D1*
X-1182538Y6771576D1*
X-1197138D1*
X-1211626Y6776405D1*
X-1216455Y6781346D1*
X-1221397Y6791005D1*
X-1252769Y2912408D2*
X-1257598Y2922067D1*
X-1267369Y2931837D1*
X-1277028Y2936667D1*
X-1296457D1*
X-1306228Y2931837D1*
X-1315886Y2922067D1*
X-1320828Y2912408D1*
X-1325657Y2897808D1*
Y2873437D1*
X-1320828Y2858950D1*
X-1315886Y2849179D1*
X-1306228Y2839520D1*
X-1296457Y2834579D1*
X-1277028D1*
X-1267369Y2839520D1*
X-1257598Y2849179D1*
X-1252769Y2858950D1*
X-1163109Y2936554D2*
X-1211626D1*
X-1216455Y2892867D1*
X-1211626Y2897696D1*
X-1197026Y2902637D1*
X-1182538D1*
X-1167938Y2897696D1*
X-1158167Y2888037D1*
X-1153338Y2873437D1*
Y2863779D1*
X-1158167Y2849179D1*
X-1167938Y2839408D1*
X-1182538Y2834579D1*
X-1197026D1*
X-1211626Y2839408D1*
X-1216455Y2844350D1*
X-1221397Y2854008D1*
X-1252769Y4880908D2*
X-1257598Y4890567D1*
X-1267369Y4900337D1*
X-1277028Y4905167D1*
X-1296457D1*
X-1306228Y4900337D1*
X-1315886Y4890567D1*
X-1320828Y4880908D1*
X-1325657Y4866308D1*
Y4841937D1*
X-1320828Y4827450D1*
X-1315886Y4817679D1*
X-1306228Y4808020D1*
X-1296457Y4803079D1*
X-1277028D1*
X-1267369Y4808020D1*
X-1257598Y4817679D1*
X-1252769Y4827450D1*
X-1172767Y4803079D2*
Y4905054D1*
X-1221397Y4837108D1*
X-1148509D1*
X-1570269Y626408D2*
X-1575098Y636067D1*
X-1584869Y645837D1*
X-1594528Y650667D1*
X-1613957D1*
X-1623728Y645837D1*
X-1633386Y636067D1*
X-1638328Y626408D1*
X-1643157Y611808D1*
Y587437D1*
X-1638328Y572950D1*
X-1633386Y563179D1*
X-1623728Y553520D1*
X-1613957Y548579D1*
X-1594528D1*
X-1584869Y553520D1*
X-1575098Y563179D1*
X-1570269Y572950D1*
X-1480609Y636067D2*
X-1485438Y645725D1*
X-1500038Y650554D1*
X-1509697D1*
X-1524297Y645725D1*
X-1534067Y631125D1*
X-1538897Y606867D1*
Y582608D1*
X-1534067Y563179D1*
X-1524297Y553408D1*
X-1509697Y548579D1*
X-1504867D1*
X-1490380Y553408D1*
X-1480609Y563179D1*
X-1475780Y577779D1*
Y582608D1*
X-1480609Y597208D1*
X-1490380Y606867D1*
X-1504867Y611696D1*
X-1509697D1*
X-1524297Y606867D1*
X-1534067Y597208D1*
X-1538897Y582608D1*
X-981540Y9155349D2*
X-903823D1*
X-889223Y9150520D1*
X-884394Y9145578D1*
X-879452Y9135920D1*
Y9126149D1*
X-884394Y9116491D1*
X-889223Y9111661D1*
X-903823Y9106720D1*
X-913481D1*
X-947511Y9249951D2*
X-932911Y9245009D1*
X-923140Y9235351D1*
X-918311Y9220751D1*
Y9215922D1*
X-923140Y9201322D1*
X-932911Y9191663D1*
X-947511Y9186722D1*
X-952340D1*
X-966940Y9191663D1*
X-976598Y9201322D1*
X-981428Y9215922D1*
Y9220751D1*
X-976598Y9235351D1*
X-966940Y9245009D1*
X-947511Y9249951D1*
X-923140D1*
X-898881Y9245009D1*
X-884281Y9235351D1*
X-879452Y9220751D1*
Y9211092D1*
X-884281Y9196492D1*
X-894052Y9191663D1*
X-981540Y154222D2*
X-903823D1*
X-889223Y149393D1*
X-884394Y144452D1*
X-879452Y134793D1*
Y125022D1*
X-884394Y115364D1*
X-889223Y110535D1*
X-903823Y105593D1*
X-913481D1*
X-961998Y185595D2*
X-966940Y195366D1*
X-981428Y209966D1*
X-879452D1*
X-981428Y270538D2*
X-976598Y255938D1*
X-961998Y246167D1*
X-937740Y241338D1*
X-923140D1*
X-898881Y246167D1*
X-884281Y255938D1*
X-879452Y270538D1*
Y280197D1*
X-884281Y294797D1*
X-898881Y304455D1*
X-923140Y309397D1*
X-937740D1*
X-961998Y304455D1*
X-976598Y294797D1*
X-981428Y280197D1*
Y270538D1*
X-961998Y304455D2*
X-898881Y246167D1*
X-879196Y8275425D2*
D45*
Y8147815D1*
X-806336D1*
X-767121Y8275425D2*
Y8147815D1*
X-706334Y8232888D2*
X-767121Y8172102D1*
X-742834Y8196388D2*
X-700298Y8147815D1*
X-661082Y8250998D2*
X-648869Y8257175D1*
X-630619Y8275285D1*
Y8147815D1*
X-942696Y6243425D2*
Y6115815D1*
X-869836D1*
X-830621Y6243425D2*
Y6115815D1*
X-769834Y6200888D2*
X-830621Y6140102D1*
X-806334Y6164388D2*
X-763798Y6115815D1*
X-718405Y6212961D2*
Y6218998D1*
X-712369Y6231211D1*
X-706332Y6237248D1*
X-694119Y6243285D1*
X-669832D1*
X-657759Y6237248D1*
X-651722Y6231211D1*
X-645545Y6218998D1*
Y6206925D1*
X-651722Y6194711D1*
X-663795Y6176602D1*
X-724582Y6115815D1*
X-639509D1*
X-942696Y4274925D2*
Y4147315D1*
X-869836D1*
X-830621Y4274925D2*
Y4147315D1*
X-769834Y4232388D2*
X-830621Y4171602D1*
X-806334Y4195888D2*
X-763798Y4147315D1*
X-712369Y4274785D2*
X-645686D1*
X-682045Y4226211D1*
X-663795D1*
X-651722Y4220175D1*
X-645686Y4214138D1*
X-639509Y4195888D1*
Y4183815D1*
X-645686Y4165565D1*
X-657759Y4153352D1*
X-676009Y4147315D1*
X-694259D1*
X-712369Y4153352D1*
X-718405Y4159529D1*
X-724582Y4171602D1*
X-942696Y2306425D2*
Y2178815D1*
X-869836D1*
X-830621Y2306425D2*
Y2178815D1*
X-769834Y2263888D2*
X-830621Y2203102D1*
X-806334Y2227388D2*
X-763798Y2178815D1*
X-663795D2*
Y2306285D1*
X-724582Y2221352D1*
X-633472D1*
X6242Y7711903D2*
D49*
Y7865035D1*
X-52046Y7711903D1*
X-110333Y7865035D1*
Y7711903D1*
X116709Y7865035D2*
X102053Y7857791D1*
X87565Y7843135D1*
X80153Y7828647D1*
X72909Y7806747D1*
Y7770191D1*
X80153Y7748459D1*
X87565Y7733803D1*
X102053Y7719315D1*
X116709Y7711903D1*
X145853D1*
X160340Y7719315D1*
X174996Y7733803D1*
X182240Y7748459D1*
X189484Y7770191D1*
Y7806747D1*
X182240Y7828647D1*
X174996Y7843135D1*
X160340Y7857791D1*
X145853Y7865035D1*
X116709D1*
X256151D2*
Y7755703D1*
X263395Y7733803D1*
X278051Y7719315D1*
X299951Y7711903D1*
X314438D1*
X336338Y7719315D1*
X350995Y7733803D1*
X358238Y7755703D1*
Y7865035D1*
X526993D2*
Y7711903D1*
X424905Y7865035D1*
Y7711903D1*
X644703Y7865035D2*
Y7711903D1*
X593659Y7865035D2*
X695747D1*
X1032245Y7843135D2*
X1017757Y7857791D1*
X995857Y7865035D1*
X966714D1*
X944814Y7857791D1*
X930157Y7843135D1*
Y7828647D1*
X937570Y7813991D1*
X944814Y7806747D1*
X959301Y7799503D1*
X1003101Y7784847D1*
X1017757Y7777603D1*
X1025001Y7770191D1*
X1032245Y7755703D1*
Y7733803D1*
X1017757Y7719315D1*
X995857Y7711903D1*
X966714D1*
X944814Y7719315D1*
X930157Y7733803D1*
X1142712Y7865035D2*
X1128056Y7857791D1*
X1113568Y7843135D1*
X1106156Y7828647D1*
X1098912Y7806747D1*
Y7770191D1*
X1106156Y7748459D1*
X1113568Y7733803D1*
X1128056Y7719315D1*
X1142712Y7711903D1*
X1171856D1*
X1186343Y7719315D1*
X1200999Y7733803D1*
X1208243Y7748459D1*
X1215487Y7770191D1*
Y7806747D1*
X1208243Y7828647D1*
X1200999Y7843135D1*
X1186343Y7857791D1*
X1171856Y7865035D1*
X1142712D1*
X1391485Y7828647D2*
X1384242Y7843135D1*
X1369585Y7857791D1*
X1355098Y7865035D1*
X1325954D1*
X1311298Y7857791D1*
X1296810Y7843135D1*
X1289398Y7828647D1*
X1282154Y7806747D1*
Y7770191D1*
X1289398Y7748459D1*
X1296810Y7733803D1*
X1311298Y7719315D1*
X1325954Y7711903D1*
X1355098D1*
X1369585Y7719315D1*
X1384242Y7733803D1*
X1391485Y7748459D1*
X1458152Y7865035D2*
Y7711903D1*
X1560240Y7865035D2*
X1458152Y7762947D1*
X1494540Y7799503D2*
X1560240Y7711903D1*
X1721582Y7865035D2*
X1626906D1*
Y7711903D1*
X1721582D1*
X1626906Y7792091D2*
X1685194D1*
X1839292Y7865035D2*
Y7711903D1*
X1788248Y7865035D2*
X1890336D1*
X2059091Y7843135D2*
X2044603Y7857791D1*
X2022703Y7865035D1*
X1993559D1*
X1971659Y7857791D1*
X1957003Y7843135D1*
Y7828647D1*
X1964415Y7813991D1*
X1971659Y7806747D1*
X1986147Y7799503D1*
X2029947Y7784847D1*
X2044603Y7777603D1*
X2051847Y7770191D1*
X2059091Y7755703D1*
Y7733803D1*
X2044603Y7719315D1*
X2022703Y7711903D1*
X1993559D1*
X1971659Y7719315D1*
X1957003Y7733803D1*
X2344545Y7865035D2*
Y7711903D1*
X2293501Y7865035D2*
X2395588D1*
X2462255D2*
Y7711903D1*
X2564343Y7865035D2*
Y7711903D1*
X2462255Y7792091D2*
X2564343D1*
X2631009Y7865035D2*
Y7711903D1*
X2799764Y7843135D2*
X2785276Y7857791D1*
X2763376Y7865035D1*
X2734232D1*
X2712332Y7857791D1*
X2697676Y7843135D1*
Y7828647D1*
X2705088Y7813991D1*
X2712332Y7806747D1*
X2726820Y7799503D1*
X2770620Y7784847D1*
X2785276Y7777603D1*
X2792520Y7770191D1*
X2799764Y7755703D1*
Y7733803D1*
X2785276Y7719315D1*
X2763376Y7711903D1*
X2734232D1*
X2712332Y7719315D1*
X2697676Y7733803D1*
X3136262Y7843135D2*
X3121774Y7857791D1*
X3099874Y7865035D1*
X3070730D1*
X3048830Y7857791D1*
X3034174Y7843135D1*
Y7828647D1*
X3041586Y7813991D1*
X3048830Y7806747D1*
X3063318Y7799503D1*
X3107118Y7784847D1*
X3121774Y7777603D1*
X3129018Y7770191D1*
X3136262Y7755703D1*
Y7733803D1*
X3121774Y7719315D1*
X3099874Y7711903D1*
X3070730D1*
X3048830Y7719315D1*
X3034174Y7733803D1*
X3202928Y7865035D2*
Y7711903D1*
X3269595Y7865035D2*
Y7711903D1*
X3320639D1*
X3342539Y7719315D1*
X3357195Y7733803D1*
X3364439Y7748459D1*
X3371683Y7770191D1*
Y7806747D1*
X3364439Y7828647D1*
X3357195Y7843135D1*
X3342539Y7857791D1*
X3320639Y7865035D1*
X3269595D1*
X3533025D2*
X3438349D1*
Y7711903D1*
X3533025D1*
X3438349Y7792091D2*
X3496637D1*
X-1069696Y1353925D2*
D45*
Y1226315D1*
X-996836D1*
X-957621Y1353925D2*
Y1226315D1*
X-896834Y1311388D2*
X-957621Y1250602D1*
X-933334Y1274888D2*
X-890798Y1226315D1*
X-778722Y1353785D2*
X-839369D1*
X-845405Y1299175D1*
X-839369Y1305211D1*
X-821119Y1311388D1*
X-803009D1*
X-784759Y1305211D1*
X-772545Y1293138D1*
X-766509Y1274888D1*
Y1262815D1*
X-772545Y1244565D1*
X-784759Y1232352D1*
X-803009Y1226315D1*
X-821119D1*
X-839369Y1232352D1*
X-845405Y1238529D1*
X-851582Y1250602D1*
M02*
