G04 DipTrace 4.3.0.5*
G04 2 - Bottom.gbr*
%MOMM*%
G04 #@! TF.FileFunction,Copper,L2,Bot*
G04 #@! TF.Part,Single*
G04 #@! TA.AperFunction,Conductor*
%ADD16C,0.3302*%
G04 #@! TA.AperFunction,CopperBalancing*
%ADD17C,0.381*%
G04 #@! TA.AperFunction,ComponentPad*
%ADD21C,1.7*%
%ADD22C,4.0*%
%FSLAX35Y35*%
G04*
G71*
G90*
G75*
G01*
G04 Bottom*
%LPD*%
X5334000Y127000D2*
D16*
X5524500D1*
Y1526497D1*
X5334000D1*
X5524500D2*
Y3558497D1*
X5334000D1*
X5524500D2*
Y5463497D1*
X5334000D1*
X5524500D2*
Y7493000D1*
X5334000D1*
X5524500D2*
Y9398000D1*
X5334000D1*
X0Y9229873D2*
Y9017000D1*
X-127000Y8890000D1*
Y8686123D1*
X0Y8559123D1*
Y7096123D1*
X-127000Y6969123D1*
Y6717623D1*
X0Y6590623D1*
Y5127623D1*
X-127000Y5000623D1*
Y4749123D1*
X0Y4622123D1*
Y3159123D1*
X-127000Y3032123D1*
Y2780623D1*
X0Y2653623D1*
Y1190623D1*
X-127000Y1063623D1*
Y812123D1*
X0Y685123D1*
Y657373D2*
Y444500D1*
X-127000Y317500D1*
Y113623D1*
X0Y-13377D1*
X4826000Y8559123D2*
X4699000Y8432123D1*
Y6717623D1*
X4826000Y6590623D1*
X4699000Y6463623D1*
Y4749123D1*
X4826000Y4622123D1*
X4699000Y4495123D1*
Y2780623D1*
X4826000Y2653623D1*
Y9229873D2*
Y9223373D1*
X4699000Y9096373D1*
Y8686123D1*
X4826000Y8559123D1*
Y2653623D2*
X4699000Y2526623D1*
Y812123D1*
X4826000Y685123D1*
Y650873D1*
X4699000Y523873D1*
Y127000D1*
X4826000Y0D1*
X4572000Y8559123D2*
X4445000Y8432123D1*
Y6717623D1*
X4572000Y6590623D1*
X4445000Y6463623D1*
Y4749123D1*
X4572000Y4622123D1*
X4445000Y4495123D1*
Y2780623D1*
X4572000Y2653623D1*
Y9229873D2*
Y9223373D1*
X4445000Y9096373D1*
Y8686123D1*
X4572000Y8559123D1*
Y2653623D2*
X4445000Y2526623D1*
Y812123D1*
X4572000Y685123D1*
Y650873D1*
X4445000Y523873D1*
Y127000D1*
X4572000Y0D1*
X4318000Y8559123D2*
X4191000Y8432123D1*
Y6717623D1*
X4318000Y6590623D1*
X4191000Y6463623D1*
Y4749123D1*
X4318000Y4622123D1*
X4191000Y4495123D1*
Y2780623D1*
X4318000Y2653623D1*
Y9229873D2*
Y9223373D1*
X4191000Y9096373D1*
Y8686123D1*
X4318000Y8559123D1*
Y2653623D2*
X4191000Y2526623D1*
Y812123D1*
X4318000Y685123D1*
Y650873D1*
X4191000Y523873D1*
Y127000D1*
X4318000Y0D1*
X4064000Y8559123D2*
X3937000Y8432123D1*
Y6717623D1*
X4064000Y6590623D1*
X3937000Y6463623D1*
Y4749123D1*
X4064000Y4622123D1*
X3937000Y4495123D1*
Y2780623D1*
X4064000Y2653623D1*
Y9229873D2*
Y9223373D1*
X3937000Y9096373D1*
Y8686123D1*
X4064000Y8559123D1*
Y2653623D2*
X3937000Y2526623D1*
Y812123D1*
X4064000Y685123D1*
Y650873D1*
X3937000Y523873D1*
Y127000D1*
X4064000Y0D1*
X3810000Y8559123D2*
X3683000Y8432123D1*
Y6717623D1*
X3810000Y6590623D1*
X3683000Y6463623D1*
Y4749123D1*
X3810000Y4622123D1*
X3683000Y4495123D1*
Y2780623D1*
X3810000Y2653623D1*
Y9229873D2*
Y9223373D1*
X3683000Y9096373D1*
Y8686123D1*
X3810000Y8559123D1*
Y2653623D2*
X3683000Y2526623D1*
Y812123D1*
X3810000Y685123D1*
Y650873D1*
X3683000Y523873D1*
Y127000D1*
X3810000Y0D1*
X3556000Y8559123D2*
X3429000Y8432123D1*
Y6717623D1*
X3556000Y6590623D1*
X3429000Y6463623D1*
Y4749123D1*
X3556000Y4622123D1*
X3429000Y4495123D1*
Y2780623D1*
X3556000Y2653623D1*
Y9229873D2*
Y9223373D1*
X3429000Y9096373D1*
Y8686123D1*
X3556000Y8559123D1*
Y2653623D2*
X3429000Y2526623D1*
Y812123D1*
X3556000Y685123D1*
Y650873D1*
X3429000Y523873D1*
Y127000D1*
X3556000Y0D1*
X3302000Y8559123D2*
X3175000Y8432123D1*
Y6717623D1*
X3302000Y6590623D1*
X3175000Y6463623D1*
Y4749123D1*
X3302000Y4622123D1*
X3175000Y4495123D1*
Y2780623D1*
X3302000Y2653623D1*
Y9229873D2*
Y9223373D1*
X3175000Y9096373D1*
Y8686123D1*
X3302000Y8559123D1*
Y2653623D2*
X3175000Y2526623D1*
Y812123D1*
X3302000Y685123D1*
Y650873D1*
X3175000Y523873D1*
Y127000D1*
X3302000Y0D1*
X3048000Y8559123D2*
X2921000Y8432123D1*
Y6717623D1*
X3048000Y6590623D1*
X2921000Y6463623D1*
Y4749123D1*
X3048000Y4622123D1*
X2921000Y4495123D1*
Y2780623D1*
X3048000Y2653623D1*
Y9229873D2*
Y9223373D1*
X2921000Y9096373D1*
Y8686123D1*
X3048000Y8559123D1*
Y2653623D2*
X2921000Y2526623D1*
Y812123D1*
X3048000Y685123D1*
Y650873D1*
X2921000Y523873D1*
Y127000D1*
X3048000Y0D1*
X2794000Y8559123D2*
X2667000Y8432123D1*
Y6717623D1*
X2794000Y6590623D1*
X2667000Y6463623D1*
Y4749123D1*
X2794000Y4622123D1*
X2667000Y4495123D1*
Y2780623D1*
X2794000Y2653623D1*
Y9229873D2*
Y9223373D1*
X2667000Y9096373D1*
Y8686123D1*
X2794000Y8559123D1*
Y2653623D2*
X2667000Y2526623D1*
Y812123D1*
X2794000Y685123D1*
Y650873D1*
X2667000Y523873D1*
Y127000D1*
X2794000Y0D1*
X2540000Y8559123D2*
X2413000Y8432123D1*
Y6717623D1*
X2540000Y6590623D1*
X2413000Y6463623D1*
Y4749123D1*
X2540000Y4622123D1*
X2413000Y4495123D1*
Y2780623D1*
X2540000Y2653623D1*
Y9229873D2*
Y9223373D1*
X2413000Y9096373D1*
Y8686123D1*
X2540000Y8559123D1*
Y2653623D2*
X2413000Y2526623D1*
Y812123D1*
X2540000Y685123D1*
Y650873D1*
X2413000Y523873D1*
Y127000D1*
X2540000Y0D1*
X2286000Y8559123D2*
X2159000Y8432123D1*
Y6717623D1*
X2286000Y6590623D1*
X2159000Y6463623D1*
Y4749123D1*
X2286000Y4622123D1*
X2159000Y4495123D1*
Y2780623D1*
X2286000Y2653623D1*
Y9229873D2*
Y9223373D1*
X2159000Y9096373D1*
Y8686123D1*
X2286000Y8559123D1*
Y2653623D2*
X2159000Y2526623D1*
Y812123D1*
X2286000Y685123D1*
Y650873D1*
X2159000Y523873D1*
Y127000D1*
X2286000Y0D1*
X2032000Y8559123D2*
X1905000Y8432123D1*
Y6717623D1*
X2032000Y6590623D1*
X1905000Y6463623D1*
Y4749123D1*
X2032000Y4622123D1*
X1905000Y4495123D1*
Y2780623D1*
X2032000Y2653623D1*
Y9229873D2*
Y9223373D1*
X1905000Y9096373D1*
Y8686123D1*
X2032000Y8559123D1*
Y2653623D2*
X1905000Y2526623D1*
Y812123D1*
X2032000Y685123D1*
Y650873D1*
X1905000Y523873D1*
Y127000D1*
X2032000Y0D1*
X1778000Y8559123D2*
X1651000Y8432123D1*
Y6717623D1*
X1778000Y6590623D1*
X1651000Y6463623D1*
Y4749123D1*
X1778000Y4622123D1*
X1651000Y4495123D1*
Y2780623D1*
X1778000Y2653623D1*
Y9229873D2*
Y9223373D1*
X1651000Y9096373D1*
Y8686123D1*
X1778000Y8559123D1*
Y2653623D2*
X1651000Y2526623D1*
Y812123D1*
X1778000Y685123D1*
Y650873D1*
X1651000Y523873D1*
Y127000D1*
X1778000Y0D1*
X1524000Y8559123D2*
X1397000Y8432123D1*
Y6717623D1*
X1524000Y6590623D1*
X1397000Y6463623D1*
Y4749123D1*
X1524000Y4622123D1*
X1397000Y4495123D1*
Y2780623D1*
X1524000Y2653623D1*
Y9229873D2*
Y9223373D1*
X1397000Y9096373D1*
Y8686123D1*
X1524000Y8559123D1*
Y2653623D2*
X1397000Y2526623D1*
Y812123D1*
X1524000Y685123D1*
Y650873D1*
X1397000Y523873D1*
Y127000D1*
X1524000Y0D1*
X1270000Y8559123D2*
X1143000Y8432123D1*
Y6717623D1*
X1270000Y6590623D1*
X1143000Y6463623D1*
Y4749123D1*
X1270000Y4622123D1*
X1143000Y4495123D1*
Y2780623D1*
X1270000Y2653623D1*
Y9229873D2*
Y9223373D1*
X1143000Y9096373D1*
Y8686123D1*
X1270000Y8559123D1*
Y2653623D2*
X1143000Y2526623D1*
Y812123D1*
X1270000Y685123D1*
Y650873D1*
X1143000Y523873D1*
Y127000D1*
X1270000Y0D1*
X1016000Y8559123D2*
X889000Y8432123D1*
Y6717623D1*
X1016000Y6590623D1*
X889000Y6463623D1*
Y4749123D1*
X1016000Y4622123D1*
X889000Y4495123D1*
Y2780623D1*
X1016000Y2653623D1*
Y9229873D2*
Y9223373D1*
X889000Y9096373D1*
Y8686123D1*
X1016000Y8559123D1*
Y2653623D2*
X889000Y2526623D1*
Y812123D1*
X1016000Y685123D1*
Y650873D1*
X889000Y523873D1*
Y127000D1*
X1016000Y0D1*
X762000Y8559123D2*
X635000Y8432123D1*
Y6717623D1*
X762000Y6590623D1*
X635000Y6463623D1*
Y4749123D1*
X762000Y4622123D1*
X635000Y4495123D1*
Y2780623D1*
X762000Y2653623D1*
Y9229873D2*
Y9223373D1*
X635000Y9096373D1*
Y8686123D1*
X762000Y8559123D1*
Y2653623D2*
X635000Y2526623D1*
Y812123D1*
X762000Y685123D1*
Y650873D1*
X635000Y523873D1*
Y127000D1*
X762000Y0D1*
X508000Y8559123D2*
X381000Y8432123D1*
Y6717623D1*
X508000Y6590623D1*
X381000Y6463623D1*
Y4749123D1*
X508000Y4622123D1*
X381000Y4495123D1*
Y2780623D1*
X508000Y2653623D1*
Y9229873D2*
Y9223373D1*
X381000Y9096373D1*
Y8686123D1*
X508000Y8559123D1*
Y2653623D2*
X381000Y2526623D1*
Y812123D1*
X508000Y685123D1*
Y650873D1*
X381000Y523873D1*
Y127000D1*
X508000Y0D1*
X254000Y8559123D2*
X127000Y8432123D1*
Y6717623D1*
X254000Y6590623D1*
X127000Y6463623D1*
Y4749123D1*
X254000Y4622123D1*
X127000Y4495123D1*
Y2780623D1*
X254000Y2653623D1*
Y9229873D2*
Y9223373D1*
X127000Y9096373D1*
Y8686123D1*
X254000Y8559123D1*
Y2653623D2*
X127000Y2526623D1*
Y812123D1*
X254000Y685123D1*
Y650873D1*
X127000Y523873D1*
Y127000D1*
X254000Y0D1*
X5102880Y9531683D2*
D17*
X5565147D1*
X5102880Y9493917D2*
X5565147D1*
X5102880Y9456150D2*
X5565147D1*
X5102880Y9418383D2*
X5565147D1*
X5102880Y9380617D2*
X5565147D1*
X5102880Y9342850D2*
X5565147D1*
X5102880Y9305083D2*
X5565147D1*
X5102880Y9267317D2*
X5565147D1*
X5102880Y9229550D2*
X5565147D1*
X5102880Y9191783D2*
X5565147D1*
X5102880Y9154017D2*
X5565147D1*
X5102880Y9116250D2*
X5565147D1*
X5102880Y9078483D2*
X5565147D1*
X5102880Y9040717D2*
X5565147D1*
X5102880Y9002950D2*
X5565147D1*
X5102880Y8965183D2*
X5565147D1*
X5102880Y8927417D2*
X5565147D1*
X5102880Y8889650D2*
X5565147D1*
X5102880Y8851883D2*
X5565147D1*
X5102880Y8814117D2*
X5565147D1*
X5102880Y8776350D2*
X5565147D1*
X5102880Y8738583D2*
X5565147D1*
X5102880Y8700817D2*
X5565147D1*
X5102880Y8663050D2*
X5247547D1*
X5420440D2*
X5565147D1*
X5102880Y8625283D2*
X5199660D1*
X5468327D2*
X5565147D1*
X5102880Y8587517D2*
X5173990D1*
X5494000D2*
X5565147D1*
X5102880Y8549750D2*
X5160183D1*
X5507803D2*
X5565147D1*
X5102880Y8511983D2*
X5155387D1*
X5512603D2*
X5565147D1*
X5102880Y8474217D2*
X5158883D1*
X5509143D2*
X5565147D1*
X5102880Y8436450D2*
X5171160D1*
X5496863D2*
X5565147D1*
X5102880Y8398683D2*
X5194563D1*
X5473423D2*
X5565147D1*
X5102880Y8360917D2*
X5237277D1*
X5430710D2*
X5565147D1*
X5102880Y8323150D2*
X5565147D1*
X5102880Y8285383D2*
X5565147D1*
X5102880Y8247617D2*
X5565147D1*
X5102880Y8209850D2*
X5565147D1*
X5102880Y8172083D2*
X5565147D1*
X5102880Y8134317D2*
X5565147D1*
X5102880Y8096550D2*
X5565147D1*
X5102880Y8058783D2*
X5565147D1*
X5102880Y8021017D2*
X5565147D1*
X5102880Y7983250D2*
X5565147D1*
X5102880Y7945483D2*
X5565147D1*
X5102880Y7907717D2*
X5565147D1*
X5102880Y7869950D2*
X5565147D1*
X5102880Y7832183D2*
X5565147D1*
X5102880Y7794417D2*
X5565147D1*
X5102880Y7756650D2*
X5565147D1*
X5102880Y7718883D2*
X5565147D1*
X5102880Y7681117D2*
X5565147D1*
X5102880Y7643350D2*
X5565147D1*
X5102880Y7605583D2*
X5565147D1*
X5102880Y7567817D2*
X5565147D1*
X5102880Y7530050D2*
X5565147D1*
X5102880Y7492283D2*
X5565147D1*
X5102880Y7454517D2*
X5565147D1*
X5102880Y7416750D2*
X5565147D1*
X5102880Y7378983D2*
X5565147D1*
X5102880Y7341217D2*
X5565147D1*
X5102880Y7303450D2*
X5565147D1*
X5102880Y7265683D2*
X5565147D1*
X5102880Y7227917D2*
X5565147D1*
X5102880Y7190150D2*
X5565147D1*
X5102880Y7152383D2*
X5565147D1*
X5102880Y7114617D2*
X5565147D1*
X5102880Y7076850D2*
X5565147D1*
X5102880Y7039083D2*
X5565147D1*
X5102880Y7001317D2*
X5565147D1*
X5102880Y6963550D2*
X5565147D1*
X5102880Y6925783D2*
X5565147D1*
X5102880Y6888017D2*
X5565147D1*
X5102880Y6850250D2*
X5565147D1*
X5102880Y6812483D2*
X5565147D1*
X5102880Y6774717D2*
X5292567D1*
X5375420D2*
X5565147D1*
X5102880Y6736950D2*
X5216703D1*
X5451323D2*
X5565147D1*
X5102880Y6699183D2*
X5183550D1*
X5484437D2*
X5565147D1*
X5102880Y6661417D2*
X5165060D1*
X5502930D2*
X5565147D1*
X5102880Y6623650D2*
X5156500D1*
X5511523D2*
X5565147D1*
X5102880Y6585883D2*
X5156317D1*
X5511673D2*
X5565147D1*
X5102880Y6548117D2*
X5164537D1*
X5503450D2*
X5565147D1*
X5102880Y6510350D2*
X5182583D1*
X5485403D2*
X5565147D1*
X5102880Y6472583D2*
X5214917D1*
X5453070D2*
X5565147D1*
X5102880Y6434817D2*
X5286207D1*
X5381820D2*
X5565147D1*
X5102880Y6397050D2*
X5565147D1*
X5102880Y6359283D2*
X5565147D1*
X5102880Y6321517D2*
X5565147D1*
X5102880Y6283750D2*
X5565147D1*
X5102880Y6245983D2*
X5565147D1*
X5102880Y6208217D2*
X5565147D1*
X5102880Y6170450D2*
X5565147D1*
X5102880Y6132683D2*
X5565147D1*
X5102880Y6094917D2*
X5565147D1*
X5102880Y6057150D2*
X5565147D1*
X5102880Y6019383D2*
X5565147D1*
X5102880Y5981617D2*
X5565147D1*
X5102880Y5943850D2*
X5565147D1*
X5102880Y5906083D2*
X5565147D1*
X5102880Y5868317D2*
X5565147D1*
X5102880Y5830550D2*
X5565147D1*
X5102880Y5792783D2*
X5565147D1*
X5102880Y5755017D2*
X5565147D1*
X5102880Y5717250D2*
X5565147D1*
X5102880Y5679483D2*
X5565147D1*
X5102880Y5641717D2*
X5565147D1*
X5102880Y5603950D2*
X5565147D1*
X5102880Y5566183D2*
X5565147D1*
X5102880Y5528417D2*
X5565147D1*
X5102880Y5490650D2*
X5565147D1*
X5102880Y5452883D2*
X5565147D1*
X5102880Y5415117D2*
X5565147D1*
X5102880Y5377350D2*
X5565147D1*
X5102880Y5339583D2*
X5565147D1*
X5102880Y5301817D2*
X5565147D1*
X5102880Y5264050D2*
X5565147D1*
X5102880Y5226283D2*
X5565147D1*
X5102880Y5188517D2*
X5565147D1*
X5102880Y5150750D2*
X5565147D1*
X5102880Y5112983D2*
X5565147D1*
X5102880Y5075217D2*
X5565147D1*
X5102880Y5037450D2*
X5565147D1*
X5102880Y4999683D2*
X5565147D1*
X5102880Y4961917D2*
X5565147D1*
X5102880Y4924150D2*
X5565147D1*
X5102880Y4886383D2*
X5565147D1*
X5102880Y4848617D2*
X5565147D1*
X5102880Y4810850D2*
X5565147D1*
X5102880Y4773083D2*
X5565147D1*
X5102880Y4735317D2*
X5267863D1*
X5400163D2*
X5565147D1*
X5102880Y4697550D2*
X5208553D1*
X5459433D2*
X5565147D1*
X5102880Y4659783D2*
X5179010D1*
X5488977D2*
X5565147D1*
X5102880Y4622017D2*
X5162677D1*
X5505310D2*
X5565147D1*
X5102880Y4584250D2*
X5155793D1*
X5512193D2*
X5565147D1*
X5102880Y4546483D2*
X5157247D1*
X5510743D2*
X5565147D1*
X5102880Y4508717D2*
X5167217D1*
X5500770D2*
X5565147D1*
X5102880Y4470950D2*
X5187533D1*
X5480457D2*
X5565147D1*
X5102880Y4433183D2*
X5223957D1*
X5444067D2*
X5565147D1*
X5102880Y4395417D2*
X5565147D1*
X5102880Y4357650D2*
X5565147D1*
X5102880Y4319883D2*
X5565147D1*
X5102880Y4282117D2*
X5565147D1*
X5102880Y4244350D2*
X5565147D1*
X5102880Y4206583D2*
X5565147D1*
X5102880Y4168817D2*
X5565147D1*
X5102880Y4131050D2*
X5565147D1*
X5102880Y4093283D2*
X5565147D1*
X5102880Y4055517D2*
X5565147D1*
X5102880Y4017750D2*
X5565147D1*
X5102880Y3979983D2*
X5565147D1*
X5102880Y3942217D2*
X5565147D1*
X5102880Y3904450D2*
X5565147D1*
X5102880Y3866683D2*
X5565147D1*
X5102880Y3828917D2*
X5565147D1*
X5102880Y3791150D2*
X5565147D1*
X5102880Y3753383D2*
X5565147D1*
X5102880Y3715617D2*
X5565147D1*
X5102880Y3677850D2*
X5565147D1*
X5102880Y3640083D2*
X5565147D1*
X5102880Y3602317D2*
X5565147D1*
X5102880Y3564550D2*
X5565147D1*
X5102880Y3526783D2*
X5565147D1*
X5102880Y3489017D2*
X5565147D1*
X5102880Y3451250D2*
X5565147D1*
X5102880Y3413483D2*
X5565147D1*
X5102880Y3375717D2*
X5565147D1*
X5102880Y3337950D2*
X5565147D1*
X5102880Y3300183D2*
X5565147D1*
X5102880Y3262417D2*
X5565147D1*
X5102880Y3224650D2*
X5565147D1*
X5102880Y3186883D2*
X5565147D1*
X5102880Y3149117D2*
X5565147D1*
X5102880Y3111350D2*
X5565147D1*
X5102880Y3073583D2*
X5565147D1*
X5102880Y3035817D2*
X5565147D1*
X5102880Y2998050D2*
X5565147D1*
X5102880Y2960283D2*
X5565147D1*
X5102880Y2922517D2*
X5565147D1*
X5102880Y2884750D2*
X5565147D1*
X5102880Y2846983D2*
X5565147D1*
X5102880Y2809217D2*
X5228533D1*
X5439453D2*
X5565147D1*
X5102880Y2771450D2*
X5190023D1*
X5478000D2*
X5565147D1*
X5102880Y2733683D2*
X5168593D1*
X5499393D2*
X5565147D1*
X5102880Y2695917D2*
X5157803D1*
X5510220D2*
X5565147D1*
X5102880Y2658150D2*
X5155610D1*
X5512417D2*
X5565147D1*
X5102880Y2620383D2*
X5161710D1*
X5506277D2*
X5565147D1*
X5102880Y2582617D2*
X5177077D1*
X5490910D2*
X5565147D1*
X5102880Y2544850D2*
X5205130D1*
X5462857D2*
X5565147D1*
X5102880Y2507083D2*
X5259563D1*
X5408423D2*
X5565147D1*
X5102880Y2469317D2*
X5565147D1*
X5102880Y2431550D2*
X5565147D1*
X5102880Y2393783D2*
X5565147D1*
X5102880Y2356017D2*
X5565147D1*
X5102880Y2318250D2*
X5565147D1*
X5102880Y2280483D2*
X5565147D1*
X5102880Y2242717D2*
X5565147D1*
X5102880Y2204950D2*
X5565147D1*
X5102880Y2167183D2*
X5565147D1*
X5102880Y2129417D2*
X5565147D1*
X5102880Y2091650D2*
X5565147D1*
X5102880Y2053883D2*
X5565147D1*
X5102880Y2016117D2*
X5565147D1*
X5102880Y1978350D2*
X5565147D1*
X5102880Y1940583D2*
X5565147D1*
X5102880Y1902817D2*
X5565147D1*
X5102880Y1865050D2*
X5565147D1*
X5102880Y1827283D2*
X5565147D1*
X5102880Y1789517D2*
X5565147D1*
X5102880Y1751750D2*
X5565147D1*
X5102880Y1713983D2*
X5565147D1*
X5102880Y1676217D2*
X5565147D1*
X5102880Y1638450D2*
X5565147D1*
X5102880Y1600683D2*
X5565147D1*
X5102880Y1562917D2*
X5565147D1*
X5102880Y1525150D2*
X5565147D1*
X5102880Y1487383D2*
X5565147D1*
X5102880Y1449617D2*
X5565147D1*
X5102880Y1411850D2*
X5565147D1*
X5102880Y1374083D2*
X5565147D1*
X5102880Y1336317D2*
X5565147D1*
X5102880Y1298550D2*
X5565147D1*
X5102880Y1260783D2*
X5565147D1*
X5102880Y1223017D2*
X5565147D1*
X5102880Y1185250D2*
X5565147D1*
X5102880Y1147483D2*
X5565147D1*
X5102880Y1109717D2*
X5565147D1*
X5102880Y1071950D2*
X5565147D1*
X5102880Y1034183D2*
X5232813D1*
X5435173D2*
X5565147D1*
X5102880Y996417D2*
X5192257D1*
X5475730D2*
X5565147D1*
X5102880Y958650D2*
X5169860D1*
X5498130D2*
X5565147D1*
X5102880Y920883D2*
X5158323D1*
X5509700D2*
X5565147D1*
X5102880Y883117D2*
X5155460D1*
X5512527D2*
X5565147D1*
X5102880Y845350D2*
X5160930D1*
X5507097D2*
X5565147D1*
X5102880Y807583D2*
X5175477D1*
X5492510D2*
X5565147D1*
X5102880Y769817D2*
X5202303D1*
X5465683D2*
X5565147D1*
X5102880Y732050D2*
X5253203D1*
X5414787D2*
X5565147D1*
X5102880Y694283D2*
X5565147D1*
X5102880Y656517D2*
X5565147D1*
X5102880Y618750D2*
X5565147D1*
X5102880Y580983D2*
X5565147D1*
X5102880Y543217D2*
X5565147D1*
X5102880Y505450D2*
X5565147D1*
X5102880Y467683D2*
X5565147D1*
X5102880Y429917D2*
X5565147D1*
X5102880Y392150D2*
X5565147D1*
X5102880Y354383D2*
X5565147D1*
X5102880Y316617D2*
X5565147D1*
X5102880Y278850D2*
X5565147D1*
X5102880Y241083D2*
X5565147D1*
X5102880Y203317D2*
X5565147D1*
X5102880Y165550D2*
X5565147D1*
X5102880Y127783D2*
X5565147D1*
X5102880Y90017D2*
X5565147D1*
X5102880Y52250D2*
X5565147D1*
X5102880Y14483D2*
X5565147D1*
X5102880Y-23283D2*
X5565147D1*
X5507777Y869987D2*
X5504700Y851310D1*
X5499627Y833077D1*
X5492607Y815497D1*
X5483730Y798780D1*
X5473100Y783120D1*
X5460837Y768700D1*
X5447087Y755693D1*
X5432010Y744247D1*
X5415783Y734500D1*
X5398600Y726563D1*
X5380660Y720530D1*
X5362170Y716473D1*
X5343353Y714437D1*
X5324423Y714450D1*
X5305607Y716510D1*
X5287123Y720590D1*
X5269190Y726647D1*
X5252017Y734603D1*
X5235803Y744373D1*
X5220743Y755837D1*
X5207010Y768863D1*
X5194767Y783297D1*
X5184153Y798970D1*
X5175297Y815700D1*
X5168303Y833290D1*
X5163250Y851530D1*
X5160200Y870210D1*
X5159187Y889113D1*
X5160223Y908013D1*
X5163300Y926690D1*
X5168373Y944923D1*
X5175393Y962503D1*
X5184270Y979220D1*
X5194900Y994880D1*
X5207163Y1009300D1*
X5220913Y1022307D1*
X5235990Y1033753D1*
X5252217Y1043500D1*
X5269400Y1051437D1*
X5287340Y1057470D1*
X5305830Y1061527D1*
X5324647Y1063563D1*
X5343577Y1063550D1*
X5362393Y1061490D1*
X5380877Y1057410D1*
X5398810Y1051353D1*
X5415983Y1043397D1*
X5432197Y1033627D1*
X5447257Y1022163D1*
X5460990Y1009137D1*
X5473233Y994703D1*
X5483847Y979030D1*
X5492703Y962300D1*
X5499697Y944710D1*
X5504750Y926470D1*
X5507800Y907790D1*
X5508813Y889000D1*
X5507777Y869987D1*
Y2647987D2*
X5504700Y2629310D1*
X5499627Y2611077D1*
X5492607Y2593497D1*
X5483730Y2576780D1*
X5473100Y2561120D1*
X5460837Y2546700D1*
X5447087Y2533693D1*
X5432010Y2522247D1*
X5415783Y2512500D1*
X5398600Y2504563D1*
X5380660Y2498530D1*
X5362170Y2494473D1*
X5343353Y2492437D1*
X5324423Y2492450D1*
X5305607Y2494510D1*
X5287123Y2498590D1*
X5269190Y2504647D1*
X5252017Y2512603D1*
X5235803Y2522373D1*
X5220743Y2533837D1*
X5207010Y2546863D1*
X5194767Y2561297D1*
X5184153Y2576970D1*
X5175297Y2593700D1*
X5168303Y2611290D1*
X5163250Y2629530D1*
X5160200Y2648210D1*
X5159187Y2667113D1*
X5160223Y2686013D1*
X5163300Y2704690D1*
X5168373Y2722923D1*
X5175393Y2740503D1*
X5184270Y2757220D1*
X5194900Y2772880D1*
X5207163Y2787300D1*
X5220913Y2800307D1*
X5235990Y2811753D1*
X5252217Y2821500D1*
X5269400Y2829437D1*
X5287340Y2835470D1*
X5305830Y2839527D1*
X5324647Y2841563D1*
X5343577Y2841550D1*
X5362393Y2839490D1*
X5380877Y2835410D1*
X5398810Y2829353D1*
X5415983Y2821397D1*
X5432197Y2811627D1*
X5447257Y2800163D1*
X5460990Y2787137D1*
X5473233Y2772703D1*
X5483847Y2757030D1*
X5492703Y2740300D1*
X5499697Y2722710D1*
X5504750Y2704470D1*
X5507800Y2685790D1*
X5508813Y2667000D1*
X5507777Y2647987D1*
Y4552987D2*
X5504700Y4534310D1*
X5499627Y4516077D1*
X5492607Y4498497D1*
X5483730Y4481780D1*
X5473100Y4466120D1*
X5460837Y4451700D1*
X5447087Y4438693D1*
X5432010Y4427247D1*
X5415783Y4417500D1*
X5398600Y4409563D1*
X5380660Y4403530D1*
X5362170Y4399473D1*
X5343353Y4397437D1*
X5324423Y4397450D1*
X5305607Y4399510D1*
X5287123Y4403590D1*
X5269190Y4409647D1*
X5252017Y4417603D1*
X5235803Y4427373D1*
X5220743Y4438837D1*
X5207010Y4451863D1*
X5194767Y4466297D1*
X5184153Y4481970D1*
X5175297Y4498700D1*
X5168303Y4516290D1*
X5163250Y4534530D1*
X5160200Y4553210D1*
X5159187Y4572113D1*
X5160223Y4591013D1*
X5163300Y4609690D1*
X5168373Y4627923D1*
X5175393Y4645503D1*
X5184270Y4662220D1*
X5194900Y4677880D1*
X5207163Y4692300D1*
X5220913Y4705307D1*
X5235990Y4716753D1*
X5252217Y4726500D1*
X5269400Y4734437D1*
X5287340Y4740470D1*
X5305830Y4744527D1*
X5324647Y4746563D1*
X5343577Y4746550D1*
X5362393Y4744490D1*
X5380877Y4740410D1*
X5398810Y4734353D1*
X5415983Y4726397D1*
X5432197Y4716627D1*
X5447257Y4705163D1*
X5460990Y4692137D1*
X5473233Y4677703D1*
X5483847Y4662030D1*
X5492703Y4645300D1*
X5499697Y4627710D1*
X5504750Y4609470D1*
X5507800Y4590790D1*
X5508813Y4572000D1*
X5507777Y4552987D1*
Y6584987D2*
X5504700Y6566310D1*
X5499627Y6548077D1*
X5492607Y6530497D1*
X5483730Y6513780D1*
X5473100Y6498120D1*
X5460837Y6483700D1*
X5447087Y6470693D1*
X5432010Y6459247D1*
X5415783Y6449500D1*
X5398600Y6441563D1*
X5380660Y6435530D1*
X5362170Y6431473D1*
X5343353Y6429437D1*
X5324423Y6429450D1*
X5305607Y6431510D1*
X5287123Y6435590D1*
X5269190Y6441647D1*
X5252017Y6449603D1*
X5235803Y6459373D1*
X5220743Y6470837D1*
X5207010Y6483863D1*
X5194767Y6498297D1*
X5184153Y6513970D1*
X5175297Y6530700D1*
X5168303Y6548290D1*
X5163250Y6566530D1*
X5160200Y6585210D1*
X5159187Y6604113D1*
X5160223Y6623013D1*
X5163300Y6641690D1*
X5168373Y6659923D1*
X5175393Y6677503D1*
X5184270Y6694220D1*
X5194900Y6709880D1*
X5207163Y6724300D1*
X5220913Y6737307D1*
X5235990Y6748753D1*
X5252217Y6758500D1*
X5269400Y6766437D1*
X5287340Y6772470D1*
X5305830Y6776527D1*
X5324647Y6778563D1*
X5343577Y6778550D1*
X5362393Y6776490D1*
X5380877Y6772410D1*
X5398810Y6766353D1*
X5415983Y6758397D1*
X5432197Y6748627D1*
X5447257Y6737163D1*
X5460990Y6724137D1*
X5473233Y6709703D1*
X5483847Y6694030D1*
X5492703Y6677300D1*
X5499697Y6659710D1*
X5504750Y6641470D1*
X5507800Y6622790D1*
X5508813Y6604000D1*
X5507777Y6584987D1*
Y8489987D2*
X5504700Y8471310D1*
X5499627Y8453077D1*
X5492607Y8435497D1*
X5483730Y8418780D1*
X5473100Y8403120D1*
X5460837Y8388700D1*
X5447087Y8375693D1*
X5432010Y8364247D1*
X5415783Y8354500D1*
X5398600Y8346563D1*
X5380660Y8340530D1*
X5362170Y8336473D1*
X5343353Y8334437D1*
X5324423Y8334450D1*
X5305607Y8336510D1*
X5287123Y8340590D1*
X5269190Y8346647D1*
X5252017Y8354603D1*
X5235803Y8364373D1*
X5220743Y8375837D1*
X5207010Y8388863D1*
X5194767Y8403297D1*
X5184153Y8418970D1*
X5175297Y8435700D1*
X5168303Y8453290D1*
X5163250Y8471530D1*
X5160200Y8490210D1*
X5159187Y8509113D1*
X5160223Y8528013D1*
X5163300Y8546690D1*
X5168373Y8564923D1*
X5175393Y8582503D1*
X5184270Y8599220D1*
X5194900Y8614880D1*
X5207163Y8629300D1*
X5220913Y8642307D1*
X5235990Y8653753D1*
X5252217Y8663500D1*
X5269400Y8671437D1*
X5287340Y8677470D1*
X5305830Y8681527D1*
X5324647Y8683563D1*
X5343577Y8683550D1*
X5362393Y8681490D1*
X5380877Y8677410D1*
X5398810Y8671353D1*
X5415983Y8663397D1*
X5432197Y8653627D1*
X5447257Y8642163D1*
X5460990Y8629137D1*
X5473233Y8614703D1*
X5483847Y8599030D1*
X5492703Y8582300D1*
X5499697Y8564710D1*
X5504750Y8546470D1*
X5507800Y8527790D1*
X5508813Y8509000D1*
X5507777Y8489987D1*
X5568947Y9569450D2*
X5099057D1*
X5099050Y5969050D1*
Y-44443D1*
X5568943Y-44450D1*
X5568950Y3460700D1*
Y9569443D1*
D21*
X4826000Y8559123D3*
Y8813123D3*
X4572000Y8559123D3*
Y8813123D3*
X4318000Y8559123D3*
Y8813123D3*
X4064000Y8559123D3*
Y8813123D3*
X3810000Y8559123D3*
Y8813123D3*
X3556000Y8559123D3*
Y8813123D3*
X3302000Y8559123D3*
Y8813123D3*
X3048000Y8559123D3*
Y8813123D3*
X2794000Y8559123D3*
Y8813123D3*
X2540000Y8559123D3*
Y8813123D3*
X2286000Y8559123D3*
Y8813123D3*
X2032000Y8559123D3*
Y8813123D3*
X1778000Y8559123D3*
Y8813123D3*
X1524000Y8559123D3*
Y8813123D3*
X1270000Y8559123D3*
Y8813123D3*
X1016000Y8559123D3*
Y8813123D3*
X762000Y8559123D3*
Y8813123D3*
X508000Y8559123D3*
Y8813123D3*
X254000Y8559123D3*
Y8813123D3*
X0Y8559123D3*
Y8813123D3*
X4826000Y9229873D3*
Y9483873D3*
X4572000Y9229873D3*
Y9483873D3*
X4318000Y9229873D3*
Y9483873D3*
X4064000Y9229873D3*
Y9483873D3*
X3810000Y9229873D3*
Y9483873D3*
X3556000Y9229873D3*
Y9483873D3*
X3302000Y9229873D3*
Y9483873D3*
X3048000Y9229873D3*
Y9483873D3*
X2794000Y9229873D3*
Y9483873D3*
X2540000Y9229873D3*
Y9483873D3*
X2286000Y9229873D3*
Y9483873D3*
X2032000Y9229873D3*
Y9483873D3*
X1778000Y9229873D3*
Y9483873D3*
X1524000Y9229873D3*
Y9483873D3*
X1270000Y9229873D3*
Y9483873D3*
X1016000Y9229873D3*
Y9483873D3*
X762000Y9229873D3*
Y9483873D3*
X508000Y9229873D3*
Y9483873D3*
X254000Y9229873D3*
Y9483873D3*
X0Y9229873D3*
Y9483873D3*
X4826000Y6590623D3*
Y6844623D3*
X4572000Y6590623D3*
Y6844623D3*
X4318000Y6590623D3*
Y6844623D3*
X4064000Y6590623D3*
Y6844623D3*
X3810000Y6590623D3*
Y6844623D3*
X3556000Y6590623D3*
Y6844623D3*
X3302000Y6590623D3*
Y6844623D3*
X3048000Y6590623D3*
Y6844623D3*
X2794000Y6590623D3*
Y6844623D3*
X2540000Y6590623D3*
Y6844623D3*
X2286000Y6590623D3*
Y6844623D3*
X2032000Y6590623D3*
Y6844623D3*
X1778000Y6590623D3*
Y6844623D3*
X1524000Y6590623D3*
Y6844623D3*
X1270000Y6590623D3*
Y6844623D3*
X1016000Y6590623D3*
Y6844623D3*
X762000Y6590623D3*
Y6844623D3*
X508000Y6590623D3*
Y6844623D3*
X254000Y6590623D3*
Y6844623D3*
X0Y6590623D3*
Y6844623D3*
X4826000Y0D3*
Y254000D3*
X4572000Y0D3*
Y254000D3*
X4318000Y0D3*
Y254000D3*
X4064000Y0D3*
Y254000D3*
X3810000Y0D3*
Y254000D3*
X3556000Y0D3*
Y254000D3*
X3302000Y0D3*
Y254000D3*
X3048000Y0D3*
Y254000D3*
X2794000Y0D3*
Y254000D3*
X2540000Y0D3*
Y254000D3*
X2286000Y0D3*
Y254000D3*
X2032000Y0D3*
Y254000D3*
X1778000Y0D3*
Y254000D3*
X1524000Y0D3*
Y254000D3*
X1270000Y0D3*
Y254000D3*
X1016000Y0D3*
Y254000D3*
X762000Y0D3*
Y254000D3*
X508000Y0D3*
Y254000D3*
X254000Y0D3*
Y254000D3*
X0Y0D3*
Y254000D3*
X4826000Y4622123D3*
Y4876123D3*
X4572000Y4622123D3*
Y4876123D3*
X4318000Y4622123D3*
Y4876123D3*
X4064000Y4622123D3*
Y4876123D3*
X3810000Y4622123D3*
Y4876123D3*
X3556000Y4622123D3*
Y4876123D3*
X3302000Y4622123D3*
Y4876123D3*
X3048000Y4622123D3*
Y4876123D3*
X2794000Y4622123D3*
Y4876123D3*
X2540000Y4622123D3*
Y4876123D3*
X2286000Y4622123D3*
Y4876123D3*
X2032000Y4622123D3*
Y4876123D3*
X1778000Y4622123D3*
Y4876123D3*
X1524000Y4622123D3*
Y4876123D3*
X1270000Y4622123D3*
Y4876123D3*
X1016000Y4622123D3*
Y4876123D3*
X762000Y4622123D3*
Y4876123D3*
X508000Y4622123D3*
Y4876123D3*
X254000Y4622123D3*
Y4876123D3*
X0Y4622123D3*
Y4876123D3*
X4826000Y2653623D3*
Y2907623D3*
X4572000Y2653623D3*
Y2907623D3*
X4318000Y2653623D3*
Y2907623D3*
X4064000Y2653623D3*
Y2907623D3*
X3810000Y2653623D3*
Y2907623D3*
X3556000Y2653623D3*
Y2907623D3*
X3302000Y2653623D3*
Y2907623D3*
X3048000Y2653623D3*
Y2907623D3*
X2794000Y2653623D3*
Y2907623D3*
X2540000Y2653623D3*
Y2907623D3*
X2286000Y2653623D3*
Y2907623D3*
X2032000Y2653623D3*
Y2907623D3*
X1778000Y2653623D3*
Y2907623D3*
X1524000Y2653623D3*
Y2907623D3*
X1270000Y2653623D3*
Y2907623D3*
X1016000Y2653623D3*
Y2907623D3*
X762000Y2653623D3*
Y2907623D3*
X508000Y2653623D3*
Y2907623D3*
X254000Y2653623D3*
Y2907623D3*
X0Y2653623D3*
Y2907623D3*
X4826000Y685123D3*
Y939123D3*
X4572000Y685123D3*
Y939123D3*
X4318000Y685123D3*
Y939123D3*
X4064000Y685123D3*
Y939123D3*
X3810000Y685123D3*
Y939123D3*
X3556000Y685123D3*
Y939123D3*
X3302000Y685123D3*
Y939123D3*
X3048000Y685123D3*
Y939123D3*
X2794000Y685123D3*
Y939123D3*
X2540000Y685123D3*
Y939123D3*
X2286000Y685123D3*
Y939123D3*
X2032000Y685123D3*
Y939123D3*
X1778000Y685123D3*
Y939123D3*
X1524000Y685123D3*
Y939123D3*
X1270000Y685123D3*
Y939123D3*
X1016000Y685123D3*
Y939123D3*
X762000Y685123D3*
Y939123D3*
X508000Y685123D3*
Y939123D3*
X254000Y685123D3*
Y939123D3*
X0Y685123D3*
Y939123D3*
D22*
X5334000Y9398000D3*
Y7493000D3*
Y5463497D3*
Y1526497D3*
Y127000D3*
Y3558497D3*
M02*
