G04 DipTrace 4.3.0.5*
G04 BottomSilk.gbr*
%MOMM*%
G04 #@! TF.FileFunction,Legend,Bot*
G04 #@! TF.Part,Single*
%ADD10C,0.25*%
%ADD20C,0.5*%
%ADD30C,0.19608*%
%ADD31C,0.31373*%
%ADD32C,0.23529*%
%ADD33C,0.15686*%
%FSLAX35Y35*%
G04*
G71*
G90*
G75*
G01*
G04 BotSilk*
%LPD*%
X-127000Y8940123D2*
D10*
Y8432123D1*
X4953000D1*
Y8940123D1*
X-127000D1*
Y9610873D2*
Y9102873D1*
X4953000D1*
Y9610873D1*
X-127000D1*
Y6971623D2*
Y6463623D1*
X4953000D1*
Y6971623D1*
X-127000D1*
Y381000D2*
Y-127000D1*
X4953000D1*
Y381000D1*
X-127000D1*
Y5003123D2*
Y4495123D1*
X4953000D1*
Y5003123D1*
X-127000D1*
Y3034623D2*
Y2526623D1*
X4953000D1*
Y3034623D1*
X-127000D1*
Y1066123D2*
Y558123D1*
X4953000D1*
Y1066123D1*
X-127000D1*
X-127010Y7493000D2*
D20*
X5334000D1*
X-127000Y5461000D2*
X5334000Y5463497D1*
X-127010Y3558497D2*
X5334000D1*
X-127010Y1526497D2*
X5334000D1*
X64428Y8260620D2*
D31*
X44886Y8270503D1*
X15686Y8299479D1*
Y8095528D1*
X4835065D2*
Y8299479D1*
X4932324Y8163586D1*
X4786548D1*
X4665403Y8299479D2*
X4694603Y8289820D1*
X4714145Y8260620D1*
X4723803Y8212103D1*
Y8182903D1*
X4714145Y8134386D1*
X4694603Y8105186D1*
X4665403Y8095528D1*
X4646086D1*
X4616886Y8105186D1*
X4597569Y8134386D1*
X4587686Y8182903D1*
Y8212103D1*
X4597569Y8260620D1*
X4616886Y8289820D1*
X4646086Y8299479D1*
X4665403D1*
X4597569Y8260620D2*
X4714145Y8134386D1*
X4651827Y6348265D2*
D32*
X4673559Y6341021D1*
X4680971Y6326533D1*
Y6311877D1*
X4673559Y6297389D1*
X4659071Y6289977D1*
X4629927Y6282733D1*
X4608027Y6275489D1*
X4593539Y6260833D1*
X4586296Y6246346D1*
Y6224446D1*
X4593539Y6209958D1*
X4600783Y6202546D1*
X4622683Y6195302D1*
X4651827D1*
X4673559Y6202546D1*
X4680971Y6209958D1*
X4688215Y6224446D1*
Y6246346D1*
X4680971Y6260833D1*
X4666315Y6275489D1*
X4644583Y6282733D1*
X4615439Y6289977D1*
X4600783Y6297389D1*
X4593539Y6311877D1*
Y6326533D1*
X4600783Y6341021D1*
X4622683Y6348265D1*
X4651827D1*
X4495437D2*
X4517337Y6341021D1*
X4531993Y6319121D1*
X4539237Y6282733D1*
Y6260833D1*
X4531993Y6224446D1*
X4517337Y6202546D1*
X4495437Y6195302D1*
X4480949D1*
X4459049Y6202546D1*
X4444561Y6224446D1*
X4437149Y6260833D1*
Y6282733D1*
X4444561Y6319121D1*
X4459049Y6341021D1*
X4480949Y6348265D1*
X4495437D1*
X4444561Y6319121D2*
X4531993Y6224446D1*
X4302659Y6348265D2*
X4375434D1*
X4382678Y6282733D1*
X4375434Y6289977D1*
X4353534Y6297389D1*
X4331803D1*
X4309903Y6289977D1*
X4295246Y6275489D1*
X4288003Y6253589D1*
Y6239102D1*
X4295246Y6217202D1*
X4309903Y6202546D1*
X4331803Y6195302D1*
X4353534D1*
X4375434Y6202546D1*
X4382678Y6209958D1*
X4390090Y6224446D1*
X4240944Y6319121D2*
X4226288Y6326533D1*
X4204388Y6348265D1*
Y6195302D1*
X4009193Y6348433D2*
Y6195302D1*
X3943493D1*
X3921593Y6202714D1*
X3914349Y6209958D1*
X3907105Y6224446D1*
Y6246346D1*
X3914349Y6261002D1*
X3921593Y6268246D1*
X3943493Y6275489D1*
X3921593Y6282902D1*
X3914349Y6290146D1*
X3907105Y6304633D1*
Y6319289D1*
X3914349Y6333777D1*
X3921593Y6341189D1*
X3943493Y6348433D1*
X4009193D1*
Y6275489D2*
X3943493D1*
X3772615Y6297389D2*
Y6195302D1*
Y6275489D2*
X3787103Y6290146D1*
X3801759Y6297389D1*
X3823490D1*
X3838146Y6290146D1*
X3852634Y6275489D1*
X3860046Y6253589D1*
Y6239102D1*
X3852634Y6217202D1*
X3838146Y6202714D1*
X3823490Y6195302D1*
X3801759D1*
X3787103Y6202714D1*
X3772615Y6217202D1*
X3637956Y6275489D2*
X3652612Y6290146D1*
X3667268Y6297389D1*
X3689000D1*
X3703656Y6290146D1*
X3718144Y6275489D1*
X3725556Y6253589D1*
Y6239102D1*
X3718144Y6217202D1*
X3703656Y6202714D1*
X3689000Y6195302D1*
X3667268D1*
X3652612Y6202714D1*
X3637956Y6217202D1*
X3590897Y6348433D2*
Y6195302D1*
X3517953Y6297389D2*
X3590897Y6224446D1*
X3561753Y6253589D2*
X3510710Y6195302D1*
X3463651Y6297389D2*
Y6144258D1*
Y6275489D2*
X3448995Y6289977D1*
X3434507Y6297389D1*
X3412607D1*
X3397951Y6289977D1*
X3383463Y6275489D1*
X3376051Y6253589D1*
Y6238933D1*
X3383463Y6217202D1*
X3397951Y6202546D1*
X3412607Y6195302D1*
X3434507D1*
X3448995Y6202546D1*
X3463651Y6217202D1*
X3328992Y6348433D2*
Y6195302D1*
X3194502Y6297389D2*
Y6195302D1*
Y6275489D2*
X3208989Y6290146D1*
X3223645Y6297389D1*
X3245377D1*
X3260033Y6290146D1*
X3274521Y6275489D1*
X3281933Y6253589D1*
Y6239102D1*
X3274521Y6217202D1*
X3260033Y6202714D1*
X3245377Y6195302D1*
X3223645D1*
X3208989Y6202714D1*
X3194502Y6217202D1*
X3147443Y6297389D2*
Y6195302D1*
Y6268246D2*
X3125543Y6290146D1*
X3110887Y6297389D1*
X3089155D1*
X3074499Y6290146D1*
X3067255Y6268246D1*
Y6195302D1*
X3020196Y6253589D2*
X2932765D1*
Y6268246D1*
X2940009Y6282902D1*
X2947252Y6290146D1*
X2961909Y6297389D1*
X2983809D1*
X2998296Y6290146D1*
X3012952Y6275489D1*
X3020196Y6253589D1*
Y6239102D1*
X3012952Y6217202D1*
X2998296Y6202714D1*
X2983809Y6195302D1*
X2961909D1*
X2947252Y6202714D1*
X2932765Y6217202D1*
X3114631Y8189933D2*
Y8036802D1*
X3048931D1*
X3027031Y8044214D1*
X3019788Y8051458D1*
X3012544Y8065946D1*
Y8087846D1*
X3019788Y8102502D1*
X3027031Y8109746D1*
X3048931Y8116989D1*
X3027031Y8124402D1*
X3019788Y8131646D1*
X3012544Y8146133D1*
Y8160789D1*
X3019788Y8175277D1*
X3027031Y8182689D1*
X3048931Y8189933D1*
X3114631D1*
Y8116989D2*
X3048931D1*
X2878053Y8138889D2*
Y8036802D1*
Y8116989D2*
X2892541Y8131646D1*
X2907197Y8138889D1*
X2928929D1*
X2943585Y8131646D1*
X2958073Y8116989D1*
X2965485Y8095089D1*
Y8080602D1*
X2958073Y8058702D1*
X2943585Y8044214D1*
X2928929Y8036802D1*
X2907197D1*
X2892541Y8044214D1*
X2878053Y8058702D1*
X2743395Y8116989D2*
X2758051Y8131646D1*
X2772707Y8138889D1*
X2794438D1*
X2809095Y8131646D1*
X2823582Y8116989D1*
X2830995Y8095089D1*
Y8080602D1*
X2823582Y8058702D1*
X2809095Y8044214D1*
X2794438Y8036802D1*
X2772707D1*
X2758051Y8044214D1*
X2743395Y8058702D1*
X2696336Y8189933D2*
Y8036802D1*
X2623392Y8138889D2*
X2696336Y8065946D1*
X2667192Y8095089D2*
X2616148Y8036802D1*
X2569089Y8138889D2*
Y7985758D1*
Y8116989D2*
X2554433Y8131477D1*
X2539945Y8138889D1*
X2518045D1*
X2503389Y8131477D1*
X2488901Y8116989D1*
X2481489Y8095089D1*
Y8080433D1*
X2488901Y8058702D1*
X2503389Y8044046D1*
X2518045Y8036802D1*
X2539945D1*
X2554433Y8044046D1*
X2569089Y8058702D1*
X2434430Y8189933D2*
Y8036802D1*
X2299940Y8138889D2*
Y8036802D1*
Y8116989D2*
X2314428Y8131646D1*
X2329084Y8138889D1*
X2350815D1*
X2365472Y8131646D1*
X2379959Y8116989D1*
X2387372Y8095089D1*
Y8080602D1*
X2379959Y8058702D1*
X2365472Y8044214D1*
X2350815Y8036802D1*
X2329084D1*
X2314428Y8044214D1*
X2299940Y8058702D1*
X2252881Y8138889D2*
Y8036802D1*
Y8109746D2*
X2230981Y8131646D1*
X2216325Y8138889D1*
X2194593D1*
X2179937Y8131646D1*
X2172693Y8109746D1*
Y8036802D1*
X2125635Y8095089D2*
X2038203D1*
Y8109746D1*
X2045447Y8124402D1*
X2052691Y8131646D1*
X2067347Y8138889D1*
X2089247D1*
X2103735Y8131646D1*
X2118391Y8116989D1*
X2125635Y8095089D1*
Y8080602D1*
X2118391Y8058702D1*
X2103735Y8044214D1*
X2089247Y8036802D1*
X2067347D1*
X2052691Y8044214D1*
X2038203Y8058702D1*
X1726265Y8036802D2*
X1784721Y8189933D1*
X1843009Y8036802D1*
X1821109Y8087846D2*
X1748165D1*
X4747449Y5976048D2*
D30*
X4698875Y5848439D1*
X4650302Y5976048D1*
X4604910Y5945585D2*
Y5951621D1*
X4598873Y5963835D1*
X4592837Y5969871D1*
X4580623Y5975908D1*
X4556337D1*
X4544264Y5969871D1*
X4538227Y5963835D1*
X4532050Y5951621D1*
Y5939548D1*
X4538227Y5927335D1*
X4550300Y5909225D1*
X4611087Y5848439D1*
X4526014D1*
X4480761Y5860652D2*
X4486798Y5854475D1*
X4480761Y5848439D1*
X4474584Y5854475D1*
X4480761Y5860652D1*
X4398869Y5975908D2*
X4417119Y5969871D1*
X4429332Y5951621D1*
X4435369Y5921298D1*
Y5903048D1*
X4429332Y5872725D1*
X4417119Y5854475D1*
X4398869Y5848439D1*
X4386796D1*
X4368546Y5854475D1*
X4356473Y5872725D1*
X4350296Y5903048D1*
Y5921298D1*
X4356473Y5951621D1*
X4368546Y5969871D1*
X4386796Y5975908D1*
X4398869D1*
X4356473Y5951621D2*
X4429332Y5872725D1*
X4274580Y5975908D2*
X4292830Y5969871D1*
X4305043Y5951621D1*
X4311080Y5921298D1*
Y5903048D1*
X4305043Y5872725D1*
X4292830Y5854475D1*
X4274580Y5848439D1*
X4262507D1*
X4244257Y5854475D1*
X4232184Y5872725D1*
X4226007Y5903048D1*
Y5921298D1*
X4232184Y5951621D1*
X4244257Y5969871D1*
X4262507Y5975908D1*
X4274580D1*
X4232184Y5951621D2*
X4305043Y5872725D1*
X4002558Y5976048D2*
Y5878902D1*
X4008595Y5860652D1*
X4014772Y5854616D1*
X4026845Y5848439D1*
X4039058D1*
X4051131Y5854616D1*
X4057168Y5860652D1*
X4063345Y5878902D1*
Y5890975D1*
X3963343Y5933512D2*
Y5872725D1*
X3957306Y5854616D1*
X3945093Y5848439D1*
X3926843D1*
X3914769Y5854616D1*
X3896519Y5872725D1*
Y5933512D2*
Y5848439D1*
X3857304Y5933512D2*
Y5848439D1*
Y5909225D2*
X3839054Y5927475D1*
X3826840Y5933512D1*
X3808731D1*
X3796517Y5927475D1*
X3790481Y5909225D1*
Y5848439D1*
X3751265Y5897012D2*
X3678405D1*
Y5909225D1*
X3684442Y5921439D1*
X3690479Y5927475D1*
X3702692Y5933512D1*
X3720942D1*
X3733015Y5927475D1*
X3745229Y5915262D1*
X3751265Y5897012D1*
Y5884939D1*
X3745229Y5866689D1*
X3733015Y5854616D1*
X3720942Y5848439D1*
X3702692D1*
X3690479Y5854616D1*
X3678405Y5866689D1*
X3509566Y5945585D2*
Y5951621D1*
X3503530Y5963835D1*
X3497493Y5969871D1*
X3485280Y5975908D1*
X3460993D1*
X3448920Y5969871D1*
X3442884Y5963835D1*
X3436707Y5951621D1*
Y5939548D1*
X3442884Y5927335D1*
X3454957Y5909225D1*
X3515743Y5848439D1*
X3430670D1*
X3354955Y5975908D2*
X3373205Y5969871D1*
X3385418Y5951621D1*
X3391455Y5921298D1*
Y5903048D1*
X3385418Y5872725D1*
X3373205Y5854475D1*
X3354955Y5848439D1*
X3342881D1*
X3324631Y5854475D1*
X3312558Y5872725D1*
X3306381Y5903048D1*
Y5921298D1*
X3312558Y5951621D1*
X3324631Y5969871D1*
X3342881Y5975908D1*
X3354955D1*
X3312558Y5951621D2*
X3385418Y5872725D1*
X3260989Y5945585D2*
Y5951621D1*
X3254952Y5963835D1*
X3248916Y5969871D1*
X3236702Y5975908D1*
X3212416D1*
X3200343Y5969871D1*
X3194306Y5963835D1*
X3188129Y5951621D1*
Y5939548D1*
X3194306Y5927335D1*
X3206379Y5909225D1*
X3267166Y5848439D1*
X3182093D1*
X3130664Y5975908D2*
X3063981D1*
X3100340Y5927335D1*
X3082090D1*
X3070017Y5921298D1*
X3063981Y5915262D1*
X3057804Y5897012D1*
Y5884939D1*
X3063981Y5866689D1*
X3076054Y5854475D1*
X3094304Y5848439D1*
X3112554D1*
X3130664Y5854475D1*
X3136700Y5860652D1*
X3142877Y5872725D1*
X4592231Y5691725D2*
X4598267Y5703798D1*
X4610481Y5716012D1*
X4622554Y5722048D1*
X4646840D1*
X4659054Y5716012D1*
X4671127Y5703798D1*
X4677304Y5691725D1*
X4683340Y5673475D1*
Y5643012D1*
X4677304Y5624902D1*
X4671127Y5612689D1*
X4659054Y5600616D1*
X4646840Y5594439D1*
X4622554D1*
X4610481Y5600616D1*
X4598267Y5612689D1*
X4592231Y5624902D1*
X4522692Y5679512D2*
X4534765Y5673475D1*
X4546979Y5661262D1*
X4553015Y5643012D1*
Y5630939D1*
X4546979Y5612689D1*
X4534765Y5600616D1*
X4522692Y5594439D1*
X4504442D1*
X4492229Y5600616D1*
X4480156Y5612689D1*
X4473979Y5630939D1*
Y5643012D1*
X4480156Y5661262D1*
X4492229Y5673475D1*
X4504442Y5679512D1*
X4522692D1*
X4434763D2*
Y5551902D1*
Y5661262D2*
X4422550Y5673335D1*
X4410476Y5679512D1*
X4392226D1*
X4380013Y5673335D1*
X4367940Y5661262D1*
X4361763Y5643012D1*
Y5630798D1*
X4367940Y5612689D1*
X4380013Y5600475D1*
X4392226Y5594439D1*
X4410476D1*
X4422550Y5600475D1*
X4434763Y5612689D1*
X4316370Y5679512D2*
X4280011Y5594439D1*
X4292084Y5570152D1*
X4304297Y5557939D1*
X4316370Y5551902D1*
X4322547D1*
X4243511Y5679512D2*
X4280011Y5594439D1*
X4204295Y5679512D2*
Y5594439D1*
Y5643012D2*
X4198118Y5661262D1*
X4186045Y5673475D1*
X4173832Y5679512D1*
X4155582D1*
X4116366Y5722048D2*
X4110329Y5716012D1*
X4104152Y5722048D1*
X4110329Y5728225D1*
X4116366Y5722048D1*
X4110329Y5679512D2*
Y5594439D1*
X3992077Y5673475D2*
Y5576189D1*
X3998114Y5558079D1*
X4004150Y5551902D1*
X4016364Y5545866D1*
X4034614D1*
X4046687Y5551902D1*
X3992077Y5655225D2*
X4004150Y5667298D1*
X4016364Y5673475D1*
X4034614D1*
X4046687Y5667298D1*
X4058900Y5655225D1*
X4064937Y5636975D1*
Y5624762D1*
X4058900Y5606652D1*
X4046687Y5594439D1*
X4034614Y5588402D1*
X4016364D1*
X4004150Y5594439D1*
X3992077Y5606652D1*
X3952861Y5722048D2*
Y5594439D1*
Y5655225D2*
X3934611Y5673475D1*
X3922398Y5679512D1*
X3904148D1*
X3892075Y5673475D1*
X3886038Y5655225D1*
Y5594439D1*
X3828573Y5722048D2*
Y5618725D1*
X3822536Y5600616D1*
X3810323Y5594439D1*
X3798250D1*
X3846823Y5679512D2*
X3804286D1*
X3593051Y5755319D2*
X3605264Y5743246D1*
X3617337Y5724996D1*
X3629551Y5700710D1*
X3635587Y5670246D1*
Y5645960D1*
X3629551Y5615637D1*
X3617337Y5591350D1*
X3605264Y5573100D1*
X3593051Y5561027D1*
X3480835Y5661262D2*
X3493049Y5673475D1*
X3505262Y5679512D1*
X3523372D1*
X3535585Y5673475D1*
X3547658Y5661262D1*
X3553835Y5643012D1*
Y5630939D1*
X3547658Y5612689D1*
X3535585Y5600616D1*
X3523372Y5594439D1*
X3505262D1*
X3493049Y5600616D1*
X3480835Y5612689D1*
X3441620Y5755319D2*
X3429406Y5743246D1*
X3417333Y5724996D1*
X3405120Y5700710D1*
X3399083Y5670246D1*
Y5645960D1*
X3405120Y5615637D1*
X3417333Y5591350D1*
X3429406Y5573100D1*
X3441620Y5561027D1*
X3139134Y5594439D2*
X3187848Y5722048D1*
X3236421Y5594439D1*
X3218171Y5636975D2*
X3157384D1*
X3099919Y5722048D2*
Y5594439D1*
X3054526Y5679512D2*
X3018166Y5594439D1*
X3030240Y5570152D1*
X3042453Y5557939D1*
X3054526Y5551902D1*
X3060703D1*
X2981666Y5679512D2*
X3018166Y5594439D1*
X2875628Y5661262D2*
X2881664Y5673475D1*
X2899914Y5679512D1*
X2918164D1*
X2936414Y5673475D1*
X2942451Y5661262D1*
X2936414Y5649189D1*
X2924201Y5643012D1*
X2893878Y5636975D1*
X2881664Y5630939D1*
X2875628Y5618725D1*
Y5612689D1*
X2881664Y5600616D1*
X2899914Y5594439D1*
X2918164D1*
X2936414Y5600616D1*
X2942451Y5612689D1*
X2769589Y5661262D2*
X2775625Y5673475D1*
X2793875Y5679512D1*
X2812125D1*
X2830375Y5673475D1*
X2836412Y5661262D1*
X2830375Y5649189D1*
X2818162Y5643012D1*
X2787839Y5636975D1*
X2775625Y5630939D1*
X2769589Y5618725D1*
Y5612689D1*
X2775625Y5600616D1*
X2793875Y5594439D1*
X2812125D1*
X2830375Y5600616D1*
X2836412Y5612689D1*
X2700050Y5679512D2*
X2712123Y5673475D1*
X2724337Y5661262D1*
X2730373Y5643012D1*
Y5630939D1*
X2724337Y5612689D1*
X2712123Y5600616D1*
X2700050Y5594439D1*
X2681800D1*
X2669587Y5600616D1*
X2657514Y5612689D1*
X2651337Y5630939D1*
Y5643012D1*
X2657514Y5661262D1*
X2669587Y5673475D1*
X2681800Y5679512D1*
X2700050D1*
X2612121D2*
Y5594439D1*
Y5655225D2*
X2593871Y5673475D1*
X2581658Y5679512D1*
X2563548D1*
X2551334Y5673475D1*
X2545298Y5655225D1*
Y5594439D1*
X2382636Y5661262D2*
X2328026D1*
X2309776Y5667439D1*
X2303599Y5673475D1*
X2297563Y5685548D1*
Y5697762D1*
X2303599Y5709835D1*
X2309776Y5716012D1*
X2328026Y5722048D1*
X2382636D1*
Y5594439D1*
X2340099Y5661262D2*
X2297563Y5594439D1*
X2228024Y5679512D2*
X2240097Y5673475D1*
X2252310Y5661262D1*
X2258347Y5643012D1*
Y5630939D1*
X2252310Y5612689D1*
X2240097Y5600616D1*
X2228024Y5594439D1*
X2209774D1*
X2197560Y5600616D1*
X2185487Y5612689D1*
X2179310Y5630939D1*
Y5643012D1*
X2185487Y5661262D1*
X2197560Y5673475D1*
X2209774Y5679512D1*
X2228024D1*
X2140095D2*
X2115808Y5594439D1*
X2091522Y5679512D1*
X2067235Y5594439D1*
X2042949Y5679512D1*
X1930873D2*
Y5594439D1*
Y5661262D2*
X1942946Y5673475D1*
X1955160Y5679512D1*
X1973269D1*
X1985483Y5673475D1*
X1997556Y5661262D1*
X2003733Y5643012D1*
Y5630939D1*
X1997556Y5612689D1*
X1985483Y5600616D1*
X1973269Y5594439D1*
X1955160D1*
X1942946Y5600616D1*
X1930873Y5612689D1*
X1891658Y5679512D2*
Y5594439D1*
Y5655225D2*
X1873408Y5673475D1*
X1861194Y5679512D1*
X1843085D1*
X1830871Y5673475D1*
X1824835Y5655225D1*
Y5594439D1*
X1773405Y5600475D2*
X1779582Y5594439D1*
X1785619Y5600475D1*
X1779582Y5606652D1*
X1773405Y5600475D1*
Y5588402D1*
X1779582Y5576189D1*
X1785619Y5570152D1*
X1604566Y5691585D2*
Y5697621D1*
X1598530Y5709835D1*
X1592493Y5715871D1*
X1580280Y5721908D1*
X1555993D1*
X1543920Y5715871D1*
X1537884Y5709835D1*
X1531707Y5697621D1*
Y5685548D1*
X1537884Y5673335D1*
X1549957Y5655225D1*
X1610743Y5594439D1*
X1525670D1*
X1449955Y5721908D2*
X1468205Y5715871D1*
X1480418Y5697621D1*
X1486455Y5667298D1*
Y5649048D1*
X1480418Y5618725D1*
X1468205Y5600475D1*
X1449955Y5594439D1*
X1437881D1*
X1419631Y5600475D1*
X1407558Y5618725D1*
X1401381Y5649048D1*
Y5667298D1*
X1407558Y5697621D1*
X1419631Y5715871D1*
X1437881Y5721908D1*
X1449955D1*
X1407558Y5697621D2*
X1480418Y5618725D1*
X1355989Y5691585D2*
Y5697621D1*
X1349952Y5709835D1*
X1343916Y5715871D1*
X1331702Y5721908D1*
X1307416D1*
X1295343Y5715871D1*
X1289306Y5709835D1*
X1283129Y5697621D1*
Y5685548D1*
X1289306Y5673335D1*
X1301379Y5655225D1*
X1362166Y5594439D1*
X1277093D1*
X1225664Y5721908D2*
X1158981D1*
X1195340Y5673335D1*
X1177090D1*
X1165017Y5667298D1*
X1158981Y5661262D1*
X1152804Y5643012D1*
Y5630939D1*
X1158981Y5612689D1*
X1171054Y5600475D1*
X1189304Y5594439D1*
X1207554D1*
X1225664Y5600475D1*
X1231700Y5606652D1*
X1237877Y5618725D1*
X4807090Y5349663D2*
D33*
Y5247576D1*
Y5296205D2*
X4792490Y5310805D1*
X4782719Y5315634D1*
X4768119D1*
X4758461Y5310805D1*
X4753632Y5296205D1*
Y5247576D1*
X4707659Y5349663D2*
Y5267005D1*
X4702830Y5252517D1*
X4693059Y5247576D1*
X4683401D1*
X4722259Y5315634D2*
X4688230D1*
X4637428Y5349663D2*
Y5267005D1*
X4632599Y5252517D1*
X4622828Y5247576D1*
X4613170D1*
X4652028Y5315634D2*
X4617999D1*
X4581797D2*
Y5213546D1*
Y5301034D2*
X4572026Y5310693D1*
X4562368Y5315634D1*
X4547768D1*
X4537997Y5310693D1*
X4528339Y5301034D1*
X4523397Y5286434D1*
Y5276663D1*
X4528339Y5262176D1*
X4537997Y5252405D1*
X4547768Y5247576D1*
X4562368D1*
X4572026Y5252405D1*
X4581797Y5262176D1*
X4438566Y5301034D2*
X4443395Y5310805D1*
X4457995Y5315634D1*
X4472595D1*
X4487195Y5310805D1*
X4492024Y5301034D1*
X4487195Y5291376D1*
X4477424Y5286434D1*
X4453166Y5281605D1*
X4443395Y5276776D1*
X4438566Y5267005D1*
Y5262176D1*
X4443395Y5252517D1*
X4457995Y5247576D1*
X4472595D1*
X4487195Y5252517D1*
X4492024Y5262176D1*
X4402252Y5315634D2*
X4407193Y5310693D1*
X4402252Y5305863D1*
X4397423Y5310693D1*
X4402252Y5315634D1*
Y5257346D2*
X4407193Y5252405D1*
X4402252Y5247576D1*
X4397423Y5252405D1*
X4402252Y5257346D1*
X4366050Y5247576D2*
X4297992Y5349551D1*
X4266619Y5247576D2*
X4198561Y5349551D1*
X4108900Y5310805D2*
Y5232976D1*
X4113730Y5218488D1*
X4118559Y5213546D1*
X4128330Y5208717D1*
X4142930D1*
X4152588Y5213546D1*
X4108900Y5296205D2*
X4118559Y5305863D1*
X4128330Y5310805D1*
X4142930D1*
X4152588Y5305863D1*
X4162359Y5296205D1*
X4167188Y5281605D1*
Y5271834D1*
X4162359Y5257346D1*
X4152588Y5247576D1*
X4142930Y5242746D1*
X4128330D1*
X4118559Y5247576D1*
X4108900Y5257346D1*
X4077528Y5349663D2*
X4072699Y5344834D1*
X4067757Y5349663D1*
X4072699Y5354605D1*
X4077528Y5349663D1*
X4072699Y5315634D2*
Y5247576D1*
X4021785Y5349663D2*
Y5267005D1*
X4016955Y5252517D1*
X4007185Y5247576D1*
X3997526D1*
X4036385Y5315634D2*
X4002355D1*
X3966154Y5349663D2*
Y5247576D1*
Y5296205D2*
X3951554Y5310805D1*
X3941783Y5315634D1*
X3927183D1*
X3917524Y5310805D1*
X3912695Y5296205D1*
Y5247576D1*
X3881323Y5315634D2*
Y5267005D1*
X3876493Y5252517D1*
X3866723Y5247576D1*
X3852123D1*
X3842464Y5252517D1*
X3827864Y5267005D1*
Y5315634D2*
Y5247576D1*
X3796491Y5349663D2*
Y5247576D1*
Y5301034D2*
X3786721Y5310805D1*
X3777062Y5315634D1*
X3762462D1*
X3752804Y5310805D1*
X3743033Y5301034D1*
X3738204Y5286434D1*
Y5276776D1*
X3743033Y5262176D1*
X3752804Y5252517D1*
X3762462Y5247576D1*
X3777062D1*
X3786721Y5252517D1*
X3796491Y5262176D1*
X3702002Y5257346D2*
X3706831Y5252405D1*
X3702002Y5247576D1*
X3697060Y5252405D1*
X3702002Y5257346D1*
X3607288Y5301034D2*
X3617059Y5310805D1*
X3626829Y5315634D1*
X3641317D1*
X3651088Y5310805D1*
X3660746Y5301034D1*
X3665688Y5286434D1*
Y5276776D1*
X3660746Y5262176D1*
X3651088Y5252517D1*
X3641317Y5247576D1*
X3626829D1*
X3617059Y5252517D1*
X3607288Y5262176D1*
X3551657Y5315634D2*
X3561315Y5310805D1*
X3571086Y5301034D1*
X3575915Y5286434D1*
Y5276776D1*
X3571086Y5262176D1*
X3561315Y5252517D1*
X3551657Y5247576D1*
X3537057D1*
X3527286Y5252517D1*
X3517628Y5262176D1*
X3512686Y5276776D1*
Y5286434D1*
X3517628Y5301034D1*
X3527286Y5310805D1*
X3537057Y5315634D1*
X3551657D1*
X3481314D2*
Y5247576D1*
Y5296205D2*
X3466714Y5310805D1*
X3456943Y5315634D1*
X3442455D1*
X3432684Y5310805D1*
X3427855Y5296205D1*
Y5247576D1*
Y5296205D2*
X3413255Y5310805D1*
X3403484Y5315634D1*
X3388997D1*
X3379226Y5310805D1*
X3374284Y5296205D1*
Y5247576D1*
X3342912D2*
X3274853Y5349551D1*
X3165652Y5247576D2*
X3204622Y5349663D1*
X3243481Y5247576D1*
X3228881Y5281605D2*
X3180252D1*
X3134279Y5349663D2*
Y5247576D1*
X3097965Y5315634D2*
X3068877Y5247576D1*
X3078536Y5228146D1*
X3088306Y5218376D1*
X3097965Y5213546D1*
X3102906D1*
X3039677Y5315634D2*
X3068877Y5247576D1*
X2954846Y5301034D2*
X2959675Y5310805D1*
X2974275Y5315634D1*
X2988875D1*
X3003475Y5310805D1*
X3008305Y5301034D1*
X3003475Y5291376D1*
X2993705Y5286434D1*
X2969446Y5281605D1*
X2959675Y5276776D1*
X2954846Y5267005D1*
Y5262176D1*
X2959675Y5252517D1*
X2974275Y5247576D1*
X2988875D1*
X3003475Y5252517D1*
X3008305Y5262176D1*
X2870015Y5301034D2*
X2874844Y5310805D1*
X2889444Y5315634D1*
X2904044D1*
X2918644Y5310805D1*
X2923474Y5301034D1*
X2918644Y5291376D1*
X2908874Y5286434D1*
X2884615Y5281605D1*
X2874844Y5276776D1*
X2870015Y5267005D1*
Y5262176D1*
X2874844Y5252517D1*
X2889444Y5247576D1*
X2904044D1*
X2918644Y5252517D1*
X2923474Y5262176D1*
X2814384Y5315634D2*
X2824043Y5310805D1*
X2833813Y5301034D1*
X2838643Y5286434D1*
Y5276776D1*
X2833813Y5262176D1*
X2824043Y5252517D1*
X2814384Y5247576D1*
X2799784D1*
X2790013Y5252517D1*
X2780355Y5262176D1*
X2775413Y5276776D1*
Y5286434D1*
X2780355Y5301034D1*
X2790013Y5310805D1*
X2799784Y5315634D1*
X2814384D1*
X2744041D2*
Y5247576D1*
Y5296205D2*
X2729441Y5310805D1*
X2719670Y5315634D1*
X2705182D1*
X2695412Y5310805D1*
X2690582Y5296205D1*
Y5247576D1*
X2659210Y5301034D2*
X2615522D1*
X2600922Y5305976D1*
X2595981Y5310805D1*
X2591151Y5320463D1*
Y5330234D1*
X2595981Y5339893D1*
X2600922Y5344834D1*
X2615522Y5349663D1*
X2659210D1*
Y5247576D1*
X2625181Y5301034D2*
X2591151Y5247576D1*
X2535520Y5315634D2*
X2545179Y5310805D1*
X2554950Y5301034D1*
X2559779Y5286434D1*
Y5276776D1*
X2554950Y5262176D1*
X2545179Y5252517D1*
X2535520Y5247576D1*
X2520920D1*
X2511150Y5252517D1*
X2501491Y5262176D1*
X2496550Y5276776D1*
Y5286434D1*
X2501491Y5301034D1*
X2511150Y5310805D1*
X2520920Y5315634D1*
X2535520D1*
X2465177D2*
X2445748Y5247576D1*
X2426319Y5315634D1*
X2406889Y5247576D1*
X2387460Y5315634D1*
X2297800D2*
Y5247576D1*
Y5301034D2*
X2307458Y5310805D1*
X2317229Y5315634D1*
X2331717D1*
X2341488Y5310805D1*
X2351146Y5301034D1*
X2356088Y5286434D1*
Y5276776D1*
X2351146Y5262176D1*
X2341488Y5252517D1*
X2331717Y5247576D1*
X2317229D1*
X2307458Y5252517D1*
X2297800Y5262176D1*
X2266427Y5315634D2*
Y5247576D1*
Y5296205D2*
X2251827Y5310805D1*
X2242057Y5315634D1*
X2227569D1*
X2217798Y5310805D1*
X2212969Y5296205D1*
Y5247576D1*
X2181596D2*
X2113538Y5349551D1*
X2004448Y5247576D2*
Y5349663D1*
X2043307Y5247576D1*
X2082165Y5349663D1*
Y5247576D1*
X1900188Y5325405D2*
X1905017Y5335063D1*
X1914788Y5344834D1*
X1924447Y5349663D1*
X1943876D1*
X1953647Y5344834D1*
X1963305Y5335063D1*
X1968247Y5325405D1*
X1973076Y5310805D1*
Y5286434D1*
X1968247Y5271946D1*
X1963305Y5262176D1*
X1953647Y5252517D1*
X1943876Y5247576D1*
X1924447D1*
X1914788Y5252517D1*
X1905017Y5262176D1*
X1900188Y5271946D1*
X1800757Y5335063D2*
X1810416Y5344834D1*
X1825016Y5349663D1*
X1844445D1*
X1859045Y5344834D1*
X1868816Y5335063D1*
Y5325405D1*
X1863874Y5315634D1*
X1859045Y5310805D1*
X1849386Y5305976D1*
X1820186Y5296205D1*
X1810416Y5291376D1*
X1805586Y5286434D1*
X1800757Y5276776D1*
Y5262176D1*
X1810416Y5252517D1*
X1825016Y5247576D1*
X1844445D1*
X1859045Y5252517D1*
X1868816Y5262176D1*
X1769385Y5298563D2*
X1713231D1*
X1623571Y5349551D2*
X1672087D1*
X1676917Y5305863D1*
X1672087Y5310693D1*
X1657487Y5315634D1*
X1643000D1*
X1628400Y5310693D1*
X1618629Y5301034D1*
X1613800Y5286434D1*
Y5276776D1*
X1618629Y5262176D1*
X1628400Y5252405D1*
X1643000Y5247576D1*
X1657487D1*
X1672087Y5252405D1*
X1676917Y5257346D1*
X1681858Y5267005D1*
X1582427Y5330122D2*
X1572656Y5335063D1*
X1558056Y5349551D1*
Y5247576D1*
X1526684Y5298563D2*
X1470530D1*
X1361441Y5247576D2*
Y5349663D1*
X1400299Y5247576D1*
X1439158Y5349663D1*
Y5247576D1*
X1305810Y5315634D2*
X1315468Y5310805D1*
X1325239Y5301034D1*
X1330068Y5286434D1*
Y5276776D1*
X1325239Y5262176D1*
X1315468Y5252517D1*
X1305810Y5247576D1*
X1291210D1*
X1281439Y5252517D1*
X1271780Y5262176D1*
X1266839Y5276776D1*
Y5286434D1*
X1271780Y5301034D1*
X1281439Y5310805D1*
X1291210Y5315634D1*
X1305810D1*
X1177179Y5349663D2*
Y5247576D1*
Y5301034D2*
X1186837Y5310805D1*
X1196608Y5315634D1*
X1211208D1*
X1220866Y5310805D1*
X1230637Y5301034D1*
X1235466Y5286434D1*
Y5276776D1*
X1230637Y5262176D1*
X1220866Y5252517D1*
X1211208Y5247576D1*
X1196608D1*
X1186837Y5252517D1*
X1177179Y5262176D1*
X1145806Y5315634D2*
Y5267005D1*
X1140977Y5252517D1*
X1131206Y5247576D1*
X1116606D1*
X1106948Y5252517D1*
X1092348Y5267005D1*
Y5315634D2*
Y5247576D1*
X1060975Y5349663D2*
Y5247576D1*
X971315Y5315634D2*
Y5247576D1*
Y5301034D2*
X980973Y5310805D1*
X990744Y5315634D1*
X1005232D1*
X1015002Y5310805D1*
X1024661Y5301034D1*
X1029602Y5286434D1*
Y5276776D1*
X1024661Y5262176D1*
X1015002Y5252517D1*
X1005232Y5247576D1*
X990744D1*
X980973Y5252517D1*
X971315Y5262176D1*
X939942Y5315634D2*
Y5247576D1*
Y5286434D2*
X935001Y5301034D1*
X925342Y5310805D1*
X915571Y5315634D1*
X900971D1*
X869599Y5298563D2*
X813445D1*
X709185Y5325405D2*
X714014Y5335063D1*
X723785Y5344834D1*
X733443Y5349663D1*
X752873D1*
X762643Y5344834D1*
X772302Y5335063D1*
X777243Y5325405D1*
X782073Y5310805D1*
Y5286434D1*
X777243Y5271946D1*
X772302Y5262176D1*
X762643Y5252517D1*
X752873Y5247576D1*
X733443D1*
X723785Y5252517D1*
X714014Y5262176D1*
X709185Y5271946D1*
X653554Y5315634D2*
X663212Y5310805D1*
X672983Y5301034D1*
X677812Y5286434D1*
Y5276776D1*
X672983Y5262176D1*
X663212Y5252517D1*
X653554Y5247576D1*
X638954D1*
X629183Y5252517D1*
X619525Y5262176D1*
X614583Y5276776D1*
Y5286434D1*
X619525Y5301034D1*
X629183Y5310805D1*
X638954Y5315634D1*
X653554D1*
X583210D2*
Y5247576D1*
Y5296205D2*
X568610Y5310805D1*
X558840Y5315634D1*
X544352D1*
X534581Y5310805D1*
X529752Y5296205D1*
Y5247576D1*
Y5296205D2*
X515152Y5310805D1*
X505381Y5315634D1*
X490894D1*
X481123Y5310805D1*
X476181Y5296205D1*
Y5247576D1*
X444809Y5315634D2*
Y5213546D1*
Y5301034D2*
X435038Y5310693D1*
X425379Y5315634D1*
X410779D1*
X401009Y5310693D1*
X391350Y5301034D1*
X386409Y5286434D1*
Y5276663D1*
X391350Y5262176D1*
X401009Y5252405D1*
X410779Y5247576D1*
X425379D1*
X435038Y5252405D1*
X444809Y5262176D1*
X355036Y5315634D2*
Y5267005D1*
X350207Y5252517D1*
X340436Y5247576D1*
X325836D1*
X316178Y5252517D1*
X301578Y5267005D1*
Y5315634D2*
Y5247576D1*
X255605Y5349663D2*
Y5267005D1*
X250776Y5252517D1*
X241005Y5247576D1*
X231347D1*
X270205Y5315634D2*
X236176D1*
X199974Y5286434D2*
X141686D1*
Y5296205D1*
X146516Y5305976D1*
X151345Y5310805D1*
X161116Y5315634D1*
X175716D1*
X185374Y5310805D1*
X195145Y5301034D1*
X199974Y5286434D1*
Y5276776D1*
X195145Y5262176D1*
X185374Y5252517D1*
X175716Y5247576D1*
X161116D1*
X151345Y5252517D1*
X141686Y5262176D1*
X110314Y5315634D2*
Y5247576D1*
Y5286434D2*
X105372Y5301034D1*
X95714Y5310805D1*
X85943Y5315634D1*
X71343D1*
M02*
