G04 DipTrace 4.3.0.5*
G04 TopDimension.gbr*
%MOMM*%
G04 #@! TF.FileFunction,Drawing,Top*
G04 #@! TF.Part,Single*
%ADD15C,0.035*%
%ADD32C,0.23529*%
%FSLAX35Y35*%
G04*
G71*
G90*
G75*
G01*
G04 TopDimension*
%LPD*%
X-254000Y9667700D2*
D15*
Y11022000D1*
X5715000Y9667700D2*
Y11022000D1*
X2730500Y10922000D2*
X-54000D1*
G36*
X-254000D2*
X-54000Y10962000D1*
Y10882000D1*
X-254000Y10922000D1*
G37*
X2730500D2*
D15*
X5515000D1*
G36*
X5715000D2*
X5515000Y10882000D1*
Y10962000D1*
X5715000Y10922000D1*
G37*
X4953000Y-127000D2*
D15*
Y-1367500D1*
X-254000Y-174627D2*
Y-1367500D1*
X2349500Y-1267500D2*
X4753000D1*
G36*
X4953000D2*
X4753000Y-1307500D1*
Y-1227500D1*
X4953000Y-1267500D1*
G37*
X2349500D2*
D15*
X-54000D1*
G36*
X-254000D2*
X-54000Y-1227500D1*
Y-1307500D1*
X-254000Y-1267500D1*
G37*
X4911000Y9229873D2*
D15*
X6450000D1*
X5715000Y9652000D2*
X6450000D1*
X6350000D2*
Y9229873D1*
Y9952000D2*
Y9852000D1*
G36*
Y9652000D2*
X6310000Y9852000D1*
X6390000D1*
X6350000Y9652000D1*
G37*
Y8929873D2*
D15*
Y9029873D1*
G36*
Y9229873D2*
X6390000Y9029873D1*
X6310000D1*
X6350000Y9229873D1*
G37*
Y7913578D2*
D15*
Y9652000D1*
X5715000Y9667700D2*
X7466000D1*
X5715000Y-174600D2*
X7466000D1*
X7366000Y4746550D2*
Y9467700D1*
G36*
Y9667700D2*
X7406000Y9467700D1*
X7326000D1*
X7366000Y9667700D1*
G37*
Y4746550D2*
D15*
Y25400D1*
G36*
Y-174600D2*
X7326000Y25400D1*
X7406000D1*
X7366000Y-174600D1*
G37*
X-127000Y558123D2*
D15*
X-544500D1*
X-127000Y2526623D2*
X-544500D1*
X-444500Y1542373D2*
Y758123D1*
G36*
Y558123D2*
X-484500Y758123D1*
X-404500D1*
X-444500Y558123D1*
G37*
Y1542373D2*
D15*
Y2326623D1*
G36*
Y2526623D2*
X-404500Y2326623D1*
X-484500D1*
X-444500Y2526623D1*
G37*
X-127000D2*
D15*
X-544500D1*
X-127000Y4495123D2*
X-544500D1*
X-444500Y3510873D2*
Y2726623D1*
G36*
Y2526623D2*
X-484500Y2726623D1*
X-404500D1*
X-444500Y2526623D1*
G37*
Y3510873D2*
D15*
Y4295123D1*
G36*
Y4495123D2*
X-404500Y4295123D1*
X-484500D1*
X-444500Y4495123D1*
G37*
X-127000D2*
D15*
X-544500D1*
X-127000Y6463623D2*
X-544500D1*
X-444500Y5479373D2*
Y4695123D1*
G36*
Y4495123D2*
X-484500Y4695123D1*
X-404500D1*
X-444500Y4495123D1*
G37*
Y5479373D2*
D15*
Y6263623D1*
G36*
Y6463623D2*
X-404500Y6263623D1*
X-484500D1*
X-444500Y6463623D1*
G37*
X-127000D2*
D15*
X-544500D1*
X-127000Y8432123D2*
X-544500D1*
X-444500Y7447873D2*
Y6663623D1*
G36*
Y6463623D2*
X-484500Y6663623D1*
X-404500D1*
X-444500Y6463623D1*
G37*
Y7447873D2*
D15*
Y8232123D1*
G36*
Y8432123D2*
X-404500Y8232123D1*
X-484500D1*
X-444500Y8432123D1*
G37*
X-127000D2*
D15*
X-544500D1*
X-254000Y9667700D2*
X-544500D1*
X-444500Y9049912D2*
Y8632123D1*
G36*
Y8432123D2*
X-484500Y8632123D1*
X-404500D1*
X-444500Y8432123D1*
G37*
Y9049912D2*
D15*
Y9467700D1*
G36*
Y9667700D2*
X-404500Y9467700D1*
X-484500D1*
X-444500Y9667700D1*
G37*
Y11118486D2*
D15*
Y9667700D1*
X4826000Y8559123D2*
X6831000D1*
X4826000Y9229873D2*
X6831000D1*
X6731000Y8894498D2*
Y8759123D1*
G36*
Y8559123D2*
X6691000Y8759123D1*
X6771000D1*
X6731000Y8559123D1*
G37*
Y8894498D2*
D15*
Y9029873D1*
G36*
Y9229873D2*
X6771000Y9029873D1*
X6691000D1*
X6731000Y9229873D1*
G37*
Y7192121D2*
D15*
Y9229873D1*
X4826000Y939123D2*
X7021500D1*
X4826000Y254000D2*
X7021500D1*
X6921500Y596562D2*
Y739123D1*
G36*
Y939123D2*
X6961500Y739123D1*
X6881500D1*
X6921500Y939123D1*
G37*
Y596562D2*
D15*
Y454000D1*
G36*
Y254000D2*
X6881500Y454000D1*
X6961500D1*
X6921500Y254000D1*
G37*
Y-1047471D2*
D15*
Y939123D1*
X4826000Y254000D2*
X6704000D1*
X5715000Y-174600D2*
X6704000D1*
X6604000Y254000D2*
Y-174600D1*
Y554000D2*
Y454000D1*
G36*
Y254000D2*
X6564000Y454000D1*
X6644000D1*
X6604000Y254000D1*
G37*
Y-474600D2*
D15*
Y-374600D1*
G36*
Y-174600D2*
X6644000Y-374600D1*
X6564000D1*
X6604000Y-174600D1*
G37*
Y-1548846D2*
D15*
Y254000D1*
X5136000Y-174600D2*
Y-989000D1*
X4826000Y0D2*
Y-989000D1*
Y-889000D2*
X5136000D1*
X4526000D2*
X4626000D1*
G36*
X4826000D2*
X4626000Y-929000D1*
Y-849000D1*
X4826000Y-889000D1*
G37*
X5436000D2*
D15*
X5336000D1*
G36*
X5136000D2*
X5336000Y-849000D1*
Y-929000D1*
X5136000Y-889000D1*
G37*
X6146759D2*
D15*
X5136000D1*
Y-174600D2*
Y-671500D1*
X5334000Y127000D2*
Y-671500D1*
X5136000Y-571500D2*
X5334000D1*
X4836000D2*
X4936000D1*
G36*
X5136000D2*
X4936000Y-611500D1*
Y-531500D1*
X5136000Y-571500D1*
G37*
X5634000D2*
D15*
X5534000D1*
G36*
X5334000D2*
X5534000Y-531500D1*
Y-611500D1*
X5334000Y-571500D1*
G37*
X6486493D2*
D15*
X5334000D1*
X2253355Y11121486D2*
D32*
X2180579D1*
X2173335Y11055955D1*
X2180579Y11063198D1*
X2202479Y11070611D1*
X2224211D1*
X2246111Y11063198D1*
X2260767Y11048711D1*
X2268011Y11026811D1*
Y11012323D1*
X2260767Y10990423D1*
X2246111Y10975767D1*
X2224211Y10968523D1*
X2202479D1*
X2180579Y10975767D1*
X2173335Y10983179D1*
X2165923Y10997667D1*
X2409913Y11070611D2*
X2402501Y11048711D1*
X2388013Y11034055D1*
X2366113Y11026811D1*
X2358870D1*
X2336970Y11034055D1*
X2322482Y11048711D1*
X2315070Y11070611D1*
Y11077855D1*
X2322482Y11099755D1*
X2336970Y11114242D1*
X2358870Y11121486D1*
X2366113D1*
X2388013Y11114242D1*
X2402501Y11099755D1*
X2409913Y11070611D1*
Y11034055D1*
X2402501Y10997667D1*
X2388013Y10975767D1*
X2366113Y10968523D1*
X2351626D1*
X2329726Y10975767D1*
X2322482Y10990423D1*
X2464216Y10983179D2*
X2456972Y10975767D1*
X2464216Y10968523D1*
X2471628Y10975767D1*
X2464216Y10983179D1*
X2606119Y11099755D2*
X2598875Y11114242D1*
X2576975Y11121486D1*
X2562487D1*
X2540587Y11114242D1*
X2525931Y11092342D1*
X2518687Y11055955D1*
Y11019567D1*
X2525931Y10990423D1*
X2540587Y10975767D1*
X2562487Y10968523D1*
X2569731D1*
X2591463Y10975767D1*
X2606119Y10990423D1*
X2613363Y11012323D1*
Y11019567D1*
X2606119Y11041467D1*
X2591463Y11055955D1*
X2569731Y11063198D1*
X2562487D1*
X2540587Y11055955D1*
X2525931Y11041467D1*
X2518687Y11019567D1*
X2755265Y11070611D2*
X2747853Y11048711D1*
X2733365Y11034055D1*
X2711465Y11026811D1*
X2704221D1*
X2682321Y11034055D1*
X2667834Y11048711D1*
X2660421Y11070611D1*
Y11077855D1*
X2667834Y11099755D1*
X2682321Y11114242D1*
X2704221Y11121486D1*
X2711465D1*
X2733365Y11114242D1*
X2747853Y11099755D1*
X2755265Y11070611D1*
Y11034055D1*
X2747853Y10997667D1*
X2733365Y10975767D1*
X2711465Y10968523D1*
X2696978D1*
X2675078Y10975767D1*
X2667834Y10990423D1*
X2950460Y11070611D2*
Y10968523D1*
Y11041467D2*
X2972360Y11063367D1*
X2987016Y11070611D1*
X3008748D1*
X3023404Y11063367D1*
X3030648Y11041467D1*
Y10968523D1*
Y11041467D2*
X3052548Y11063367D1*
X3067204Y11070611D1*
X3088935D1*
X3103591Y11063367D1*
X3111004Y11041467D1*
Y10968523D1*
X3158063Y11070611D2*
Y10968523D1*
Y11041467D2*
X3179963Y11063367D1*
X3194619Y11070611D1*
X3216350D1*
X3231006Y11063367D1*
X3238250Y11041467D1*
Y10968523D1*
Y11041467D2*
X3260150Y11063367D1*
X3274806Y11070611D1*
X3296538D1*
X3311194Y11063367D1*
X3318606Y11041467D1*
Y10968523D1*
X1861405Y-1068014D2*
X1788629D1*
X1781385Y-1133545D1*
X1788629Y-1126302D1*
X1810529Y-1118889D1*
X1832261D1*
X1854161Y-1126302D1*
X1868817Y-1140789D1*
X1876061Y-1162689D1*
Y-1177177D1*
X1868817Y-1199077D1*
X1854161Y-1213733D1*
X1832261Y-1220977D1*
X1810529D1*
X1788629Y-1213733D1*
X1781385Y-1206321D1*
X1773973Y-1191833D1*
X1930532Y-1104402D2*
Y-1097158D1*
X1937776Y-1082502D1*
X1945020Y-1075258D1*
X1959676Y-1068014D1*
X1988820D1*
X2003307Y-1075258D1*
X2010551Y-1082502D1*
X2017963Y-1097158D1*
Y-1111645D1*
X2010551Y-1126302D1*
X1996063Y-1148033D1*
X1923120Y-1220977D1*
X2025207D1*
X2079510Y-1206321D2*
X2072266Y-1213733D1*
X2079510Y-1220977D1*
X2086922Y-1213733D1*
X2079510Y-1206321D1*
X2177781Y-1068014D2*
X2155881Y-1075258D1*
X2141225Y-1097158D1*
X2133981Y-1133545D1*
Y-1155445D1*
X2141225Y-1191833D1*
X2155881Y-1213733D1*
X2177781Y-1220977D1*
X2192269D1*
X2214169Y-1213733D1*
X2228656Y-1191833D1*
X2236069Y-1155445D1*
Y-1133545D1*
X2228656Y-1097158D1*
X2214169Y-1075258D1*
X2192269Y-1068014D1*
X2177781D1*
X2228656Y-1097158D2*
X2141225Y-1191833D1*
X2312271Y-1220977D2*
X2385215Y-1068014D1*
X2283128D1*
X2580410Y-1118889D2*
Y-1220977D1*
Y-1148033D2*
X2602310Y-1126133D1*
X2616966Y-1118889D1*
X2638698D1*
X2653354Y-1126133D1*
X2660598Y-1148033D1*
Y-1220977D1*
Y-1148033D2*
X2682498Y-1126133D1*
X2697154Y-1118889D1*
X2718885D1*
X2733541Y-1126133D1*
X2740954Y-1148033D1*
Y-1220977D1*
X2788013Y-1118889D2*
Y-1220977D1*
Y-1148033D2*
X2809913Y-1126133D1*
X2824569Y-1118889D1*
X2846300D1*
X2860956Y-1126133D1*
X2868200Y-1148033D1*
Y-1220977D1*
Y-1148033D2*
X2890100Y-1126133D1*
X2904756Y-1118889D1*
X2926488D1*
X2941144Y-1126133D1*
X2948556Y-1148033D1*
Y-1220977D1*
X6396523Y8921635D2*
X6549486D1*
X6447567Y8994579D1*
Y8885248D1*
X6411179Y8830945D2*
X6403767Y8838189D1*
X6396523Y8830945D1*
X6403767Y8823533D1*
X6411179Y8830945D1*
X6513098Y8769062D2*
X6520342D1*
X6534998Y8761818D1*
X6542242Y8754574D1*
X6549486Y8739918D1*
Y8710774D1*
X6542242Y8696286D1*
X6534998Y8689042D1*
X6520342Y8681630D1*
X6505855D1*
X6491198Y8689042D1*
X6469467Y8703530D1*
X6396523Y8776474D1*
Y8674386D1*
X6513098Y8619915D2*
X6520342D1*
X6534998Y8612671D1*
X6542242Y8605427D1*
X6549486Y8590771D1*
Y8561627D1*
X6542242Y8547140D1*
X6534998Y8539896D1*
X6520342Y8532484D1*
X6505855D1*
X6491198Y8539896D1*
X6469467Y8554384D1*
X6396523Y8627327D1*
Y8525240D1*
X6520342Y8478181D2*
X6527755Y8463525D1*
X6549486Y8441625D1*
X6396523D1*
X6498611Y8246430D2*
X6396523D1*
X6469467D2*
X6491367Y8224530D1*
X6498611Y8209874D1*
Y8188142D1*
X6491367Y8173486D1*
X6469467Y8166242D1*
X6396523D1*
X6469467D2*
X6491367Y8144342D1*
X6498611Y8129686D1*
Y8107955D1*
X6491367Y8093299D1*
X6469467Y8085886D1*
X6396523D1*
X6498611Y8038827D2*
X6396523D1*
X6469467D2*
X6491367Y8016927D1*
X6498611Y8002271D1*
Y7980540D1*
X6491367Y7965884D1*
X6469467Y7958640D1*
X6396523D1*
X6469467D2*
X6491367Y7936740D1*
X6498611Y7922084D1*
Y7900352D1*
X6491367Y7885696D1*
X6469467Y7878284D1*
X6396523D1*
X7514611Y5301722D2*
X7492711Y5309134D1*
X7478055Y5323622D1*
X7470811Y5345522D1*
Y5352766D1*
X7478055Y5374666D1*
X7492711Y5389154D1*
X7514611Y5396566D1*
X7521855D1*
X7543755Y5389154D1*
X7558242Y5374666D1*
X7565486Y5352766D1*
Y5345522D1*
X7558242Y5323622D1*
X7543755Y5309134D1*
X7514611Y5301722D1*
X7478055D1*
X7441667Y5309134D1*
X7419767Y5323622D1*
X7412523Y5345522D1*
Y5360010D1*
X7419767Y5381910D1*
X7434423Y5389154D1*
X7565486Y5218276D2*
X7558242Y5240007D1*
X7543755Y5247419D1*
X7529098D1*
X7514611Y5240007D1*
X7507198Y5225519D1*
X7499955Y5196376D1*
X7492711Y5174476D1*
X7478055Y5159988D1*
X7463567Y5152744D1*
X7441667D1*
X7427179Y5159988D1*
X7419767Y5167232D1*
X7412523Y5189132D1*
Y5218276D1*
X7419767Y5240007D1*
X7427179Y5247419D1*
X7441667Y5254663D1*
X7463567D1*
X7478055Y5247419D1*
X7492711Y5232763D1*
X7499955Y5211032D1*
X7507198Y5181888D1*
X7514611Y5167232D1*
X7529098Y5159988D1*
X7543755D1*
X7558242Y5167232D1*
X7565486Y5189132D1*
Y5218276D1*
X7427179Y5098441D2*
X7419767Y5105685D1*
X7412523Y5098441D1*
X7419767Y5091029D1*
X7427179Y5098441D1*
X7412523Y4971026D2*
X7565486D1*
X7463567Y5043970D1*
Y4934639D1*
X7529098Y4880168D2*
X7536342D1*
X7550998Y4872924D1*
X7558242Y4865680D1*
X7565486Y4851024D1*
Y4821880D1*
X7558242Y4807392D1*
X7550998Y4800148D1*
X7536342Y4792736D1*
X7521855D1*
X7507198Y4800148D1*
X7485467Y4814636D1*
X7412523Y4887580D1*
Y4785492D1*
X7565486Y4723777D2*
Y4643758D1*
X7507198Y4687390D1*
Y4665490D1*
X7499955Y4651002D1*
X7492711Y4643758D1*
X7470811Y4636346D1*
X7456323D1*
X7434423Y4643758D1*
X7419767Y4658246D1*
X7412523Y4680146D1*
Y4702046D1*
X7419767Y4723777D1*
X7427179Y4731021D1*
X7441667Y4738433D1*
X7514611Y4441151D2*
X7412523D1*
X7485467D2*
X7507367Y4419251D1*
X7514611Y4404595D1*
Y4382863D1*
X7507367Y4368207D1*
X7485467Y4360963D1*
X7412523D1*
X7485467D2*
X7507367Y4339063D1*
X7514611Y4324407D1*
Y4302676D1*
X7507367Y4288020D1*
X7485467Y4280607D1*
X7412523D1*
X7514611Y4233548D2*
X7412523D1*
X7485467D2*
X7507367Y4211648D1*
X7514611Y4196992D1*
Y4175261D1*
X7507367Y4160605D1*
X7485467Y4153361D1*
X7412523D1*
X7485467D2*
X7507367Y4131461D1*
X7514611Y4116805D1*
Y4095073D1*
X7507367Y4080417D1*
X7485467Y4073005D1*
X7412523D1*
X-614842Y932451D2*
X-622255Y947107D1*
X-643986Y969007D1*
X-491023D1*
X-593111Y1110910D2*
X-571211Y1103498D1*
X-556555Y1089010D1*
X-549311Y1067110D1*
Y1059866D1*
X-556555Y1037966D1*
X-571211Y1023478D1*
X-593111Y1016066D1*
X-600355D1*
X-622255Y1023478D1*
X-636742Y1037966D1*
X-643986Y1059866D1*
Y1067110D1*
X-636742Y1089010D1*
X-622255Y1103498D1*
X-593111Y1110910D1*
X-556555D1*
X-520167Y1103498D1*
X-498267Y1089010D1*
X-491023Y1067110D1*
Y1052622D1*
X-498267Y1030722D1*
X-512923Y1023478D1*
X-505679Y1165213D2*
X-498267Y1157969D1*
X-491023Y1165213D1*
X-498267Y1172625D1*
X-505679Y1165213D1*
X-622255Y1307115D2*
X-636742Y1299872D1*
X-643986Y1277972D1*
Y1263484D1*
X-636742Y1241584D1*
X-614842Y1226928D1*
X-578455Y1219684D1*
X-542067D1*
X-512923Y1226928D1*
X-498267Y1241584D1*
X-491023Y1263484D1*
Y1270728D1*
X-498267Y1292459D1*
X-512923Y1307115D1*
X-534823Y1314359D1*
X-542067D1*
X-563967Y1307115D1*
X-578455Y1292459D1*
X-585698Y1270728D1*
Y1263484D1*
X-578455Y1241584D1*
X-563967Y1226928D1*
X-542067Y1219684D1*
X-643986Y1397806D2*
X-636742Y1376074D1*
X-622255Y1368662D1*
X-607598D1*
X-593111Y1376074D1*
X-585698Y1390562D1*
X-578455Y1419706D1*
X-571211Y1441606D1*
X-556555Y1456093D1*
X-542067Y1463337D1*
X-520167D1*
X-505679Y1456093D1*
X-498267Y1448850D1*
X-491023Y1426950D1*
Y1397806D1*
X-498267Y1376074D1*
X-505679Y1368662D1*
X-520167Y1361418D1*
X-542067D1*
X-556555Y1368662D1*
X-571211Y1383318D1*
X-578455Y1405050D1*
X-585698Y1434193D1*
X-593111Y1448850D1*
X-607598Y1456093D1*
X-622255D1*
X-636742Y1448850D1*
X-643986Y1426950D1*
Y1397806D1*
Y1597828D2*
Y1525052D1*
X-578455Y1517808D1*
X-585698Y1525052D1*
X-593111Y1546952D1*
Y1568684D1*
X-585698Y1590584D1*
X-571211Y1605240D1*
X-549311Y1612484D1*
X-534823D1*
X-512923Y1605240D1*
X-498267Y1590584D1*
X-491023Y1568684D1*
Y1546952D1*
X-498267Y1525052D1*
X-505679Y1517808D1*
X-520167Y1510396D1*
X-593111Y1807678D2*
X-491023D1*
X-563967D2*
X-585867Y1829578D1*
X-593111Y1844235D1*
Y1865966D1*
X-585867Y1880622D1*
X-563967Y1887866D1*
X-491023D1*
X-563967D2*
X-585867Y1909766D1*
X-593111Y1924422D1*
Y1946154D1*
X-585867Y1960810D1*
X-563967Y1968222D1*
X-491023D1*
X-593111Y2015281D2*
X-491023D1*
X-563967D2*
X-585867Y2037181D1*
X-593111Y2051837D1*
Y2073569D1*
X-585867Y2088225D1*
X-563967Y2095469D1*
X-491023D1*
X-563967D2*
X-585867Y2117369D1*
X-593111Y2132025D1*
Y2153756D1*
X-585867Y2168413D1*
X-563967Y2175825D1*
X-491023D1*
X-614842Y2900951D2*
X-622255Y2915607D1*
X-643986Y2937507D1*
X-491023D1*
X-593111Y3079410D2*
X-571211Y3071998D1*
X-556555Y3057510D1*
X-549311Y3035610D1*
Y3028366D1*
X-556555Y3006466D1*
X-571211Y2991978D1*
X-593111Y2984566D1*
X-600355D1*
X-622255Y2991978D1*
X-636742Y3006466D1*
X-643986Y3028366D1*
Y3035610D1*
X-636742Y3057510D1*
X-622255Y3071998D1*
X-593111Y3079410D1*
X-556555D1*
X-520167Y3071998D1*
X-498267Y3057510D1*
X-491023Y3035610D1*
Y3021122D1*
X-498267Y2999222D1*
X-512923Y2991978D1*
X-505679Y3133713D2*
X-498267Y3126469D1*
X-491023Y3133713D1*
X-498267Y3141125D1*
X-505679Y3133713D1*
X-622255Y3275615D2*
X-636742Y3268372D1*
X-643986Y3246472D1*
Y3231984D1*
X-636742Y3210084D1*
X-614842Y3195428D1*
X-578455Y3188184D1*
X-542067D1*
X-512923Y3195428D1*
X-498267Y3210084D1*
X-491023Y3231984D1*
Y3239228D1*
X-498267Y3260959D1*
X-512923Y3275615D1*
X-534823Y3282859D1*
X-542067D1*
X-563967Y3275615D1*
X-578455Y3260959D1*
X-585698Y3239228D1*
Y3231984D1*
X-578455Y3210084D1*
X-563967Y3195428D1*
X-542067Y3188184D1*
X-643986Y3366306D2*
X-636742Y3344574D1*
X-622255Y3337162D1*
X-607598D1*
X-593111Y3344574D1*
X-585698Y3359062D1*
X-578455Y3388206D1*
X-571211Y3410106D1*
X-556555Y3424593D1*
X-542067Y3431837D1*
X-520167D1*
X-505679Y3424593D1*
X-498267Y3417350D1*
X-491023Y3395450D1*
Y3366306D1*
X-498267Y3344574D1*
X-505679Y3337162D1*
X-520167Y3329918D1*
X-542067D1*
X-556555Y3337162D1*
X-571211Y3351818D1*
X-578455Y3373550D1*
X-585698Y3402693D1*
X-593111Y3417350D1*
X-607598Y3424593D1*
X-622255D1*
X-636742Y3417350D1*
X-643986Y3395450D1*
Y3366306D1*
Y3566328D2*
Y3493552D1*
X-578455Y3486308D1*
X-585698Y3493552D1*
X-593111Y3515452D1*
Y3537184D1*
X-585698Y3559084D1*
X-571211Y3573740D1*
X-549311Y3580984D1*
X-534823D1*
X-512923Y3573740D1*
X-498267Y3559084D1*
X-491023Y3537184D1*
Y3515452D1*
X-498267Y3493552D1*
X-505679Y3486308D1*
X-520167Y3478896D1*
X-593111Y3776178D2*
X-491023D1*
X-563967D2*
X-585867Y3798078D1*
X-593111Y3812735D1*
Y3834466D1*
X-585867Y3849122D1*
X-563967Y3856366D1*
X-491023D1*
X-563967D2*
X-585867Y3878266D1*
X-593111Y3892922D1*
Y3914654D1*
X-585867Y3929310D1*
X-563967Y3936722D1*
X-491023D1*
X-593111Y3983781D2*
X-491023D1*
X-563967D2*
X-585867Y4005681D1*
X-593111Y4020337D1*
Y4042069D1*
X-585867Y4056725D1*
X-563967Y4063969D1*
X-491023D1*
X-563967D2*
X-585867Y4085869D1*
X-593111Y4100525D1*
Y4122256D1*
X-585867Y4136913D1*
X-563967Y4144325D1*
X-491023D1*
X-614842Y4869451D2*
X-622255Y4884107D1*
X-643986Y4906007D1*
X-491023D1*
X-593111Y5047910D2*
X-571211Y5040498D1*
X-556555Y5026010D1*
X-549311Y5004110D1*
Y4996866D1*
X-556555Y4974966D1*
X-571211Y4960478D1*
X-593111Y4953066D1*
X-600355D1*
X-622255Y4960478D1*
X-636742Y4974966D1*
X-643986Y4996866D1*
Y5004110D1*
X-636742Y5026010D1*
X-622255Y5040498D1*
X-593111Y5047910D1*
X-556555D1*
X-520167Y5040498D1*
X-498267Y5026010D1*
X-491023Y5004110D1*
Y4989622D1*
X-498267Y4967722D1*
X-512923Y4960478D1*
X-505679Y5102213D2*
X-498267Y5094969D1*
X-491023Y5102213D1*
X-498267Y5109625D1*
X-505679Y5102213D1*
X-622255Y5244115D2*
X-636742Y5236872D1*
X-643986Y5214972D1*
Y5200484D1*
X-636742Y5178584D1*
X-614842Y5163928D1*
X-578455Y5156684D1*
X-542067D1*
X-512923Y5163928D1*
X-498267Y5178584D1*
X-491023Y5200484D1*
Y5207728D1*
X-498267Y5229459D1*
X-512923Y5244115D1*
X-534823Y5251359D1*
X-542067D1*
X-563967Y5244115D1*
X-578455Y5229459D1*
X-585698Y5207728D1*
Y5200484D1*
X-578455Y5178584D1*
X-563967Y5163928D1*
X-542067Y5156684D1*
X-643986Y5334806D2*
X-636742Y5313074D1*
X-622255Y5305662D1*
X-607598D1*
X-593111Y5313074D1*
X-585698Y5327562D1*
X-578455Y5356706D1*
X-571211Y5378606D1*
X-556555Y5393093D1*
X-542067Y5400337D1*
X-520167D1*
X-505679Y5393093D1*
X-498267Y5385850D1*
X-491023Y5363950D1*
Y5334806D1*
X-498267Y5313074D1*
X-505679Y5305662D1*
X-520167Y5298418D1*
X-542067D1*
X-556555Y5305662D1*
X-571211Y5320318D1*
X-578455Y5342050D1*
X-585698Y5371193D1*
X-593111Y5385850D1*
X-607598Y5393093D1*
X-622255D1*
X-636742Y5385850D1*
X-643986Y5363950D1*
Y5334806D1*
Y5534828D2*
Y5462052D1*
X-578455Y5454808D1*
X-585698Y5462052D1*
X-593111Y5483952D1*
Y5505684D1*
X-585698Y5527584D1*
X-571211Y5542240D1*
X-549311Y5549484D1*
X-534823D1*
X-512923Y5542240D1*
X-498267Y5527584D1*
X-491023Y5505684D1*
Y5483952D1*
X-498267Y5462052D1*
X-505679Y5454808D1*
X-520167Y5447396D1*
X-593111Y5744678D2*
X-491023D1*
X-563967D2*
X-585867Y5766578D1*
X-593111Y5781235D1*
Y5802966D1*
X-585867Y5817622D1*
X-563967Y5824866D1*
X-491023D1*
X-563967D2*
X-585867Y5846766D1*
X-593111Y5861422D1*
Y5883154D1*
X-585867Y5897810D1*
X-563967Y5905222D1*
X-491023D1*
X-593111Y5952281D2*
X-491023D1*
X-563967D2*
X-585867Y5974181D1*
X-593111Y5988837D1*
Y6010569D1*
X-585867Y6025225D1*
X-563967Y6032469D1*
X-491023D1*
X-563967D2*
X-585867Y6054369D1*
X-593111Y6069025D1*
Y6090756D1*
X-585867Y6105413D1*
X-563967Y6112825D1*
X-491023D1*
X-614842Y6837951D2*
X-622255Y6852607D1*
X-643986Y6874507D1*
X-491023D1*
X-593111Y7016410D2*
X-571211Y7008998D1*
X-556555Y6994510D1*
X-549311Y6972610D1*
Y6965366D1*
X-556555Y6943466D1*
X-571211Y6928978D1*
X-593111Y6921566D1*
X-600355D1*
X-622255Y6928978D1*
X-636742Y6943466D1*
X-643986Y6965366D1*
Y6972610D1*
X-636742Y6994510D1*
X-622255Y7008998D1*
X-593111Y7016410D1*
X-556555D1*
X-520167Y7008998D1*
X-498267Y6994510D1*
X-491023Y6972610D1*
Y6958122D1*
X-498267Y6936222D1*
X-512923Y6928978D1*
X-505679Y7070713D2*
X-498267Y7063469D1*
X-491023Y7070713D1*
X-498267Y7078125D1*
X-505679Y7070713D1*
X-622255Y7212615D2*
X-636742Y7205372D1*
X-643986Y7183472D1*
Y7168984D1*
X-636742Y7147084D1*
X-614842Y7132428D1*
X-578455Y7125184D1*
X-542067D1*
X-512923Y7132428D1*
X-498267Y7147084D1*
X-491023Y7168984D1*
Y7176228D1*
X-498267Y7197959D1*
X-512923Y7212615D1*
X-534823Y7219859D1*
X-542067D1*
X-563967Y7212615D1*
X-578455Y7197959D1*
X-585698Y7176228D1*
Y7168984D1*
X-578455Y7147084D1*
X-563967Y7132428D1*
X-542067Y7125184D1*
X-643986Y7303306D2*
X-636742Y7281574D1*
X-622255Y7274162D1*
X-607598D1*
X-593111Y7281574D1*
X-585698Y7296062D1*
X-578455Y7325206D1*
X-571211Y7347106D1*
X-556555Y7361593D1*
X-542067Y7368837D1*
X-520167D1*
X-505679Y7361593D1*
X-498267Y7354350D1*
X-491023Y7332450D1*
Y7303306D1*
X-498267Y7281574D1*
X-505679Y7274162D1*
X-520167Y7266918D1*
X-542067D1*
X-556555Y7274162D1*
X-571211Y7288818D1*
X-578455Y7310550D1*
X-585698Y7339693D1*
X-593111Y7354350D1*
X-607598Y7361593D1*
X-622255D1*
X-636742Y7354350D1*
X-643986Y7332450D1*
Y7303306D1*
Y7503328D2*
Y7430552D1*
X-578455Y7423308D1*
X-585698Y7430552D1*
X-593111Y7452452D1*
Y7474184D1*
X-585698Y7496084D1*
X-571211Y7510740D1*
X-549311Y7517984D1*
X-534823D1*
X-512923Y7510740D1*
X-498267Y7496084D1*
X-491023Y7474184D1*
Y7452452D1*
X-498267Y7430552D1*
X-505679Y7423308D1*
X-520167Y7415896D1*
X-593111Y7713178D2*
X-491023D1*
X-563967D2*
X-585867Y7735078D1*
X-593111Y7749735D1*
Y7771466D1*
X-585867Y7786122D1*
X-563967Y7793366D1*
X-491023D1*
X-563967D2*
X-585867Y7815266D1*
X-593111Y7829922D1*
Y7851654D1*
X-585867Y7866310D1*
X-563967Y7873722D1*
X-491023D1*
X-593111Y7920781D2*
X-491023D1*
X-563967D2*
X-585867Y7942681D1*
X-593111Y7957337D1*
Y7979069D1*
X-585867Y7993725D1*
X-563967Y8000969D1*
X-491023D1*
X-563967D2*
X-585867Y8022869D1*
X-593111Y8037525D1*
Y8059256D1*
X-585867Y8073913D1*
X-563967Y8081325D1*
X-491023D1*
X-614842Y9902994D2*
X-622255Y9917650D1*
X-643986Y9939550D1*
X-491023D1*
X-607598Y9994021D2*
X-614842D1*
X-629498Y10001265D1*
X-636742Y10008509D1*
X-643986Y10023165D1*
Y10052309D1*
X-636742Y10066797D1*
X-629498Y10074041D1*
X-614842Y10081453D1*
X-600355D1*
X-585698Y10074041D1*
X-563967Y10059553D1*
X-491023Y9986609D1*
Y10088697D1*
X-505679Y10142999D2*
X-498267Y10135756D1*
X-491023Y10142999D1*
X-498267Y10150412D1*
X-505679Y10142999D1*
X-643986Y10212127D2*
Y10292146D1*
X-585698Y10248514D1*
Y10270414D1*
X-578455Y10284902D1*
X-571211Y10292146D1*
X-549311Y10299558D1*
X-534823D1*
X-512923Y10292146D1*
X-498267Y10277658D1*
X-491023Y10255758D1*
Y10233858D1*
X-498267Y10212127D1*
X-505679Y10204883D1*
X-520167Y10197471D1*
X-643986Y10434049D2*
Y10361273D1*
X-578455Y10354029D1*
X-585698Y10361273D1*
X-593111Y10383173D1*
Y10404905D1*
X-585698Y10426805D1*
X-571211Y10441461D1*
X-549311Y10448705D1*
X-534823D1*
X-512923Y10441461D1*
X-498267Y10426805D1*
X-491023Y10404905D1*
Y10383173D1*
X-498267Y10361273D1*
X-505679Y10354029D1*
X-520167Y10346617D1*
X-622255Y10583195D2*
X-636742Y10575951D1*
X-643986Y10554051D1*
Y10539564D1*
X-636742Y10517664D1*
X-614842Y10503007D1*
X-578455Y10495764D1*
X-542067D1*
X-512923Y10503007D1*
X-498267Y10517664D1*
X-491023Y10539564D1*
Y10546807D1*
X-498267Y10568539D1*
X-512923Y10583195D1*
X-534823Y10590439D1*
X-542067D1*
X-563967Y10583195D1*
X-578455Y10568539D1*
X-585698Y10546807D1*
Y10539564D1*
X-578455Y10517664D1*
X-563967Y10503007D1*
X-542067Y10495764D1*
X-593111Y10785634D2*
X-491023D1*
X-563967D2*
X-585867Y10807534D1*
X-593111Y10822190D1*
Y10843921D1*
X-585867Y10858577D1*
X-563967Y10865821D1*
X-491023D1*
X-563967D2*
X-585867Y10887721D1*
X-593111Y10902377D1*
Y10924109D1*
X-585867Y10938765D1*
X-563967Y10946177D1*
X-491023D1*
X-593111Y10993236D2*
X-491023D1*
X-563967D2*
X-585867Y11015136D1*
X-593111Y11029792D1*
Y11051524D1*
X-585867Y11066180D1*
X-563967Y11073424D1*
X-491023D1*
X-563967D2*
X-585867Y11095324D1*
X-593111Y11109980D1*
Y11131712D1*
X-585867Y11146368D1*
X-563967Y11153780D1*
X-491023D1*
X6908755Y8236398D2*
X6923242Y8243642D1*
X6930486Y8265542D1*
Y8280029D1*
X6923242Y8301929D1*
X6901342Y8316585D1*
X6864955Y8323829D1*
X6828567D1*
X6799423Y8316585D1*
X6784767Y8301929D1*
X6777523Y8280029D1*
Y8272785D1*
X6784767Y8251054D1*
X6799423Y8236398D1*
X6821323Y8229154D1*
X6828567D1*
X6850467Y8236398D1*
X6864955Y8251054D1*
X6872198Y8272785D1*
Y8280029D1*
X6864955Y8301929D1*
X6850467Y8316585D1*
X6828567Y8323829D1*
X6792179Y8174851D2*
X6784767Y8182095D1*
X6777523Y8174851D1*
X6784767Y8167439D1*
X6792179Y8174851D1*
X6777523Y8091236D2*
X6930486Y8018292D1*
Y8120380D1*
Y7927434D2*
X6923242Y7949334D1*
X6901342Y7963990D1*
X6864955Y7971234D1*
X6843055D1*
X6806667Y7963990D1*
X6784767Y7949334D1*
X6777523Y7927434D1*
Y7912946D1*
X6784767Y7891046D1*
X6806667Y7876558D1*
X6843055Y7869146D1*
X6864955D1*
X6901342Y7876558D1*
X6923242Y7891046D1*
X6930486Y7912946D1*
Y7927434D1*
X6901342Y7876558D2*
X6806667Y7963990D1*
X6930486Y7785699D2*
X6923242Y7807431D1*
X6908755Y7814843D1*
X6894098D1*
X6879611Y7807431D1*
X6872198Y7792943D1*
X6864955Y7763799D1*
X6857711Y7741899D1*
X6843055Y7727412D1*
X6828567Y7720168D1*
X6806667D1*
X6792179Y7727412D1*
X6784767Y7734655D1*
X6777523Y7756555D1*
Y7785699D1*
X6784767Y7807431D1*
X6792179Y7814843D1*
X6806667Y7822087D1*
X6828567D1*
X6843055Y7814843D1*
X6857711Y7800187D1*
X6864955Y7778455D1*
X6872198Y7749312D1*
X6879611Y7734655D1*
X6894098Y7727412D1*
X6908755D1*
X6923242Y7734655D1*
X6930486Y7756555D1*
Y7785699D1*
X6879611Y7524973D2*
X6777523D1*
X6850467D2*
X6872367Y7503073D1*
X6879611Y7488417D1*
Y7466686D1*
X6872367Y7452029D1*
X6850467Y7444786D1*
X6777523D1*
X6850467D2*
X6872367Y7422886D1*
X6879611Y7408229D1*
Y7386498D1*
X6872367Y7371842D1*
X6850467Y7364429D1*
X6777523D1*
X6879611Y7317371D2*
X6777523D1*
X6850467D2*
X6872367Y7295471D1*
X6879611Y7280814D1*
Y7259083D1*
X6872367Y7244427D1*
X6850467Y7237183D1*
X6777523D1*
X6850467D2*
X6872367Y7215283D1*
X6879611Y7200627D1*
Y7178895D1*
X6872367Y7164239D1*
X6850467Y7156827D1*
X6777523D1*
X7099255Y-68726D2*
X7113742Y-61482D1*
X7120986Y-39582D1*
Y-25094D1*
X7113742Y-3194D1*
X7091842Y11462D1*
X7055455Y18706D1*
X7019067D1*
X6989923Y11462D1*
X6975267Y-3194D1*
X6968023Y-25094D1*
Y-32338D1*
X6975267Y-54070D1*
X6989923Y-68726D1*
X7011823Y-75970D1*
X7019067D1*
X7040967Y-68726D1*
X7055455Y-54070D1*
X7062698Y-32338D1*
Y-25094D1*
X7055455Y-3194D1*
X7040967Y11462D1*
X7019067Y18706D1*
X6982679Y-130272D2*
X6975267Y-123028D1*
X6968023Y-130272D1*
X6975267Y-137684D1*
X6982679Y-130272D1*
X7120986Y-221131D2*
X7113742Y-199399D1*
X7099255Y-191987D1*
X7084598D1*
X7070111Y-199399D1*
X7062698Y-213887D1*
X7055455Y-243031D1*
X7048211Y-264931D1*
X7033555Y-279419D1*
X7019067Y-286663D1*
X6997167D1*
X6982679Y-279419D1*
X6975267Y-272175D1*
X6968023Y-250275D1*
Y-221131D1*
X6975267Y-199399D1*
X6982679Y-191987D1*
X6997167Y-184743D1*
X7019067D1*
X7033555Y-191987D1*
X7048211Y-206643D1*
X7055455Y-228375D1*
X7062698Y-257519D1*
X7070111Y-272175D1*
X7084598Y-279419D1*
X7099255D1*
X7113742Y-272175D1*
X7120986Y-250275D1*
Y-221131D1*
Y-421153D2*
Y-348378D1*
X7055455Y-341134D1*
X7062698Y-348378D1*
X7070111Y-370278D1*
Y-392009D1*
X7062698Y-413909D1*
X7048211Y-428565D1*
X7026311Y-435809D1*
X7011823D1*
X6989923Y-428565D1*
X6975267Y-413909D1*
X6968023Y-392009D1*
Y-370278D1*
X6975267Y-348378D1*
X6982679Y-341134D1*
X6997167Y-333721D1*
X7091842Y-482868D2*
X7099255Y-497524D1*
X7120986Y-519424D1*
X6968023D1*
X7070111Y-714619D2*
X6968023D1*
X7040967D2*
X7062867Y-736519D1*
X7070111Y-751175D1*
Y-772906D1*
X7062867Y-787562D1*
X7040967Y-794806D1*
X6968023D1*
X7040967D2*
X7062867Y-816706D1*
X7070111Y-831362D1*
Y-853094D1*
X7062867Y-867750D1*
X7040967Y-875162D1*
X6968023D1*
X7070111Y-922221D2*
X6968023D1*
X7040967D2*
X7062867Y-944121D1*
X7070111Y-958777D1*
Y-980509D1*
X7062867Y-995165D1*
X7040967Y-1002409D1*
X6968023D1*
X7040967D2*
X7062867Y-1024309D1*
X7070111Y-1038965D1*
Y-1060697D1*
X7062867Y-1075353D1*
X7040967Y-1082765D1*
X6968023D1*
X6650523Y-482838D2*
X6803486D1*
X6701567Y-409894D1*
Y-519226D1*
X6665179Y-573528D2*
X6657767Y-566284D1*
X6650523Y-573528D1*
X6657767Y-580941D1*
X6665179Y-573528D1*
X6767098Y-635412D2*
X6774342D1*
X6788998Y-642656D1*
X6796242Y-649899D1*
X6803486Y-664556D1*
Y-693699D1*
X6796242Y-708187D1*
X6788998Y-715431D1*
X6774342Y-722843D1*
X6759855D1*
X6745198Y-715431D1*
X6723467Y-700943D1*
X6650523Y-627999D1*
Y-730087D1*
X6803486Y-813534D2*
X6796242Y-791802D1*
X6781755Y-784390D1*
X6767098D1*
X6752611Y-791802D1*
X6745198Y-806290D1*
X6737955Y-835434D1*
X6730711Y-857334D1*
X6716055Y-871821D1*
X6701567Y-879065D1*
X6679667D1*
X6665179Y-871821D1*
X6657767Y-864578D1*
X6650523Y-842678D1*
Y-813534D1*
X6657767Y-791802D1*
X6665179Y-784390D1*
X6679667Y-777146D1*
X6701567D1*
X6716055Y-784390D1*
X6730711Y-799046D1*
X6737955Y-820778D1*
X6745198Y-849921D1*
X6752611Y-864578D1*
X6767098Y-871821D1*
X6781755D1*
X6796242Y-864578D1*
X6803486Y-842678D1*
Y-813534D1*
X6781755Y-1013556D2*
X6796242Y-1006312D1*
X6803486Y-984412D1*
Y-969924D1*
X6796242Y-948024D1*
X6774342Y-933368D1*
X6737955Y-926124D1*
X6701567D1*
X6672423Y-933368D1*
X6657767Y-948024D1*
X6650523Y-969924D1*
Y-977168D1*
X6657767Y-998899D1*
X6672423Y-1013556D1*
X6694323Y-1020799D1*
X6701567D1*
X6723467Y-1013556D1*
X6737955Y-998899D1*
X6745198Y-977168D1*
Y-969924D1*
X6737955Y-948024D1*
X6723467Y-933368D1*
X6701567Y-926124D1*
X6752611Y-1215994D2*
X6650523D1*
X6723467D2*
X6745367Y-1237894D1*
X6752611Y-1252550D1*
Y-1274282D1*
X6745367Y-1288938D1*
X6723467Y-1296182D1*
X6650523D1*
X6723467D2*
X6745367Y-1318082D1*
X6752611Y-1332738D1*
Y-1354469D1*
X6745367Y-1369126D1*
X6723467Y-1376538D1*
X6650523D1*
X6752611Y-1423597D2*
X6650523D1*
X6723467D2*
X6745367Y-1445497D1*
X6752611Y-1460153D1*
Y-1481884D1*
X6745367Y-1496540D1*
X6723467Y-1503784D1*
X6650523D1*
X6723467D2*
X6745367Y-1525684D1*
X6752611Y-1540340D1*
Y-1562072D1*
X6745367Y-1576728D1*
X6723467Y-1584140D1*
X6650523D1*
X5385950Y-689514D2*
X5465970D1*
X5422338Y-747802D1*
X5444238D1*
X5458726Y-755045D1*
X5465970Y-762289D1*
X5473382Y-784189D1*
Y-798677D1*
X5465970Y-820577D1*
X5451482Y-835233D1*
X5429582Y-842477D1*
X5407682D1*
X5385950Y-835233D1*
X5378706Y-827821D1*
X5371294Y-813333D1*
X5527684Y-827821D2*
X5520441Y-835233D1*
X5527684Y-842477D1*
X5535097Y-835233D1*
X5527684Y-827821D1*
X5582156Y-718658D2*
X5596812Y-711245D1*
X5618712Y-689514D1*
Y-842477D1*
X5813906Y-740389D2*
Y-842477D1*
Y-769533D2*
X5835806Y-747633D1*
X5850462Y-740389D1*
X5872194D1*
X5886850Y-747633D1*
X5894094Y-769533D1*
Y-842477D1*
Y-769533D2*
X5915994Y-747633D1*
X5930650Y-740389D1*
X5952382D1*
X5967038Y-747633D1*
X5974450Y-769533D1*
Y-842477D1*
X6021509Y-740389D2*
Y-842477D1*
Y-769533D2*
X6043409Y-747633D1*
X6058065Y-740389D1*
X6079797D1*
X6094453Y-747633D1*
X6101697Y-769533D1*
Y-842477D1*
Y-769533D2*
X6123597Y-747633D1*
X6138253Y-740389D1*
X6159984D1*
X6174641Y-747633D1*
X6182053Y-769533D1*
Y-842477D1*
X5569294Y-401158D2*
X5583950Y-393745D1*
X5605850Y-372014D1*
Y-524977D1*
X5660153Y-510321D2*
X5652909Y-517733D1*
X5660153Y-524977D1*
X5667565Y-517733D1*
X5660153Y-510321D1*
X5809468Y-422889D2*
X5802056Y-444789D1*
X5787568Y-459445D1*
X5765668Y-466689D1*
X5758424D1*
X5736524Y-459445D1*
X5722036Y-444789D1*
X5714624Y-422889D1*
Y-415645D1*
X5722036Y-393745D1*
X5736524Y-379258D1*
X5758424Y-372014D1*
X5765668D1*
X5787568Y-379258D1*
X5802056Y-393745D1*
X5809468Y-422889D1*
Y-459445D1*
X5802056Y-495833D1*
X5787568Y-517733D1*
X5765668Y-524977D1*
X5751180D1*
X5729280Y-517733D1*
X5722036Y-503077D1*
X5892914Y-372014D2*
X5871183Y-379258D1*
X5863771Y-393745D1*
Y-408402D1*
X5871183Y-422889D1*
X5885671Y-430302D1*
X5914814Y-437545D1*
X5936714Y-444789D1*
X5951202Y-459445D1*
X5958446Y-473933D1*
Y-495833D1*
X5951202Y-510321D1*
X5943958Y-517733D1*
X5922058Y-524977D1*
X5892914D1*
X5871183Y-517733D1*
X5863771Y-510321D1*
X5856527Y-495833D1*
Y-473933D1*
X5863771Y-459445D1*
X5878427Y-444789D1*
X5900158Y-437545D1*
X5929302Y-430302D1*
X5943958Y-422889D1*
X5951202Y-408402D1*
Y-393745D1*
X5943958Y-379258D1*
X5922058Y-372014D1*
X5892914D1*
X6153641Y-422889D2*
Y-524977D1*
Y-452033D2*
X6175541Y-430133D1*
X6190197Y-422889D1*
X6211928D1*
X6226584Y-430133D1*
X6233828Y-452033D1*
Y-524977D1*
Y-452033D2*
X6255728Y-430133D1*
X6270384Y-422889D1*
X6292116D1*
X6306772Y-430133D1*
X6314184Y-452033D1*
Y-524977D1*
X6361243Y-422889D2*
Y-524977D1*
Y-452033D2*
X6383143Y-430133D1*
X6397799Y-422889D1*
X6419531D1*
X6434187Y-430133D1*
X6441431Y-452033D1*
Y-524977D1*
Y-452033D2*
X6463331Y-430133D1*
X6477987Y-422889D1*
X6499719D1*
X6514375Y-430133D1*
X6521787Y-452033D1*
Y-524977D1*
M02*
