G04 DipTrace 4.3.0.5*
G04 TopSilk.gbr*
%MOMM*%
G04 #@! TF.FileFunction,Legend,Top*
G04 #@! TF.Part,Single*
%ADD10C,0.25*%
%ADD19C,0.3*%
%ADD34C,0.33333*%
%FSLAX35Y35*%
G04*
G71*
G90*
G75*
G01*
G04 TopSilk*
%LPD*%
X-127000Y1066123D2*
D10*
X4953000D1*
Y558123D1*
X-127000D1*
Y1066123D1*
Y381000D2*
X4953000D1*
Y-127003D1*
X-127000D1*
Y381000D1*
Y3034623D2*
X4953000D1*
Y2526623D1*
X-127000D1*
Y3034623D1*
Y5003123D2*
X4953000D1*
Y4495123D1*
X-127000D1*
Y5003123D1*
Y6971623D2*
X4953000D1*
Y6463623D1*
X-127000D1*
Y6971623D1*
Y8940123D2*
X4953000D1*
Y8432123D1*
X-127000D1*
Y8940123D1*
Y9606873D2*
X4953000D1*
Y9098873D1*
X-127000D1*
Y9606873D1*
X5136000Y9667700D2*
D19*
Y-174600D1*
X530119Y7854776D2*
D34*
Y8007908D1*
X471831Y7854776D1*
X413543Y8007908D1*
Y7854776D1*
X640585Y8007908D2*
X625929Y8000664D1*
X611442Y7986008D1*
X604029Y7971520D1*
X596785Y7949620D1*
Y7913064D1*
X604029Y7891333D1*
X611442Y7876676D1*
X625929Y7862189D1*
X640585Y7854776D1*
X669729D1*
X684217Y7862189D1*
X698873Y7876676D1*
X706117Y7891333D1*
X713361Y7913064D1*
Y7949620D1*
X706117Y7971520D1*
X698873Y7986008D1*
X684217Y8000664D1*
X669729Y8007908D1*
X640585D1*
X780027D2*
Y7898576D1*
X787271Y7876676D1*
X801927Y7862189D1*
X823827Y7854776D1*
X838315D1*
X860215Y7862189D1*
X874871Y7876676D1*
X882115Y7898576D1*
Y8007908D1*
X1050869D2*
Y7854776D1*
X948782Y8007908D1*
Y7854776D1*
X1168580Y8007908D2*
Y7854776D1*
X1117536Y8007908D2*
X1219624D1*
X1556122Y7986008D2*
X1541634Y8000664D1*
X1519734Y8007908D1*
X1490590D1*
X1468690Y8000664D1*
X1454034Y7986008D1*
Y7971520D1*
X1461446Y7956864D1*
X1468690Y7949620D1*
X1483178Y7942376D1*
X1526978Y7927720D1*
X1541634Y7920476D1*
X1548878Y7913064D1*
X1556122Y7898576D1*
Y7876676D1*
X1541634Y7862189D1*
X1519734Y7854776D1*
X1490590D1*
X1468690Y7862189D1*
X1454034Y7876676D1*
X1666588Y8007908D2*
X1651932Y8000664D1*
X1637445Y7986008D1*
X1630032Y7971520D1*
X1622788Y7949620D1*
Y7913064D1*
X1630032Y7891333D1*
X1637445Y7876676D1*
X1651932Y7862189D1*
X1666588Y7854776D1*
X1695732D1*
X1710220Y7862189D1*
X1724876Y7876676D1*
X1732120Y7891333D1*
X1739364Y7913064D1*
Y7949620D1*
X1732120Y7971520D1*
X1724876Y7986008D1*
X1710220Y8000664D1*
X1695732Y8007908D1*
X1666588D1*
X1915362Y7971520D2*
X1908118Y7986008D1*
X1893462Y8000664D1*
X1878974Y8007908D1*
X1849831D1*
X1835174Y8000664D1*
X1820687Y7986008D1*
X1813274Y7971520D1*
X1806031Y7949620D1*
Y7913064D1*
X1813274Y7891333D1*
X1820687Y7876676D1*
X1835174Y7862189D1*
X1849831Y7854776D1*
X1878974D1*
X1893462Y7862189D1*
X1908118Y7876676D1*
X1915362Y7891333D1*
X1982029Y8007908D2*
Y7854776D1*
X2084116Y8007908D2*
X1982029Y7905820D1*
X2018416Y7942376D2*
X2084116Y7854776D1*
X2245458Y8007908D2*
X2150783D1*
Y7854776D1*
X2245458D1*
X2150783Y7934964D2*
X2209071D1*
X2363169Y8007908D2*
Y7854776D1*
X2312125Y8007908D2*
X2414213D1*
X2582967Y7986008D2*
X2568479Y8000664D1*
X2546579Y8007908D1*
X2517436D1*
X2495536Y8000664D1*
X2480879Y7986008D1*
Y7971520D1*
X2488292Y7956864D1*
X2495536Y7949620D1*
X2510023Y7942376D1*
X2553823Y7927720D1*
X2568479Y7920476D1*
X2575723Y7913064D1*
X2582967Y7898576D1*
Y7876676D1*
X2568479Y7862189D1*
X2546579Y7854776D1*
X2517436D1*
X2495536Y7862189D1*
X2480879Y7876676D1*
X2868421Y8007908D2*
Y7854776D1*
X2817377Y8007908D2*
X2919465D1*
X2986132D2*
Y7854776D1*
X3088219Y8007908D2*
Y7854776D1*
X2986132Y7934964D2*
X3088219D1*
X3154886Y8007908D2*
Y7854776D1*
X3323641Y7986008D2*
X3309153Y8000664D1*
X3287253Y8007908D1*
X3258109D1*
X3236209Y8000664D1*
X3221553Y7986008D1*
Y7971520D1*
X3228965Y7956864D1*
X3236209Y7949620D1*
X3250697Y7942376D1*
X3294497Y7927720D1*
X3309153Y7920476D1*
X3316397Y7913064D1*
X3323641Y7898576D1*
Y7876676D1*
X3309153Y7862189D1*
X3287253Y7854776D1*
X3258109D1*
X3236209Y7862189D1*
X3221553Y7876676D1*
X3660138Y7986008D2*
X3645651Y8000664D1*
X3623751Y8007908D1*
X3594607D1*
X3572707Y8000664D1*
X3558051Y7986008D1*
Y7971520D1*
X3565463Y7956864D1*
X3572707Y7949620D1*
X3587195Y7942376D1*
X3630995Y7927720D1*
X3645651Y7920476D1*
X3652895Y7913064D1*
X3660138Y7898576D1*
Y7876676D1*
X3645651Y7862189D1*
X3623751Y7854776D1*
X3594607D1*
X3572707Y7862189D1*
X3558051Y7876676D1*
X3726805Y8007908D2*
Y7854776D1*
X3793472Y8007908D2*
Y7854776D1*
X3844516D1*
X3866416Y7862189D1*
X3881072Y7876676D1*
X3888316Y7891333D1*
X3895559Y7913064D1*
Y7949620D1*
X3888316Y7971520D1*
X3881072Y7986008D1*
X3866416Y8000664D1*
X3844516Y8007908D1*
X3793472D1*
X4056902D2*
X3962226D1*
Y7854776D1*
X4056902D1*
X3962226Y7934964D2*
X4020514D1*
M02*
